<?xml version="1.0" encoding="UTF-8" standalone="no"?>
<svg
   xmlns:dc="http://purl.org/dc/elements/1.1/"
   xmlns:cc="http://creativecommons.org/ns#"
   xmlns:rdf="http://www.w3.org/1999/02/22-rdf-syntax-ns#"
   xmlns:svg="http://www.w3.org/2000/svg"
   xmlns="http://www.w3.org/2000/svg"
   xmlns:sodipodi="http://sodipodi.sourceforge.net/DTD/sodipodi-0.dtd"
   xmlns:inkscape="http://www.inkscape.org/namespaces/inkscape"
   inkscape:version="1.0 (4035a4fb49, 2020-05-01)"
   height="57.506001"
   width="440.005"
   sodipodi:docname="AC.svg"
   id="svg361"
   version="1.1"
   viewBox="0 0 440.005 57.506001"
   fill-rule="evenodd"
   clip-rule="evenodd">
  <metadata
     id="metadata367">
    <rdf:RDF>
      <cc:Work
         rdf:about="">
        <dc:format>image/svg+xml</dc:format>
        <dc:type
           rdf:resource="http://purl.org/dc/dcmitype/StillImage" />
        <dc:title></dc:title>
      </cc:Work>
    </rdf:RDF>
  </metadata>
  <defs
     id="defs365" />
  <sodipodi:namedview
     inkscape:current-layer="svg361"
     inkscape:window-maximized="0"
     inkscape:window-y="0"
     inkscape:window-x="0"
     inkscape:cy="28.753"
     inkscape:cx="220.005"
     inkscape:zoom="1.8732143"
     fit-margin-bottom="0"
     fit-margin-right="0"
     fit-margin-left="0"
     fit-margin-top="0"
     showgrid="false"
     id="namedview363"
     inkscape:window-height="480"
     inkscape:window-width="710"
     inkscape:pageshadow="2"
     inkscape:pageopacity="0"
     guidetolerance="10"
     gridtolerance="10"
     objecttolerance="10"
     borderopacity="1"
     bordercolor="#666666"
     pagecolor="#ffffff" />
  <path
     id="path357"
     fill="#d82f2e"
     d="m 30.294,40.825 c 0,-1.902 1.024,-2.195 2.78,-1.171 3.219,1.756 6.731,3.658 6.731,3.658 0.146,-1.024 1.024,-1.902 2.926,-1.463 1.756,0.439 3.804,0.878 3.804,0.878 0,0 -1.024,-2.488 -1.61,-3.512 -0.878,-2.049 0,-2.926 0.878,-3.219 0,0 -1.171,-0.878 -2.049,-1.463 -1.756,-1.171 -1.317,-2.488 0.293,-3.219 2.341,-1.024 5.268,-2.341 5.268,-2.341 -0.878,-0.585 -2.049,-2.049 -0.732,-3.804 1.171,-1.756 2.926,-4.097 2.926,-4.097 h -5.268 c -1.902,0 -2.341,-1.61 -2.341,-2.634 0,0 -3.073,2.195 -5.268,3.658 -1.902,1.317 -3.512,0 -3.219,-2.195 0.439,-3.365 0.878,-7.17 0.878,-7.17 -1.171,0.732 -3.073,0.732 -3.951,-1.171 -1.463,-2.488 -3.073,-5.853 -3.073,-5.853 0,0 -1.463,3.219 -2.78,5.999 -0.878,1.902 -2.926,1.902 -3.951,1.171 0,0 0.439,3.804 0.878,7.17 0.293,2.195 -1.463,3.365 -3.219,2.195 -2.195,-1.463 -5.268,-3.658 -5.268,-3.658 0,1.024 -0.439,2.634 -2.341,2.634 H 7.318 c 0,0 1.756,2.488 2.926,4.097 1.171,1.756 0.146,3.219 -0.732,3.804 0,0 2.926,1.317 5.268,2.341 1.756,0.732 2.195,1.902 0.293,3.219 -0.878,0.585 -2.049,1.463 -2.049,1.463 0.878,0.293 1.756,1.171 0.878,3.219 -0.439,1.024 -1.61,3.512 -1.61,3.512 0,0 2.049,-0.439 3.804,-0.878 1.902,-0.439 2.926,0.439 2.926,1.463 0,0 3.365,-1.902 6.585,-3.658 1.756,-1.024 2.78,-0.585 2.78,1.171 v 4.39 c 0,2.634 -0.439,5.56 -1.463,7.024 C 14.34,51.068 3.951,41.118 3.951,27.949 3.951,14.341 15.364,3.22 29.265,3.22 c 14.047,0 25.314,10.974 25.314,24.583 0,12.73 -9.804,23.119 -22.534,24.436 v 3.365 C 46.97,54.287 58.53,42.288 58.53,27.802 58.676,12.438 45.507,0 29.265,0 13.169,0 0,12.438 0,27.948 c 0,13.608 10.096,24.875 23.705,27.363 2.341,0.439 3.658,0.732 4.975,2.195 1.463,-2.634 1.756,-8.194 1.756,-11.413 V 40.825 H 30.29 Z" />
  <path
     id="path359"
     d="m 148.671,42.873 v -29.85 h 14.486 c 7.755,0 11.267,3.219 11.413,7.463 0.146,1.902 -0.293,3.804 -1.61,5.268 -1.317,1.463 -1.902,2.049 -4.39,3.219 l 10.974,13.901 h -8.194 l -9.657,-12.291 h -6.585 v 12.291 h -6.438 z m 6.585,-16.388 h 2.926 c 8.048,0 9.657,-1.317 9.657,-5.268 0,-3.804 -3.512,-4.39 -8.779,-4.39 h -3.951 v 9.657 h 0.146 z M 83.264,42.873 96.287,13.023 h 7.902 l 12.877,29.85 h -8.048 l -3.512,-8.048 H 91.751 l -3.512,8.048 z M 93.507,30.874 h 10.389 L 98.775,19.022 Z M 126.43,13.023 h 7.024 v 29.85 h -7.024 z m 103.305,28.826 c -3.365,1.317 -7.463,1.902 -12.291,1.902 -5.853,0 -10.535,-1.463 -13.755,-4.243 -3.365,-2.78 -4.975,-6.731 -4.975,-11.706 0,-5.121 1.61,-8.926 4.975,-11.706 3.365,-2.78 8.048,-4.097 14.194,-4.097 3.951,0 7.902,0.439 11.706,1.171 v 4.829 c -4.39,-1.317 -8.487,-1.902 -11.413,-1.902 -3.804,0 -6.731,1.024 -8.779,2.926 -2.049,2.049 -3.073,4.829 -3.073,8.633 0,3.658 1.024,6.438 3.365,8.487 2.195,2.049 5.268,3.073 9.218,3.073 3.512,0 7.463,-0.732 10.974,-2.195 v 4.829 h -0.146 z m 8.487,1.024 13.023,-29.85 h 7.902 l 12.877,29.85 h -8.048 l -3.512,-8.048 h -13.755 l -3.512,8.048 z m 10.243,-11.999 h 10.389 l -5.121,-11.852 z m 75.943,11.999 13.023,-29.85 h 7.902 l 12.877,29.85 h -8.048 l -3.512,-8.048 h -13.755 l -3.512,8.048 z m 10.243,-11.999 h 10.389 l -5.121,-11.852 z m 71.552,11.999 13.023,-29.85 h 7.902 l 12.877,29.85 h -8.048 l -3.512,-8.048 H 414.69 l -3.512,8.048 z m 10.243,-11.999 h 10.389 L 421.714,19.022 Z M 281.973,42.873 v -29.85 h 8.048 l 18.73,21.217 V 13.023 h 5.707 v 29.85 h -7.316 L 287.681,20.485 v 22.388 h -5.707 z m 86.186,0 v -29.85 h 14.486 c 5.121,0 9.072,1.317 11.852,3.658 2.78,2.488 4.097,5.999 4.097,10.535 0,4.975 -1.463,8.779 -4.39,11.413 -2.926,2.78 -7.024,4.097 -12.291,4.097 h -13.755 v 0.146 z m 6.877,-4.243 h 5.121 c 3.658,0 6.292,-0.878 8.194,-2.634 1.756,-1.756 2.634,-4.536 2.78,-8.194 0,-2.78 -0.732,-5.268 -2.195,-7.17 -1.024,-1.317 -2.195,-2.195 -3.512,-2.78 -1.463,-0.439 -3.365,-0.732 -6.146,-0.732 h -4.243 v 21.51 z" />
</svg>
