<?xml version="1.0" encoding="UTF-8" standalone="no"?>
<svg
   xmlns:dc="http://purl.org/dc/elements/1.1/"
   xmlns:cc="http://creativecommons.org/ns#"
   xmlns:rdf="http://www.w3.org/1999/02/22-rdf-syntax-ns#"
   xmlns:svg="http://www.w3.org/2000/svg"
   xmlns="http://www.w3.org/2000/svg"
   xmlns:sodipodi="http://sodipodi.sourceforge.net/DTD/sodipodi-0.dtd"
   xmlns:inkscape="http://www.inkscape.org/namespaces/inkscape"
   inkscape:version="1.0 (4035a4fb49, 2020-05-01)"
   height="68.863464"
   width="320"
   sodipodi:docname="B6.svg"
   id="svg277"
   version="1.1"
   viewBox="0 0 320 68.863465"
   fill-rule="evenodd"
   clip-rule="evenodd">
  <metadata
     id="metadata283">
    <rdf:RDF>
      <cc:Work
         rdf:about="">
        <dc:format>image/svg+xml</dc:format>
        <dc:type
           rdf:resource="http://purl.org/dc/dcmitype/StillImage" />
        <dc:title></dc:title>
      </cc:Work>
    </rdf:RDF>
  </metadata>
  <defs
     id="defs281" />
  <sodipodi:namedview
     inkscape:current-layer="svg277"
     inkscape:window-maximized="1"
     inkscape:window-y="-8"
     inkscape:window-x="-8"
     inkscape:cy="62.888999"
     inkscape:cx="160"
     inkscape:zoom="1.8732143"
     fit-margin-bottom="0"
     fit-margin-right="0"
     fit-margin-left="0"
     fit-margin-top="0"
     showgrid="false"
     id="namedview279"
     inkscape:window-height="1027"
     inkscape:window-width="1920"
     inkscape:pageshadow="2"
     inkscape:pageopacity="0"
     guidetolerance="10"
     gridtolerance="10"
     objecttolerance="10"
     borderopacity="1"
     bordercolor="#666666"
     pagecolor="#ffffff" />
  <g
     transform="matrix(1,0,0,0.54749575,-120,-75.06769)"
     id="g275"
     fill="#003876">
    <path
       id="path247"
       d="m 234.299,251.824 5.477,-11.679 5.478,11.679 h -10.956 z m -10.343,10.415 h 5.438 l 2.779,-6.015 h 15.099 l 2.74,6.015 h 5.405 l -12.722,-26.202 h -5.84 z" />
    <path
       id="path249"
       d="m 262.375,236.038 h 5.117 v 26.202 h -5.117 z" />
    <path
       id="path251"
       d="m 282.378,247.683 v -7.39 h 9.872 c 4.182,0 6.311,0.61 6.311,3.676 0,3.1 -2.129,3.714 -6.311,3.714 z m -5.119,14.556 h 5.118 v -10.305 h 8.109 l 7.603,10.305 h 6.307 l -8.035,-10.667 c 3.856,-0.213 7.314,-2.882 7.314,-7.71 0,-6.418 -4.467,-7.823 -10.665,-7.823 h -15.75 v 26.202 -0.002 z" />
    <path
       id="path253"
       d="m 310.13,236.038 h 5.116 l 5.049,18.019 h 0.067 l 5.013,-18.019 h 4.903 l 5.084,17.981 h 0.069 l 5.011,-17.981 h 5.01 l -7.64,26.202 h -4.903 l -4.975,-18.593 h -0.072 l -5.011,18.593 h -5.005 l -7.718,-26.202 z" />
    <path
       id="path255"
       d="m 358.682,251.824 5.48,-11.679 5.475,11.679 z m -10.342,10.415 h 5.442 l 2.774,-6.015 h 15.099 l 2.738,6.015 h 5.412 l -12.726,-26.202 h -5.839 z" />
    <path
       id="path257"
       d="m 392.134,251.747 -12.792,-15.709 h 6.269 l 9.08,11.099 9.049,-11.099 h 6.309 l -12.797,15.709 v 10.492 h -5.117 z" />
    <path
       id="path259"
       d="m 434.731,244.003 c -0.828,-2.345 -2.951,-4.361 -9.189,-4.361 -3.461,0 -6.955,0.864 -6.955,3.277 0,1.121 0.648,2.309 5.875,2.959 l 6.199,0.936 c 5.873,0.904 9.339,3.17 9.339,7.569 0,6.2 -5.913,8.507 -12.908,8.507 -11.245,0 -13.985,-5.552 -14.599,-7.534 l 4.939,-1.549 c 0.936,1.91 2.88,4.688 9.804,4.688 4.179,0 7.636,-1.371 7.636,-3.643 0,-1.693 -1.943,-2.81 -5.692,-3.279 l -6.271,-0.864 c -6.055,-0.831 -9.446,-3.463 -9.446,-7.465 0,-7.854 10.204,-7.854 12.219,-7.854 11.282,0 13.225,5.227 13.873,7.026 l -4.826,1.588 z" />
    <path
       id="path261"
       d="m 128.999,158.571 h 10.676 v 57.204 c 0,8.895 -6.493,14.864 -15.495,14.864 H 120 v -10.048 h 3.03 c 3.664,0 5.969,-1.68 5.969,-5.655 z m 0,-21.46 h 10.676 v 10.678 h -10.676 z" />
    <path
       id="path263"
       d="m 157.242,180.342 c 0.208,-8.059 4.919,-12.349 11.202,-12.349 6.283,0 10.887,4.29 11.197,12.349 z m 33.076,8.789 v -8.789 c 0,-13.711 -10.157,-22.399 -21.872,-22.399 -10.264,0 -21.879,6.696 -21.879,27.32 0,21.77 12.663,27.006 23.552,27.006 7.113,0 13.919,-2.517 19.149,-8.586 l -7.739,-6.59 c -3.145,3.241 -7.539,5.127 -11.621,5.127 -7.328,0 -12.665,-4.399 -12.665,-13.088 h 33.075 z" />
    <path
       id="path265"
       d="m 198.781,142.45 h 10.676 v 16.122 h 7.74 v 8.165 h -7.74 v 30.875 c 0,2.934 1.149,3.979 3.759,3.979 h 3.981 v 10.048 h -5.545 c -7.435,0 -12.871,-4.718 -12.871,-13.085 v -31.818 h -5.347 v -8.165 h 5.347 v -16.122 z" />
    <path
       id="path267"
       d="m 252.687,178.563 c 8.372,0 12.133,5.336 12.133,11.197 0,5.865 -3.762,11.201 -12.133,11.201 h -17.379 v -22.398 z m -28.689,33.076 h 31.405 c 11.202,0 20.724,-8.27 20.724,-21.142 0,-7.537 -3.976,-15.282 -12.139,-17.171 v -0.206 c 8.688,-3.874 10.993,-9.84 10.993,-16.013 -10e-4,-11.724 -7.545,-19.995 -22.09,-19.995 h -28.893 z m 27.635,-64.475 c 8.166,0 12.038,4.917 12.038,10.675 0,5.858 -3.872,10.679 -12.038,10.679 h -16.326 v -21.354 z" />
    <path
       id="path269"
       d="m 282.263,137.111 h 10.676 v 60.814 c 0,2.407 1.361,3.665 3.987,3.665 h 3.658 v 10.048 h -4.71 c -7.751,0 -13.61,-3.347 -13.61,-12.877 v -61.65 z" />
    <path
       id="path271"
       d="m 305.082,158.571 h 10.677 v 31.607 c 0,7.227 4.499,11.412 10.578,11.412 5.963,0 10.459,-4.184 10.459,-11.412 v -31.607 h 10.68 v 53.067 h -10.68 v -5.655 h -0.2 c -3.353,4.189 -8.17,6.285 -13.719,6.285 -8.368,0 -17.794,-6.389 -17.794,-18.422 v -35.275 z" />
    <path
       id="path273"
       d="m 363.89,180.342 c 0.217,-8.059 4.919,-12.349 11.2,-12.349 6.279,0 10.884,4.29 11.206,12.349 z m 33.079,8.789 v -8.789 c 0,-13.711 -10.154,-22.399 -21.879,-22.399 -10.259,0 -21.881,6.696 -21.881,27.32 0,21.77 12.671,27.006 23.552,27.006 7.126,0 13.924,-2.517 19.159,-8.586 l -7.749,-6.59 c -3.141,3.241 -7.53,5.127 -11.614,5.127 -7.326,0 -12.667,-4.398 -12.667,-13.089 z" />
  </g>
</svg>
