<?xml version="1.0" encoding="UTF-8" standalone="no"?>
<svg
   xmlns:dc="http://purl.org/dc/elements/1.1/"
   xmlns:cc="http://creativecommons.org/ns#"
   xmlns:rdf="http://www.w3.org/1999/02/22-rdf-syntax-ns#"
   xmlns:svg="http://www.w3.org/2000/svg"
   xmlns="http://www.w3.org/2000/svg"
   xmlns:sodipodi="http://sodipodi.sourceforge.net/DTD/sodipodi-0.dtd"
   xmlns:inkscape="http://www.inkscape.org/namespaces/inkscape"
   inkscape:version="1.0 (4035a4fb49, 2020-05-01)"
   height="67.934021"
   width="440"
   sodipodi:docname="BA.svg"
   id="svg462"
   version="1.1"
   viewBox="0 0 440 67.934021"
   fill-rule="evenodd"
   clip-rule="evenodd">
  <metadata
     id="metadata468">
    <rdf:RDF>
      <cc:Work
         rdf:about="">
        <dc:format>image/svg+xml</dc:format>
        <dc:type
           rdf:resource="http://purl.org/dc/dcmitype/StillImage" />
        <dc:title></dc:title>
      </cc:Work>
    </rdf:RDF>
  </metadata>
  <defs
     id="defs466" />
  <sodipodi:namedview
     inkscape:current-layer="svg462"
     inkscape:window-maximized="0"
     inkscape:window-y="0"
     inkscape:window-x="0"
     inkscape:cy="33.968024"
     inkscape:cx="220"
     inkscape:zoom="1.8732143"
     fit-margin-bottom="0"
     fit-margin-right="0"
     fit-margin-left="0"
     fit-margin-top="0"
     showgrid="false"
     id="namedview464"
     inkscape:window-height="480"
     inkscape:window-width="710"
     inkscape:pageshadow="2"
     inkscape:pageopacity="0"
     guidetolerance="10"
     gridtolerance="10"
     objecttolerance="10"
     borderopacity="1"
     bordercolor="#666666"
     pagecolor="#ffffff" />
  <linearGradient
     x2="1"
     gradientUnits="userSpaceOnUse"
     gradientTransform="matrix(-12.336,21.366,-21.366,-12.336,171.493,-160.07198)"
     id="a">
    <stop
       id="stop439"
       stop-color="#e6ebef"
       offset="0" />
    <stop
       id="stop441"
       stop-color="#bbcee5"
       offset=".08" />
    <stop
       id="stop443"
       stop-color="#85a9d8"
       offset=".19" />
    <stop
       id="stop445"
       stop-color="#5d8fcf"
       offset=".28" />
    <stop
       id="stop447"
       stop-color="#457ec9"
       offset=".35" />
    <stop
       id="stop449"
       stop-color="#3c78c7"
       offset=".4" />
    <stop
       id="stop451"
       stop-color="#2e5c99"
       offset=".9" />
    <stop
       id="stop453"
       stop-color="#2e5c99"
       offset="1" />
  </linearGradient>
  <path
     id="path456"
     fill="#2e5c99"
     d="m 0,67.379024 c 0.966,-0.494 1.398,-1.666 1.398,-2.669 v -24.597 c 0,-1.041 -0.432,-2.178 -1.398,-2.702 h 11.723 c 5.228,0 10.329,2.14 10.329,8.076 0,3.148 -2.744,5.631 -5.702,6.189 4.262,-0.038 8.38,2.565 8.38,7.268 0,6.721 -7.049,8.437 -12.008,8.437 H 0 Z m 9.49,-27.386 c -0.543,0 -0.921,0 -1.921,0.12 v 10.489 h 1.187 c 3.593,0 7.066,-1.11 7.066,-5.274 0,-4.131 -2.776,-5.336 -6.331,-5.336 z m 0.747,13.309 c -0.857,0 -1.626,0 -2.669,0.078 v 11.076 c 1.3,0.255 2.705,0.339 4.001,0.339 3.008,0 6.067,-1.342 6.067,-5.937 0,-4.535 -3.617,-5.556 -7.399,-5.556 z m 26.086,-13.309 c -0.536,0 -1.008,0.088 -1.537,0.162 v 10.363 c 0.49,0.035 0.935,0.086 1.42,0.086 3.372,0 5.868,-1.861 5.868,-5.529 0,-3.748 -2.454,-5.082 -5.751,-5.082 z m 15.11,27.563 c -1.148,0 -2.415,0.042 -3.513,-0.283 -2.04,-0.602 -4.856,-5.199 -5.976,-7.002 -1.741,-2.931 -3.254,-6.969 -7.157,-7.013 v 11.452 c 0,1.003 0.454,2.217 1.42,2.669 h -9 c 0.946,-0.494 1.396,-1.621 1.396,-2.669 v -24.597 c 0,-1.041 -0.452,-2.178 -1.396,-2.702 h 10.836 c 4.714,0 10.613,1.81 10.613,7.474 0,4.752 -3.932,7.188 -8.316,7.188 6.238,0.036 9.902,14.669 16.789,14.711 -1.847,0.547 -3.772,0.771 -5.697,0.771 z m 6.149,-0.177 c 0.744,-0.341 1.522,-1.323 1.522,-2.669 v -24.597 c 0,-1.365 -0.778,-2.332 -1.522,-2.702 h 9.222 c -0.791,0.37 -1.513,1.336 -1.513,2.702 v 24.597 c 0,1.345 0.722,2.328 1.513,2.669 z m 20.012,0 c 0.988,-0.452 1.471,-1.621 1.471,-2.669 v -23.862 h -6.623 c -1.528,0 -3.349,0.188 -4.661,0.966 l 2.058,-4.404 h 21.967 c 1.779,0 3.599,-0.038 5.327,-0.407 -0.837,2.255 -3.327,3.927 -4.762,3.927 -1.745,-0.04 -4.63,-0.157 -7.117,-0.157 v 23.935 c 0,1.048 0.52,2.217 1.489,2.669 h -9.149 z m 20.636,0 c 0.736,-0.341 1.509,-1.323 1.509,-2.669 v -24.597 c 0,-1.365 -0.773,-2.332 -1.509,-2.702 h 9.222 c -0.784,0.37 -1.535,1.336 -1.535,2.702 v 24.597 c 0,1.345 0.751,2.328 1.535,2.669 z m 27.178,-6.78 c 0,-5.708 -13.444,-6.996 -13.444,-16.108 0,-5.64 5.365,-7.487 10.083,-7.487 2.106,0 5.152,0.292 7.077,1.178 l 0.335,5.602 c -1.183,-2.474 -4.145,-4.266 -6.896,-4.266 -2.175,0 -4.453,1.076 -4.453,3.562 0,5.919 13.672,7.365 13.672,15.995 0,6.264 -5.472,8.858 -10.996,8.858 -2.889,0 -6.82,-0.556 -9.257,-2.222 -0.148,-1.003 -0.215,-2.051 -0.215,-3.077 0,-1.223 0.108,-2.45 0.288,-3.657 1.52,3.465 4.667,6.176 8.597,6.176 2.986,0.002 5.21,-1.3 5.21,-4.554 z m 28.803,6.78 c 0.651,-0.293 1.347,-1.323 1.347,-2.669 v -11.151 c -1.604,-0.18 -3.845,-0.259 -6.358,-0.259 -2.552,0 -4.811,0.078 -6.455,0.259 v 11.151 c 0,1.345 0.678,2.328 1.338,2.669 h -8.88 c 0.658,-0.293 1.36,-1.323 1.36,-2.669 v -24.597 c 0,-1.365 -0.702,-2.372 -1.36,-2.702 h 8.88 c -0.66,0.332 -1.338,1.336 -1.338,2.702 v 10.075 c 1.644,0.173 3.863,0.257 6.455,0.257 2.514,0 4.754,-0.109 6.358,-0.257 v -10.075 c 0,-1.365 -0.695,-2.372 -1.347,-2.702 h 8.867 c -0.664,0.332 -1.322,1.336 -1.322,2.702 v 24.597 c 0,1.345 0.658,2.328 1.322,2.669 z m 41.782,0 c 0.286,-0.293 0.545,-0.512 0.545,-1.043 0,-0.179 -0.067,-0.478 -0.286,-1.035 0,0 -2.461,-6.698 -2.749,-7.478 -1.848,-0.228 -3.775,-0.228 -5.662,-0.228 -1.79,0 -3.608,0.042 -5.381,0.228 -0.252,0.671 -2.889,7.332 -2.889,7.332 -0.355,0.901 -0.478,1.209 -0.478,1.405 0,0.445 0.383,0.662 0.707,0.819 h -6.032 c 0.89,-0.452 1.661,-1.382 2.042,-2.308 l 9.913,-25.587 c 0.046,-0.106 0.062,-0.224 0.062,-0.368 0,-0.705 -0.468,-1.375 -1.099,-1.706 h 7.777 l 10.083,27.636 c 0.412,1.11 1.291,1.92 2.029,2.332 h -8.581 v 0.002 z m -7.83,-24.263 -4.545,11.667 c 1.354,0.149 2.76,0.184 4.131,0.184 1.571,0 3.125,0 4.652,-0.184 z m 17.945,24.263 c 0.744,-0.341 1.513,-1.323 1.513,-2.669 v -24.597 c 0,-1.365 -0.769,-2.332 -1.513,-2.702 h 9.217 c -0.784,0.37 -1.515,1.336 -1.515,2.702 v 24.597 c 0,1.345 0.729,2.328 1.515,2.669 z m 23.228,-27.386 c -0.498,0 -0.975,0.088 -1.493,0.162 v 10.363 c 0.481,0.035 0.921,0.086 1.389,0.086 3.38,0 5.87,-1.861 5.87,-5.529 -0.002,-3.748 -2.465,-5.082 -5.766,-5.082 z m 15.863,27.563 c -1.148,0 -2.388,0.042 -3.511,-0.283 -2.044,-0.602 -4.853,-5.199 -5.974,-7.002 -1.734,-2.931 -3.99,-7.013 -7.871,-7.013 v 11.452 c 0,1.003 0.434,2.217 1.389,2.669 h -8.993 c 0.966,-0.494 1.416,-1.621 1.416,-2.669 v -24.597 c 0,-1.041 -0.45,-2.178 -1.416,-2.702 h 10.859 c 4.701,0 10.591,1.81 10.591,7.474 0,4.752 -4.297,7.188 -7.549,7.188 6.466,0.372 10.365,14.711 16.78,14.711 -1.859,0.547 -3.784,0.771 -5.722,0.771 z m 37.389,-27.218 -9.107,27.042 c -0.751,0 -1.488,-0.259 -1.905,-0.552 -0.901,-0.868 -2.317,-4.49 -2.827,-5.826 l -4.116,-10.398 -5.928,16.777 h -2.822 l -10.192,-27.109 c -0.438,-1.154 -1.185,-2.26 -2.297,-2.858 h 8.858 c -0.374,0.29 -0.631,0.62 -0.631,1.251 0,0.303 0.149,0.72 0.257,1.043 l 6.637,17.934 7.068,-20.227 7.784,19.5 5.895,-17.652 c 0.146,-0.479 0.232,-0.656 0.232,-0.959 0,-0.366 -0.159,-0.6 -0.529,-0.89 h 5.866 c -1.085,0.569 -1.869,1.81 -2.242,2.926 z m 10.887,2.778 -4.543,11.667 c 1.371,0.149 2.773,0.184 4.14,0.184 1.555,0 3.126,0 4.645,-0.184 z m 7.82,24.263 c 0.31,-0.293 0.545,-0.512 0.545,-1.043 0,-0.179 -0.091,-0.478 -0.272,-1.035 0,0 -2.445,-6.698 -2.742,-7.478 -1.865,-0.228 -3.788,-0.228 -5.675,-0.228 -1.774,0 -3.593,0.042 -5.376,0.228 -0.257,0.671 -2.877,7.332 -2.877,7.332 -0.377,0.901 -0.481,1.209 -0.481,1.405 0,0.445 0.366,0.662 0.687,0.819 h -6.034 c 0.891,-0.452 1.661,-1.382 2.034,-2.308 l 9.948,-25.587 c 0.029,-0.106 0.057,-0.224 0.057,-0.368 0,-0.705 -0.47,-1.375 -1.117,-1.706 h 7.784 l 10.079,27.636 c 0.417,1.11 1.307,1.92 2.04,2.332 h -8.601 v 0.002 z m 27.08,-26.821 -7.099,12.447 v 11.705 c 0,0.952 0.39,2.217 1.338,2.669 h -8.832 c 0.902,-0.494 1.318,-1.748 1.318,-2.669 v -11.743 l -6.171,-9.886 c -0.552,-0.924 -3.126,-5.232 -6.264,-5.232 0.853,-0.324 3.447,-0.819 5.188,-0.819 2.904,0 4.342,0.266 6.12,3.05 l 5.709,9.049 c 0.479,-0.888 5,-8.748 5,-8.748 0.545,-0.957 0.919,-1.633 0.919,-1.969 0,-0.43 -0.186,-0.711 -0.623,-1.001 h 6.362 c -1.247,0.598 -2.286,1.969 -2.966,3.146 z m 16.616,20.042 c 0,-5.708 -13.446,-6.996 -13.446,-16.108 0,-5.64 5.35,-7.487 10.07,-7.487 2.113,0 5.141,0.292 7.075,1.178 l 0.335,5.602 c -1.196,-2.474 -4.145,-4.266 -6.898,-4.266 -2.178,0 -4.443,1.076 -4.443,3.562 0,5.919 13.672,7.365 13.672,15.995 0,6.264 -5.434,8.858 -10.998,8.858 -2.888,0 -6.827,-0.556 -9.268,-2.222 -0.159,-1.003 -0.235,-2.051 -0.235,-3.077 0,-1.223 0.117,-2.45 0.303,-3.657 1.519,3.465 4.676,6.176 8.606,6.176 2.999,0.002 5.226,-1.3 5.226,-4.554 z" />
  <path
     style="fill:url(#a)"
     id="path458"
     fill="url(#a)"
     d="m 427.711,16.435024 c -5.039,5.008 -15.954,9.306 -21.325,11.319 -7.337,2.756 -10.593,3.732 -14.698,5.068 -4.647,1.508 -13.942,4.32 -13.942,4.32 19.256,5.75 32.826,7.483 32.826,7.483 0,0 6.322,-1.954 16.337,-7.31 5.423,-2.756 8.092,-4.612 10.001,-6.386 0.704,-0.636 2.521,-2.528 2.973,-4.949 0.029,-0.177 0.117,-0.64 0.117,-1.096 0,0 0,-0.321 -0.029,-0.6 -0.011,-0.321 -0.067,-0.536 -0.067,-0.536 0,0 -0.108,-0.574 -0.25,-0.977 -0.148,-0.403 -0.767,-1.646 -1.772,-2.454 -0.671,-0.545 -1.83,-1.903 -6.03,-3.38 -1.427,-0.496 -3.739,-0.953 -3.739,-0.953 l -0.401,0.45 z" />
  <path
     id="path460"
     fill="#ce210f"
     d="m 439.998,24.757024 c 0,0 -0.029,-0.536 -0.16,-0.99 -0.102,-0.405 -0.283,-0.791 -0.554,-1.198 -0.328,-0.483 -0.771,-1.05 -1.426,-1.677 -0.494,-0.467 -1.035,-0.879 -1.688,-1.316 -2.627,-1.721 -6.018,-2.691 -9.018,-3.101 -4.65,-0.618 -9.984,-0.509 -10.489,-0.527 -1.715,-0.024 -12.799,0.067 -15.648,0.118 -12.653,0.261 -28.143,0.295 -32.201,0.295 -41.89,0.191 -60.123,-0.711 -80.416,-4.78 -17.263,-3.4289997 -26.841,-6.6869997 -26.841,-6.6869997 15.227,-0.527 104.074,-4.21299995 120.282,-4.64299995 10.611,-0.299 18.146,-0.363 24.174,-0.015 3.092,0.173 5.968,0.436 9.581,1.04999995 3.239,0.554 6.182,1.495 7.895,2.131 3.609,1.336 6.652,3.269 8.156,5.248 0,0 0.445,0.456 1.048,1.265 0.676,0.9409997 1.462,2.0979997 1.728,2.5299997 2.197,3.329 3.239,5.42 3.602,6.149 0.392,0.766 0.738,1.56 1.076,2.339 0.33,0.773 0.465,1.241 0.571,1.568 0.232,0.819 0.288,1.564 0.299,1.732 l 0.029,0.507 z" />
</svg>
