<?xml version="1.0" encoding="UTF-8" standalone="no"?>
<svg
   xmlns:dc="http://purl.org/dc/elements/1.1/"
   xmlns:cc="http://creativecommons.org/ns#"
   xmlns:rdf="http://www.w3.org/1999/02/22-rdf-syntax-ns#"
   xmlns:svg="http://www.w3.org/2000/svg"
   xmlns="http://www.w3.org/2000/svg"
   xmlns:sodipodi="http://sodipodi.sourceforge.net/DTD/sodipodi-0.dtd"
   xmlns:inkscape="http://www.inkscape.org/namespaces/inkscape"
   inkscape:version="1.0 (4035a4fb49, 2020-05-01)"
   height="89.78035"
   width="480.00076"
   sodipodi:docname="EI.svg"
   id="svg506"
   version="1.1"
   viewBox="0 0 480.00076 89.78035"
   stroke-miterlimit="1.41421"
   stroke-linejoin="round"
   fill-rule="evenodd"
   clip-rule="evenodd">
  <metadata
     id="metadata512">
    <rdf:RDF>
      <cc:Work
         rdf:about="">
        <dc:format>image/svg+xml</dc:format>
        <dc:type
           rdf:resource="http://purl.org/dc/dcmitype/StillImage" />
        <dc:title></dc:title>
      </cc:Work>
    </rdf:RDF>
  </metadata>
  <defs
     id="defs510" />
  <sodipodi:namedview
     inkscape:current-layer="svg506"
     inkscape:window-maximized="0"
     inkscape:window-y="0"
     inkscape:window-x="0"
     inkscape:cy="44.889656"
     inkscape:cx="240.0001"
     inkscape:zoom="1.8732143"
     fit-margin-bottom="0"
     fit-margin-right="0"
     fit-margin-left="0"
     fit-margin-top="0"
     showgrid="false"
     id="namedview508"
     inkscape:window-height="480"
     inkscape:window-width="710"
     inkscape:pageshadow="2"
     inkscape:pageopacity="0"
     guidetolerance="10"
     gridtolerance="10"
     objecttolerance="10"
     borderopacity="1"
     bordercolor="#666666"
     pagecolor="#ffffff" />
  <g
     id="g504"
     transform="matrix(1.14286,0,0,1.14286,-80.0002,-183.68204)">
    <path
       id="path496"
       fill="#82c341"
       d="m 489.55,202.03 c -1.511,4.86 -6.549,9.423 -12.594,10.372 0.978,1.511 1.422,3.378 1.185,5.453 -0.652,5.63 -6.045,10.164 -11.824,10.224 -3.912,0.03 -9.216,-1.659 -12.95,-7.557 -3.349,-5.245 -3.823,-13.572 -3.586,-16.091 -4.089,4.178 -6.638,8.238 -7.853,11.053 -2.726,6.371 -3.763,14.135 -3.704,17.78 0,0 -0.504,0.474 -0.978,0.563 -1.511,-0.267 -2.815,-0.83 -3.793,-1.689 -1.185,-1.067 -1.452,-2.074 -1.452,-2.074 1.808,-9.038 4.682,-14.669 8.979,-21.099 5.779,-8.683 14.698,-14.046 25.277,-17.276 7.645,-2.341 15.587,-2.845 21.04,1.778 2.934,2.43 3.112,5.927 2.252,8.564 z m -45.043,-4.801 c -1.808,3.023 -6.756,7.882 -10.668,10.401 -8.149,5.215 -14.017,5.571 -16.95,3.704 -0.356,-0.207 -0.652,-0.474 -0.919,-0.741 -2.282,-2.4 -1.897,-6.668 0.77,-10.164 1.304,-1.719 2.993,-2.934 4.623,-3.497 -1.274,-0.593 -2.134,-1.837 -2.311,-3.586 -0.356,-3.497 2.282,-8.09 5.927,-9.957 3.2,-1.63 10.105,-3.26 15.172,4.297 1.985,2.934 3.763,7.112 4.356,9.542 z m 33.486,-31.767 c -0.445,-4.356 -5.097,-5.956 -10.224,-3.763 -2.43,1.037 -4.564,2.786 -6.075,4.771 0.237,-1.985 -0.326,-3.734 -1.748,-4.771 -2.815,-2.045 -7.942,-0.533 -11.438,3.26 -1.215,1.334 -5.186,6.134 -5.393,13.187 -0.089,3.408 1.422,10.964 6.401,16.18 13.276,-5.008 20.417,-12.683 23.144,-15.854 3.141,-3.675 4.475,-6.905 5.038,-9.275 0.415,-1.867 0.356,-3.2 0.296,-3.734 z" />
    <path
       id="path498"
       fill="#3cb14a"
       d="m 472.659,178.471 c 3.141,-3.675 4.475,-6.905 5.038,-9.275 l 0.089,-0.385 c -0.652,2.637 -6.223,9.453 -13.928,15.261 -8.001,6.016 -12.565,9.038 -14.313,10.224 13.246,-4.978 20.388,-12.653 23.114,-15.824 z m -38.82,29.13 c 3.912,-2.519 8.86,-7.379 10.668,-10.401 -3.497,3.319 -8.653,8.268 -17.513,12.179 -4.386,1.867 -8.683,2.578 -10.105,1.897 2.934,1.897 8.801,1.541 16.95,-3.675 z m 55.711,-5.571 c 0.207,-0.652 0.356,-1.334 0.415,-2.045 -0.415,2.815 -2.311,6.223 -5.334,8.09 -2.667,1.659 -5.749,2.756 -9.246,2.46 0.563,0.533 1.008,0.978 1.571,1.837 6.045,-0.919 11.083,-5.482 12.594,-10.342 z" />
    <path
       id="path500"
       fill="#3cb14a"
       d="m 450.552,199.096 c -9.512,6.816 -12.742,19.084 -13.276,34.701 0.474,-0.089 0.978,-0.563 0.978,-0.563 -0.059,-3.645 0.978,-11.379 3.704,-17.78 1.215,-2.815 3.763,-6.875 7.853,-11.053 0.296,-2.786 0.622,-4.415 0.83,-5.334 l -0.089,0.03 z" />
    <path
       id="path502"
       fill="#006472"
       d="m 307.334,215.454 c 5.512,-2.786 7.497,-8.446 7.497,-12.979 0,-5.067 -1.541,-9.068 -4.534,-12.002 -0.267,-0.267 -0.533,-0.504 -0.83,-0.741 l 4.741,-7.912 h -7.023 l -3.023,5.067 c -2.311,-0.77 -4.741,-1.126 -6.964,-1.126 -4.415,0 -8.831,1.571 -12.09,4.326 -2.578,2.193 -5.66,6.104 -5.66,12.387 0,10.905 8.208,13.572 16.15,16.18 l 4.415,1.393 c 4.712,1.393 7.557,2.252 7.557,5.956 0,1.689 -0.593,3.141 -1.778,4.238 -1.837,1.748 -5.067,2.697 -8.623,2.489 -3.112,-0.178 -9.72,-0.8 -10.549,-7.586 h -6.816 c 0,8.653 7.734,14.135 17.336,14.135 6.164,0 10.727,-1.748 13.78,-4.712 2.4,-2.311 3.675,-5.304 3.675,-8.653 0.059,-4.741 -2.519,-8.446 -7.26,-10.461 z m -1.096,-6.342 c -1.156,1.926 -3.2,3.823 -5.749,4.386 0,0 -4.801,-1.363 -7.912,-2.43 -4.208,-1.452 -6.164,-4.178 -6.164,-8.594 0,-6.993 5.601,-10.194 10.816,-10.194 5.186,0 10.757,3.26 10.757,10.164 0,2.815 -0.682,4.89 -1.748,6.668 z m -78.885,-22.225 h 6.993 v 34.553 h -6.993 z m -0.415,-8.623 c 0,-2.193 1.452,-3.763 3.941,-3.763 2.43,0 3.882,1.571 3.882,3.763 0,2.311 -1.452,3.882 -3.882,3.882 -2.519,-0.03 -3.941,-1.571 -3.941,-3.882 z M 96.374,176.753 h -7.26 L 70,221.44 h 7.527 l 4.86,-11.35 h 20.714 l 4.86,11.35 h 7.527 z m -11.468,27.174 7.794,-18.254 7.794,18.254 H 84.907 Z m 115.303,-27.174 h -7.349 v 44.687 h 30.226 v -6.164 h -22.877 z m 163.902,10.727 c -3.734,1.659 -5.779,4.652 -5.927,8.12 -0.385,8.09 5.808,9.986 14.105,11.142 6.608,0.919 10.401,1.897 10.224,5.215 -0.059,1.008 -0.889,2.282 -2.104,2.874 -4.445,2.223 -15.735,1.037 -21.04,-2.252 l -1.452,5.897 c 3.2,2.074 8.001,3.289 12.565,3.497 4.949,0.237 9.957,-0.119 13.572,-1.837 3.526,-1.689 5.364,-4.83 5.512,-8.179 0.356,-7.942 -7.053,-9.66 -13.987,-10.875 -7.882,-1.363 -10.757,-2.163 -10.549,-5.571 0.089,-1.6 1.571,-2.637 2.756,-2.993 4.297,-1.334 13.335,-0.445 18.639,2.46 l 1.393,-5.956 c -6.905,-3.467 -17.365,-4.356 -23.707,-1.541 z m -106.532,-1.215 c -7.675,0 -12.831,1.096 -15.232,1.778 l -0.267,0.089 v 33.308 h 7.082 v -28.418 c 2.4,-0.563 4.297,-0.741 8.06,-0.741 5.779,0 9.66,1.452 9.66,8.534 v 20.595 h 6.993 v -20.269 c -0.03,-9.838 -5.512,-14.876 -16.298,-14.876 z m 87.063,29.1 c -2.282,0.504 -4.356,0.682 -8.06,0.682 -5.956,0 -9.66,-1.422 -9.66,-8.475 v -20.654 h -6.993 v 20.329 c 0,9.838 5.482,14.846 16.269,14.846 7.231,0 11.735,-0.889 15.202,-1.778 l 0.296,-0.059 v -33.338 h -7.082 v 28.448 h 0.03 z m -172.911,-29.1 c -4.623,0 -8.475,0.889 -11.053,2.726 -3.852,2.726 -5.364,6.845 -5.364,12.179 v 20.269 h 6.993 v -20.595 c 0,-2.519 0.504,-4.326 1.393,-5.601 1.6,-2.341 4.534,-2.934 8.268,-2.934 1.748,0 3.734,0.207 5.69,0.593 l 1.393,-5.897 c -2.193,-0.445 -4.623,-0.741 -7.319,-0.741 z m -22.491,14.52 c -0.83,-9.512 -6.49,-14.491 -16.535,-14.491 -10.875,0 -16.654,5.867 -16.654,17.01 v 1.748 c 0,11.142 6.371,17.01 18.402,17.01 4.89,0 9.542,-0.711 13.513,-2.074 l -1.482,-5.867 -0.326,0.119 c -2.282,0.859 -6.549,1.808 -11.705,1.808 -5.038,0 -11.024,-1.6 -11.172,-9.068 h 26.048 v -3.645 c 0,-0.919 -0.03,-1.748 -0.089,-2.548 z m -16.535,-8.475 c 4.178,0 9.127,1.511 9.483,8.475 h -18.876 c 0.267,-5.541 3.497,-8.475 9.394,-8.475 z" />
  </g>
</svg>
