<?xml version="1.0" encoding="UTF-8" standalone="no"?>
<svg
   xmlns:dc="http://purl.org/dc/elements/1.1/"
   xmlns:cc="http://creativecommons.org/ns#"
   xmlns:rdf="http://www.w3.org/1999/02/22-rdf-syntax-ns#"
   xmlns:svg="http://www.w3.org/2000/svg"
   xmlns="http://www.w3.org/2000/svg"
   xmlns:sodipodi="http://sodipodi.sourceforge.net/DTD/sodipodi-0.dtd"
   xmlns:inkscape="http://www.inkscape.org/namespaces/inkscape"
   inkscape:version="1.0 (4035a4fb49, 2020-05-01)"
   height="44.27"
   width="479.94336"
   sodipodi:docname="JL.svg"
   id="svg1058"
   version="1.1"
   viewBox="0 0 479.94336 44.27"
   fill-rule="evenodd"
   clip-rule="evenodd">
  <metadata
     id="metadata1064">
    <rdf:RDF>
      <cc:Work
         rdf:about="">
        <dc:format>image/svg+xml</dc:format>
        <dc:type
           rdf:resource="http://purl.org/dc/dcmitype/StillImage" />
        <dc:title></dc:title>
      </cc:Work>
    </rdf:RDF>
  </metadata>
  <defs
     id="defs1062" />
  <sodipodi:namedview
     inkscape:current-layer="svg1058"
     inkscape:window-maximized="0"
     inkscape:window-y="0"
     inkscape:window-x="0"
     inkscape:cy="22.04"
     inkscape:cx="239.89742"
     inkscape:zoom="1.8732143"
     fit-margin-bottom="0"
     fit-margin-right="0"
     fit-margin-left="0"
     fit-margin-top="0"
     showgrid="false"
     id="namedview1060"
     inkscape:window-height="480"
     inkscape:window-width="712"
     inkscape:pageshadow="2"
     inkscape:pageopacity="0"
     guidetolerance="10"
     gridtolerance="10"
     objecttolerance="10"
     borderopacity="1"
     bordercolor="#666666"
     pagecolor="#ffffff" />
  <path
     id="path1028"
     fill="#cc0000"
     d="m 22.460418,35.848 h 1.698 l -0.073,-2.024" />
  <path
     id="path1030"
     fill="#cc0000"
     d="m 32.150418,24.939 c -4.525,4.406 -11.291,1.592 -10.603,-3.816 0.531,-4.171 5.644,-8.324 9.514,-10.58 l 0.002,-0.047 c -0.505,-0.481 -1.557,-1.573 -2.235,-2.392 -1.876,-2.256 -5.157,-2.352 -7.117,0.124 l -11.132,1.038 v 0.069 l 11.935,0.69 c 2.118,0.121 2.807,2.039 0.765,3.587 -7.579,5.739 -8.93,11.819 -7.237,16.636 l -0.057,0.027 c -0.697,-0.985 -1.217,-2.192 -1.5,-3.458 -3.643,-2.288 -6.5969996,-6.643 -6.5969996,-12.018 0,-7.816 6.3689996,-14.25 14.2479996,-14.25 7.879,0 14.25,6.435 14.25,14.25 0,4.227 -1.853,7.818 -4.237,10.14 m 2.784,13.369 h -6.851 l 2.43,-6.328 h 3.019 l -1.921,4.987 h 3.838 l -0.514,1.341 z m -10.682,0 -0.046,-1.246 h -2.726 l -1.005,1.246 h -2.491 l 5.055,-5.859 c 0.241,-0.279 0.599,-0.469 0.928,-0.469 h 2.699 l 0.604,6.328 h -3.019 z m -10.33,0.213 c -0.812,0 -1.517,-0.084 -2.098,-0.213 l 0.515,-1.344 c 1.381,0.162 2.565,0.042 3.027,-1.165 l 1.468,-3.819 h 3.018 l -1.615,4.209 c -0.827,2.153 -2.865,2.332 -4.315,2.332 m 30.264,-14.438 c 0.145,-1.402 0.107,-3.411 -0.11,-4.895 h -0.038 c -0.452,2.156 -1.849,5.076 -4.865,7.459 l -0.034,-0.043 c 2.642,-2.822 4.222,-6.3 4.467,-9.884 -0.5,-1.972 -1.272,-3.88 -2.247,-5.565 l -0.034,0.014 c 0.537,3.62 -0.32,8.401 -3.834,12.28 l -0.041,-0.033 c 3.025,-4.355 3.813,-9.659 2.494,-14.427 -4.032,-5.452 -10.507,-8.989 -17.808,-8.989 -7.3,0 -13.7739996,3.537 -17.8069996,8.989 -1.32,4.768 -0.533,10.072 2.493,14.427 l -0.039,0.033 c -3.515,-3.878 -4.37,-8.66 -3.833,-12.28 l -0.036,-0.014 c -0.975,1.685 -1.748,3.593 -2.24500001,5.565 0.243,3.584 1.82100001,7.063 4.46400001,9.884 l -0.033,0.043 c -3.017,-2.384 -4.41300001,-5.304 -4.86500001,-7.459 h -0.038 c -0.217,1.484 -0.255,3.493 -0.11,4.895 0.759,2.385 2.38600001,4.384 4.05000001,5.825 l -0.03,0.046 c -1.858,-1.157 -2.898,-2.288 -3.60700001,-3.286 l -0.032,0.013 C 2.5084184,36.62 11.419418,44.27 22.133418,44.27 c 10.716,0 19.625,-7.651 21.668,-17.589 l -0.032,-0.013 c -0.708,0.998 -1.75,2.129 -3.607,3.286 l -0.029,-0.046 c 1.663,-1.441 3.288,-3.44 4.049,-5.825" />
  <path
     id="path1032"
     d="m 476.95342,26.157 c -2.307,5.999 -10.264,7.859 -18.861,7.859 -8.6,0 -14.113,-1.867 -12.823,-7.859 h 10.925 c -0.287,1.605 0.685,2.625 3.916,2.625 3.227,0 5.317,-1.049 5.912,-2.625 1.51,-3.916 -20.109,-0.087 -16.669,-9.055 1.926,-5.017 9.513,-7.377 18.067,-7.377 8.551,0 13.418,1.849 12.386,7.373 h -10.712 c 0.171,-1.479 -0.287,-2.601 -3.503,-2.601 -3.223,0 -4.943,1.143 -5.503,2.605 -1.552,3.999 20.298,0.105 16.865,9.055" />
  <path
     id="path1034"
     d="m 285.71842,33.335 h -10.928 l 8.799,-22.913 h 10.932" />
  <path
     id="path1036"
     d="m 368.36542,33.335 h -10.918 l 8.796,-22.913 h 10.918" />
  <path
     id="path1038"
     d="m 438.76542,33.335 h -26.556 l 8.789,-22.913 h 26.57 l -1.689,4.398 h -15.641 l -1.776,4.625 h 13.005 l -1.685,4.391 h -13.009 l -1.776,4.639 h 15.631" />
  <path
     id="path1040"
     d="m 221.62942,33.335 h -8.834 l -7.408,-13.533 -5.199,13.533 h -8.817 l 8.789,-22.913 h 10.264 l 6.548,12.04 4.615,-12.04 h 8.838" />
  <path
     id="path1042"
     d="m 405.42742,33.335 h -8.841 l -7.408,-13.533 -5.199,13.533 h -8.813 l 8.792,-22.913 h 10.264 l 6.541,12.04 4.615,-12.04 h 8.845" />
  <path
     id="path1044"
     d="m 88.934418,25.663 c -2.989,7.793 -10.366,8.439 -15.617,8.439 -2.944,0 -5.489,-0.297 -7.593,-0.769 l 1.867,-4.856 c 5.003,0.584 9.285,0.143 10.956,-4.223 l 5.314,-13.83 h 10.928" />
  <path
     id="path1046"
     d="m 151.63542,17.724 c -0.647,1.675 -2.706,2.898 -4.695,2.898 h -6.062 l 2.227,-5.8 h 6.083 c 1.979,0 3.087,1.234 2.447,2.902 m -0.783,-7.3 h -16.987 l -8.796,22.913 h 10.925 l 3.192,-8.317 h 6.073 c 10.096,0 15.533,-2.702 17.298,-7.296 1.762,-4.59 -1.594,-7.3 -11.705,-7.3" />
  <path
     id="path1048"
     d="m 319.06342,17.724 c -0.65,1.675 -2.709,2.898 -4.692,2.898 h -6.069 l 2.227,-5.8 h 6.083 c 1.986,0 3.094,1.234 2.451,2.902 m -0.78,-7.3 h -16.991 l -8.792,22.913 h 10.925 l 3.188,-8.317 h 3.3 l 2.164,8.317 h 11.928 l -2.923,-9.149 c 4.842,-1.133 7.716,-3.36 8.897,-6.464 1.776,-4.59 -1.591,-7.3 -11.698,-7.3" />
  <path
     id="path1050"
     d="m 342.21942,28.478 6.943,-18.053 h -10.925 l -8.785,22.913 h 24.797 l 1.867,-4.859" />
  <path
     id="path1052"
     d="m 104.88842,24.43 5.88,-7.331 0.273,7.331 z m 15.222,-14.005 h -9.771 c -1.189,0 -2.486,0.696 -3.353,1.696 L 88.674418,33.338 h 9.03 l 3.632002,-4.51 h 9.869 l 0.171,4.51 h 10.928" />
  <path
     id="path1054"
     d="m 171.17642,24.43 5.887,-7.331 0.266,7.331 z m 15.225,-14.005 h -9.775 c -1.185,0 -2.482,0.696 -3.356,1.696 l -18.302,21.217 h 9.023 l 3.636,-4.51 h 9.866 l 0.168,4.51 h 10.932" />
  <path
     id="path1056"
     d="m 254.59642,24.43 5.887,-7.331 0.273,7.331 z m 15.229,-14.005 h -9.771 c -1.196,0 -2.486,0.696 -3.36,1.696 l -18.309,21.217 h 9.034 l 3.625,-4.51 h 9.869 l 0.175,4.51 h 10.918" />
</svg>
