<?xml version="1.0" encoding="UTF-8" standalone="no"?>
<svg
   xmlns:dc="http://purl.org/dc/elements/1.1/"
   xmlns:cc="http://creativecommons.org/ns#"
   xmlns:rdf="http://www.w3.org/1999/02/22-rdf-syntax-ns#"
   xmlns:svg="http://www.w3.org/2000/svg"
   xmlns="http://www.w3.org/2000/svg"
   xmlns:sodipodi="http://sodipodi.sourceforge.net/DTD/sodipodi-0.dtd"
   xmlns:inkscape="http://www.inkscape.org/namespaces/inkscape"
   inkscape:version="1.0 (4035a4fb49, 2020-05-01)"
   height="82.745468"
   width="386.45645"
   sodipodi:docname="MH.svg"
   id="svg40"
   version="1.1"
   viewBox="0 0 386.45645 82.745477"
   fill-rule="evenodd"
   clip-rule="evenodd">
  <metadata
     id="metadata46">
    <rdf:RDF>
      <cc:Work
         rdf:about="">
        <dc:format>image/svg+xml</dc:format>
        <dc:type
           rdf:resource="http://purl.org/dc/dcmitype/StillImage" />
        <dc:title></dc:title>
      </cc:Work>
    </rdf:RDF>
  </metadata>
  <defs
     id="defs44">
    <clipPath
       id="clipPath115"
       clipPathUnits="userSpaceOnUse">
      <rect
         y="-15.481411"
         x="302.15442"
         height="137.19733"
         width="145.20496"
         id="rect117"
         style="fill:#0000ff;fill-rule:evenodd" />
    </clipPath>
    <clipPath
       id="clipPath119"
       clipPathUnits="userSpaceOnUse">
      <rect
         y="5.8722701"
         x="-33.09819"
         height="106.76835"
         width="332.5834"
         id="rect121"
         style="fill:#0000ff;fill-rule:evenodd" />
    </clipPath>
    <clipPath
       id="clipPath167"
       clipPathUnits="userSpaceOnUse">
      <rect
         y="15.101686"
         x="-0.57884181"
         height="82.745468"
         width="387.03528"
         id="rect169"
         style="fill:#0000ff;fill-rule:evenodd" />
    </clipPath>
  </defs>
  <sodipodi:namedview
     inkscape:current-layer="svg40"
     inkscape:window-maximized="1"
     inkscape:window-y="-8"
     inkscape:window-x="-8"
     inkscape:cy="27.103044"
     inkscape:cx="199.999"
     inkscape:zoom="1.8732143"
     fit-margin-bottom="0"
     fit-margin-right="0"
     fit-margin-left="0"
     fit-margin-top="0"
     showgrid="false"
     id="namedview42"
     inkscape:window-height="1027"
     inkscape:window-width="1920"
     inkscape:pageshadow="2"
     inkscape:pageopacity="0"
     guidetolerance="10"
     gridtolerance="10"
     objecttolerance="10"
     borderopacity="1"
     bordercolor="#666666"
     pagecolor="#ffffff" />
  <g
     transform="translate(0,-15.101686)"
     clip-path="url(#clipPath167)"
     id="g165">
    <g
       id="g67"
       clip-path="url(#clipPath115)"
       transform="translate(-13.308,19.32973)">
      <g
         transform="translate(-80,-151.923)"
         id="g36"
         fill="#002b5c">
        <path
           id="path2"
           d="m 392.416,187.297 -0.343,1.321 c 0,0 4.333,-0.073 6.08,-0.073 4,-0.004 6.435,0.363 6.704,2.798 0.236,1.641 -0.524,3.218 -0.964,4.767 l -1.224,4.429 c -0.44,1.565 -0.914,2.945 -1.751,4.001 -0.953,1.199 -2.169,1.995 -3.415,2.299 -1.716,0.42 -8.73,0.171 -10.684,0.171 -0.219,0.55 -0.35,1.191 -0.525,1.786 5.687,0.29 11.168,-0.093 16.989,0.085 1.887,0.058 3.761,0.259 5.427,-0.085 2.54,-0.519 4.376,-2.268 5.166,-4.598 0.782,-2.295 1.49,-4.97 2.191,-7.406 0.384,-1.335 0.629,-2.595 1.224,-3.661 0.567,-1.017 1.315,-1.807 2.276,-2.555 1.762,-1.367 4.634,-2.516 7.356,-1.192 1.342,0.653 2.121,1.736 2.102,3.747 -0.016,1.73 -0.597,3.153 -1.051,4.767 -1.356,4.817 -2.553,8.909 -3.854,13.623 -0.428,1.547 -0.757,3.206 -1.313,4.513 -1.079,2.538 -3.456,4.613 -6.566,5.108 -2.608,0.414 -5.572,0.086 -8.319,0.086 H 382.88 c 0,0 -0.428,1.231 -0.614,1.872 10.99,0.155 22.318,0.084 33.012,0.084 2.912,0 5.61,0.078 8.144,-0.169 7.264,-0.708 13.694,-2.747 19.001,-5.62 8.821,-4.777 15.754,-11.444 20.839,-20.007 2.929,-4.934 7.825,-8.693 15.874,-8.693 l 0.538,-1.4 h -87.258 z" />
        <path
           id="path4"
           d="m 189.979,176.272 h 10.159 c -4.439,15.61 -8.749,31.342 -13.224,46.913 h -10.068 c 4.281,-15.729 8.704,-31.322 13.134,-46.913" />
        <path
           id="path6"
           d="m 80,223.185 v -0.254 c 3.561,-12.146 6.823,-24.585 10.42,-36.697 h 34.237 c 2.032,0 3.751,0.015 5.254,0.425 4.288,1.171 7.117,5.152 5.955,10.389 -0.647,2.913 -1.683,6.102 -2.451,8.769 -1.275,4.413 -2.469,8.751 -3.677,13.028 -0.415,1.463 -0.614,2.988 -1.316,4.34 -3.297,-0.055 -6.828,0.114 -9.982,-0.083 1.845,-6.862 4.279,-15.293 6.305,-22.393 0.348,-1.217 0.702,-2.48 0.614,-3.491 -0.293,-3.346 -4.147,-2.917 -7.882,-2.895 -2.39,8.409 -4.785,16.963 -7.092,25.287 -0.331,1.198 -0.618,2.435 -1.137,3.575 -3.299,-0.055 -6.832,0.114 -9.985,-0.083 2.553,-9.697 5.413,-19.091 7.97,-28.78 h -9.019 c -2.658,9.677 -5.307,19.361 -8.144,28.862 -3.008,-0.001 -6.772,0.003 -10.07,0" />
        <path
           id="path8"
           d="m 146.023,186.234 h 15.412 c 5.583,0 10.031,-0.316 13.309,1.959 1.939,1.345 3.436,3.663 3.501,6.812 0.054,2.555 -0.808,5.009 -1.488,7.407 -1.947,6.863 -3.902,14.145 -5.866,20.775 h -16.286 c -5.187,0 -11.753,0.668 -15.237,-1.108 -1.967,-1.002 -3.527,-3.002 -3.765,-5.617 -0.328,-3.606 1.031,-6.845 2.54,-9.112 1.565,-2.353 3.733,-4.129 6.479,-5.278 5.89,-2.474 14.401,-0.765 22.328,-1.276 0.623,-1.368 1.169,-3.585 0.438,-5.025 -1.285,-2.525 -6.823,-1.789 -10.858,-1.789 h -12.696 c 0.669,-2.64 1.377,-5.246 2.189,-7.747 m 5.516,22.308 c -3.087,0.233 -4.943,1.982 -4.817,5.363 0.467,1.068 1.616,1.437 2.978,1.533 3.862,0.268 9.18,-0.204 13.222,0 0.652,-2.291 1.292,-4.591 1.926,-6.897 -4.067,0.226 -9.332,-0.3 -13.309,0" />
        <path
           id="path10"
           d="m 204.601,186.234 h 15.938 c 2.869,0 5.526,-0.138 7.791,0.169 5.346,0.727 9.173,4.348 8.407,10.474 -0.378,3.029 -1.601,6.159 -2.366,8.855 -1.697,5.996 -3.138,11.773 -4.902,17.454 h -16.812 c -5.448,0 -11.853,0.613 -15.237,-1.448 -1.744,-1.062 -3.041,-2.94 -3.239,-5.448 -0.285,-3.6 1.132,-6.655 2.627,-8.94 1.54,-2.349 3.671,-4.136 6.393,-5.278 5.9,-2.475 14.515,-0.762 22.328,-1.276 0.638,-1.347 1.159,-3.606 0.438,-5.025 -1.285,-2.524 -6.823,-1.789 -10.858,-1.789 h -12.695 c 0.687,-2.623 1.378,-5.242 2.188,-7.747 m 5.429,22.308 c -0.76,0.064 -1.887,0.321 -2.539,0.682 -1.275,0.7 -2.72,3.148 -2.102,4.853 0.304,0.834 1.595,1.27 2.802,1.362 4.251,0.318 9.078,-0.241 13.312,0 0.668,-2.271 1.315,-4.568 1.926,-6.897 -4.273,0.284 -8.998,-0.376 -13.398,0" />
        <path
           id="path12"
           d="m 245.582,186.234 h 10.07 c -1.587,6.014 -3.763,13.363 -5.603,20.094 -0.595,2.17 -2.074,5.532 -0.79,7.408 1.017,1.48 3.49,1.276 6.13,1.276 2.538,0 5.226,0.005 7.268,0 2.818,-9.491 5.422,-19.193 8.144,-28.778 h 10.157 c -3.646,13.12 -7.488,26.828 -11.12,39.676 -0.941,3.324 -2.476,5.862 -4.817,8.003 -2.244,2.055 -4.988,3.826 -8.144,4.684 -3.471,0.941 -7.971,0.509 -12.434,0.509 h -12.784 c 0.583,-2.697 1.415,-5.153 2.102,-7.746 h 9.632 c 3.393,0 6.855,0.206 9.631,0 2.668,-0.201 4.822,-1.638 5.867,-3.406 0.773,-1.311 0.966,-3.022 1.488,-4.769 -8.19,-0.216 -17.987,1.297 -21.276,-3.832 -0.56,-0.873 -1.033,-2.145 -1.139,-3.49 -0.215,-2.7 0.713,-5.393 1.401,-7.833 1.99,-7.067 4.19,-14.664 6.041,-21.541 0.075,-0.068 0.053,-0.233 0.176,-0.255" />
        <path
           id="path14"
           d="m 322.548,186.234 c -0.75,2.564 -1.432,5.192 -2.189,7.747 h -18.213 c -2.154,0 -4.137,-0.106 -5.516,0.512 -1.658,0.744 -2.697,2.538 -2.539,4.769 0.628,1.423 2.368,1.533 4.029,1.533 h 5.603 c 3.787,0 7.591,-0.18 10.156,1.019 2.523,1.182 4.235,3.752 3.941,7.747 -0.264,3.57 -2.15,7.068 -4.379,9.283 -2.369,2.35 -5.297,3.86 -9.544,4.256 -4.356,0.406 -9.145,0.085 -13.836,0.085 -4.667,0 -9.294,-0.003 -13.747,0 0.487,-2.45 1.395,-5.228 2.102,-7.747 h 20.402 c 2.419,0 4.413,0.031 5.867,-0.852 1.107,-0.674 2.53,-2.754 1.926,-4.599 -0.703,-2.143 -6.556,-1.446 -9.544,-1.446 -3.791,0 -7.499,0.129 -9.983,-1.022 -2.759,-1.281 -4.446,-3.57 -4.115,-7.748 0.161,-2.042 0.838,-3.778 1.577,-5.279 2.219,-4.51 6.585,-7.867 12.871,-8.259 4.19,-0.26 8.436,0 12.61,0 h 12.52 z" />
        <path
           id="path16"
           d="m 329.291,186.234 h 10.07 c -3.356,12.375 -6.834,24.631 -10.331,36.867 -2.758,0.196 -7.084,0.029 -9.985,0.085 -0.203,-0.333 -0.001,-0.785 0.088,-1.108 3.268,-11.658 6.751,-23.823 10.071,-35.589 -0.006,-0.121 -0.015,-0.241 0.088,-0.255" />
        <path
           id="path18"
           d="m 346.365,186.234 h 20.666 c 6.518,0 11.416,2.498 11.557,8.77 0.059,2.529 -0.824,5.017 -1.488,7.407 -1.919,6.91 -3.867,13.894 -5.866,20.69 -5.243,0.156 -10.851,0.085 -16.462,0.085 -5.274,0 -11.739,0.672 -15.234,-1.193 -1.271,-0.677 -2.418,-1.887 -2.978,-3.148 -1.501,-3.385 -0.235,-7.346 1.137,-10.048 1.443,-2.839 3.661,-4.999 6.217,-6.3 6.2,-3.156 15.515,-1.103 23.379,-1.701 0.614,-1.395 1.153,-3.576 0.438,-5.025 -1.247,-2.53 -6.853,-1.789 -10.858,-1.789 h -12.695 c 0.574,-2.589 1.407,-4.932 2.014,-7.492 0.074,-0.068 0.051,-0.233 0.174,-0.255 m 5.428,22.308 c -0.755,0.064 -1.884,0.324 -2.538,0.682 -1.367,0.745 -2.804,3.333 -2.102,4.938 0.354,0.807 1.655,1.191 2.889,1.277 4.228,0.294 9.017,-0.223 13.224,0 0.615,-2.325 1.301,-4.583 1.924,-6.897 -4.28,0.286 -8.972,-0.38 -13.397,0" />
        <path
           id="path20"
           d="m 313.617,226.762 c -1.696,6.95 -3.987,14.06 -5.78,21.2 h -3.063 c 1.986,-6.982 3.951,-13.981 5.865,-21.03 0.672,-0.37 2.025,-0.076 2.978,-0.17" />
        <path
           id="path22"
           d="m 274.389,231.36 h 6.743 c 3.458,0 6.818,-0.442 7.618,1.957 0.573,1.724 -0.341,3.516 -0.788,5.108 -0.859,3.059 -1.739,6.479 -2.628,9.538 -3.452,-0.184 -7.526,0.24 -10.945,0 -2.274,-0.161 -3.937,-1.313 -4.026,-3.576 -0.084,-2.049 1.198,-4.139 2.451,-5.109 2.753,-2.135 7.716,-1.131 12.259,-1.363 0.264,-0.988 1.002,-2.148 0.613,-3.233 -0.488,-1.365 -3.485,-0.937 -5.517,-0.937 h -6.479 c 0.194,-0.833 0.37,-1.685 0.699,-2.385 m 0.788,9.451 c -0.858,0.505 -1.966,1.919 -1.663,3.406 0.505,2.488 6.588,0.916 9.457,1.362 0.415,-1.288 0.775,-2.809 1.139,-4.086 0.114,-0.401 0.478,-0.909 0.175,-1.277 -2.511,0.47 -7.172,-0.547 -9.108,0.595" />
        <path
           id="path24"
           d="m 295.754,231.36 c -1.427,5.622 -3.069,11.035 -4.553,16.604 h -2.977 c 1.507,-5.575 3.047,-11.114 4.64,-16.604 h 2.889 z" />
        <path
           id="path26"
           d="m 297.068,248.047 h -2.978 c 0.64,-2.64 1.652,-6.037 2.54,-9.28 0.879,-3.213 1.666,-6.185 4.728,-7.15 1.612,-0.509 3.591,-0.141 5.78,-0.255 -0.184,0.842 -0.36,1.692 -0.702,2.383 -1.28,0.045 -2.278,-0.1 -3.239,0.085 -2.55,0.494 -2.989,2.81 -3.677,5.194 -0.815,2.82 -1.836,6.735 -2.451,9.024" />
        <path
           id="path28"
           d="m 318.258,231.36 c -1.567,5.515 -3.091,11.07 -4.64,16.604 h -2.978 c 1.513,-5.453 3.024,-10.91 4.554,-16.348 -0.004,-0.145 0.064,-0.221 0.174,-0.255 h 2.89 z" />
        <path
           id="path30"
           d="m 321.148,231.36 c 5.467,0.553 13.971,-1.989 13.659,4.001 -0.055,1.061 -0.489,2.15 -0.787,3.236 -0.827,2.989 -1.792,6.314 -2.54,9.367 h -3.064 c 0.665,-2.58 1.78,-6.348 2.627,-9.367 0.403,-1.433 1.038,-3.202 0.175,-4.172 -1.298,-1.46 -5.141,-0.301 -7.706,-0.679 -1.457,4.626 -2.699,9.466 -4.029,14.218 h -2.976 c 1.51,-5.571 3.037,-11.124 4.64,-16.604" />
        <path
           id="path32"
           d="m 352.582,231.36 c -0.251,0.778 -0.405,1.648 -0.699,2.385 -2.409,0.149 -4.62,-0.203 -6.655,0 -2.959,0.294 -4.53,2.31 -5.517,4.511 3.327,0.198 7.034,0.028 10.507,0.086 -0.155,0.813 -0.428,1.513 -0.614,2.299 h -10.507 c -0.415,0.898 -0.523,2.161 -0.261,3.064 0.843,2.913 6.305,1.572 9.632,1.872 0.121,0.742 -0.406,1.591 -0.525,2.385 -4.962,-0.178 -9.935,0.894 -11.734,-2.214 -2.209,-3.82 0.712,-9.807 3.329,-12.091 1.353,-1.183 3.263,-2.134 5.078,-2.299 2.679,-0.244 4.995,0.179 7.967,0" />
        <path
           id="path34"
           d="m 369.745,231.445 c -0.28,0.749 -0.44,1.616 -0.699,2.384 -3.088,0.43 -8.079,-0.722 -10.422,0.34 -0.982,0.445 -2.376,2.005 -1.662,3.407 0.767,1.505 6.804,0.359 8.669,1.191 2.614,1.167 2.311,4.845 0.788,6.897 -0.862,1.161 -2.405,2.12 -4.204,2.3 -3.582,0.358 -8.119,-0.27 -11.996,0 0.226,-0.803 0.384,-1.67 0.702,-2.384 3.566,-0.439 10.981,1.066 12.871,-1.278 0.519,-0.645 0.843,-1.894 0.435,-2.725 -0.936,-1.919 -7.658,-0.21 -9.629,-1.531 -0.772,-0.517 -1.395,-1.756 -1.227,-3.236 0.326,-2.852 2.934,-5.111 6.042,-5.364 3.481,-0.285 6.709,0.213 10.332,0" />
      </g>
      <path
         id="path38"
         fill="#ed1c24"
         d="m 399.999,34.481 c -6.166,0.138 -10.778,-2.508 -11.22,-8.087 -0.089,-1.126 0.009,-2.178 -0.088,-3.151 -0.303,-3.084 -0.967,-5.513 -2.014,-7.918 C 382.658,6.097 374.729,1.014 361.984,0 h -39.578 c -0.075,0.692 -0.384,1.157 -0.438,1.874 h 25.568 c 2.792,0 5.891,-0.38 8.232,0.254 1.511,0.41 3.356,1.77 3.239,4.426 -0.06,1.362 -0.695,2.812 -1.139,4.344 -1.224,4.238 -2.276,8.435 -3.501,12.686 -0.798,2.763 -1.365,5.706 -3.066,7.748 -1.542,1.851 -4.338,3.662 -7.706,2.724 -1.226,-0.343 -1.992,-0.774 -2.539,-1.617 -1.321,-2.036 -0.106,-5.168 0.527,-7.407 0.345,-1.229 0.723,-2.369 1.048,-3.492 0.314,-1.081 0.849,-2.376 0.876,-3.661 0.045,-1.975 -1.212,-2.993 -2.45,-3.407 -1.468,-0.487 -3.587,-0.254 -5.517,-0.254 -5.636,0 -11.717,-0.07 -17.163,0.085 -0.116,0.594 -0.341,1.086 -0.438,1.702 4.904,0 12.784,-0.614 12.784,3.407 0.013,0.938 -0.326,1.989 -0.613,2.978 -0.522,1.814 -1.068,3.61 -1.575,5.451 -0.258,0.933 -0.434,1.895 -0.788,2.724 -0.932,2.186 -1.919,3.916 -5.517,3.916 h -9.586 l -0.229,0.893 h 87.258 c 0.135,-0.398 0.208,-0.593 0.325,-0.893" />
    </g>
    <g
       id="g107"
       transform="translate(0,-5.8722701)"
       clip-path="url(#clipPath119)">
      <g
         fill="#002b5c"
         id="g103"
         transform="translate(-80,-151.923)">
        <path
           d="m 392.416,187.297 -0.343,1.321 c 0,0 4.333,-0.073 6.08,-0.073 4,-0.004 6.435,0.363 6.704,2.798 0.236,1.641 -0.524,3.218 -0.964,4.767 l -1.224,4.429 c -0.44,1.565 -0.914,2.945 -1.751,4.001 -0.953,1.199 -2.169,1.995 -3.415,2.299 -1.716,0.42 -8.73,0.171 -10.684,0.171 -0.219,0.55 -0.35,1.191 -0.525,1.786 5.687,0.29 11.168,-0.093 16.989,0.085 1.887,0.058 3.761,0.259 5.427,-0.085 2.54,-0.519 4.376,-2.268 5.166,-4.598 0.782,-2.295 1.49,-4.97 2.191,-7.406 0.384,-1.335 0.629,-2.595 1.224,-3.661 0.567,-1.017 1.315,-1.807 2.276,-2.555 1.762,-1.367 4.634,-2.516 7.356,-1.192 1.342,0.653 2.121,1.736 2.102,3.747 -0.016,1.73 -0.597,3.153 -1.051,4.767 -1.356,4.817 -2.553,8.909 -3.854,13.623 -0.428,1.547 -0.757,3.206 -1.313,4.513 -1.079,2.538 -3.456,4.613 -6.566,5.108 -2.608,0.414 -5.572,0.086 -8.319,0.086 H 382.88 c 0,0 -0.428,1.231 -0.614,1.872 10.99,0.155 22.318,0.084 33.012,0.084 2.912,0 5.61,0.078 8.144,-0.169 7.264,-0.708 13.694,-2.747 19.001,-5.62 8.821,-4.777 15.754,-11.444 20.839,-20.007 2.929,-4.934 7.825,-8.693 15.874,-8.693 l 0.538,-1.4 h -87.258 z"
           id="path69" />
        <path
           d="m 189.979,176.272 h 10.159 c -4.439,15.61 -8.749,31.342 -13.224,46.913 h -10.068 c 4.281,-15.729 8.704,-31.322 13.134,-46.913"
           id="path71" />
        <path
           d="m 80,223.185 v -0.254 c 3.561,-12.146 6.823,-24.585 10.42,-36.697 h 34.237 c 2.032,0 3.751,0.015 5.254,0.425 4.288,1.171 7.117,5.152 5.955,10.389 -0.647,2.913 -1.683,6.102 -2.451,8.769 -1.275,4.413 -2.469,8.751 -3.677,13.028 -0.415,1.463 -0.614,2.988 -1.316,4.34 -3.297,-0.055 -6.828,0.114 -9.982,-0.083 1.845,-6.862 4.279,-15.293 6.305,-22.393 0.348,-1.217 0.702,-2.48 0.614,-3.491 -0.293,-3.346 -4.147,-2.917 -7.882,-2.895 -2.39,8.409 -4.785,16.963 -7.092,25.287 -0.331,1.198 -0.618,2.435 -1.137,3.575 -3.299,-0.055 -6.832,0.114 -9.985,-0.083 2.553,-9.697 5.413,-19.091 7.97,-28.78 h -9.019 c -2.658,9.677 -5.307,19.361 -8.144,28.862 -3.008,-0.001 -6.772,0.003 -10.07,0"
           id="path73" />
        <path
           d="m 146.023,186.234 h 15.412 c 5.583,0 10.031,-0.316 13.309,1.959 1.939,1.345 3.436,3.663 3.501,6.812 0.054,2.555 -0.808,5.009 -1.488,7.407 -1.947,6.863 -3.902,14.145 -5.866,20.775 h -16.286 c -5.187,0 -11.753,0.668 -15.237,-1.108 -1.967,-1.002 -3.527,-3.002 -3.765,-5.617 -0.328,-3.606 1.031,-6.845 2.54,-9.112 1.565,-2.353 3.733,-4.129 6.479,-5.278 5.89,-2.474 14.401,-0.765 22.328,-1.276 0.623,-1.368 1.169,-3.585 0.438,-5.025 -1.285,-2.525 -6.823,-1.789 -10.858,-1.789 h -12.696 c 0.669,-2.64 1.377,-5.246 2.189,-7.747 m 5.516,22.308 c -3.087,0.233 -4.943,1.982 -4.817,5.363 0.467,1.068 1.616,1.437 2.978,1.533 3.862,0.268 9.18,-0.204 13.222,0 0.652,-2.291 1.292,-4.591 1.926,-6.897 -4.067,0.226 -9.332,-0.3 -13.309,0"
           id="path75" />
        <path
           d="m 204.601,186.234 h 15.938 c 2.869,0 5.526,-0.138 7.791,0.169 5.346,0.727 9.173,4.348 8.407,10.474 -0.378,3.029 -1.601,6.159 -2.366,8.855 -1.697,5.996 -3.138,11.773 -4.902,17.454 h -16.812 c -5.448,0 -11.853,0.613 -15.237,-1.448 -1.744,-1.062 -3.041,-2.94 -3.239,-5.448 -0.285,-3.6 1.132,-6.655 2.627,-8.94 1.54,-2.349 3.671,-4.136 6.393,-5.278 5.9,-2.475 14.515,-0.762 22.328,-1.276 0.638,-1.347 1.159,-3.606 0.438,-5.025 -1.285,-2.524 -6.823,-1.789 -10.858,-1.789 h -12.695 c 0.687,-2.623 1.378,-5.242 2.188,-7.747 m 5.429,22.308 c -0.76,0.064 -1.887,0.321 -2.539,0.682 -1.275,0.7 -2.72,3.148 -2.102,4.853 0.304,0.834 1.595,1.27 2.802,1.362 4.251,0.318 9.078,-0.241 13.312,0 0.668,-2.271 1.315,-4.568 1.926,-6.897 -4.273,0.284 -8.998,-0.376 -13.398,0"
           id="path77" />
        <path
           d="m 245.582,186.234 h 10.07 c -1.587,6.014 -3.763,13.363 -5.603,20.094 -0.595,2.17 -2.074,5.532 -0.79,7.408 1.017,1.48 3.49,1.276 6.13,1.276 2.538,0 5.226,0.005 7.268,0 2.818,-9.491 5.422,-19.193 8.144,-28.778 h 10.157 c -3.646,13.12 -7.488,26.828 -11.12,39.676 -0.941,3.324 -2.476,5.862 -4.817,8.003 -2.244,2.055 -4.988,3.826 -8.144,4.684 -3.471,0.941 -7.971,0.509 -12.434,0.509 h -12.784 c 0.583,-2.697 1.415,-5.153 2.102,-7.746 h 9.632 c 3.393,0 6.855,0.206 9.631,0 2.668,-0.201 4.822,-1.638 5.867,-3.406 0.773,-1.311 0.966,-3.022 1.488,-4.769 -8.19,-0.216 -17.987,1.297 -21.276,-3.832 -0.56,-0.873 -1.033,-2.145 -1.139,-3.49 -0.215,-2.7 0.713,-5.393 1.401,-7.833 1.99,-7.067 4.19,-14.664 6.041,-21.541 0.075,-0.068 0.053,-0.233 0.176,-0.255"
           id="path79" />
        <path
           d="m 322.548,186.234 c -0.75,2.564 -1.432,5.192 -2.189,7.747 h -18.213 c -2.154,0 -4.137,-0.106 -5.516,0.512 -1.658,0.744 -2.697,2.538 -2.539,4.769 0.628,1.423 2.368,1.533 4.029,1.533 h 5.603 c 3.787,0 7.591,-0.18 10.156,1.019 2.523,1.182 4.235,3.752 3.941,7.747 -0.264,3.57 -2.15,7.068 -4.379,9.283 -2.369,2.35 -5.297,3.86 -9.544,4.256 -4.356,0.406 -9.145,0.085 -13.836,0.085 -4.667,0 -9.294,-0.003 -13.747,0 0.487,-2.45 1.395,-5.228 2.102,-7.747 h 20.402 c 2.419,0 4.413,0.031 5.867,-0.852 1.107,-0.674 2.53,-2.754 1.926,-4.599 -0.703,-2.143 -6.556,-1.446 -9.544,-1.446 -3.791,0 -7.499,0.129 -9.983,-1.022 -2.759,-1.281 -4.446,-3.57 -4.115,-7.748 0.161,-2.042 0.838,-3.778 1.577,-5.279 2.219,-4.51 6.585,-7.867 12.871,-8.259 4.19,-0.26 8.436,0 12.61,0 h 12.52 z"
           id="path81" />
        <path
           d="m 329.291,186.234 h 10.07 c -3.356,12.375 -6.834,24.631 -10.331,36.867 -2.758,0.196 -7.084,0.029 -9.985,0.085 -0.203,-0.333 -0.001,-0.785 0.088,-1.108 3.268,-11.658 6.751,-23.823 10.071,-35.589 -0.006,-0.121 -0.015,-0.241 0.088,-0.255"
           id="path83" />
        <path
           d="m 346.365,186.234 h 20.666 c 6.518,0 11.416,2.498 11.557,8.77 0.059,2.529 -0.824,5.017 -1.488,7.407 -1.919,6.91 -3.867,13.894 -5.866,20.69 -5.243,0.156 -10.851,0.085 -16.462,0.085 -5.274,0 -11.739,0.672 -15.234,-1.193 -1.271,-0.677 -2.418,-1.887 -2.978,-3.148 -1.501,-3.385 -0.235,-7.346 1.137,-10.048 1.443,-2.839 3.661,-4.999 6.217,-6.3 6.2,-3.156 15.515,-1.103 23.379,-1.701 0.614,-1.395 1.153,-3.576 0.438,-5.025 -1.247,-2.53 -6.853,-1.789 -10.858,-1.789 h -12.695 c 0.574,-2.589 1.407,-4.932 2.014,-7.492 0.074,-0.068 0.051,-0.233 0.174,-0.255 m 5.428,22.308 c -0.755,0.064 -1.884,0.324 -2.538,0.682 -1.367,0.745 -2.804,3.333 -2.102,4.938 0.354,0.807 1.655,1.191 2.889,1.277 4.228,0.294 9.017,-0.223 13.224,0 0.615,-2.325 1.301,-4.583 1.924,-6.897 -4.28,0.286 -8.972,-0.38 -13.397,0"
           id="path85" />
        <path
           d="m 313.617,226.762 c -1.696,6.95 -3.987,14.06 -5.78,21.2 h -3.063 c 1.986,-6.982 3.951,-13.981 5.865,-21.03 0.672,-0.37 2.025,-0.076 2.978,-0.17"
           id="path87" />
        <path
           d="m 274.389,231.36 h 6.743 c 3.458,0 6.818,-0.442 7.618,1.957 0.573,1.724 -0.341,3.516 -0.788,5.108 -0.859,3.059 -1.739,6.479 -2.628,9.538 -3.452,-0.184 -7.526,0.24 -10.945,0 -2.274,-0.161 -3.937,-1.313 -4.026,-3.576 -0.084,-2.049 1.198,-4.139 2.451,-5.109 2.753,-2.135 7.716,-1.131 12.259,-1.363 0.264,-0.988 1.002,-2.148 0.613,-3.233 -0.488,-1.365 -3.485,-0.937 -5.517,-0.937 h -6.479 c 0.194,-0.833 0.37,-1.685 0.699,-2.385 m 0.788,9.451 c -0.858,0.505 -1.966,1.919 -1.663,3.406 0.505,2.488 6.588,0.916 9.457,1.362 0.415,-1.288 0.775,-2.809 1.139,-4.086 0.114,-0.401 0.478,-0.909 0.175,-1.277 -2.511,0.47 -7.172,-0.547 -9.108,0.595"
           id="path89" />
        <path
           d="m 295.754,231.36 c -1.427,5.622 -3.069,11.035 -4.553,16.604 h -2.977 c 1.507,-5.575 3.047,-11.114 4.64,-16.604 h 2.889 z"
           id="path91" />
        <path
           d="m 297.068,248.047 h -2.978 c 0.64,-2.64 1.652,-6.037 2.54,-9.28 0.879,-3.213 1.666,-6.185 4.728,-7.15 1.612,-0.509 3.591,-0.141 5.78,-0.255 -0.184,0.842 -0.36,1.692 -0.702,2.383 -1.28,0.045 -2.278,-0.1 -3.239,0.085 -2.55,0.494 -2.989,2.81 -3.677,5.194 -0.815,2.82 -1.836,6.735 -2.451,9.024"
           id="path93" />
        <path
           d="m 318.258,231.36 c -1.567,5.515 -3.091,11.07 -4.64,16.604 h -2.978 c 1.513,-5.453 3.024,-10.91 4.554,-16.348 -0.004,-0.145 0.064,-0.221 0.174,-0.255 h 2.89 z"
           id="path95" />
        <path
           d="m 321.148,231.36 c 5.467,0.553 13.971,-1.989 13.659,4.001 -0.055,1.061 -0.489,2.15 -0.787,3.236 -0.827,2.989 -1.792,6.314 -2.54,9.367 h -3.064 c 0.665,-2.58 1.78,-6.348 2.627,-9.367 0.403,-1.433 1.038,-3.202 0.175,-4.172 -1.298,-1.46 -5.141,-0.301 -7.706,-0.679 -1.457,4.626 -2.699,9.466 -4.029,14.218 h -2.976 c 1.51,-5.571 3.037,-11.124 4.64,-16.604"
           id="path97" />
        <path
           d="m 352.582,231.36 c -0.251,0.778 -0.405,1.648 -0.699,2.385 -2.409,0.149 -4.62,-0.203 -6.655,0 -2.959,0.294 -4.53,2.31 -5.517,4.511 3.327,0.198 7.034,0.028 10.507,0.086 -0.155,0.813 -0.428,1.513 -0.614,2.299 h -10.507 c -0.415,0.898 -0.523,2.161 -0.261,3.064 0.843,2.913 6.305,1.572 9.632,1.872 0.121,0.742 -0.406,1.591 -0.525,2.385 -4.962,-0.178 -9.935,0.894 -11.734,-2.214 -2.209,-3.82 0.712,-9.807 3.329,-12.091 1.353,-1.183 3.263,-2.134 5.078,-2.299 2.679,-0.244 4.995,0.179 7.967,0"
           id="path99" />
        <path
           d="m 369.745,231.445 c -0.28,0.749 -0.44,1.616 -0.699,2.384 -3.088,0.43 -8.079,-0.722 -10.422,0.34 -0.982,0.445 -2.376,2.005 -1.662,3.407 0.767,1.505 6.804,0.359 8.669,1.191 2.614,1.167 2.311,4.845 0.788,6.897 -0.862,1.161 -2.405,2.12 -4.204,2.3 -3.582,0.358 -8.119,-0.27 -11.996,0 0.226,-0.803 0.384,-1.67 0.702,-2.384 3.566,-0.439 10.981,1.066 12.871,-1.278 0.519,-0.645 0.843,-1.894 0.435,-2.725 -0.936,-1.919 -7.658,-0.21 -9.629,-1.531 -0.772,-0.517 -1.395,-1.756 -1.227,-3.236 0.326,-2.852 2.934,-5.111 6.042,-5.364 3.481,-0.285 6.709,0.213 10.332,0"
           id="path101" />
      </g>
      <path
         d="m 399.999,34.481 c -6.166,0.138 -10.778,-2.508 -11.22,-8.087 -0.089,-1.126 0.009,-2.178 -0.088,-3.151 -0.303,-3.084 -0.967,-5.513 -2.014,-7.918 C 382.658,6.097 374.729,1.014 361.984,0 h -39.578 c -0.075,0.692 -0.384,1.157 -0.438,1.874 h 25.568 c 2.792,0 5.891,-0.38 8.232,0.254 1.511,0.41 3.356,1.77 3.239,4.426 -0.06,1.362 -0.695,2.812 -1.139,4.344 -1.224,4.238 -2.276,8.435 -3.501,12.686 -0.798,2.763 -1.365,5.706 -3.066,7.748 -1.542,1.851 -4.338,3.662 -7.706,2.724 -1.226,-0.343 -1.992,-0.774 -2.539,-1.617 -1.321,-2.036 -0.106,-5.168 0.527,-7.407 0.345,-1.229 0.723,-2.369 1.048,-3.492 0.314,-1.081 0.849,-2.376 0.876,-3.661 0.045,-1.975 -1.212,-2.993 -2.45,-3.407 -1.468,-0.487 -3.587,-0.254 -5.517,-0.254 -5.636,0 -11.717,-0.07 -17.163,0.085 -0.116,0.594 -0.341,1.086 -0.438,1.702 4.904,0 12.784,-0.614 12.784,3.407 0.013,0.938 -0.326,1.989 -0.613,2.978 -0.522,1.814 -1.068,3.61 -1.575,5.451 -0.258,0.933 -0.434,1.895 -0.788,2.724 -0.932,2.186 -1.919,3.916 -5.517,3.916 h -9.586 l -0.229,0.893 h 87.258 c 0.135,-0.398 0.208,-0.593 0.325,-0.893"
         fill="#ed1c24"
         id="path105" />
    </g>
  </g>
</svg>
