<?xml version="1.0" encoding="UTF-8" standalone="no"?>
<svg
   xmlns:dc="http://purl.org/dc/elements/1.1/"
   xmlns:cc="http://creativecommons.org/ns#"
   xmlns:rdf="http://www.w3.org/1999/02/22-rdf-syntax-ns#"
   xmlns:svg="http://www.w3.org/2000/svg"
   xmlns="http://www.w3.org/2000/svg"
   xmlns:sodipodi="http://sodipodi.sourceforge.net/DTD/sodipodi-0.dtd"
   xmlns:inkscape="http://www.inkscape.org/namespaces/inkscape"
   inkscape:version="1.0 (4035a4fb49, 2020-05-01)"
   height="93.863098"
   width="359.99979"
   sodipodi:docname="5T.svg"
   id="svg32"
   version="1.1"
   viewBox="0 0 359.99979 93.863098"
   stroke-miterlimit="1.41421"
   stroke-linejoin="round"
   fill-rule="evenodd"
   clip-rule="evenodd">
  <metadata
     id="metadata38">
    <rdf:RDF>
      <cc:Work
         rdf:about="">
        <dc:format>image/svg+xml</dc:format>
        <dc:type
           rdf:resource="http://purl.org/dc/dcmitype/StillImage" />
        <dc:title></dc:title>
      </cc:Work>
    </rdf:RDF>
  </metadata>
  <defs
     id="defs36" />
  <sodipodi:namedview
     inkscape:current-layer="svg32"
     inkscape:window-maximized="1"
     inkscape:window-y="-8"
     inkscape:window-x="-8"
     inkscape:cy="46.931194"
     inkscape:cx="180.00006"
     inkscape:zoom="1.8732143"
     fit-margin-bottom="0"
     fit-margin-right="0"
     fit-margin-left="0"
     fit-margin-top="0"
     showgrid="false"
     id="namedview34"
     inkscape:window-height="1027"
     inkscape:window-width="1920"
     inkscape:pageshadow="2"
     inkscape:pageopacity="0"
     guidetolerance="10"
     gridtolerance="10"
     objecttolerance="10"
     borderopacity="1"
     bordercolor="#666666"
     pagecolor="#ffffff" />
  <g
     id="g30"
     transform="matrix(0.760641,0,0,0.760641,-41.466545,-41.302806)">
    <g
       id="g8"
       fill-rule="nonzero">
      <path
         id="path2"
         d="M 136.8,105.8 C 124.1,98.3 118.9,97.4 109,91.6 c -0.8,-0.5 -1.4,-1.7 -1.5,-2.6 -1,-9.4 -2.1,-18.7 -3,-28.1 -0.3,-3.1 -2.7,-6.6 -6.2,-6.6 -3.5,0 -5.9,3.5 -6.2,6.6 -0.9,9.4 -2,18.7 -3,28.1 -0.1,0.9 -0.7,2.1 -1.5,2.6 -9.9,5.8 -15.1,6.7 -27.8,14.2 -4.5,2.7 -6.1,6.9 -4.9,11.9 l 16.5,-1.4 v 3.3 c 0,2.3 1.7,4.2 4,4.3 2.3,0.1 4.2,-1.8 4.2,-4.1 v -4.2 l 7.7,-0.7 c 1.8,-0.2 3.4,1.2 3.6,3 0.4,5 1,14.1 1.2,17.8 0,0.8 -0.4,1.8 -0.9,2.4 -2,2.5 -4.2,5.2 -6.3,7.6 -1.2,1.4 -1.5,2.8 -1.1,4.6 4.4,-1.5 8.6,-2.6 12.9,-3.9 0.5,-0.2 1.1,-0.2 1.7,-0.2 0.6,0 1.2,0.1 1.7,0.2 4.3,1.3 8.6,2.4 12.9,3.9 0.4,-1.9 0.1,-3.2 -1.1,-4.6 -2.1,-2.4 -4.3,-5.1 -6.3,-7.6 -0.5,-0.6 -1,-1.6 -0.9,-2.4 0.2,-3.6 0.8,-12.8 1.2,-17.8 0.1,-1.8 1.7,-3.2 3.6,-3 l 7.7,0.7 v 4.2 c 0,2.3 1.9,4.2 4.2,4.1 2.3,-0.1 4,-2 4,-4.3 v -3.3 l 16.5,1.4 c 1,-5.1 -0.6,-9.3 -5.1,-11.9 z" />
      <path
         id="path4"
         d="m 104.3,171.1 v 6.6 c 15.1,0 27.4,-12.3 27.4,-27.4 h -6.6 c 0.1,11.4 -9.3,20.8 -20.8,20.8 z" />
      <path
         id="path6"
         d="m 422.6,140.5 v -27.9 c 0,-10.9 -6,-16.7 -14.3,-16.7 -6.5,0 -12.9,3.5 -18.9,11.5 H 389 V 96.8 l -25.9,4.6 v 0.6 l 7.2,12.7 v 35.6 h 24.4 v -0.6 l -5.3,-9.1 v -28.3 c 2.5,-2.1 5.7,-3.3 8.3,-3.3 3.1,0 5.8,1.7 5.8,7.2 v 34.2 H 430 v -0.6 z" />
    </g>
    <circle
       id="circle10"
       r="11"
       cy="83.5"
       cx="342.5" />
    <circle
       id="circle12"
       r="10.4"
       cy="84"
       cx="182.39999" />
    <g
       id="g28"
       fill-rule="nonzero">
      <path
         id="path14"
         d="m 227.2,95.9 c -17.1,0 -26.3,13.2 -26.3,28.2 0,14.3 8.8,27.4 25.6,27.4 9.8,0 19.1,-5 23.3,-21 l -1.1,-0.6 c -3.3,5.2 -8.8,8.1 -14.7,8.1 -7.2,0 -14.1,-3.3 -15.5,-16 h 31.9 c 0,-16 -9.2,-26.1 -23.2,-26.1 z m -9,21.8 v -2.1 c 0,-10.7 3,-15.1 7,-15.1 4.5,0 7.7,7 8.3,17.2 z" />
      <path
         id="path16"
         d="m 456.1,95.9 c -17.1,0 -26.3,13.2 -26.3,28.2 0,14.3 8.8,27.4 25.6,27.4 9.8,0 19.1,-5 23.3,-21 l -1.1,-0.6 c -3.3,5.2 -8.8,8.1 -14.7,8.1 -7.2,0 -14.1,-3.3 -15.5,-16 h 31.9 c 0,-16 -9.2,-26.1 -23.2,-26.1 z m -9.1,21.8 v -2.1 c 0,-10.7 3,-15.1 7,-15.1 4.5,0 7.7,7 8.3,17.2 z" />
      <path
         id="path18"
         d="m 281,138.6 c -3.1,0 -5.1,-2.1 -5.1,-6.6 v -28.5 h 11.4 v -6.8 h -11.4 v -9.5 h -1.1 l -18.1,3.2 v 45.1 c 0,10.8 6.9,16 15.5,16 8.6,0 15.6,-5.1 19,-18.7 l -1.1,-0.6 c -2.7,4.2 -5.9,6.4 -9.1,6.4 z" />
      <path
         id="path20"
         d="m 354.2,96.7 -26.4,4.7 v 0.5 l 7.3,12.5 v 35.9 h 26.5 v -0.7 l -7.4,-9.1 z" />
      <path
         id="path22"
         d="m 515.5,116.3 -6.3,-2.3 c -7.5,-2.8 -9.4,-5.1 -9.4,-8 0,-3.1 2.2,-4.9 5.5,-4.9 6,0 11.9,5.9 17.5,15.7 h 1.1 V 97.2 h -16.6 c -14.1,0 -21.6,6.8 -21.6,16.9 0,9.4 5.9,14.7 13.6,17.6 l 6.3,2.3 c 7.1,2.7 9.1,5.1 9.1,8.2 0,3.6 -2.8,5.3 -6.7,5.3 -6.4,0 -12.5,-4.8 -20.8,-19.5 h -1.1 v 23.6 l 9.3,-1.6 c 3,1 6.5,1.6 10.5,1.6 11.6,0 21.9,-5.4 21.9,-17.7 0,-8.7 -4.7,-14.7 -12.3,-17.6 z" />
      <path
         id="path24"
         d="m 166.6,102.1 7.8,12.4 v 42.4 c 0,5.2 -0.4,10.1 -1.8,14.3 -0.8,2.5 -2.6,5.4 -2.8,5.7 l 0.5,0.6 c 13.1,-2 23.2,-13.4 23.2,-27.1 V 96.7 l -26.9,4.7 z" />
      <path
         id="path26"
         d="m 318.7,79.5 -26.3,4.6 v 0.7 l 7.2,12.4 v 53.1 h 26.5 v -0.7 l -7.4,-9.1 z" />
    </g>
  </g>
</svg>
