<?xml version="1.0" encoding="UTF-8" standalone="no"?>
<!-- Created with Inkscape (http://www.inkscape.org/) -->

<svg
   xmlns:dc="http://purl.org/dc/elements/1.1/"
   xmlns:cc="http://creativecommons.org/ns#"
   xmlns:rdf="http://www.w3.org/1999/02/22-rdf-syntax-ns#"
   xmlns:svg="http://www.w3.org/2000/svg"
   xmlns="http://www.w3.org/2000/svg"
   xmlns:sodipodi="http://sodipodi.sourceforge.net/DTD/sodipodi-0.dtd"
   xmlns:inkscape="http://www.inkscape.org/namespaces/inkscape"
   width="128.44196mm"
   height="32mm"
   viewBox="0 0 128.44196 32"
   version="1.1"
   id="svg5438"
   inkscape:version="0.92.0 r15299"
   sodipodi:docname="onur air.svg">
  <defs
     id="defs5432" />
  <sodipodi:namedview
     id="base"
     pagecolor="#ffffff"
     bordercolor="#666666"
     borderopacity="1.0"
     inkscape:pageopacity="0.0"
     inkscape:pageshadow="2"
     inkscape:zoom="1.6956741"
     inkscape:cx="217.17379"
     inkscape:cy="120.06722"
     inkscape:document-units="mm"
     inkscape:current-layer="layer1"
     showgrid="false"
     fit-margin-top="0"
     fit-margin-left="0"
     fit-margin-right="0"
     fit-margin-bottom="0"
     inkscape:window-width="1280"
     inkscape:window-height="744"
     inkscape:window-x="-4"
     inkscape:window-y="-4"
     inkscape:window-maximized="1" />
  <metadata
     id="metadata5435">
    <rdf:RDF>
      <cc:Work
         rdf:about="">
        <dc:format>image/svg+xml</dc:format>
        <dc:type
           rdf:resource="http://purl.org/dc/dcmitype/StillImage" />
        <dc:title></dc:title>
      </cc:Work>
    </rdf:RDF>
  </metadata>
  <g
     inkscape:label="Layer 1"
     inkscape:groupmode="layer"
     id="layer1"
     transform="translate(-104.03382,-188.82098)">
    <g
       id="g5509"
       transform="translate(0.50000278,-0.50000229)">
      <path
         d="m 149.69305,211.8866 c -3.06412,0 -5.04189,-1.7246 -5.04189,-4.55957 0,-3.4475 2.53889,-8.1012 7.84267,-8.1012 2.96518,0 4.94295,1.60655 4.94295,4.44157 0,4.55787 -3.55881,8.2192 -7.74373,8.2192 m 2.83521,-14.59581 c -7.18454,0 -10.90727,5.50233 -10.90727,9.72998 0,3.99156 3.29497,6.80257 8.00707,6.80257 5.76597,0 10.84035,-3.99156 10.84035,-9.77954 0,-4.01382 -3.16355,-6.75301 -7.94015,-6.75301"
         style="fill:#1d4a94;fill-opacity:1;fill-rule:nonzero;stroke:none;stroke-width:1.71091294"
         id="path4188"
         inkscape:connector-curvature="0" />
      <path
         d="m 173.78604,209.45199 0.43164,-1.44743 c 0.37344,-1.19253 0.9462,-3.06422 0.9462,-4.1695 0,-2.57492 -3.09856,-2.76654 -4.04621,-2.76654 -2.3837,0 -3.81876,0.74595 -4.93762,1.29685 l 0.40254,-1.08472 -0.1455,-0.14889 c -1.37735,0.21388 -1.6921,0.25656 -3.0423,0.38314 l -0.19884,0.14889 c -0.46073,2.31996 -0.60429,2.8726 -1.37735,5.38423 l -0.46073,1.59628 -1.17706,3.65963 0.1455,0.14889 2.92735,-0.065 0.2037,-0.12852 c 0.91904,-3.55187 1.26289,-4.68105 2.32501,-8.25514 0.86084,-0.46704 2.0379,-1.12749 3.81875,-1.12749 1.34826,0 2.41086,0.42582 2.41086,1.70234 0,0.50987 -0.1455,1.02143 -0.28614,1.51073 l -0.71826,2.40556 -1.2047,3.80848 0.11639,0.14889 2.92736,-0.065 0.23279,-0.12852"
         style="fill:#1d4a94;fill-opacity:1;fill-rule:nonzero;stroke:none;stroke-width:1.71091294"
         id="path4192"
         inkscape:connector-curvature="0" />
      <path
         d="m 188.81131,208.96264 0.68771,-2.31827 1.66494,-5.23539 -0.11154,-0.14889 -2.9002,0.10621 -0.22794,0.14889 c -0.37344,1.5552 -0.4879,2.00177 -1.20664,4.44836 l -1.08976,3.61686 c -0.7459,0.46898 -2.01026,1.2353 -3.90411,1.2353 -0.68965,0 -2.38321,-0.21242 -2.38321,-1.76737 0,-0.70148 0.48741,-2.32002 0.66006,-2.85209 0.14549,-0.40399 1.35019,-4.06343 1.57959,-4.78713 l -0.14549,-0.12658 -2.87062,0.0839 -0.19884,0.14889 c -0.28614,1.14975 -0.34434,1.42691 -0.80411,2.87435 l -0.66054,2.08387 c -0.46074,1.5535 -0.71875,2.36274 -0.71875,3.21481 0,2.25328 2.38369,2.91368 4.22081,2.91368 1.52139,0 3.47345,-0.50986 4.73586,-1.33967 l -0.34434,1.04194 0.1455,0.15083 2.81242,-0.0873 0.19884,-0.12658"
         style="fill:#1d4a94;fill-opacity:1;fill-rule:nonzero;stroke:none;stroke-width:1.71091294"
         id="path4196"
         inkscape:connector-curvature="0" />
      <path
         d="m 194.32751,210.23902 0.6038,-2.10614 c 0.63145,-2.10613 1.0626,-3.33969 2.0088,-4.06343 0.54561,-0.42581 1.20616,-0.72369 1.98116,-0.72369 0.48741,0 0.8041,0.12658 1.20615,0.29778 l 0.28614,-0.065 1.11886,-2.08392 -0.0873,-0.19157 c -0.48741,-0.14889 -0.86036,-0.25656 -1.31915,-0.25656 -0.88946,0 -2.03936,0.42582 -2.98556,1.29854 -0.28614,0.25511 -0.51651,0.53213 -0.7459,0.82981 l 0.63145,-1.87174 -0.1455,-0.14889 c -1.37881,0.21193 -1.69356,0.23424 -3.10001,0.36082 l -0.2037,0.14889 c -0.46073,2.2139 -0.57325,2.76654 -1.43555,5.51257 l -0.63144,2.02058 -1.06212,3.107 0.1455,0.12658 2.9841,-0.0436 0.22794,-0.14695"
         style="fill:#1d4a94;fill-opacity:1;fill-rule:nonzero;stroke:none;stroke-width:1.71091294"
         id="path4200"
         inkscape:connector-curvature="0" />
      <path
         d="m 209.89013,209.79414 c -0.31523,0.19157 -0.63144,0.404 -0.94765,0.55264 -0.74591,0.34046 -1.72121,0.4893 -2.49621,0.4893 -2.61455,0 -3.36045,-1.63735 -3.36045,-2.65872 0,-0.10622 0.0582,-2.85214 3.07285,-4.38508 1.69357,-0.85032 3.56027,-0.8914 4.50647,-0.8914 0.43163,0 0.86084,0.0194 1.29199,0.0194 z m 5.33967,-8.46901 -3.96231,-0.0194 c -2.63977,0 -6.34407,0.12658 -9.01293,2.44659 -1.20664,1.06245 -2.2964,2.89317 -2.2964,4.57499 0,2.65873 2.38321,4.19171 5.30911,4.19171 2.44141,0 3.70431,-0.78703 4.19171,-1.08641 l -0.19884,0.85202 0.1455,0.14889 2.69796,-0.0436 0.19884,-0.14889 c 0.57471,-2.53214 0.775,-3.34139 1.7794,-6.61609 l 1.29345,-4.12842"
         style="fill:#b9b7ba;fill-opacity:1;fill-rule:nonzero;stroke:none;stroke-width:1.71091294"
         id="path4204"
         inkscape:connector-curvature="0" />
      <path
         d="m 218.61401,209.8472 0.44619,-1.67499 c 0.65375,-2.2105 0.78179,-2.65019 1.35019,-4.22425 l -0.15034,-0.11979 -3.07286,0.20175 -0.18914,0.10961 c -0.20854,1.17371 -0.26189,1.48337 -0.65521,2.80078 l -0.27644,1.00775 c -0.59071,1.96752 -0.76822,2.50474 -1.39967,4.32348 l 0.15035,0.10087 3.00787,0.01 0.19399,-0.0786"
         style="fill:#b9b7ba;fill-opacity:1;fill-rule:nonzero;stroke:none;stroke-width:1.71091294"
         id="path4208"
         inkscape:connector-curvature="0" />
      <path
         d="m 224.27037,210.23902 0.60235,-2.10614 c 0.63145,-2.10613 1.0626,-3.33969 2.00832,-4.06343 0.54609,-0.42581 1.20809,-0.72369 1.98164,-0.72369 0.48741,0 0.8041,0.12658 1.20615,0.29778 l 0.28614,-0.065 1.1208,-2.08392 -0.0873,-0.19157 c -0.48741,-0.14889 -0.8623,-0.25656 -1.32061,-0.25656 -0.88994,0 -2.0379,0.42582 -2.98556,1.29854 -0.28614,0.25511 -0.51699,0.53213 -0.7459,0.82981 l 0.63096,-1.87174 -0.14549,-0.14889 c -1.37735,0.21193 -1.69405,0.23424 -3.10001,0.36082 l -0.19885,0.14889 c -0.46073,2.2139 -0.5747,2.76654 -1.43555,5.51257 l -0.63145,2.02058 -1.06211,3.107 0.14065,0.12658 2.98749,-0.0436 0.22794,-0.14695"
         style="fill:#b9b7ba;fill-opacity:1;fill-rule:nonzero;stroke:none;stroke-width:1.71091294"
         id="path4212"
         inkscape:connector-curvature="0" />
      <path
         d="m 217.59943,200.1583 c 0,-1.05561 0.85696,-1.91452 1.91471,-1.91452 1.05532,0 1.91278,0.85891 1.91278,1.91452 0,1.05736 -0.85746,1.91283 -1.91278,1.91283 -1.05775,0 -1.91471,-0.85547 -1.91471,-1.91283"
         style="fill:#b9b7ba;fill-opacity:1;fill-rule:nonzero;stroke:none;stroke-width:1.71091294"
         id="path4216"
         inkscape:connector-curvature="0" />
      <path
         d="m 123.35555,220.81243 c -8.01726,0 -14.53786,-6.52201 -14.53786,-14.53761 0,-8.01736 6.5206,-14.54106 14.53786,-14.54106 8.01726,0 14.53931,6.5237 14.53931,14.54106 0,8.0156 -6.52205,14.53761 -14.53931,14.53761 m 0,-27.67571 c -7.24225,0 -13.1348,5.8941 -13.1348,13.1381 0,7.2423 5.89255,13.13465 13.1348,13.13465 7.2442,0 13.13626,-5.89235 13.13626,-13.13465 0,-7.244 -5.89206,-13.1381 -13.13626,-13.1381"
         style="fill:#1d4a94;fill-opacity:1;fill-rule:nonzero;stroke:none;stroke-width:1.71091294"
         id="path4220"
         inkscape:connector-curvature="0" />
      <path
         d="m 123.35555,220.81243 c -8.01726,0 -14.53786,-6.52201 -14.53786,-14.53761 0,-8.01736 6.5206,-14.54106 14.53786,-14.54106 8.01726,0 14.53931,6.5237 14.53931,14.54106 0,8.0156 -6.52205,14.53761 -14.53931,14.53761 z"
         style="fill:none;stroke:#1d4a94;stroke-width:0.01710914;stroke-linecap:butt;stroke-linejoin:miter;stroke-miterlimit:10;stroke-dasharray:none;stroke-opacity:1"
         id="path4224"
         inkscape:connector-curvature="0" />
      <path
         inkscape:connector-curvature="0"
         id="path4228"
         style="fill:none;stroke:#1d4a94;stroke-width:0.01710914;stroke-linecap:butt;stroke-linejoin:miter;stroke-miterlimit:10;stroke-dasharray:none;stroke-opacity:1"
         d="m 123.35555,193.13672 c -7.24225,0 -13.1348,5.8941 -13.1348,13.1381 0,7.2423 5.89255,13.1347 13.1348,13.1347 7.2442,0 13.13626,-5.8924 13.13626,-13.1347 0,-7.244 -5.89206,-13.1381 -13.13626,-13.1381 z" />
      <path
         d="m 104.03382,208.31766 h 28.46269 l -15.56068,-18.49668 h -6.86591 l 7.19764,17.22205"
         style="fill:#db1f26;fill-opacity:1;fill-rule:nonzero;stroke:none;stroke-width:1.71091294"
         id="path4232"
         inkscape:connector-curvature="0" />
    </g>
  </g>
</svg>
