<?xml version="1.0" encoding="UTF-8" standalone="no"?>
<!-- Created with Inkscape (http://www.inkscape.org/) -->

<svg
   xmlns:dc="http://purl.org/dc/elements/1.1/"
   xmlns:cc="http://creativecommons.org/ns#"
   xmlns:rdf="http://www.w3.org/1999/02/22-rdf-syntax-ns#"
   xmlns:svg="http://www.w3.org/2000/svg"
   xmlns="http://www.w3.org/2000/svg"
   xmlns:sodipodi="http://sodipodi.sourceforge.net/DTD/sodipodi-0.dtd"
   xmlns:inkscape="http://www.inkscape.org/namespaces/inkscape"
   width="157.53262mm"
   height="90.622688mm"
   viewBox="0 0 157.53262 90.622688"
   version="1.1"
   id="svg5781"
   inkscape:version="0.92.0 r15299"
   sodipodi:docname="afriqiyah airways.svg">
  <defs
     id="defs5775" />
  <sodipodi:namedview
     id="base"
     pagecolor="#ffffff"
     bordercolor="#666666"
     borderopacity="1.0"
     inkscape:pageopacity="0.0"
     inkscape:pageshadow="2"
     inkscape:zoom="0.97047901"
     inkscape:cx="446.68667"
     inkscape:cy="169.36571"
     inkscape:document-units="mm"
     inkscape:current-layer="layer1"
     showgrid="false"
     fit-margin-top="0"
     fit-margin-left="0"
     fit-margin-right="0"
     fit-margin-bottom="0"
     inkscape:window-width="1280"
     inkscape:window-height="744"
     inkscape:window-x="-4"
     inkscape:window-y="-4"
     inkscape:window-maximized="1" />
  <metadata
     id="metadata5778">
    <rdf:RDF>
      <cc:Work
         rdf:about="">
        <dc:format>image/svg+xml</dc:format>
        <dc:type
           rdf:resource="http://purl.org/dc/dcmitype/StillImage" />
        <dc:title></dc:title>
      </cc:Work>
    </rdf:RDF>
  </metadata>
  <g
     inkscape:label="Layer 1"
     inkscape:groupmode="layer"
     id="layer1"
     transform="translate(-5.6444043,-84.879123)">
    <path
       inkscape:connector-curvature="0"
       id="path5491"
       style="fill:#3e96d9;fill-opacity:1;fill-rule:nonzero;stroke:none;stroke-width:0.03527778"
       d="m 81.6542,85.522902 c 6.38705,-0.53622 12.798078,0.48542 18.9664,2.10114 7.71665,2.07222 15.16873,5.12763 22.14985,9.01171 3.10373,1.76706 6.16373,3.659358 8.88647,5.980288 -2.23767,1.30775 -4.94454,1.32398 -7.44538,1.02658 -3.84739,-0.48824 -7.55967,-1.67216 -11.23668,-2.86067 -6.26321,-2.078918 -12.44422,-4.412898 -18.792462,-6.229348 -5.852229,-1.68205 -11.86956,-2.98486 -17.98003,-3.10057 -3.24308,-0.0624 -6.500979,0.26035 -9.647759,1.05869 1.413579,-1.68663 3.145359,-3.10021 5.077529,-4.15255 3.07163,-1.69298 6.549321,-2.52342 10.022062,-2.83527" />
    <path
       inkscape:connector-curvature="0"
       id="path5493"
       style="fill:#3e96d9;fill-opacity:1;fill-rule:nonzero;stroke:none;stroke-width:0.03527778"
       d="m 57.787368,99.909532 c 5.02603,-2.530119 10.762199,-3.24662 16.328321,-3.1242 7.264051,0.184501 14.430031,1.72191 21.350121,3.864678 7.81472,2.45921 15.38392,5.72664 22.50827,9.77794 3.40536,1.95827 6.72747,4.09293 9.75042,6.61035 -2.24895,1.34444 -4.96675,1.53388 -7.52087,1.34585 -3.33339,-0.26176 -6.59094,-1.09573 -9.79381,-2.02071 -5.34458,-1.58539 -10.581211,-3.5052 -15.854891,-5.30402 -6.713001,-2.29411 -13.49339,-4.46899 -20.464989,-5.83106 -7.544861,-1.4732 -15.451672,-1.99037 -22.965831,-0.066 1.826329,-2.18793 4.120089,-3.97087 6.663259,-5.252858" />
    <path
       inkscape:connector-curvature="0"
       id="path5495"
       style="fill:#3e96d9;fill-opacity:1;fill-rule:nonzero;stroke:none;stroke-width:0.03527778"
       d="m 49.20923,112.20772 c 4.388548,-1.29646 9.002178,-1.66229 13.559009,-1.52753 7.2898,0.24094 14.48965,1.71556 21.46935,3.78283 8.775351,2.63913 17.268121,6.22618 25.272641,10.69023 4.00121,2.25884 7.90611,4.72758 11.44341,7.67186 -2.33398,1.39912 -5.14809,1.65312 -7.81156,1.49895 -3.47133,-0.21696 -6.87035,-1.03928 -10.21008,-1.97273 -4.687361,-1.34126 -9.286172,-2.96369 -13.893451,-4.55719 -6.679139,-2.32268 -13.377691,-4.62773 -20.228632,-6.40115 -6.563428,-1.68663 -13.294079,-2.909 -20.088939,-2.93017 -3.88761,-0.0145 -7.784391,0.40957 -11.556291,1.36701 3.076221,-3.74121 7.426323,-6.28085 12.044543,-7.62211" />
    <path
       inkscape:connector-curvature="0"
       id="path5497"
       style="fill:#212129;fill-opacity:1;fill-rule:nonzero;stroke:none;stroke-width:0.03527778"
       d="m 51.658919,152.63993 c 0.359828,-0.66816 1.143699,-1.01353 1.88418,-0.96873 0.375709,-0.0466 0.490009,0.29246 0.371129,0.59585 -0.513998,-0.19897 -1.12607,-0.21026 -1.567749,0.15592 0.724249,0.25048 1.4986,0.21379 2.245788,0.10301 -0.149579,0.14605 -0.295629,0.29387 -0.440269,0.44309 -0.894649,0.005 -1.76389,0.21379 -2.610559,0.48543 0.215551,-0.18627 0.437089,-0.36478 0.6604,-0.54293 -0.135109,-0.0677 -0.40781,-0.20426 -0.54292,-0.27164" />
    <path
       inkscape:connector-curvature="0"
       id="path5499"
       style="fill:#212129;fill-opacity:1;fill-rule:nonzero;stroke:none;stroke-width:0.03527778"
       d="m 95.007898,152.5274 c 0.330912,-0.27447 0.660051,-0.55069 0.98778,-0.83044 0.442031,0.53657 1.111951,0.75847 1.762122,0.92533 -0.305152,0.29387 -0.52352,0.84984 -1.026231,0.75495 0.0836,0.82585 0.36795,1.64641 0.310099,2.47685 -0.254,0.14817 -0.53658,0.23954 -0.80328,0.34713 0.626531,0.1076 1.244952,0.26177 1.853851,0.44838 1.426281,0.42722 2.902651,0.70803 4.394901,0.74684 -0.46919,0.44626 -0.93027,0.90099 -1.39912,1.34443 -2.020702,-0.005 -3.99344,0.47378 -5.949942,0.91722 -2.224968,0.51718 -4.520498,0.30198 -6.780389,0.34043 -0.856189,1.9357 -3.14855,3.08258 -5.208061,2.60068 -0.923568,-0.22331 -1.754008,-0.7052 -2.524829,-1.24319 2.247191,0.29704 4.828471,0.2025 6.63398,-1.34126 -0.96061,-0.0402 -1.930749,0.0497 -2.881839,-0.11571 -0.41592,-0.0755 -0.910521,-0.23954 -1.048811,-0.6858 -0.205671,-0.75812 0.24906,-1.50389 0.78881,-1.9999 0.68263,-0.65228 1.64959,-1.18251 2.61656,-0.8964 0.878771,0.23777 1.384649,1.0795 1.691571,1.87466 1.91946,0.008 3.839279,0.001 5.760508,0.003 1.044221,-0.005 2.110672,0.008 3.12102,-0.2988 -1.90817,-0.75812 -4.091159,-1.05375 -6.06707,-0.36936 0.470601,-0.6731 1.236842,-1.04599 2.00448,-1.27071 0.856192,-0.27657 1.78153,-0.0466 2.637722,-0.33408 -0.13652,-0.87559 -0.359831,-1.73355 -0.53657,-2.60067 -0.0466,-0.29105 -0.17816,-0.55104 -0.337262,-0.79375 z m -10.41717,5.54672 v 0 c 0.710142,0.19615 1.455201,0.26529 2.18933,0.1591 -0.329139,-0.26493 -0.668158,-0.56867 -1.10348,-0.61983 -0.42087,-0.0402 -0.759888,0.24377 -1.08585,0.46073" />
    <path
       inkscape:connector-curvature="0"
       id="path5501"
       style="fill:#212129;fill-opacity:1;fill-rule:nonzero;stroke:none;stroke-width:0.03527778"
       d="m 153.03243,151.69555 c 0.45156,0.53163 1.11654,0.76129 1.772,0.92851 -0.30515,0.29386 -0.52705,0.84314 -1.02975,0.75318 0.11747,0.78528 0.28927,1.56457 0.3503,2.35479 -0.13829,0.30868 -0.57679,0.31503 -0.84349,0.46778 2.07857,0.42863 4.10104,1.21744 6.25511,1.1931 -0.46885,0.44661 -0.93169,0.89993 -1.40053,1.3462 -3.12138,-0.072 -6.0512,1.31727 -9.16764,1.26259 -5.28002,0.007 -10.56005,-0.006 -15.84008,0.005 -0.88335,2.04188 -3.39901,3.18876 -5.51462,2.50119 -0.8001,-0.24271 -1.52294,-0.67804 -2.20239,-1.15358 1.63689,0.24447 3.34433,0.19297 4.92196,-0.34537 0.61665,-0.20849 1.20156,-0.52846 1.66581,-0.99272 -1.06997,-0.0561 -2.16887,0.0885 -3.21133,-0.21202 -0.38876,-0.10583 -0.73237,-0.4385 -0.72426,-0.86254 -0.0452,-0.89958 0.62971,-1.61925 1.3074,-2.11561 0.66181,-0.50588 1.5808,-0.78034 2.37737,-0.42721 0.75494,0.31327 1.1744,1.07139 1.46367,1.79423 1.34761,-0.0258 2.8127,0.21872 3.99803,-0.58773 0.16405,-0.28293 0.0709,-0.61524 0.0307,-0.91581 -0.11748,-0.62971 -0.27976,-1.2513 -0.41134,-1.87607 -0.13829,-0.0868 -0.27305,-0.17216 -0.4064,-0.25718 0.39828,-0.3436 0.79657,-0.69074 1.19027,-1.04069 0.39511,0.60219 1.04916,0.93309 1.74449,1.06327 -0.28293,0.35348 -0.52847,0.78563 -0.99272,0.91722 0.13335,0.62971 0.11571,1.28517 -0.16404,1.87466 1.97591,-0.59937 4.01919,-1.17439 6.10446,-1.0668 0.55245,0.0628 1.23825,0.0868 1.59491,0.58491 0.28752,0.44661 -0.0836,0.92357 -0.28575,1.31551 2.18793,-0.0272 4.37551,0.01 6.56343,-0.0194 0.73907,-0.006 1.48273,-0.0864 2.19604,-0.29386 -1.91981,-0.73731 -4.09645,-1.05516 -6.07871,-0.37112 0.46743,-0.67769 1.24354,-1.04387 2.01295,-1.27036 0.85302,-0.27022 1.77341,-0.037 2.62326,-0.33266 -0.18027,-1.05693 -0.44345,-2.09621 -0.66852,-3.14537 -0.0642,-0.048 -0.19261,-0.14746 -0.25682,-0.19579 0.34361,-0.29069 0.68756,-0.58315 1.02623,-0.88018 z m -15.2714,6.5472 v 0 c 0.79023,0.0582 1.58539,0.0466 2.38055,0.0402 1.39735,-0.0402 2.84974,0.0325 4.19276,-0.4191 -0.68298,-0.55739 -1.60831,-0.55422 -2.44016,-0.51435 -1.409,0.1016 -2.8127,0.38417 -4.13315,0.89323 z m -8.39329,-0.17004 v 0 c 0.71332,0.20073 1.46015,0.26494 2.19746,0.16193 -0.31962,-0.25824 -0.64911,-0.55387 -1.06963,-0.61666 -0.43391,-0.0593 -0.78881,0.23636 -1.12783,0.45473" />
    <path
       inkscape:connector-curvature="0"
       id="path5503"
       style="fill:#212129;fill-opacity:1;fill-rule:nonzero;stroke:none;stroke-width:0.03527778"
       d="m 46.094549,152.67838 c 0.505889,0.22825 1.00542,0.4692 1.50672,0.71191 -0.37112,0.25047 -0.742251,0.49953 -1.111609,0.74683 -0.502701,-0.23142 -1.004002,-0.46425 -1.503532,-0.70062 0.36935,-0.25047 0.740481,-0.5027 1.108421,-0.75812" />
    <path
       inkscape:connector-curvature="0"
       id="path5505"
       style="fill:#212129;fill-opacity:1;fill-rule:nonzero;stroke:none;stroke-width:0.03527778"
       d="m 11.649538,153.60513 c 0.38707,-0.14922 0.73724,-0.37253 1.08906,-0.59266 0.47226,0.23318 0.94767,0.46284 1.42491,0.68932 -0.41769,0.27446 -0.83704,0.54787 -1.2579,0.81774 -0.41769,-0.19614 -0.83686,-0.38911 -1.27702,-0.52211 0.005,-0.13194 0.0111,-0.26176 0.021,-0.39229" />
    <path
       inkscape:connector-curvature="0"
       id="path5507"
       style="fill:#212129;fill-opacity:1;fill-rule:nonzero;stroke:none;stroke-width:0.03527778"
       d="m 9.932218,153.13805 c 0.45946,0.20567 0.9157,0.41593 1.38148,0.60537 -0.008,0.0642 -0.0258,0.19121 -0.0353,0.25541 -0.37592,0.19932 -0.73572,0.42757 -1.09238,0.65864 -0.4963599,-0.23601 -0.9893999,-0.48013 -1.4729499,-0.73872 0.40636,-0.25894 0.8143901,-0.51752 1.2191301,-0.7807" />
    <path
       inkscape:connector-curvature="0"
       id="path5509"
       style="fill:#212129;fill-opacity:1;fill-rule:nonzero;stroke:none;stroke-width:0.03527778"
       d="m 24.887318,153.18462 c 0.46284,0.20567 0.92075,0.42051 1.40405,0.5782 -0.0642,0.56551 -0.76306,0.61348 -1.12465,0.93804 -0.49283,-0.24589 -0.98778,-0.48507 -1.48086,-0.72461 0.40171,-0.25999 0.80317,-0.52352 1.20146,-0.79163" />
    <path
       inkscape:connector-curvature="0"
       id="path5511"
       style="fill:#212129;fill-opacity:1;fill-rule:nonzero;stroke:none;stroke-width:0.03527778"
       d="m 26.570768,153.74342 c 0.37747,-0.21837 0.74542,-0.44979 1.11337,-0.6858 0.49459,0.22825 0.99095,0.45932 1.48413,0.69568 -0.43215,0.26317 -0.8322,0.58773 -1.29963,0.78387 -0.44485,-0.15099 -0.8576,-0.37606 -1.29787,-0.53516 0,-0.0642 0,-0.19438 0,-0.25859" />
    <path
       inkscape:connector-curvature="0"
       id="path5513"
       style="fill:#212129;fill-opacity:1;fill-rule:nonzero;stroke:none;stroke-width:0.03527778"
       d="m 57.674478,154.20944 c 0.254,-0.35031 0.512591,-0.69568 0.766241,-1.04599 0.39229,0.66534 1.124649,0.95921 1.828089,1.17758 -0.27622,0.3309 -0.499528,0.7373 -0.912278,0.91898 -0.295633,0.61666 -0.668161,1.19345 -1.151822,1.67993 0.493181,0.44203 1.028351,0.96097 1.07315,1.66441 0.0706,0.52528 -0.149579,1.16452 -0.706969,1.32185 -0.95567,0.24448 -1.956501,0.18486 -2.932991,0.22014 -0.464259,-0.0272 -1.026581,0.0501 -1.386419,-0.30198 -0.343601,-0.49318 -0.41769,-1.1116 -0.57326,-1.67711 1.187098,0.22825 2.276121,-0.39017 3.238148,-1.00718 -0.844909,-0.60395 -1.741318,-1.15005 -2.72415,-1.49366 -0.430749,0.20708 -0.861139,-0.11571 -1.246719,-0.28116 -0.26176,-0.16722 -0.632881,-0.28928 -0.726019,-0.61207 0.12877,-0.51082 0.493188,-0.91087 0.832199,-1.29646 1.64007,0.75353 3.077641,1.88278 4.51521,2.96051 0.36794,-0.65863 0.77611,-1.61748 0.10759,-2.22779 z m -1.263999,4.07211 v 0 c 0.586319,10e-4 1.174049,-0.0339 1.75719,-0.11888 -0.212021,-0.21378 -0.425802,-0.42263 -0.639241,-0.62971 -0.37429,0.2473 -0.748588,0.49459 -1.117949,0.74859" />
    <path
       inkscape:connector-curvature="0"
       id="path5515"
       style="fill:#212129;fill-opacity:1;fill-rule:nonzero;stroke:none;stroke-width:0.03527778"
       d="m 61.337018,154.57703 c 0.494951,-0.40922 0.997662,-0.81103 1.47955,-1.23683 -0.066,1.72861 0.54293,3.39266 0.602551,5.10822 -0.127,0.72778 -0.700622,1.28023 -1.266121,1.70921 0.12876,-1.05693 -0.16193,-2.08986 -0.346779,-3.12103 -0.159102,-0.8195 -0.314679,-1.64006 -0.469201,-2.45957" />
    <path
       inkscape:connector-curvature="0"
       id="path5517"
       style="fill:#212129;fill-opacity:1;fill-rule:nonzero;stroke:none;stroke-width:0.03527778"
       d="m 73.40908,153.98119 c 0.343609,-0.21519 0.69215,-0.42721 1.040688,-0.63923 0.485071,0.21519 0.968732,0.43709 1.450631,0.65864 -0.43039,0.24271 -0.82409,0.58455 -1.294699,0.73554 -0.422632,-0.1203 -0.811392,-0.33408 -1.20791,-0.51259 l -0.0854,0.19156 c 0,-0.19614 0.0021,-0.39194 0.005,-0.58632 l 0.0917,0.1524" />
    <path
       inkscape:connector-curvature="0"
       id="path5519"
       style="fill:#212129;fill-opacity:1;fill-rule:nonzero;stroke:none;stroke-width:0.03527778"
       d="m 70.44363,154.20133 c 0.41275,-0.24413 0.827259,-0.49142 1.241779,-0.73872 0.451199,0.20214 0.905931,0.39829 1.36701,0.5782 -0.0307,0.0737 -0.0917,0.22331 -0.122061,0.29704 -0.342191,0.16545 -0.671689,0.35666 -0.989891,0.56374 -0.507298,-0.21661 -1.006829,-0.44979 -1.496837,-0.70026" />
    <path
       inkscape:connector-curvature="0"
       id="path5521"
       style="fill:#212129;fill-opacity:1;fill-rule:nonzero;stroke:none;stroke-width:0.03527778"
       d="m 115.20618,154.52412 c 0.39829,-0.32738 0.79023,-0.66322 1.17899,-1.00401 0.39052,0.61701 1.06186,0.93169 1.76071,1.06045 -0.28751,0.35313 -0.55421,0.75318 -0.99589,0.92358 0.0737,0.63464 0.11889,1.3028 -0.20567,1.88101 1.69298,-0.52705 3.42618,-0.99942 5.20594,-1.09256 0.69251,-0.0159 1.41358,-0.0159 2.07257,0.23495 0.37254,0.12665 0.68404,0.54751 0.51717,0.94756 -0.36159,0.96062 -1.1938,1.67041 -2.06092,2.16994 -0.99448,0.31821 -2.05952,0.2988 -3.09069,0.35031 -1.78788,0.003 -3.57752,0.0307 -5.36222,-0.0145 -1.20474,-0.0176 -2.4384,-0.74507 -2.83493,-1.91629 1.53247,0.11571 3.22863,0.42897 4.60199,-0.45791 0.22648,-0.49953 -0.0497,-1.04563 -0.12665,-1.5501 -0.16086,-0.53482 -0.11747,-1.21286 -0.6604,-1.53247 z m 1.33633,3.71863 v 0 c 2.17981,0.0674 4.39349,0.13017 6.5412,-0.31468 -0.44803,-0.57679 -1.24813,-0.57679 -1.90853,-0.59937 -1.57868,0.0339 -3.16124,0.33761 -4.63267,0.91405" />
    <path
       inkscape:connector-curvature="0"
       id="path5523"
       style="fill:#212129;fill-opacity:1;fill-rule:nonzero;stroke:none;stroke-width:0.03527778"
       d="m 160.59846,154.77953 c 0.49318,-0.38559 0.9913,-0.76447 1.47461,-1.16452 -0.0596,1.64006 0.54469,3.21275 0.60395,4.84329 -0.12841,0.70661 -0.72919,1.19485 -1.24812,1.63512 0.0131,-0.49495 0.0307,-0.99272 -0.0674,-1.47955 -0.24553,-1.28023 -0.51893,-2.55411 -0.76305,-3.83434" />
    <path
       inkscape:connector-curvature="0"
       id="path5525"
       style="fill:#212129;fill-opacity:1;fill-rule:nonzero;stroke:none;stroke-width:0.03527778"
       d="m 103.55041,154.78129 c 0.49319,-0.38558 0.99131,-0.76482 1.47461,-1.16487 -0.0561,1.64042 0.54786,3.21275 0.60749,4.84329 -0.13194,0.7052 -0.72778,1.19838 -1.25801,1.62701 0.0868,-1.80199 -0.5588,-3.53695 -0.82409,-5.30543" />
    <path
       inkscape:connector-curvature="0"
       id="path5527"
       style="fill:#212129;fill-opacity:1;fill-rule:nonzero;stroke:none;stroke-width:0.03527778"
       d="m 148.43186,154.85502 c 0.41627,-0.2861 0.84843,-0.54927 1.29152,-0.79516 0.55915,0.27164 1.12606,0.52846 1.69156,0.78881 -0.42862,0.25859 -0.85795,0.514 -1.2901,0.76306 -0.56374,-0.25541 -1.13066,-0.50447 -1.69298,-0.75671" />
    <path
       inkscape:connector-curvature="0"
       id="path5529"
       style="fill:#212129;fill-opacity:1;fill-rule:nonzero;stroke:none;stroke-width:0.03527778"
       d="m 46.08503,155.32739 c 0.497768,-0.66357 1.292928,-1.25306 2.16993,-1.06503 1.156758,0.23459 2.196049,1.02482 2.753439,2.0641 0.475541,0.89147 0.318198,1.97591 -0.0836,2.8642 -0.13018,0.26 -0.2667,0.59443 -0.594428,0.63783 -1.466501,0.3757 -2.99262,0.22295 -4.48945,0.25364 -1.34162,-0.0402 -2.761552,0.18486 -4.014611,-0.42404 -0.719671,1.09891 -1.63019,2.24226 -2.97816,2.54776 -1.567741,0.40782 -3.11961,-0.38417 -4.341982,-1.3028 2.28741,0.35983 4.944531,0.0497 6.58459,-1.74943 -0.41134,-0.25682 -0.78563,-0.56691 -1.113358,-0.92357 0.4773,-0.43709 0.978249,-0.8449 1.476369,-1.25624 0.43039,0.52528 0.933101,1.10349 1.65912,1.17263 1.010701,0.0882 2.030579,0.0162 3.045881,0.0385 1.307388,-0.0222 2.639129,0.0931 3.92289,-0.22472 -0.189802,-0.36159 -0.40675,-0.70837 -0.645941,-1.03928 -0.586309,0.40781 -1.265759,0.7179 -1.994961,0.6858 -0.607478,-0.008 -1.36384,-0.0737 -1.709198,-0.65052 -0.290689,-0.55104 0.003,-1.18392 0.353479,-1.62878 z m 0.658278,0.65546 v 0 c 0.719672,0.18804 1.478139,0.23601 2.205572,0.066 -0.651931,-0.40322 -1.604791,-0.74083 -2.205572,-0.066" />
    <path
       inkscape:connector-curvature="0"
       id="path5531"
       style="fill:#212129;fill-opacity:1;fill-rule:nonzero;stroke:none;stroke-width:0.03527778"
       d="m 11.994878,156.01637 c 0.44647,-0.37395 0.89626,-0.7486 1.35089,-1.11795 0.16055,0.87065 0.23604,1.76071 0.46425,2.61831 0.13339,0.52705 0.71646,0.68263 1.19518,0.66499 0.99589,-0.0113 2.01263,0.0773 2.99254,-0.13653 0.29877,-0.25682 0.49968,-0.60713 0.73738,-0.91863 0.29559,0.38876 0.59436,0.85125 1.11319,0.95568 0.88029,0.18485 1.79105,0.0818 2.68263,0.0258 0.90276,-1.82633 3.04888,-3.08575 5.08405,-2.61373 0.74225,0.65863 0.56692,1.76706 0.16863,2.5654 1.50989,0.18626 3.06811,0.21837 4.57024,-0.0512 -0.21837,-0.29915 -0.4692,-0.57044 -0.74542,-0.81456 0.44662,-0.39017 0.8897,-0.78564 1.34444,-1.16769 0.51717,0.57185 0.971902,1.29293 0.91898,2.0962 -0.0677,0.56198 -0.28293,1.11795 -0.637821,1.56316 -0.554209,0.31785 -1.222379,0.32914 -1.843969,0.37253 -1.55646,0.0272 -3.11644,0.0434 -4.67148,-0.0289 -0.58138,-0.0145 -1.12113,-0.24413 -1.63689,-0.48825 -1.35407,0.60219 -2.86082,0.50412 -4.30488,0.54575 -0.51883,-0.006 -1.07954,0.0487 -1.54051,-0.23107 -0.41603,-0.20567 -0.70845,-0.57326 -0.95744,-0.95074 -0.36311,0.34855 -0.64093,0.82727 -1.09707,1.05516 -1.03297,0.15275 -2.09959,0.18133 -3.13559,0.0466 -0.73255,-0.11254 -1.12462,-0.80292 -1.3334,-1.44427 -0.46591,0.4773 -0.92671,1.05551 -1.57095,1.26929 -1.2593798,-0.0642 -2.5926399,-0.19297 -3.6865299,-0.87877 0.50119,-0.61983 0.99109,-1.33632 1.77493,-1.61607 0.9526399,-0.34996 1.9613399,-0.50271 2.9524299,-0.70838 -0.0481,-0.15417 -0.14125,-0.45932 -0.18781,-0.61207 z m 12.13291,1.44745 v 0 c 0.32279,0.16368 0.6424,0.3503 0.99906,0.4385 0.50095,0.042 0.99589,-0.0949 1.48908,-0.17992 -0.14147,-0.30656 -0.34079,-0.62018 -0.69251,-0.70203 -0.63288,-0.14781 -1.24318,0.17498 -1.79563,0.44345 z m -13.53051,0.50447 v 0 c 0.67151,0.20708 1.37332,0.28116 2.07546,0.29069 -0.11247,-0.34714 -0.22338,-0.69251 -0.33419,-1.03788 -0.60565,0.18486 -1.21765,0.381 -1.74127,0.74719" />
    <path
       inkscape:connector-curvature="0"
       id="path5533"
       style="fill:#212129;fill-opacity:1;fill-rule:nonzero;stroke:none;stroke-width:0.03527778"
       d="m 72.181767,156.11762 c 0.448022,-0.33585 0.886532,-0.68439 1.326791,-1.03117 0.17322,0.84172 0.236011,1.70744 0.486481,2.53012 0.1704,0.514 0.779291,0.58949 1.245309,0.57961 1.08267,-0.0159 2.17981,0.0773 3.244501,-0.16863 -0.232841,-0.27481 -0.481899,-0.53163 -0.751771,-0.76764 0.445201,-0.36654 0.88688,-0.74048 1.33808,-1.10208 0.620191,0.6216 1.151821,1.53564 0.829032,2.43523 -0.179912,0.46425 -0.359831,1.10525 -0.93168,1.19521 -1.11161,0.28257 -2.266601,0.17674 -3.40043,0.21519 -0.637821,-0.008 -1.328561,0.0529 -1.899002,-0.28575 -0.42087,-0.24271 -0.594429,-0.72002 -0.788811,-1.13418 -0.463909,0.43039 -0.910518,0.9204 -1.501777,1.17405 -1.281991,-0.0399 -2.629601,-0.17674 -3.765201,-0.8255 0.496358,-0.58138 0.98602,-1.24672 1.734608,-1.51307 0.964142,-0.33902 1.977671,-0.50129 2.97992,-0.68121 -0.0483,-0.20708 -0.0981,-0.41451 -0.14605,-0.62018 z m -1.264359,1.77023 v 0 c 0.0021,0.0385 0.006,0.11572 0.008,0.15417 0.618418,0.18168 1.267179,0.2039 1.90677,0.23953 -0.107601,-0.3309 -0.216961,-0.6604 -0.324562,-0.98954 -0.54292,0.16369 -1.09714,0.31151 -1.590318,0.59584" />
    <path
       inkscape:connector-curvature="0"
       id="path5535"
       style="fill:#212129;fill-opacity:1;fill-rule:nonzero;stroke:none;stroke-width:0.03527778"
       d="m 78.01424,161.46361 c 0.199318,-0.40005 0.771168,-0.5461 1.129239,-0.81739 0.501301,0.21167 1.000829,0.43004 1.50037,0.64876 -0.42087,0.25047 -0.8255,0.52846 -1.26718,0.73731 -0.478721,-0.0963 -0.944739,-0.31468 -1.362429,-0.56868" />
    <path
       inkscape:connector-curvature="0"
       id="path5537"
       style="fill:#212129;fill-opacity:1;fill-rule:nonzero;stroke:none;stroke-width:0.03527778"
       d="m 95.19593,161.42022 c 0.424039,-0.25682 0.848079,-0.514 1.273878,-0.774 0.561981,0.26318 1.12431,0.5267 1.689812,0.7867 -0.411342,0.26352 -0.830442,0.51082 -1.249892,0.75671 -0.576439,-0.24906 -1.151469,-0.49636 -1.713798,-0.76941" />
    <path
       inkscape:connector-curvature="0"
       id="path5539"
       style="fill:#212129;fill-opacity:1;fill-rule:nonzero;stroke:none;stroke-width:0.03527778"
       d="m 15.318428,161.6788 c 0.41437,-0.25047 0.79029,-0.58631 1.24809,-0.75494 0.45459,0.14958 0.89793,0.34854 1.29798,0.61701 0.003,0.0434 0.01,0.13158 0.0112,0.17674 -0.35335,0.23601 -0.72278,0.44626 -1.08271,0.67275 -0.49308,-0.23601 -0.98313,-0.47378 -1.47451,-0.71156" />
    <path
       inkscape:connector-curvature="0"
       id="path5541"
       style="fill:#212129;fill-opacity:1;fill-rule:nonzero;stroke:none;stroke-width:0.03527778"
       d="m 18.221118,161.46361 c 0.355,-0.2473 0.73092,-0.46426 1.09541,-0.69709 0.49318,0.22648 0.9864,0.45614 1.47779,0.6858 -0.4287,0.27305 -0.85602,0.5461 -1.28334,0.81774 -0.43215,-0.19614 -0.87397,-0.3743 -1.27236,-0.63288 -0.005,-0.0434 -0.0128,-0.13018 -0.0175,-0.17357" />
    <path
       inkscape:connector-curvature="0"
       id="path5543"
       style="fill:#212129;fill-opacity:1;fill-rule:nonzero;stroke:none;stroke-width:0.03527778"
       d="m 29.007758,161.67739 c 0.41593,-0.26352 0.83185,-0.52528 1.24954,-0.7874 0.48683,0.21873 0.97861,0.42898 1.4538,0.67804 -0.3549,0.33408 -0.7934,0.55422 -1.19663,0.82092 -0.50588,-0.22966 -1.00718,-0.47061 -1.50671,-0.71156" />
    <path
       inkscape:connector-curvature="0"
       id="path5545"
       style="fill:#212129;fill-opacity:1;fill-rule:nonzero;stroke:none;stroke-width:0.03527778"
       d="m 31.889598,161.47631 c 0.36936,-0.2473 0.75812,-0.46567 1.132421,-0.70838 0.502711,0.22014 1.002239,0.45156 1.500359,0.68263 -0.437089,0.28151 -0.878768,0.55598 -1.32538,0.82091 -0.43674,-0.20708 -0.88336,-0.39511 -1.30105,-0.63747 -0.001,-0.0402 -0.005,-0.11747 -0.006,-0.15769" />
    <path
       inkscape:connector-curvature="0"
       id="path5547"
       style="fill:#212129;fill-opacity:1;fill-rule:nonzero;stroke:none;stroke-width:0.03527778"
       d="m 75.159558,161.507 c 0.40005,-0.25858 0.80822,-0.50447 1.217792,-0.74683 0.470609,0.19897 0.929928,0.42404 1.392769,0.64241 -0.28893,0.3616 -0.763061,0.52846 -1.141941,0.78564 -0.494948,-0.21379 -0.98637,-0.43886 -1.46862,-0.68122" />
    <path
       inkscape:connector-curvature="0"
       id="path5549"
       style="fill:#212129;fill-opacity:1;fill-rule:nonzero;stroke:none;stroke-width:0.03527778"
       d="m 51.694199,167.84395 c 1.307391,-1.35255 3.24308,-1.80869 5.058479,-1.93075 2.11243,-0.11889 4.356452,0.024 6.226169,1.10701 1.127483,0.63924 2.033411,1.81469 2.003071,3.15772 0.0515,1.20967 -0.70026,2.24613 -1.551509,3.02648 0.42721,0.26352 0.889699,0.47237 1.310569,0.74718 0.003,0.0466 0.0113,0.14111 0.01619,0.18944 -0.38558,0.34043 -0.899581,0.50906 -1.28516,0.86078 h -0.223307 c -0.456141,-0.40287 -1.008951,-0.66146 -1.541991,-0.93945 -1.183929,0.35984 -2.41935,0.5461 -3.65796,0.54434 -1.599848,0.002 -3.24485,-0.15734 -4.715928,-0.83044 -0.899581,-0.42898 -1.755781,-1.06504 -2.221802,-1.96779 -0.64734,-1.27071 -0.435319,-2.94605 0.58315,-3.96452 z m 2.80775,0.54786 v 0 c -0.8255,0.67487 -1.05833,1.91982 -0.600421,2.86915 0.38699,0.79339 1.18215,1.30739 1.999541,1.57409 1.163111,0.34996 2.4257,0.36301 3.60468,0.0741 -0.49318,-0.28786 -0.994121,-0.55774 -1.49225,-0.8322 0.525291,-0.31503 1.052341,-0.6283 1.583979,-0.93486 0.557389,0.30656 1.121121,0.60537 1.683451,0.90734 0.83856,-0.81915 1.06998,-2.24225 0.351718,-3.2078 -0.80468,-1.03117 -2.176639,-1.4023 -3.431119,-1.45239 -1.285161,-0.0416 -2.69063,0.13511 -3.699579,1.00259" />
    <path
       inkscape:connector-curvature="0"
       id="path5551"
       style="fill:#212129;fill-opacity:1;fill-rule:nonzero;stroke:none;stroke-width:0.03527778"
       d="m 6.1444081,174.37881 c 1.7574,-2.7051 3.51151,-5.41197 5.2769199,-8.11389 1.19669,0.005 2.39338,0.002 3.59022,0.003 1.73164,2.70193 3.46174,5.40385 5.18858,8.10895 -1.05392,0.008 -2.10756,-0.008 -3.16138,0.0131 -0.37744,-0.53516 -0.72923,-1.08761 -1.08423,-1.63688 -1.86351,0 -3.72512,0 -5.58697,0 -0.347,0.54116 -0.6923298,1.08232 -1.0360098,1.6256 -1.0634401,0.001 -2.1252001,0.001 -3.1871301,0 z m 5.2271799,-3.02331 v 0 c 1.27868,0.002 2.55721,0.002 3.83603,0 -0.6587,-1.04563 -1.32055,-2.08986 -1.98229,-3.13231 -0.62011,1.04245 -1.2386,2.08668 -1.85374,3.13231" />
    <path
       inkscape:connector-curvature="0"
       id="path5553"
       style="fill:#212129;fill-opacity:1;fill-rule:nonzero;stroke:none;stroke-width:0.03527778"
       d="m 20.977618,166.27303 c 3.51635,-0.0145 7.03107,-0.003 10.54721,-0.005 -10e-4,0.46743 -10e-4,0.93522 0,1.40406 -2.4832,0.003 -4.96676,-0.001 -7.45031,0.003 -0.001,0.61031 -0.001,1.22097 0.01,1.83127 2.1844,-0.0145 4.37057,-0.003 6.55532,-0.006 0,0.46567 0,0.92991 0,1.39594 -2.18793,0.001 -4.3755,-0.002 -6.56519,0 0,1.16134 0.002,2.32128 0,3.48263 -1.03124,0.001 -2.062411,0.001 -3.0921,0 -0.003,-2.70193 0.005,-5.40385 -0.005,-8.10578" />
    <path
       inkscape:connector-curvature="0"
       id="path5555"
       style="fill:#212129;fill-opacity:1;fill-rule:nonzero;stroke:none;stroke-width:0.03527778"
       d="m 32.583518,174.36752 c 0.0109,-2.70016 0,-5.40068 0.006,-8.10084 2.700159,0 5.402078,0.003 8.102239,-0.002 1.267542,-0.0289 2.637721,0.0917 3.681949,0.88688 0.65369,0.47237 0.92039,1.47461 0.438502,2.159 -0.461081,0.64417 -1.251302,0.90593 -1.964621,1.15958 0.5461,0.20567 1.18745,0.34219 1.563161,0.82903 0.223308,0.73871 0.11077,1.53881 0.28257,2.29235 0.14782,0.29386 0.491781,0.44944 0.603959,0.77576 -1.172628,0.0289 -2.34668,-0.002 -3.51967,0.0194 -0.589489,-0.69427 -0.335489,-1.61466 -0.44308,-2.43699 -0.09,-0.59761 -0.790231,-0.70838 -1.283409,-0.75001 -1.42663,-0.0547 -2.854682,-0.008 -4.280961,-0.0226 0,1.06643 0,2.13466 0,3.20146 -1.063619,-0.003 -2.12513,0.0127 -3.186989,-0.0113 z m 3.1884,-6.69361 v 0 c -0.003,0.70203 -0.003,1.40547 0.003,2.10891 1.424871,-0.008 2.851499,0.005 4.27778,-0.003 0.68121,0 1.428049,-0.22154 1.850671,-0.79022 0.247298,-0.33726 0.0945,-0.84808 -0.26176,-1.03928 -0.478722,-0.27164 -1.050571,-0.27305 -1.58573,-0.2794 -1.4277,0.005 -2.85609,0.001 -4.284142,0.003" />
    <path
       inkscape:connector-curvature="0"
       id="path5557"
       style="fill:#212129;fill-opacity:1;fill-rule:nonzero;stroke:none;stroke-width:0.03527778"
       d="m 46.423699,166.26809 c 0.983189,-0.001 1.966381,-0.001 2.95098,0 0,2.70369 0,5.40703 0,8.11072 -0.984599,0 -1.967791,0.001 -2.95098,0 -0.0011,-2.70369 -0.0011,-5.40703 0,-8.11072" />
    <path
       inkscape:connector-curvature="0"
       id="path5559"
       style="fill:#212129;fill-opacity:1;fill-rule:nonzero;stroke:none;stroke-width:0.03527778"
       d="m 66.342588,166.26809 c 0.986361,-0.001 1.972731,-0.001 2.96051,0 0,2.70369 0,5.40703 0,8.11072 -0.987779,0.001 -1.974149,0.001 -2.96051,0 -0.0021,-2.70369 -0.0021,-5.40703 0,-8.11072" />
    <path
       inkscape:connector-curvature="0"
       id="path5561"
       style="fill:#212129;fill-opacity:1;fill-rule:nonzero;stroke:none;stroke-width:0.03527778"
       d="m 70.196329,166.27162 c 1.146879,-0.01 2.29376,-0.002 3.44206,-0.005 1.01388,1.15676 2.025999,2.31458 3.03953,3.47133 0.96061,-1.15675 1.91629,-2.31634 2.88008,-3.47133 1.146879,0.006 2.29376,-0.01 3.440639,0.0113 -1.471438,1.6129 -2.98768,3.18523 -4.48628,4.77555 -0.13828,0.1591 -0.323139,0.32279 -0.27975,0.56092 -0.019,0.91687 0.0021,1.83585 0,2.75449 -1.037518,0.0162 -2.073629,0.018 -3.10974,0 -0.003,-0.9204 0.0176,-1.83903 0,-2.75802 0.0353,-0.23142 -0.138279,-0.39194 -0.27481,-0.54292 -1.554689,-1.59491 -3.1115,-3.18876 -4.651729,-4.79637" />
    <path
       inkscape:connector-curvature="0"
       id="path5563"
       style="fill:#212129;fill-opacity:1;fill-rule:nonzero;stroke:none;stroke-width:0.03527778"
       d="m 87.657069,166.27303 c 1.20191,-0.0113 2.404891,-0.005 3.608211,-0.003 1.725078,2.7051 3.461459,5.40208 5.185129,8.10895 -1.06186,10e-4 -2.123371,0 -3.183821,0 -0.353478,-0.53975 -0.70661,-1.0795 -1.053748,-1.62243 -1.861611,-0.0113 -3.723571,0.006 -5.583762,-0.01 -0.361248,0.54469 -0.703439,1.10032 -1.069628,1.64183 -1.05551,-0.0194 -2.110671,-0.003 -3.166181,-0.0113 1.75084,-2.70333 3.51967,-5.39573 5.2638,-8.10401 z m 1.810459,1.95651 v 0 c -0.613478,1.04422 -1.23367,2.0835 -1.848908,3.12772 1.278819,0 2.55905,0 3.839279,0 -0.663221,-1.04245 -1.309161,-2.09797 -1.990371,-3.12772" />
    <path
       inkscape:connector-curvature="0"
       id="path5565"
       style="fill:#212129;fill-opacity:1;fill-rule:nonzero;stroke:none;stroke-width:0.03527778"
       d="m 97.385269,166.26809 c 1.10349,-0.001 2.20698,-0.001 3.312581,0 0,1.01388 -0.002,2.02742 0,3.04095 2.11067,0.002 4.22134,-0.001 6.33341,0.002 0.004,-1.01529 0,-2.02883 0.002,-3.04271 1.10384,-0.001 2.20698,0 3.31082,-0.001 0.006,2.70016 -0.003,5.40209 0.006,8.10225 -1.10701,0.0212 -2.21191,0.007 -3.31716,0.01 -0.003,-1.22097 0.002,-2.44334 -0.002,-3.66431 -2.11384,0.007 -4.22627,-0.01 -6.33694,0.008 0.008,1.21602 -0.002,2.43205 0.006,3.64984 -1.106663,0.0145 -2.211915,0.005 -3.315405,0.006 -0.0021,-2.70369 -0.0021,-5.40703 0,-8.11072" />
    <path
       inkscape:connector-curvature="0"
       id="path5567"
       style="fill:#212129;fill-opacity:1;fill-rule:nonzero;stroke:none;stroke-width:0.03527778"
       d="m 119.84521,168.16533 c 0.50624,-0.002 1.0153,-0.002 1.52612,0.006 0.9271,2.16076 1.87642,4.31165 2.81129,6.46889 -0.52035,0 -1.03929,0 -1.55822,0.001 -0.20885,-0.49283 -0.41452,-0.9846 -0.62019,-1.47602 -0.93309,-0.002 -1.86655,0 -2.79823,-0.002 -0.19615,0.49177 -0.38876,0.98496 -0.58314,1.47779 -0.50765,-10e-4 -1.01353,-10e-4 -1.51977,-10e-4 0.91087,-2.16077 1.82809,-4.31624 2.74214,-6.47524 z m -0.19755,3.90172 v 0 c 0.63147,0.005 1.26612,0.005 1.90041,0.002 -0.31644,-0.78705 -0.63606,-1.57269 -0.95109,-2.35973 -0.33867,0.77752 -0.63465,1.57092 -0.94932,2.35796" />
    <path
       inkscape:connector-curvature="0"
       id="path5569"
       style="fill:#212129;fill-opacity:1;fill-rule:nonzero;stroke:none;stroke-width:0.03527778"
       d="m 124.87477,168.16357 c 0.47378,0 0.94791,0 1.4231,0 0.002,2.159 0.002,4.318 0,6.477 -0.47519,0 -0.95074,0 -1.4231,0.001 -0.002,-2.16041 -0.003,-4.31941 0,-6.47841" />
    <path
       inkscape:connector-curvature="0"
       id="path5571"
       style="fill:#212129;fill-opacity:1;fill-rule:nonzero;stroke:none;stroke-width:0.03527778"
       d="m 127.6536,168.16533 c 1.16487,0.005 2.32762,-0.0131 3.4925,0.006 0.55245,0.0307 1.1564,0.0642 1.6129,0.41769 0.82232,0.61842 0.8897,2.01436 0.0963,2.68252 -0.34078,0.30374 -0.80186,0.40005 -1.22731,0.51717 1.0922,0.65546 1.62878,1.86197 2.36291,2.85151 -0.57045,0 -1.13877,0 -1.7078,0.003 -0.60537,-0.78211 -1.12748,-1.63195 -1.7907,-2.36608 -0.35842,-0.39829 -0.93486,-0.31503 -1.41217,-0.35172 -0.001,0.90593 0,1.8101 -0.001,2.71463 -0.47555,0 -0.95109,0 -1.42522,0 0,-2.159 -0.001,-4.318 0,-6.47524 z m 1.42663,1.10525 v 0 c -0.001,0.54116 -0.001,1.08268 0.001,1.6256 0.78564,-0.0275 1.58891,0.066 2.36467,-0.10124 0.68263,-0.19932 0.64417,-1.33985 -0.0674,-1.46968 -0.75988,-0.11924 -1.53423,-0.0321 -2.2987,-0.0547" />
    <path
       inkscape:connector-curvature="0"
       id="path5573"
       style="fill:#212129;fill-opacity:1;fill-rule:nonzero;stroke:none;stroke-width:0.03527778"
       d="m 133.88647,168.16357 c 0.48825,-0.001 0.97826,0.002 1.46968,0.0113 0.3376,1.46508 0.6925,2.92699 1.04739,4.38855 0.43392,-1.46332 0.84985,-2.93158 1.27565,-4.39632 0.56691,-0.004 1.13418,-0.004 1.70427,-0.002 0.40781,1.48414 0.79833,2.97321 1.22237,4.45453 0.37748,-1.48132 0.71332,-2.97039 1.07456,-4.45453 0.47872,-0.002 0.95921,-0.002 1.44251,0 -0.57185,2.159 -1.14053,4.318 -1.71379,6.47665 -0.50447,-0.001 -1.00895,-0.001 -1.51165,-0.003 -0.46744,-1.59808 -0.91264,-3.20287 -1.39912,-4.7946 -0.4692,1.59808 -0.9204,3.20287 -1.39453,4.79954 -0.51541,-0.003 -1.03117,-0.003 -1.54341,-0.005 -0.55597,-2.159 -1.11971,-4.31623 -1.67393,-6.47523" />
    <path
       inkscape:connector-curvature="0"
       id="path5575"
       style="fill:#212129;fill-opacity:1;fill-rule:nonzero;stroke:none;stroke-width:0.03527778"
       d="m 145.32036,168.16357 c 0.50129,0 1.004,0 1.51024,0 0.94262,2.15759 1.88242,4.318 2.82222,6.477 -0.52529,0.001 -1.0474,0 -1.56951,-0.005 -0.20073,-0.49001 -0.4064,-0.97825 -0.60537,-1.4665 -0.93662,-0.006 -1.87148,-0.006 -2.80493,-0.002 -0.19121,0.49177 -0.38559,0.98178 -0.5782,1.4732 -0.50765,0 -1.0153,0 -1.52118,0 0.91404,-2.159 1.82633,-4.31941 2.74673,-6.477 z m -0.20532,3.90701 v 0 c 0.63288,0 1.26718,0 1.90323,0 -0.32138,-0.79199 -0.64099,-1.58574 -0.96202,-2.37596 -0.31644,0.79199 -0.62971,1.58397 -0.94121,2.37596" />
    <path
       inkscape:connector-curvature="0"
       id="path5577"
       style="fill:#212129;fill-opacity:1;fill-rule:nonzero;stroke:none;stroke-width:0.03527778"
       d="m 148.75641,168.16709 c 0.56233,-0.005 1.12607,-0.005 1.69157,0.006 0.53975,0.84667 1.07139,1.69933 1.64324,2.52342 0.52846,-0.84807 1.06821,-1.68804 1.60302,-2.53329 0.54963,0.002 1.10067,0.002 1.65312,0 -0.86431,1.25624 -1.7332,2.5093 -2.59433,3.76555 0,0.90275 0,1.80692 0.002,2.70968 -0.47554,0 -0.94791,0.003 -1.42028,0.006 -0.0466,-0.92039 0.061,-1.85208 -0.0512,-2.76578 -0.80504,-1.26118 -1.69827,-2.46591 -2.52695,-3.71228" />
    <path
       inkscape:connector-curvature="0"
       id="path5579"
       style="fill:#212129;fill-opacity:1;fill-rule:nonzero;stroke:none;stroke-width:0.03527778"
       d="m 156.63888,168.53328 c 0.91087,-0.59761 2.10255,-0.57044 3.12596,-0.32279 0.83044,0.20567 1.39912,0.96696 1.47285,1.80375 -0.47696,0.024 -0.9525,0.0416 -1.42452,0.0529 -0.21378,-1.03259 -1.53917,-1.1356 -2.30222,-0.68087 -0.33091,0.18627 -0.2473,0.69709 0.0935,0.8255 1.02306,0.49142 2.28388,0.40817 3.1997,1.1423 0.93309,0.76129 0.73236,2.40277 -0.3101,2.97321 -0.96872,0.52705 -2.16358,0.51717 -3.2078,0.2473 -0.92534,-0.24554 -1.52612,-1.12924 -1.60797,-2.05282 0.44839,-0.0402 0.89782,-0.0818 1.34938,-0.12382 0.17498,0.42086 0.34219,0.92851 0.81739,1.09714 0.60748,0.21872 1.40264,0.22824 1.90535,-0.2346 0.31962,-0.27587 0.30198,-0.86572 -0.11571,-1.03611 -1.05692,-0.48507 -2.39501,-0.38382 -3.26108,-1.25448 -0.69039,-0.6731 -0.53305,-1.91629 0.26529,-2.43663" />
  </g>
</svg>
