<?xml version="1.0" encoding="UTF-8" standalone="no"?>
<svg
   xmlns:dc="http://purl.org/dc/elements/1.1/"
   xmlns:cc="http://creativecommons.org/ns#"
   xmlns:rdf="http://www.w3.org/1999/02/22-rdf-syntax-ns#"
   xmlns:svg="http://www.w3.org/2000/svg"
   xmlns="http://www.w3.org/2000/svg"
   xmlns:sodipodi="http://sodipodi.sourceforge.net/DTD/sodipodi-0.dtd"
   xmlns:inkscape="http://www.inkscape.org/namespaces/inkscape"
   inkscape:version="1.0 (4035a4fb49, 2020-05-01)"
   height="51.376419"
   width="386.27588"
   sodipodi:docname="AA.svg"
   id="svg2045"
   version="1.1"
   viewBox="0 0 386.27588 51.376419"
   fill-rule="evenodd"
   clip-rule="evenodd">
  <metadata
     id="metadata2051">
    <rdf:RDF>
      <cc:Work
         rdf:about="">
        <dc:format>image/svg+xml</dc:format>
        <dc:type
           rdf:resource="http://purl.org/dc/dcmitype/StillImage" />
        <dc:title></dc:title>
      </cc:Work>
    </rdf:RDF>
  </metadata>
  <defs
     id="defs2049">
    <clipPath
       id="clipPath2055"
       clipPathUnits="userSpaceOnUse">
      <rect
         y="182.87975"
         x="33.323742"
         height="51.47678"
         width="386.27588"
         id="rect2057"
         style="fill:#0000ff;fill-rule:evenodd" />
    </clipPath>
    <clipPath
       id="clipPath2059"
       clipPathUnits="userSpaceOnUse">
      <rect
         y="182.87975"
         x="33.323742"
         height="51.47678"
         width="386.27588"
         id="rect2061"
         style="fill:#0000ff;fill-rule:evenodd" />
    </clipPath>
    <clipPath
       id="clipPath2063"
       clipPathUnits="userSpaceOnUse">
      <rect
         y="182.87975"
         x="33.323742"
         height="51.47678"
         width="386.27588"
         id="rect2065"
         style="fill:#0000ff;fill-rule:evenodd" />
    </clipPath>
    <clipPath
       id="clipPath2067"
       clipPathUnits="userSpaceOnUse">
      <rect
         y="182.87975"
         x="33.323742"
         height="51.47678"
         width="386.27588"
         id="rect2069"
         style="fill:#0000ff;fill-rule:evenodd" />
    </clipPath>
    <clipPath
       id="clipPath2071"
       clipPathUnits="userSpaceOnUse">
      <rect
         y="182.87975"
         x="33.323742"
         height="51.47678"
         width="386.27588"
         id="rect2073"
         style="fill:#0000ff;fill-rule:evenodd" />
    </clipPath>
  </defs>
  <sodipodi:namedview
     inkscape:current-layer="svg2045"
     inkscape:window-maximized="1"
     inkscape:window-y="-8"
     inkscape:window-x="-8"
     inkscape:cy="17.12025"
     inkscape:cx="246.67626"
     inkscape:zoom="1.8732143"
     fit-margin-bottom="0"
     fit-margin-right="0"
     fit-margin-left="0"
     fit-margin-top="0"
     showgrid="false"
     id="namedview2047"
     inkscape:window-height="1027"
     inkscape:window-width="1920"
     inkscape:pageshadow="2"
     inkscape:pageopacity="0"
     guidetolerance="10"
     gridtolerance="10"
     objecttolerance="10"
     borderopacity="1"
     bordercolor="#666666"
     pagecolor="#ffffff" />
  <linearGradient
     x2="1"
     gradientUnits="userSpaceOnUse"
     gradientTransform="matrix(0,167.60738,-169.98137,0,113.13062,494.17982)"
     id="a">
    <stop
       id="stop1963"
       stop-color="#eb2023"
       offset="0" />
    <stop
       id="stop1965"
       stop-color="#e92026"
       offset=".1" />
    <stop
       id="stop1967"
       stop-color="#e31e27"
       offset=".2" />
    <stop
       id="stop1969"
       stop-color="#e01e26"
       offset=".3" />
    <stop
       id="stop1971"
       stop-color="#d81f27"
       offset=".4" />
    <stop
       id="stop1973"
       stop-color="#cf2027"
       offset=".5" />
    <stop
       id="stop1975"
       stop-color="#c62127"
       offset=".6" />
    <stop
       id="stop1977"
       stop-color="#b92025"
       offset=".7" />
    <stop
       id="stop1979"
       stop-color="#ae1f23"
       offset=".8" />
    <stop
       id="stop1981"
       stop-color="#a01d22"
       offset=".9" />
    <stop
       id="stop1983"
       stop-color="#901c1c"
       offset="1" />
  </linearGradient>
  <linearGradient
     x2="1"
     gradientUnits="userSpaceOnUse"
     gradientTransform="matrix(94.446442,-59.639716,60.484451,93.127388,117.84559,551.1307)"
     id="b">
    <stop
       id="stop1986"
       stop-color="#6c221f"
       offset="0" />
    <stop
       id="stop1988"
       stop-color="#7f2620"
       offset=".25" />
    <stop
       id="stop1990"
       stop-color="#982b24"
       offset=".5" />
    <stop
       id="stop1992"
       stop-color="#b53125"
       offset=".75" />
    <stop
       id="stop1994"
       stop-color="#cb3327"
       offset="1" />
  </linearGradient>
  <linearGradient
     x2="1"
     gradientUnits="userSpaceOnUse"
     gradientTransform="matrix(138.36277,-78.934623,80.05265,136.43037,110.43189,535.0664)"
     id="c">
    <stop
       id="stop1997"
       stop-color="#e7ebee"
       offset="0" />
    <stop
       id="stop1999"
       stop-color="#dfe4e8"
       offset=".25" />
    <stop
       id="stop2001"
       stop-color="#cad1d7"
       offset=".5" />
    <stop
       id="stop2003"
       stop-color="#a8b5bd"
       offset=".75" />
    <stop
       id="stop2005"
       stop-color="#93a6ad"
       offset="1" />
  </linearGradient>
  <linearGradient
     x2="1"
     gradientUnits="userSpaceOnUse"
     gradientTransform="matrix(0,161.91947,-164.21289,0,31.961067,257.72324)"
     id="d">
    <stop
       id="stop2008"
       stop-color="#05aee9"
       offset="0" />
    <stop
       id="stop2010"
       stop-color="#00a9e0"
       offset=".1" />
    <stop
       id="stop2012"
       stop-color="#07a3dc"
       offset=".2" />
    <stop
       id="stop2014"
       stop-color="#089dd5"
       offset=".3" />
    <stop
       id="stop2016"
       stop-color="#0a92cc"
       offset=".4" />
    <stop
       id="stop2018"
       stop-color="#0f87c3"
       offset=".5" />
    <stop
       id="stop2020"
       stop-color="#127cb8"
       offset=".6" />
    <stop
       id="stop2022"
       stop-color="#0e70ad"
       offset=".7" />
    <stop
       id="stop2024"
       stop-color="#0f63a3"
       offset=".8" />
    <stop
       id="stop2026"
       stop-color="#135393"
       offset=".9" />
    <stop
       id="stop2028"
       stop-color="#184485"
       offset="1" />
  </linearGradient>
  <path
     transform="translate(-33.323742,-182.87975)"
     clip-path="url(#clipPath2071)"
     style="fill:url(#a);stroke-width:0.777212"
     id="path2031"
     fill="url(#a)"
     d="m 56.424252,220.1838 5.982151,9.80142 c 1.854208,2.93734 4.909073,4.27095 8.715327,4.27095 h 15.389382 l -18.016895,-21.5284 -2.556287,-1.43548 -6.74528,2.1702 -3.418036,4.87679 0.648855,1.84375 z" />
  <path
     transform="translate(-33.323742,-182.87975)"
     clip-path="url(#clipPath2067)"
     style="fill:url(#b);stroke-width:0.777212"
     id="path2033"
     fill="url(#b)"
     d="m 68.495,212.72777 -3.760858,-4.49553 -9.94103,5.27193 1.054292,5.32132 0.577631,1.35754 c -0.2262,-3.60646 6.054158,-7.79406 12.069965,-7.45603 z" />
  <path
     transform="translate(-33.323742,-182.87975)"
     clip-path="url(#clipPath2063)"
     style="fill:url(#c);stroke-width:0.777212"
     id="path2035"
     fill="url(#c)"
     d="M 56.424252,220.1838 51.04556,211.415 c -0.648073,-0.9948 -0.825745,-1.86536 -0.825745,-2.87946 0,-1.1152 0.482141,-1.72721 2.334002,-2.69577 2.157112,-1.01873 6.501078,-1.46173 10.978886,-1.46173 7.275948,0 9.019797,2.30218 9.762576,4.78726 0,0 -1.026898,-0.40286 -3.443866,-0.40286 -7.664948,0 -13.791898,3.66898 -13.791898,9.22414 0,1.16537 0.363954,2.19645 0.363954,2.19645 z" />
  <path
     transform="translate(-33.323742,-182.87975)"
     clip-path="url(#clipPath2059)"
     style="fill:url(#d);stroke-width:0.777212"
     id="path2037"
     fill="url(#d)"
     d="m 33.323742,182.87975 h 7.234466 c 3.050951,0 4.302483,1.23096 5.536796,2.438 1.412767,1.26647 5.697249,6.98371 14.754615,18.14344 h -9.802493 c -4.00819,0 -5.276159,-0.67298 -6.826681,-3.00449 l -10.89592,-17.57695 z" />
  <g
     transform="translate(-33.323742,-182.87975)"
     clip-path="url(#clipPath2055)"
     id="g2043"
     fill="#334357">
    <path
       id="path2039"
       d="m 497.618,230.392 0.672,2.413 h 0.012 l 0.682,-2.413 h 0.571 l 0.442,3.021 h -0.457 l -0.314,-2.465 h -0.01 l -0.705,2.465 h -0.489 l -0.685,-2.455 h -0.007 l -0.314,2.455 h -0.435 l 0.44,-3.021 h 0.596 z m -1.421,0 v 0.388 h -0.89 v 2.633 h -0.44 v -2.633 h -0.89 v -0.388 z" />
    <path
       id="path2041"
       d="m 278.46,193.375 h -0.104 l -5.28,14.926 h 10.677 z m 9.45,26.685 -2.586,-7.332 h -13.823 l -2.591,7.332 h -5.901 l 12.382,-32.635 h 6.576 l 12.192,32.635 z m 50.085,-33.943 h 5.772 v 5.456 h -5.772 z m 0.064,9.085 h 5.641 v 24.858 h -5.641 z m -41.653,-9.087 h 5.775 v 5.458 h -5.775 z m 0.067,9.087 h 5.641 v 24.858 h -5.641 z m 35.429,-9.055 h -5.641 v 33.913 h 5.641 z m -17.981,21.791 v 12.123 h -5.658 V 201.59 c 0,-1.775 -0.203,-5.154 -0.272,-6.383 h 4.556 c 0.492,0 0.633,0.208 0.648,0.692 0.01,0.734 0.049,3.08 0.049,3.08 h 0.129 c 0.445,-1.075 2.049,-4.294 6.736,-4.294 1.57,0 2.732,0.507 2.922,0.583 0,1.07 -0.111,3.419 -0.168,4.039 -0.035,0.408 -0.213,0.541 -0.415,0.541 -0.193,0 -0.282,-0.044 -0.388,-0.087 -0.351,-0.148 -1.172,-0.398 -2.311,-0.398 -3.011,0 -5.827,2.173 -5.827,8.573 m 51.378,12.123 v -16.053 c 0,-3.065 -1.399,-4.934 -4.024,-4.934 -3.471,0 -5.775,3.693 -5.775,8.677 v 12.311 h -5.644 v -18.261 c 0,-2.01 -0.183,-4.939 -0.277,-6.593 h 4.534 c 0.512,0 0.658,0.21 0.662,0.67 0.015,0.531 0.059,3.102 0.059,3.102 h 0.129 c 0.68,-1.169 2.418,-4.296 7.619,-4.296 5.362,0 8.358,3.666 8.358,7.782 V 220.06 H 365.3 Z m 15.613,-14.983 h 10.442 c 0.215,-4.007 -1.889,-6.252 -5.063,-6.252 -3.322,0 -5.228,2.403 -5.379,6.252 m 13.92,9.525 c 0.314,0 0.405,0.274 0.43,0.556 0.096,1.06 0.188,3.458 0.173,4.069 -0.603,0.193 -3.636,1.308 -7.71,1.308 -7.913,0 -12.674,-4.094 -12.674,-12.906 0,-7.567 4.059,-12.943 11.356,-12.943 7.164,0 10.57,4.791 10.57,10.738 0,0.7 -0.077,1.881 -0.2,3.451 h -15.937 c 0,4.244 2.704,7.29 7.703,7.29 2.754,0 4.944,-0.986 5.814,-1.407 0.173,-0.084 0.274,-0.156 0.475,-0.156 m 13.215,5.933 c 7.344,0 10.859,-3.003 10.859,-7.468 0,-4.395 -3.122,-6.244 -6.43,-7.337 -0.949,-0.307 -1.879,-0.618 -2.746,-0.91 -2.264,-0.749 -3.439,-1.733 -3.439,-3.201 0,-1.55 1.414,-2.635 4.351,-2.635 2.61,0 4.744,1.065 5.589,1.473 0.141,0.064 0.267,0.156 0.492,0.156 0.178,0 0.398,-0.111 0.428,-0.551 0.057,-0.833 0.156,-2.343 0.156,-3.795 -0.685,-0.314 -3.154,-1.582 -7.127,-1.582 -6.069,0 -9.799,3.157 -9.799,7.322 0,4.039 2.761,5.883 5.799,6.889 l 2.756,0.92 c 3.172,1.053 4.076,2.01 4.076,3.493 0,1.936 -2.062,2.892 -5.609,2.892 -2.91,0 -4.909,-1.068 -5.713,-1.444 -0.163,-0.072 -0.26,-0.156 -0.485,-0.156 -0.418,0 -0.425,0.556 -0.43,0.648 -0.017,0.267 -0.151,2.843 -0.151,3.701 0.665,0.287 3.547,1.585 7.421,1.585 M 75.458,193.374 H 75.354 L 70.071,208.3 H 80.74 l -5.283,-14.926 z m 9.448,26.685 -2.588,-7.332 H 68.495 l -2.588,7.332 h -5.898 l 12.382,-32.638 h 6.571 l 12.192,32.638 h -6.247 z m 92.203,-33.946 h 5.77 v 5.456 h -5.77 z m 0.067,9.087 h 5.636 v 24.858 h -5.636 z m -12.113,12.736 v 12.123 h -5.649 v -18.471 c 0,-1.777 -0.203,-5.157 -0.277,-6.388 h 4.558 c 0.492,0 0.638,0.213 0.64,0.695 l 0.059,3.083 h 0.126 c 0.447,-1.075 2.047,-4.294 6.736,-4.294 1.565,0 2.737,0.504 2.929,0.581 0,1.07 -0.116,3.419 -0.171,4.042 -0.037,0.405 -0.218,0.536 -0.418,0.536 -0.19,0 -0.287,-0.04 -0.391,-0.082 -0.356,-0.151 -1.174,-0.4 -2.304,-0.4 -3.013,0 -5.841,2.175 -5.841,8.575 m -41.671,12.123 v -15.905 c 0,-2.865 -1.211,-5.087 -4.136,-5.087 -3.293,0 -5.191,3.604 -5.191,8.652 v 12.34 h -5.639 v -15.954 c 0,-2.605 -1.088,-5.038 -4.113,-5.038 -3.34,0 -5.209,3.597 -5.209,8.83 v 12.162 H 93.45 v -18.105 c 0,-2.339 -0.208,-5.646 -0.274,-6.754 h 4.516 c 0.509,0 0.677,0.168 0.687,0.695 l 0.052,3.083 h 0.129 c 0.344,-0.709 2.2,-4.296 7.381,-4.296 4.828,0 6.674,3.463 7.132,4.531 0.445,-0.939 2.588,-4.531 7.451,-4.531 5.058,0 8.509,2.714 8.509,8.167 v 17.21 z m 15.608,-14.988 h 10.444 c 0.215,-4 -1.881,-6.249 -5.063,-6.249 -3.322,0 -5.223,2.405 -5.382,6.249 m 13.927,9.53 c 0.309,0 0.403,0.274 0.428,0.556 0.096,1.06 0.188,3.461 0.173,4.069 -0.601,0.193 -3.634,1.308 -7.708,1.308 -7.915,0 -12.676,-4.099 -12.676,-12.911 0,-7.557 4.057,-12.938 11.361,-12.938 7.156,0 10.57,4.788 10.57,10.738 0,0.7 -0.079,1.881 -0.205,3.446 h -15.937 c 0,4.249 2.707,7.295 7.698,7.295 2.756,0 4.951,-0.986 5.819,-1.412 0.173,-0.084 0.272,-0.151 0.477,-0.151 m 70.778,-7.154 h -0.959 c -7.09,0 -8.484,2.465 -8.484,4.969 0,2.047 1.35,3.985 4,3.985 3.52,0 5.443,-3.399 5.443,-6.976 z m 1.36,12.612 c -0.455,0 -0.833,-0.151 -0.883,-0.811 -0.054,-0.811 -0.166,-2.381 -0.166,-2.381 h -0.077 c -0.334,0.457 -2.39,3.666 -7.554,3.666 -4.946,0 -7.784,-3.812 -7.784,-7.997 0,-5.802 5.634,-8.716 13.992,-8.716 h 1.112 v -0.912 c 0,-2.603 -1.852,-3.997 -5.312,-3.997 -3.115,0 -5.7,1.093 -6.707,1.604 -0.067,0.032 -0.25,0.138 -0.418,0.138 -0.267,0 -0.418,-0.166 -0.433,-0.46 -0.044,-0.934 -0.141,-2.732 -0.156,-3.871 1.018,-0.388 4.395,-1.641 8.111,-1.641 7.386,0 10.558,3.429 10.558,8.904 v 9.693 c 0,3.535 0.329,5.849 0.445,6.781 h -4.729 z m -19.502,-5.458 c 0.148,0 0.358,0.099 0.408,0.534 0.109,1.184 0.153,3.122 0.158,3.73 -1.127,0.556 -3.57,1.669 -6.566,1.669 -7.53,0 -12.147,-4.37 -12.147,-12.921 0,-8.012 4.106,-12.929 12.147,-12.929 2.667,0 5.122,0.929 6.566,1.671 0,0.885 -0.087,2.89 -0.158,3.733 -0.035,0.353 -0.205,0.524 -0.408,0.524 -0.225,0 -0.302,-0.059 -0.435,-0.119 -1.817,-0.89 -3.525,-1.32 -5.063,-1.32 -4.793,0 -6.766,3.137 -6.766,8.439 0,4.726 1.577,8.432 6.766,8.432 1.983,0 3.79,-0.707 4.909,-1.246 0.302,-0.141 0.353,-0.198 0.588,-0.198 m 44.113,5.458 v -16.053 c 0,-3.068 -1.399,-4.937 -4.019,-4.937 -3.473,0 -5.782,3.691 -5.782,8.679 v 12.311 h -5.639 v -18.261 c 0,-2.01 -0.183,-4.939 -0.272,-6.598 h 4.526 c 0.517,0 0.665,0.215 0.667,0.675 0.012,0.527 0.054,3.102 0.054,3.102 h 0.124 c 0.687,-1.172 2.423,-4.299 7.624,-4.299 5.369,0 8.365,3.668 8.365,7.779 v 17.601 h -5.649 z" />
  </g>
</svg>
