<?xml version="1.0" encoding="UTF-8" standalone="no"?>
<svg
   xmlns:dc="http://purl.org/dc/elements/1.1/"
   xmlns:cc="http://creativecommons.org/ns#"
   xmlns:rdf="http://www.w3.org/1999/02/22-rdf-syntax-ns#"
   xmlns:svg="http://www.w3.org/2000/svg"
   xmlns="http://www.w3.org/2000/svg"
   xmlns:sodipodi="http://sodipodi.sourceforge.net/DTD/sodipodi-0.dtd"
   xmlns:inkscape="http://www.inkscape.org/namespaces/inkscape"
   sodipodi:docname="AD_AZU.svg"
   inkscape:version="1.0 (4035a4fb49, 2020-05-01)"
   version="1.1"
   id="svg6363"
   viewBox="0 0 120.99999 33.000999"
   height="33.000999"
   width="120.99999">
  <defs
     id="defs6365" />
  <sodipodi:namedview
     inkscape:document-rotation="0"
     inkscape:window-maximized="1"
     inkscape:window-y="-8"
     inkscape:window-x="-8"
     inkscape:window-height="1027"
     inkscape:window-width="1920"
     units="px"
     fit-margin-bottom="0"
     fit-margin-right="0"
     fit-margin-left="0"
     fit-margin-top="0"
     showgrid="false"
     inkscape:current-layer="layer1"
     inkscape:document-units="px"
     inkscape:cy="21.90346"
     inkscape:cx="99.882605"
     inkscape:zoom="3.7708333"
     inkscape:pageshadow="2"
     inkscape:pageopacity="0.0"
     borderopacity="1.0"
     bordercolor="#666666"
     pagecolor="#ffffff"
     id="base" />
  <metadata
     id="metadata6368">
    <rdf:RDF>
      <cc:Work
         rdf:about="">
        <dc:format>image/svg+xml</dc:format>
        <dc:type
           rdf:resource="http://purl.org/dc/dcmitype/StillImage" />
        <dc:title></dc:title>
      </cc:Work>
    </rdf:RDF>
  </metadata>
  <g
     transform="translate(-537.14286,-592.50456)"
     id="layer1"
     inkscape:groupmode="layer"
     inkscape:label="Layer 1">
    <path
       style="fill:#8cd0e0"
       inkscape:connector-curvature="0"
       d="m 607.94986,603.72456 -6.78,0 0,11.08 c 0,3.667 -2.233,4.624 -3.71,4.624 -2.152,0 -3.35,-0.957 -3.35,-3.708 l 0,-11.996 -6.78,0 0,12.434 c 0,5.42 1.716,8.847 7.66,8.847 2.39,0 5.024,-1.313 6.3,-3.424 l 0.08,0 0,2.83 6.58,0 0,-20.687 z"
       id="path4297" />
    <path
       style="fill:#002e5f;fill-opacity:1"
       inkscape:connector-curvature="0"
       d="m 609.54286,624.40656 6.78,0 0,-28.452 -6.78,0 0,28.45 z m -42.59,0 19.7,0 0,-5.18 -11.084,0 10.33,-10.362 0,-5.14 -18.11,0 0,5.18 9.49,0 -10.323,10.243 0,5.26 z m -29.31,0 7.617,0 1.794,-5.1 9.933,0 1.754,5.1 7.737,0 -10.65,-28.45 -7.535,0 -10.65,28.448 z m 14.356,-20.562 0.08,0 3.15,9.963 -6.46,0 3.23,-9.963 z"
       id="path4299" />
    <path
       style="fill:#5061aa"
       inkscape:connector-curvature="0"
       d="m 645.73786,595.96456 1.854,0 0,1.46 -1.856,0 z"
       id="path4301" />
    <path
       style="fill:#8b328a"
       inkscape:connector-curvature="0"
       d="m 638.90286,611.61056 5.675,0 0,6.05 -5.675,0 z"
       id="path4303" />
    <path
       style="fill:#5d80c0"
       inkscape:connector-curvature="0"
       d="m 642.63486,618.95456 3.73,0 0,2.26 -3.73,0 z"
       id="path4305" />
    <path
       style="fill:#e94e29"
       inkscape:connector-curvature="0"
       d="m 640.42286,620.01056 4.483,0 0,4.438 -4.482,0 z"
       id="path4307" />
    <path
       style="fill:#d5262a"
       inkscape:connector-curvature="0"
       d="m 645.97586,615.98156 3.838,0 0,1.68 -3.836,0 z"
       id="path4309" />
    <path
       style="fill:#f6a022"
       inkscape:connector-curvature="0"
       d="m 644.57286,612.92256 3.935,0 0,0.995 -3.935,0 z"
       id="path4311" />
    <path
       style="fill:#6a95cd"
       inkscape:connector-curvature="0"
       d="m 649.80886,615.98156 2.75,0 0,0.757 -2.75,0 z"
       id="path4313" />
    <path
       style="fill:#306fb6"
       inkscape:connector-curvature="0"
       d="m 644.57286,608.10456 3.76,0 0,4.82 -3.76,0 z"
       id="path4315" />
    <path
       style="fill:#73c8dd"
       inkscape:connector-curvature="0"
       d="m 637.22886,604.40856 7.35,0 0,7.203 -7.35,0 z"
       id="path4317" />
    <path
       style="fill:#92c143"
       inkscape:connector-curvature="0"
       d="m 632.95286,604.41056 4.908,0 0,3.984 -4.908,0 z"
       id="path4319" />
    <path
       style="fill:#5061aa"
       inkscape:connector-curvature="0"
       d="m 639.32086,597.66456 8.316,0 0,6.797 -8.316,0 z"
       id="path4321" />
    <path
       style="fill:#169bd6"
       inkscape:connector-curvature="0"
       d="m 648.32586,605.29056 6.06,0 0,7.397 -6.06,0 z"
       id="path4323" />
    <path
       style="fill:#f6a022"
       inkscape:connector-curvature="0"
       d="m 647.37286,609.50056 5.187,0 0,6.5 -5.188,0 z"
       id="path4325" />
    <path
       style="fill:#d5262a"
       inkscape:connector-curvature="0"
       d="m 644.57286,613.90256 3.838,0 0,3.753 -3.838,0 z"
       id="path4327" />
    <path
       style="fill:#199aa6"
       inkscape:connector-curvature="0"
       d="m 642.32986,616.25956 4.952,0 0,2.72 -4.954,0 z"
       id="path4329" />
    <path
       style="fill:#a5bfdf"
       inkscape:connector-curvature="0"
       d="m 652.55286,612.02856 1.06,0 0,3.257 -1.06,0 z"
       id="path4331" />
    <path
       style="fill:#3fb7af"
       inkscape:connector-curvature="0"
       d="m 654.38286,605.06156 2.773,0 0,1.714 -2.772,0 z"
       id="path4333" />
    <path
       style="fill:#ae2258"
       inkscape:connector-curvature="0"
       d="m 654.12586,606.77456 2,0 0,1.115 -2,0 z"
       id="path4335" />
    <path
       style="fill:#79c199"
       inkscape:connector-curvature="0"
       d="m 644.57286,601.51956 3.76,0 0,6.594 -3.76,0 z"
       id="path4337" />
    <path
       style="fill:#e5df1f"
       inkscape:connector-curvature="0"
       d="m 648.32586,598.86456 5.058,0 0,6.425 -5.056,0 z"
       id="path4339" />
    <path
       style="fill:#33bacf"
       inkscape:connector-curvature="0"
       d="m 647.63086,597.66456 3.687,0 0,6.024 -3.687,0 z"
       id="path4341" />
    <path
       style="fill:#6ca9db"
       inkscape:connector-curvature="0"
       d="m 652.61286,603.52156 5.03,0 0,1.77 -5.03,0 z"
       id="path4343" />
    <path
       style="fill:#de5097"
       inkscape:connector-curvature="0"
       d="m 653.38886,599.64156 2.402,0 0,3.882 -2.402,0 z"
       id="path4345" />
    <path
       style="fill:#604596"
       inkscape:connector-curvature="0"
       d="m 655.06986,600.86256 2.228,0 0,1.628 -2.228,0 z"
       id="path4347" />
    <path
       style="fill:#fad803"
       inkscape:connector-curvature="0"
       d="m 654.49786,602.49156 3.145,0 0,1.627 -3.145,0 z"
       id="path4349" />
    <path
       style="fill:#5061aa"
       inkscape:connector-curvature="0"
       d="m 645.72286,595.89456 1.89,0 0,1.53 -1.89,0 z m -6.402,0.047 3.43,0 0,3.803 -3.43,0 z"
       id="path4351" />
    <path
       style="fill:#0bb8e7"
       inkscape:connector-curvature="0"
       d="m 628.72586,595.94156 10.61,0 0,8.52 -10.61,0 z"
       id="path4353" />
    <path
       style="fill:#41ad4c"
       inkscape:connector-curvature="0"
       d="m 634.16786,593.00456 3.692,0 0,4.805 -3.692,0 z"
       id="path4355" />
    <path
       style="fill:#e7b720"
       inkscape:connector-curvature="0"
       d="m 626.49286,603.73456 6.85,0 0,2.67 -6.85,0 z"
       id="path4357" />
    <path
       style="fill:#b9cf37"
       inkscape:connector-curvature="0"
       d="m 642.74286,593.44056 2.66,0 0,4.224 -2.66,0 z"
       id="path4359" />
    <path
       style="fill:#92c143"
       inkscape:connector-curvature="0"
       d="m 646.29486,609.50056 1.077,0 0,1.074 -1.08,0 z"
       id="path4361" />
  </g>
</svg>
