<?xml version="1.0" encoding="UTF-8" standalone="no"?>
<svg
   xmlns:dc="http://purl.org/dc/elements/1.1/"
   xmlns:cc="http://creativecommons.org/ns#"
   xmlns:rdf="http://www.w3.org/1999/02/22-rdf-syntax-ns#"
   xmlns:svg="http://www.w3.org/2000/svg"
   xmlns="http://www.w3.org/2000/svg"
   xmlns:sodipodi="http://sodipodi.sourceforge.net/DTD/sodipodi-0.dtd"
   xmlns:inkscape="http://www.inkscape.org/namespaces/inkscape"
   inkscape:version="1.0 (4035a4fb49, 2020-05-01)"
   height="55.565411"
   width="430.39084"
   sodipodi:docname="AF.svg"
   id="svg263"
   version="1.1"
   viewBox="0 0 430.39084 55.565411"
   fill-rule="evenodd"
   clip-rule="evenodd">
  <metadata
     id="metadata269">
    <rdf:RDF>
      <cc:Work
         rdf:about="">
        <dc:format>image/svg+xml</dc:format>
        <dc:type
           rdf:resource="http://purl.org/dc/dcmitype/StillImage" />
        <dc:title></dc:title>
      </cc:Work>
    </rdf:RDF>
  </metadata>
  <defs
     id="defs267" />
  <sodipodi:namedview
     inkscape:current-layer="svg263"
     inkscape:window-maximized="1"
     inkscape:window-y="-8"
     inkscape:window-x="-8"
     inkscape:cy="-71.900199"
     inkscape:cx="160"
     inkscape:zoom="1.8732143"
     fit-margin-bottom="0"
     fit-margin-right="0"
     fit-margin-left="0"
     fit-margin-top="0"
     showgrid="false"
     id="namedview265"
     inkscape:window-height="1027"
     inkscape:window-width="1920"
     inkscape:pageshadow="2"
     inkscape:pageopacity="0"
     guidetolerance="10"
     gridtolerance="10"
     objecttolerance="10"
     borderopacity="1"
     bordercolor="#666666"
     pagecolor="#ffffff" />
  <linearGradient
     x2="1"
     gradientUnits="userSpaceOnUse"
     gradientTransform="matrix(0,50.473268,-33.833,0,294.76585,-269.66961)"
     id="a">
    <stop
       id="stop242"
       stop-color="#ff1e27"
       offset="0" />
    <stop
       id="stop244"
       stop-color="#ff1e27"
       offset=".34" />
    <stop
       id="stop246"
       stop-color="#e81b23"
       offset=".69" />
    <stop
       id="stop248"
       stop-color="#a61319"
       offset=".78" />
    <stop
       id="stop250"
       stop-color="#9d1218"
       offset=".87" />
    <stop
       id="stop252"
       stop-color="#931116"
       offset=".96" />
    <stop
       id="stop254"
       stop-color="#800f14"
       offset="1" />
  </linearGradient>
  <path
     style="stroke-width:1.2214"
     id="path257"
     fill="#ed1c24"
     d="m 406.82785,0.002 -19.763,42.65904 c -2.602,5.61079 -6.825,11.01571 -11.922,11.59603 v 1.30834 h 21.981 c 5.835,0 10.091,-5.66748 12.974,-11.9108 L 430.39085,0.002 h -23.563 V 0 Z" />
  <path
     style="fill:url(#a);stroke-width:1.2214"
     id="path259"
     fill="url(#a)"
     d="m 396.45385,0.002 -19.763,42.65307 c -2.602,5.61676 -6.825,11.02168 -11.922,11.602 v 1.30834 h 21.981 c 5.835,0 10.091,-5.66748 12.974,-11.9108 L 420.01685,0.002 Z" />
  <path
     id="path261"
     fill="#002157"
     d="m 52.454,42.05012 v -34.103 h 9.955 v 34.103 z m 229.49,0 -23.91,-20.251 v 20.251 h -8.404 v -34.103 h 7.139 l 23.593,19.933 v -19.933 h 8.404 v 34.103 z m 52,-23.1 c -4.499,-2.214 -9.562,-4.007 -16.277,-4.007 -8.018,0 -13.996,4.147 -13.996,9.913 0,5.912 6.083,10.092 13.924,10.092 6.47,0 11.605,-1.654 16.668,-4.571 v 8.439 c -4.47,2.217 -10.41,3.866 -17.088,3.866 -13.644,0 -24.368,-6.962 -24.368,-17.825 0,-10.689 10.936,-17.546 24.334,-17.546 6.326,0 12.059,1.196 16.804,3.13 v 8.509 z m -216.159,23.1 v -34.103 h 33.259 v 7.31 h -23.313 v 8.477 h 22.787 v 7.314 h -22.787 v 11.002 z m 222.172,0 v -34.103 h 34.527 v 7.31 h -24.576 v 5.911 h 24.186 v 7.311 h -24.186 v 6.257 h 24.47 v 7.315 h -34.421 z m -154.352,-12.795 13.751,12.795 h -10.621 c -2.354,0 -3.901,-0.738 -5.134,-1.933 l -9.35,-9.069 c -0.178,-0.178 -0.458,-0.28 -0.809,-0.28 h -6.364 v 11.282 h -9.952 v -34.103 h 21.557 c 11.176,0 15.892,5.024 15.892,10.584 -0.002,6.465 -5.769,9.56 -8.97,10.724 z m -7.946,-5.628 c 3.939,0 5.839,-2.006 5.839,-4.253 0,-2.251 -1.688,-4.117 -5.839,-4.117 h -10.583 v 8.37 z m -77.453,5.628 13.745,12.795 h -10.617 c -2.358,0 -3.905,-0.738 -5.134,-1.933 l -9.354,-9.069 c -0.173,-0.178 -0.458,-0.28 -0.809,-0.28 h -6.36 v 11.282 h -9.955 v -34.103 h 21.556 c 11.18,0 15.892,5.024 15.892,10.584 -0.001,6.465 -5.767,9.56 -8.964,10.724 z m -7.946,-5.628 c 3.935,0 5.835,-2.006 5.835,-4.253 0,-2.251 -1.688,-4.117 -5.835,-4.117 H 81.677 v 8.37 z m -55.375,18.423 -4.364,-7.487 H 13.467 l -3.973,7.487 H 0 l 18.982,-34.069 h 8.65 l 21.519,34.069 z m -19.623,-14.589 h 11.109 l -5.766,-10.411 z m 218.308,14.589 -4.257,-7.487 h -18.562 l -3.833,7.487 h -9.247 l 18.496,-34.069 h 8.4 l 20.921,34.069 h -11.917 z m -19.093,-14.589 h 10.829 l -5.625,-10.411 z" />
</svg>
