<?xml version="1.0" encoding="UTF-8" standalone="no"?>
<svg
   xmlns:dc="http://purl.org/dc/elements/1.1/"
   xmlns:cc="http://creativecommons.org/ns#"
   xmlns:rdf="http://www.w3.org/1999/02/22-rdf-syntax-ns#"
   xmlns:svg="http://www.w3.org/2000/svg"
   xmlns="http://www.w3.org/2000/svg"
   xmlns:sodipodi="http://sodipodi.sourceforge.net/DTD/sodipodi-0.dtd"
   xmlns:inkscape="http://www.inkscape.org/namespaces/inkscape"
   inkscape:version="1.0 (4035a4fb49, 2020-05-01)"
   height="109.19969"
   width="360.00003"
   sodipodi:docname="AS.svg"
   id="svg381"
   version="1.1"
   viewBox="0 0 360.00003 109.19969"
   stroke-miterlimit="1.41421"
   stroke-linejoin="round"
   fill-rule="evenodd"
   clip-rule="evenodd">
  <metadata
     id="metadata387">
    <rdf:RDF>
      <cc:Work
         rdf:about="">
        <dc:format>image/svg+xml</dc:format>
        <dc:type
           rdf:resource="http://purl.org/dc/dcmitype/StillImage" />
        <dc:title></dc:title>
      </cc:Work>
    </rdf:RDF>
  </metadata>
  <defs
     id="defs385" />
  <sodipodi:namedview
     inkscape:current-layer="svg381"
     inkscape:window-maximized="0"
     inkscape:window-y="0"
     inkscape:window-x="0"
     inkscape:cy="54.599412"
     inkscape:cx="180.00046"
     inkscape:zoom="1.8732143"
     fit-margin-bottom="0"
     fit-margin-right="0"
     fit-margin-left="0"
     fit-margin-top="0"
     showgrid="false"
     id="namedview383"
     inkscape:window-height="480"
     inkscape:window-width="710"
     inkscape:pageshadow="2"
     inkscape:pageopacity="0"
     guidetolerance="10"
     gridtolerance="10"
     objecttolerance="10"
     borderopacity="1"
     bordercolor="#666666"
     pagecolor="#ffffff" />
  <path
     style="stroke-width:0.944634"
     id="path379"
     fill-rule="nonzero"
     fill="#00385f"
     d="M 176.64656,4.3453164 135.55498,73.303598 c -4.25085,7.084755 -6.61244,14.263974 -7.27368,21.159802 h -16.05878 c 1.13356,-8.690633 4.53424,-17.003412 11.52453,-28.9058 L 152.46393,17.381266 C 158.2262,7.8404622 163.894,4.3453164 174.28497,4.3453164 Z m 11.99685,37.1241166 c -20.78195,0 -33.62897,12.185778 -44.87012,38.729994 -2.8339,6.612438 -4.43977,14.925217 5.19549,14.830753 5.47888,-0.09446 14.64183,-3.117292 21.06534,-7.557072 -0.56678,2.172659 -0.85017,5.195487 -0.66124,6.990292 h 14.64182 c 0.56678,-5.762267 2.73944,-12.847022 7.55708,-21.443192 l 18.23143,-30.417215 c -6.89583,-0.755707 -13.98058,-1.13356 -21.1598,-1.13356 M 173.4348,76.704281 c -3.02283,2.833902 -8.78509,6.990291 -13.69719,7.084755 -3.40068,-0.188927 -3.58961,-3.400683 -1.32249,-7.745999 8.69063,-16.625558 17.85358,-25.410655 29.00027,-25.316191 h 1.98373 z M 338.93468,41.469433 c -20.78195,0 -33.62897,12.185778 -44.87012,38.729994 -2.8339,6.612438 -4.43978,14.925217 5.19549,14.830753 5.47888,-0.09446 14.64183,-3.117292 21.06534,-7.557072 -0.56678,2.172659 -0.85017,5.195487 -0.66124,6.990292 h 14.64182 c 0.56678,-5.762267 2.73944,-12.847022 7.55707,-21.443192 l 18.13698,-30.417215 c -6.89583,-0.755707 -13.98059,-1.13356 -21.06534,-1.13356 m -15.20861,35.234848 c -3.02283,2.833902 -8.78509,6.990291 -13.69719,7.084755 -3.40068,-0.188927 -3.58961,-3.400683 -1.32249,-7.745999 8.59617,-16.625558 17.85358,-25.410655 29.00027,-25.316191 h 1.98373 z m -32.30648,32.495409 h -4.81763 c -6.14013,0 -11.619,-4.15639 -13.22488,-10.107583 L 266.1034,71.697721 252.59513,94.4634 h -15.58646 l 43.45316,-73.586989 c 5.66781,-9.540803 11.43008,-13.0359488 21.82105,-13.0359488 h 1.60588 L 274.98296,56.67804 296.61508,41.752823 h 17.38126 L 277.53347,66.974551 Z M 148.02415,0.0944634 c -14.64183,0 -22.29336,3.8729994 -36.6518,14.2639736 L 62.629234,49.404358 H 31.456312 c -8.974023,0 -16.247705,0.377854 -21.9155086,5.667804 L 1.416951,62.534771 c 0,0 23.426923,-0.944634 45.247969,-1.700341 L 0,94.4634 H 20.215168 L 67.919185,59.984259 c 9.257413,-0.377854 15.586461,-0.56678 15.680924,-0.56678 C 94.652327,59.134088 100.88691,49.309895 100.88691,49.309895 H 82.655475 L 121.19654,21.537655 92.574132,67.919185 C 86.434011,78.593549 83.505646,86.150621 82.466548,94.368937 H 98.997643 C 99.658887,87.473108 102.02047,80.29389 106.27133,73.209135 L 145.28471,8.1238524 C 148.02415,3.6840726 150.38573,0 150.38573,0 Z M 225.5786,56.39465 c -0.18893,1.322487 0.37785,2.267121 3.21175,4.061926 l 4.43978,2.928365 c 4.81764,3.211756 6.80137,8.029389 6.23459,11.902389 -1.60588,10.863291 -9.63527,19.74285 -26.73314,19.74285 -7.46261,0 -10.86329,-0.28339 -19.74285,-1.700341 l 6.61243,-11.146681 c 6.23459,1.133561 9.63527,1.605878 14.26398,1.605878 6.42351,0 8.97402,-2.928366 9.35187,-5.289951 0.18893,-1.322487 -0.47231,-3.022828 -3.49514,-5.101023 l -3.58961,-2.550512 c -5.6678,-4.061926 -7.17922,-7.273682 -6.42351,-12.280242 1.41695,-9.635267 12.65809,-17.097875 28.05563,-17.097875 4.91209,0 10.20205,0.28339 15.96431,0.944634 l -6.23458,10.5799 c -3.873,-0.28339 -10.01312,-0.661243 -14.35844,-0.472317 -4.34532,0 -7.27368,1.605878 -7.55707,3.873" />
</svg>
