<?xml version="1.0" encoding="UTF-8" standalone="no"?>
<svg
   xmlns:dc="http://purl.org/dc/elements/1.1/"
   xmlns:cc="http://creativecommons.org/ns#"
   xmlns:rdf="http://www.w3.org/1999/02/22-rdf-syntax-ns#"
   xmlns:svg="http://www.w3.org/2000/svg"
   xmlns="http://www.w3.org/2000/svg"
   xmlns:sodipodi="http://sodipodi.sourceforge.net/DTD/sodipodi-0.dtd"
   xmlns:inkscape="http://www.inkscape.org/namespaces/inkscape"
   sodipodi:docname="AT_RAM.svg"
   inkscape:version="1.0 (4035a4fb49, 2020-05-01)"
   id="svg13596"
   version="1.1"
   viewBox="0 0 28.394702 4.013842"
   height="15.170426"
   width="107.31856">
  <defs
     id="defs13590">
    <clipPath
       clipPathUnits="userSpaceOnUse"
       id="clipPath11785">
      <path
         d="m 606.536,498.176 h 68.542 v 57.07 h -68.542 z"
         id="path11783"
         inkscape:connector-curvature="0" />
    </clipPath>
    <clipPath
       clipPathUnits="userSpaceOnUse"
       id="clipPath11765">
      <path
         d="M 0,0 H 884.409 V 595.276 H 0 Z"
         id="path11763"
         inkscape:connector-curvature="0" />
    </clipPath>
  </defs>
  <sodipodi:namedview
     inkscape:document-rotation="0"
     inkscape:window-maximized="1"
     inkscape:window-y="-8"
     inkscape:window-x="-8"
     inkscape:window-height="1027"
     inkscape:window-width="1920"
     units="px"
     fit-margin-bottom="0"
     fit-margin-right="0"
     fit-margin-left="0"
     fit-margin-top="0"
     showgrid="false"
     inkscape:current-layer="layer1"
     inkscape:document-units="mm"
     inkscape:cy="-16.203242"
     inkscape:cx="61.623224"
     inkscape:zoom="8.361133"
     inkscape:pageshadow="2"
     inkscape:pageopacity="0.0"
     borderopacity="1.0"
     bordercolor="#666666"
     pagecolor="#ffffff"
     id="base" />
  <metadata
     id="metadata13593">
    <rdf:RDF>
      <cc:Work
         rdf:about="">
        <dc:format>image/svg+xml</dc:format>
        <dc:type
           rdf:resource="http://purl.org/dc/dcmitype/StillImage" />
        <dc:title></dc:title>
      </cc:Work>
    </rdf:RDF>
  </metadata>
  <g
     transform="translate(-99.699647,-208.63896)"
     id="layer1"
     inkscape:groupmode="layer"
     inkscape:label="Layer 1">
    <g
       id="g102">
      <path
         inkscape:connector-curvature="0"
         id="path11789"
         style="fill:#c20831;fill-opacity:1;fill-rule:nonzero;stroke:none;stroke-width:0.115292"
         d="m 102.09263,212.22454 -2.2e-4,7.1e-4 0.86634,-0.74126 -0.0354,-0.12819 -0.62367,0.53358 0.10508,-0.38071 -0.0928,-0.0793 -0.1837,0.66594 c -0.22057,-0.20467 -0.36273,-0.52156 -0.36273,-0.87712 0,-0.0815 0.008,-0.161 0.0219,-0.23757 l -0.0955,-0.0816 c -0.023,0.1018 -0.0354,0.2088 -0.0354,0.31915 0,0.41322 0.17212,0.77979 0.43604,1.00635 m 0.5749,-0.72912 -0.62378,-0.53357 h 0.33999 l 0.0354,-0.12835 -0.5953,1.3e-4 c 0.12304,-0.39346 0.42881,-0.68346 0.79558,-0.72637 l 0.0365,-0.13198 c -0.4438,0.0284 -0.81524,0.38033 -0.9474,0.85836 h -2.2e-4 l 0.86645,0.741 z m -0.57809,-1.65078 h 0.006 c -0.004,-0.0561 -0.0208,-0.0892 -0.0508,-0.1024 -0.10763,-0.0478 -0.16564,-0.15225 -0.16564,-0.26922 0,-0.13335 0.0724,-0.21618 0.1632,-0.21618 0.12898,0 0.17573,0.17689 0.32309,0.17689 0.0529,0 0.0962,-0.0366 0.0962,-0.0678 v -0.0184 h -0.0275 c -0.18498,0 -0.21345,-0.21905 -0.39173,-0.21905 -0.15204,0 -0.27231,0.14169 -0.27231,0.34454 0,0.20455 0.13419,0.37168 0.31927,0.37168 m -1.70675,1.42935 h 0.66372 v -0.008 c -0.0667,-0.0238 -0.11984,-0.0622 -0.1752,-0.12152 h -0.48852 c -0.24851,0 -0.32172,-0.0273 -0.444863,-0.18377 h 1.685823 c 0.007,-0.0434 0.0165,-0.0865 0.0274,-0.1282 h -1.951123 l 0.0756,0.10544 c 0.19751,0.27573 0.271573,0.33491 0.607093,0.33491 m 2.0409,-1.99932 c 0.0943,0 0.15257,-0.0924 0.15257,-0.17803 0,-0.0869 -0.0339,-0.12228 -0.069,-0.12228 -0.0309,0 -0.0558,0.0297 -0.0558,0.0652 0,0.0388 0.0296,0.0649 0.052,0.0649 -0.0286,0.0513 -0.0718,0.0689 -0.1276,0.0639 0.006,-0.0106 0.0103,-0.0229 0.0103,-0.0376 0,-0.0372 -0.0262,-0.0651 -0.0553,-0.0651 -0.0276,0 -0.0551,0.0305 -0.0551,0.0693 0,0.0733 0.0582,0.13957 0.14789,0.13957 m -0.54409,2.80726 h -0.7995 c -0.22004,0 -0.3027,-0.0217 -0.40427,-0.13517 h -0.15056 c 0.16139,0.21468 0.25064,0.26359 0.55483,0.26359 h 0.90979 c -0.0392,-0.0397 -0.0761,-0.0827 -0.11029,-0.12835 m -0.36793,-0.18378 v -0.008 c -0.0667,-0.0238 -0.11995,-0.0622 -0.1752,-0.12152 h -0.48863 c -0.22014,0 -0.3027,-0.0215 -0.40438,-0.13532 h -0.15044 c 0.16118,0.21469 0.25053,0.26361 0.55482,0.26361 z m -0.23236,-0.31213 v -0.008 c -0.0667,-0.0237 -0.11995,-0.0622 -0.1752,-0.12137 h -0.48863 c -0.22015,0 -0.30281,-0.0215 -0.40438,-0.13532 h -0.15044 c 0.16128,0.2147 0.25053,0.26349 0.55482,0.26349 z m 1.65723,-2.12606 c -0.0543,0 -0.10922,0.0781 -0.12962,0.19191 0.0337,0.003 0.0671,0.008 0.0999,0.0121 0.0217,-0.0992 0.0592,-0.14503 0.0907,-0.1517 -0.0113,-0.0302 -0.0323,-0.0531 -0.061,-0.0531 m -0.22258,0.51344 -0.33096,1.19926 0.0926,0.0793 0.2382,-0.86336 0.10519,0.38071 h 0.11453 l -0.1837,-0.66608 c 0.37186,0.0164 0.68954,0.2855 0.83202,0.66608 h 0.11782 c -0.15331,-0.46515 -0.53718,-0.79594 -0.98575,-0.79594 m 0.59062,0.0646 v -0.13153 c -0.1617,-0.10923 -0.3776,-0.18979 -0.59062,-0.18979 -0.21313,0 -0.42892,0.0806 -0.59073,0.18979 v 0.13153 c 0.17339,-0.12046 0.37526,-0.19303 0.59073,-0.19303 0.21547,0 0.41723,0.0725 0.59062,0.19303 m -1.12802,-0.25033 c 0.0278,-0.0153 0.0562,-0.0296 0.0852,-0.0425 -0.0141,-0.0499 -0.0408,-0.1062 -0.0907,-0.1062 -0.0249,0 -0.0443,0.0235 -0.0527,0.051 0.0231,0.009 0.0422,0.0332 0.0582,0.0978 m 0.0596,2.39429 -0.0953,0.0813 c 0.16522,0.12607 0.36188,0.19966 0.5731,0.19966 0.23183,0 0.44634,-0.0886 0.6208,-0.23807 l 6e-4,3.6e-4 -0.33085,-1.19928 h -0.11464 l 0.23831,0.86323 -0.27507,-0.23507 -0.0926,0.0792 0.48098,0.41148 c -0.15098,0.11954 -0.33224,0.18979 -0.52741,0.18979 -0.17425,0 -0.33734,-0.0558 -0.47779,-0.15264 m 0.28505,-2.51739 c 0.0329,-0.006 0.0664,-0.0106 0.1,-0.0121 -0.0204,-0.11394 -0.0752,-0.19193 -0.12951,-0.19193 -0.0287,0 -0.0498,0.0231 -0.0611,0.0532 0.0315,0.006 0.0692,0.0523 0.0906,0.15156 m -0.1973,-0.11894 c -0.0248,0 -0.0489,0.0205 -0.0585,0.0508 0.0237,0.005 0.0553,0.0267 0.0785,0.1156 0.0304,-0.0106 0.0613,-0.0203 0.0926,-0.0284 -0.0223,-0.0881 -0.0627,-0.13805 -0.11263,-0.13805 m 2.57861,2.40103 h -0.15065 c -0.10147,0.11363 -0.18413,0.13517 -0.40416,0.13517 h -0.79941 c -0.0343,0.0457 -0.0711,0.0886 -0.11039,0.12834 h 0.9098 c 0.30428,0 0.39353,-0.0488 0.55481,-0.2636 m -2.25402,-1.11307 -0.0354,0.1282 h 0.77082 l -0.27497,0.23531 0.0354,0.12819 0.48173,-0.41197 c 0.0234,0.0968 0.036,0.19905 0.036,0.30476 0,0.33066 -0.12282,0.62816 -0.31746,0.83271 l 0.0364,0.13198 c 0.23778,-0.22844 0.39003,-0.57598 0.39003,-0.96469 0,-0.13426 -0.0183,-0.26335 -0.0518,-0.38458 l 1.1e-4,-1.2e-4 z m 2.84136,0.1282 c -0.12314,0.1565 -0.19624,0.18377 -0.44475,0.18377 h -0.48863 c -0.0553,0.0593 -0.10848,0.0977 -0.1752,0.12152 v 0.008 h 0.66383 c 0.33542,0 0.40947,-0.0592 0.60709,-0.33491 l 0.0756,-0.10544 h -1.95122 c 0.0109,0.0417 0.0201,0.0848 0.0275,0.12819 z m -2.88354,-1.93103 0.10773,-0.0922 0.10763,0.0922 -0.041,-0.14913 0.10773,-0.0922 h -0.13312 l -0.0412,-0.14913 -0.0411,0.14913 h -0.13324 l 0.10784,0.0922 z m 2.52846,2.60371 h -0.15045 c -0.10157,0.11378 -0.18423,0.13517 -0.40437,0.13517 h -0.48863 c -0.0553,0.0593 -0.10837,0.0977 -0.1752,0.12152 v 0.008 h 0.66383 c 0.30429,0 0.39364,-0.0488 0.55482,-0.26361 m 0.23236,-0.31202 h -0.15045 c -0.10167,0.11378 -0.18422,0.13517 -0.40437,0.13517 h -0.48863 c -0.0553,0.0592 -0.10848,0.0977 -0.1752,0.12137 v 0.008 h 0.66383 c 0.30429,0 0.39354,-0.0488 0.55482,-0.26349 m -2.05736,-1.63263 c -0.008,-0.0275 -0.0278,-0.051 -0.0528,-0.051 -0.0498,0 -0.0765,0.0564 -0.0905,0.10665 0.0289,0.0121 0.0573,0.027 0.0851,0.0423 0.016,-0.0648 0.0353,-0.0883 0.0582,-0.098 m -0.66426,-0.24146 c 0.0301,0.0408 0.0478,0.0724 0.0671,0.12304 6e-4,6.9e-4 9e-4,0.002 0.001,0.003 6.1e-4,-7.1e-4 9.1e-4,-0.002 0.002,-0.003 0.0192,-0.0507 0.037,-0.0822 0.067,-0.12304 -0.0114,-0.0354 -0.0457,-0.0997 -0.0685,-0.12592 -0.0228,0.0261 -0.0572,0.0904 -0.0685,0.12592 m 0.32087,-0.10104 v 0.0184 c 0,0.0312 0.0432,0.0678 0.0961,0.0678 0.14737,0 0.19411,-0.17689 0.3231,-0.17689 0.0907,0 0.1633,0.0828 0.1633,0.21619 0,0.11696 -0.0582,0.22143 -0.16574,0.26922 -0.0301,0.0137 -0.0463,0.0464 -0.0509,0.1024 h 0.006 c 0.18497,0 0.31927,-0.16714 0.31927,-0.37168 0,-0.20293 -0.12027,-0.34455 -0.27231,-0.34455 -0.17828,0 -0.20675,0.21905 -0.39173,0.21905 z m -0.11453,-0.25083 c 0,0.0856 0.0583,0.17803 0.15257,0.17803 0.0898,0 0.148,-0.0663 0.148,-0.13957 0,-0.0388 -0.0275,-0.0693 -0.0551,-0.0693 -0.0292,0 -0.0552,0.0279 -0.0552,0.0651 0,0.0152 0.004,0.0267 0.0103,0.0376 -0.0559,0.005 -0.0991,-0.0121 -0.12761,-0.0639 0.0221,0 0.052,-0.0261 0.052,-0.0649 0,-0.0355 -0.0249,-0.0652 -0.0559,-0.0652 -0.035,0 -0.069,0.0353 -0.069,0.12243 m -0.1378,-0.0491 c -0.0481,0 -0.0872,0.046 -0.0872,0.10255 0,0.0567 0.0391,0.10271 0.0872,0.10271 0.0482,0 0.0872,-0.046 0.0872,-0.10271 0,-0.0566 -0.039,-0.10255 -0.0872,-0.10255 m 0.44868,0.54896 c -0.01,-0.0303 -0.0337,-0.0508 -0.0584,-0.0508 -0.05,0 -0.0903,0.0499 -0.11273,0.13806 0.0314,0.008 0.0623,0.0176 0.0927,0.0285 0.0233,-0.0892 0.0549,-0.11181 0.0785,-0.11591" />
      <path
         inkscape:connector-curvature="0"
         id="path11793"
         style="fill:#c20831;fill-opacity:1;fill-rule:nonzero;stroke:none;stroke-width:0.352778"
         d="m 106.46775,212.48647 -0.46955,7.1e-4 v -1.0728 h 0.48613 v 0.23142 c 0,0 0.0653,-0.23177 0.40358,-0.20673 v 0.51541 c 0,0 -0.3623,-0.0519 -0.42016,0.11995 z" />
      <path
         inkscape:connector-curvature="0"
         id="path11797"
         style="fill:#c20831;fill-opacity:1;fill-rule:nonzero;stroke:none;stroke-width:0.352778"
         d="m 116.52086,212.48647 -0.46955,7.1e-4 v -1.0728 h 0.48613 v 0.23142 c 0,0 0.0653,-0.23177 0.40358,-0.20673 v 0.51541 c 0,0 -0.36266,-0.0519 -0.42016,0.11995 z" />
      <path
         inkscape:connector-curvature="0"
         id="path11801"
         style="fill:#c20831;fill-opacity:1;fill-rule:nonzero;stroke:none;stroke-width:0.352778"
         d="m 107.80206,211.68817 c 0,0 -0.18944,-0.0169 -0.21414,0.24906 0,0 0.008,0.21449 0.19756,0.22331 0,0 0.18133,0.0169 0.19791,-0.21484 0,0 0.008,-0.24871 -0.18133,-0.25753 m 0.63394,0.26635 c -0.0247,0.60924 -0.63394,0.55739 -0.63394,0.55739 -0.69991,0.0342 -0.69215,-0.5835 -0.69215,-0.5835 0.0416,-0.54927 0.68404,-0.53199 0.68404,-0.53199 0.66675,0 0.64205,0.5581 0.64205,0.5581" />
      <path
         inkscape:connector-curvature="0"
         id="path11805"
         style="fill:#c20831;fill-opacity:1;fill-rule:nonzero;stroke:none;stroke-width:0.352778"
         d="m 124.00197,211.68817 c 0,0 -0.18909,-0.0169 -0.21414,0.24906 0,0 0.008,0.21449 0.19791,0.22331 0,0 0.18062,0.0169 0.19756,-0.21484 0,0 0.008,-0.24871 -0.18133,-0.25753 m 0.63429,0.26635 c -0.025,0.60924 -0.63429,0.55739 -0.63429,0.55739 -0.69991,0.0342 -0.69144,-0.5835 -0.69144,-0.5835 0.0409,-0.54927 0.68333,-0.53199 0.68333,-0.53199 0.6671,0 0.6424,0.5581 0.6424,0.5581" />
      <path
         inkscape:connector-curvature="0"
         id="path11809"
         style="fill:#c20831;fill-opacity:1;fill-rule:nonzero;stroke:none;stroke-width:0.352778"
         d="m 108.53457,211.41392 h 0.57644 l 0.18168,0.53199 0.16439,-0.53199 h 0.52705 l -0.38664,0.86642 c 0,0 -0.15663,0.41205 -0.41169,0.36936 h -0.5521 v -0.30903 h 0.34608 z" />
      <path
         inkscape:connector-curvature="0"
         id="path11813"
         style="fill:#c20831;fill-opacity:1;fill-rule:nonzero;stroke:none;stroke-width:0.352778"
         d="m 110.8411,211.69696 c 0,0 -0.2226,-0.0346 -0.23072,0.24906 0,0 0,0.23142 0.20603,0.23142 0,0 0.18908,0.008 0.20602,-0.22295 0,0 0.0247,-0.25753 -0.18133,-0.25753 m 0.16404,-0.28293 h 0.47802 v 1.07245 h -0.47767 v -0.19756 c -0.1397,0.22296 -0.42827,0.19756 -0.42827,0.19756 -0.502,-0.0515 -0.44414,-0.56656 -0.44414,-0.56656 0.0162,-0.56657 0.48542,-0.54081 0.48542,-0.54081 0.20602,-0.008 0.38699,0.1718 0.38699,0.1718 z" />
      <path
         inkscape:connector-curvature="0"
         id="path11817"
         style="fill:#c20831;fill-opacity:1;fill-rule:nonzero;stroke:none;stroke-width:0.352778"
         d="m 114.26707,211.69696 c 0,0 -0.22225,-0.0346 -0.23036,0.24906 0,0 0,0.23142 0.20567,0.23142 0,0 0.18944,0.008 0.20566,-0.22295 0,0 0.0251,-0.25753 -0.18097,-0.25753 m 0.16439,-0.28293 h 0.47767 v 1.07245 h -0.47731 v -0.19756 c -0.14006,0.22296 -0.42863,0.19756 -0.42863,0.19756 -0.50165,-0.0515 -0.44414,-0.56656 -0.44414,-0.56656 0.0162,-0.56657 0.48577,-0.54081 0.48577,-0.54081 0.20602,-0.008 0.387,0.1718 0.387,0.1718 z" />
      <path
         inkscape:connector-curvature="0"
         id="path11821"
         style="fill:#c20831;fill-opacity:1;fill-rule:nonzero;stroke:none;stroke-width:0.352778"
         d="m 122.65976,212.48647 -0.46955,7.1e-4 v -1.0728 h 0.48613 v 0.23142 c 0,0 0.0653,-0.23177 0.40323,-0.20673 v 0.51541 c 0,0 -0.36266,-0.0519 -0.41981,0.11995 z" />
      <path
         inkscape:connector-curvature="0"
         id="path11825"
         style="fill:#c20831;fill-opacity:1;fill-rule:nonzero;stroke:none;stroke-width:0.352778"
         d="m 121.22649,211.69696 c 0,0 -0.22225,-0.0346 -0.23036,0.24906 0,0 0,0.23142 0.20567,0.23142 0,0 0.18944,0.008 0.20602,-0.22295 0,0 0.0247,-0.25753 -0.18133,-0.25753 m 0.16439,-0.28293 h 0.47767 v 1.07245 h -0.47731 v -0.19756 c -0.14006,0.22296 -0.42863,0.19756 -0.42863,0.19756 -0.50235,-0.0515 -0.44414,-0.56656 -0.44414,-0.56656 0.0162,-0.56657 0.48577,-0.54081 0.48577,-0.54081 0.20602,-0.008 0.387,0.1718 0.387,0.1718 z" />
      <path
         d="m 111.78792,211.22501 h 0.49389 v 1.26154 h -0.49389 z"
         style="fill:#c20831;fill-opacity:1;fill-rule:nonzero;stroke:none;stroke-width:0.352778"
         id="path11827"
         inkscape:connector-curvature="0" />
      <path
         d="m 115.22292,211.4141 h 0.49354 v 1.07209 h -0.49354 z"
         style="fill:#c20831;fill-opacity:1;fill-rule:nonzero;stroke:none;stroke-width:0.352778"
         id="path11829"
         inkscape:connector-curvature="0" />
      <path
         d="m 115.22292,211.19891 h 0.49354 v 0.14146 h -0.49354 z"
         style="fill:#c20831;fill-opacity:1;fill-rule:nonzero;stroke:none;stroke-width:0.352778"
         id="path11831"
         inkscape:connector-curvature="0" />
      <path
         inkscape:connector-curvature="0"
         id="path11835"
         style="fill:#c20831;fill-opacity:1;fill-rule:nonzero;stroke:none;stroke-width:0.352778"
         d="m 118.20354,212.48647 v -1.07244 h 0.47731 v 0.24024 c 0,0 0.10795,-0.25788 0.42086,-0.25788 0,0 0.23883,-0.0258 0.3623,0.21449 0,0 0.19791,-0.266 0.42016,-0.21449 0,0 0.27976,-0.0169 0.34608,0.29174 l -7.1e-4,0.79023 h -0.51047 v -0.55845 c 0,0 -0.0243,-0.16298 -0.14005,-0.1457 0,0 -0.12312,0 -0.1397,0.12841 v 0.58385 h -0.50271 v -0.54081 c 0,0 0.025,-0.18873 -0.115,-0.16298 0,0 -0.12348,-0.0173 -0.14782,0.13723 v 0.56656 z" />
      <path
         inkscape:connector-curvature="0"
         id="path11839"
         style="fill:#c20831;fill-opacity:1;fill-rule:nonzero;stroke:none;stroke-width:0.352778"
         d="m 126.0115,211.44821 c 0,0 -0.18097,-0.0776 -0.56797,-0.0861 0,0 -0.54363,-0.008 -0.56021,0.59232 0,0 0,0.50623 0.60924,0.53198 0,0 0.39547,0 0.51894,-0.18026 v -0.24907 c 0,0 -0.12347,0.0773 -0.36195,0.0773 0,0 -0.28011,0.0173 -0.28011,-0.22331 0,0 0.0162,-0.20602 0.21379,-0.19685 0,0 0.20602,-0.043 0.42827,0.06 z" />
      <path
         inkscape:connector-curvature="0"
         id="path11843"
         style="fill:#c20831;fill-opacity:1;fill-rule:nonzero;stroke:none;stroke-width:0.352778"
         d="m 108.01888,209.23506 c 0,0 -0.13123,0.22613 -0.13123,0.27376 0,0.0473 0.0342,0.11324 -0.006,0.13052 -0.0402,0.0184 -0.35419,0.1016 -0.32596,-0.19614 -0.31433,0.12523 -1.13101,0.48824 -1.86197,0.48824 -0.43709,0 -0.65722,0.0533 -0.83749,-0.13864 -0.0861,-0.12065 -0.3108,-0.29563 -0.45932,0.025 -0.15416,0.21907 -0.1598,0.42333 -0.25717,0.40499 -0.10266,-0.0187 -0.14852,-0.23178 -0.1771,-0.48789 -0.10865,0.363 -0.0194,0.83326 0.10866,0.82726 0.12418,0 0.20144,-0.22754 0.26635,-0.36724 0.0646,-0.13864 0.0907,-0.19967 0.18485,-0.20391 0.35419,0.0176 -0.0173,0.38665 1.12536,0.33302 0.53129,-0.0536 1.21673,-0.16051 1.67993,-0.48789 0.0854,-0.0713 0.10795,-0.0892 0.13088,0.0476 0.0286,0.14887 0.0914,0.20849 0.25118,0.19614 0.16016,-0.0116 0.45155,-0.29174 0.30868,-0.8449" />
      <path
         inkscape:connector-curvature="0"
         id="path11847"
         style="fill:#c20831;fill-opacity:1;fill-rule:nonzero;stroke:none;stroke-width:0.352778"
         d="m 128.08114,208.81219 c -0.0568,0.10125 -0.18274,0.33373 -0.24518,0.36936 0,0.17251 0.0282,1.27353 -0.0116,1.35078 0.097,-0.1785 0.27975,-0.39863 0.26811,-0.5655 -0.0113,-0.16616 0.0173,-1.07703 -0.0113,-1.15464" />
      <path
         inkscape:connector-curvature="0"
         id="path11851"
         style="fill:#c20831;fill-opacity:1;fill-rule:nonzero;stroke:none;stroke-width:0.352778"
         d="m 126.56751,209.05024 -0.28575,0.20249 0.16581,0.15487 0.25682,-0.23212 z" />
      <path
         inkscape:connector-curvature="0"
         id="path11855"
         style="fill:#c20831;fill-opacity:1;fill-rule:nonzero;stroke:none;stroke-width:0.352778"
         d="m 123.28859,209.81799 c 0.0169,-0.10089 -0.10866,-0.24377 -0.25188,-0.20814 0,0.11324 0.0349,0.21449 0.0917,0.22648 0.0572,0.0117 0.14287,0.018 0.16016,-0.0183 m 2.03341,0.11324 c -0.19967,-0.11324 -0.81139,0.11324 -0.99342,0.21449 0.26247,0.0296 0.98813,0 0.99342,-0.21449 m 2.09691,-0.85125 c 0,0 -0.10901,0.13723 -0.14323,0.19085 -0.0339,0.0536 -0.0113,0.0713 -0.0169,0.16616 -0.006,0.096 0.006,0.24448 -0.1143,0.40499 0.0459,0.0476 0.58843,0.15452 0.58843,0.15452 l -0.27975,0.33372 c -0.0402,-0.024 -0.32561,0.0116 -0.45155,0.0233 -0.12559,0.0123 -0.75989,0.1016 -1.034,0.13723 -0.2741,0.0356 -0.91404,0.0596 -1.42204,0.0416 -0.50871,-0.0176 -0.70309,-0.11888 -0.99413,-0.20214 0,0 -0.1718,0.23813 -0.28011,0.26776 -0.1083,0.03 -0.47977,0.0596 -0.95955,-0.0416 0.14817,-0.0116 0.96555,-0.21449 1.10807,-0.375 -0.3369,0.012 -0.59972,-0.11889 -0.6223,-0.1905 -0.0233,-0.0713 0.0854,-0.22613 0.14253,-0.33302 0.0571,-0.1076 0.20567,-0.381 0.29703,-0.37536 0.16581,0.012 0.32527,0.30974 0.4057,0.52988 0.0741,0.10724 0.31397,0.26775 0.50271,0.22048 0.0339,-0.024 0.20567,-0.11924 0.28504,-0.16686 l -0.0113,-0.44062 c -0.005,-0.0833 -0.0624,-0.11289 -0.0741,-0.19015 -0.0113,-0.0776 0.0804,-0.25612 0.20038,-0.46461 -0.0286,0.0893 0.0797,0.19685 0.1023,0.31574 0.0233,0.11924 -0.0744,0.16051 -0.0854,0.1905 -0.0116,0.0296 -0.0169,0.2794 -0.006,0.52952 0.71966,-0.34537 0.86254,-0.29739 1.0167,-0.1905 0.15417,0.10724 0.097,0.32138 -0.1658,0.52987 0.17145,0.0236 0.74259,-0.03 1.03963,-0.10125 -0.0226,-0.018 -0.51964,-0.11324 -0.51964,-0.11324 0.0346,-0.0116 0.1711,-0.2734 0.1711,-0.2734 l 0.87983,-0.012 c 0.1143,0 0.1143,-0.0832 0.1143,-0.0832 l 0.006,-0.22648 c 0,-0.0593 -0.0226,-0.0713 -0.0399,-0.2085 -0.0173,-0.13687 0.2286,-0.33302 0.2286,-0.33302 -0.0571,0.2025 0,0.21414 0.13158,0.2854" />
      <path
         inkscape:connector-curvature="0"
         id="path11859"
         style="fill:#c20831;fill-opacity:1;fill-rule:nonzero;stroke:none;stroke-width:0.352778"
         d="m 122.16333,210.0879 c -0.005,-0.0759 -0.0642,-0.17921 -0.26635,-0.17004 -0.20073,0.009 -0.42368,0.22331 -0.50906,0.33902 0.0811,0.005 0.59549,-0.0222 0.77541,-0.16898 m -0.68545,-0.96908 c 0.0385,0.009 0.0942,0.0557 0.11113,0.067 0.0169,0 -0.0127,0.0981 -0.11571,0.15628 0.0258,0.40605 -0.0212,0.66075 -0.0212,0.66075 0.7112,-0.5267 1.06221,-0.48225 1.1049,-0.2413 0.043,0.2413 -0.44521,0.73237 -0.8569,0.768 -0.41063,0.036 -0.6163,-0.0628 -1.02799,-0.25012 0.0773,0.0183 0.28293,-0.009 0.51435,0.0268 0.0169,-0.0533 0.11148,-0.1517 0.18838,-0.21378 l -0.0515,-0.60749 c -0.008,-0.0713 -0.0688,-0.0804 -0.0515,-0.23212 0.0176,-0.1517 0.0903,-0.34361 0.21872,-0.36619 -0.0173,0.0356 -0.03,0.18768 -0.0127,0.23213" />
      <path
         inkscape:connector-curvature="0"
         id="path11863"
         style="fill:#c20831;fill-opacity:1;fill-rule:nonzero;stroke:none;stroke-width:0.352778"
         d="m 120.16654,208.85113 c -0.0212,0.0445 -0.21414,0.38417 -0.21414,0.38417 0.0173,0.28964 0.0557,1.09362 -0.0258,1.28094 0.17992,-0.24095 0.26564,-0.44203 0.26564,-0.53128 0,0 -0.005,-1.08479 -0.0258,-1.13383" />
      <path
         inkscape:connector-curvature="0"
         id="path11867"
         style="fill:#c20831;fill-opacity:1;fill-rule:nonzero;stroke:none;stroke-width:0.352778"
         d="m 119.34608,210.01403 c -0.0127,0.0762 -0.0279,0.26987 0.1905,0.22578 0.0646,-0.0448 -0.0194,-0.25259 -0.1905,-0.22578 m -0.0148,-1.00683 c 0,0.0268 0.11959,0.0536 0.12841,0.12524 0.008,0.0713 -0.0212,0.12453 -0.0945,0.21378 l -0.0127,0.21943 c 0,0 -0.004,0.10231 0.0258,0.13335 0.0684,0.036 0.133,-0.0624 0.24412,-0.0219 0.18169,0.0653 0.073,0.36159 0.0346,0.5087 -0.0392,0.14746 -0.17604,0.39264 -0.266,0.38876 -0.14111,-0.007 -0.19261,-0.11641 -0.23107,-0.32632 -0.10301,0.0893 -0.65122,0.29493 -0.91263,0.29034 -0.26141,-0.005 -0.34255,-0.24095 -0.40287,-0.45085 -0.0296,0.0935 -0.26988,0.46849 -0.70662,0.4639 -0.43709,-0.004 -0.7373,-0.27199 -0.92992,-0.43744 l -0.0473,0.0138 c -0.0342,0.25894 -0.23531,0.32138 -0.3683,0.33443 -0.13265,0.0138 -0.27446,-0.18697 -0.3429,-0.38382 -0.06,0.0402 -0.80539,0.35913 -1.39206,0.36653 -1.0668,0.0131 -0.86995,-0.42474 -1.09714,-0.42015 -0.0945,0.004 -0.11959,0.0314 -0.1838,0.17003 -0.0653,0.1397 -0.16298,0.36125 -0.28751,0.36125 -0.30833,0 -0.25259,-0.57573 -0.0854,-0.85266 0.0512,-0.0938 0.0727,-0.0402 0.0469,0.0134 -0.0258,0.0536 -0.0857,0.41557 0.0173,0.43321 0.072,0.0127 0.1838,-0.0716 0.33831,-0.29033 0.13688,-0.22331 0.40288,-0.18768 0.4886,-0.067 0.16263,0.2413 0.41099,0.25012 0.84843,0.25894 0.43674,0.009 0.71508,-0.0713 1.40511,-0.36583 -0.0173,0.0579 -0.009,0.20955 0.0984,0.28998 0.10689,0.0804 0.28716,0.12065 0.35137,-0.0579 l -0.28716,-0.25893 c -0.0984,-0.085 -0.16264,-0.085 -0.14112,-0.33973 0,-0.47731 1.39207,-0.40605 1.39207,-0.40605 0.15028,0 0.29703,-0.0219 0.30903,0.10725 0.025,0.29457 -0.26176,0.49106 -0.53164,0.57185 0.0811,-0.0452 0.28681,-0.19685 0.30445,-0.26811 0.0187,-0.0797 -0.009,-0.11183 -0.0861,-0.10724 -0.0769,0.004 -1.0922,0.0981 -1.0922,0.0981 -0.0557,0.009 -0.0215,0.0582 -0.0215,0.0582 l 0.91229,0.63852 c 0.41169,0.21414 0.73695,0.0713 0.92145,0 0.18415,-0.0713 0.17992,-0.18732 0.18415,-0.27234 l 0.0173,-0.59373 c 0.0469,-0.0268 0.16263,-0.2413 0.16263,-0.2413 l -0.0173,0.95533 c 0.005,0.11183 0.0173,0.29915 0.14993,0.31714 0.29563,0.049 0.87842,-0.2413 1.01988,-0.34854 0.009,-0.0579 -0.008,-0.40181 -0.008,-0.40181 0,-0.0621 -0.0988,-0.0847 -0.0988,-0.16052 0,-0.0759 0.19297,-0.39723 0.23565,-0.44626 -0.0212,0.049 0.009,0.16051 0.009,0.18732" />
      <path
         inkscape:connector-curvature="0"
         id="path11871"
         style="fill:#c20831;fill-opacity:1;fill-rule:nonzero;stroke:none;stroke-width:0.352778"
         d="m 112.7545,209.13664 -0.28257,0.22331 0.18873,0.0981 c 0,0 0.17992,-0.15169 0.25682,-0.14252 0.0769,0.009 0.18874,0.10689 0.18874,0.10689 0,0 0.248,-0.21414 0.28222,-0.22331 -0.0596,-0.0801 -0.16263,-0.12488 -0.16263,-0.12488 0,0 -0.21414,0.15169 -0.26564,0.15169 -0.0515,0 -0.20567,-0.0892 -0.20567,-0.0892" />
      <path
         inkscape:connector-curvature="0"
         id="path11875"
         style="fill:#c20831;fill-opacity:1;fill-rule:nonzero;stroke:none;stroke-width:0.352778"
         d="m 114.95414,210.33026 c -0.0402,0.0356 -0.25717,0.16051 -0.30268,0.17286 l 0.18238,0.11254 c 0,0 0.21132,-0.12489 0.25718,-0.10689 0.0455,0.0176 0.15981,0.0952 0.15981,0.0952 l 0.29139,-0.15487 -0.13723,-0.12524 c 0,0 -0.22225,0.11924 -0.27411,0.11324 -0.0511,-0.006 -0.17674,-0.10689 -0.17674,-0.10689" />
      <path
         inkscape:connector-curvature="0"
         id="path11879"
         style="fill:#c20831;fill-opacity:1;fill-rule:nonzero;stroke:none;stroke-width:0.352778"
         d="m 111.70082,208.90451 c -0.0219,0.0445 -0.21449,0.38417 -0.21449,0.38417 0.06,0.35702 0.1584,1.12466 0.0769,1.31234 0.18027,-0.24095 0.2487,-0.49107 0.2487,-0.58032 0,0 -0.09,-1.0668 -0.11112,-1.11619" />
      <path
         inkscape:connector-curvature="0"
         id="path11883"
         style="fill:#c20831;fill-opacity:1;fill-rule:nonzero;stroke:none;stroke-width:0.352778"
         d="m 109.52704,209.76494 0.29704,-0.13123 c -0.0455,-0.0296 -0.37148,-0.0356 -0.42863,-0.0296 z m 1.4224,0.26635 c -0.0127,0.0755 -0.0286,0.27481 0.15981,0.23918 0.0688,-0.0656 0.0113,-0.26599 -0.15981,-0.23918 m -2.43346,0.19755 c -0.2914,0.024 -0.77117,0.50589 -1.0227,0.39899 -0.14676,-0.0621 -0.0117,-0.381 0.0914,-0.46425 -0.0857,0.30938 -0.0857,0.27375 -0.0226,0.32702 0.0624,0.054 0.46249,-0.29139 0.65687,-0.41627 0.19403,-0.12489 0.65123,-0.23813 0.9652,-0.24413 -0.0173,-0.036 -0.0741,-0.0952 -0.11959,-0.11324 -0.0459,-0.018 -0.19438,-0.0356 -0.19438,-0.0356 l 0.15416,-0.31538 c 0.3429,-0.0713 1.06857,0.0476 1.25695,0.0949 l -0.0748,0.36935 c -0.0512,0.006 -0.21696,0.0653 -0.31397,0.15452 0.19438,0.22013 0.72707,0 0.86854,-0.10689 0.008,-0.0582 0,-0.38065 0,-0.38065 0,-0.0632 -0.10936,-0.0628 -0.10936,-0.13829 0,-0.0762 0.19296,-0.39758 0.236,-0.44626 -0.0215,0.0487 0.008,0.16051 0.008,0.18732 0,0.0265 0.10195,0.0459 0.11042,0.11713 0.008,0.0713 -0.004,0.13264 -0.0762,0.22189 l -0.007,0.17357 c 0,0 -0.004,0.10301 0.0258,0.13441 0.0684,0.0353 0.13264,-0.0624 0.24447,-0.0226 0.18098,0.0653 0.0395,0.38982 0.001,0.53728 -0.0388,0.14711 -0.0857,0.33055 -0.20531,0.31256 -0.18204,-0.0272 -0.16158,-0.16545 -0.20038,-0.375 -0.10231,-0.0448 -0.375,0.28293 -0.8883,0.18768 -0.20849,-0.0392 -0.35983,-0.12524 -0.57396,-0.32138 -0.0515,0.0624 -0.54258,0.0504 -0.81104,0.16333" />
      <path
         inkscape:connector-curvature="0"
         id="path11887"
         style="fill:#c20831;fill-opacity:1;fill-rule:nonzero;stroke:none;stroke-width:0.352778"
         d="m 109.77847,208.94914 -0.30868,0.17286 0.17145,0.11289 0.25118,-0.17251 z" />
      <path
         inkscape:connector-curvature="0"
         id="path11891"
         style="fill:#c20831;fill-opacity:1;fill-rule:nonzero;stroke:none;stroke-width:0.352778"
         d="m 104.82007,209.06834 c 0.0169,0.006 0.19403,0.0776 0.19403,0.0776 0,0 -0.23989,0.19615 -0.25718,0.20214 -0.0169,0.006 -0.17674,-0.0832 -0.23424,-0.0656 -0.0568,0.0183 -0.19403,0.16686 -0.19403,0.16686 0,0 -0.18274,-0.0653 -0.22295,-0.0776 0.097,-0.0536 0.24024,-0.21414 0.26881,-0.24412 0.11395,0.048 0.22825,0.11359 0.26247,0.10124 0.0342,-0.0116 0.1143,-0.16051 0.18309,-0.16051" />
      <path
         inkscape:connector-curvature="0"
         id="path11895"
         style="fill:#c20831;fill-opacity:1;fill-rule:nonzero;stroke:none;stroke-width:0.352778"
         d="m 106.91642,210.35369 c 0.0342,0 0.21731,-0.15452 0.26282,-0.14887 0.0459,0.006 0.19438,0.12559 0.19438,0.12559 0,0 -0.26882,0.20814 -0.29739,0.20179 -0.0286,-0.006 -0.15981,-0.11254 -0.18874,-0.1069 -0.0279,0.006 -0.25118,0.16052 -0.25118,0.16052 l -0.23988,-0.10654 c 0,0 0.25717,-0.22049 0.29739,-0.22648 0.0395,-0.006 0.18238,0.0893 0.2226,0.10089" />
      <path
         inkscape:connector-curvature="0"
         id="path11899"
         style="fill:#c20831;fill-opacity:1;fill-rule:nonzero;stroke:none;stroke-width:0.352778"
         d="m 108.4244,210.36007 -0.2286,0.11889 0.1143,0.14287 0.24024,-0.15487 z" />
    </g>
  </g>
</svg>
