<?xml version="1.0" encoding="UTF-8" standalone="no"?>
<svg
   xmlns:dc="http://purl.org/dc/elements/1.1/"
   xmlns:cc="http://creativecommons.org/ns#"
   xmlns:rdf="http://www.w3.org/1999/02/22-rdf-syntax-ns#"
   xmlns:svg="http://www.w3.org/2000/svg"
   xmlns="http://www.w3.org/2000/svg"
   xmlns:sodipodi="http://sodipodi.sourceforge.net/DTD/sodipodi-0.dtd"
   xmlns:inkscape="http://www.inkscape.org/namespaces/inkscape"
   inkscape:version="1.0 (4035a4fb49, 2020-05-01)"
   height="105.70066"
   width="408.21933"
   sodipodi:docname="CX.svg"
   id="svg30"
   version="1.1"
   viewBox="0 0 408.21933 105.70066"
   fill-rule="evenodd"
   clip-rule="evenodd">
  <metadata
     id="metadata36">
    <rdf:RDF>
      <cc:Work
         rdf:about="">
        <dc:format>image/svg+xml</dc:format>
        <dc:type
           rdf:resource="http://purl.org/dc/dcmitype/StillImage" />
        <dc:title></dc:title>
      </cc:Work>
    </rdf:RDF>
  </metadata>
  <defs
     id="defs34">
    <clipPath
       id="clipPath70"
       clipPathUnits="userSpaceOnUse">
      <rect
         y="206.06293"
         x="88.083893"
         height="87.016205"
         width="374.22308"
         id="rect72"
         style="fill:#0000ff;fill-rule:evenodd" />
    </clipPath>
    <clipPath
       id="clipPath76"
       clipPathUnits="userSpaceOnUse">
      <rect
         y="108.36988"
         x="214.07056"
         height="96.091515"
         width="136.66348"
         id="rect78"
         style="fill:#0000ff;fill-rule:evenodd" />
    </clipPath>
  </defs>
  <sodipodi:namedview
     inkscape:current-layer="svg30"
     inkscape:window-maximized="1"
     inkscape:window-y="-8"
     inkscape:window-x="-8"
     inkscape:cy="-82.402298"
     inkscape:cx="283.20303"
     inkscape:zoom="1.8732143"
     fit-margin-bottom="0"
     fit-margin-right="0"
     fit-margin-left="0"
     fit-margin-top="0"
     showgrid="false"
     id="namedview32"
     inkscape:window-height="1027"
     inkscape:window-width="1920"
     inkscape:pageshadow="2"
     inkscape:pageopacity="0"
     guidetolerance="10"
     gridtolerance="10"
     objecttolerance="10"
     borderopacity="1"
     bordercolor="#666666"
     pagecolor="#ffffff" />
  <g
     clip-path="url(#clipPath70)"
     transform="translate(-51.782668,-206.06293)"
     id="g28"
     fill="#b70031">
    <path
       id="path2"
       d="m 247.082,113.467 0.098,0.514 0.106,0.87 v 0.014 l 0.052,0.385 0.007,0.04 0.007,0.018 0.004,0.023 0.037,0.168 0.05,0.32 0.166,1.033 c 0.136,0.49 0.205,1.037 0.346,1.524 l 0.037,0.433 0.119,0.458 0.055,0.565 0.15,0.511 0.11,0.625 c 0.062,0.216 0.136,0.456 0.172,0.679 l 0.121,0.804 0.212,0.728 0.025,0.239 0.121,0.514 0.032,0.235 c 0.084,0.313 0.185,0.714 0.286,1.03 l 0.054,0.272 0.155,0.511 0.067,0.344 0.132,0.474 0.073,0.344 0.154,0.412 0.216,0.866 0.194,0.504 0.109,0.536 c 0.088,0.271 0.198,0.592 0.299,0.87 l 0.296,1 0.08,0.383 0.302,0.971 0.121,0.486 c 0.107,0.262 0.257,0.485 0.355,0.76 l 0.194,0.676 0.356,0.881 0.187,0.617 0.251,0.511 0.157,0.449 c 0.041,0.114 0.162,0.306 0.242,0.462 0.095,0.203 0.109,0.426 0.188,0.648 0.121,0.341 0.286,0.688 0.431,0.998 l 0.116,0.376 c 0.078,0.223 0.232,0.394 0.323,0.602 l 0.205,0.602 c 0.13,0.282 0.227,0.424 0.227,0.828 l -0.052,0.077 c -0.08,0.03 -0.168,-0.098 -0.212,-0.139 -0.216,-0.212 -0.251,-0.419 -0.379,-0.71 -0.212,-0.442 -0.474,-0.859 -0.676,-1.294 l -0.251,-0.701 -0.223,-0.424 c -0.089,-0.202 -0.146,-0.419 -0.25,-0.602 -0.146,-0.265 -0.269,-0.584 -0.386,-0.881 l -0.098,-0.335 -0.198,-0.334 -0.194,-0.599 c -0.164,-0.365 -0.349,-0.738 -0.488,-1.117 l -0.319,-1.04 -0.161,-0.445 -0.098,-0.368 c -0.11,-0.317 -0.264,-0.654 -0.397,-0.967 l -0.146,-0.452 -0.227,-0.606 -0.194,-0.818 c -0.205,-0.566 -0.474,-1.169 -0.647,-1.782 l -0.066,-0.42 -0.29,-0.956 c -0.103,-0.358 -0.092,-0.738 -0.202,-1.087 l -0.442,-1.37 -0.07,-0.422 c -0.098,-0.348 -0.212,-0.75 -0.326,-1.07 l -0.119,-0.488 c -0.073,-0.176 -0.257,-0.114 -0.244,0.088 0.014,0.188 0.08,0.43 0.095,0.526 l 0.052,0.401 c 0.056,0.24 0.137,0.438 0.203,0.661 l 0.139,0.676 0.118,0.361 c 0.07,0.234 0.07,0.486 0.15,0.701 l 0.164,0.552 0.055,0.335 0.205,0.636 0.05,0.341 0.132,0.506 0.091,0.522 c 0.095,0.295 0.202,0.604 0.302,0.881 l 0.234,0.946 0.592,1.753 0.077,0.445 c 0.07,0.244 0.118,0.481 0.198,0.721 l 0.168,0.334 0.146,0.42 0.161,0.349 0.107,0.556 0.182,0.422 0.121,0.466 0.202,0.365 0.12,0.376 0.18,0.394 0.13,0.449 0.191,0.39 0.106,0.445 0.308,0.618 0.154,0.481 0.269,0.54 c 0.118,0.234 0.194,0.486 0.296,0.716 0.18,0.401 0.24,0.85 0.427,1.246 l 0.449,0.857 0.17,0.482 0.308,0.5 0.188,0.522 0.354,0.642 0.143,0.376 0.401,0.676 0.168,0.475 0.442,0.731 c 0.085,0.188 0.143,0.39 0.26,0.565 0.175,0.268 0.286,0.449 0.452,0.727 0.113,0.181 0.254,0.438 0.348,0.632 l 0.32,0.536 c 0.088,0.188 0.198,0.383 0.302,0.562 0.11,0.198 0.223,0.344 0.348,0.529 l 0.529,0.936 c 0.128,0.22 0.296,0.434 0.445,0.64 0.404,0.554 0.978,1.543 1.226,1.879 0.209,0.268 0.376,0.592 0.563,0.87 0.15,0.22 0.331,0.438 0.486,0.642 l 0.364,0.526 0.096,0.132 c 5.17,6.563 10.471,10.914 14.965,13.759 2.363,1.484 3.64,1.915 3.64,1.915 0.299,0.121 0.092,0.337 -0.058,0.438 l -26.644,17.03 c -0.084,0.058 -0.289,0.21 -0.212,0.379 0.066,0.13 0.338,0.058 0.412,0.032 21.385,-7.507 36.896,-13.678 46.379,-18.176 9.622,-4.564 12.848,-7.174 12.498,-8.471 -0.331,-1.226 -3.902,-0.701 -6.846,-0.964 -2.669,-0.244 -6.097,-0.721 -10.219,-2.158 -3.856,-1.337 -7.585,-2.869 -10.841,-4.63 0,0 -1.319,-0.69 -1.451,-0.772 l -0.756,-0.445 c -0.157,-0.095 -0.396,-0.236 -0.577,-0.317 -0.227,-0.098 -0.383,-0.216 -0.577,-0.342 l -0.679,-0.378 c -0.299,-0.181 -0.485,-0.328 -0.766,-0.529 -0.176,-0.133 -0.257,-0.161 -0.497,-0.306 l -0.518,-0.31 -0.69,-0.49 c -0.161,-0.116 -0.278,-0.188 -0.472,-0.302 -0.185,-0.119 -0.367,-0.269 -0.529,-0.386 -0.091,-0.07 -0.233,-0.146 -0.313,-0.234 -0.192,-0.181 -0.379,-0.352 -0.581,-0.511 l -0.54,-0.438 -0.424,-0.338 -0.769,-0.581 -0.533,-0.463 -0.618,-0.49 c -0.143,-0.106 -0.302,-0.223 -0.408,-0.331 l -0.42,-0.451 -0.434,-0.372 c -0.185,-0.23 -0.438,-0.47 -0.679,-0.655 -0.143,-0.132 -0.185,-0.194 -0.24,-0.268 l -0.212,-0.247 -0.209,-0.198 -0.269,-0.258 -0.216,-0.282 -0.191,-0.246 -0.338,-0.365 -0.242,-0.254 -0.144,-0.202 -0.143,-0.188 c -0.089,-0.098 -0.155,-0.066 -0.169,-0.052 -0.053,0.034 -0.073,0.139 -0.011,0.253 0.07,0.144 0.18,0.302 0.25,0.397 l 0.032,0.052 0.08,0.133 0.128,0.202 c 0.109,0.15 0.223,0.271 0.342,0.386 l 0.11,0.118 0.198,0.258 0.221,0.278 0.1,0.125 0.116,0.15 0.194,0.199 0.331,0.316 0.246,0.24 c 0.227,0.262 0.463,0.518 0.654,0.766 0.113,0.143 0.317,0.25 0.445,0.344 0.143,0.102 0.251,0.289 0.364,0.431 l 0.361,0.368 c 0.22,0.286 0.368,0.434 0.654,0.648 0.172,0.125 0.31,0.242 0.442,0.413 l 0.424,0.456 c 0.233,0.306 0.346,0.581 0.306,0.595 -0.161,0.044 -0.554,-0.31 -0.786,-0.46 l -0.408,-0.313 c -0.034,-0.034 -0.33,-0.24 -0.427,-0.365 -0.077,-0.07 -0.296,-0.302 -0.361,-0.386 -0.328,-0.416 -0.434,-0.445 -0.815,-0.808 -0.276,-0.271 -0.613,-0.508 -0.881,-0.749 l -0.24,-0.257 -0.275,-0.258 c -0.13,-0.157 -0.29,-0.466 -0.444,-0.577 l -0.427,-0.348 -0.164,-0.154 -0.227,-0.192 -0.545,-0.706 -0.289,-0.324 -0.511,-0.745 c -0.258,-0.33 -0.62,-0.566 -0.864,-0.905 -0.25,-0.337 -0.4,-0.734 -0.636,-1.096 l -0.372,-0.413 -0.168,-0.282 c -0.118,-0.192 -0.271,-0.379 -0.401,-0.565 -0.166,-0.244 -0.286,-0.511 -0.448,-0.768 -0.032,-0.036 -0.088,-0.21 -0.188,-0.342 -0.102,-0.125 -0.187,-0.271 -0.302,-0.456 l -0.25,-0.427 -0.203,-0.334 -0.212,-0.317 c -0.154,-0.236 -0.191,-0.346 -0.354,-0.565 -0.102,-0.136 -0.209,-0.239 -0.293,-0.216 -0.073,0.054 -0.043,0.136 -0.032,0.196 l 0.143,0.295 0.31,0.556 0.265,0.456 0.239,0.386 c 0.064,0.114 0.157,0.407 0.254,0.533 0.073,0.088 0.164,0.271 0.233,0.4 0.128,0.262 0.296,0.467 0.431,0.679 l 0.275,0.508 0.577,0.811 0.328,0.588 0.358,0.46 0.331,0.61 0.337,0.445 0.504,0.763 0.335,0.383 c 0.139,0.18 0.247,0.407 0.39,0.563 0.169,0.161 0.223,0.254 0.352,0.412 0.205,0.242 0.701,0.94 0.617,0.946 -0.296,0.037 -0.85,-0.599 -1.091,-0.832 -0.184,-0.175 -0.385,-0.313 -0.515,-0.482 -0.184,-0.254 -0.319,-0.536 -0.511,-0.78 l -0.24,-0.244 c -0.128,-0.169 -0.246,-0.344 -0.4,-0.482 l -0.188,-0.188 c -0.229,-0.293 -0.416,-0.607 -0.64,-0.907 l -0.302,-0.36 -0.178,-0.308 -0.299,-0.412 -0.173,-0.306 -0.401,-0.529 -0.223,-0.5 -0.768,-1.151 -0.15,-0.306 -0.587,-0.964 -0.176,-0.356 -0.317,-0.389 -0.157,-0.346 c -0.073,-0.158 -0.169,-0.323 -0.257,-0.472 l -0.136,-0.286 c -0.24,-0.365 -0.437,-0.769 -0.628,-1.177 l -0.359,-0.625 -0.328,-0.716 -0.173,-0.478 c -0.116,-0.247 -0.294,-0.456 -0.404,-0.716 l -0.188,-0.485 c -0.048,-0.095 -0.136,-0.164 -0.194,-0.125 -0.062,0.041 -0.08,0.118 -0.037,0.257 0.08,0.262 0.223,0.562 0.289,0.71 0.139,0.295 0.209,0.602 0.341,0.908 l 0.258,0.486 0.389,0.842 c 0.073,0.162 0.13,0.316 0.214,0.466 l 0.154,0.254 0.205,0.574 0.319,0.54 c 0.456,0.964 0.912,1.886 1.463,2.742 l 0.386,0.769 0.532,0.679 c 0.13,0.198 0.161,0.479 0.28,0.695 0.176,0.324 0.409,0.595 0.604,0.898 l 0.126,0.268 0.24,0.346 0.257,0.486 0.401,0.456 0.389,0.628 0.376,0.368 0.905,1.194 c 0.258,0.323 0.718,0.8 0.926,1.224 0.062,0.136 0.296,0.449 0.239,0.508 -0.118,0.084 -0.688,-0.538 -0.786,-0.629 -0.236,-0.234 -0.442,-0.547 -0.654,-0.811 l -0.64,-0.658 -0.157,-0.217 c -0.161,-0.228 -0.247,-0.5 -0.415,-0.72 l -0.24,-0.244 -0.334,-0.524 -0.636,-0.773 -0.583,-0.919 -0.348,-0.427 -0.11,-0.205 c -0.073,-0.119 -0.181,-0.251 -0.24,-0.383 l -0.168,-0.344 -0.676,-1.08 -0.257,-0.486 -0.554,-0.76 -0.504,-1 -0.419,-0.604 c -0.143,-0.217 -0.216,-0.478 -0.344,-0.714 -0.11,-0.205 -0.268,-0.397 -0.365,-0.602 l -0.293,-0.679 -0.205,-0.376 -0.157,-0.469 -0.694,-1.271 c -0.15,-0.31 -0.271,-0.62 -0.394,-0.946 -0.062,-0.175 -0.092,-0.346 -0.166,-0.511 -0.185,-0.397 -0.408,-0.812 -0.58,-1.205 l -0.224,-0.628 -0.047,-0.18 -0.268,-0.551 -0.196,-0.64 c -0.278,-0.694 -0.529,-1.478 -0.793,-2.204 l -0.088,-0.434 c -0.139,-0.368 -0.275,-0.738 -0.409,-1.114 -0.077,-0.184 -0.258,-0.121 -0.216,0.07 l 0.132,0.522 0.062,0.306 0.128,0.372 c 0.066,0.22 0.073,0.438 0.15,0.65 0.106,0.295 0.209,0.584 0.31,0.894 l 0.095,0.463 c 0.041,0.139 0.1,0.289 0.161,0.42 0.146,0.376 0.295,0.734 0.431,1.114 l 0.161,0.638 0.191,0.358 0.102,0.306 c 0.095,0.24 0.184,0.49 0.293,0.734 0.095,0.198 0.198,0.397 0.278,0.613 l 0.073,0.293 c 0.229,0.636 0.485,1.301 0.752,1.9 l 0.157,0.46 0.194,0.379 0.088,0.247 0.306,0.5 c 0.234,0.493 0.445,0.956 0.742,1.381 0.268,0.386 0.386,0.905 0.595,1.375 0.102,0.212 0.23,0.403 0.352,0.599 l 0.154,0.319 c 0.128,0.244 0.205,0.456 0.361,0.668 0.133,0.175 0.12,0.216 0.227,0.463 0.029,0.073 0.15,0.533 0.126,0.533 -0.04,0.026 -0.269,-0.109 -0.349,-0.196 -0.1,-0.114 -0.264,-0.264 -0.376,-0.518 l -0.23,-0.466 c -0.143,-0.313 -0.385,-0.572 -0.563,-0.85 -0.109,-0.161 -0.168,-0.344 -0.251,-0.526 l -0.475,-0.984 -0.244,-0.397 -0.212,-0.401 c -0.179,-0.278 -0.383,-0.599 -0.526,-0.905 l -0.268,-0.68 -0.133,-0.206 c -0.07,-0.11 -0.107,-0.242 -0.162,-0.365 l -0.29,-0.515 -0.42,-1.063 -0.282,-0.463 -0.247,-0.822 c -0.299,-0.683 -0.658,-1.388 -0.914,-2.113 l -0.095,-0.379 c -0.109,-0.312 -0.258,-0.6 -0.376,-0.907 l -0.109,-0.412 -0.26,-0.64 -0.052,-0.22 -0.236,-0.638 -0.172,-0.334 -0.121,-0.665 -0.335,-0.898 -0.136,-0.5 -0.216,-0.599 -0.132,-0.628 -0.172,-0.475 -0.247,-0.835 -0.055,-0.154 c -0.025,-0.07 -0.073,-0.143 -0.143,-0.118 -0.088,0.019 -0.084,0.128 -0.08,0.198 0.014,0.202 0.095,0.397 0.157,0.563 l 0.143,0.536 0.048,0.344 0.146,0.485 0.056,0.449 c 0.11,0.354 0.223,0.749 0.341,1.085 l 0.109,0.533 0.198,0.533 0.128,0.434 c 0.066,0.154 0.143,0.306 0.199,0.478 l 0.139,0.636 0.389,0.974 0.091,0.358 0.265,0.859 0.479,1.177 c 0.136,0.382 0.157,0.852 0.324,1.21 l 0.337,0.463 0.07,0.372 0.172,0.434 0.106,0.368 c 0.044,0.146 0.15,0.295 0.216,0.431 0.103,0.236 0.164,0.481 0.296,0.683 0.1,0.161 0.223,0.302 0.306,0.478 l 0.212,0.602 c 0.132,0.293 0.289,0.577 0.403,0.883 0.106,0.278 0.139,0.574 0.272,0.818 l 0.431,0.706 0.253,0.54 0.276,0.42 c 0.1,0.188 0.205,0.379 0.289,0.562 0.062,0.146 0.088,0.278 0.168,0.403 l 0.33,0.533 c 0.116,0.164 0.229,0.383 0.31,0.581 0.059,0.15 0.114,0.31 0.202,0.437 0.091,0.132 0.22,0.242 0.296,0.385 0.08,0.139 0.188,0.595 0.143,0.617 -0.096,0.036 -0.372,-0.234 -0.449,-0.328 -0.216,-0.268 -0.334,-0.622 -0.532,-0.907 -0.21,-0.302 -0.349,-0.478 -0.514,-0.828 -0.096,-0.209 -0.264,-0.569 -0.389,-0.749 -0.106,-0.172 -0.254,-0.32 -0.346,-0.511 l -0.166,-0.504 -0.433,-0.599 c -0.121,-0.265 -0.18,-0.529 -0.312,-0.769 l -0.199,-0.376 -0.18,-0.46 -0.518,-0.898 -0.394,-0.998 -0.306,-0.499 -0.286,-0.72 -0.229,-0.424 -0.227,-0.635 -0.65,-1.458 -0.188,-0.566 -0.242,-0.488 -0.442,-1.34 c -0.098,-0.22 -0.223,-0.42 -0.299,-0.658 -0.136,-0.361 -0.192,-0.738 -0.324,-1.114 l -0.574,-1.727 -0.132,-0.508 -0.181,-0.5 -0.109,-0.5 -0.455,-1.445 -0.084,-0.472 -0.095,-0.258 -0.073,-0.317 -0.324,-1.117 -0.08,-0.392 c -0.155,-0.506 -0.228,-1.114 -0.434,-1.584 -0.034,-0.091 -0.092,-0.185 -0.176,-0.164 -0.091,0.022 -0.073,0.126 -0.066,0.212 0.026,0.227 0.114,0.43 0.15,0.613 l 0.026,0.306 0.047,0.282 0.289,0.946 0.044,0.518 c 0.128,0.481 0.22,1.044 0.394,1.474 0.157,0.392 0.184,0.856 0.299,1.276 l 0.073,0.554 c 0.023,0.178 0.125,0.299 0.176,0.445 l 0.08,0.324 c 0.095,0.302 0.157,0.599 0.276,0.907 l 0.257,0.613 0.048,0.278 0.15,0.631 0.44,1.282 0.191,0.677 c 0.334,0.89 0.661,1.789 0.989,2.672 l 0.161,0.593 c 0.073,0.198 0.191,0.368 0.275,0.545 0.107,0.234 0.143,0.474 0.229,0.72 l 0.344,0.805 c 0.055,0.143 0.102,0.302 0.172,0.438 l 0.184,0.306 0.188,0.574 c 0.084,0.18 0.236,0.326 0.334,0.486 0.102,0.154 0.109,0.353 0.188,0.526 l 0.396,0.808 0.133,0.346 0.216,0.392 0.011,0.022 0.023,0.073 0.05,0.175 0.146,0.264 0.139,0.168 0.062,0.08 c 0.121,0.184 0.132,0.449 0.229,0.658 l 0.365,0.562 c 0.07,0.158 0.114,0.548 0.022,0.559 -0.404,0 -0.437,-0.566 -0.569,-0.859 -0.107,-0.227 -0.271,-0.419 -0.392,-0.642 l -0.095,-0.22 -0.088,-0.227 -0.091,-0.172 -0.18,-0.286 -0.004,-0.016 c -0.157,-0.244 -0.262,-0.599 -0.368,-0.766 l -0.206,-0.282 c -0.096,-0.161 -0.15,-0.349 -0.229,-0.526 l -0.275,-0.488 -0.191,-0.65 -0.188,-0.32 c -0.107,-0.232 -0.176,-0.479 -0.296,-0.698 l -0.198,-0.324 -0.236,-0.577 c -0.212,-0.379 -0.442,-0.804 -0.62,-1.205 l -0.239,-0.706 -0.299,-0.588 -0.13,-0.397 -0.264,-0.679 -0.143,-0.625 c -0.052,-0.168 -0.143,-0.346 -0.216,-0.514 -0.116,-0.25 -0.154,-0.504 -0.258,-0.754 -0.084,-0.185 -0.176,-0.394 -0.25,-0.589 -0.059,-0.166 -0.073,-0.319 -0.146,-0.475 l -0.164,-0.365 c -0.048,-0.15 -0.091,-0.386 -0.132,-0.577 l -0.23,-0.628 -0.088,-0.613 c -0.216,-0.658 -0.42,-1.348 -0.628,-1.998 -0.096,-0.302 -0.143,-0.602 -0.22,-0.894 l -0.07,-0.386 -0.198,-0.577 -0.073,-0.392 c -0.032,-0.137 -0.106,-0.276 -0.161,-0.412 l -0.31,-1.187 -0.08,-0.511 c -0.146,-0.478 -0.187,-1.022 -0.323,-1.528 l -0.084,-0.419 c -0.247,-0.929 -0.359,-1.969 -0.628,-2.867 l -0.034,-0.572 -0.168,-0.577 -0.052,-0.253 c -0.043,-0.15 -0.116,-0.265 -0.192,-0.251 -0.103,0.029 -0.08,0.118 -0.077,0.251 0.011,0.202 0.032,0.376 0.066,0.545 l 0.06,0.386 c 0.082,0.286 0.107,0.697 0.158,0.956 l 0.025,0.386 0.157,0.449 0.055,0.647 0.136,0.511 0.056,0.408 c 0.044,0.143 0.11,0.271 0.139,0.424 l 0.034,0.551 c 0.21,0.815 0.272,1.782 0.511,2.568 l 0.058,0.346 0.559,2.098 0.052,0.335 c 0.064,0.236 0.13,0.497 0.179,0.738 l 0.048,0.319 0.244,0.745 0.066,0.356 0.098,0.293 0.077,0.413 0.11,0.24 0.091,0.438 c 0.055,0.168 0.15,0.341 0.223,0.508 l 0.109,0.422 0.293,0.782 0.161,0.64 0.166,0.422 0.084,0.334 0.223,0.397 c 0.062,0.15 0.036,0.35 0.084,0.508 l 0.194,0.449 0.091,0.474 0.179,0.344 0.143,0.401 0.15,0.257 0.194,0.47 c 0.091,0.223 0.095,0.497 0.172,0.76 0.011,0.07 0.011,0.246 -0.036,0.268 -0.096,0.022 -0.212,-0.146 -0.289,-0.244 -0.118,-0.173 -0.232,-0.365 -0.319,-0.57 l -0.073,-0.23 -0.199,-0.536 -0.154,-0.334 -0.089,-0.499 -0.214,-0.334 -0.103,-0.331 -0.209,-0.376 -0.091,-0.378 c -0.044,-0.168 -0.098,-0.331 -0.168,-0.485 l -0.234,-0.478 -0.073,-0.268 -0.157,-0.372 -0.082,-0.271 c -0.06,-0.13 -0.13,-0.276 -0.178,-0.419 l -0.091,-0.361 -0.216,-0.636 -0.106,-0.478 -0.205,-0.545 -0.114,-0.467 c -0.07,-0.196 -0.168,-0.372 -0.229,-0.588 l -0.084,-0.481 c -0.118,-0.389 -0.24,-0.815 -0.365,-1.205 l -0.275,-1.381 -0.299,-0.936 -0.08,-0.47 c -0.088,-0.35 -0.22,-0.811 -0.335,-1.176 l -0.095,-0.599 -0.132,-0.683 -0.132,-0.407 -0.048,-0.514 -0.28,-1.046 -0.044,-0.499 -0.143,-0.486 -0.052,-0.354 -0.154,-0.672 -0.036,-0.442 -0.15,-0.551 -0.077,-0.668 -0.154,-0.452 -0.088,-0.376 -0.019,-0.452 -0.073,-0.515 c -0.011,-0.25 -0.07,-0.515 -0.109,-0.672 l -0.034,-0.282 c -0.06,-0.244 -0.124,-0.467 -0.247,-0.452 -0.091,0.014 -0.121,0.088 -0.084,0.247 l 0.113,0.526 c 0.023,0.1 0.03,0.35 0.03,0.434 l 0.032,0.292 0.044,0.23 0.05,0.278 -0.007,0.296 0.026,0.196 0.047,0.22 v 0.223 l 0.037,0.25 c 0.048,0.154 0.157,0.383 0.113,0.624 -0.047,0.253 0.03,0.493 0.089,0.716 l 0.025,0.431 0.15,0.588 0.055,0.463 0.23,0.599 0.036,0.526 0.088,0.46 0.004,0.23 0.136,0.552 0.03,0.244 c 0.022,0.106 0.106,0.504 0.122,0.636 l 0.037,0.335 0.168,0.559 0.03,0.342 0.14,0.518 0.048,0.394 c 0.059,0.293 0.102,0.584 0.18,0.866 l 0.199,0.49 0.095,0.452 0.158,0.386 0.04,0.361 0.121,0.408 0.036,0.319 0.128,0.349 0.062,0.442 0.172,0.5 0.066,0.475 c 0.098,0.349 0.22,0.732 0.331,1.062 l 0.107,0.547 0.15,0.323 0.044,0.368 c 0.054,0.214 0.088,0.496 0.168,0.703 0.073,0.236 0.216,0.427 0.299,0.658 l 0.164,0.724 0.264,0.599 0.109,0.58 0.293,0.548 0.212,0.697 0.059,0.293 c 0.084,0.295 0.247,0.544 0.353,0.832 l 0.089,0.368 c 0.07,0.205 0.154,0.42 0.251,0.614 l 0.268,0.529 0.161,0.496 0.216,0.515 0.08,0.293 c 0.203,0.452 0.456,0.918 0.661,1.36 l 0.283,0.752 0.289,0.592 0.125,0.383 0.383,0.734 c 0.034,0.054 0.11,0.31 0.08,0.419 l -0.022,0.034 c -0.077,0.025 -0.229,-0.107 -0.317,-0.191 -0.289,-0.289 -0.334,-0.822 -0.538,-1.19 l -0.174,-0.331 -0.088,-0.234 c -0.125,-0.235 -0.286,-0.449 -0.397,-0.706 l -0.166,-0.565 c -0.335,-0.709 -0.714,-1.396 -1.037,-2.112 -0.146,-0.324 -0.172,-0.701 -0.302,-1.048 -0.077,-0.209 -0.199,-0.383 -0.286,-0.577 l -0.157,-0.474 c -0.095,-0.205 -0.227,-0.396 -0.302,-0.617 l -0.122,-0.434 -0.242,-0.438 c -0.098,-0.216 -0.119,-0.442 -0.188,-0.698 l -0.143,-0.412 -0.091,-0.358 -0.358,-0.779 -0.132,-0.599 c -0.07,-0.15 -0.187,-0.272 -0.24,-0.426 -0.073,-0.162 -0.007,-0.358 -0.062,-0.548 -0.048,-0.185 -0.121,-0.356 -0.184,-0.526 l -0.077,-0.324 -0.244,-0.658 -0.088,-0.324 c -0.059,-0.132 -0.157,-0.253 -0.202,-0.4 l -0.126,-0.648 -0.275,-0.786 -0.037,-0.264 -0.168,-0.756 -0.055,-0.335 c -0.064,-0.227 -0.139,-0.456 -0.212,-0.676 l -0.077,-0.42 c -0.116,-0.358 -0.217,-0.779 -0.32,-1.124 l -0.048,-0.31 c -0.088,-0.268 -0.199,-0.599 -0.262,-0.881 l -0.07,-0.472 -0.143,-0.569 -0.004,-0.23 -0.055,-0.368 c -0.13,-0.49 -0.32,-1.099 -0.426,-1.596 -0.034,-0.178 -0.041,-0.358 -0.059,-0.536 -0.022,-0.118 -0.026,-0.268 -0.07,-0.401 l -0.11,-0.392 -0.06,-0.628 -0.012,-0.044 -0.199,-0.978 -0.092,-0.734 c -0.004,-0.164 -0.032,-0.324 -0.058,-0.492 l -0.121,-0.746 -0.036,-0.485 c -0.008,-0.095 -0.012,-0.257 -0.132,-0.257 -0.114,0 -0.1,0.143 -0.103,0.25 -0.022,0.265 0.034,0.617 0.048,0.776 0.024,0.304 -0.006,0.596 0.028,0.912 m 23.821,34.223 c 0.196,0.157 0.356,0.372 0.449,0.742 l -0.055,0.064 c -0.26,0.03 -0.548,-0.349 -0.679,-0.522 -0.034,-0.054 -0.18,-0.353 -0.139,-0.397 0.054,-0.048 0.349,0.055 0.425,0.114 m -7.841,-5.561 c 0.244,0.018 0.478,0.438 0.592,0.599 l 0.271,0.361 c 0.113,0.178 0.161,0.397 0.283,0.565 l 0.497,0.602 c 0.091,0.11 0.202,0.209 0.254,0.358 0.026,0.077 0.1,0.361 0.048,0.39 -0.178,0.066 -0.613,-0.43 -0.734,-0.606 -0.223,-0.338 -0.445,-0.718 -0.683,-1.048 -0.223,-0.293 -0.467,-0.5 -0.518,-1.015 -0.01,-0.056 -0.043,-0.21 -0.01,-0.206 m -0.504,1.789 c 0.264,0 0.536,0.408 0.632,0.595 0.032,0.058 0.098,0.209 0.091,0.32 -0.007,0.07 -0.026,0.102 -0.073,0.102 -0.132,-0.011 -0.191,-0.095 -0.271,-0.154 -0.227,-0.168 -0.408,-0.426 -0.419,-0.808 l 0.04,-0.056 m -6.445,-5.934 -0.154,-0.317 -0.102,-0.341 c -0.168,-0.379 -0.35,-0.79 -0.526,-1.158 -0.07,-0.154 -0.164,-0.442 -0.103,-0.642 l 0.096,0.018 0.139,0.139 0.088,0.164 c 0.08,0.128 0.188,0.257 0.254,0.404 l 0.317,0.932 0.341,0.566 0.11,0.328 0.018,0.268 c 0.014,0.102 -0.007,0.172 -0.044,0.172 -0.258,-0.019 -0.338,-0.338 -0.434,-0.534 m -1.062,4.246 0.041,-0.037 c 0.22,0.034 0.433,0.563 0.536,0.757 0.116,0.206 0.306,0.372 0.412,0.592 0.089,0.188 0.114,0.434 0.227,0.624 l 0.299,0.401 c 0.125,0.176 0.198,0.41 0.293,0.611 l 0.341,0.617 c 0.036,0.095 0.055,0.251 0.025,0.352 l -0.073,0.07 c -0.282,-0.011 -0.368,-0.434 -0.496,-0.625 l -0.296,-0.504 c -0.077,-0.113 -0.169,-0.23 -0.232,-0.356 -0.08,-0.166 -0.113,-0.337 -0.206,-0.486 l -0.187,-0.223 c -0.154,-0.205 -0.299,-0.427 -0.397,-0.69 l -0.07,-0.282 -0.184,-0.493 c -0.032,-0.088 -0.047,-0.266 -0.032,-0.325 m -138.512,95.968 c -5.94,0 -10.033,-3.892 -10.033,-10.997 0,-7.096 3.983,-11.728 10.249,-11.728 6.504,0 8.843,5.057 8.843,5.057 l 0.157,0.136 v -5.971 c 0,0 -3.902,-1.912 -9.442,-1.912 -10.016,-0.001 -16.301,6.173 -16.301,14.456 0,6.674 5.189,14.032 15.89,14.032 4.036,0 8.749,-1.609 8.749,-1.609 l 2.165,-7.391 -0.24,0.154 c -0.001,0 -3.51,5.773 -10.038,5.773" />
    <path
       id="path4"
       d="m 221.99,240.612 c 0,0 -2.309,-0.456 -0.848,-3.532 l 2.161,-4.451 h 10.342 l 2.099,4.451 c 1.471,3.076 -0.845,3.532 -0.845,3.532 l -0.181,0.192 h 11.366 l -0.188,-0.192 c 0,0 -2.098,-0.016 -3.792,-3.532 l -12.143,-25.248 -12.059,25.248 c -1.805,3.458 -3.792,3.532 -3.792,3.532 l -0.188,0.192 h 8.251 l -0.182,-0.192 z m 6.714,-19.279 3.881,8.95 h -8.15 l 4.27,-8.95 z m 157.087,8.714 c 0,0 1.844,0.271 1.844,3.526 v 3.374 c -1.235,0.529 -2.658,0.883 -4.277,0.883 -5.927,0 -10,-3.884 -10,-10.958 0,-7.082 3.972,-11.72 10.225,-11.72 6.486,0 8.815,5.062 8.815,5.062 l 0.15,0.122 v -5.962 c 0,0 -3.877,-1.892 -9.427,-1.892 -9.974,0 -16.244,6.149 -16.244,14.417 0,6.659 5.174,13.998 15.851,13.998 1.654,0 3.4,-0.269 4.907,-0.592 2.176,-0.456 3.815,-1.019 3.815,-1.019 l 1.976,-0.672 v -5.043 c 0,-3.256 1.848,-3.526 1.848,-3.526 l 0.185,-0.185 h -9.842 l 0.174,0.186 z m 27.482,-17.878 c -8.23,0 -15.638,5.317 -15.638,14.759 0,7.729 5.221,14.24 14.986,14.24 3.239,0 7.795,-0.581 11.471,-4.328 1.326,-1.368 2.375,-3.042 3.043,-4.841 0.582,-1.675 0.857,-3.428 0.857,-5.231 0,-8.195 -5.7,-14.599 -14.718,-14.599 m 6.918,22.722 c -1.486,1.91 -3.95,3.359 -7.075,3.359 -6.667,0 -9.911,-6.328 -9.911,-11.947 0,-6.784 3.988,-11.124 9.486,-11.124 6.48,0 9.72,5.545 9.72,11.862 0.001,2.779 -0.511,5.627 -2.22,7.85" />
    <path
       id="path6"
       d="m 452.672,213.211 0.181,0.194 c 0,0 1.852,0.269 1.852,3.551 v 0.128 l -0.007,0.275 v 14.944 l -16.325,-19.092 h -7.58 l 0.169,0.187 c 0,0 1.849,0.272 1.849,3.523 v 20.143 c 0,3.257 -1.849,3.51 -1.849,3.51 l -0.169,0.203 h 7.321 l -0.194,-0.203 c 0,0 -1.838,-0.268 -1.838,-3.51 v -18.45 l 19.284,22.392 h 2.585 v -24.05 c 0,-3.282 1.855,-3.551 1.855,-3.551 l 0.196,-0.194 h -7.328 z m -172.553,27.397 -0.185,0.203 h 9.842 l -0.014,-0.007 h 1.646 c 3.667,0 8.501,-0.122 12.455,-3.752 2.256,-2.105 4.249,-5.659 4.249,-10.374 0,-4.925 -2.231,-9.529 -6.748,-11.749 -3.164,-1.562 -6.985,-1.68 -8.471,-1.68 h -3.125 l 0.007,-0.004 h -9.842 l 0.185,0.184 c 0,0 1.834,0.265 1.834,3.523 v 20.143 c 0,3.254 -1.834,3.514 -1.834,3.514 m 7.625,-23.657 c 0,-0.282 0.022,-0.533 0.055,-0.776 h 2.716 c 2.842,0 8.665,0.126 11.045,5.815 0.658,1.559 0.894,3.242 0.894,4.921 0,4.524 -1.994,9.132 -7.722,10.534 -1.256,0.306 -2.735,0.431 -4.031,0.431 h -2.903 c -0.034,-0.247 -0.055,-0.497 -0.055,-0.782 v -20.142 h 10e-4 z m -124.622,23.678 -0.191,0.181 h 9.866 l -0.179,-0.181 c 0,0 -1.852,-0.289 -1.852,-3.542 l 0.025,-21.187 h 4.52 c 3.253,0 4.817,2.377 4.817,2.377 l 0.191,0.143 0.018,-5.495 c 0,0 -0.467,0.317 -3.716,0.317 h -17.488 c -3.257,0 -3.713,-0.317 -3.713,-0.317 l -0.014,5.495 0.184,-0.143 c 0,0 1.489,-2.377 4.738,-2.377 h 4.631 v 21.187 c 0,3.254 -1.837,3.542 -1.837,3.542 m 40.161,0 -0.187,0.181 h 9.874 l -0.196,-0.181 c 0,0 -1.841,-0.289 -1.841,-3.542 l -0.018,-20.179 c 0,-3.26 1.844,-3.496 1.844,-3.496 l 0.185,-0.181 h -9.859 l 0.173,0.181 c 0,0 1.852,0.235 1.852,3.496 0,3.245 0.014,7.904 0.014,7.904 h -13.579 v -7.904 c 0,-3.26 1.855,-3.48 1.855,-3.48 l 0.175,-0.187 h -9.85 l 0.188,0.187 c 0,0 1.837,0.22 1.837,3.48 v 20.179 c 0,3.253 -1.837,3.542 -1.837,3.542 l -0.188,0.181 h 9.85 l -0.175,-0.181 c 0,0 -1.855,-0.289 -1.855,-3.542 v -9.574 h 13.579 v 9.574 c 0,3.254 -1.841,3.542 -1.841,3.542" />
    <path
       id="path8"
       d="m 155.18,237.09 -12.149,-25.247 -12.059,25.247 c -1.804,3.454 -3.8,3.533 -3.8,3.533 l -0.176,0.187 h 8.254 l -0.194,-0.187 c 0,0 -2.304,-0.463 -0.842,-3.533 l 2.161,-4.454 h 10.343 l 2.102,4.454 c 1.454,3.07 -0.846,3.533 -0.846,3.533 l -0.18,0.187 h 11.368 l -0.194,-0.187 c 0,0.001 -2.099,-0.017 -3.786,-3.533 m -17.669,-6.796 4.256,-8.957 3.886,8.957 z M 243.64,216.951 c 0.901,1.372 5.516,7.82 8.004,11.581 v 8.555 c 0,3.253 -1.848,3.542 -1.848,3.542 l -0.18,0.181 h 9.859 l -0.188,-0.181 c 0,0 -1.83,-0.289 -1.83,-3.542 0,-1.375 -0.025,-4.8 -0.025,-8.555 2.496,-3.761 7.112,-10.183 8.022,-11.557 2.143,-3.252 4.601,-3.547 4.601,-3.547 l 0.188,-0.187 h -8.663 l 0.196,0.187 c 0,0 2.432,0.683 0.599,3.547 -0.901,1.388 -3.617,5.28 -6.09,9.034 -2.489,-3.755 -5.162,-7.674 -6.06,-9.059 -1.841,-2.87 0.613,-3.523 0.613,-3.523 l 0.182,-0.187 h -11.37 l 0.18,0.187 c -0.001,0.002 1.652,0.268 3.81,3.524" />
    <path
       id="path10"
       d="m 320.237,240.584 c 0,0 -1.852,-0.257 -1.852,-3.509 v -7.803 l 4.238,0.007 4.966,9.119 c 0.905,1.732 2.032,2.404 3.491,2.404 h 4.83 l -0.168,-0.198 c -1.295,-0.496 -1.595,-1.096 -3.104,-3.911 l -4.469,-8.342 c 0.264,-0.113 0.533,-0.234 0.79,-0.379 2.712,-1.478 4.367,-4.204 4.367,-6.828 0,-2.224 -0.911,-6.17 -7.04,-7.559 -1.374,-0.31 -2.896,-0.349 -4.9,-0.349 h -3.002 v -0.008 h -7.802 l 0.018,0.012 h -0.018 l 0.191,0.188 c 0,0 1.834,0.26 1.834,3.517 v 20.129 c 0,3.252 -1.834,3.509 -1.834,3.509 l -0.191,0.205 h 0.018 l -0.018,0.014 h 9.841 l -0.014,-0.014 h 0.014 l -0.185,-0.204 z m -0.54,-24.715 c 1.584,0 3.223,0 4.214,0.299 2.58,0.72 3.899,2.286 3.899,5.192 0,1.789 -0.919,3.961 -3.282,5.046 -0.776,0.354 -1.271,0.566 -4.426,0.566 l -1.716,-0.005 v -11.098 h 1.31 z m 37.739,24.754 -0.188,0.188 h 11.334 l -0.18,-0.188 c 0,0 -2.099,-0.026 -3.786,-3.517 l -12.108,-25.186 -12.031,25.186 c -1.804,3.44 -3.775,3.517 -3.775,3.517 l -0.188,0.188 h 8.233 l -0.18,-0.188 c 0,0 -2.322,-0.449 -0.857,-3.517 l 2.165,-4.458 h 10.304 l 2.106,4.458 c 1.457,3.068 -0.848,3.517 -0.848,3.517 m -10.43,-10.304 4.253,-8.934 3.863,8.934 z m -95.839,50.544 -3.108,5.798 c -1.087,1.925 -1.625,2.764 -2.669,2.764 v 0.271 h 2.617 c 0.629,0 2.404,-0.08 3.553,-2.147 l 3.104,-5.806 c 1.081,-1.925 1.614,-2.767 2.676,-2.767 v -0.271 h -2.628 c -0.623,0 -2.4,0.084 -3.546,2.158" />
    <path
       id="path12"
       d="m 272.48,272.977 -0.22,-0.216 c -0.989,-1.026 -1.65,-1.584 -2.465,-1.804 h 1.686 c 1.488,0 2.689,0.686 2.689,1.532 h 0.174 v -3.505 h -3.01 v -2.936 h 0.146 c 1.488,0 2.689,0.684 2.689,1.548 h 0.174 v -3.523 h -3.01 v -0.679 c 0,-0.538 0.427,-1.528 1.133,-1.528 v -0.188 h -5.836 v 0.188 c 0.698,0 1.124,0.989 1.124,1.528 v 0.679 h -4.229 v -0.679 c 0,-0.538 0.416,-1.528 1.099,-1.528 v -0.188 h -5.809 v 0.188 c 0.69,0 1.128,0.989 1.128,1.528 v 0.679 h -3.118 v 3.523 H 257 c 0,-0.864 1.206,-1.548 2.693,-1.548 h 0.251 v 2.936 h -3.118 v 3.505 h 0.175 c 0,-0.846 1.206,-1.532 2.693,-1.532 h 1.748 c -0.815,0.22 -1.475,0.776 -2.472,1.804 l -0.212,0.216 c -0.787,0.8 -1.375,2.113 -2.851,2.113 v 0.169 h 3.493 c 1.076,0 1.226,0.014 3.062,-1.907 l 0.227,-0.212 c 0.683,-0.731 1.727,-1.834 2.924,-2.063 1.199,0.23 2.23,1.333 2.94,2.063 l 0.212,0.212 c 1.848,1.921 1.984,1.907 3.059,1.907 h 3.5 v -0.169 c -1.474,0 -2.056,-1.313 -2.849,-2.113 m -8.95,-6.928 h 4.228 v 2.936 h -4.228 z m 9.034,21.093 h -10.008 c -0.752,0 -1.158,-0.522 -1.158,-1.172 0,-1.249 0.026,-2.131 0.026,-2.131 l 9.112,-0.008 c 1.903,0 3.803,-1.496 3.803,-3.676 v -4.415 h -18.03 v 0.173 c 0.842,0 1.555,0.905 1.555,2.716 l -0.041,7.669 c 0,1.639 1.055,2.921 3.268,2.921 h 12.952 l 1,-3.546 -0.244,0.026 c -0.233,1.078 -0.755,1.444 -2.234,1.444 m -11.122,-9.434 h 9.302 v 2.176 c -0.029,1.632 -0.481,1.973 -2.12,1.973 h -7.182 v -4.148 z m 34.17,-7.836 h -7.284 c -1.493,0 -2.701,-0.69 -2.701,-1.53 h -0.169 v 3.51 h 13.028 v -3.51 h -0.18 c 0,0.841 -1.208,1.53 -2.694,1.53 m -0.706,-8.004 v -0.187 h -5.822 v 0.187 c 0.588,0 0.992,0.584 1.098,1.584 h -5.148 v 3.494 h 0.174 c 0,-0.842 1.213,-1.525 2.696,-1.525 h 8.262 c 1.5,0 2.701,0.683 2.701,1.525 h 0.169 v -3.494 h -5.233 c 0.1,-1 0.508,-1.584 1.103,-1.584" />
    <path
       id="path14"
       d="m 287.813,268.411 c 0.354,0.996 1.172,1.012 2.213,1.012 h 1.282 v -0.085 c -0.338,0 -0.784,-0.283 -1,-0.926 l -0.424,-1.295 c -0.33,-1.004 -1.158,-1.004 -2.213,-1.004 h -1.242 v 0.091 c 0.316,0 0.754,0.289 0.971,0.914 l 0.413,1.294 z m 8.404,-0.031 0.424,-1.289 c 0.209,-0.643 0.635,-0.922 0.964,-0.922 v -0.091 h -1.242 c -1.051,0 -1.877,0 -2.213,1.012 l -0.431,1.289 c -0.203,0.64 -0.638,0.929 -0.974,0.929 v 0.08 h 1.274 c 1.037,0.001 1.867,0.001 2.198,-1.008" />
    <path
       id="path16"
       d="m 256.541,268.843 c -1.106,0 -1.672,-0.832 -2.808,-2.778 l -1.271,-2.188 c -1.219,-2.063 -3.084,-2.158 -3.758,-2.158 h -2.771 l -0.004,0.278 c 1.124,0 1.687,0.842 2.822,2.778 l 1.264,2.184 c 1.212,2.084 3.097,2.158 3.755,2.158 h 2.771 v -0.275 z m -4.104,2.878 c -1.223,-2.074 -3.094,-2.176 -3.762,-2.176 h -2.764 l -0.004,0.293 c 1.124,0 1.684,0.85 2.822,2.778 l 1.26,2.188 c 1.22,2.076 3.104,2.168 3.751,2.168 h 2.778 v -0.271 c -1.114,0 -1.684,-0.853 -2.826,-2.778 l -1.256,-2.202 z m 35.55,1.368 h -3.26 v 0.187 c 0.856,0 1.628,0.919 1.628,2.734 v 5.525 c 0,4.76 -0.372,8.022 -2.176,8.022 v 0.172 h 2.176 c 2.609,0 3.108,-2.509 3.198,-5.962 h 5.09 v 1.938 c 0,0.942 -0.044,1.942 -1.61,1.942 -0.842,0 -1.32,-0.23 -1.988,-0.985 h -0.176 l 1.716,3.066 c 0.574,0.088 0.877,0.128 1.676,0.128 0.793,0 3.61,0.018 3.61,-4.152 v -12.616 h -9.883 v 10e-4 z m 1.594,8.767 v -2.3 h 5.064 v 2.3 z m 0.828,-6.617 h 4.235 v 2.392 h -5.064 v -2.392 z m 21.315,11.903 c -1.511,0 -6.145,0.062 -6.762,0.062 -0.734,0 -1.151,-0.533 -1.151,-1.176 v -0.62 h 5.182 c 1.489,0 2.69,0.569 2.69,1.434 h 0.191 v -3.4 h -8.077 l -0.007,-1.883 h 6.692 c 1.486,0 2.44,0.569 2.44,1.412 h 0.18 v -3.389 h -9.33 l -0.011,-1.918 h 6.703 c 1.482,0 2.443,0.559 2.443,1.426 h 0.188 v -3.41 h -9.349 c 0,-1.06 -0.005,-1.757 -0.005,-1.757 l 5.028,-0.011 c 1.9,0 3.925,-1.37 3.925,-3.553 l -0.073,-2.808 -7.66,0.007 v -2.209 h 5.612 c 1.493,0 2.683,0.684 2.683,1.534 h 0.181 v -3.52 h -8.478 v -0.052 c 0,-0.54 0.424,-1.534 1.106,-1.534 v -0.188 h -5.806 v 0.188 c 0.69,0 1.114,0.995 1.114,1.534 v 4.249 l -1.882,0.004 v 3.521 h 0.169 c 0,-0.852 1.194,-1.555 2.687,-1.555 h 6.755 v 0.306 c 0,1.388 -0.114,2.04 -1.757,2.04 l -7.086,-0.011 -0.037,14.477 c 0,1.639 1.066,2.929 3.264,2.929 l 9.713,-0.059 1,-3.546 -0.251,0.026 c -0.236,1.082 -0.748,1.448 -2.226,1.448 m -92.878,-2.824 v -0.198 h -3.459 c -1.014,0 -2.092,-0.196 -3.582,1.753 l -1.628,2.084 c -0.658,0.85 -1.298,1.573 -2.68,1.573 v 0.176 h 3.418 c 1.008,0 2.063,0.168 3.587,-1.75 l 1.636,-2.084 c 0.668,-0.85 1.32,-1.555 2.708,-1.555" />
    <path
       id="path18"
       d="m 224.2,276.77 h -5.802 v 0.172 c 0.694,0 1.11,0.995 1.11,1.548 v 7.081 c 0,0.944 -0.023,1.942 -1.253,1.942 -0.835,0 -1.322,-0.236 -1.99,-0.988 h -0.178 l 1.712,3.061 c 0.562,0.08 0.884,0.122 1.672,0.122 0.786,0 3.612,0.016 3.612,-4.139 v -7.081 c 0,-0.554 0.427,-1.548 1.117,-1.548 v -0.17 h -10e-4 z m -13.092,4.755 0.22,0.216 c 1.823,2.008 2.808,1.748 3.827,1.748 h 3.631 v -0.168 c -1.382,0 -2.099,-0.734 -2.869,-1.58 l -0.223,-0.216 c -1.862,-2.004 -2.822,-1.746 -3.834,-1.746 h -3.659 v 0.191 c 1.378,0 2.128,0.706 2.908,1.555 m 21.273,6.43 -1.646,-2.084 c -1.469,-1.949 -2.568,-1.753 -3.568,-1.753 h -3.444 v 0.198 c 1.356,0 2.028,0.707 2.686,1.555 l 1.636,2.084 c 1.529,1.918 2.576,1.753 3.575,1.753 h 3.432 v -0.18 c -1.378,0 -2.009,-0.722 -2.67,-1.573" />
    <path
       id="path20"
       d="m 230.186,275.598 c -1.738,-1.34 -2.621,-1.942 -3.337,-2.213 h 5.868 c 1.471,0 2.68,0.698 2.68,1.541 h 0.172 v -3.502 h -12.484 v -2.293 h 7.471 c 1.496,0 2.687,0.686 2.687,1.541 h 0.191 v -3.514 h -10.349 v -1.994 h 9.1 c 1.482,0 2.672,0.677 2.672,1.53 h 0.181 v -3.505 h -11.954 c 0,-0.548 0.427,-1.537 1.117,-1.537 v -0.178 h -5.802 v 0.178 c 0.691,0 1.106,0.989 1.106,1.537 h -11.996 v 3.505 h 0.168 c 0,-0.853 1.208,-1.53 2.687,-1.53 h 9.143 v 1.994 h -10.385 v 3.514 h 0.18 c 0,-0.856 1.194,-1.541 2.676,-1.541 h 7.528 v 2.293 h -12.528 v 3.502 h 0.169 c 0,-0.842 1.201,-1.541 2.68,-1.541 h 5.878 c -0.724,0.271 -1.596,0.874 -3.344,2.213 l -1.289,1.03 c -2.988,2.202 -3.058,2.216 -4.116,2.216 v 0.203 h 4.05 c 1.406,0 2,-0.022 5.075,-2.419 l 1.285,-1.03 c 2.623,-2.046 2.83,-2.19 3.911,-2.195 1.078,0.005 1.274,0.15 3.9,2.195 l 1.289,1.03 c 3.073,2.399 3.665,2.419 5.071,2.419 h 4.061 v -0.203 c -1.078,0 -1.135,-0.014 -4.123,-2.216 l -1.286,-1.03 z m -6.424,7.89 h 3.63 c 1.003,0 1.997,0.26 3.838,-1.746 l 0.22,-0.217 c 0.766,-0.848 1.522,-1.555 2.899,-1.555 v -0.191 h -3.66 c -1.01,0 -1.967,-0.258 -3.829,1.746 l -0.236,0.217 c -0.775,0.845 -1.475,1.579 -2.86,1.579 v 0.167 h -0.001 z M 167.656,261.83 c 0.852,0 1.541,1.83 1.541,3.307 v 21.158 c 0,1.488 -0.69,2.693 -1.534,2.693 v 0.175 h 24.49 c 2.555,0 4.642,-2.081 4.642,-4.643 v -22.867 h -29.138 v 0.176 z m 5.119,1.786 h 20.438 v 20.64 c -0.036,1.643 -1.34,2.947 -2.972,2.947 h -17.466 z m 9.88,14.912 v -6.869 h -8.492 v 9.611 h 5.736 c 1.524,0 2.756,-1.22 2.756,-2.742 m -2.839,0 c 0,0.431 -0.361,0.769 -0.776,0.769 h -2.017 v -5.67 h 2.794 v 4.901 z m 12.298,6.759 c -1.454,-0.574 -1.9,-1.135 -2.753,-4.148 l -0.72,-2.724 c 0.911,-1.897 2,-4.139 2.172,-4.462 0.462,-0.974 0.743,-1.782 1.576,-2.117 v -0.176 h -4.252 v 0.121 c 0.724,0.268 0.808,0.964 -0.043,2.701 l -0.324,0.654 -1.576,-5.91 h 2.999 c 2.029,0 2.606,0.694 2.683,1.168 h 0.185 v -3.136 h -1.759 c 0.712,-1.58 0.982,-1.994 1.573,-2.051 v -0.191 h -4.356 v 0.121 c 0.632,0.236 0.749,0.822 0.191,2.12 h -2.063 c -0.33,-1.298 -0.091,-1.862 0.574,-2.11 v -0.114 h -5.543 v 0.18 c 1.219,0.24 1.541,1.048 1.823,2.044 h -8.387 v 3.136 h 0.172 c 0.077,-0.474 0.658,-1.168 2.683,-1.168 h 6.046 l 2.672,10.208 c -1.47,2.917 -2.336,3.936 -4.442,3.936 l -4.398,-0.007 c -1.55,0 -2.621,-0.404 -3.084,-1.096 h -0.173 l 1.753,3.065 h 6.097 c 2.282,0 3.821,-0.995 5.08,-2.852 0.499,1.51 1.142,2.929 3.234,2.929 h 2.359 v -0.122 h 0.001 z m 196.565,-21.362 h -9.236 c 0,-1.308 0.426,-2.11 1.102,-2.11 v -0.176 h -5.791 v 0.176 c 0.695,0 1.118,0.802 1.118,2.11 h -13.279 v 0.168 c 0.857,0 1.547,1.844 1.547,3.319 v 2.406 h 3.58 v -3.925 h 19.078 c 0.941,0 2.19,-0.144 1.796,1.513 -0.244,1.106 -0.511,2.412 -0.511,2.412 h 3.542 c 0,0 0.401,-1.69 0.602,-2.632 0.786,-3.571 -2.485,-3.262 -3.547,-3.262 m -18.108,9.527 3.132,-3.578 c 1.33,-1.53 1.877,-2.206 3.163,-2.206 v -0.216 h -3.257 c -1.396,0 -1.976,0.014 -4.064,2.422 l -3.121,3.578 c -1.33,1.534 -1.877,2.195 -3.157,2.195 v 0.234 h 3.245 c 1.402,0 1.982,-0.028 4.06,-2.429 m 18.476,13.788 h -9.661 v -8.248 h 8.233 c 1.465,0 2.665,0.701 2.665,1.541 h 0.188 v -3.498 h -25.745 v 3.498 h 0.169 c 0,-0.841 1.194,-1.541 2.683,-1.541 h 8.226 v 8.248 h -9.654 c -1.486,0 -2.693,-0.69 -2.693,-1.541 h -0.172 v 3.51 h 28.614 v -3.51 h -0.188 c 0.002,0.851 -1.192,1.541 -2.666,1.541 m -0.274,-13.788 -3.128,-3.578 c -2.081,-2.407 -2.665,-2.422 -4.068,-2.422 h -3.24 v 0.216 c 1.279,0 1.812,0.676 3.156,2.206 l 3.118,3.578 c 2.084,2.402 2.665,2.429 4.068,2.429 h 3.241 v -0.234 c -1.264,0 -1.822,-0.661 -3.146,-2.195" />
    <path
       id="path22"
       d="m 338.681,267.471 h 0.181 c 0,-0.846 1.192,-1.534 2.665,-1.534 h 8.248 c 1.482,0 2.686,0.688 2.686,1.534 h 0.175 v -3.512 h -5.237 c 0,-1.297 0.424,-2.092 1.114,-2.092 v -0.187 h -5.791 v 0.187 c 0.673,0 1.114,0.794 1.114,2.092 h -5.155 v 3.512 h 0.001 z m 12.894,20.154 c -0.989,0 -0.894,-1.552 -0.894,-2.172 v -13.152 c 0,-1.238 0.233,-4.66 -3.52,-4.66 h -6.103 v 13.892 c 0,4.76 -0.376,8.004 -2.168,8.004 v 0.172 h 2.168 c 3.076,0 3.235,-3.535 3.235,-7.988 v -11.933 h 1.315 c 1.657,0 1.811,1.316 1.844,2.954 v 12.515 c 0,1.412 -0.148,4.594 2.76,4.594 0.857,0 1.532,-0.313 1.886,-0.416 0.529,-1.264 1.162,-2.701 1.162,-2.701 h -0.166 c 0.001,0 -0.509,0.892 -1.52,0.892" />
    <path
       id="path24"
       d="m 329.696,267.079 c 0.328,0 0.769,0.558 0.982,1.873 l 0.431,2.647 c 0.337,2.063 0.749,2.07 1.811,2.07 h 1.26 v -0.194 c -0.331,0 -0.763,-0.565 -0.985,-1.877 l -0.431,-2.647 c -0.32,-2.047 -0.752,-2.066 -1.804,-2.066 h -1.264 z m 3.222,17.942 h 1.26 v -0.185 c -0.331,0 -0.762,-0.57 -0.985,-1.885 l -0.431,-2.642 c -0.33,-2.057 -0.752,-2.066 -1.804,-2.066 h -1.264 v 0.172 c 0.328,0 0.769,0.577 0.982,1.896 l 0.431,2.642 c 0.34,2.056 0.749,2.069 1.811,2.069" />
    <path
       id="path26"
       d="m 339.449,278.462 v -3.498 h -1.728 v -11.738 h -6.998 l 0.062,-0.102 c 0.756,-1.286 1.507,-1.844 1.877,-1.844 v -0.184 h -2.443 c -1.16,0 -1.646,0.007 -2.822,2.028 l -1.532,2.599 c -0.761,1.291 -1.506,1.842 -1.882,1.842 v 0.173 h 2.25 v 7.225 h -1.739 v 3.498 h 0.184 c 0,-0.628 0.628,-1.135 1.555,-1.375 v 4.45 c 0,4.759 -0.376,8.004 -2.171,8.004 v 0.169 h 2.147 c 3.11,0 3.239,-3.535 3.239,-7.986 v -4.799 h 5.046 v 8.759 c 0,0.949 -0.059,1.948 -1.603,1.948 -0.842,0 -1.313,-0.232 -1.981,-0.984 h -0.173 l 1.694,3.061 c 0.566,0.084 0.89,0.126 1.68,0.126 0.793,0 3.61,0.016 3.61,-4.152 v -8.597 c 0.911,0.24 1.537,0.749 1.537,1.375 h 0.192 v 0.002 z m -4.955,-3.498 h -5.046 v -9.592 h 5.046 z" />
  </g>
  <g
     clip-path="url(#clipPath76)"
     transform="translate(-214.07056,-98.760738)"
     fill="#b70031"
     id="g64">
    <path
       d="m 247.082,113.467 0.098,0.514 0.106,0.87 v 0.014 l 0.052,0.385 0.007,0.04 0.007,0.018 0.004,0.023 0.037,0.168 0.05,0.32 0.166,1.033 c 0.136,0.49 0.205,1.037 0.346,1.524 l 0.037,0.433 0.119,0.458 0.055,0.565 0.15,0.511 0.11,0.625 c 0.062,0.216 0.136,0.456 0.172,0.679 l 0.121,0.804 0.212,0.728 0.025,0.239 0.121,0.514 0.032,0.235 c 0.084,0.313 0.185,0.714 0.286,1.03 l 0.054,0.272 0.155,0.511 0.067,0.344 0.132,0.474 0.073,0.344 0.154,0.412 0.216,0.866 0.194,0.504 0.109,0.536 c 0.088,0.271 0.198,0.592 0.299,0.87 l 0.296,1 0.08,0.383 0.302,0.971 0.121,0.486 c 0.107,0.262 0.257,0.485 0.355,0.76 l 0.194,0.676 0.356,0.881 0.187,0.617 0.251,0.511 0.157,0.449 c 0.041,0.114 0.162,0.306 0.242,0.462 0.095,0.203 0.109,0.426 0.188,0.648 0.121,0.341 0.286,0.688 0.431,0.998 l 0.116,0.376 c 0.078,0.223 0.232,0.394 0.323,0.602 l 0.205,0.602 c 0.13,0.282 0.227,0.424 0.227,0.828 l -0.052,0.077 c -0.08,0.03 -0.168,-0.098 -0.212,-0.139 -0.216,-0.212 -0.251,-0.419 -0.379,-0.71 -0.212,-0.442 -0.474,-0.859 -0.676,-1.294 l -0.251,-0.701 -0.223,-0.424 c -0.089,-0.202 -0.146,-0.419 -0.25,-0.602 -0.146,-0.265 -0.269,-0.584 -0.386,-0.881 l -0.098,-0.335 -0.198,-0.334 -0.194,-0.599 c -0.164,-0.365 -0.349,-0.738 -0.488,-1.117 l -0.319,-1.04 -0.161,-0.445 -0.098,-0.368 c -0.11,-0.317 -0.264,-0.654 -0.397,-0.967 l -0.146,-0.452 -0.227,-0.606 -0.194,-0.818 c -0.205,-0.566 -0.474,-1.169 -0.647,-1.782 l -0.066,-0.42 -0.29,-0.956 c -0.103,-0.358 -0.092,-0.738 -0.202,-1.087 l -0.442,-1.37 -0.07,-0.422 c -0.098,-0.348 -0.212,-0.75 -0.326,-1.07 l -0.119,-0.488 c -0.073,-0.176 -0.257,-0.114 -0.244,0.088 0.014,0.188 0.08,0.43 0.095,0.526 l 0.052,0.401 c 0.056,0.24 0.137,0.438 0.203,0.661 l 0.139,0.676 0.118,0.361 c 0.07,0.234 0.07,0.486 0.15,0.701 l 0.164,0.552 0.055,0.335 0.205,0.636 0.05,0.341 0.132,0.506 0.091,0.522 c 0.095,0.295 0.202,0.604 0.302,0.881 l 0.234,0.946 0.592,1.753 0.077,0.445 c 0.07,0.244 0.118,0.481 0.198,0.721 l 0.168,0.334 0.146,0.42 0.161,0.349 0.107,0.556 0.182,0.422 0.121,0.466 0.202,0.365 0.12,0.376 0.18,0.394 0.13,0.449 0.191,0.39 0.106,0.445 0.308,0.618 0.154,0.481 0.269,0.54 c 0.118,0.234 0.194,0.486 0.296,0.716 0.18,0.401 0.24,0.85 0.427,1.246 l 0.449,0.857 0.17,0.482 0.308,0.5 0.188,0.522 0.354,0.642 0.143,0.376 0.401,0.676 0.168,0.475 0.442,0.731 c 0.085,0.188 0.143,0.39 0.26,0.565 0.175,0.268 0.286,0.449 0.452,0.727 0.113,0.181 0.254,0.438 0.348,0.632 l 0.32,0.536 c 0.088,0.188 0.198,0.383 0.302,0.562 0.11,0.198 0.223,0.344 0.348,0.529 l 0.529,0.936 c 0.128,0.22 0.296,0.434 0.445,0.64 0.404,0.554 0.978,1.543 1.226,1.879 0.209,0.268 0.376,0.592 0.563,0.87 0.15,0.22 0.331,0.438 0.486,0.642 l 0.364,0.526 0.096,0.132 c 5.17,6.563 10.471,10.914 14.965,13.759 2.363,1.484 3.64,1.915 3.64,1.915 0.299,0.121 0.092,0.337 -0.058,0.438 l -26.644,17.03 c -0.084,0.058 -0.289,0.21 -0.212,0.379 0.066,0.13 0.338,0.058 0.412,0.032 21.385,-7.507 36.896,-13.678 46.379,-18.176 9.622,-4.564 12.848,-7.174 12.498,-8.471 -0.331,-1.226 -3.902,-0.701 -6.846,-0.964 -2.669,-0.244 -6.097,-0.721 -10.219,-2.158 -3.856,-1.337 -7.585,-2.869 -10.841,-4.63 0,0 -1.319,-0.69 -1.451,-0.772 l -0.756,-0.445 c -0.157,-0.095 -0.396,-0.236 -0.577,-0.317 -0.227,-0.098 -0.383,-0.216 -0.577,-0.342 l -0.679,-0.378 c -0.299,-0.181 -0.485,-0.328 -0.766,-0.529 -0.176,-0.133 -0.257,-0.161 -0.497,-0.306 l -0.518,-0.31 -0.69,-0.49 c -0.161,-0.116 -0.278,-0.188 -0.472,-0.302 -0.185,-0.119 -0.367,-0.269 -0.529,-0.386 -0.091,-0.07 -0.233,-0.146 -0.313,-0.234 -0.192,-0.181 -0.379,-0.352 -0.581,-0.511 l -0.54,-0.438 -0.424,-0.338 -0.769,-0.581 -0.533,-0.463 -0.618,-0.49 c -0.143,-0.106 -0.302,-0.223 -0.408,-0.331 l -0.42,-0.451 -0.434,-0.372 c -0.185,-0.23 -0.438,-0.47 -0.679,-0.655 -0.143,-0.132 -0.185,-0.194 -0.24,-0.268 l -0.212,-0.247 -0.209,-0.198 -0.269,-0.258 -0.216,-0.282 -0.191,-0.246 -0.338,-0.365 -0.242,-0.254 -0.144,-0.202 -0.143,-0.188 c -0.089,-0.098 -0.155,-0.066 -0.169,-0.052 -0.053,0.034 -0.073,0.139 -0.011,0.253 0.07,0.144 0.18,0.302 0.25,0.397 l 0.032,0.052 0.08,0.133 0.128,0.202 c 0.109,0.15 0.223,0.271 0.342,0.386 l 0.11,0.118 0.198,0.258 0.221,0.278 0.1,0.125 0.116,0.15 0.194,0.199 0.331,0.316 0.246,0.24 c 0.227,0.262 0.463,0.518 0.654,0.766 0.113,0.143 0.317,0.25 0.445,0.344 0.143,0.102 0.251,0.289 0.364,0.431 l 0.361,0.368 c 0.22,0.286 0.368,0.434 0.654,0.648 0.172,0.125 0.31,0.242 0.442,0.413 l 0.424,0.456 c 0.233,0.306 0.346,0.581 0.306,0.595 -0.161,0.044 -0.554,-0.31 -0.786,-0.46 l -0.408,-0.313 c -0.034,-0.034 -0.33,-0.24 -0.427,-0.365 -0.077,-0.07 -0.296,-0.302 -0.361,-0.386 -0.328,-0.416 -0.434,-0.445 -0.815,-0.808 -0.276,-0.271 -0.613,-0.508 -0.881,-0.749 l -0.24,-0.257 -0.275,-0.258 c -0.13,-0.157 -0.29,-0.466 -0.444,-0.577 l -0.427,-0.348 -0.164,-0.154 -0.227,-0.192 -0.545,-0.706 -0.289,-0.324 -0.511,-0.745 c -0.258,-0.33 -0.62,-0.566 -0.864,-0.905 -0.25,-0.337 -0.4,-0.734 -0.636,-1.096 l -0.372,-0.413 -0.168,-0.282 c -0.118,-0.192 -0.271,-0.379 -0.401,-0.565 -0.166,-0.244 -0.286,-0.511 -0.448,-0.768 -0.032,-0.036 -0.088,-0.21 -0.188,-0.342 -0.102,-0.125 -0.187,-0.271 -0.302,-0.456 l -0.25,-0.427 -0.203,-0.334 -0.212,-0.317 c -0.154,-0.236 -0.191,-0.346 -0.354,-0.565 -0.102,-0.136 -0.209,-0.239 -0.293,-0.216 -0.073,0.054 -0.043,0.136 -0.032,0.196 l 0.143,0.295 0.31,0.556 0.265,0.456 0.239,0.386 c 0.064,0.114 0.157,0.407 0.254,0.533 0.073,0.088 0.164,0.271 0.233,0.4 0.128,0.262 0.296,0.467 0.431,0.679 l 0.275,0.508 0.577,0.811 0.328,0.588 0.358,0.46 0.331,0.61 0.337,0.445 0.504,0.763 0.335,0.383 c 0.139,0.18 0.247,0.407 0.39,0.563 0.169,0.161 0.223,0.254 0.352,0.412 0.205,0.242 0.701,0.94 0.617,0.946 -0.296,0.037 -0.85,-0.599 -1.091,-0.832 -0.184,-0.175 -0.385,-0.313 -0.515,-0.482 -0.184,-0.254 -0.319,-0.536 -0.511,-0.78 l -0.24,-0.244 c -0.128,-0.169 -0.246,-0.344 -0.4,-0.482 l -0.188,-0.188 c -0.229,-0.293 -0.416,-0.607 -0.64,-0.907 l -0.302,-0.36 -0.178,-0.308 -0.299,-0.412 -0.173,-0.306 -0.401,-0.529 -0.223,-0.5 -0.768,-1.151 -0.15,-0.306 -0.587,-0.964 -0.176,-0.356 -0.317,-0.389 -0.157,-0.346 c -0.073,-0.158 -0.169,-0.323 -0.257,-0.472 l -0.136,-0.286 c -0.24,-0.365 -0.437,-0.769 -0.628,-1.177 l -0.359,-0.625 -0.328,-0.716 -0.173,-0.478 c -0.116,-0.247 -0.294,-0.456 -0.404,-0.716 l -0.188,-0.485 c -0.048,-0.095 -0.136,-0.164 -0.194,-0.125 -0.062,0.041 -0.08,0.118 -0.037,0.257 0.08,0.262 0.223,0.562 0.289,0.71 0.139,0.295 0.209,0.602 0.341,0.908 l 0.258,0.486 0.389,0.842 c 0.073,0.162 0.13,0.316 0.214,0.466 l 0.154,0.254 0.205,0.574 0.319,0.54 c 0.456,0.964 0.912,1.886 1.463,2.742 l 0.386,0.769 0.532,0.679 c 0.13,0.198 0.161,0.479 0.28,0.695 0.176,0.324 0.409,0.595 0.604,0.898 l 0.126,0.268 0.24,0.346 0.257,0.486 0.401,0.456 0.389,0.628 0.376,0.368 0.905,1.194 c 0.258,0.323 0.718,0.8 0.926,1.224 0.062,0.136 0.296,0.449 0.239,0.508 -0.118,0.084 -0.688,-0.538 -0.786,-0.629 -0.236,-0.234 -0.442,-0.547 -0.654,-0.811 l -0.64,-0.658 -0.157,-0.217 c -0.161,-0.228 -0.247,-0.5 -0.415,-0.72 l -0.24,-0.244 -0.334,-0.524 -0.636,-0.773 -0.583,-0.919 -0.348,-0.427 -0.11,-0.205 c -0.073,-0.119 -0.181,-0.251 -0.24,-0.383 l -0.168,-0.344 -0.676,-1.08 -0.257,-0.486 -0.554,-0.76 -0.504,-1 -0.419,-0.604 c -0.143,-0.217 -0.216,-0.478 -0.344,-0.714 -0.11,-0.205 -0.268,-0.397 -0.365,-0.602 l -0.293,-0.679 -0.205,-0.376 -0.157,-0.469 -0.694,-1.271 c -0.15,-0.31 -0.271,-0.62 -0.394,-0.946 -0.062,-0.175 -0.092,-0.346 -0.166,-0.511 -0.185,-0.397 -0.408,-0.812 -0.58,-1.205 l -0.224,-0.628 -0.047,-0.18 -0.268,-0.551 -0.196,-0.64 c -0.278,-0.694 -0.529,-1.478 -0.793,-2.204 l -0.088,-0.434 c -0.139,-0.368 -0.275,-0.738 -0.409,-1.114 -0.077,-0.184 -0.258,-0.121 -0.216,0.07 l 0.132,0.522 0.062,0.306 0.128,0.372 c 0.066,0.22 0.073,0.438 0.15,0.65 0.106,0.295 0.209,0.584 0.31,0.894 l 0.095,0.463 c 0.041,0.139 0.1,0.289 0.161,0.42 0.146,0.376 0.295,0.734 0.431,1.114 l 0.161,0.638 0.191,0.358 0.102,0.306 c 0.095,0.24 0.184,0.49 0.293,0.734 0.095,0.198 0.198,0.397 0.278,0.613 l 0.073,0.293 c 0.229,0.636 0.485,1.301 0.752,1.9 l 0.157,0.46 0.194,0.379 0.088,0.247 0.306,0.5 c 0.234,0.493 0.445,0.956 0.742,1.381 0.268,0.386 0.386,0.905 0.595,1.375 0.102,0.212 0.23,0.403 0.352,0.599 l 0.154,0.319 c 0.128,0.244 0.205,0.456 0.361,0.668 0.133,0.175 0.12,0.216 0.227,0.463 0.029,0.073 0.15,0.533 0.126,0.533 -0.04,0.026 -0.269,-0.109 -0.349,-0.196 -0.1,-0.114 -0.264,-0.264 -0.376,-0.518 l -0.23,-0.466 c -0.143,-0.313 -0.385,-0.572 -0.563,-0.85 -0.109,-0.161 -0.168,-0.344 -0.251,-0.526 l -0.475,-0.984 -0.244,-0.397 -0.212,-0.401 c -0.179,-0.278 -0.383,-0.599 -0.526,-0.905 l -0.268,-0.68 -0.133,-0.206 c -0.07,-0.11 -0.107,-0.242 -0.162,-0.365 l -0.29,-0.515 -0.42,-1.063 -0.282,-0.463 -0.247,-0.822 c -0.299,-0.683 -0.658,-1.388 -0.914,-2.113 l -0.095,-0.379 c -0.109,-0.312 -0.258,-0.6 -0.376,-0.907 l -0.109,-0.412 -0.26,-0.64 -0.052,-0.22 -0.236,-0.638 -0.172,-0.334 -0.121,-0.665 -0.335,-0.898 -0.136,-0.5 -0.216,-0.599 -0.132,-0.628 -0.172,-0.475 -0.247,-0.835 -0.055,-0.154 c -0.025,-0.07 -0.073,-0.143 -0.143,-0.118 -0.088,0.019 -0.084,0.128 -0.08,0.198 0.014,0.202 0.095,0.397 0.157,0.563 l 0.143,0.536 0.048,0.344 0.146,0.485 0.056,0.449 c 0.11,0.354 0.223,0.749 0.341,1.085 l 0.109,0.533 0.198,0.533 0.128,0.434 c 0.066,0.154 0.143,0.306 0.199,0.478 l 0.139,0.636 0.389,0.974 0.091,0.358 0.265,0.859 0.479,1.177 c 0.136,0.382 0.157,0.852 0.324,1.21 l 0.337,0.463 0.07,0.372 0.172,0.434 0.106,0.368 c 0.044,0.146 0.15,0.295 0.216,0.431 0.103,0.236 0.164,0.481 0.296,0.683 0.1,0.161 0.223,0.302 0.306,0.478 l 0.212,0.602 c 0.132,0.293 0.289,0.577 0.403,0.883 0.106,0.278 0.139,0.574 0.272,0.818 l 0.431,0.706 0.253,0.54 0.276,0.42 c 0.1,0.188 0.205,0.379 0.289,0.562 0.062,0.146 0.088,0.278 0.168,0.403 l 0.33,0.533 c 0.116,0.164 0.229,0.383 0.31,0.581 0.059,0.15 0.114,0.31 0.202,0.437 0.091,0.132 0.22,0.242 0.296,0.385 0.08,0.139 0.188,0.595 0.143,0.617 -0.096,0.036 -0.372,-0.234 -0.449,-0.328 -0.216,-0.268 -0.334,-0.622 -0.532,-0.907 -0.21,-0.302 -0.349,-0.478 -0.514,-0.828 -0.096,-0.209 -0.264,-0.569 -0.389,-0.749 -0.106,-0.172 -0.254,-0.32 -0.346,-0.511 l -0.166,-0.504 -0.433,-0.599 c -0.121,-0.265 -0.18,-0.529 -0.312,-0.769 l -0.199,-0.376 -0.18,-0.46 -0.518,-0.898 -0.394,-0.998 -0.306,-0.499 -0.286,-0.72 -0.229,-0.424 -0.227,-0.635 -0.65,-1.458 -0.188,-0.566 -0.242,-0.488 -0.442,-1.34 c -0.098,-0.22 -0.223,-0.42 -0.299,-0.658 -0.136,-0.361 -0.192,-0.738 -0.324,-1.114 l -0.574,-1.727 -0.132,-0.508 -0.181,-0.5 -0.109,-0.5 -0.455,-1.445 -0.084,-0.472 -0.095,-0.258 -0.073,-0.317 -0.324,-1.117 -0.08,-0.392 c -0.155,-0.506 -0.228,-1.114 -0.434,-1.584 -0.034,-0.091 -0.092,-0.185 -0.176,-0.164 -0.091,0.022 -0.073,0.126 -0.066,0.212 0.026,0.227 0.114,0.43 0.15,0.613 l 0.026,0.306 0.047,0.282 0.289,0.946 0.044,0.518 c 0.128,0.481 0.22,1.044 0.394,1.474 0.157,0.392 0.184,0.856 0.299,1.276 l 0.073,0.554 c 0.023,0.178 0.125,0.299 0.176,0.445 l 0.08,0.324 c 0.095,0.302 0.157,0.599 0.276,0.907 l 0.257,0.613 0.048,0.278 0.15,0.631 0.44,1.282 0.191,0.677 c 0.334,0.89 0.661,1.789 0.989,2.672 l 0.161,0.593 c 0.073,0.198 0.191,0.368 0.275,0.545 0.107,0.234 0.143,0.474 0.229,0.72 l 0.344,0.805 c 0.055,0.143 0.102,0.302 0.172,0.438 l 0.184,0.306 0.188,0.574 c 0.084,0.18 0.236,0.326 0.334,0.486 0.102,0.154 0.109,0.353 0.188,0.526 l 0.396,0.808 0.133,0.346 0.216,0.392 0.011,0.022 0.023,0.073 0.05,0.175 0.146,0.264 0.139,0.168 0.062,0.08 c 0.121,0.184 0.132,0.449 0.229,0.658 l 0.365,0.562 c 0.07,0.158 0.114,0.548 0.022,0.559 -0.404,0 -0.437,-0.566 -0.569,-0.859 -0.107,-0.227 -0.271,-0.419 -0.392,-0.642 l -0.095,-0.22 -0.088,-0.227 -0.091,-0.172 -0.18,-0.286 -0.004,-0.016 c -0.157,-0.244 -0.262,-0.599 -0.368,-0.766 l -0.206,-0.282 c -0.096,-0.161 -0.15,-0.349 -0.229,-0.526 l -0.275,-0.488 -0.191,-0.65 -0.188,-0.32 c -0.107,-0.232 -0.176,-0.479 -0.296,-0.698 l -0.198,-0.324 -0.236,-0.577 c -0.212,-0.379 -0.442,-0.804 -0.62,-1.205 l -0.239,-0.706 -0.299,-0.588 -0.13,-0.397 -0.264,-0.679 -0.143,-0.625 c -0.052,-0.168 -0.143,-0.346 -0.216,-0.514 -0.116,-0.25 -0.154,-0.504 -0.258,-0.754 -0.084,-0.185 -0.176,-0.394 -0.25,-0.589 -0.059,-0.166 -0.073,-0.319 -0.146,-0.475 l -0.164,-0.365 c -0.048,-0.15 -0.091,-0.386 -0.132,-0.577 l -0.23,-0.628 -0.088,-0.613 c -0.216,-0.658 -0.42,-1.348 -0.628,-1.998 -0.096,-0.302 -0.143,-0.602 -0.22,-0.894 l -0.07,-0.386 -0.198,-0.577 -0.073,-0.392 c -0.032,-0.137 -0.106,-0.276 -0.161,-0.412 l -0.31,-1.187 -0.08,-0.511 c -0.146,-0.478 -0.187,-1.022 -0.323,-1.528 l -0.084,-0.419 c -0.247,-0.929 -0.359,-1.969 -0.628,-2.867 l -0.034,-0.572 -0.168,-0.577 -0.052,-0.253 c -0.043,-0.15 -0.116,-0.265 -0.192,-0.251 -0.103,0.029 -0.08,0.118 -0.077,0.251 0.011,0.202 0.032,0.376 0.066,0.545 l 0.06,0.386 c 0.082,0.286 0.107,0.697 0.158,0.956 l 0.025,0.386 0.157,0.449 0.055,0.647 0.136,0.511 0.056,0.408 c 0.044,0.143 0.11,0.271 0.139,0.424 l 0.034,0.551 c 0.21,0.815 0.272,1.782 0.511,2.568 l 0.058,0.346 0.559,2.098 0.052,0.335 c 0.064,0.236 0.13,0.497 0.179,0.738 l 0.048,0.319 0.244,0.745 0.066,0.356 0.098,0.293 0.077,0.413 0.11,0.24 0.091,0.438 c 0.055,0.168 0.15,0.341 0.223,0.508 l 0.109,0.422 0.293,0.782 0.161,0.64 0.166,0.422 0.084,0.334 0.223,0.397 c 0.062,0.15 0.036,0.35 0.084,0.508 l 0.194,0.449 0.091,0.474 0.179,0.344 0.143,0.401 0.15,0.257 0.194,0.47 c 0.091,0.223 0.095,0.497 0.172,0.76 0.011,0.07 0.011,0.246 -0.036,0.268 -0.096,0.022 -0.212,-0.146 -0.289,-0.244 -0.118,-0.173 -0.232,-0.365 -0.319,-0.57 l -0.073,-0.23 -0.199,-0.536 -0.154,-0.334 -0.089,-0.499 -0.214,-0.334 -0.103,-0.331 -0.209,-0.376 -0.091,-0.378 c -0.044,-0.168 -0.098,-0.331 -0.168,-0.485 l -0.234,-0.478 -0.073,-0.268 -0.157,-0.372 -0.082,-0.271 c -0.06,-0.13 -0.13,-0.276 -0.178,-0.419 l -0.091,-0.361 -0.216,-0.636 -0.106,-0.478 -0.205,-0.545 -0.114,-0.467 c -0.07,-0.196 -0.168,-0.372 -0.229,-0.588 l -0.084,-0.481 c -0.118,-0.389 -0.24,-0.815 -0.365,-1.205 l -0.275,-1.381 -0.299,-0.936 -0.08,-0.47 c -0.088,-0.35 -0.22,-0.811 -0.335,-1.176 l -0.095,-0.599 -0.132,-0.683 -0.132,-0.407 -0.048,-0.514 -0.28,-1.046 -0.044,-0.499 -0.143,-0.486 -0.052,-0.354 -0.154,-0.672 -0.036,-0.442 -0.15,-0.551 -0.077,-0.668 -0.154,-0.452 -0.088,-0.376 -0.019,-0.452 -0.073,-0.515 c -0.011,-0.25 -0.07,-0.515 -0.109,-0.672 l -0.034,-0.282 c -0.06,-0.244 -0.124,-0.467 -0.247,-0.452 -0.091,0.014 -0.121,0.088 -0.084,0.247 l 0.113,0.526 c 0.023,0.1 0.03,0.35 0.03,0.434 l 0.032,0.292 0.044,0.23 0.05,0.278 -0.007,0.296 0.026,0.196 0.047,0.22 v 0.223 l 0.037,0.25 c 0.048,0.154 0.157,0.383 0.113,0.624 -0.047,0.253 0.03,0.493 0.089,0.716 l 0.025,0.431 0.15,0.588 0.055,0.463 0.23,0.599 0.036,0.526 0.088,0.46 0.004,0.23 0.136,0.552 0.03,0.244 c 0.022,0.106 0.106,0.504 0.122,0.636 l 0.037,0.335 0.168,0.559 0.03,0.342 0.14,0.518 0.048,0.394 c 0.059,0.293 0.102,0.584 0.18,0.866 l 0.199,0.49 0.095,0.452 0.158,0.386 0.04,0.361 0.121,0.408 0.036,0.319 0.128,0.349 0.062,0.442 0.172,0.5 0.066,0.475 c 0.098,0.349 0.22,0.732 0.331,1.062 l 0.107,0.547 0.15,0.323 0.044,0.368 c 0.054,0.214 0.088,0.496 0.168,0.703 0.073,0.236 0.216,0.427 0.299,0.658 l 0.164,0.724 0.264,0.599 0.109,0.58 0.293,0.548 0.212,0.697 0.059,0.293 c 0.084,0.295 0.247,0.544 0.353,0.832 l 0.089,0.368 c 0.07,0.205 0.154,0.42 0.251,0.614 l 0.268,0.529 0.161,0.496 0.216,0.515 0.08,0.293 c 0.203,0.452 0.456,0.918 0.661,1.36 l 0.283,0.752 0.289,0.592 0.125,0.383 0.383,0.734 c 0.034,0.054 0.11,0.31 0.08,0.419 l -0.022,0.034 c -0.077,0.025 -0.229,-0.107 -0.317,-0.191 -0.289,-0.289 -0.334,-0.822 -0.538,-1.19 l -0.174,-0.331 -0.088,-0.234 c -0.125,-0.235 -0.286,-0.449 -0.397,-0.706 l -0.166,-0.565 c -0.335,-0.709 -0.714,-1.396 -1.037,-2.112 -0.146,-0.324 -0.172,-0.701 -0.302,-1.048 -0.077,-0.209 -0.199,-0.383 -0.286,-0.577 l -0.157,-0.474 c -0.095,-0.205 -0.227,-0.396 -0.302,-0.617 l -0.122,-0.434 -0.242,-0.438 c -0.098,-0.216 -0.119,-0.442 -0.188,-0.698 l -0.143,-0.412 -0.091,-0.358 -0.358,-0.779 -0.132,-0.599 c -0.07,-0.15 -0.187,-0.272 -0.24,-0.426 -0.073,-0.162 -0.007,-0.358 -0.062,-0.548 -0.048,-0.185 -0.121,-0.356 -0.184,-0.526 l -0.077,-0.324 -0.244,-0.658 -0.088,-0.324 c -0.059,-0.132 -0.157,-0.253 -0.202,-0.4 l -0.126,-0.648 -0.275,-0.786 -0.037,-0.264 -0.168,-0.756 -0.055,-0.335 c -0.064,-0.227 -0.139,-0.456 -0.212,-0.676 l -0.077,-0.42 c -0.116,-0.358 -0.217,-0.779 -0.32,-1.124 l -0.048,-0.31 c -0.088,-0.268 -0.199,-0.599 -0.262,-0.881 l -0.07,-0.472 -0.143,-0.569 -0.004,-0.23 -0.055,-0.368 c -0.13,-0.49 -0.32,-1.099 -0.426,-1.596 -0.034,-0.178 -0.041,-0.358 -0.059,-0.536 -0.022,-0.118 -0.026,-0.268 -0.07,-0.401 l -0.11,-0.392 -0.06,-0.628 -0.012,-0.044 -0.199,-0.978 -0.092,-0.734 c -0.004,-0.164 -0.032,-0.324 -0.058,-0.492 l -0.121,-0.746 -0.036,-0.485 c -0.008,-0.095 -0.012,-0.257 -0.132,-0.257 -0.114,0 -0.1,0.143 -0.103,0.25 -0.022,0.265 0.034,0.617 0.048,0.776 0.024,0.304 -0.006,0.596 0.028,0.912 m 23.821,34.223 c 0.196,0.157 0.356,0.372 0.449,0.742 l -0.055,0.064 c -0.26,0.03 -0.548,-0.349 -0.679,-0.522 -0.034,-0.054 -0.18,-0.353 -0.139,-0.397 0.054,-0.048 0.349,0.055 0.425,0.114 m -7.841,-5.561 c 0.244,0.018 0.478,0.438 0.592,0.599 l 0.271,0.361 c 0.113,0.178 0.161,0.397 0.283,0.565 l 0.497,0.602 c 0.091,0.11 0.202,0.209 0.254,0.358 0.026,0.077 0.1,0.361 0.048,0.39 -0.178,0.066 -0.613,-0.43 -0.734,-0.606 -0.223,-0.338 -0.445,-0.718 -0.683,-1.048 -0.223,-0.293 -0.467,-0.5 -0.518,-1.015 -0.01,-0.056 -0.043,-0.21 -0.01,-0.206 m -0.504,1.789 c 0.264,0 0.536,0.408 0.632,0.595 0.032,0.058 0.098,0.209 0.091,0.32 -0.007,0.07 -0.026,0.102 -0.073,0.102 -0.132,-0.011 -0.191,-0.095 -0.271,-0.154 -0.227,-0.168 -0.408,-0.426 -0.419,-0.808 l 0.04,-0.056 m -6.445,-5.934 -0.154,-0.317 -0.102,-0.341 c -0.168,-0.379 -0.35,-0.79 -0.526,-1.158 -0.07,-0.154 -0.164,-0.442 -0.103,-0.642 l 0.096,0.018 0.139,0.139 0.088,0.164 c 0.08,0.128 0.188,0.257 0.254,0.404 l 0.317,0.932 0.341,0.566 0.11,0.328 0.018,0.268 c 0.014,0.102 -0.007,0.172 -0.044,0.172 -0.258,-0.019 -0.338,-0.338 -0.434,-0.534 m -1.062,4.246 0.041,-0.037 c 0.22,0.034 0.433,0.563 0.536,0.757 0.116,0.206 0.306,0.372 0.412,0.592 0.089,0.188 0.114,0.434 0.227,0.624 l 0.299,0.401 c 0.125,0.176 0.198,0.41 0.293,0.611 l 0.341,0.617 c 0.036,0.095 0.055,0.251 0.025,0.352 l -0.073,0.07 c -0.282,-0.011 -0.368,-0.434 -0.496,-0.625 l -0.296,-0.504 c -0.077,-0.113 -0.169,-0.23 -0.232,-0.356 -0.08,-0.166 -0.113,-0.337 -0.206,-0.486 l -0.187,-0.223 c -0.154,-0.205 -0.299,-0.427 -0.397,-0.69 l -0.07,-0.282 -0.184,-0.493 c -0.032,-0.088 -0.047,-0.266 -0.032,-0.325 m -138.512,95.968 c -5.94,0 -10.033,-3.892 -10.033,-10.997 0,-7.096 3.983,-11.728 10.249,-11.728 6.504,0 8.843,5.057 8.843,5.057 l 0.157,0.136 v -5.971 c 0,0 -3.902,-1.912 -9.442,-1.912 -10.016,-0.001 -16.301,6.173 -16.301,14.456 0,6.674 5.189,14.032 15.89,14.032 4.036,0 8.749,-1.609 8.749,-1.609 l 2.165,-7.391 -0.24,0.154 c -0.001,0 -3.51,5.773 -10.038,5.773"
       id="path38" />
    <path
       d="m 221.99,240.612 c 0,0 -2.309,-0.456 -0.848,-3.532 l 2.161,-4.451 h 10.342 l 2.099,4.451 c 1.471,3.076 -0.845,3.532 -0.845,3.532 l -0.181,0.192 h 11.366 l -0.188,-0.192 c 0,0 -2.098,-0.016 -3.792,-3.532 l -12.143,-25.248 -12.059,25.248 c -1.805,3.458 -3.792,3.532 -3.792,3.532 l -0.188,0.192 h 8.251 l -0.182,-0.192 z m 6.714,-19.279 3.881,8.95 h -8.15 l 4.27,-8.95 z m 157.087,8.714 c 0,0 1.844,0.271 1.844,3.526 v 3.374 c -1.235,0.529 -2.658,0.883 -4.277,0.883 -5.927,0 -10,-3.884 -10,-10.958 0,-7.082 3.972,-11.72 10.225,-11.72 6.486,0 8.815,5.062 8.815,5.062 l 0.15,0.122 v -5.962 c 0,0 -3.877,-1.892 -9.427,-1.892 -9.974,0 -16.244,6.149 -16.244,14.417 0,6.659 5.174,13.998 15.851,13.998 1.654,0 3.4,-0.269 4.907,-0.592 2.176,-0.456 3.815,-1.019 3.815,-1.019 l 1.976,-0.672 v -5.043 c 0,-3.256 1.848,-3.526 1.848,-3.526 l 0.185,-0.185 h -9.842 l 0.174,0.186 z m 27.482,-17.878 c -8.23,0 -15.638,5.317 -15.638,14.759 0,7.729 5.221,14.24 14.986,14.24 3.239,0 7.795,-0.581 11.471,-4.328 1.326,-1.368 2.375,-3.042 3.043,-4.841 0.582,-1.675 0.857,-3.428 0.857,-5.231 0,-8.195 -5.7,-14.599 -14.718,-14.599 m 6.918,22.722 c -1.486,1.91 -3.95,3.359 -7.075,3.359 -6.667,0 -9.911,-6.328 -9.911,-11.947 0,-6.784 3.988,-11.124 9.486,-11.124 6.48,0 9.72,5.545 9.72,11.862 0.001,2.779 -0.511,5.627 -2.22,7.85"
       id="path40" />
    <path
       d="m 452.672,213.211 0.181,0.194 c 0,0 1.852,0.269 1.852,3.551 v 0.128 l -0.007,0.275 v 14.944 l -16.325,-19.092 h -7.58 l 0.169,0.187 c 0,0 1.849,0.272 1.849,3.523 v 20.143 c 0,3.257 -1.849,3.51 -1.849,3.51 l -0.169,0.203 h 7.321 l -0.194,-0.203 c 0,0 -1.838,-0.268 -1.838,-3.51 v -18.45 l 19.284,22.392 h 2.585 v -24.05 c 0,-3.282 1.855,-3.551 1.855,-3.551 l 0.196,-0.194 h -7.328 z m -172.553,27.397 -0.185,0.203 h 9.842 l -0.014,-0.007 h 1.646 c 3.667,0 8.501,-0.122 12.455,-3.752 2.256,-2.105 4.249,-5.659 4.249,-10.374 0,-4.925 -2.231,-9.529 -6.748,-11.749 -3.164,-1.562 -6.985,-1.68 -8.471,-1.68 h -3.125 l 0.007,-0.004 h -9.842 l 0.185,0.184 c 0,0 1.834,0.265 1.834,3.523 v 20.143 c 0,3.254 -1.834,3.514 -1.834,3.514 m 7.625,-23.657 c 0,-0.282 0.022,-0.533 0.055,-0.776 h 2.716 c 2.842,0 8.665,0.126 11.045,5.815 0.658,1.559 0.894,3.242 0.894,4.921 0,4.524 -1.994,9.132 -7.722,10.534 -1.256,0.306 -2.735,0.431 -4.031,0.431 h -2.903 c -0.034,-0.247 -0.055,-0.497 -0.055,-0.782 v -20.142 h 10e-4 z m -124.622,23.678 -0.191,0.181 h 9.866 l -0.179,-0.181 c 0,0 -1.852,-0.289 -1.852,-3.542 l 0.025,-21.187 h 4.52 c 3.253,0 4.817,2.377 4.817,2.377 l 0.191,0.143 0.018,-5.495 c 0,0 -0.467,0.317 -3.716,0.317 h -17.488 c -3.257,0 -3.713,-0.317 -3.713,-0.317 l -0.014,5.495 0.184,-0.143 c 0,0 1.489,-2.377 4.738,-2.377 h 4.631 v 21.187 c 0,3.254 -1.837,3.542 -1.837,3.542 m 40.161,0 -0.187,0.181 h 9.874 l -0.196,-0.181 c 0,0 -1.841,-0.289 -1.841,-3.542 l -0.018,-20.179 c 0,-3.26 1.844,-3.496 1.844,-3.496 l 0.185,-0.181 h -9.859 l 0.173,0.181 c 0,0 1.852,0.235 1.852,3.496 0,3.245 0.014,7.904 0.014,7.904 h -13.579 v -7.904 c 0,-3.26 1.855,-3.48 1.855,-3.48 l 0.175,-0.187 h -9.85 l 0.188,0.187 c 0,0 1.837,0.22 1.837,3.48 v 20.179 c 0,3.253 -1.837,3.542 -1.837,3.542 l -0.188,0.181 h 9.85 l -0.175,-0.181 c 0,0 -1.855,-0.289 -1.855,-3.542 v -9.574 h 13.579 v 9.574 c 0,3.254 -1.841,3.542 -1.841,3.542"
       id="path42" />
    <path
       d="m 155.18,237.09 -12.149,-25.247 -12.059,25.247 c -1.804,3.454 -3.8,3.533 -3.8,3.533 l -0.176,0.187 h 8.254 l -0.194,-0.187 c 0,0 -2.304,-0.463 -0.842,-3.533 l 2.161,-4.454 h 10.343 l 2.102,4.454 c 1.454,3.07 -0.846,3.533 -0.846,3.533 l -0.18,0.187 h 11.368 l -0.194,-0.187 c 0,0.001 -2.099,-0.017 -3.786,-3.533 m -17.669,-6.796 4.256,-8.957 3.886,8.957 z M 243.64,216.951 c 0.901,1.372 5.516,7.82 8.004,11.581 v 8.555 c 0,3.253 -1.848,3.542 -1.848,3.542 l -0.18,0.181 h 9.859 l -0.188,-0.181 c 0,0 -1.83,-0.289 -1.83,-3.542 0,-1.375 -0.025,-4.8 -0.025,-8.555 2.496,-3.761 7.112,-10.183 8.022,-11.557 2.143,-3.252 4.601,-3.547 4.601,-3.547 l 0.188,-0.187 h -8.663 l 0.196,0.187 c 0,0 2.432,0.683 0.599,3.547 -0.901,1.388 -3.617,5.28 -6.09,9.034 -2.489,-3.755 -5.162,-7.674 -6.06,-9.059 -1.841,-2.87 0.613,-3.523 0.613,-3.523 l 0.182,-0.187 h -11.37 l 0.18,0.187 c -0.001,0.002 1.652,0.268 3.81,3.524"
       id="path44" />
    <path
       d="m 320.237,240.584 c 0,0 -1.852,-0.257 -1.852,-3.509 v -7.803 l 4.238,0.007 4.966,9.119 c 0.905,1.732 2.032,2.404 3.491,2.404 h 4.83 l -0.168,-0.198 c -1.295,-0.496 -1.595,-1.096 -3.104,-3.911 l -4.469,-8.342 c 0.264,-0.113 0.533,-0.234 0.79,-0.379 2.712,-1.478 4.367,-4.204 4.367,-6.828 0,-2.224 -0.911,-6.17 -7.04,-7.559 -1.374,-0.31 -2.896,-0.349 -4.9,-0.349 h -3.002 v -0.008 h -7.802 l 0.018,0.012 h -0.018 l 0.191,0.188 c 0,0 1.834,0.26 1.834,3.517 v 20.129 c 0,3.252 -1.834,3.509 -1.834,3.509 l -0.191,0.205 h 0.018 l -0.018,0.014 h 9.841 l -0.014,-0.014 h 0.014 l -0.185,-0.204 z m -0.54,-24.715 c 1.584,0 3.223,0 4.214,0.299 2.58,0.72 3.899,2.286 3.899,5.192 0,1.789 -0.919,3.961 -3.282,5.046 -0.776,0.354 -1.271,0.566 -4.426,0.566 l -1.716,-0.005 v -11.098 h 1.31 z m 37.739,24.754 -0.188,0.188 h 11.334 l -0.18,-0.188 c 0,0 -2.099,-0.026 -3.786,-3.517 l -12.108,-25.186 -12.031,25.186 c -1.804,3.44 -3.775,3.517 -3.775,3.517 l -0.188,0.188 h 8.233 l -0.18,-0.188 c 0,0 -2.322,-0.449 -0.857,-3.517 l 2.165,-4.458 h 10.304 l 2.106,4.458 c 1.457,3.068 -0.848,3.517 -0.848,3.517 m -10.43,-10.304 4.253,-8.934 3.863,8.934 z m -95.839,50.544 -3.108,5.798 c -1.087,1.925 -1.625,2.764 -2.669,2.764 v 0.271 h 2.617 c 0.629,0 2.404,-0.08 3.553,-2.147 l 3.104,-5.806 c 1.081,-1.925 1.614,-2.767 2.676,-2.767 v -0.271 h -2.628 c -0.623,0 -2.4,0.084 -3.546,2.158"
       id="path46" />
    <path
       d="m 272.48,272.977 -0.22,-0.216 c -0.989,-1.026 -1.65,-1.584 -2.465,-1.804 h 1.686 c 1.488,0 2.689,0.686 2.689,1.532 h 0.174 v -3.505 h -3.01 v -2.936 h 0.146 c 1.488,0 2.689,0.684 2.689,1.548 h 0.174 v -3.523 h -3.01 v -0.679 c 0,-0.538 0.427,-1.528 1.133,-1.528 v -0.188 h -5.836 v 0.188 c 0.698,0 1.124,0.989 1.124,1.528 v 0.679 h -4.229 v -0.679 c 0,-0.538 0.416,-1.528 1.099,-1.528 v -0.188 h -5.809 v 0.188 c 0.69,0 1.128,0.989 1.128,1.528 v 0.679 h -3.118 v 3.523 H 257 c 0,-0.864 1.206,-1.548 2.693,-1.548 h 0.251 v 2.936 h -3.118 v 3.505 h 0.175 c 0,-0.846 1.206,-1.532 2.693,-1.532 h 1.748 c -0.815,0.22 -1.475,0.776 -2.472,1.804 l -0.212,0.216 c -0.787,0.8 -1.375,2.113 -2.851,2.113 v 0.169 h 3.493 c 1.076,0 1.226,0.014 3.062,-1.907 l 0.227,-0.212 c 0.683,-0.731 1.727,-1.834 2.924,-2.063 1.199,0.23 2.23,1.333 2.94,2.063 l 0.212,0.212 c 1.848,1.921 1.984,1.907 3.059,1.907 h 3.5 v -0.169 c -1.474,0 -2.056,-1.313 -2.849,-2.113 m -8.95,-6.928 h 4.228 v 2.936 h -4.228 z m 9.034,21.093 h -10.008 c -0.752,0 -1.158,-0.522 -1.158,-1.172 0,-1.249 0.026,-2.131 0.026,-2.131 l 9.112,-0.008 c 1.903,0 3.803,-1.496 3.803,-3.676 v -4.415 h -18.03 v 0.173 c 0.842,0 1.555,0.905 1.555,2.716 l -0.041,7.669 c 0,1.639 1.055,2.921 3.268,2.921 h 12.952 l 1,-3.546 -0.244,0.026 c -0.233,1.078 -0.755,1.444 -2.234,1.444 m -11.122,-9.434 h 9.302 v 2.176 c -0.029,1.632 -0.481,1.973 -2.12,1.973 h -7.182 v -4.148 z m 34.17,-7.836 h -7.284 c -1.493,0 -2.701,-0.69 -2.701,-1.53 h -0.169 v 3.51 h 13.028 v -3.51 h -0.18 c 0,0.841 -1.208,1.53 -2.694,1.53 m -0.706,-8.004 v -0.187 h -5.822 v 0.187 c 0.588,0 0.992,0.584 1.098,1.584 h -5.148 v 3.494 h 0.174 c 0,-0.842 1.213,-1.525 2.696,-1.525 h 8.262 c 1.5,0 2.701,0.683 2.701,1.525 h 0.169 v -3.494 h -5.233 c 0.1,-1 0.508,-1.584 1.103,-1.584"
       id="path48" />
    <path
       d="m 287.813,268.411 c 0.354,0.996 1.172,1.012 2.213,1.012 h 1.282 v -0.085 c -0.338,0 -0.784,-0.283 -1,-0.926 l -0.424,-1.295 c -0.33,-1.004 -1.158,-1.004 -2.213,-1.004 h -1.242 v 0.091 c 0.316,0 0.754,0.289 0.971,0.914 l 0.413,1.294 z m 8.404,-0.031 0.424,-1.289 c 0.209,-0.643 0.635,-0.922 0.964,-0.922 v -0.091 h -1.242 c -1.051,0 -1.877,0 -2.213,1.012 l -0.431,1.289 c -0.203,0.64 -0.638,0.929 -0.974,0.929 v 0.08 h 1.274 c 1.037,0.001 1.867,0.001 2.198,-1.008"
       id="path50" />
    <path
       d="m 256.541,268.843 c -1.106,0 -1.672,-0.832 -2.808,-2.778 l -1.271,-2.188 c -1.219,-2.063 -3.084,-2.158 -3.758,-2.158 h -2.771 l -0.004,0.278 c 1.124,0 1.687,0.842 2.822,2.778 l 1.264,2.184 c 1.212,2.084 3.097,2.158 3.755,2.158 h 2.771 v -0.275 z m -4.104,2.878 c -1.223,-2.074 -3.094,-2.176 -3.762,-2.176 h -2.764 l -0.004,0.293 c 1.124,0 1.684,0.85 2.822,2.778 l 1.26,2.188 c 1.22,2.076 3.104,2.168 3.751,2.168 h 2.778 v -0.271 c -1.114,0 -1.684,-0.853 -2.826,-2.778 l -1.256,-2.202 z m 35.55,1.368 h -3.26 v 0.187 c 0.856,0 1.628,0.919 1.628,2.734 v 5.525 c 0,4.76 -0.372,8.022 -2.176,8.022 v 0.172 h 2.176 c 2.609,0 3.108,-2.509 3.198,-5.962 h 5.09 v 1.938 c 0,0.942 -0.044,1.942 -1.61,1.942 -0.842,0 -1.32,-0.23 -1.988,-0.985 h -0.176 l 1.716,3.066 c 0.574,0.088 0.877,0.128 1.676,0.128 0.793,0 3.61,0.018 3.61,-4.152 v -12.616 h -9.883 v 10e-4 z m 1.594,8.767 v -2.3 h 5.064 v 2.3 z m 0.828,-6.617 h 4.235 v 2.392 h -5.064 v -2.392 z m 21.315,11.903 c -1.511,0 -6.145,0.062 -6.762,0.062 -0.734,0 -1.151,-0.533 -1.151,-1.176 v -0.62 h 5.182 c 1.489,0 2.69,0.569 2.69,1.434 h 0.191 v -3.4 h -8.077 l -0.007,-1.883 h 6.692 c 1.486,0 2.44,0.569 2.44,1.412 h 0.18 v -3.389 h -9.33 l -0.011,-1.918 h 6.703 c 1.482,0 2.443,0.559 2.443,1.426 h 0.188 v -3.41 h -9.349 c 0,-1.06 -0.005,-1.757 -0.005,-1.757 l 5.028,-0.011 c 1.9,0 3.925,-1.37 3.925,-3.553 l -0.073,-2.808 -7.66,0.007 v -2.209 h 5.612 c 1.493,0 2.683,0.684 2.683,1.534 h 0.181 v -3.52 h -8.478 v -0.052 c 0,-0.54 0.424,-1.534 1.106,-1.534 v -0.188 h -5.806 v 0.188 c 0.69,0 1.114,0.995 1.114,1.534 v 4.249 l -1.882,0.004 v 3.521 h 0.169 c 0,-0.852 1.194,-1.555 2.687,-1.555 h 6.755 v 0.306 c 0,1.388 -0.114,2.04 -1.757,2.04 l -7.086,-0.011 -0.037,14.477 c 0,1.639 1.066,2.929 3.264,2.929 l 9.713,-0.059 1,-3.546 -0.251,0.026 c -0.236,1.082 -0.748,1.448 -2.226,1.448 m -92.878,-2.824 v -0.198 h -3.459 c -1.014,0 -2.092,-0.196 -3.582,1.753 l -1.628,2.084 c -0.658,0.85 -1.298,1.573 -2.68,1.573 v 0.176 h 3.418 c 1.008,0 2.063,0.168 3.587,-1.75 l 1.636,-2.084 c 0.668,-0.85 1.32,-1.555 2.708,-1.555"
       id="path52" />
    <path
       d="m 224.2,276.77 h -5.802 v 0.172 c 0.694,0 1.11,0.995 1.11,1.548 v 7.081 c 0,0.944 -0.023,1.942 -1.253,1.942 -0.835,0 -1.322,-0.236 -1.99,-0.988 h -0.178 l 1.712,3.061 c 0.562,0.08 0.884,0.122 1.672,0.122 0.786,0 3.612,0.016 3.612,-4.139 v -7.081 c 0,-0.554 0.427,-1.548 1.117,-1.548 v -0.17 h -10e-4 z m -13.092,4.755 0.22,0.216 c 1.823,2.008 2.808,1.748 3.827,1.748 h 3.631 v -0.168 c -1.382,0 -2.099,-0.734 -2.869,-1.58 l -0.223,-0.216 c -1.862,-2.004 -2.822,-1.746 -3.834,-1.746 h -3.659 v 0.191 c 1.378,0 2.128,0.706 2.908,1.555 m 21.273,6.43 -1.646,-2.084 c -1.469,-1.949 -2.568,-1.753 -3.568,-1.753 h -3.444 v 0.198 c 1.356,0 2.028,0.707 2.686,1.555 l 1.636,2.084 c 1.529,1.918 2.576,1.753 3.575,1.753 h 3.432 v -0.18 c -1.378,0 -2.009,-0.722 -2.67,-1.573"
       id="path54" />
    <path
       d="m 230.186,275.598 c -1.738,-1.34 -2.621,-1.942 -3.337,-2.213 h 5.868 c 1.471,0 2.68,0.698 2.68,1.541 h 0.172 v -3.502 h -12.484 v -2.293 h 7.471 c 1.496,0 2.687,0.686 2.687,1.541 h 0.191 v -3.514 h -10.349 v -1.994 h 9.1 c 1.482,0 2.672,0.677 2.672,1.53 h 0.181 v -3.505 h -11.954 c 0,-0.548 0.427,-1.537 1.117,-1.537 v -0.178 h -5.802 v 0.178 c 0.691,0 1.106,0.989 1.106,1.537 h -11.996 v 3.505 h 0.168 c 0,-0.853 1.208,-1.53 2.687,-1.53 h 9.143 v 1.994 h -10.385 v 3.514 h 0.18 c 0,-0.856 1.194,-1.541 2.676,-1.541 h 7.528 v 2.293 h -12.528 v 3.502 h 0.169 c 0,-0.842 1.201,-1.541 2.68,-1.541 h 5.878 c -0.724,0.271 -1.596,0.874 -3.344,2.213 l -1.289,1.03 c -2.988,2.202 -3.058,2.216 -4.116,2.216 v 0.203 h 4.05 c 1.406,0 2,-0.022 5.075,-2.419 l 1.285,-1.03 c 2.623,-2.046 2.83,-2.19 3.911,-2.195 1.078,0.005 1.274,0.15 3.9,2.195 l 1.289,1.03 c 3.073,2.399 3.665,2.419 5.071,2.419 h 4.061 v -0.203 c -1.078,0 -1.135,-0.014 -4.123,-2.216 l -1.286,-1.03 z m -6.424,7.89 h 3.63 c 1.003,0 1.997,0.26 3.838,-1.746 l 0.22,-0.217 c 0.766,-0.848 1.522,-1.555 2.899,-1.555 v -0.191 h -3.66 c -1.01,0 -1.967,-0.258 -3.829,1.746 l -0.236,0.217 c -0.775,0.845 -1.475,1.579 -2.86,1.579 v 0.167 h -0.001 z M 167.656,261.83 c 0.852,0 1.541,1.83 1.541,3.307 v 21.158 c 0,1.488 -0.69,2.693 -1.534,2.693 v 0.175 h 24.49 c 2.555,0 4.642,-2.081 4.642,-4.643 v -22.867 h -29.138 v 0.176 z m 5.119,1.786 h 20.438 v 20.64 c -0.036,1.643 -1.34,2.947 -2.972,2.947 h -17.466 z m 9.88,14.912 v -6.869 h -8.492 v 9.611 h 5.736 c 1.524,0 2.756,-1.22 2.756,-2.742 m -2.839,0 c 0,0.431 -0.361,0.769 -0.776,0.769 h -2.017 v -5.67 h 2.794 v 4.901 z m 12.298,6.759 c -1.454,-0.574 -1.9,-1.135 -2.753,-4.148 l -0.72,-2.724 c 0.911,-1.897 2,-4.139 2.172,-4.462 0.462,-0.974 0.743,-1.782 1.576,-2.117 v -0.176 h -4.252 v 0.121 c 0.724,0.268 0.808,0.964 -0.043,2.701 l -0.324,0.654 -1.576,-5.91 h 2.999 c 2.029,0 2.606,0.694 2.683,1.168 h 0.185 v -3.136 h -1.759 c 0.712,-1.58 0.982,-1.994 1.573,-2.051 v -0.191 h -4.356 v 0.121 c 0.632,0.236 0.749,0.822 0.191,2.12 h -2.063 c -0.33,-1.298 -0.091,-1.862 0.574,-2.11 v -0.114 h -5.543 v 0.18 c 1.219,0.24 1.541,1.048 1.823,2.044 h -8.387 v 3.136 h 0.172 c 0.077,-0.474 0.658,-1.168 2.683,-1.168 h 6.046 l 2.672,10.208 c -1.47,2.917 -2.336,3.936 -4.442,3.936 l -4.398,-0.007 c -1.55,0 -2.621,-0.404 -3.084,-1.096 h -0.173 l 1.753,3.065 h 6.097 c 2.282,0 3.821,-0.995 5.08,-2.852 0.499,1.51 1.142,2.929 3.234,2.929 h 2.359 v -0.122 h 0.001 z m 196.565,-21.362 h -9.236 c 0,-1.308 0.426,-2.11 1.102,-2.11 v -0.176 h -5.791 v 0.176 c 0.695,0 1.118,0.802 1.118,2.11 h -13.279 v 0.168 c 0.857,0 1.547,1.844 1.547,3.319 v 2.406 h 3.58 v -3.925 h 19.078 c 0.941,0 2.19,-0.144 1.796,1.513 -0.244,1.106 -0.511,2.412 -0.511,2.412 h 3.542 c 0,0 0.401,-1.69 0.602,-2.632 0.786,-3.571 -2.485,-3.262 -3.547,-3.262 m -18.108,9.527 3.132,-3.578 c 1.33,-1.53 1.877,-2.206 3.163,-2.206 v -0.216 h -3.257 c -1.396,0 -1.976,0.014 -4.064,2.422 l -3.121,3.578 c -1.33,1.534 -1.877,2.195 -3.157,2.195 v 0.234 h 3.245 c 1.402,0 1.982,-0.028 4.06,-2.429 m 18.476,13.788 h -9.661 v -8.248 h 8.233 c 1.465,0 2.665,0.701 2.665,1.541 h 0.188 v -3.498 h -25.745 v 3.498 h 0.169 c 0,-0.841 1.194,-1.541 2.683,-1.541 h 8.226 v 8.248 h -9.654 c -1.486,0 -2.693,-0.69 -2.693,-1.541 h -0.172 v 3.51 h 28.614 v -3.51 h -0.188 c 0.002,0.851 -1.192,1.541 -2.666,1.541 m -0.274,-13.788 -3.128,-3.578 c -2.081,-2.407 -2.665,-2.422 -4.068,-2.422 h -3.24 v 0.216 c 1.279,0 1.812,0.676 3.156,2.206 l 3.118,3.578 c 2.084,2.402 2.665,2.429 4.068,2.429 h 3.241 v -0.234 c -1.264,0 -1.822,-0.661 -3.146,-2.195"
       id="path56" />
    <path
       d="m 338.681,267.471 h 0.181 c 0,-0.846 1.192,-1.534 2.665,-1.534 h 8.248 c 1.482,0 2.686,0.688 2.686,1.534 h 0.175 v -3.512 h -5.237 c 0,-1.297 0.424,-2.092 1.114,-2.092 v -0.187 h -5.791 v 0.187 c 0.673,0 1.114,0.794 1.114,2.092 h -5.155 v 3.512 h 0.001 z m 12.894,20.154 c -0.989,0 -0.894,-1.552 -0.894,-2.172 v -13.152 c 0,-1.238 0.233,-4.66 -3.52,-4.66 h -6.103 v 13.892 c 0,4.76 -0.376,8.004 -2.168,8.004 v 0.172 h 2.168 c 3.076,0 3.235,-3.535 3.235,-7.988 v -11.933 h 1.315 c 1.657,0 1.811,1.316 1.844,2.954 v 12.515 c 0,1.412 -0.148,4.594 2.76,4.594 0.857,0 1.532,-0.313 1.886,-0.416 0.529,-1.264 1.162,-2.701 1.162,-2.701 h -0.166 c 0.001,0 -0.509,0.892 -1.52,0.892"
       id="path58" />
    <path
       d="m 329.696,267.079 c 0.328,0 0.769,0.558 0.982,1.873 l 0.431,2.647 c 0.337,2.063 0.749,2.07 1.811,2.07 h 1.26 v -0.194 c -0.331,0 -0.763,-0.565 -0.985,-1.877 l -0.431,-2.647 c -0.32,-2.047 -0.752,-2.066 -1.804,-2.066 h -1.264 z m 3.222,17.942 h 1.26 v -0.185 c -0.331,0 -0.762,-0.57 -0.985,-1.885 l -0.431,-2.642 c -0.33,-2.057 -0.752,-2.066 -1.804,-2.066 h -1.264 v 0.172 c 0.328,0 0.769,0.577 0.982,1.896 l 0.431,2.642 c 0.34,2.056 0.749,2.069 1.811,2.069"
       id="path60" />
    <path
       d="m 339.449,278.462 v -3.498 h -1.728 v -11.738 h -6.998 l 0.062,-0.102 c 0.756,-1.286 1.507,-1.844 1.877,-1.844 v -0.184 h -2.443 c -1.16,0 -1.646,0.007 -2.822,2.028 l -1.532,2.599 c -0.761,1.291 -1.506,1.842 -1.882,1.842 v 0.173 h 2.25 v 7.225 h -1.739 v 3.498 h 0.184 c 0,-0.628 0.628,-1.135 1.555,-1.375 v 4.45 c 0,4.759 -0.376,8.004 -2.171,8.004 v 0.169 h 2.147 c 3.11,0 3.239,-3.535 3.239,-7.986 v -4.799 h 5.046 v 8.759 c 0,0.949 -0.059,1.948 -1.603,1.948 -0.842,0 -1.313,-0.232 -1.981,-0.984 h -0.173 l 1.694,3.061 c 0.566,0.084 0.89,0.126 1.68,0.126 0.793,0 3.61,0.016 3.61,-4.152 v -8.597 c 0.911,0.24 1.537,0.749 1.537,1.375 h 0.192 v 0.002 z m -4.955,-3.498 h -5.046 v -9.592 h 5.046 z"
       id="path62" />
  </g>
</svg>
