<?xml version="1.0" encoding="UTF-8" standalone="no"?>
<svg
   xmlns:dc="http://purl.org/dc/elements/1.1/"
   xmlns:cc="http://creativecommons.org/ns#"
   xmlns:rdf="http://www.w3.org/1999/02/22-rdf-syntax-ns#"
   xmlns:svg="http://www.w3.org/2000/svg"
   xmlns="http://www.w3.org/2000/svg"
   xmlns:sodipodi="http://sodipodi.sourceforge.net/DTD/sodipodi-0.dtd"
   xmlns:inkscape="http://www.inkscape.org/namespaces/inkscape"
   inkscape:version="1.0 (4035a4fb49, 2020-05-01)"
   sodipodi:docname="DD.svg"
   id="svg134"
   style="clip-rule:evenodd;fill-rule:evenodd;stroke-linejoin:round;stroke-miterlimit:1.41421"
   xml:space="preserve"
   version="1.1"
   viewBox="0 0 360.00073 96.624794"
   height="96.624794"
   width="360.00073"><metadata
   id="metadata140"><rdf:RDF><cc:Work
       rdf:about=""><dc:format>image/svg+xml</dc:format><dc:type
         rdf:resource="http://purl.org/dc/dcmitype/StillImage" /><dc:title></dc:title></cc:Work></rdf:RDF></metadata><defs
   id="defs138" /><sodipodi:namedview
   inkscape:current-layer="svg134"
   inkscape:window-maximized="1"
   inkscape:window-y="-8"
   inkscape:window-x="-8"
   inkscape:cy="48.312177"
   inkscape:cx="180.0002"
   inkscape:zoom="1.8732143"
   fit-margin-bottom="0"
   fit-margin-right="0"
   fit-margin-left="0"
   fit-margin-top="0"
   showgrid="false"
   id="namedview136"
   inkscape:window-height="1027"
   inkscape:window-width="1920"
   inkscape:pageshadow="2"
   inkscape:pageopacity="0"
   guidetolerance="10"
   gridtolerance="10"
   objecttolerance="10"
   borderopacity="1"
   bordercolor="#666666"
   pagecolor="#ffffff" />
    <g
   id="g132"
   transform="matrix(0.955713,0,0,0.955713,-11.232604,-95.987123)">
        <g
   id="img">
            <path
   id="path110"
   style="fill:#231f20;fill-rule:nonzero"
   d="m 58,100.607 c 4.959,-0.398 9.992,-0.112 14.864,0.932 9.52,2.013 18.431,6.873 25.267,13.795 6.053,6.053 10.502,13.671 12.813,21.899 2.312,8.165 2.511,16.902 0.609,25.167 -1.416,6.115 -3.977,11.956 -7.531,17.126 -6.376,9.371 -15.995,16.48 -26.833,19.786 -7.221,2.225 -14.926,2.784 -22.396,1.666 -8.562,-1.256 -16.778,-4.785 -23.588,-10.129 -7.631,-5.941 -13.51,-14.106 -16.667,-23.254 -3.79,-10.887 -3.716,-23.067 0.249,-33.892 2.274,-6.289 5.829,-12.105 10.365,-17.014 5.456,-5.928 12.366,-10.527 19.947,-13.261 4.151,-1.504 8.501,-2.436 12.901,-2.821 z" />
            <path
   id="path112"
   style="fill:#ffffff;fill-rule:nonzero"
   d="m 58.373,103.341 c 10.092,-0.845 20.432,1.603 29.045,6.96 7.929,4.884 14.379,12.13 18.294,20.581 3.281,7.01 4.785,14.827 4.375,22.557 -0.323,7.134 -2.312,14.193 -5.742,20.457 -2.883,5.307 -6.798,10.055 -11.434,13.92 -4.313,3.592 -9.259,6.425 -14.554,8.302 -8.14,2.908 -17.076,3.542 -25.54,1.827 -4.772,-0.957 -9.383,-2.66 -13.633,-5.021 -7.954,-4.387 -14.604,-11.086 -18.929,-19.065 -5.356,-9.768 -7.071,-21.439 -4.847,-32.339 1.616,-8.078 5.394,-15.696 10.813,-21.898 4.623,-5.307 10.427,-9.607 16.877,-12.428 4.835,-2.125 10.018,-3.43 15.275,-3.853 z" />
            <path
   id="path114"
   style="fill:#231f20;fill-rule:nonzero"
   d="m 65.27,114.34 c 1.442,-0.485 3.058,-0.062 4.276,0.771 2.61,1.988 4.859,4.449 6.574,7.245 2.424,3.878 3.58,8.451 6.413,12.068 0.597,0.77 1.268,1.467 1.964,2.138 1.28,1.243 2.175,2.908 2.299,4.71 0.212,2.336 -0.696,4.648 -2.15,6.463 -1.305,1.69 -3.219,2.734 -5.046,3.79 -4.188,2.299 -8.587,4.201 -13.012,6.003 -2.983,1.193 -5.99,2.337 -9.06,3.294 -1.877,0.584 -3.828,1.056 -5.817,0.969 -0.957,-0.074 -1.976,-0.261 -2.746,-0.882 -0.721,-0.547 -1.094,-1.479 -0.97,-2.374 0.274,-3.02 1.218,-5.916 1.579,-8.924 0.31,-2.585 0.534,-5.182 0.758,-7.78 -2.66,0.062 -5.295,0.336 -7.942,0.46 -1.081,0.1 -2.2,-0.447 -2.734,-1.417 -0.385,-0.671 -0.41,-1.504 -0.137,-2.224 1.616,-4.711 4.462,-8.924 7.855,-12.553 3.318,-3.505 7.134,-6.562 11.359,-8.911 2.088,-1.156 4.263,-2.15 6.537,-2.846 z" />
            <path
   id="path116"
   style="fill:#ffcb0a;fill-rule:nonzero"
   d="m 63.966,116.739 c 0.845,-0.324 1.727,-0.659 2.659,-0.634 0.646,0.012 1.268,0.273 1.79,0.634 0.919,0.683 1.678,1.553 2.486,2.349 1.217,1.131 2.1,2.56 2.982,3.952 2.125,3.467 3.952,7.109 5.841,10.701 0.249,0.472 0.61,0.882 0.97,1.279 1.131,1.219 2.436,2.312 3.393,3.692 0.758,1.093 0.957,2.485 0.882,3.778 -0.161,1.964 -1.218,3.728 -2.498,5.17 -1.242,1.255 -2.796,2.15 -4.35,2.971 -2.784,1.441 -5.692,2.622 -8.575,3.84 -4.102,1.69 -8.141,3.53 -12.379,4.872 -1.653,0.509 -3.343,0.957 -5.07,1.019 -0.796,-0.025 -1.678,-0.112 -2.3,-0.659 -0.497,-0.745 -0.323,-1.715 -0.261,-2.56 0.373,-2.709 1.156,-5.357 1.591,-8.066 0.41,-2.423 0.646,-4.884 0.746,-7.345 0.621,-0.038 1.243,-0.013 1.877,-0.038 -0.324,3.021 -0.697,6.028 -1.256,8.999 -0.273,1.454 -0.621,2.895 -0.795,4.362 -0.037,0.646 -0.112,1.343 0.224,1.926 0.161,0.336 0.496,0.597 0.882,0.634 1.019,0.125 2.038,-0.161 3.008,-0.447 2.572,-0.795 5.008,-1.951 7.432,-3.12 4.486,-2.212 8.973,-4.474 13.136,-7.27 1.827,-1.231 3.555,-2.623 5.109,-4.188 0.273,-0.299 0.633,-0.547 0.733,-0.958 -1.007,0.087 -1.952,0.498 -2.933,0.659 -1.778,0.224 -3.567,0.087 -5.345,0.037 -3.069,-0.198 -6.139,-0.484 -9.184,-0.919 -1.616,-0.224 -3.207,-0.559 -4.835,-0.684 -2.858,-0.261 -5.729,-0.298 -8.6,-0.248 -2.063,0 -4.126,0.124 -6.177,0.261 -0.957,0.074 -1.926,0.347 -2.871,0.074 -0.534,-0.136 -1.156,-0.447 -1.292,-1.031 0,-0.324 0.161,-0.622 0.273,-0.92 0.783,-2.113 1.802,-4.126 3.057,-6.003 1.368,-2.063 2.958,-3.99 4.599,-5.841 2.946,-3.343 6.624,-5.966 10.502,-8.128 1.479,-0.783 2.983,-1.529 4.549,-2.15 z" />
            <path
   id="path118"
   style="fill:#231f20;fill-rule:nonzero"
   d="m 66.24,125.103 c 0.423,-0.075 0.957,-0.1 1.292,0.211 0.224,0.211 0.075,0.547 -0.111,0.721 -0.684,0.683 -1.653,0.907 -2.461,1.379 -0.348,0.212 -0.733,0.324 -1.131,0.361 -0.025,-0.423 0.298,-0.733 0.509,-1.057 0.523,-0.646 1.082,-1.367 1.902,-1.615 z" />
            <path
   id="path120"
   style="fill:#ec2028;fill-rule:nonzero"
   d="m 57.478,145.038 c 1.205,-0.771 2.759,-0.746 4.089,-0.323 0.099,0.062 0.311,0.037 0.335,0.199 -1.155,0.981 -2.336,1.976 -3.169,3.243 -0.385,0.584 -0.77,1.168 -1.056,1.79 1.864,-2.436 4.685,-3.94 7.593,-4.773 1.094,-0.347 2.325,-0.447 3.406,0.025 0.857,0.386 1.566,1.106 1.964,1.964 0.099,0.273 0.248,0.609 0.037,0.882 -0.311,0.435 -0.821,0.684 -1.28,0.958 -0.932,0.509 -1.79,1.13 -2.734,1.615 -2.262,1.193 -4.574,2.312 -6.873,3.418 -1.467,0.683 -2.884,1.516 -4.475,1.852 -0.422,0.099 -0.919,0.099 -1.242,-0.224 -0.448,-0.46 -0.609,-1.119 -0.684,-1.74 -0.112,-1.118 0.05,-2.237 0.274,-3.331 0.248,-1.131 0.646,-2.249 1.317,-3.206 0.659,-0.945 1.554,-1.715 2.498,-2.349 z" />
            <path
   id="path122"
   style="fill:#ffcb0a;fill-rule:nonzero"
   d="m 81.241,164.712 c 0.422,-0.398 0.932,-0.733 1.541,-0.733 0.857,0 1.727,-0.025 2.598,0.025 0.211,0.149 0.012,0.36 -0.087,0.509 -0.933,1.28 -1.939,2.523 -2.921,3.791 -0.746,0.981 -1.479,2.038 -1.765,3.268 -0.124,0.361 0.037,0.709 0.211,1.02 2.921,-1.728 5.618,-3.903 8.812,-5.134 0.683,-0.037 1.367,0.15 2.038,0.286 -1.715,1.603 -3.641,2.934 -5.456,4.388 -0.721,0.584 -1.466,1.155 -2.088,1.827 1.492,1.292 3.406,1.913 5.208,2.634 0.658,0.274 1.354,0.485 2.001,0.808 -0.448,0.497 -1.132,0.659 -1.74,0.858 -1.268,0.335 -2.536,0.634 -3.841,0.721 -0.509,0.049 -0.969,-0.237 -1.454,-0.336 -1.951,-0.485 -3.927,-0.845 -5.891,-1.255 -0.485,-0.15 -0.982,0.099 -1.342,0.41 -0.497,0.509 -0.808,1.193 -1.392,1.603 -0.77,0.447 -1.703,0.41 -2.56,0.398 -0.211,-0.274 -0.485,-0.534 -0.559,-0.882 -0.05,-0.697 0.36,-1.318 0.459,-2.001 0.025,-0.535 -0.236,-1.02 -0.385,-1.529 -0.199,-0.584 -0.174,-1.243 0.124,-1.778 0.112,-0.323 0.497,-0.335 0.758,-0.496 0.87,-0.51 1.467,-1.38 1.952,-2.25 0.708,-1.392 1.404,-2.796 2.137,-4.188 0.336,-0.56 0.671,-1.181 1.281,-1.467 0.757,-0.274 1.715,0.087 2.361,-0.497 z" />
            <path
   id="path124"
   style="fill:#ffcb0a;fill-rule:nonzero"
   d="m 35.318,170.963 c 0.572,-0.584 1.442,-0.683 2.225,-0.77 1.255,-0.062 2.548,-0.137 3.766,0.248 0.572,0.187 0.783,0.845 0.795,1.392 0.037,0.485 -0.186,1.02 0.137,1.442 0.783,-0.199 1.293,-0.895 2.026,-1.206 0.696,-0.335 1.479,-0.335 2.224,-0.509 0.821,-0.149 1.641,-0.41 2.486,-0.423 1.318,0.05 2.473,0.758 3.728,1.069 0.311,0.236 0.411,0.684 0.572,1.032 0.348,1.019 0.56,2.112 0.448,3.194 -0.125,0.969 -0.361,1.914 -0.522,2.883 -0.373,0.062 -0.746,0.124 -1.119,0.137 -1.081,0.025 -2.137,0.335 -3.231,0.373 -0.721,0.012 -1.479,0.024 -2.163,-0.224 -0.398,-0.137 -0.783,-0.398 -0.944,-0.795 -0.162,-1.069 -0.137,-2.163 -0.299,-3.232 -0.124,-0.373 -0.596,-0.472 -0.944,-0.509 -0.833,-0.062 -1.678,0.099 -2.448,0.422 -0.373,0.149 -0.535,0.547 -0.721,0.87 -0.41,0.795 -1.057,1.429 -1.678,2.063 -0.472,0.46 -1.057,0.907 -1.74,0.907 -0.907,0 -1.827,0.05 -2.734,0.05 -0.386,0 -0.771,-0.037 -1.119,-0.198 0.062,-1.231 0.012,-2.523 0.559,-3.667 0.398,-0.944 0.883,-1.989 0.535,-3.02 -0.149,-0.497 -0.249,-1.119 0.161,-1.529 z" />
            <path
   id="path126"
   style="fill:#ffcb0a;fill-rule:nonzero"
   d="m 61.405,170.578 c 0.671,-0.224 1.405,-0.161 2.101,-0.099 1.615,0.136 3.206,0.472 4.76,0.919 0.671,0.212 1.354,0.423 1.939,0.821 0.236,0.174 0.522,0.397 0.497,0.733 -0.025,0.758 -0.448,1.442 -0.883,2.051 -1.044,1.404 -2.448,2.485 -3.902,3.467 -0.908,0.646 -2.076,0.783 -3.157,0.907 -1.032,0.112 -2.063,0.124 -3.095,0.137 -0.671,0.037 -1.367,0.112 -2.013,-0.087 -0.771,-0.36 -1.367,-1.131 -1.379,-2.001 0.049,-1.38 0.894,-2.597 0.956,-3.99 -0.099,-0.261 -0.236,-0.496 -0.373,-0.745 0.373,-0.435 0.92,-0.646 1.418,-0.907 1.018,-0.473 2.05,-0.895 3.131,-1.206 z" />
            <path
   id="path128"
   style="fill:#ffffff;fill-rule:nonzero"
   d="m 60.349,173.996 c 0.621,-0.187 1.268,-0.199 1.902,-0.087 0.757,0.149 1.578,0.248 2.212,0.758 -0.634,1.044 -1.902,1.417 -3.058,1.404 -0.472,-0.012 -1.019,-0.174 -1.218,-0.646 -0.236,-0.472 0.063,-0.969 0.162,-1.429 z" />
        </g>
        <path
   style="fill:#201600"
   d="m 142.794,124.098 h 12.702 v 0.874 l 10.888,29.203 v -30.077 h 12.702 v 54.247 H 166.384 L 155.496,150.16 v 28.185 h -12.702 z m 90.635,0 h 13.467 v 22.298 l 9.455,-22.298 h 13.466 l -11.46,27.028 11.46,27.219 h -13.466 l -9.455,-22.456 v 22.456 h -13.467 z m 97.607,0 h 13.562 v 54.247 h -13.562 z m 21.298,0 h 17.669 c 8.93,0 16.236,7.306 16.236,16.236 v 0.286 c 0,5.728 -2.624,12.221 -7.138,15.113 l 9.335,22.612 h -13.562 l -8.684,-21.489 h -0.294 v 21.489 h -13.562 z m 13.371,11.269 h 3.916 c 6.2,0 6.024,14.899 0,14.899 h -3.916 z m -64.13,-11.365 h -4.252 L 287.04,178.25 h 13.562 l 1.212,-6.399 h 8.831 l 1.195,6.303 h 13.562 l -10.283,-54.247 h -13.563 z m 1.671,36.675 2.863,-22.433 3.104,22.528 z m -97.194,-37.466 c 10.755,0 19.474,12.551 19.474,28.034 0,15.483 -8.719,28.035 -19.474,28.035 -10.755,0 -19.474,-12.552 -19.474,-28.035 0,-15.483 8.719,-28.034 19.474,-28.034 z m 0.196,13.2 c 3.284,0 5.947,6.641 5.947,14.834 0,8.193 -2.663,14.834 -5.947,14.834 -3.284,0 -5.947,-6.641 -5.947,-14.834 0,-8.193 2.663,-14.834 5.947,-14.834 z"
   id="text" />
    </g>
</svg>
