<?xml version="1.0" encoding="UTF-8" standalone="no"?>
<svg
   xmlns:dc="http://purl.org/dc/elements/1.1/"
   xmlns:cc="http://creativecommons.org/ns#"
   xmlns:rdf="http://www.w3.org/1999/02/22-rdf-syntax-ns#"
   xmlns:svg="http://www.w3.org/2000/svg"
   xmlns="http://www.w3.org/2000/svg"
   xmlns:sodipodi="http://sodipodi.sourceforge.net/DTD/sodipodi-0.dtd"
   xmlns:inkscape="http://www.inkscape.org/namespaces/inkscape"
   inkscape:version="1.0 (4035a4fb49, 2020-05-01)"
   height="67.760002"
   width="440"
   sodipodi:docname="DL.svg"
   id="svg309"
   version="1.1"
   viewBox="0 0 440 67.760002"
   fill-rule="evenodd"
   clip-rule="evenodd">
  <metadata
     id="metadata315">
    <rdf:RDF>
      <cc:Work
         rdf:about="">
        <dc:format>image/svg+xml</dc:format>
        <dc:type
           rdf:resource="http://purl.org/dc/dcmitype/StillImage" />
        <dc:title></dc:title>
      </cc:Work>
    </rdf:RDF>
  </metadata>
  <defs
     id="defs313" />
  <sodipodi:namedview
     inkscape:current-layer="svg309"
     inkscape:window-maximized="1"
     inkscape:window-y="-8"
     inkscape:window-x="-8"
     inkscape:cy="33.88"
     inkscape:cx="220"
     inkscape:zoom="1.8732143"
     fit-margin-bottom="0"
     fit-margin-right="0"
     fit-margin-left="0"
     fit-margin-top="0"
     showgrid="false"
     id="namedview311"
     inkscape:window-height="1027"
     inkscape:window-width="1920"
     inkscape:pageshadow="2"
     inkscape:pageopacity="0"
     guidetolerance="10"
     gridtolerance="10"
     objecttolerance="10"
     borderopacity="1"
     bordercolor="#666666"
     pagecolor="#ffffff" />
  <path
     id="path301"
     fill="#98002e"
     d="M 81.708,60.544 42.416,41.624 V 0 Z M 84.832,67.76 42.416,49.852 V 67.76 Z" />
  <path
     id="path303"
     fill="#e31837"
     d="M 3.124,60.544 42.416,0 V 41.624 Z M 0,67.76 H 42.416 V 49.852 Z" />
  <path
     id="path305"
     fill="#98002e"
     d="m 88.264,55.352 c 1.54,0 2.816,1.232 2.816,2.772 0,1.54 -1.232,2.816 -2.772,2.816 -1.54,0 -2.816,-1.232 -2.816,-2.772 0,-1.584 1.232,-2.816 2.772,-2.816 z m 0,5.148 c 1.32,0 2.376,-1.056 2.376,-2.376 0,-1.32 -1.056,-2.376 -2.376,-2.376 -1.32,0 -2.376,1.056 -2.376,2.376 0,1.32 1.056,2.376 2.376,2.376 z M 87.648,59.752 H 87.252 V 56.54 h 1.232 c 0.748,0 1.012,0.308 1.012,0.88 0.044,0.484 -0.352,0.88 -0.792,0.924 l 0.968,1.408 h -0.44 l -0.968,-1.408 h -0.572 z m 0,-1.804 h 0.528 c 0.44,0 0.924,-0.044 0.924,-0.572 0,-0.396 -0.396,-0.528 -0.704,-0.528 h -0.704 v 1.1 z" />
  <path
     id="path307"
     fill="#003d79"
     d="m 117.964,60.544 h 19.052 C 156.64,60.544 168.3,50.38 168.3,33.528 168.3,16.676 156.64,6.556 137.016,6.556 H 117.964 Z M 130.02,15.928 h 6.996 c 12.716,0 19.096,6.292 19.096,17.6 0,11.308 -6.38,17.6 -19.096,17.6 h -6.996 z m 79.288,21.208 h 22.924 V 27.764 H 209.308 V 15.928 h 25.916 V 6.556 h -38.016 v 53.988 h 38.852 v -9.372 h -26.752 z m 95.48,14.036 H 281.512 V 6.556 h -12.1 v 53.988 h 35.376 z m 65.12,-44.616 h -48.444 v 9.372 h 18.128 v 44.616 h 12.144 V 15.928 h 18.172 z M 440,60.544 h -12.628 l -5.28,-13.508 h -21.956 l -5.28,13.508 H 383.064 L 405.636,6.336 h 12.188 z m -21.34,-22.572 -7.524,-19.184 -7.568,19.184 z" />
</svg>
