<?xml version="1.0" encoding="UTF-8" standalone="no"?>
<svg
   xmlns:dc="http://purl.org/dc/elements/1.1/"
   xmlns:cc="http://creativecommons.org/ns#"
   xmlns:rdf="http://www.w3.org/1999/02/22-rdf-syntax-ns#"
   xmlns:svg="http://www.w3.org/2000/svg"
   xmlns="http://www.w3.org/2000/svg"
   xmlns:sodipodi="http://sodipodi.sourceforge.net/DTD/sodipodi-0.dtd"
   xmlns:inkscape="http://www.inkscape.org/namespaces/inkscape"
   inkscape:version="1.0 (4035a4fb49, 2020-05-01)"
   sodipodi:docname="E2_EWE.svg"
   xml:space="preserve"
   enable-background="new 0 0 145.984 42.208"
   viewBox="0 0 138.898 35.138641"
   height="35.138641"
   width="138.89799"
   y="0px"
   x="0px"
   id="Ebene_1"
   version="1.1"><metadata
   id="metadata1572"><rdf:RDF><cc:Work
       rdf:about=""><dc:format>image/svg+xml</dc:format><dc:type
         rdf:resource="http://purl.org/dc/dcmitype/StillImage" /><dc:title></dc:title></cc:Work></rdf:RDF></metadata><defs
   id="defs1570" /><sodipodi:namedview
   inkscape:current-layer="Ebene_1"
   inkscape:window-maximized="1"
   inkscape:window-y="-8"
   inkscape:window-x="-8"
   inkscape:cy="17.569199"
   inkscape:cx="69.452997"
   inkscape:zoom="7.363821"
   fit-margin-bottom="0"
   fit-margin-right="0"
   fit-margin-left="0"
   fit-margin-top="0"
   showgrid="false"
   id="namedview1568"
   inkscape:window-height="1027"
   inkscape:window-width="1920"
   inkscape:pageshadow="2"
   inkscape:pageopacity="0"
   guidetolerance="10"
   gridtolerance="10"
   objecttolerance="10"
   borderopacity="1"
   bordercolor="#666666"
   pagecolor="#ffffff" />
<polygon
   transform="translate(-3.539,-3.5348011)"
   id="polygon1525"
   points="13.719,33.236 14.28,30.531 6.788,30.531 6.788,26.406 12.987,26.406 13.551,23.478 6.788,23.478 6.788,19.685 13.675,19.685 14.28,16.984 3.547,16.984 3.547,33.236 "
   fill="#8f174f" />
<path
   id="path1527"
   d="m 103.725,22.614199 c 0.607,0.075 1.433,0.194 1.843,0.399 0.411,0.207 0.756,0.508 1,0.805 0.243,0.297 0.418,0.632 0.524,1.005 0.106,0.373 0.16,0.749 0.16,1.13 v 0.229 c 0,0.67 -0.122,1.244 -0.365,1.723 -0.244,0.48 -0.59,0.867 -1.038,1.164 -0.45,0.297 -1.304,0.535 -1.936,0.673 -0.632,0.138 -1.327,0.205 -2.089,0.205 -0.639,0 -1.324,-0.05 -2.054,-0.147 -0.731,-0.1 -1.461,-0.263 -2.191,-0.492 l 0.508,-2.228 c 0.715,0.198 1.362,0.317 1.94,0.401 0.578,0.084 1.157,0.113 1.735,0.125 0.543,0.012 0.892,0.008 1.253,-0.032 0.332,-0.037 0.58,-0.134 0.762,-0.255 0.184,-0.122 0.354,-0.311 0.407,-0.499 0.047,-0.158 0.06,-0.251 0.06,-0.479 0,-0.35 -0.098,-0.597 -0.272,-0.832 -0.175,-0.236 -0.537,-0.365 -1.101,-0.441 l -1.695,-0.233 c -1.188,-0.151 -2.408,-0.476 -2.972,-1.038 -0.563,-0.563 -0.845,-1.309 -0.845,-2.236 v -0.229 c 0,-1.201 0.445,-2.104 1.336,-2.705 0.891,-0.601 2.521,-0.982 4.18,-0.982 0.821,0 1.563,0.061 2.226,0.183 0.663,0.122 1.19,0.259 1.586,0.411 l -0.543,2.161 c -0.533,-0.139 -1.075,-0.238 -1.586,-0.305 -0.558,-0.074 -1.049,-0.108 -1.627,-0.108 -1.05,0 -1.728,0.06 -2.101,0.278 -0.373,0.222 -0.534,0.431 -0.534,0.918 0,0.41 0.135,0.639 0.362,0.813 0.229,0.176 0.594,0.316 1.171,0.393 z"
   fill="#8f174f" />
<path
   id="path1529"
   d="m 92.898,17.858199 c -0.87,-0.221 -1.719,-0.277 -2.699,-0.277 -0.932,0 -2.055,0.116 -2.79,0.337 -0.734,0.22 -1.359,0.559 -1.872,1.015 -0.514,0.457 -0.909,1.043 -1.185,1.758 -0.277,0.715 -0.415,1.566 -0.415,2.557 v 0.799 c 0,1.933 0.391,3.352 1.173,4.256 0.782,0.906 2.231,1.488 3.781,1.488 1.611,0 2.619,-0.441 3.443,-1.234 v 0.519 c 0,1.263 -0.214,2.017 -0.743,2.656 -0.529,0.639 -1.471,0.918 -2.687,0.864 -0.85,-0.037 -1.34,-0.088 -1.987,-0.193 -0.648,-0.107 -1.252,-0.249 -1.805,-0.416 l -0.531,2.418 c 0.742,0.258 1.505,0.445 2.287,0.559 0.782,0.114 1.648,0.149 2.595,0.172 1.959,0.045 3.454,-0.533 4.489,-1.598 1.035,-1.066 1.495,-2.572 1.495,-4.52 v -10.205 c -0.71,-0.38 -1.681,-0.734 -2.549,-0.955 m -0.563,6.459 c 0,1.065 -0.206,1.849 -0.615,2.351 -0.411,0.502 -1.066,0.754 -1.964,0.754 -0.518,0 -0.939,-0.076 -1.267,-0.229 -0.328,-0.152 -0.582,-0.376 -0.765,-0.673 -0.184,-0.298 -0.309,-0.658 -0.376,-1.085 -0.069,-0.426 -0.104,-0.92 -0.104,-1.483 v -0.821 c 0,-1.217 0.232,-2.086 0.696,-2.603 0.464,-0.517 1.198,-0.776 2.203,-0.776 0.395,0 0.791,0.039 1.187,0.114 0.396,0.076 0.73,0.198 1.004,0.365 v 4.086 z"
   fill="#8f174f" />
<rect
   id="rect1531"
   height="35.134998"
   width="138.89"
   fill="none"
   y="0.0011988748"
   x="0.007999897" />
<path
   id="path1533"
   d="m 70.957,29.701199 v -11.846 h 2.892 l 0.182,1.279 c 0.38,-0.503 0.871,-0.888 1.473,-1.153 0.601,-0.266 1.289,-0.4 2.065,-0.4 0.639,0 1.364,0.084 1.889,0.251 0.525,0.168 0.978,0.423 1.358,0.765 0.38,0.343 0.677,0.772 0.89,1.29 0.214,0.518 0.32,1.126 0.32,1.826 v 7.988 h -3.15 v -7.236 c 0,-0.958 -0.175,-1.64 -0.524,-2.043 -0.351,-0.403 -0.873,-0.603 -1.695,-0.603 -0.897,0 -1.563,0.469 -1.962,1.012 -0.42,0.572 -0.479,1.72 -0.479,2.755 v 6.114 h -3.259 z"
   fill="#8f174f" />
<path
   id="path1535"
   d="m 33.414,20.507199 c -0.184,-0.045 -0.403,-0.09 -0.662,-0.137 -0.26,-0.045 -0.525,-0.067 -0.8,-0.067 -1.004,0 -1.73,0.262 -2.18,0.786 -0.449,0.525 -0.563,1.095 -0.563,2.175 v 6.437 h -3.414 v -11.846 h 3.049 l 0.183,1.415 c 0.38,-0.517 0.853,-0.909 1.415,-1.176 0.563,-0.266 1.24,-0.399 2.031,-0.399 0.305,0 0.575,0.019 0.811,0.057 0.236,0.038 0.482,0.103 0.742,0.194 z"
   fill="#8f174f" />
<path
   id="path1537"
   d="m 23.69,17.855199 v 11.847 h -2.891 l -0.182,-1.278 c -0.38,0.502 -0.871,0.887 -1.473,1.152 -0.601,0.266 -1.29,0.4 -2.065,0.4 -0.64,0 -1.364,-0.084 -1.89,-0.252 -0.524,-0.168 -0.977,-0.422 -1.357,-0.765 -0.38,-0.343 -0.677,-0.772 -0.891,-1.29 -0.213,-0.517 -0.319,-1.126 -0.319,-1.826 v -7.988 h 3.149 v 7.237 c 0,0.957 0.176,1.639 0.525,2.043 0.35,0.402 0.873,0.602 1.695,0.602 0.897,0 1.563,-0.469 1.962,-1.012 0.42,-0.572 0.479,-1.721 0.479,-2.754 v -6.116 z"
   fill="#8f174f" />
<path
   id="path1539"
   d="m 67.163,13.073199 c 0.637,0 1.124,0.141 1.409,0.407 0.285,0.267 0.428,0.678 0.428,1.165 0,0.487 -0.143,0.898 -0.428,1.164 -0.285,0.266 -0.772,0.391 -1.409,0.391 -0.635,0 -1.14,-0.125 -1.425,-0.391 -0.285,-0.266 -0.428,-0.677 -0.428,-1.164 0,-0.487 0.143,-0.898 0.428,-1.165 0.285,-0.266 0.79,-0.407 1.425,-0.407 m -1.58,4.782 h 3.215 v 11.847 h -3.215 z"
   fill="#8f174f" />
<polygon
   transform="translate(-3.539,-3.5348011)"
   id="polygon1541"
   points="67.475,21.39 63.982,33.237 61.094,33.237 59.03,26.073 56.992,33.237 53.998,33.237 50.426,21.39 53.775,21.39 55.538,28.743 57.479,21.892 60.629,21.892 62.567,28.667 64.31,21.39 "
   fill="#8f174f" />
<rect
   id="rect1543"
   height="35.134998"
   width="138.89799"
   fill="none"
   y="0.0011988748"
   x="0" />
<path
   id="path1545"
   d="m 45.93,21.015199 c -0.175,-0.699 -0.472,-1.301 -0.89,-1.803 -0.419,-0.502 -0.979,-0.898 -1.679,-1.187 -0.699,-0.289 -1.835,-0.428 -2.885,-0.428 -1.05,0 -2.225,0.178 -2.924,0.467 -0.701,0.289 -1.26,0.685 -1.678,1.187 -0.419,0.502 -0.72,1.104 -0.902,1.803 -0.182,0.7 -0.329,1.41 -0.329,2.232 v 0.959 c 0,0.82 0.132,1.566 0.308,2.266 0.175,0.7 0.472,1.305 0.891,1.814 0.418,0.511 0.977,0.91 1.677,1.199 0.7,0.289 1.894,0.467 2.958,0.467 1.065,0 2.23,-0.162 2.938,-0.467 0.708,-0.303 1.267,-0.715 1.678,-1.231 0.411,-0.516 0.7,-1.122 0.867,-1.815 0.168,-0.691 0.307,-1.43 0.307,-2.221 v -0.959 c -0.001,-0.822 -0.162,-1.582 -0.337,-2.283 m -2.828,3.413 c 0,1.233 -0.193,2.104 -0.582,2.614 -0.388,0.509 -1.061,0.764 -2.02,0.764 -0.473,0 -0.875,-0.053 -1.21,-0.16 -0.335,-0.105 -0.613,-0.287 -0.833,-0.547 -0.222,-0.259 -0.381,-0.604 -0.479,-1.039 -0.1,-0.434 -0.148,-0.978 -0.148,-1.632 v -1.323 c 0,-1.217 0.201,-2.082 0.604,-2.592 0.403,-0.509 1.092,-0.764 2.066,-0.764 0.974,0 1.65,0.255 2.03,0.764 0.382,0.51 0.571,1.375 0.571,2.592 v 1.323 z"
   fill="#8f174f" />
<path
   id="path1547"
   d="m 118.564,0.05419886 c -2.582,-0.353 -3.893,1.08400004 -5.701,2.40500004 l -6.181,4.854 -0.002,0.001 1.19,0.629 c 0.002,0.002 0.005,0.003 0.008,0.005 1.548,0.761 3.701,0.501 5.167,-0.585 l 2.61,-2.074 0.998,-0.794 4.974,-3.95200004 z"
   fill="#7bcbe2" />
<rect
   id="rect1549"
   height="35.134998"
   width="138.89"
   fill="none"
   y="0.0011988748"
   x="0.007999897" />
<path
   id="path1551"
   d="m 106.682,7.3131989 1.188,0.631 c 0.003,0.001 0.005,0.003 0.008,0.004 1.548,0.762 3.702,0.502 5.168,-0.585 l 2.609,-2.073 0.999,-0.794 z"
   fill="#089bc9" />
<path
   id="path1553"
   d="m 129.119,3.0521989 -3.318,-0.597 c 0,0 -2.31,-0.549 -4.24,0.946 0,0 -1.425,1.06 -2.476,1.88 l -2.337,1.851 -5.406,4.3000001 -0.045,0.036 1.632,0.863 c 1.549,0.765 3.707,0.506 5.175,-0.582 l 4.834,-3.8290001 3.898,-3.07 z"
   fill="#8f174f" />
<path
   id="path1555"
   d="m 119.086,5.2811989 c 1.049,-0.82 2.474,-1.88 2.474,-1.88 0.365,-0.283 0.744,-0.492 1.118,-0.646 l -6.023,1.741 -0.999,0.793 -2.608,2.074 c -1.466,1.087 -3.62,1.347 -5.168,0.585 1.32,0.791 3.37,0.973 6.458,0.052 l 2.109,-0.628 0.303,-0.24 z"
   fill="#c8c4c3" />
<path
   id="path1557"
   d="m 127.582,7.1251989 c 0.995,-0.779 1.746,-1.343 2.493,-1.678 l -6.742,2.162 -0.396,0.312 -4.834,3.8280001 c -1.468,1.088 -3.626,1.348 -5.175,0.582 2.38,1.307 6.045,0.346 9.127,-0.75 l 0.184,-0.149 c -0.001,0 5.159,-4.1740001 5.343,-4.3070001"
   fill="#c8c4c3" />
<path
   id="path1559"
   d="m 135.51,11.468199 c -2.706,-0.786 -3.518,-0.289 -6.706,0.67 h -0.001 l -0.266,0.221 v -10e-4 l -0.003,0.003 0.003,-0.002 -0.008,0.005 -5.138,4.074 c -1.464,1.085 -3.752,1.294 -5.3,0.536 1.91,0.996 3.885,0.752 7.264,-0.302 l 13.542,-4.157 z"
   fill="#c8c4c3" />
<path
   id="path1561"
   d="m 136.408,5.8501989 -3.582,-0.652 c -2.146,-0.398 -3.161,0.296 -5.245,1.927 -0.184,0.134 -5.343,4.3070001 -5.343,4.3070001 l -5.792,4.673 1.631,0.863 c 1.55,0.766 3.848,0.558 5.315,-0.53 l 5.138,-4.074 0.007,-0.005 -0.003,0.002 z"
   fill="#8f174f" />
<polygon
   transform="translate(-3.539,-3.5348011)"
   id="polygon1563"
   points="126.871,11.144 114.835,15.003 119.985,10.907 131.44,7.545 "
   fill="#b4175e" />
<polygon
   transform="translate(-3.539,-3.5348011)"
   id="polygon1565"
   points="132.343,15.673 119.986,19.64 125.593,15.115 138.067,10.94 "
   fill="#b4175e" />
</svg>
