<?xml version="1.0" encoding="UTF-8" standalone="no"?>
<svg
   xmlns:dc="http://purl.org/dc/elements/1.1/"
   xmlns:cc="http://creativecommons.org/ns#"
   xmlns:rdf="http://www.w3.org/1999/02/22-rdf-syntax-ns#"
   xmlns:svg="http://www.w3.org/2000/svg"
   xmlns="http://www.w3.org/2000/svg"
   xmlns:sodipodi="http://sodipodi.sourceforge.net/DTD/sodipodi-0.dtd"
   xmlns:inkscape="http://www.inkscape.org/namespaces/inkscape"
   inkscape:version="1.0 (4035a4fb49, 2020-05-01)"
   height="60.799698"
   width="241.84753"
   sodipodi:docname="EK.svg"
   id="svg38"
   version="1.1"
   viewBox="0 0 241.84753 60.799696"
   fill-rule="evenodd"
   clip-rule="evenodd">
  <metadata
     id="metadata44">
    <rdf:RDF>
      <cc:Work
         rdf:about="">
        <dc:format>image/svg+xml</dc:format>
        <dc:type
           rdf:resource="http://purl.org/dc/dcmitype/StillImage" />
        <dc:title></dc:title>
      </cc:Work>
    </rdf:RDF>
  </metadata>
  <defs
     id="defs42">
    <clipPath
       id="clipPath108"
       clipPathUnits="userSpaceOnUse">
      <rect
         y="214.60439"
         x="184.1754"
         height="53.384174"
         width="186.84462"
         id="rect110"
         style="fill:#0000ff;fill-rule:evenodd" />
    </clipPath>
    <clipPath
       id="clipPath112"
       clipPathUnits="userSpaceOnUse">
      <rect
         y="131.5627"
         x="232.65344"
         height="89.151573"
         width="81.143944"
         id="rect114"
         style="fill:#0000ff;fill-rule:evenodd" />
    </clipPath>
  </defs>
  <sodipodi:namedview
     inkscape:current-layer="svg38"
     inkscape:window-maximized="1"
     inkscape:window-y="-8"
     inkscape:window-x="-8"
     inkscape:cy="29.605671"
     inkscape:cx="230.46425"
     inkscape:zoom="1.8732143"
     fit-margin-bottom="0"
     fit-margin-right="0"
     fit-margin-left="0"
     fit-margin-top="0"
     showgrid="false"
     id="namedview40"
     inkscape:window-height="1027"
     inkscape:window-width="1920"
     inkscape:pageshadow="2"
     inkscape:pageopacity="0"
     guidetolerance="10"
     gridtolerance="10"
     objecttolerance="10"
     borderopacity="1"
     bordercolor="#666666"
     pagecolor="#ffffff" />
  <g
     transform="translate(40.574309,-126.45388)"
     id="g239">
    <g
       id="g64"
       transform="translate(-170,-83.572)"
       clip-path="url(#clipPath108)">
      <path
         id="path2"
         fill="#d71a21"
         d="M 170,83.572 H 390 V 316.427 H 170 Z" />
      <g
         id="g36"
         fill="#ffffff">
        <path
           id="path4"
           d="m 289.708,141.314 c -1.385,1.796 -2.155,4.002 -2.155,6.26 v 19.651 c -0.102,1.488 -0.667,2.873 -1.59,4.053 -0.513,0.513 -3.54,3.232 -3.797,3.54 l 1.693,0.051 c 0.564,-0.513 6.413,-5.695 6.978,-6.413 1.693,-1.847 2.668,-4.259 2.668,-6.772 v -18.881 c -0.051,-1.898 0.667,-3.797 2.001,-5.182 0.718,-0.77 2.976,-2.668 3.386,-3.13 l -1.796,-0.051 c -0.359,0.462 -6.772,6.26 -7.388,6.875 z" />
        <path
           id="path6"
           d="m 275.291,212.785 7.132,6.208 h 4.772 c 4.566,0 8.979,-1.796 12.211,-5.028 2.924,-2.924 4.002,-6.875 4.002,-10.569 v -10.21 c -0.051,-2.309 -1.026,-4.515 -2.771,-6.054 -0.308,-0.308 -2.411,-2.309 -2.411,-2.309 v 7.85 c 0,0 2.309,2.36 2.719,2.822 2.104,2.257 2.104,6.362 -4.618,12.878 -1.18,1.129 -4.515,4.31 -9.133,4.31 l -11.903,0.103 z" />
        <path
           id="path8"
           d="m 295.147,170.867 c -0.77,0.821 -1.539,2.873 -1.539,4.72 v 3.848 h 3.899 c 1.539,0 3.54,-1.385 3.951,-2.104 v -3.848 c 0.564,0.821 1.283,1.59 2.104,2.206 0.411,-0.513 4.002,-4.823 6.978,-4.874 4.977,-0.051 3.848,6.26 1.847,8.26 -0.667,0.667 -3.591,3.335 -4.515,4.207 -2.36,2.258 -6.413,1.18 -6.413,-4.618 0,0 -4.31,4.105 -4.977,4.669 -0.667,0.564 -2.873,2.924 -2.873,2.924 v 10.21 c 0,4.874 -1.59,6.516 -2.924,8.004 -0.513,0.564 -6.003,5.593 -6.773,6.157 l -1.796,0.051 c 0,0 3.232,-2.924 3.848,-3.591 0.718,-0.77 1.59,-2.309 1.59,-4.874 0,-0.667 -0.102,-16.008 -0.102,-16.008 h -25.038 c -8.722,0 -10.569,-9.646 -10.621,-12.262 v -9.697 c 0,-1.59 -1.026,-4.259 -2.617,-5.079 h 2.463 c 0.308,0.103 1.847,0.718 1.847,6.67 0,0 -0.103,6.875 -0.103,7.286 0,3.027 2.411,6.465 5.849,6.465 l 28.321,-0.051 c 0,-0.77 0.77,-3.643 2.155,-5.182 0.77,-0.872 6.875,-6.413 7.542,-6.978 h 1.796 c -0.257,0.257 -3.232,2.873 -3.848,3.592 z m 9.287,5.798 c 0.718,0.975 1.539,1.95 2.411,2.822 3.078,2.463 4.515,-0.205 2.463,-2.976 -0.821,-1.129 -3.951,-0.821 -4.874,0.154 z" />
        <path
           id="path10"
           d="m 274.059,194.93 c 0,1.385 -4.361,5.028 -4.618,5.233 -0.308,-1.488 -1.437,-3.078 -4.669,-6.362 l 4.772,-4.772 c 3.232,3.232 4.515,3.951 4.515,5.9 z" />
        <path
           id="path12"
           d="m 282.371,140.083 c 0.975,0.975 3.027,3.54 1.796,4.823 -1.077,1.077 -2.771,2.822 -2.771,2.822 -0.103,-0.616 -1.693,-2.155 -1.693,-2.155 v 5.182 c -0.051,2.104 -0.821,2.668 -0.821,2.668 0,0 3.848,3.797 3.848,8.722 v 5.028 c 0.051,0.924 -0.308,1.899 -0.975,2.565 -0.359,0.41 -3.899,4.002 -4.464,4.464 -0.821,0.718 -1.847,1.129 -2.925,1.077 h -13.288 c -2.104,0 -4.259,-1.642 -4.259,-3.284 0,-0.411 0.051,-4.926 0.051,-4.926 0.667,0.77 1.385,1.693 3.027,1.693 1.334,0 2.668,-1.026 3.027,-1.437 0.359,-0.411 10.056,-10.467 10.056,-10.467 0,0 -4.515,-4.207 -7.491,-6.208 -1.437,-0.975 -3.386,0.256 -3.694,1.539 -0.923,4.002 0,10.056 0,10.056 l -3.643,-3.643 c -1.488,-1.488 -1.437,-4.823 0.359,-6.567 0.256,-0.308 2.976,-3.284 6.362,-3.284 h 5.285 c 3.54,0 7.439,3.54 7.439,3.54 0.308,-0.359 0.513,-0.77 0.564,-1.231 0,-1.847 -0.051,-6.721 -0.051,-6.721 -2.668,-2.668 -3.027,-5.439 -1.744,-6.721 2.411,-2.411 3.284,-3.232 3.284,-3.232 0,0 -0.103,2.924 2.719,5.695 z m -16.675,26.68 c -1.334,1.385 -1.539,1.693 -2.771,2.463 h 14.982 c 4.053,0 3.232,-2.514 2.514,-3.797 -1.488,-2.617 -6.208,-7.44 -6.208,-7.44 0,0 -8.26,8.517 -8.517,8.774 z" />
        <path
           id="path14"
           d="m 248.611,180.41 h -2.463 c 0,0 2.617,1.437 2.617,5.182 v 11.955 c 0,7.748 6.413,14.931 14.212,14.931 h 6.516 c 3.899,0 5.285,-0.924 7.645,-3.027 0.872,-0.77 2.001,-2.052 2.411,-2.514 1.334,-1.539 2.822,-2.771 2.822,-6.772 v -3.899 c 0,-3.386 -1.95,-4.772 -2.925,-5.746 -0.616,-0.616 -2.257,-2.206 -2.257,-2.206 v 8.004 c 0,0 1.642,1.744 2.36,2.309 3.386,2.668 0.718,7.286 -2.463,7.286 h -14.315 c -5.233,0.103 -12.365,-4.566 -12.365,-12.468 v -6.465 c 0.051,-6.567 -1.796,-6.567 -1.796,-6.567 z" />
        <path
           id="path16"
           d="m 264.311,194.981 c 0,1.385 -4.361,5.028 -4.618,5.233 -0.308,-1.488 -1.437,-3.078 -4.669,-6.362 l 4.772,-4.772 c 3.181,3.181 4.515,3.899 4.515,5.9 z" />
        <path
           id="path18"
           d="m 214.287,248.084 h -7.696 c -2.411,0 -2.206,-2.001 -2.463,-3.694 v -10.98 c 0,0 1.693,-0.051 3.592,-0.051 2.104,0 4.772,-0.308 7.337,1.129 -1.334,-2.822 -4.207,-4.566 -7.337,-4.464 h -3.54 v -3.54 c 0,0 0,-3.078 -0.77,-3.951 h 5.079 c 4.361,0 7.747,-0.051 11.288,2.257 0,0 -0.667,-5.798 -9.133,-5.798 h -16.521 c 0,0 2.873,2.463 2.771,7.439 l 0.102,20.01 c 0,5.028 2.001,5.182 2.001,5.182 h 16.264 c 3.694,0 4.977,-2.617 4.977,-4.053 l 0.051,-1.898 c 0,0 -1.18,2.411 -6.003,2.411 z" />
        <path
           id="path20"
           d="m 257.59,246.391 v -14.007 c 0,-5.439 -4.412,-6.875 -7.747,-6.875 -4.361,0 -5.695,3.643 -6.26,4.925 -0.975,-3.386 -4.412,-4.925 -7.183,-4.925 -5.285,0 -6.619,5.028 -6.619,5.028 0,0 -0.103,-4.874 -4.361,-4.874 h -4.156 c 0,0 2.411,0.975 2.411,5.182 v 15.546 c 0,5.131 2.052,5.233 2.052,5.233 h 6.875 c -1.642,-1.231 -2.617,-3.181 -2.617,-5.285 v -13.802 c 0.103,-0.616 1.129,-2.668 4.053,-2.668 1.693,0 3.54,1.744 3.489,3.694 v 12.827 c 0,5.182 2.052,5.233 2.052,5.233 h 6.875 c -1.642,-1.283 -2.617,-3.181 -2.617,-5.285 v -13.802 c 0.667,-2.001 2.822,-3.13 4.874,-2.463 1.539,0.513 2.617,1.898 2.668,3.54 v 12.776 c 0.051,5.233 2.052,5.182 2.052,5.182 h 6.875 c -1.693,-1.232 -2.668,-3.13 -2.719,-5.182 z" />
        <path
           id="path22"
           d="m 269.596,246.391 c 0,2.052 0.975,4.002 2.617,5.233 h -6.875 c 0,0 -2.104,0.051 -2.104,-5.182 v -15.649 c 0,-4.105 -2.36,-5.182 -2.36,-5.182 h 4.156 c 1.488,0 4.515,0 4.515,5.798 v 14.879 z" />
        <path
           id="path24"
           d="m 290.734,227.613 c 0,0 -0.667,-1.847 -3.489,-1.847 -4.31,0 -5.336,5.131 -5.336,5.131 -0.359,-4.053 -1.437,-5.233 -4.464,-5.233 h -4.156 c 0,0 2.411,0.975 2.411,5.182 v 15.546 c 0,5.131 2.052,5.233 2.052,5.233 h 6.875 c -1.642,-1.231 -2.617,-3.181 -2.617,-5.233 v -12.776 c 0.154,-1.077 0.77,-2.052 1.693,-2.617 2.309,-1.539 5.336,-1.077 7.132,1.026 l -0.103,-4.412 z" />
        <path
           id="path26"
           d="m 322.699,228.536 c 1.437,0 2.822,0.359 4.053,1.026 v -3.899 h -5.746 v -5.952 c -1.231,1.95 -2.822,3.694 -4.617,5.182 -1.95,1.59 -6.054,3.592 -6.054,3.592 l 4.361,0.051 v 18.06 c 0,5.028 2.104,5.028 2.104,5.028 h 6.824 c -1.642,-1.18 -2.617,-3.078 -2.668,-5.079 v -18.009 h 1.744 z" />
        <path
           id="path28"
           d="m 343.529,236.386 c -3.848,4.002 -6.875,3.386 -9.287,6.362 0,0 0.411,4.002 3.438,5.387 1.026,0.462 5.285,2.001 8.004,-2.719 v 4.207 c 0,0 -1.744,2.052 -7.337,2.052 -6.721,0 -11.339,-5.285 -11.339,-12.468 0,-7.08 3.745,-13.596 10.877,-13.648 6.927,-0.103 10.723,5.541 5.644,10.826 z m -4.207,-1.642 c 1.129,-2.104 2.052,-7.439 -1.847,-7.132 -4.515,0.359 -3.643,12.314 -3.643,12.314 1.488,-1.642 3.745,-2.001 5.49,-5.182 z" />
        <path
           id="path30"
           d="m 266.415,223.559 c 1.744,-0.051 3.078,-1.488 3.078,-3.181 -0.051,-1.744 -1.488,-3.078 -3.181,-3.078 -1.693,0.051 -3.078,1.437 -3.078,3.13 0,1.744 1.437,3.13 3.181,3.13 z" />
        <path
           id="path32"
           d="m 297.866,248.649 c -1.539,0 -2.668,-1.642 -2.668,-3.284 0,-6.465 5.285,-7.388 6.721,-9.081 v 10.928 c -0.667,0.513 -1.283,1.437 -4.053,1.437 z m 4.053,-14.879 c -1.591,2.771 -14.007,3.386 -12.109,12.981 0.77,3.797 3.284,4.926 6.465,4.926 3.078,0 4.977,-1.591 5.746,-3.13 0.462,2.873 1.95,3.078 1.95,3.078 h 6.875 c -1.642,-1.231 -2.668,-3.13 -2.668,-5.182 v -14.622 c 0,-3.489 -3.848,-6.208 -7.953,-6.208 -2.309,-0.051 -4.515,0.616 -6.413,1.898 v 4.515 c 0,0 1.437,-3.592 4.977,-3.592 3.489,0 3.745,1.744 3.745,2.617 0.051,0.923 -0.103,1.898 -0.616,2.719 z" />
        <path
           id="path34"
           d="m 358.717,244.544 c 0.051,1.847 -1.591,4.259 -5.08,4.259 -3.592,0 -5.028,-3.643 -5.028,-3.643 v 4.617 c 1.95,1.231 4.207,1.847 6.516,1.847 4.67,0 9.441,-3.54 9.338,-8.517 -0.051,-1.642 -0.615,-3.232 -1.589,-4.515 -1.591,-2.104 -4.465,-3.591 -6.722,-4.977 -1.281,-0.77 -1.949,-2.206 -1.949,-2.668 -0.051,-0.872 0.411,-2.617 3.848,-2.617 3.387,0 4.874,3.592 4.874,3.592 v -4.361 c -1.899,-1.334 -4.206,-2.052 -6.568,-2.052 -4.104,0 -7.849,2.719 -7.746,6.208 0.051,3.078 1.334,5.028 3.848,6.927 1.129,0.821 2.309,1.539 3.54,2.206 1.949,1.077 2.668,2.411 2.72,3.694 z" />
      </g>
    </g>
    <g
       id="g102"
       transform="matrix(0.71157486,0,0,0.6782029,-206.12465,37.308813)"
       clip-path="url(#clipPath112)">
      <path
         d="M 170,83.572 H 390 V 316.427 H 170 Z"
         fill="#d71a21"
         id="path66" />
      <g
         fill="#ffffff"
         id="g100">
        <path
           d="m 289.708,141.314 c -1.385,1.796 -2.155,4.002 -2.155,6.26 v 19.651 c -0.102,1.488 -0.667,2.873 -1.59,4.053 -0.513,0.513 -3.54,3.232 -3.797,3.54 l 1.693,0.051 c 0.564,-0.513 6.413,-5.695 6.978,-6.413 1.693,-1.847 2.668,-4.259 2.668,-6.772 v -18.881 c -0.051,-1.898 0.667,-3.797 2.001,-5.182 0.718,-0.77 2.976,-2.668 3.386,-3.13 l -1.796,-0.051 c -0.359,0.462 -6.772,6.26 -7.388,6.875 z"
           id="path68" />
        <path
           d="m 275.291,212.785 7.132,6.208 h 4.772 c 4.566,0 8.979,-1.796 12.211,-5.028 2.924,-2.924 4.002,-6.875 4.002,-10.569 v -10.21 c -0.051,-2.309 -1.026,-4.515 -2.771,-6.054 -0.308,-0.308 -2.411,-2.309 -2.411,-2.309 v 7.85 c 0,0 2.309,2.36 2.719,2.822 2.104,2.257 2.104,6.362 -4.618,12.878 -1.18,1.129 -4.515,4.31 -9.133,4.31 l -11.903,0.103 z"
           id="path70" />
        <path
           d="m 295.147,170.867 c -0.77,0.821 -1.539,2.873 -1.539,4.72 v 3.848 h 3.899 c 1.539,0 3.54,-1.385 3.951,-2.104 v -3.848 c 0.564,0.821 1.283,1.59 2.104,2.206 0.411,-0.513 4.002,-4.823 6.978,-4.874 4.977,-0.051 3.848,6.26 1.847,8.26 -0.667,0.667 -3.591,3.335 -4.515,4.207 -2.36,2.258 -6.413,1.18 -6.413,-4.618 0,0 -4.31,4.105 -4.977,4.669 -0.667,0.564 -2.873,2.924 -2.873,2.924 v 10.21 c 0,4.874 -1.59,6.516 -2.924,8.004 -0.513,0.564 -6.003,5.593 -6.773,6.157 l -1.796,0.051 c 0,0 3.232,-2.924 3.848,-3.591 0.718,-0.77 1.59,-2.309 1.59,-4.874 0,-0.667 -0.102,-16.008 -0.102,-16.008 h -25.038 c -8.722,0 -10.569,-9.646 -10.621,-12.262 v -9.697 c 0,-1.59 -1.026,-4.259 -2.617,-5.079 h 2.463 c 0.308,0.103 1.847,0.718 1.847,6.67 0,0 -0.103,6.875 -0.103,7.286 0,3.027 2.411,6.465 5.849,6.465 l 28.321,-0.051 c 0,-0.77 0.77,-3.643 2.155,-5.182 0.77,-0.872 6.875,-6.413 7.542,-6.978 h 1.796 c -0.257,0.257 -3.232,2.873 -3.848,3.592 z m 9.287,5.798 c 0.718,0.975 1.539,1.95 2.411,2.822 3.078,2.463 4.515,-0.205 2.463,-2.976 -0.821,-1.129 -3.951,-0.821 -4.874,0.154 z"
           id="path72" />
        <path
           d="m 274.059,194.93 c 0,1.385 -4.361,5.028 -4.618,5.233 -0.308,-1.488 -1.437,-3.078 -4.669,-6.362 l 4.772,-4.772 c 3.232,3.232 4.515,3.951 4.515,5.9 z"
           id="path74" />
        <path
           d="m 282.371,140.083 c 0.975,0.975 3.027,3.54 1.796,4.823 -1.077,1.077 -2.771,2.822 -2.771,2.822 -0.103,-0.616 -1.693,-2.155 -1.693,-2.155 v 5.182 c -0.051,2.104 -0.821,2.668 -0.821,2.668 0,0 3.848,3.797 3.848,8.722 v 5.028 c 0.051,0.924 -0.308,1.899 -0.975,2.565 -0.359,0.41 -3.899,4.002 -4.464,4.464 -0.821,0.718 -1.847,1.129 -2.925,1.077 h -13.288 c -2.104,0 -4.259,-1.642 -4.259,-3.284 0,-0.411 0.051,-4.926 0.051,-4.926 0.667,0.77 1.385,1.693 3.027,1.693 1.334,0 2.668,-1.026 3.027,-1.437 0.359,-0.411 10.056,-10.467 10.056,-10.467 0,0 -4.515,-4.207 -7.491,-6.208 -1.437,-0.975 -3.386,0.256 -3.694,1.539 -0.923,4.002 0,10.056 0,10.056 l -3.643,-3.643 c -1.488,-1.488 -1.437,-4.823 0.359,-6.567 0.256,-0.308 2.976,-3.284 6.362,-3.284 h 5.285 c 3.54,0 7.439,3.54 7.439,3.54 0.308,-0.359 0.513,-0.77 0.564,-1.231 0,-1.847 -0.051,-6.721 -0.051,-6.721 -2.668,-2.668 -3.027,-5.439 -1.744,-6.721 2.411,-2.411 3.284,-3.232 3.284,-3.232 0,0 -0.103,2.924 2.719,5.695 z m -16.675,26.68 c -1.334,1.385 -1.539,1.693 -2.771,2.463 h 14.982 c 4.053,0 3.232,-2.514 2.514,-3.797 -1.488,-2.617 -6.208,-7.44 -6.208,-7.44 0,0 -8.26,8.517 -8.517,8.774 z"
           id="path76" />
        <path
           d="m 248.611,180.41 h -2.463 c 0,0 2.617,1.437 2.617,5.182 v 11.955 c 0,7.748 6.413,14.931 14.212,14.931 h 6.516 c 3.899,0 5.285,-0.924 7.645,-3.027 0.872,-0.77 2.001,-2.052 2.411,-2.514 1.334,-1.539 2.822,-2.771 2.822,-6.772 v -3.899 c 0,-3.386 -1.95,-4.772 -2.925,-5.746 -0.616,-0.616 -2.257,-2.206 -2.257,-2.206 v 8.004 c 0,0 1.642,1.744 2.36,2.309 3.386,2.668 0.718,7.286 -2.463,7.286 h -14.315 c -5.233,0.103 -12.365,-4.566 -12.365,-12.468 v -6.465 c 0.051,-6.567 -1.796,-6.567 -1.796,-6.567 z"
           id="path78" />
        <path
           d="m 264.311,194.981 c 0,1.385 -4.361,5.028 -4.618,5.233 -0.308,-1.488 -1.437,-3.078 -4.669,-6.362 l 4.772,-4.772 c 3.181,3.181 4.515,3.899 4.515,5.9 z"
           id="path80" />
        <path
           d="m 214.287,248.084 h -7.696 c -2.411,0 -2.206,-2.001 -2.463,-3.694 v -10.98 c 0,0 1.693,-0.051 3.592,-0.051 2.104,0 4.772,-0.308 7.337,1.129 -1.334,-2.822 -4.207,-4.566 -7.337,-4.464 h -3.54 v -3.54 c 0,0 0,-3.078 -0.77,-3.951 h 5.079 c 4.361,0 7.747,-0.051 11.288,2.257 0,0 -0.667,-5.798 -9.133,-5.798 h -16.521 c 0,0 2.873,2.463 2.771,7.439 l 0.102,20.01 c 0,5.028 2.001,5.182 2.001,5.182 h 16.264 c 3.694,0 4.977,-2.617 4.977,-4.053 l 0.051,-1.898 c 0,0 -1.18,2.411 -6.003,2.411 z"
           id="path82" />
        <path
           d="m 257.59,246.391 v -14.007 c 0,-5.439 -4.412,-6.875 -7.747,-6.875 -4.361,0 -5.695,3.643 -6.26,4.925 -0.975,-3.386 -4.412,-4.925 -7.183,-4.925 -5.285,0 -6.619,5.028 -6.619,5.028 0,0 -0.103,-4.874 -4.361,-4.874 h -4.156 c 0,0 2.411,0.975 2.411,5.182 v 15.546 c 0,5.131 2.052,5.233 2.052,5.233 h 6.875 c -1.642,-1.231 -2.617,-3.181 -2.617,-5.285 v -13.802 c 0.103,-0.616 1.129,-2.668 4.053,-2.668 1.693,0 3.54,1.744 3.489,3.694 v 12.827 c 0,5.182 2.052,5.233 2.052,5.233 h 6.875 c -1.642,-1.283 -2.617,-3.181 -2.617,-5.285 v -13.802 c 0.667,-2.001 2.822,-3.13 4.874,-2.463 1.539,0.513 2.617,1.898 2.668,3.54 v 12.776 c 0.051,5.233 2.052,5.182 2.052,5.182 h 6.875 c -1.693,-1.232 -2.668,-3.13 -2.719,-5.182 z"
           id="path84" />
        <path
           d="m 269.596,246.391 c 0,2.052 0.975,4.002 2.617,5.233 h -6.875 c 0,0 -2.104,0.051 -2.104,-5.182 v -15.649 c 0,-4.105 -2.36,-5.182 -2.36,-5.182 h 4.156 c 1.488,0 4.515,0 4.515,5.798 v 14.879 z"
           id="path86" />
        <path
           d="m 290.734,227.613 c 0,0 -0.667,-1.847 -3.489,-1.847 -4.31,0 -5.336,5.131 -5.336,5.131 -0.359,-4.053 -1.437,-5.233 -4.464,-5.233 h -4.156 c 0,0 2.411,0.975 2.411,5.182 v 15.546 c 0,5.131 2.052,5.233 2.052,5.233 h 6.875 c -1.642,-1.231 -2.617,-3.181 -2.617,-5.233 v -12.776 c 0.154,-1.077 0.77,-2.052 1.693,-2.617 2.309,-1.539 5.336,-1.077 7.132,1.026 l -0.103,-4.412 z"
           id="path88" />
        <path
           d="m 322.699,228.536 c 1.437,0 2.822,0.359 4.053,1.026 v -3.899 h -5.746 v -5.952 c -1.231,1.95 -2.822,3.694 -4.617,5.182 -1.95,1.59 -6.054,3.592 -6.054,3.592 l 4.361,0.051 v 18.06 c 0,5.028 2.104,5.028 2.104,5.028 h 6.824 c -1.642,-1.18 -2.617,-3.078 -2.668,-5.079 v -18.009 h 1.744 z"
           id="path90" />
        <path
           d="m 343.529,236.386 c -3.848,4.002 -6.875,3.386 -9.287,6.362 0,0 0.411,4.002 3.438,5.387 1.026,0.462 5.285,2.001 8.004,-2.719 v 4.207 c 0,0 -1.744,2.052 -7.337,2.052 -6.721,0 -11.339,-5.285 -11.339,-12.468 0,-7.08 3.745,-13.596 10.877,-13.648 6.927,-0.103 10.723,5.541 5.644,10.826 z m -4.207,-1.642 c 1.129,-2.104 2.052,-7.439 -1.847,-7.132 -4.515,0.359 -3.643,12.314 -3.643,12.314 1.488,-1.642 3.745,-2.001 5.49,-5.182 z"
           id="path92" />
        <path
           d="m 266.415,223.559 c -265.93954667,-151.372179 -132.96977,-75.68609 0,0 z"
           id="path94"
           sodipodi:nodetypes="cc" />
        <path
           d="m 297.866,248.649 c -1.539,0 -2.668,-1.642 -2.668,-3.284 0,-6.465 5.285,-7.388 6.721,-9.081 v 10.928 c -0.667,0.513 -1.283,1.437 -4.053,1.437 z m 4.053,-14.879 c -1.591,2.771 -14.007,3.386 -12.109,12.981 0.77,3.797 3.284,4.926 6.465,4.926 3.078,0 4.977,-1.591 5.746,-3.13 0.462,2.873 1.95,3.078 1.95,3.078 h 6.875 c -1.642,-1.231 -2.668,-3.13 -2.668,-5.182 v -14.622 c 0,-3.489 -3.848,-6.208 -7.953,-6.208 -2.309,-0.051 -4.515,0.616 -6.413,1.898 v 4.515 c 0,0 1.437,-3.592 4.977,-3.592 3.489,0 3.745,1.744 3.745,2.617 0.051,0.923 -0.103,1.898 -0.616,2.719 z"
           id="path96" />
        <path
           d="m 358.717,244.544 c 0.051,1.847 -1.591,4.259 -5.08,4.259 -3.592,0 -5.028,-3.643 -5.028,-3.643 v 4.617 c 1.95,1.231 4.207,1.847 6.516,1.847 4.67,0 9.441,-3.54 9.338,-8.517 -0.051,-1.642 -0.615,-3.232 -1.589,-4.515 -1.591,-2.104 -4.465,-3.591 -6.722,-4.977 -1.281,-0.77 -1.949,-2.206 -1.949,-2.668 -0.051,-0.872 0.411,-2.617 3.848,-2.617 3.387,0 4.874,3.592 4.874,3.592 v -4.361 c -1.899,-1.334 -4.206,-2.052 -6.568,-2.052 -4.104,0 -7.849,2.719 -7.746,6.208 0.051,3.078 1.334,5.028 3.848,6.927 1.129,0.821 2.309,1.539 3.54,2.206 1.949,1.077 2.668,2.411 2.72,3.694 z"
           id="path98" />
      </g>
    </g>
    <path
       style="fill:#d71a21;fill-opacity:1;stroke-width:0.266921"
       d="m 14.295148,157.75889 -0.934223,-31.22975 c 67.278335,0.26593 123.541705,-0.38831 187.645375,0.13341 l -0.13346,31.09628 0.40038,29.36129 -93.68922,0.13346 H 13.761306 Z m 32.060803,10.27392 c 2.605687,-0.48834 3.973515,-2.054 3.973515,-4.54823 v -1.53568 l -0.802916,0.75004 c -1.451425,1.35583 -2.741945,1.59951 -8.470951,1.59951 -2.979649,0 -5.389022,-0.11457 -5.67957,-0.27006 -0.854944,-0.45755 -1.05878,-2.03482 -1.060327,-8.20468 l -0.0015,-5.93899 h 3.545262 c 3.274067,0 4.194728,0.12809 6.837519,0.95126 l 0.64017,0.1994 -0.506709,-0.87185 c -0.753561,-1.29658 -2.64115,-2.85205 -4.039036,-3.32835 -0.789201,-0.26891 -2.166861,-0.42043 -3.822648,-0.42043 H 34.38 l -0.129209,-3.13632 c -0.07106,-1.72498 -0.218834,-3.34652 -0.328377,-3.60343 -0.185561,-0.4352 0.137674,-0.46711 4.730993,-0.46711 5.589058,0 7.09245,0.21221 9.506509,1.34188 l 1.703129,0.79699 -0.164605,-0.82302 c -0.211177,-1.05588 -1.390415,-2.69552 -2.471303,-3.43616 -0.464245,-0.31811 -1.487601,-0.83724 -2.274123,-1.15362 -1.355758,-0.54537 -1.941206,-0.58045 -11.270405,-0.67543 l -9.840364,-0.10018 0.666812,0.89035 c 0.757643,1.01164 1.466189,2.34805 1.878957,3.54397 0.173153,0.50168 0.340373,5.70357 0.433813,13.4951 0.136434,11.37653 0.19987,12.76618 0.617638,13.53003 0.928191,1.69713 0.856246,1.68446 9.566905,1.68446 4.351492,0 8.558798,-0.12125 9.349569,-0.26945 z m 16.251879,0.0439 c 0,-0.12405 -0.25726,-0.45437 -0.57168,-0.73403 -0.31442,-0.27967 -0.85376,-1.10906 -1.19854,-1.84309 -0.61273,-1.30453 -0.62691,-1.50971 -0.62946,-9.10604 -0.003,-7.56989 0.0124,-7.79052 0.57605,-8.50708 1.629,-2.07094 4.69335,-1.83919 6.0958,0.46102 0.49679,0.81479 0.53047,1.35733 0.5314,8.55917 0.001,7.88423 0.15172,9.37937 1.06788,10.59484 0.4884,0.64795 0.61178,0.66982 4.25571,0.7542 2.11409,0.049 3.75272,-0.0181 3.75272,-0.15366 0,-0.13231 -0.29422,-0.51697 -0.65383,-0.8548 -0.3596,-0.33784 -0.90011,-1.13821 -1.20114,-1.77861 -0.51304,-1.09144 -0.54732,-1.6564 -0.54732,-9.02096 v -7.85659 l 0.67604,-0.80343 c 1.71902,-2.04293 4.93424,-1.5872 6.09754,0.86428 0.36789,0.77528 0.43329,2.0474 0.43329,8.42853 0,7.80254 0.16909,9.39502 1.10414,10.39868 0.47799,0.51306 0.81127,0.5562 4.29704,0.5562 h 3.77885 l -0.82324,-0.86749 c -1.81913,-1.91691 -1.80362,-1.82408 -1.95069,-11.67779 -0.15037,-10.07462 -0.1598,-10.12504 -2.22503,-11.89281 -1.32384,-1.13315 -3.17998,-1.72016 -5.43923,-1.72016 -2.67395,0 -4.21035,0.84318 -5.67098,3.11225 l -0.71475,1.11033 -0.9159,-1.22 c -1.69429,-2.25682 -5.04878,-3.46341 -8.05887,-2.89871 -1.37725,0.25837 -3.17259,1.57258 -4.05465,2.96804 l -0.78267,1.23822 -0.33077,-1.12024 c -0.415143,-1.406 -1.522238,-2.58076 -2.754798,-2.92317 -0.52217,-0.14505 -2.023962,-0.26441 -3.337317,-0.26523 l -2.387917,-0.001 0.821094,0.8675 c 1.583908,1.67341 1.54162,1.35706 1.685915,12.61201 0.173023,13.49582 -0.06771,12.94566 5.664731,12.94566 1.875822,0 3.410582,-0.1015 3.410582,-0.22555 z m 39.77121,0.12032 c 0,-0.0579 -0.37806,-0.50831 -0.84013,-1.00095 -1.67518,-1.78603 -1.68275,-1.8372 -1.82908,-12.37332 -0.12404,-8.93048 -0.17117,-9.68335 -0.6673,-10.65961 -0.93597,-1.84173 -1.61322,-2.14008 -5.09006,-2.24229 -2.0723,-0.0609 -3.05103,0.003 -3.05103,0.20019 0,0.15944 0.11505,0.28989 0.25567,0.28989 0.14062,0 0.59105,0.57054 1.00095,1.26787 l 0.74529,1.26787 0.13753,10.27646 c 0.18228,13.62069 -0.0576,13.07912 5.79412,13.07912 1.94922,0 3.54404,-0.0474 3.54404,-0.10523 z m 12.27836,-0.0597 c 0,-0.0907 -0.37537,-0.59248 -0.83416,-1.115 -1.52286,-1.73445 -1.56822,-2.02746 -1.56713,-10.12234 10e-4,-6.96558 0.0337,-7.46922 0.53936,-8.29864 0.63295,-1.03818 2.35745,-1.90539 3.80568,-1.9138 1.1913,-0.007 2.74555,0.59355 3.59016,1.38702 0.33174,0.31166 0.66076,0.50905 0.73116,0.43865 0.0704,-0.0704 0.0408,-1.24951 -0.0657,-2.62024 -0.1803,-2.32013 -0.24572,-2.53103 -0.94728,-3.05386 -0.60385,-0.45002 -1.1384,-0.56162 -2.68998,-0.56162 -1.7171,0 -2.04919,0.086 -2.93256,0.75981 -0.54789,0.4179 -1.25026,1.28281 -1.56081,1.92201 -0.57079,1.17488 -1.00489,1.33098 -1.00489,0.36138 0,-0.90887 -0.99113,-2.52159 -1.78031,-2.89682 -0.80542,-0.38296 -6.76116,-0.75168 -6.76116,-0.41858 0,0.10745 0.28505,0.41959 0.63344,0.69363 0.3484,0.27405 0.85889,0.95196 1.13442,1.50648 0.45603,0.91777 0.51294,1.93008 0.63443,11.28467 0.12226,9.41377 0.17619,10.3625 0.64241,11.30149 0.27992,0.56376 0.76038,1.12669 1.06768,1.25095 0.63956,0.25861 7.36522,0.34518 7.36522,0.0948 z m 14.61229,-0.51162 c 0.55142,-0.22999 1.37559,-0.77916 1.83149,-1.22037 l 0.82891,-0.8022 0.34163,0.82478 c 0.68412,1.65159 1.29144,1.87436 5.10995,1.87436 1.88869,0 3.43397,-0.0992 3.43397,-0.22039 0,-0.12122 -0.29422,-0.4968 -0.65382,-0.83463 -0.35961,-0.33784 -0.90012,-1.13821 -1.20115,-1.77861 -0.51418,-1.09388 -0.54731,-1.65444 -0.54731,-9.25991 0,-9.65841 -0.092,-10.17497 -2.141,-12.01717 -2.83134,-2.54562 -7.48558,-2.99057 -11.27178,-1.07761 l -1.26787,0.64059 0.0157,2.46453 c 0.0128,2.01739 0.0734,2.3723 0.33365,1.95621 0.71869,-1.14895 1.84297,-2.26056 2.69548,-2.6651 1.75616,-0.83335 4.88704,-0.37344 5.33084,0.78308 0.30501,0.79486 0.17023,2.80865 -0.24123,3.60434 -0.31264,0.60458 -1.07094,1.10073 -3.26979,2.13941 -1.5745,0.74376 -3.40088,1.61476 -4.05862,1.93556 -1.90407,0.92869 -4.1058,3.26964 -4.66847,4.96367 -0.79905,2.40571 -0.208,5.86672 1.27271,7.45257 1.6765,1.79556 5.42093,2.36547 8.12672,1.23689 z m 24.35816,0.51162 c 0,-0.0907 -0.37537,-0.59248 -0.83416,-1.115 -1.69151,-1.92653 -1.69106,-1.92342 -1.78559,-12.43966 l -0.0861,-9.58233 1.95351,0.15299 c 1.07444,0.0841 2.40395,0.34394 2.95447,0.57733 l 1.00096,0.42435 v -2.13895 -2.13895 h -2.80267 -2.80267 v -2.93613 c 0,-1.61487 -0.0901,-2.93036 -0.20019,-2.92332 -0.11011,0.007 -0.68065,0.68296 -1.26788,1.50203 -1.57292,2.19392 -3.61312,3.93209 -6.78632,5.78166 l -2.82283,1.64535 2.18773,0.0773 2.18773,0.0773 0.0811,10.33262 c 0.0731,9.31972 0.12826,10.42736 0.56224,11.29905 0.26462,0.53153 0.74508,1.09394 1.06768,1.24981 0.61626,0.29774 7.39303,0.43942 7.39303,0.15456 z m 19.72224,-0.64966 c 2.29086,-0.80518 2.46945,-1.08631 2.37703,-3.74202 l -0.0783,-2.24985 -0.6238,1.00331 c -0.91685,1.47465 -2.75113,2.45843 -4.57742,2.455 -2.80782,-0.005 -4.88327,-1.6265 -5.74417,-4.48703 l -0.36539,-1.2141 0.90776,-0.79702 c 0.49926,-0.43836 2.13082,-1.42527 3.62569,-2.19312 3.02743,-1.55509 5.34777,-3.57979 6.39249,-5.578 0.93574,-1.78978 0.89661,-4.07252 -0.0955,-5.57171 -2.03526,-3.07548 -7.49546,-4.1837 -11.52465,-2.33908 -4.86622,2.22783 -7.79563,9.50386 -6.42671,15.96261 1.00635,4.74815 3.8596,7.93563 8.14165,9.09536 2.16635,0.58673 5.78599,0.43076 7.99132,-0.34435 z m 15.39062,-0.021 c 2.54494,-0.93866 4.63073,-2.9705 5.41677,-5.27665 0.1701,-0.49903 0.30809,-1.70018 0.30665,-2.66921 -0.005,-3.35322 -1.59476,-5.47565 -6.3272,-8.44699 -2.57053,-1.61395 -3.81318,-2.89085 -3.81318,-3.91828 0,-0.82575 1.37135,-1.98955 2.58621,-2.1948 2.15976,-0.36489 4.18074,0.70938 5.74833,3.05556 0.43317,0.64833 0.44624,0.5985 0.45985,-1.75256 l 0.014,-2.41987 -1.00096,-0.55904 c -4.08473,-2.28136 -9.46208,-1.74677 -12.12962,1.20588 -1.25439,1.38846 -1.66054,2.67553 -1.43973,4.56241 0.36246,3.0973 1.64141,4.67863 6.18394,7.64602 3.84223,2.50991 4.49492,3.68472 3.32317,5.98155 -0.79545,1.5592 -2.16134,2.2811 -4.32013,2.28329 -1.58572,0.002 -1.88612,-0.0864 -2.80267,-0.82141 -0.56462,-0.45277 -1.26682,-1.19886 -1.56043,-1.65798 -0.29361,-0.45911 -0.62393,-0.83938 -0.73403,-0.84504 -0.11011,-0.006 -0.20019,1.05435 -0.20019,2.35556 v 2.36583 l 1.60508,0.72032 c 2.70992,1.21614 6.03207,1.36358 8.68414,0.38541 z M 98.34992,139.32168 c 1.14524,-0.96366 1.53406,-2.38335 1.00169,-3.65748 -0.47344,-1.13311 -1.81325,-2.05966 -2.97829,-2.05966 -1.86787,0 -3.57422,2.03981 -3.21625,3.84478 0.46569,2.34811 3.37905,3.39857 5.19285,1.87236 z"
       id="path116"
       sodipodi:nodetypes="ccccccccsscsssscsscssscsssscsssscssssssssssccscscsssscssssscssssscssscssccssssssssssssscssssscscssssssssssssssssssscsssssssscccssssssssssssccscccccssssccccsssssscscscsssssssssssssssscssssscsscscsssssss" />
  </g>
</svg>
