<?xml version="1.0" encoding="UTF-8" standalone="no"?>
<svg
   xmlns:dc="http://purl.org/dc/elements/1.1/"
   xmlns:cc="http://creativecommons.org/ns#"
   xmlns:rdf="http://www.w3.org/1999/02/22-rdf-syntax-ns#"
   xmlns:svg="http://www.w3.org/2000/svg"
   xmlns="http://www.w3.org/2000/svg"
   xmlns:sodipodi="http://sodipodi.sourceforge.net/DTD/sodipodi-0.dtd"
   xmlns:inkscape="http://www.inkscape.org/namespaces/inkscape"
   inkscape:version="1.0 (4035a4fb49, 2020-05-01)"
   sodipodi:docname="EY_ETD.svg"
   id="svg41"
   style="clip-rule:evenodd;fill-rule:evenodd;stroke-linecap:round;stroke-linejoin:round;stroke-miterlimit:1.5"
   xml:space="preserve"
   version="1.1"
   viewBox="0 0 359.99976 121.43045"
   height="121.43045"
   width="359.99976"><metadata
   id="metadata47"><rdf:RDF><cc:Work
       rdf:about=""><dc:format>image/svg+xml</dc:format><dc:type
         rdf:resource="http://purl.org/dc/dcmitype/StillImage" /><dc:title></dc:title></cc:Work></rdf:RDF></metadata><defs
   id="defs45">
        
        
        
        
        
        
        
        
    </defs><sodipodi:namedview
   inkscape:current-layer="svg41"
   inkscape:window-maximized="1"
   inkscape:window-y="-8"
   inkscape:window-x="-8"
   inkscape:cy="-11.32943"
   inkscape:cx="145.83411"
   inkscape:zoom="1.8732143"
   fit-margin-bottom="0"
   fit-margin-right="0"
   fit-margin-left="0"
   fit-margin-top="0"
   showgrid="false"
   id="namedview43"
   inkscape:window-height="1027"
   inkscape:window-width="1920"
   inkscape:pageshadow="2"
   inkscape:pageopacity="0"
   guidetolerance="10"
   gridtolerance="10"
   objecttolerance="10"
   borderopacity="1"
   bordercolor="#666666"
   pagecolor="#ffffff" />
    
    <g
   transform="translate(-134.16589,-211.32943)"
   id="g96"><g
     id="шаблон"
     transform="matrix(0.14672958,0,0,0.17577549,143.35929,211.30271)">
        <g
   transform="matrix(0.961274,0,0,1.09237,4.22516,8.00669)"
   id="g4">
            <rect
   x="47.618999"
   y="137.85899"
   width="478.53201"
   height="75.797997"
   style="fill:none;stroke:#00e0ff;stroke-width:2.24px"
   id="rect2" />
        </g>
        <g
   transform="matrix(0.976853,0,0,0.976853,4.57967,8.316)"
   id="g8">
            <rect
   x="154.804"
   y="69.083"
   width="254.286"
   height="254.286"
   style="fill:none;stroke:#ffad00;stroke-width:2.35px"
   id="rect6" />
        </g>
        <g
   transform="matrix(1.15519,0,0,1.15519,-43.4523,-31.0373)"
   id="g12">
            <circle
   cx="280"
   cy="200"
   r="119.461"
   style="fill:none;stroke:#ffad00;stroke-width:1.99px"
   id="circle10" />
        </g>
        <g
   transform="matrix(1.48581,0,0,1.09663,-45.494,-15.3517)"
   id="g16">
            <rect
   x="107.614"
   y="112.483"
   width="222.908"
   height="167.787"
   style="fill:none;stroke:#ee00ff;stroke-width:1.76px"
   id="rect14" />
        </g>
        <g
   transform="matrix(0,1.48581,-1.09663,0,495.352,-125.494)"
   id="g20">
            <rect
   x="107.614"
   y="112.483"
   width="222.908"
   height="167.787"
   style="fill:none;stroke:#00ff9f;stroke-width:1.76px"
   id="rect18" />
        </g>
    </g><path
     id="path23"
     style="fill:#a18b5d;fill-rule:nonzero;stroke-width:0.975345"
     d="m 188.49254,295.01402 0.97534,0.29261 h 0.0975 l 1.95069,-0.97535 c 0.68274,-0.39014 1.26795,-0.58521 1.95069,-0.58521 h 26.91952 v 36.08777 l -0.19507,0.58521 c -0.0975,0.0975 -0.2926,0.2926 -0.39014,0.2926 l -1.26795,0.78028 -0.0975,0.0975 v 0.87781 h 14.33757 v -0.87781 l -1.46302,-0.87781 -0.48767,-0.39014 v -0.48767 -36.08777 h 23.89595 c 0.97535,0.0975 1.26795,0.39014 1.26795,0.58521 v 0.97535 h 0.87781 l 6.82742,-8.38797 H 194.9298 Z m 2.34083,17.26361 -0.0975,0.2926 h 1.17042 l 6.72988,-8.38796 h -47.49931 l -4.48658,6.63234 h 42.91518 c 1.07288,0.0975 1.36548,0.39014 1.36548,0.58521 v 0.0975 z m 14.04496,13.06962 c -0.39013,0.29261 -0.78027,0.39014 -0.97534,0.48767 l -33.0642,0.0975 c -7.70522,0 -13.45976,-0.97535 -17.16607,-2.92604 -5.75453,-3.02357 -8.58304,-7.31508 -8.58304,-13.16715 0,-2.63344 0.78028,-5.16933 2.2433,-7.41263 2.8285,-4.19398 7.21755,-6.92494 13.16716,-7.99782 1.65808,-0.29261 2.92603,-0.48768 3.90138,-0.58521 1.75562,-0.0975 3.80384,-0.0975 6.04714,-0.0975 h 10.24112 c 1.07288,0.0975 1.36548,0.39014 1.36548,0.58521 v 0.0975 l -0.0975,0.48767 -0.0975,0.2926 h 0.97535 l 6.82741,-8.29043 h -19.2143 c -4.68165,0 -8.29043,0.19507 -10.82632,0.48767 -1.36549,0.19507 -2.63344,0.39014 -3.80385,0.68274 -3.21864,0.68274 -6.43728,1.95069 -9.55838,3.70631 -4.87673,2.73097 -8.38797,6.24221 -10.43619,10.53373 -1.17042,2.34083 -1.65809,5.07179 -1.65809,7.90029 0,7.31509 3.90138,13.16716 11.70414,17.36115 3.60878,1.95069 7.51016,3.31617 11.80168,3.99891 3.21863,0.48767 7.70522,0.78028 13.26469,0.78028 h 30.62583 l 6.82742,-8.38797 h -1.46302 z m 62.22701,-37.35571 1.36549,0.87781 c 0.48767,0.2926 0.68274,0.58521 0.68274,0.87781 v 40.08668 l -0.19507,0.68274 c -0.0975,0.0975 -0.2926,0.2926 -0.48767,0.39014 l -1.26795,0.78027 -0.0975,0.0975 v 0.87781 h 14.24004 v -0.87781 l -1.26795,-0.87781 c -0.2926,-0.19507 -0.39014,-0.29261 -0.39014,-0.39014 l -0.0975,-40.76942 0.19507,-0.58521 0.39014,-0.2926 1.07288,-0.78028 0.0975,-0.0975 v -0.87781 h -14.24004 z m 105.1422,5.3644 6.92495,7.31508 7.80276,7.9003 h -12.97209 l -6.43728,7.02248 0.78028,0.39014 0.0975,0.0975 1.56055,-0.78027 c 0.19507,-0.0975 0.39014,-0.19507 0.48767,-0.19507 h 22.53047 l 14.43511,15.21538 c 0.0975,0.0975 0.19507,0.0975 0.19507,0.2926 l 0.19507,0.48768 c 0,0.19507 -0.39014,0.48767 -1.75562,0.48767 h -0.29261 v 0.97534 h 15.60552 L 378.19711,287.1137 Z m 121.04031,11.50907 -0.2926,0.0975 0.2926,-0.0975 c -1.75562,-5.46193 -5.657,-9.94852 -11.80167,-13.26469 -5.46194,-3.02357 -13.45977,-4.58413 -23.89596,-4.58413 h -40.18421 v 0.87781 l 1.36548,0.87781 c 0.19507,0.19507 0.39014,0.29261 0.39014,0.39014 v 4.48659 h 38.42859 c 7.9003,0 13.65483,1.07288 17.16607,3.1211 5.55947,3.31618 8.38797,7.60769 8.38797,13.06963 0,2.8285 -0.68274,5.26686 -2.14576,7.51015 -1.46301,2.2433 -3.60877,4.09645 -6.53481,5.55947 -3.70631,1.95069 -9.46085,2.92603 -17.06854,2.92603 H 436.91291 V 296.0869 h -10.53373 l 0.0975,33.74694 -0.19507,0.58521 c -0.0975,0.0975 -0.19507,0.19506 -0.39014,0.39013 l -1.17041,0.78028 -0.0975,0.0975 v 0.87782 h 32.77159 c 6.43728,0 11.31401,-0.39014 14.82525,-1.07288 4.77919,-0.97535 8.97317,-2.63344 12.58195,-5.0718 3.60877,-2.43836 6.24221,-5.26686 7.70522,-8.38797 1.07288,-2.34082 1.65809,-4.87672 1.65809,-7.51015 -0.0975,-2.04823 -0.39014,-3.90138 -0.87781,-5.657 M 349.03432,331.4919 c -0.68274,-0.0975 -0.87781,-0.29261 -0.97534,-0.48768 l 27.9924,-29.16281 -5.9496,-6.33974 -35.40503,37.06311 h 15.41045 v -0.97535 h -0.19506 c -0.39014,0 -0.68275,0 -0.87782,-0.0975 m -13.55729,-4.29152 0.48767,-0.48767 10.14359,-10.92387 -0.0975,-26.13924 0.0975,-0.48768 0.39014,-0.39014 1.26795,-0.78027 0.0975,-0.0975 v -0.87781 h -14.33757 v 0.87781 l 1.36548,0.87781 c 0.48767,0.29261 0.58521,0.58521 0.58521,0.87782 v 13.84989 h -30.43077 l -6.43727,8.09537 0.97534,0.2926 h 0.0975 l 1.95069,-1.17041 c 0.39014,-0.19507 0.78027,-0.39014 0.97534,-0.48768 0.19507,-0.0975 0.48767,-0.0975 0.87781,-0.0975 h 31.79625 z m -36.96558,3.21864 -0.0975,-40.67189 0.19507,-0.48767 c 0.0975,-0.0975 0.19507,-0.19507 0.48767,-0.29261 l 1.26795,-0.78027 0.0975,-0.0975 v -0.87781 h -14.33757 v 0.87781 l 1.36548,0.87781 c 0.19507,0.19507 0.39014,0.29261 0.39014,0.39014 l 0.0975,40.57435 -0.19507,0.68275 c -0.0975,0.0975 -0.19507,0.2926 -0.39014,0.39013 l -1.26795,0.78028 -0.0975,0.0975 v 0.87781 h 14.33757 v -0.87781 l -1.36548,-0.87781 c -0.29261,-0.39013 -0.48768,-0.48767 -0.48768,-0.5852 m 53.83905,-66.12839 9.65591,9.65591 9.65592,-9.65591 -6.24221,-6.24221 7.60769,-8.09537 v -37.35571 l -0.58521,-0.0975 c 0,0 -0.5852,1.26794 -3.21863,4.09644 -1.56056,1.65809 -2.34083,2.2433 -2.8285,2.5359 -0.29261,0.19507 -0.68275,0.2926 -0.68275,0.78028 v 0.48767 c 0.19507,1.95069 2.43837,1.07288 2.63344,4.09645 0.0975,1.07288 0.0975,3.99891 0.0975,7.51016 0,6.43727 -0.0975,14.7277 -0.0975,15.80058 l -6.53482,6.72989 -6.53481,-6.72989 c 0,-1.07287 -0.0975,-9.36331 -0.0975,-15.80058 0,-3.51125 0,-6.43728 0.0975,-7.51016 0.0975,-3.02357 2.34083,-2.24329 2.63343,-4.09645 v -0.48767 c 0,-0.39014 -0.2926,-0.58521 -0.68274,-0.68274 -0.39014,-0.29261 -1.26795,-0.87781 -2.8285,-2.5359 -2.63343,-2.8285 -3.1211,-4.09645 -3.21864,-4.09645 h -0.2926 v 38.03845 l 7.60769,7.51016 z m 14.1425,0 -4.58412,4.58412 -4.58412,-4.58412 4.58412,-4.58413 z m 20.18964,-6.92495 c 0,0 -0.0975,-13.36223 -0.0975,-23.21322 0,-4.87672 0,-8.97317 0.0975,-10.04605 0.19507,-3.02357 3.02357,-2.14576 3.21864,-4.09645 v -0.48767 c 0,-0.48767 -0.39014,-0.58521 -0.78028,-0.78028 -0.48767,-0.2926 -1.56055,-0.87781 -3.51124,-2.53589 -3.21864,-2.8285 -3.99891,-4.09645 -3.99891,-3.99892 l -0.48767,-0.87781 v 46.32889 h 5.55946 z M 260.473,262.82764 c 0,0.0975 1.36548,4.97426 8.09536,4.97426 h 0.39014 c 7.02248,-0.19507 8.87564,-5.16933 8.87564,-5.26687 v -20.0921 -0.19507 c 0,-0.97535 -0.19507,-4.68166 -3.60878,-4.68166 h -31.01597 v -0.78027 c 0.0975,-3.02357 2.2433,-2.2433 2.43836,-4.09645 v -0.48768 c 0,-0.0975 0,-0.0975 -0.0975,-0.2926 -0.48767,-0.2926 -0.2926,0 -0.78028,-0.2926 -0.39013,-0.19507 -1.17041,-0.78028 -2.43836,-2.2433 -2.5359,-2.8285 -3.1211,-3.21863 -3.1211,-3.31617 l -0.48768,-0.2926 V 242.638 h 30.82091 c 0.78027,0 2.53589,0.19506 2.53589,2.53589 v 14.24004 c 0,0 0,3.31617 -3.31617,3.31617 -1.75562,0 -2.92603,-0.68274 -3.70631,-1.36548 -0.78028,-0.68274 -1.17041,-1.36548 -1.17041,-1.36548 v -7.99783 H 238.7228 v 5.85207 h 21.65266 v 4.97426 z m 63.98263,-4.09645 v 0.87781 c 0,1.46302 0.2926,4.29152 2.63343,5.16933 0,0 0.78028,0.48767 2.04823,0.48767 0.78027,0 1.75562,-0.19507 2.63343,-0.78028 l 0.2926,-0.19506 -0.2926,-0.29261 c -1.36549,-1.07288 -1.65809,-3.99891 -1.65809,-5.55946 v -0.78028 h 14.63018 v -7.02249 -8.29043 -15.99566 l -0.48768,0.97535 c 0,0 -0.68274,1.26795 -3.80384,3.99891 -1.85316,1.65809 -2.8285,2.2433 -3.31617,2.5359 -0.39014,0.19507 -0.78028,0.2926 -0.78028,0.78028 v 0.48767 c 0.2926,1.95069 3.02357,1.17041 3.1211,4.09645 0.0975,1.46302 0.0975,9.85098 0.0975,9.85098 v 3.12111 h -9.36331 v -1.56056 c 0,-3.51124 -1.17042,-10.72879 -9.55839,-10.72879 h -0.48767 c -2.73096,0.0975 -5.16933,0.0975 -7.21755,0.0975 -5.55947,0 -8.58304,-0.48767 -9.36331,-1.95069 l -0.19507,-0.2926 -0.29261,0.19507 c -0.97534,0.58521 -1.36548,1.75562 -1.36548,3.02357 0,1.95069 1.07288,4.19398 3.02357,4.29152 1.26795,0.0975 3.21864,0.0975 5.0718,0.0975 3.4137,0 6.82741,-0.0975 6.82741,-0.0975 7.90029,0.0975 7.70523,3.60877 7.70523,4.87672 v 1.95069 h -33.94201 l 0.0975,-3.99891 -0.0975,-36.67297 -0.48767,0.87781 c 0,0 -0.78028,1.26795 -3.99892,3.99891 -1.95069,1.65809 -2.92603,2.24329 -3.51124,2.5359 -0.48767,0.19507 -0.78027,0.2926 -0.78027,0.78027 v 0.48768 c 0.2926,1.95069 3.1211,1.17041 3.21863,4.09645 0.19507,2.24329 0.19507,15.70305 0.19507,23.40828 v 5.36439 l 0.0975,4.58412 h 39.20887 v 1.17042 z m 19.89704,-36.67297 -0.19507,-0.19507 -3.99892,-4.09645 -4.29151,4.29152 4.29151,4.29151 z m -9.36331,0 -0.19507,-0.19507 -3.99892,-4.09645 -4.19398,4.29152 4.19398,4.29151 z" /><path
     id="path25"
     style="fill:#a18b5d;fill-rule:nonzero;stroke-width:0.975345"
     d="m 279.59085,279.06658 -0.39014,1.07288 c -1.36548,3.80385 -0.39014,3.90138 1.95069,4.19399 v 0.5852 h -6.82741 v -0.5852 c 1.17041,-0.39014 1.65808,-0.39014 2.14576,-1.56056 l 4.87672,-11.314 -0.19507,-0.68274 c 0.87781,-0.2926 1.56055,-0.97534 2.04823,-1.65809 h 0.39013 l 4.09645,10.7288 c 1.46302,3.60878 1.26795,3.90138 3.51125,4.58412 v 0.58521 h -7.51016 v -0.58521 c 2.14576,-0.39014 2.24329,-0.78028 1.07288,-3.90138 l -0.48767,-1.36548 h -4.68166 z m 4.29152,-1.36548 -1.95069,-5.07179 -1.85316,5.07179 z" /><path
     id="path27"
     style="fill:#a18b5d;fill-rule:nonzero;stroke-width:0.975345"
     d="m 316.16629,280.04193 c 0,3.99891 0.2926,3.80384 2.92603,4.29152 v 0.5852 h -8.68057 v -0.5852 c 2.63343,-0.48768 2.92604,-0.29261 2.92604,-4.29152 v -5.16933 c 0,-3.99892 -0.29261,-3.80385 -2.92604,-4.29152 v -0.58521 h 8.68057 v 0.58521 c -2.63343,0.48767 -2.92603,0.2926 -2.92603,4.29152 z" /><path
     id="path29"
     style="fill:#a18b5d;fill-rule:nonzero;stroke-width:0.975345"
     d="m 341.42772,274.18986 c 0,-2.92604 -0.0975,-3.41371 -2.92603,-3.60878 v -0.58521 h 6.82741 c 2.73097,0 6.33975,0 6.33975,3.51125 0,1.75562 -1.26795,3.02357 -2.82851,3.60877 1.65809,3.21864 3.90138,6.63235 7.51016,7.51016 l -0.0975,0.58521 c -1.95069,-0.0975 -4.19399,0.0975 -5.94961,-1.07288 -1.07288,-0.78028 -2.34083,-2.8285 -3.02357,-4.09645 -1.07288,-1.95069 -0.87781,-1.85316 -2.92603,-2.14576 v 2.24329 c 0,3.02357 -0.0975,3.99892 3.41371,4.29152 v 0.58521 h -9.16825 v -0.58521 c 2.63343,-0.48767 2.92604,-0.2926 2.92604,-4.29152 v -5.9496 z m 2.92604,2.92603 c 2.04822,-0.0975 4.09645,-0.97534 4.09645,-3.4137 0,-2.2433 -2.14576,-2.92604 -4.09645,-2.92604 z" /><path
     id="path31"
     style="fill:#a18b5d;fill-rule:nonzero;stroke-width:0.975345"
     d="m 376.05247,285.40633 -0.87781,-0.19507 -3.60878,-11.60661 c -0.48767,-1.56055 -0.68274,-2.63343 -2.43836,-3.02357 v -0.58521 h 6.82742 v 0.58521 c -2.34083,0.58521 -1.95069,1.07288 -1.17042,3.60878 l 1.95069,6.24221 2.73097,-7.9003 c -0.39014,-1.26795 -1.07288,-1.75562 -2.34083,-2.04822 v -0.58521 h 7.02248 v 0.58521 c -1.85315,0.48767 -2.24329,0.48767 -1.36548,3.4137 l 2.04823,6.72988 0.78027,-2.43836 c 0.39014,-1.26795 1.65809,-5.16933 1.65809,-6.24221 0,-1.17041 -0.97535,-1.17041 -1.95069,-1.46301 v -0.58521 h 5.9496 v 0.58521 c -1.95069,0.5852 -2.24329,1.07288 -3.1211,3.70631 l -3.90138,11.0214 -0.87781,-0.19507 -3.41371,-10.92387 h -0.0975 z" /><path
     id="path33"
     style="fill:#a18b5d;fill-rule:nonzero;stroke-width:0.975345"
     d="m 409.70187,279.06658 -0.39014,1.07288 c -1.26794,3.80385 -0.39013,3.90138 1.9507,4.19399 v 0.5852 h -6.82742 v -0.5852 c 1.17041,-0.39014 1.65809,-0.39014 2.24329,-1.56056 l 4.87673,-11.314 -0.19507,-0.68274 c 0.87781,-0.2926 1.56055,-0.97534 2.04822,-1.65809 h 0.39014 l 4.09645,10.7288 c 1.46302,3.60878 1.26795,3.90138 3.51124,4.58412 v 0.58521 h -7.41262 v -0.58521 c 2.14576,-0.39014 2.24329,-0.78028 1.07288,-3.90138 l -0.48767,-1.36548 h -4.87673 z m 4.38906,-1.36548 -2.04823,-5.07179 -1.85315,5.07179 z" /><path
     id="path35"
     style="fill:#a18b5d;fill-rule:nonzero;stroke-width:0.975345"
     d="m 446.96005,280.04193 c 0,3.02357 -0.0975,3.99891 3.21864,4.29152 v 0.5852 h -9.26578 v -0.5852 c 2.92604,-0.48768 3.21864,-0.29261 3.21864,-4.29152 v -0.97535 l -2.43836,-4.97426 c -0.97535,-2.04822 -1.26795,-2.92603 -3.70631,-3.4137 v -0.58521 h 7.60769 v 0.58521 c -1.56055,0.39013 -2.24329,0.19506 -0.97535,2.92603 l 1.95069,3.99892 1.17042,-2.43837 c 1.85315,-3.80384 1.46302,-3.99891 -0.48767,-4.48658 v -0.58521 h 6.43727 v 0.58521 c -1.85315,0.39013 -2.73096,0.87781 -3.60877,2.53589 l -2.73097,4.48659 -0.39014,0.87781 z" /><path
     id="path37"
     style="fill:#a18b5d;fill-rule:nonzero;stroke-width:0.975345"
     d="m 483.24289,274.48246 h -0.68275 c -0.39013,-1.85315 -0.97534,-3.80384 -3.21863,-3.80384 -1.36549,0 -2.2433,0.97534 -2.2433,2.34082 0,3.60878 7.21756,3.31618 7.21756,7.9003 0,3.1211 -3.02357,4.48659 -5.85207,4.48659 -1.56056,0 -3.12111,-0.39014 -4.48659,-1.17042 l -0.68274,-4.38905 0.68274,-0.0975 c 0.68274,2.14576 2.34083,4.58413 4.87672,4.58413 1.46302,0 2.5359,-0.97535 2.5359,-2.34083 0,-3.70631 -7.21755,-3.41371 -7.21755,-7.70523 0,-2.92603 2.8285,-4.58412 5.46193,-4.58412 1.36548,0 2.63343,0.2926 3.70631,0.97535 z" /></g>
</svg>
