<?xml version="1.0" encoding="UTF-8" standalone="no"?>
<svg
   xmlns:dc="http://purl.org/dc/elements/1.1/"
   xmlns:cc="http://creativecommons.org/ns#"
   xmlns:rdf="http://www.w3.org/1999/02/22-rdf-syntax-ns#"
   xmlns:svg="http://www.w3.org/2000/svg"
   xmlns="http://www.w3.org/2000/svg"
   xmlns:sodipodi="http://sodipodi.sourceforge.net/DTD/sodipodi-0.dtd"
   xmlns:inkscape="http://www.inkscape.org/namespaces/inkscape"
   inkscape:version="1.0 (4035a4fb49, 2020-05-01)"
   height="101.60851"
   width="439.99957"
   sodipodi:docname="FI.svg"
   id="svg711"
   version="1.1"
   viewBox="0 0 439.99957 101.60851"
   fill-rule="evenodd"
   clip-rule="evenodd">
  <metadata
     id="metadata717">
    <rdf:RDF>
      <cc:Work
         rdf:about="">
        <dc:format>image/svg+xml</dc:format>
        <dc:type
           rdf:resource="http://purl.org/dc/dcmitype/StillImage" />
        <dc:title></dc:title>
      </cc:Work>
    </rdf:RDF>
  </metadata>
  <defs
     id="defs715" />
  <sodipodi:namedview
     inkscape:current-layer="svg711"
     inkscape:window-maximized="0"
     inkscape:window-y="0"
     inkscape:window-x="0"
     inkscape:cy="50.804503"
     inkscape:cx="220"
     inkscape:zoom="1.8732143"
     fit-margin-bottom="0"
     fit-margin-right="0"
     fit-margin-left="0"
     fit-margin-top="0"
     showgrid="false"
     id="namedview713"
     inkscape:window-height="480"
     inkscape:window-width="712"
     inkscape:pageshadow="2"
     inkscape:pageopacity="0"
     guidetolerance="10"
     gridtolerance="10"
     objecttolerance="10"
     borderopacity="1"
     bordercolor="#666666"
     pagecolor="#ffffff" />
  <linearGradient
     x2="1"
     gradientUnits="userSpaceOnUse"
     gradientTransform="matrix(13.5,5.01,-5.01,13.5,402.486,-54.065497)"
     id="a">
    <stop
       id="stop657"
       stop-color="#8b350b"
       offset="0" />
    <stop
       id="stop659"
       stop-color="#8b350b"
       offset=".07" />
    <stop
       id="stop661"
       stop-color="#913c0e"
       offset=".15" />
    <stop
       id="stop663"
       stop-color="#a34e14"
       offset=".28" />
    <stop
       id="stop665"
       stop-color="#a65215"
       offset=".3" />
    <stop
       id="stop667"
       stop-color="#b76519"
       offset=".46" />
    <stop
       id="stop669"
       stop-color="#e8a71f"
       offset=".89" />
    <stop
       id="stop671"
       stop-color="#e8a71f"
       offset="1" />
  </linearGradient>
  <linearGradient
     x2="1"
     gradientUnits="userSpaceOnUse"
     gradientTransform="matrix(40.682,18.84,-18.84,40.682,414.948,-81.620497)"
     id="b">
    <stop
       id="stop674"
       stop-color="#e79000"
       offset="0" />
    <stop
       id="stop676"
       stop-color="#e89400"
       offset=".02" />
    <stop
       id="stop678"
       stop-color="#eca022"
       offset=".06" />
    <stop
       id="stop680"
       stop-color="#eda42c"
       offset=".07" />
    <stop
       id="stop682"
       stop-color="#f0b24d"
       offset=".1" />
    <stop
       id="stop684"
       stop-color="#fbddaa"
       offset=".2" />
    <stop
       id="stop686"
       stop-color="#fadaa3"
       offset=".22" />
    <stop
       id="stop688"
       stop-color="#f9d48f"
       offset=".26" />
    <stop
       id="stop690"
       stop-color="#f7c96c"
       offset=".3" />
    <stop
       id="stop692"
       stop-color="#f4bb35"
       offset=".35" />
    <stop
       id="stop694"
       stop-color="#f4ba30"
       offset=".35" />
    <stop
       id="stop696"
       stop-color="#eea900"
       offset=".66" />
    <stop
       id="stop698"
       stop-color="#e78e00"
       offset=".98" />
    <stop
       id="stop700"
       stop-color="#e78e00"
       offset="1" />
  </linearGradient>
  <path
     id="path703"
     fill="#003a7d"
     d="m 437.757,0.02950343 c -3.024,0.302 -27.814,1.81399997 -27.814,1.81399997 0,0 -0.907,-0.302 -2.419,1.209 -1.209,1.512 -76.184,86.1609996 -76.184,86.1609996 0,0 -10.278,11.185997 -24.79,12.394997 H 409.036 L 439.872,1.8435034 c 0,0 0.907,-2.11599997 -2.116,-1.81399997 z" />
  <path
     style="fill:url(#a)"
     id="path705"
     fill="url(#a)"
     d="m 364.293,77.121503 c -0.605,0.302 -1.209,0.907 -1.512,1.512 -0.302,0.906 0.605,1.813 1.512,2.418 1.209,0.605 2.721,0.907 5.442,0.907 3.024,0 4.535,-0.605 4.535,-0.605 0,0 0.605,-1.814 1.209,-3.023 l 2.116,-4.535 c -5.744,0.302 -10.278,1.512 -13.302,3.326 z" />
  <path
     style="fill:url(#b)"
     id="path707"
     fill="url(#b)"
     d="m 419.618,42.354503 c 0,0 -2.419,3.024 -11.489,2.721 -6.046,0 -9.069,-1.814 -16.325,-2.116 -8.163,0 -13.907,2.721 -15.721,6.349 -0.906,1.814 -5.442,12.093 -5.442,12.093 0,0 2.419,-2.72 6.651,-3.93 5.744,-1.814 11.186,-1.512 16.628,-0.605 3.93,0.605 6.349,1.512 9.976,1.209 3.326,0 5.139,-0.907 6.349,-1.512 1.814,-0.907 3.326,-2.419 5.442,-5.744 1.814,-2.116 3.628,-7.256 3.931,-8.465 z m -56.232,35.069 c 1.209,-2.721 3.024,-7.256 5.442,-11.488 0.302,-0.907 1.209,-1.814 2.116,-2.419 3.024,-2.721 9.977,-4.837 18.441,-4.232 6.046,0.604 8.465,1.209 12.093,1.511 1.512,0 3.326,0.302 4.838,0 3.93,-0.605 5.139,-1.511 5.139,-1.511 0,0 -2.419,6.349 -6.046,10.278 -4.233,4.837 -8.465,5.139 -16.628,4.535 -11.79,-1.209 -19.952,0.302 -24.488,3.326 -0.605,0.302 -1.209,1.209 -1.512,1.813 0,0 0,-0.604 0.605,-1.813 z" />
  <path
     id="path709"
     fill="#003a7d"
     d="m 158.112,45.377503 h -12.395 c 0,0.302 0,0.302 0.302,0.605 0.605,0.302 1.209,0.906 1.814,1.511 0.907,0.907 0.907,1.209 0.907,2.721 v 23.278 h 7.558 v -18.744 l 16.627,18.744 h 6.651 v -28.115 h -10.581 c 0,0.302 0,0.605 0.302,0.605 0.605,0.302 1.209,0.906 1.813,1.511 0.605,0.605 0.907,0.907 0.907,2.419 v 10.883 l -13.907,-15.418 z m 139.369,28.115 -6.046,-9.976 h -6.953 v 9.976 h -8.465 v -23.278 c 0,-1.512 -0.302,-1.814 -0.605,-2.419 -0.605,-0.907 -1.209,-1.209 -1.814,-1.511 -0.302,-0.302 -0.605,-0.302 -0.605,-0.605 h 21.767 c 6.349,0 10.883,3.023 10.883,8.767 0,4.535 -2.116,6.953 -6.046,8.465 l 6.651,10.581 z m -38.092,0 v -23.278 c 0,-1.512 -0.302,-1.814 -0.605,-2.419 -0.605,-0.907 -1.209,-1.209 -1.814,-1.511 -0.302,-0.302 -0.302,-0.302 -0.302,-0.605 h 11.488 v 28.115 h -8.767 z m -13.302,0 -2.419,-5.442 h -14.209 l -2.116,5.442 h -7.86 l 10.883,-23.883 c 0,-0.302 0.302,-0.605 0.302,-1.209 0,-0.605 -0.605,-1.209 -1.814,-2.116 -0.302,-0.302 -0.302,-0.302 -0.302,-0.907 h 14.209 l 13,28.115 z m -43.232,0 h -14.813 v -23.278 c 0,-1.512 -0.302,-1.814 -0.907,-2.419 -0.605,-0.907 -1.209,-1.209 -1.814,-1.511 -0.302,-0.605 -0.302,-0.605 -0.302,-0.907 h 17.534 c 10.279,0 15.721,5.442 15.721,13.907 0,8.162 -4.837,14.208 -15.419,14.208 z m -118.508,0 v -23.278 c 0,-1.512 -0.302,-1.814 -0.605,-2.419 -0.605,-0.907 -1.209,-1.209 -1.814,-1.511 -0.302,-0.302 -0.302,-0.302 -0.302,-0.605 h 11.489 v 21.464 h 13.302 v 6.651 h -22.07 z m -32.953,0 v -23.278 c 0,-1.512 -0.302,-1.814 -0.605,-2.419 -0.605,-0.907 -1.209,-1.209 -1.814,-1.511 -0.302,-0.302 -0.302,-0.302 -0.302,-0.605 h 29.325 v 5.744 H 60.161 v 4.837 h 13.302 v 5.744 H 60.161 v 5.442 h 17.837 v 6.046 z m -17.232,0.907 c -9.977,0 -18.744,-4.232 -18.744,-14.813 0,-8.465 6.349,-15.419 18.744,-15.419 4.837,0 8.464,0.907 11.79,2.419 l -2.116,6.65 c -1.813,-1.209 -5.139,-2.418 -9.069,-2.418 -7.558,0 -10.582,4.232 -10.582,8.465 0,5.744 4.535,8.767 10.582,8.767 3.93,0 7.256,-1.209 9.371,-2.418 l 2.116,6.046 c -2.721,1.209 -6.953,2.72 -12.093,2.72 z m -31.441,-0.907 v -29.022 c 0,-1.512 -0.302,-1.814 -0.605,-2.419 -0.907,-0.907 -1.512,-1.209 -1.814,-1.512 C 0,40.237503 0,40.237503 0,39.935503 h 11.488 v 33.557 z m 290.225,-22.673 h -8.464 v 6.953 h 9.069 c 2.721,0 4.233,-1.209 4.233,-3.628 0,-1.511 -0.907,-3.325 -4.838,-3.325 z m -56.231,1.209 -4.837,10.581 h 9.371 l -4.535,-10.581 z m -35.068,-0.605 h -5.14 v 15.72 h 5.14 c 6.046,0 8.162,-2.72 8.162,-7.86 0,-5.442 -2.72,-7.86 -8.162,-7.86 z m -65.906,22.069 -2.419,-5.442 h -14.208 l -2.419,5.442 h -7.86 l 10.883,-23.883 c 0,-0.302 0.302,-0.605 0.302,-1.209 0,-0.605 -0.605,-1.209 -1.813,-2.116 -0.302,-0.302 -0.302,-0.302 -0.302,-0.907 h 14.209 l 12.999,28.115 h -9.371 z m -9.372,-21.464 -4.837,10.581 h 9.372 z" />
</svg>
