<?xml version="1.0" encoding="UTF-8" standalone="no"?>
<svg
   xmlns:dc="http://purl.org/dc/elements/1.1/"
   xmlns:cc="http://creativecommons.org/ns#"
   xmlns:rdf="http://www.w3.org/1999/02/22-rdf-syntax-ns#"
   xmlns:svg="http://www.w3.org/2000/svg"
   xmlns="http://www.w3.org/2000/svg"
   xmlns:sodipodi="http://sodipodi.sourceforge.net/DTD/sodipodi-0.dtd"
   xmlns:inkscape="http://www.inkscape.org/namespaces/inkscape"
   inkscape:version="1.0 (4035a4fb49, 2020-05-01)"
   sodipodi:docname="GA_GIA.svg"
   id="svg52"
   viewBox="0 0 27758.666 3981.3075"
   style="clip-rule:evenodd;fill-rule:evenodd;image-rendering:optimizeQuality;shape-rendering:geometricPrecision;text-rendering:geometricPrecision"
   version="1.1"
   height="101.14734"
   width="705.29041"
   xml:space="preserve"><metadata
   id="metadata56"><rdf:RDF><cc:Work
       rdf:about=""><dc:format>image/svg+xml</dc:format><dc:type
         rdf:resource="http://purl.org/dc/dcmitype/StillImage" /><dc:title></dc:title></cc:Work></rdf:RDF></metadata><sodipodi:namedview
   inkscape:current-layer="svg52"
   inkscape:window-maximized="1"
   inkscape:window-y="-8"
   inkscape:window-x="-8"
   inkscape:cy="26.659373"
   inkscape:cx="368.94099"
   inkscape:zoom="1.423666"
   fit-margin-bottom="0"
   fit-margin-right="0"
   fit-margin-left="0"
   fit-margin-top="0"
   showgrid="false"
   id="namedview54"
   inkscape:window-height="1027"
   inkscape:window-width="1920"
   inkscape:pageshadow="2"
   inkscape:pageopacity="0"
   guidetolerance="10"
   gridtolerance="10"
   objecttolerance="10"
   borderopacity="1"
   bordercolor="#666666"
   pagecolor="#ffffff" />

 <defs
   id="defs4">

  <style
   id="style2"
   type="text/css">

   <![CDATA[

    .fil1 {fill:#202D5C;fill-rule:nonzero}

    .fil0 {fill:#358E9D;fill-rule:nonzero}

    .fil2 {fill:#474343;fill-rule:nonzero}

   ]]>

  </style>

 <clipPath
   id="clipPath154"
   clipPathUnits="userSpaceOnUse"><rect
     y="2875.3879"
     x="-554.31635"
     height="3013.6282"
     width="24440.801"
     id="rect156"
     style="fill:#ff0000;stroke-width:39.3615" /></clipPath><clipPath
   id="clipPath185"
   clipPathUnits="userSpaceOnUse"><g
     id="g191"><rect
       y="27.648006"
       x="23858.836"
       height="5225.4653"
       width="5833.7207"
       id="rect187"
       style="fill:#ff0000;stroke-width:25.8709" /><rect
       style="fill:#ff0000;stroke-width:39.3615"
       id="rect189"
       width="3760.1228"
       height="2903.0364"
       x="20098.713"
       y="27.648006"
       clip-path="none" /></g></clipPath><clipPath
   id="clipPath301"
   clipPathUnits="userSpaceOnUse"><rect
     y="-304.12759"
     x="-305.42664"
     height="4285.4351"
     width="28643.291"
     id="rect303"
     style="fill:#ff0000;stroke-width:39.3615" /></clipPath></defs>

 

<g
   transform="translate(0.05800133)"
   clip-path="url(#clipPath301)"
   id="g297"><g
     id="Layer_x0020_1"
     clip-path="url(#clipPath185)"
     transform="translate(-1238.357,-27.648006)">

  <metadata
   id="CorelCorpID_0Corel-Layer" />

  <g
   id="layer1">

   <g
   id="g7026">

    <g
   id="g6656">

     <path
   id="path6658"
   class="fil0"
   d="m 24222,2222 c -582,-304 -1065,-327 -1291,-327 h -786 l -42,-74 h 924 c 64,0 830,-11 1281,110 564,151 954,447 1030,497 76,49 1105,786 1105,786 0,0 -173,177 -342,177 -160,0 -333,-123 -333,-123 0,0 -551,-397 -635,-456 -84,-59 -519,-383 -912,-589 z" />

    </g>

    <g
   id="g6660">

     <path
   id="path6662"
   class="fil0"
   d="m 24180,2803 c 389,258 618,447 693,501 74,54 420,301 420,301 0,0 159,124 354,124 148,0 330,-172 330,-172 0,0 -826,-583 -901,-635 -75,-53 -340,-262 -834,-392 -413,-109 -1000,-106 -1039,-106 h -752 l 44,76 c 0,0 567,1 610,1 91,0 665,28 1075,300 z" />

    </g>

    <g
   id="g6664">

     <path
   id="path6666"
   class="fil0"
   d="m 24307,1613 c 501,269 997,641 1089,708 93,67 846,606 846,606 0,0 176,119 337,119 157,0 335,-174 335,-174 0,0 -1202,-865 -1310,-941 -108,-76 -541,-431 -1236,-596 -544,-138 -1452,-122 -1515,-122 h -1100 l 44,76 h 960 c 199,0 966,10 1549,324 z" />

    </g>

    <g
   id="g6668">

     <path
   id="path6670"
   class="fil1"
   d="m 28663,1601 c -148,-26 -343,-38 -343,-38 l -266,76 -152,-127 c 0,0 317,25 405,38 76,0 51,-38 12,-115 -38,-76 -126,-76 -126,-76 h -799 c 0,0 -143,1 -307,-37 -165,-38 -230,-162 -230,-162 -64,147 190,318 190,318 l 791,567 c 102,64 190,13 190,13 0,0 203,-102 317,-127 102,-25 418,-38 456,-25 89,13 190,102 190,102 51,-356 -178,-379 -329,-407 z" />

    </g>

    <g
   id="g6672">

     <path
   id="path6674"
   class="fil1"
   d="m 24463,426 c 551,242 1339,831 1454,915 116,84 1251,897 1251,897 0,0 178,127 343,127 165,0 328,-166 328,-166 v 0 c 0,0 -1604,-1153 -1720,-1236 C 26003,880 25471,432 24482,171 23805,-8 22641,0 22506,0 h -1452 l 45,77 h 1331 c 336,0 1305,28 2034,349 z" />

    </g>

    <g
   id="g6676">

     <path
   id="path6678"
   class="fil1"
   d="M 24379,1018 C 23784,720 23050,683 22623,683 h -1175 l -44,-76 h 1277 c 138,0 1105,-10 1745,135 738,168 1373,652 1439,698 63,44 1520,1089 1520,1089 0,0 -166,171 -345,171 -164,0 -342,-127 -342,-127 0,0 -948,-680 -1040,-745 -91,-65 -725,-534 -1279,-811 z" />

    </g>

    <g
   id="g6680">

     <path
   id="path6682"
   class="fil2"
   d="m 3053,4395 c 0,0 -89,-20 -197,-20 -240,0 -418,106 -467,266 -11,30 -14,97 -14,131 0,203 142,317 316,317 33,0 88,-8 135,-26 125,-46 227,-130 227,-258 z m 165,908 c -16,0 -86,4 -115,-29 -28,-26 -28,-65 -28,-97 v -102 c -105,155 -282,260 -548,254 -418,-12 -510,-340 -510,-521 0,-64 6,-186 101,-316 148,-208 455,-276 729,-276 117,0 206,17 206,17 v -183 c 0,-65 0,-176 -65,-254 -56,-65 -159,-114 -342,-114 -285,0 -472,161 -472,161 l 34,-216 c 0,0 193,-131 503,-131 259,0 438,71 543,177 121,126 151,242 151,474 v 1156 z" />

    </g>

    <g
   id="g6684">

     <path
   id="path6686"
   class="fil2"
   d="m 4370,3738 c -300,57 -333,294 -333,461 V 5303 H 3685 V 3725 c 0,-152 -100,-184 -100,-184 h 348 c 77,0 104,43 104,91 v 96 c 11,-32 137,-200 370,-208 76,-3 163,4 210,32 l 46,222 c -52,-29 -150,-64 -294,-37 z" />

    </g>

    <g
   id="g6688">

     <path
   id="path6690"
   class="fil2"
   d="m 6059,5303 c -12,0 -85,4 -118,-29 -26,-26 -26,-74 -26,-97 v -102 c -95,155 -266,253 -501,253 -184,0 -309,-42 -418,-160 -115,-128 -144,-287 -144,-502 v -967 c 0,-125 -108,-158 -105,-157 h 328 c 81,0 130,41 130,102 v 1062 c 0,314 93,403 313,403 181,0 378,-122 378,-309 V 3543 h 349 v 1761 h -185 z" />

    </g>

    <g
   id="g6692">

     <path
   id="path6694"
   class="fil2"
   d="m 10878,5303 c -73,0 -117,-31 -117,-120 V 3105 c 0,-131 -101,-181 -101,-181 h 340 c 101,0 146,49 146,122 v 2258 h -270 z" />

    </g>

    <g
   id="g6696">

     <path
   id="path6698"
   class="fil2"
   d="m 15674,3688 c -355,-4 -417,362 -417,752 0,485 122,717 417,717 260,0 382,-300 382,-717 0,-340 -32,-748 -382,-752 m -7,1641 c -576,-3 -783,-360 -783,-897 0,-490 207,-931 783,-928 583,4 761,444 761,928 0,495 -280,901 -761,897 z" />

    </g>

    <g
   id="g6700">

     <path
   id="path6702"
   class="fil2"
   d="m 20929,5175 c -125,106 -290,158 -474,160 h -19 c -276,0 -427,-74 -493,-112 l -50,-209 c 0,0 241,158 492,158 242,0 380,-130 364,-345 -25,-343 -819,-261 -819,-829 0,-312 254,-476 566,-480 h 20 c 322,0 441,113 441,113 l 49,195 c 0,0 -138,-136 -414,-136 -297,0 -326,238 -320,304 19,171 149,212 382,314 243,104 435,238 435,496 0,164 -63,290 -158,371 z" />

    </g>

    <g
   id="g6704">

     <path
   id="path6706"
   class="fil2"
   d="m 21405,5303 c -65,0 -100,-34 -100,-92 V 3700 c 0,-116 -110,-158 -110,-158 h 359 c 72,0 100,38 100,105 v 1656 z" />

    </g>

    <g
   id="g6708">

     <path
   id="path6710"
   class="fil2"
   d="m 11746,3542 c 67,0 101,32 101,91 v 138 c 96,-156 267,-255 501,-255 184,0 309,42 418,161 115,129 144,287 144,503 v 1124 h -210 c -90,0 -142,-61 -142,-145 V 4142 c 0,-314 -94,-403 -312,-403 -181,0 -379,122 -379,310 v 1256 h -349 V 3696 c 0,-124 -97,-152 -97,-152 h 326 z" />

    </g>

    <g
   id="g6712">

     <path
   id="path6714"
   class="fil2"
   d="m 22919,4395 c 0,0 -89,-20 -198,-20 -240,0 -418,106 -467,266 -11,30 -13,97 -13,131 0,203 141,317 316,317 33,0 89,-8 135,-26 125,-46 227,-130 227,-258 z m 165,908 c -17,0 -85,4 -116,-29 -25,-26 -25,-65 -25,-97 v -102 c -106,155 -284,260 -550,254 -418,-12 -509,-340 -509,-521 0,-64 5,-186 102,-316 147,-208 454,-276 727,-276 119,0 208,17 208,17 v -183 c 0,-65 10,-168 -63,-255 -53,-67 -165,-115 -355,-113 -326,6 -461,161 -461,161 l 35,-216 c 0,0 192,-131 502,-131 259,0 437,71 542,177 122,126 151,242 151,474 v 1156 h -187 v 0 z" />

    </g>

    <g
   id="g6716">

     <path
   id="path6718"
   class="fil2"
   d="m 7606,4135 c 0,-100 -13,-246 -93,-330 -56,-59 -144,-100 -270,-100 -342,0 -381,455 -381,700 v 26 c 3,347 102,691 388,691 155,0 263,-60 356,-177 v -811 z m 109,1168 c -69,0 -93,-23 -93,-87 v -87 c -132,118 -260,196 -453,199 h -7 c -503,0 -678,-425 -678,-897 0,-354 136,-928 695,-928 335,0 428,202 428,202 v -600 c 0,-126 -104,-191 -104,-191 h 273 c 105,0 183,73 183,152 v 2237 h -243 v 0 z" />

    </g>

    <g
   id="g6720">

     <path
   id="path6722"
   class="fil2"
   d="m 9250,4395 c 0,0 -88,-20 -197,-20 -240,0 -418,106 -467,266 -10,30 -14,97 -14,131 0,203 141,317 316,317 33,0 89,-8 135,-26 125,-46 227,-130 227,-258 z m 164,908 c -16,0 -86,4 -115,-29 -27,-26 -27,-65 -27,-97 v -102 c -105,155 -282,260 -549,254 -417,-12 -510,-340 -510,-521 0,-64 6,-186 102,-316 148,-208 454,-276 728,-276 119,0 207,17 207,17 v -183 c 0,-65 0,-176 -65,-254 -55,-65 -159,-114 -341,-114 -285,0 -473,161 -473,161 l 35,-216 c 0,0 193,-131 502,-131 260,0 438,71 543,177 121,126 151,242 151,474 v 1156 z" />

    </g>

    <g
   id="g6724">

     <path
   id="path6726"
   class="fil2"
   d="m 14287,4135 c 0,-100 -13,-246 -92,-330 -55,-59 -144,-100 -270,-100 -342,0 -382,455 -382,700 v 26 c 4,347 102,691 389,691 156,0 262,-60 355,-177 v -811 z m 110,1168 c -69,0 -94,-23 -94,-87 v -87 c -131,118 -260,196 -454,199 h -9 c -500,0 -675,-425 -675,-897 0,-354 135,-928 694,-928 335,0 427,202 427,202 v -600 c 0,-126 -103,-191 -103,-191 h 274 c 105,0 182,73 182,152 v 2237 z" />

    </g>

    <g
   id="g6728">

     <path
   id="path6730"
   class="fil2"
   d="m 16904,3542 c 68,0 102,32 102,91 v 138 c 95,-156 266,-255 501,-255 184,0 308,42 417,161 115,129 145,287 145,503 v 1124 h -211 c -89,0 -141,-61 -141,-145 V 4142 c 0,-314 -94,-403 -313,-403 -181,0 -378,122 -378,310 v 1256 h -350 V 3696 c 0,-124 -97,-152 -97,-152 h 324 z" />

    </g>

    <g
   id="g6732">

     <path
   id="path6734"
   class="fil2"
   d="m 1454,5315 c -142,19 -227,26 -365,26 C 727,5341 497,5232 322,5061 66,4807 0,4385 0,4121 c 0,-213 36,-631 378,-953 158,-148 404,-274 773,-274 329,0 487,94 487,94 l 61,218 c -13,-6 -183,-104 -466,-104 -581,0 -825,399 -825,1020 0,939 457,1013 716,1013 184,0 258,-29 258,-29 v -933 h -202 c -136,0 -194,21 -194,21 l 29,-189 h 746 v 1243 c -122,32 -187,51 -309,67 z" />

    </g>

    <g
   id="g6736">

     <path
   id="path6738"
   class="fil2"
   d="m 18683,4423 c 0,0 89,19 198,19 391,0 480,-192 498,-414 15,-198 -38,-395 -344,-357 -278,35 -352,216 -352,442 0,187 1,310 1,310 m 526,-926 c 417,30 510,341 510,521 0,65 -6,187 -102,316 -148,209 -454,276 -727,276 -119,0 -207,-16 -207,-16 v 163 c 0,308 164,391 435,387 303,-4 543,-191 543,-191 l -34,216 c 0,0 -275,160 -585,160 -260,0 -456,-69 -560,-177 -129,-134 -151,-314 -151,-546 v -385 c 0,-328 135,-777 878,-724 z" />

    </g>

   </g>

  </g>

 </g><g
     id="g148"
     transform="translate(-1.3570352,-2301.648)"
     clip-path="url(#clipPath154)">

  <metadata
   id="metadata58" />

  <g
   id="g146">

   <g
   id="g144">

    <g
   id="g62">

     <path
   d="m 24222,2222 c -582,-304 -1065,-327 -1291,-327 h -786 l -42,-74 h 924 c 64,0 830,-11 1281,110 564,151 954,447 1030,497 76,49 1105,786 1105,786 0,0 -173,177 -342,177 -160,0 -333,-123 -333,-123 0,0 -551,-397 -635,-456 -84,-59 -519,-383 -912,-589 z"
   class="fil0"
   id="path60" />

    </g>

    <g
   id="g66">

     <path
   d="m 24180,2803 c 389,258 618,447 693,501 74,54 420,301 420,301 0,0 159,124 354,124 148,0 330,-172 330,-172 0,0 -826,-583 -901,-635 -75,-53 -340,-262 -834,-392 -413,-109 -1000,-106 -1039,-106 h -752 l 44,76 c 0,0 567,1 610,1 91,0 665,28 1075,300 z"
   class="fil0"
   id="path64" />

    </g>

    <g
   id="g70">

     <path
   d="m 24307,1613 c 501,269 997,641 1089,708 93,67 846,606 846,606 0,0 176,119 337,119 157,0 335,-174 335,-174 0,0 -1202,-865 -1310,-941 -108,-76 -541,-431 -1236,-596 -544,-138 -1452,-122 -1515,-122 h -1100 l 44,76 h 960 c 199,0 966,10 1549,324 z"
   class="fil0"
   id="path68" />

    </g>

    <g
   id="g74">

     <path
   d="m 28663,1601 c -148,-26 -343,-38 -343,-38 l -266,76 -152,-127 c 0,0 317,25 405,38 76,0 51,-38 12,-115 -38,-76 -126,-76 -126,-76 h -799 c 0,0 -143,1 -307,-37 -165,-38 -230,-162 -230,-162 -64,147 190,318 190,318 l 791,567 c 102,64 190,13 190,13 0,0 203,-102 317,-127 102,-25 418,-38 456,-25 89,13 190,102 190,102 51,-356 -178,-379 -329,-407 z"
   class="fil1"
   id="path72" />

    </g>

    <g
   id="g78">

     <path
   d="m 24463,426 c 551,242 1339,831 1454,915 116,84 1251,897 1251,897 0,0 178,127 343,127 165,0 328,-166 328,-166 v 0 c 0,0 -1604,-1153 -1720,-1236 C 26003,880 25471,432 24482,171 23805,-8 22641,0 22506,0 h -1452 l 45,77 h 1331 c 336,0 1305,28 2034,349 z"
   class="fil1"
   id="path76" />

    </g>

    <g
   id="g82">

     <path
   d="M 24379,1018 C 23784,720 23050,683 22623,683 h -1175 l -44,-76 h 1277 c 138,0 1105,-10 1745,135 738,168 1373,652 1439,698 63,44 1520,1089 1520,1089 0,0 -166,171 -345,171 -164,0 -342,-127 -342,-127 0,0 -948,-680 -1040,-745 -91,-65 -725,-534 -1279,-811 z"
   class="fil1"
   id="path80" />

    </g>

    <g
   id="g86">

     <path
   d="m 3053,4395 c 0,0 -89,-20 -197,-20 -240,0 -418,106 -467,266 -11,30 -14,97 -14,131 0,203 142,317 316,317 33,0 88,-8 135,-26 125,-46 227,-130 227,-258 z m 165,908 c -16,0 -86,4 -115,-29 -28,-26 -28,-65 -28,-97 v -102 c -105,155 -282,260 -548,254 -418,-12 -510,-340 -510,-521 0,-64 6,-186 101,-316 148,-208 455,-276 729,-276 117,0 206,17 206,17 v -183 c 0,-65 0,-176 -65,-254 -56,-65 -159,-114 -342,-114 -285,0 -472,161 -472,161 l 34,-216 c 0,0 193,-131 503,-131 259,0 438,71 543,177 121,126 151,242 151,474 v 1156 z"
   class="fil2"
   id="path84" />

    </g>

    <g
   id="g90">

     <path
   d="m 4370,3738 c -300,57 -333,294 -333,461 V 5303 H 3685 V 3725 c 0,-152 -100,-184 -100,-184 h 348 c 77,0 104,43 104,91 v 96 c 11,-32 137,-200 370,-208 76,-3 163,4 210,32 l 46,222 c -52,-29 -150,-64 -294,-37 z"
   class="fil2"
   id="path88" />

    </g>

    <g
   id="g94">

     <path
   d="m 6059,5303 c -12,0 -85,4 -118,-29 -26,-26 -26,-74 -26,-97 v -102 c -95,155 -266,253 -501,253 -184,0 -309,-42 -418,-160 -115,-128 -144,-287 -144,-502 v -967 c 0,-125 -108,-158 -105,-157 h 328 c 81,0 130,41 130,102 v 1062 c 0,314 93,403 313,403 181,0 378,-122 378,-309 V 3543 h 349 v 1761 h -185 z"
   class="fil2"
   id="path92" />

    </g>

    <g
   id="g98">

     <path
   d="m 10878,5303 c -73,0 -117,-31 -117,-120 V 3105 c 0,-131 -101,-181 -101,-181 h 340 c 101,0 146,49 146,122 v 2258 h -270 z"
   class="fil2"
   id="path96" />

    </g>

    <g
   id="g102">

     <path
   d="m 15674,3688 c -355,-4 -417,362 -417,752 0,485 122,717 417,717 260,0 382,-300 382,-717 0,-340 -32,-748 -382,-752 m -7,1641 c -576,-3 -783,-360 -783,-897 0,-490 207,-931 783,-928 583,4 761,444 761,928 0,495 -280,901 -761,897 z"
   class="fil2"
   id="path100" />

    </g>

    <g
   id="g106">

     <path
   d="m 20929,5175 c -125,106 -290,158 -474,160 h -19 c -276,0 -427,-74 -493,-112 l -50,-209 c 0,0 241,158 492,158 242,0 380,-130 364,-345 -25,-343 -819,-261 -819,-829 0,-312 254,-476 566,-480 h 20 c 322,0 441,113 441,113 l 49,195 c 0,0 -138,-136 -414,-136 -297,0 -326,238 -320,304 19,171 149,212 382,314 243,104 435,238 435,496 0,164 -63,290 -158,371 z"
   class="fil2"
   id="path104" />

    </g>

    <g
   id="g110">

     <path
   d="m 21405,5303 c -65,0 -100,-34 -100,-92 V 3700 c 0,-116 -110,-158 -110,-158 h 359 c 72,0 100,38 100,105 v 1656 z"
   class="fil2"
   id="path108" />

    </g>

    <g
   id="g114">

     <path
   d="m 11746,3542 c 67,0 101,32 101,91 v 138 c 96,-156 267,-255 501,-255 184,0 309,42 418,161 115,129 144,287 144,503 v 1124 h -210 c -90,0 -142,-61 -142,-145 V 4142 c 0,-314 -94,-403 -312,-403 -181,0 -379,122 -379,310 v 1256 h -349 V 3696 c 0,-124 -97,-152 -97,-152 h 326 z"
   class="fil2"
   id="path112" />

    </g>

    <g
   id="g118">

     <path
   d="m 22919,4395 c 0,0 -89,-20 -198,-20 -240,0 -418,106 -467,266 -11,30 -13,97 -13,131 0,203 141,317 316,317 33,0 89,-8 135,-26 125,-46 227,-130 227,-258 z m 165,908 c -17,0 -85,4 -116,-29 -25,-26 -25,-65 -25,-97 v -102 c -106,155 -284,260 -550,254 -418,-12 -509,-340 -509,-521 0,-64 5,-186 102,-316 147,-208 454,-276 727,-276 119,0 208,17 208,17 v -183 c 0,-65 10,-168 -63,-255 -53,-67 -165,-115 -355,-113 -326,6 -461,161 -461,161 l 35,-216 c 0,0 192,-131 502,-131 259,0 437,71 542,177 122,126 151,242 151,474 v 1156 h -187 v 0 z"
   class="fil2"
   id="path116" />

    </g>

    <g
   id="g122">

     <path
   d="m 7606,4135 c 0,-100 -13,-246 -93,-330 -56,-59 -144,-100 -270,-100 -342,0 -381,455 -381,700 v 26 c 3,347 102,691 388,691 155,0 263,-60 356,-177 v -811 z m 109,1168 c -69,0 -93,-23 -93,-87 v -87 c -132,118 -260,196 -453,199 h -7 c -503,0 -678,-425 -678,-897 0,-354 136,-928 695,-928 335,0 428,202 428,202 v -600 c 0,-126 -104,-191 -104,-191 h 273 c 105,0 183,73 183,152 v 2237 h -243 v 0 z"
   class="fil2"
   id="path120" />

    </g>

    <g
   id="g126">

     <path
   d="m 9250,4395 c 0,0 -88,-20 -197,-20 -240,0 -418,106 -467,266 -10,30 -14,97 -14,131 0,203 141,317 316,317 33,0 89,-8 135,-26 125,-46 227,-130 227,-258 z m 164,908 c -16,0 -86,4 -115,-29 -27,-26 -27,-65 -27,-97 v -102 c -105,155 -282,260 -549,254 -417,-12 -510,-340 -510,-521 0,-64 6,-186 102,-316 148,-208 454,-276 728,-276 119,0 207,17 207,17 v -183 c 0,-65 0,-176 -65,-254 -55,-65 -159,-114 -341,-114 -285,0 -473,161 -473,161 l 35,-216 c 0,0 193,-131 502,-131 260,0 438,71 543,177 121,126 151,242 151,474 v 1156 z"
   class="fil2"
   id="path124" />

    </g>

    <g
   id="g130">

     <path
   d="m 14287,4135 c 0,-100 -13,-246 -92,-330 -55,-59 -144,-100 -270,-100 -342,0 -382,455 -382,700 v 26 c 4,347 102,691 389,691 156,0 262,-60 355,-177 v -811 z m 110,1168 c -69,0 -94,-23 -94,-87 v -87 c -131,118 -260,196 -454,199 h -9 c -500,0 -675,-425 -675,-897 0,-354 135,-928 694,-928 335,0 427,202 427,202 v -600 c 0,-126 -103,-191 -103,-191 h 274 c 105,0 182,73 182,152 v 2237 z"
   class="fil2"
   id="path128" />

    </g>

    <g
   id="g134">

     <path
   d="m 16904,3542 c 68,0 102,32 102,91 v 138 c 95,-156 266,-255 501,-255 184,0 308,42 417,161 115,129 145,287 145,503 v 1124 h -211 c -89,0 -141,-61 -141,-145 V 4142 c 0,-314 -94,-403 -313,-403 -181,0 -378,122 -378,310 v 1256 h -350 V 3696 c 0,-124 -97,-152 -97,-152 h 324 z"
   class="fil2"
   id="path132" />

    </g>

    <g
   id="g138">

     <path
   d="m 1454,5315 c -142,19 -227,26 -365,26 C 727,5341 497,5232 322,5061 66,4807 0,4385 0,4121 c 0,-213 36,-631 378,-953 158,-148 404,-274 773,-274 329,0 487,94 487,94 l 61,218 c -13,-6 -183,-104 -466,-104 -581,0 -825,399 -825,1020 0,939 457,1013 716,1013 184,0 258,-29 258,-29 v -933 h -202 c -136,0 -194,21 -194,21 l 29,-189 h 746 v 1243 c -122,32 -187,51 -309,67 z"
   class="fil2"
   id="path136" />

    </g>

    <g
   id="g142">

     <path
   d="m 18683,4423 c 0,0 89,19 198,19 391,0 480,-192 498,-414 15,-198 -38,-395 -344,-357 -278,35 -352,216 -352,442 0,187 1,310 1,310 m 526,-926 c 417,30 510,341 510,521 0,65 -6,187 -102,316 -148,209 -454,276 -727,276 -119,0 -207,-16 -207,-16 v 163 c 0,308 164,391 435,387 303,-4 543,-191 543,-191 l -34,216 c 0,0 -275,160 -585,160 -260,0 -456,-69 -560,-177 -129,-134 -151,-314 -151,-546 v -385 c 0,-328 135,-777 878,-724 z"
   class="fil2"
   id="path140" />

    </g>

   </g>

  </g>

 </g></g></svg>
