<?xml version="1.0" encoding="UTF-8" standalone="no"?>
<svg
   xmlns:dc="http://purl.org/dc/elements/1.1/"
   xmlns:cc="http://creativecommons.org/ns#"
   xmlns:rdf="http://www.w3.org/1999/02/22-rdf-syntax-ns#"
   xmlns:svg="http://www.w3.org/2000/svg"
   xmlns="http://www.w3.org/2000/svg"
   xmlns:sodipodi="http://sodipodi.sourceforge.net/DTD/sodipodi-0.dtd"
   xmlns:inkscape="http://www.inkscape.org/namespaces/inkscape"
   inkscape:version="1.0 (4035a4fb49, 2020-05-01)"
   height="71.852837"
   width="329.69553"
   sodipodi:docname="HA.svg"
   id="svg841"
   version="1.1"
   viewBox="0 0 329.69553 71.852837"
   fill-rule="evenodd"
   clip-rule="evenodd">
  <metadata
     id="metadata847">
    <rdf:RDF>
      <cc:Work
         rdf:about="">
        <dc:format>image/svg+xml</dc:format>
        <dc:type
           rdf:resource="http://purl.org/dc/dcmitype/StillImage" />
        <dc:title></dc:title>
      </cc:Work>
    </rdf:RDF>
  </metadata>
  <defs
     id="defs845" />
  <sodipodi:namedview
     inkscape:current-layer="svg841"
     inkscape:window-maximized="1"
     inkscape:window-y="-8"
     inkscape:window-x="-8"
     inkscape:cy="-44.479483"
     inkscape:cx="199.61654"
     inkscape:zoom="1.8732143"
     fit-margin-bottom="0"
     fit-margin-right="0"
     fit-margin-left="0"
     fit-margin-top="0"
     showgrid="false"
     id="namedview843"
     inkscape:window-height="1027"
     inkscape:window-width="1920"
     inkscape:pageshadow="2"
     inkscape:pageopacity="0"
     guidetolerance="10"
     gridtolerance="10"
     objecttolerance="10"
     borderopacity="1"
     bordercolor="#666666"
     pagecolor="#ffffff" />
  <linearGradient
     x2="1"
     gradientUnits="userSpaceOnUse"
     gradientTransform="matrix(-1.282,-31.925,31.925,-1.282,224.644,158.42)"
     id="a">
    <stop
       id="stop784"
       stop-color="#d2068a"
       offset="0" />
    <stop
       id="stop786"
       stop-color="#413691"
       offset=".74" />
    <stop
       id="stop788"
       stop-color="#413691"
       offset="1" />
  </linearGradient>
  <g
     transform="translate(-80.383461,-244.47948)"
     id="g825"
     fill="#413691">
    <path
       id="path791"
       d="m 351.515,309.456 c 0,-0.216 -0.126,-0.329 -0.398,-0.329 h -0.511 l -0.044,0.046 v 0.578 l 0.044,0.046 h 0.511 c 0.272,0 0.398,-0.126 0.398,-0.342 m -1.306,1.691 c -0.046,0 -0.08,-0.021 -0.08,-0.077 v -2.249 c 0,-0.057 0.033,-0.08 0.08,-0.08 h 0.907 c 0.524,0 0.83,0.262 0.83,0.714 0,0.329 -0.182,0.568 -0.475,0.671 l 0.488,0.943 c 0.021,0.044 0,0.077 -0.046,0.077 h -0.319 l -0.103,-0.077 -0.455,-0.887 h -0.432 l -0.044,0.046 v 0.84 c 0,0.057 -0.033,0.077 -0.08,0.077 h -0.272 z m 2.544,-1.19 c 0,-1.036 -0.761,-1.796 -1.784,-1.796 -1.023,0 -1.784,0.761 -1.784,1.796 0,1.033 0.761,1.804 1.784,1.804 1.023,0 1.784,-0.771 1.784,-1.804 m -3.953,0 c 0,-1.228 0.941,-2.169 2.169,-2.169 1.239,0 2.169,0.941 2.169,2.169 0,1.236 -0.93,2.179 -2.169,2.179 -1.228,0 -2.169,-0.943 -2.169,-2.179" />
    <path
       id="path793"
       d="m 181.41,244.999 v 33.202 c 0,1.47 0,3.572 -1.997,3.572 h -5.567 v -15.024 h -16.235 v 11.452 c 0,1.47 0.105,3.572 -1.892,3.572 h -5.672 v -33.202 c 0,-1.47 0,-3.572 1.997,-3.572 h 5.567 v 15.813 h 16.235 v -12.241 c 0,-1.419 -0.108,-3.572 1.889,-3.572 z" />
    <path
       id="path795"
       d="m 208.726,265.751 -5.202,-15.446 -7.355,20.437 0.316,0.051 c 0.997,-1.838 3.416,-5.042 7.669,-5.042 z m 12.03,16.024 h -6.62 l -3.467,-10.247 h -14.446 l -2.524,7.566 c -0.416,1.208 -0.997,2.681 -2.886,2.681 h -5.518 l 11.819,-33.729 c 0.421,-1.154 1,-3.045 2.994,-3.045 h 8.985 l 12.503,35.564 c 0.262,0.738 -0.105,1.21 -0.84,1.21" />
    <path
       id="path797"
       d="m 272.606,244.999 -12.082,34.094 c -0.262,0.789 -0.738,2.681 -2.629,2.681 h -4.621 l -6.882,-19.596 -6.147,16.916 c -0.262,0.789 -0.735,2.681 -2.627,2.681 h -5.042 l -12.503,-35.566 c -0.262,-0.735 0.105,-1.208 0.84,-1.208 h 6.672 l 9.036,27.422 6.512,-19.488 -2.362,-6.726 c -0.265,-0.735 0.105,-1.208 0.84,-1.208 h 6.723 l 8.353,26.687 7.301,-24.009 c 0.37,-1.208 1,-2.678 2.84,-2.678 h 5.777 z" />
    <path
       id="path799"
       d="m 293.67,265.751 -5.199,-15.446 -7.355,20.437 0.314,0.051 c 1,-1.838 3.416,-5.042 7.671,-5.042 z m 12.03,16.024 h -6.62 l -3.467,-10.247 h -14.446 l -2.521,7.566 c -0.419,1.208 -0.997,2.681 -2.889,2.681 h -5.518 l 11.822,-33.729 c 0.419,-1.154 0.997,-3.045 2.994,-3.045 h 8.982 l 12.503,35.564 c 0.262,0.738 -0.105,1.21 -0.84,1.21" />
    <path
       id="path801"
       d="m 310.845,248.571 c 0,-1.47 0,-3.572 1.786,-3.572 h 5.78 v 33.202 c 0,1.47 0,3.572 -1.789,3.572 h -5.777 z" />
    <path
       id="path803"
       d="m 326.185,248.571 c 0,-1.47 0,-3.572 1.786,-3.572 h 5.777 V 278.2 c 0,1.47 0,3.572 -1.786,3.572 h -5.777 V 248.57 Z" />
    <path
       id="path805"
       d="m 361.065,265.751 -5.199,-15.446 -7.355,20.437 0.314,0.051 c 1,-1.838 3.416,-5.042 7.669,-5.042 h 4.572 z m 12.03,16.024 h -6.62 l -3.467,-10.247 h -14.446 l -2.521,7.566 c -0.421,1.208 -1,2.681 -2.889,2.681 h -5.518 l 11.819,-33.729 c 0.421,-1.154 1,-3.045 2.997,-3.045 h 8.982 l 12.503,35.564 c 0.265,0.738 -0.105,1.21 -0.84,1.21" />
    <path
       id="path807"
       d="m 410.078,244.999 v 33.202 c 0,1.47 0,3.572 -1.786,3.572 h -4.726 l -17.969,-24.322 v 20.75 c 0,1.47 0,3.572 -1.943,3.572 h -5.41 v -33.202 c 0,-1.47 0,-3.572 1.786,-3.572 h 4.937 l 17.756,24.795 v -21.223 c 0,-1.47 -0.314,-3.572 1.735,-3.572 h 5.621 z" />
    <path
       id="path809"
       d="m 224.75,305.617 -2.894,-8.355 h -0.054 l -2.92,8.355 h 5.867 z m -4.109,-11.627 c 0.051,-0.164 0.134,-0.27 0.324,-0.27 h 1.758 c 0.19,0 0.296,0.105 0.352,0.27 l 6.302,17.846 c 0.051,0.162 -0.028,0.27 -0.19,0.27 h -1.894 c -0.19,0 -0.298,-0.08 -0.352,-0.27 l -1.406,-4.001 H 218.1 l -1.408,4.001 c -0.08,0.19 -0.188,0.27 -0.35,0.27 h -1.894 c -0.162,0 -0.244,-0.108 -0.19,-0.27 l 6.384,-17.846 z" />
    <path
       id="path811"
       d="m 235.138,293.99 c 0,-0.162 0.108,-0.27 0.27,-0.27 h 1.866 c 0.162,0 0.27,0.108 0.27,0.27 v 17.846 c 0,0.164 -0.108,0.272 -0.27,0.272 h -1.866 c -0.162,0 -0.27,-0.108 -0.27,-0.272 z" />
    <path
       id="path813"
       d="m 256.15,299.02 c 0,-1.92 -1.27,-3.056 -3.408,-3.056 h -4.3 c -0.108,0 -0.162,0.054 -0.162,0.162 v 5.788 c 0,0.108 0.054,0.162 0.162,0.162 h 4.3 c 2.138,0 3.408,-1.136 3.408,-3.056 m 0.378,13.086 c -0.188,0 -0.27,-0.08 -0.352,-0.267 l -3.678,-7.517 h -4.055 c -0.108,0 -0.162,0.051 -0.162,0.159 v 7.358 c 0,0.159 -0.108,0.267 -0.27,0.267 h -1.866 c -0.162,0 -0.27,-0.108 -0.27,-0.267 V 293.99 c 0,-0.162 0.108,-0.27 0.27,-0.27 h 6.651 c 3.434,0 5.759,2.107 5.759,5.299 0,2.488 -1.403,4.3 -3.621,5.001 l 3.919,7.761 c 0.111,0.162 0.028,0.324 -0.162,0.324 h -2.164 z" />
    <path
       id="path815"
       d="m 265.806,293.99 c 0,-0.162 0.105,-0.27 0.27,-0.27 h 1.866 c 0.162,0 0.27,0.108 0.27,0.27 v 15.71 c 0,0.108 0.054,0.164 0.162,0.164 h 8.761 c 0.164,0 0.272,0.105 0.272,0.27 v 1.701 c 0,0.164 -0.108,0.272 -0.272,0.272 h -11.059 c -0.164,0 -0.27,-0.108 -0.27,-0.272 v -17.846 z" />
    <path
       id="path817"
       d="m 282.791,293.99 c 0,-0.162 0.108,-0.27 0.27,-0.27 h 1.866 c 0.162,0 0.27,0.108 0.27,0.27 v 17.846 c 0,0.164 -0.108,0.272 -0.27,0.272 h -1.866 c -0.162,0 -0.27,-0.108 -0.27,-0.272 z" />
    <path
       id="path819"
       d="m 293.528,293.99 c 0,-0.162 0.108,-0.27 0.27,-0.27 h 1.73 c 0.218,0 0.352,0.057 0.463,0.27 l 8.327,13.793 h 0.108 V 293.99 c 0,-0.162 0.108,-0.27 0.27,-0.27 h 1.704 c 0.162,0 0.272,0.108 0.272,0.27 v 17.846 c 0,0.164 -0.111,0.272 -0.272,0.272 h -1.73 c -0.19,0 -0.352,-0.057 -0.46,-0.272 l -8.355,-13.734 h -0.082 v 13.734 c 0,0.164 -0.108,0.272 -0.27,0.272 h -1.704 c -0.162,0 -0.27,-0.108 -0.27,-0.272 V 293.99 Z" />
    <path
       id="path821"
       d="m 315.001,293.99 c 0,-0.162 0.108,-0.27 0.27,-0.27 h 11.059 c 0.164,0 0.272,0.108 0.272,0.27 v 1.704 c 0,0.162 -0.108,0.27 -0.272,0.27 h -8.761 c -0.105,0 -0.162,0.054 -0.162,0.162 v 5.407 c 0,0.111 0.057,0.162 0.162,0.162 h 7.438 c 0.164,0 0.27,0.111 0.27,0.272 v 1.704 c 0,0.162 -0.105,0.27 -0.27,0.27 h -7.438 c -0.105,0 -0.162,0.054 -0.162,0.162 v 5.597 c 0,0.108 0.057,0.164 0.162,0.164 h 8.761 c 0.164,0 0.272,0.105 0.272,0.27 v 1.701 c 0,0.164 -0.108,0.272 -0.272,0.272 h -11.059 c -0.162,0 -0.27,-0.108 -0.27,-0.272 v -17.846 z" />
    <path
       id="path823"
       d="m 332.716,310.106 c -0.111,-0.108 -0.136,-0.27 -0.026,-0.406 l 1.187,-1.406 c 0.111,-0.134 0.244,-0.134 0.378,-0.026 1.192,0.946 3.03,1.892 5.14,1.892 2.542,0 4.055,-1.27 4.055,-3.135 0,-1.568 -0.892,-2.624 -3.84,-3.002 l -0.92,-0.136 c -3.57,-0.486 -5.407,-2.19 -5.407,-5.083 0,-3.272 2.352,-5.382 6.004,-5.382 2.164,0 4.246,0.704 5.597,1.704 0.136,0.108 0.162,0.244 0.054,0.38 l -0.92,1.485 c -0.108,0.136 -0.244,0.136 -0.378,0.054 -1.488,-0.92 -2.866,-1.38 -4.436,-1.38 -2.244,0 -3.487,1.216 -3.487,2.976 0,1.542 1.028,2.567 3.865,2.948 l 0.892,0.134 c 3.598,0.488 5.41,2.138 5.41,5.14 0,3.218 -2.272,5.541 -6.705,5.541 -2.598,0 -5.112,-1.054 -6.464,-2.298" />
  </g>
  <g
     transform="matrix(0.44374779,0,0,0.49375589,-97.735451,-43.218453)"
     id="g856">
    <path
       d="m 295.055,141.359 c -2.393,7.497 -3.233,14.572 -2.447,22.865 l 0.003,0.036 0.005,0.062 c 0.478,4.968 1.534,10.37 3.189,16.564 1.339,5.024 1.773,10.026 1.596,14.819 -1.156,12.313 -8.638,21.573 -17.622,26.759 l -0.013,-0.008 0.013,0.005 c 0.648,-5.536 0.447,-12.143 -1.013,-20.216 -1.904,-10.532 -5.875,-14.014 -6.438,-14.718 l -0.057,-0.131 0.149,-0.105 c 3.315,-2.074 6.214,-4.582 7.574,-5.739 1.043,-0.887 0.632,-1.285 -0.409,-0.807 -2.781,1.275 -7.425,2.902 -13.307,3.631 -5.171,0.637 -11.3,0.56 -17.969,-0.73 0,0 -4.672,-0.691 -3.984,-5.446 0.19,-1.331 0.861,-2.696 1.396,-4.019 0.17,-0.419 0.617,-1.706 0.375,-2.75 -0.062,-0.262 -0.393,-0.743 -0.586,-1.041 -0.344,-0.527 -0.47,-1.254 -0.113,-2.102 0.306,-0.72 1.534,-1.773 3.264,-1.94 1.969,-0.185 4.4,0.1 6.261,-0.229 2.711,-0.483 4.33,-2.318 4.009,-2.92 -0.213,-0.401 -2.629,0.085 -3.452,0.249 -1.21,0.242 -3.41,-0.735 -4.562,-1.11 -1.789,-0.583 -2.719,-1.049 -4.266,-0.388 -0.966,0.414 -1.727,2.359 -1.997,1.455 -0.126,-0.419 0.113,-0.876 0.447,-1.37 0.314,-0.465 0.943,-1.342 1.031,-1.838 0.098,-0.563 0.231,-1.36 -1.326,-2.465 -1.105,-0.779 -1.863,-1.414 -2.331,-1.889 -1.493,-1.509 -1.753,-3.069 1.11,-5.502 2.046,-1.742 6.561,-6.404 7.934,-9.252 0.218,-0.447 1.308,-2.228 0.111,-4.012 -0.923,-1.372 -1.09,-1.637 -1.331,-2.105 -0.663,-1.28 -0.188,-2.416 0.902,-4.122 0.532,-0.833 0.948,-1.843 2.087,-5.405 1.264,-3.96 3.308,-7.468 6.096,-10.457 l -0.008,0.005 0.01,-0.008 c 0.211,-0.18 3.387,-3.698 6.98,-4.754 0.884,1.442 2.716,3.41 6.397,5.292 3.757,1.922 7.895,2.991 7.895,2.991 0,0 5.161,1.48 10.388,3.354 4.171,1.491 8.517,6.9 8.517,8.018 0,2.308 -2.267,4.462 -4.508,11.472"
       fill="#ffffff"
       id="path827" />
    <path
       style="fill:url(#a)"
       d="m 220.25,147.696 c 0,29.686 21.259,54.35 49.223,59.274 -0.226,2.156 -0.496,4.166 -0.822,5.775 -1.92,9.501 -8.427,18.237 -11.948,20.308 9.411,-0.815 16.893,-3.629 21.349,-8.042 h -0.01 c -0.314,0.003 -3.259,-0.033 -3.518,-0.039 1.778,-0.684 3.536,-1.521 5.24,-2.503 l 0.003,-0.003 0.003,-0.015 0.01,0.008 c 0.648,-5.536 0.447,-12.146 -1.013,-20.218 -1.902,-10.529 -5.872,-14.014 -6.438,-14.716 l -0.057,-0.131 0.152,-0.105 c 3.315,-2.077 6.214,-4.582 7.574,-5.739 1.041,-0.887 0.63,-1.285 -0.411,-0.807 -2.781,1.275 -7.422,2.902 -13.307,3.631 -5.171,0.637 -11.3,0.56 -17.969,-0.732 0,0 -4.67,-0.689 -3.981,-5.443 0.188,-1.331 0.858,-2.696 1.393,-4.019 0.17,-0.416 0.617,-1.706 0.375,-2.75 -0.059,-0.262 -0.391,-0.743 -0.586,-1.041 -0.344,-0.527 -0.468,-1.254 -0.111,-2.105 0.303,-0.717 1.532,-1.771 3.264,-1.938 0.853,-0.08 1.796,-0.075 2.742,-0.064 1.228,0.01 2.465,0.021 3.518,-0.167 2.709,-0.478 4.328,-2.316 4.009,-2.917 -0.216,-0.401 -2.632,0.085 -3.454,0.249 -1.208,0.242 -3.408,-0.738 -4.559,-1.11 -1.789,-0.583 -2.719,-1.049 -4.269,-0.388 -0.964,0.414 -1.724,2.359 -1.997,1.455 -0.123,-0.419 0.113,-0.876 0.447,-1.37 0.314,-0.465 0.943,-1.342 1.033,-1.84 0.095,-0.56 0.231,-1.357 -1.326,-2.459 -1.105,-0.784 -1.866,-1.416 -2.334,-1.894 -1.493,-1.503 -1.753,-3.063 1.113,-5.502 2.043,-1.74 6.559,-6.402 7.934,-9.249 0.216,-0.447 1.308,-2.228 0.111,-4.012 -0.923,-1.372 -1.09,-1.637 -1.331,-2.105 -0.663,-1.28 -0.19,-2.418 0.9,-4.122 0.532,-0.833 0.948,-1.843 2.087,-5.402 1.264,-3.963 3.308,-7.471 6.099,-10.457 h -0.008 c 0.193,-0.581 0.524,-5.163 3.195,-9.434 0.869,-1.663 2.033,-3.423 3.621,-5.137 1.069,-1.149 2.75,-2.483 4.965,-3.768 2.215,-1.285 4.958,-2.521 8.149,-3.472 3.832,-1.144 8.304,-1.881 13.271,-1.807 3.711,0.054 7.245,0.347 11.447,1.473 l 0.008,0.003 0.501,0.141 C 296.991,89.488 288.6,87.53 279.754,87.53 c -32.863,0 -59.503,26.936 -59.503,60.169 m 23.752,7.412 c -0.077,0.198 0.108,0.298 0.337,0.409 1.1,0.511 1.609,0.774 3.585,1.958 2.31,1.385 3.315,0.239 3.809,-0.645 0.139,-0.239 0.344,-1.221 0.118,-1.568 -0.226,-0.347 -0.65,-0.123 -1.097,0.314 -0.504,0.491 -1.732,0.226 -2.143,0.182 -0.406,-0.046 -2.292,-0.522 -3.521,-0.779 -0.229,-0.049 -0.416,-0.067 -0.571,-0.067 -0.314,0 -0.475,0.085 -0.517,0.195"
       fill="url(#a)"
       id="path829" />
    <g
       fill="#413691"
       id="g837">
      <path
         d="m 271.046,127.301 c -0.298,-0.09 -8.18,-1.82 -10.794,-1.647 -2.611,0.167 -4.862,1.691 -6.237,3.261 -0.745,0.851 -1.082,1.712 -1.21,2.439 -0.116,1.262 0.789,1.858 1.856,1.519 0.779,-0.249 1.349,-0.804 2.154,-1.999 0.493,-0.735 0.792,-1.668 1.552,-2.151 1.257,-0.794 3.416,-0.995 6.942,-0.902 2.696,0.072 4.873,0.206 5.405,0.229 0.982,0.044 0.758,-0.617 0.334,-0.748"
         id="path831" />
      <path
         d="m 266.487,134.62 c -1.473,-0.871 -3.454,-0.822 -3.842,-0.894 -0.388,-0.072 -0.463,-0.465 0.121,-0.748 0.797,-0.388 2.29,-0.064 2.344,-0.316 0.049,-0.218 -0.29,-0.776 -1.426,-1.208 -0.612,-0.236 -1.776,-0.393 -2.619,-0.306 -2.421,0.254 -3.711,1.76 -3.984,2.038 -0.272,0.275 -0.684,0.691 -0.789,1.329 -0.141,0.843 0.398,1.493 0.912,2.328 0.262,0.421 0.493,0.73 0.578,1.049 0.121,0.455 0.041,0.64 -0.337,0.935 -0.424,0.332 -0.175,0.915 0.678,0.678 0.964,-0.272 1.491,-0.545 2.218,-1.159 1.038,-0.871 1.02,-1.431 1.745,-2.156 0.725,-0.725 3.007,-0.72 4.181,-0.555 1.38,0.193 1.694,-0.146 0.218,-1.015"
         id="path833" />
      <path
         d="m 339.876,145.856 c -0.026,-2.678 -0.779,-8.024 -0.899,-9.195 -0.326,-3.238 -1.103,-7.743 -3.59,-13.968 -2.714,-6.782 -4.909,-11.568 -11.55,-18.118 C 316.014,96.86 306.795,93.663 304.57,93 l -0.535,-0.152 -0.005,-0.003 c -4.205,-1.126 -7.738,-1.419 -11.447,-1.473 -13.251,-0.198 -22.973,5.369 -26.386,9.046 -1.591,1.714 -2.752,3.475 -3.621,5.137 -2.67,4.271 -3.002,8.854 -3.195,9.437 l 0.008,-0.008 c 0.208,-0.18 3.387,-3.698 6.98,-4.754 0.884,1.442 2.716,3.41 6.397,5.292 3.757,1.922 7.892,2.989 7.892,2.989 0,0 5.163,1.483 10.391,3.354 4.171,1.493 8.517,6.903 8.517,8.018 0,2.308 -2.267,4.462 -4.508,11.475 -2.395,7.497 -3.233,14.572 -2.449,22.865 l 0.005,0.033 0.005,0.064 c 0.478,4.965 1.534,10.37 3.187,16.564 h 0.003 c 1.339,5.024 1.773,10.026 1.596,14.819 -1.159,12.313 -8.638,21.573 -17.622,26.759 l -0.013,-0.01 v 0.015 c -1.706,0.982 -3.464,1.822 -5.245,2.506 0.26,0.008 3.207,0.041 3.518,0.036 7.546,-0.087 18.224,-1.545 27.37,-11.136 3.159,-3.31 5.633,-6.772 7.196,-10.036 0.64,-1.365 3.362,-6.209 4.901,-15.826 0.203,-1.285 0.882,-5.418 0.882,-5.418 0,0 0.427,2.943 0.481,5.569 0.069,3.603 0.203,8.131 -1.938,14.999 0.727,-0.159 4.292,-2.814 8.514,-8.53 1.545,-2.087 2.966,-4.266 4.266,-6.515 6.065,-9.496 10.373,-20.812 10.162,-42.261"
         id="path835" />
    </g>
    <path
       d="m 307.134,124.834 c -0.041,0.409 0.1,0.56 0.475,0.26 1.642,-1.324 4.369,-3.349 8.083,-4.014 4.441,-0.794 6.957,-2.963 8.116,-5.418 0.691,-1.475 1.254,-4.127 3.416,-5.716 0.689,-0.506 -0.013,-0.686 -0.586,-0.581 -0.54,0.098 -3.475,0.889 -5.384,2.981 -1.272,-1.362 -1.18,-3.23 -1,-4.312 0.082,-0.321 -0.17,-0.553 -0.596,-0.203 -1.455,1.172 -2.426,2.724 -2.742,3.845 0,0 -1.159,-0.833 -0.563,-2.927 0.1,-0.35 -0.141,-0.218 -0.267,-0.131 -2.089,1.527 -1.91,3.806 -1.927,4.115 0,0 -2.11,-1.169 -5.34,-1.614 -0.56,-2.151 -4.007,-2.716 -4.572,-0.511 -0.511,1.999 2.814,3.521 4.228,1.861 0,0 4.554,0.478 8.599,4.526 0.411,0.411 0.545,0.74 0.29,0.977 -0.188,0.175 -0.771,-0.182 -1.483,-0.673 -0.802,-0.558 -6.312,-4.107 -11.077,-1.668 -0.242,0.123 -0.26,0.332 -0.033,0.383 0.9,0.262 2.902,0.953 3.408,2.264 -1.272,0.332 -3.31,1.108 -4.772,4.12 -0.38,0.781 0.113,0.889 0.527,0.571 0.496,-0.375 3.47,-2.002 4.582,-1.886 0,0 -1.007,1.475 -1.38,3.755 m 37.995,-22.701 c -0.188,1.524 0.285,5.813 1.457,9.807 1.231,4.217 -0.956,7.941 -4.747,10.128 -1.187,-1.84 -3.58,-2.76 -5.708,-2.837 -1.246,-0.046 -0.905,0.46 -0.29,0.717 8.823,3.696 5.711,13.981 4.572,16.165 -1.164,2.231 -0.887,5.176 -0.887,5.176 -2.742,-0.802 -5.258,-0.272 -7.471,0.077 -4.382,0.696 -7.301,-0.082 -9.581,-1.126 -1.812,-0.83 -4.662,-2.716 -5.096,-6.32 -0.082,-0.658 -0.506,-1.113 -0.766,0.108 -0.442,2.084 -0.134,4.629 1.36,6.23 -1.632,8.031 -17.389,7.445 -17.389,7.445 -1.046,-3.467 -8.209,-4.521 -9.828,-9.56 -0.768,-2.39 -0.139,-4.886 -0.139,-4.886 4.12,0.992 6.505,-0.992 7.841,-2.655 0.779,-0.971 0.157,-1.015 -0.398,-0.66 -5.22,3.297 -10.074,0.003 -11.09,-4.647 -1.354,-5.086 -6.312,-6.785 -6.312,-6.785 3.611,-2.274 2.593,-6.204 4.474,-9.53 4.952,-8.764 11.997,-6.14 11.997,-6.14 0.681,2.079 2.758,3.583 4.798,4.199 1.19,0.36 1.002,-0.231 0.463,-0.619 -5.004,-3.603 -3.768,-9.342 0.172,-12.02 6.872,-4.68 8.049,-6.705 8.049,-6.705 1.262,0.956 4.608,1.786 8.131,2.097 7.89,0.702 9.748,4.811 9.907,6.379 -0.93,0.491 -2.519,1.969 -3.259,4.328 -0.37,1.187 0.226,1.002 0.619,0.468 3.071,-4.207 6.854,-3.416 10.403,-1.789 2.241,1.031 5.49,3.652 8.715,2.953"
       fill="#ef3138"
       id="path839" />
  </g>
</svg>
