<?xml version="1.0" encoding="UTF-8" standalone="no"?>
<svg
   xmlns:dc="http://purl.org/dc/elements/1.1/"
   xmlns:cc="http://creativecommons.org/ns#"
   xmlns:rdf="http://www.w3.org/1999/02/22-rdf-syntax-ns#"
   xmlns:svg="http://www.w3.org/2000/svg"
   xmlns="http://www.w3.org/2000/svg"
   xmlns:sodipodi="http://sodipodi.sourceforge.net/DTD/sodipodi-0.dtd"
   xmlns:inkscape="http://www.inkscape.org/namespaces/inkscape"
   inkscape:version="1.0 (4035a4fb49, 2020-05-01)"
   height="49.967705"
   width="314.07806"
   sodipodi:docname="IB.svg"
   id="svg920"
   version="1.1"
   viewBox="0 0 314.07806 49.967705"
   fill-rule="evenodd"
   clip-rule="evenodd">
  <metadata
     id="metadata926">
    <rdf:RDF>
      <cc:Work
         rdf:about="">
        <dc:format>image/svg+xml</dc:format>
        <dc:type
           rdf:resource="http://purl.org/dc/dcmitype/StillImage" />
        <dc:title></dc:title>
      </cc:Work>
    </rdf:RDF>
  </metadata>
  <defs
     id="defs924" />
  <sodipodi:namedview
     inkscape:current-layer="svg920"
     inkscape:window-maximized="0"
     inkscape:window-y="0"
     inkscape:window-x="0"
     inkscape:cy="33.767741"
     inkscape:cx="180.00546"
     inkscape:zoom="1.8732143"
     fit-margin-bottom="0"
     fit-margin-right="0"
     fit-margin-left="0"
     fit-margin-top="0"
     showgrid="false"
     id="namedview922"
     inkscape:window-height="802"
     inkscape:window-width="1327"
     inkscape:pageshadow="2"
     inkscape:pageopacity="0"
     guidetolerance="10"
     gridtolerance="10"
     objecttolerance="10"
     borderopacity="1"
     bordercolor="#666666"
     pagecolor="#ffffff" />
  <linearGradient
     x2="1"
     gradientUnits="userSpaceOnUse"
     gradientTransform="matrix(0,27.815,-27.815,0,46.769458,168.72874)"
     id="a">
    <stop
       id="stop893"
       stop-color="#a61c22"
       offset="0" />
    <stop
       id="stop895"
       stop-color="#da1c2d"
       offset=".8" />
    <stop
       id="stop897"
       stop-color="#da1c2d"
       offset="1" />
  </linearGradient>
  <linearGradient
     x2="1"
     gradientUnits="userSpaceOnUse"
     gradientTransform="matrix(38.657,22.319,-22.319,38.657,199.146,332.377)"
     id="b">
    <stop
       id="stop900"
       stop-color="#a61c22"
       offset="0" />
    <stop
       id="stop902"
       stop-color="#dc1c2e"
       offset=".5" />
    <stop
       id="stop904"
       stop-color="#dc1c2e"
       offset="1" />
  </linearGradient>
  <linearGradient
     x2="1"
     gradientUnits="userSpaceOnUse"
     gradientTransform="matrix(25.957,14.986,-14.986,25.957,214.068,351.848)"
     id="c">
    <stop
       id="stop907"
       stop-color="#ed7417"
       offset="0" />
    <stop
       id="stop909"
       stop-color="#facd08"
       offset=".85" />
    <stop
       id="stop911"
       stop-color="#facd08"
       offset="1" />
  </linearGradient>
  <path
     style="fill:url(#a)"
     id="path914"
     fill="url(#a)"
     d="m 221.83146,2.0457408 c -3.187,4.738 -6.688,10.6600002 -10.535,18.2440002 -3.879,7.634 -7.378,15.458 -9.547,21.409 h 12.941 c 0.792,-2.48 1.755,-4.99 2.776,-7.345 h 21.262 c 1.028,2.346 1.94,4.709 2.784,7.345 h 12.943 c -2.303,-5.964 -5.652,-13.735 -9.522,-21.362 -3.857,-7.595 -7.313,-13.5430002 -10.563,-18.2920002 h -12.54 z m 6.257,9.3700002 c 2.669,4.781 5.065,9.629 7.731,15.597 h -15.443 c 2.602,-5.852 5,-10.697 7.712,-15.597 m -99.022,-9.3700002 c -0.632,6.083 -0.956,13.3260002 -0.956,19.8230002 0,6.447 0.321,12.933 0.964,19.83 h 12.266 c -0.528,-5.132 -0.787,-9.529 -0.961,-14.721 h 12.343 c 0.899,0.994 2.373,2.883 3.922,5.331 1.803,2.834 3.195,5.625 4.743,9.39 h 13.712 c -1.8,-3.434 -3.75,-6.534 -6.681,-10.667 -1.676,-2.358 -3.259,-4.275 -4.711,-5.712 5.144,-1.808 8.327,-6.15 8.327,-11.429 0,-3.018 -1.083,-5.8740002 -2.966,-7.8460002 -2.677,-2.766 -6.833,-3.999 -13.486,-3.999 z m 11.681,7.428 h 10.789 c 3.972,0 5.904,0.486 7.139,1.8000002 0.735,0.737 1.173,1.915 1.173,3.155 0,2.139 -1.103,4.031 -3.038,5.217 h -16.439 c 0.007,-2.931 0.132,-6.27 0.376,-10.1720002 m -60.706002,-7.428 c -0.585,6.285 -0.964,13.3960002 -0.964,19.8480002 0,6.422 0.428,13.473 0.966,19.81 h 37.841002 c -0.197,-2.644 -0.351,-5.057 -0.491,-7.908 H 91.634458 c -0.199,-2.971 -0.291,-5.707 -0.296,-8.376 h 23.762002 v -7.48 H 91.338458 c 0,-2.174 0.075,-5.351 0.294,-7.9880002 h 25.729002 c 0.127,-2.781 0.281,-5.117 0.533,-7.906 z m -54.006,0 c -0.63,5.924 -0.961,13.3890002 -0.961,19.8230002 0,6.447 0.294,12.756 0.961,19.83 h 23.384 c 8.274,0 13.369,-0.959 16.531,-3.12 2.438,-1.673 3.947,-4.997 3.947,-8.68 0,-4.333 -2.475,-7.794 -6.818,-9.564 2.888,-1.623 4.726,-4.748 4.726,-8.127 0,-3.1300002 -0.904,-5.2990002 -2.933,-7.0220002 -3.409,-2.901 -9.659,-3.14 -16.305,-3.14 z m 11.673,7.502 h 10.376 c 4.193,0 5.59,0.319 6.79,1.5260002 0.615,0.623 0.981,1.716 0.981,2.931 0,1.678 -0.675,3.122 -1.907,4.074 h -16.606 c 0.04,-2.966 0.159,-5.725 0.366,-8.5310002 m -0.376,15.7140002 h 14.935 c 2.161,0 3.262,0.294 4.231,1.118 0.906,0.774 1.327,1.733 1.327,3.033 0,1.365 -0.396,2.428 -1.208,3.235 -1.163,1.091 -2.801,1.556 -5.662,1.556 h -13.247 c -0.261,-3.155 -0.364,-6.335 -0.376,-8.942 M 184.08846,2.0477408 c -0.627,5.675 -0.984,13.1550002 -0.969,20.1620002 0.015,6.716 0.281,13.175 0.969,19.489 h 10.558 c 0.715,-6.282 0.949,-12.759 0.966,-19.492 0.02,-6.992 -0.381,-14.5370002 -0.956,-20.1590002 z m -183.12200187,0 c -0.627,5.675 -0.981,13.1550002 -0.96600000364,20.1620002 0.0150000036,6.716 0.27900000364,13.175 0.96600000364,19.489 H 11.531458 c 0.71,-6.282 0.944,-12.759 0.964,-19.492 0.017,-6.992 -0.381,-14.5370002 -0.959,-20.1590002 z" />
  <g
     transform="matrix(0.58008638,0,0,0.62987941,47.248188,-101.00746)"
     id="g930">
    <path
       style="fill:url(#b)"
       d="m 373.107,220.87 -18.643,18.817 v 0.002 c 64.713,0 79.969,-15.214 88.871,-35.923 l 7.475,-19.494 c -21.802,0.627 -54.703,13.478 -77.703,36.598"
       fill="url(#b)"
       id="path916" />
    <path
       style="fill:url(#c)"
       d="m 416.575,176.856 -20.976,21.247 c 19.915,-14.305 39.775,-22.935 59.561,-25.164 l 4.823,-12.579 c -29.29,0 -33.279,6.404 -43.408,16.496"
       fill="url(#c)"
       id="path918" />
  </g>
</svg>
