<?xml version="1.0" encoding="utf-8"?>
<!-- Generator: Adobe Illustrator 15.0.0, SVG Export Plug-In . SVG Version: 6.00 Build 0)  -->
<!DOCTYPE svg PUBLIC "-//W3C//DTD SVG 1.1//EN" "http://www.w3.org/Graphics/SVG/1.1/DTD/svg11.dtd">
<svg version="1.1" id="Layer_2" xmlns="http://www.w3.org/2000/svg" xmlns:xlink="http://www.w3.org/1999/xlink" x="0px" y="0px"
	 width="240px" height="174.667px" viewBox="0 0 240 174.667" enable-background="new 0 0 240 174.667" xml:space="preserve">
<g>
	<g>
		<path fill="#F4762D" d="M165.984,107.862h-10.433h-6.079h-10.67h-23.831c-4.724,0-8.55,3.828-8.55,8.55s3.826,8.551,8.55,8.551
			c4.722,0,8.549-3.829,8.549-8.551c0-0.987-0.168-1.935-0.478-2.817h10.566c0.138,0.919,0.209,1.858,0.209,2.817
			c0,10.41-8.438,18.849-18.847,18.849c-10.41,0-18.849-8.438-18.849-18.849s8.439-18.849,18.849-18.849h16.902h13.235h6.805h11.23
			h6.588l-3.324,10.299H165.984z"/>
		<path fill="#F4762D" d="M114.972,64.689L114.972,64.689h65.376l-3.312,10.255h-31.15h-30.914
			c-22.904,0-41.468,18.567-41.468,41.468c0,22.902,18.564,41.468,41.468,41.468c22.901,0,41.466-18.565,41.466-41.468
			c0-0.946-0.032-1.887-0.098-2.817h10.276c0.051,0.933,0.076,1.871,0.076,2.817c0,28.565-23.157,51.723-51.721,51.723
			c-28.565,0-51.723-23.157-51.723-51.723S86.405,64.689,114.972,64.689z"/>
		<path fill="#F4762D" d="M147.805,91.086h-7.908h-24.925c-13.987,0-25.328,11.34-25.328,25.325
			c0,13.987,11.34,25.326,25.328,25.326s25.325-11.339,25.325-25.326c0-0.952-0.056-1.894-0.158-2.817h10.264
			c0.073,0.929,0.112,1.869,0.112,2.817c0,19.63-15.915,35.544-35.543,35.544c-19.63,0-35.543-15.914-35.543-35.544
			s15.913-35.543,35.543-35.543c0.3,0,0.599,0.012,0.898,0.021h20.502h16.187h22.559l-3.294,10.197h-11.751H147.805z"/>
	</g>
</g>
<path d="M51.493,7.922H17.899c-4.911,0-8.894,3.981-8.894,8.894v22.095c0,4.913,3.983,8.894,8.894,8.894h33.594
	c4.911,0,8.89-3.981,8.89-8.894V16.816C60.383,11.903,56.403,7.922,51.493,7.922z M50.235,33.838c0,2.106-1.711,3.817-3.819,3.817
	H22.974c-2.112,0-3.818-1.711-3.818-3.817V21.889c0-2.108,1.706-3.817,3.818-3.817h23.442c2.108,0,3.819,1.709,3.819,3.817V33.838z"
	/>
<path d="M168.826,7.922h-33.597c-4.913,0-8.891,3.981-8.891,8.894v22.095c0,4.913,3.978,8.894,8.891,8.894h33.597
	c4.908,0,8.89-3.981,8.89-8.894V16.816C177.716,11.903,173.734,7.922,168.826,7.922z M167.571,33.838
	c0,2.106-1.715,3.817-3.823,3.817h-23.445c-2.105,0-3.817-1.711-3.817-3.817V21.889c0-2.108,1.712-3.817,3.817-3.817h23.445
	c2.108,0,3.823,1.709,3.823,3.817V33.838z"/>
<rect x="112.555" y="7.922" width="10.149" height="39.883"/>
<polygon points="221.074,7.922 221.074,35.798 194.613,7.922 181.465,7.922 181.465,47.805 191.614,47.805 191.614,19.504 
	211.391,40.337 218.48,47.805 231.228,47.805 231.228,46.49 231.228,7.922 "/>
<g>
	<path fill="none" d="M84.992,24.811h13.079c1.861,0,3.371-1.508,3.371-3.371c0-1.861-1.51-3.369-3.371-3.369H84.992h-7.29v6.739
		H84.992z"/>
	<rect x="74.268" y="18.072" fill="none" width="3.434" height="6.739"/>
	<path d="M110.218,47.423L98.693,34.741c6.337-1.125,11.148-6.646,11.148-13.3c0-7.466-6.05-13.518-13.518-13.518H64.119v39.883
		h10.149V34.959h10.916l11.669,12.846h13.711L110.218,47.423z M96.324,24.811H74.268v-6.739h22.056c1.861,0,3.371,1.508,3.371,3.369
		C99.694,23.303,98.185,24.811,96.324,24.811z"/>
</g>
</svg>
