<?xml version="1.0" encoding="UTF-8" standalone="no"?>
<svg
   xmlns:dc="http://purl.org/dc/elements/1.1/"
   xmlns:cc="http://creativecommons.org/ns#"
   xmlns:rdf="http://www.w3.org/1999/02/22-rdf-syntax-ns#"
   xmlns:svg="http://www.w3.org/2000/svg"
   xmlns="http://www.w3.org/2000/svg"
   xmlns:sodipodi="http://sodipodi.sourceforge.net/DTD/sodipodi-0.dtd"
   xmlns:inkscape="http://www.inkscape.org/namespaces/inkscape"
   inkscape:version="1.0 (4035a4fb49, 2020-05-01)"
   height="79.511261"
   width="438.1506"
   sodipodi:docname="KL.svg"
   id="svg1117"
   version="1.1"
   viewBox="0 0 438.1506 79.511261"
   fill-rule="evenodd"
   clip-rule="evenodd">
  <metadata
     id="metadata1123">
    <rdf:RDF>
      <cc:Work
         rdf:about="">
        <dc:format>image/svg+xml</dc:format>
        <dc:type
           rdf:resource="http://purl.org/dc/dcmitype/StillImage" />
        <dc:title></dc:title>
      </cc:Work>
    </rdf:RDF>
  </metadata>
  <defs
     id="defs1121">
    <clipPath
       id="clipPath1166"
       clipPathUnits="userSpaceOnUse">
      <rect
         y="288.06122"
         x="208.33174"
         height="70.143997"
         width="280"
         id="rect1168"
         style="fill:#0000ff;fill-rule:evenodd" />
    </clipPath>
    <clipPath
       id="clipPath1176"
       clipPathUnits="userSpaceOnUse">
      <rect
         y="84.347"
         x="190.58151"
         height="82.745468"
         width="152.1449"
         id="rect1178"
         style="fill:#0000ff;fill-rule:evenodd" />
    </clipPath>
  </defs>
  <sodipodi:namedview
     inkscape:current-layer="svg1117"
     inkscape:window-maximized="1"
     inkscape:window-y="-8"
     inkscape:window-x="-8"
     inkscape:cy="191.10686"
     inkscape:cx="128.25548"
     inkscape:zoom="1.8732143"
     fit-margin-bottom="0"
     fit-margin-right="0"
     fit-margin-left="0"
     fit-margin-top="0"
     showgrid="false"
     id="namedview1119"
     inkscape:window-height="1027"
     inkscape:window-width="1920"
     inkscape:pageshadow="2"
     inkscape:pageopacity="0"
     guidetolerance="10"
     gridtolerance="10"
     objecttolerance="10"
     borderopacity="1"
     bordercolor="#666666"
     pagecolor="#ffffff" />
  <path
     transform="translate(-50.181127,-281.36576)"
     clip-path="url(#clipPath1166)"
     id="path1115"
     fill="#00a1e4"
     d="m 343.14774,195.46121 h 8.784 c 0.072,2.984 0.064,5.96 0.048,8.944 2.936,-0.008 5.88,0.008 8.816,-0.016 0.024,2.928 0.024,5.856 -0.064,8.784 -2.912,0 -5.832,0.016 -8.744,0 0,2.88 -0.008,5.768 0.016,8.656 -2.896,0.184 -5.792,0.144 -8.688,0.12 l -0.032,-8.8 c -2.944,0.04 -5.88,0.024 -8.816,0.032 -0.048,-2.92 -0.04,-5.848 -0.048,-8.768 2.96,-0.008 5.92,-0.016 8.872,0 -0.064,-2.984 0.2,-5.984 -0.144,-8.952 z m -50.864,24.728 c 8.848,-2.128 18.56,5.232 18.368,14.44 0.68,8.048 -6.36,15.592 -14.368,15.744 -7.176,0.616 -14.2,-4.672 -15.712,-11.68 -2.216,-8.016 3.576,-16.992 11.712,-18.504 z m 35.176,-0.016 c 8.84,-2.096 18.584,5.28 18.336,14.488 0.712,8.28 -6.824,15.952 -15.056,15.736 -7.264,0.312 -14.048,-5.392 -15.192,-12.536 -1.624,-7.848 4.048,-16.224 11.912,-17.688 z m 35.192,0.016 c 8.576,-2.04 17.944,4.816 18.272,13.688 0.688,6.024 -2.76,12.08 -8.112,14.824 -5.624,3.032 -13.072,1.96 -17.656,-2.472 -5.144,-4.816 -6.216,-13.296 -2.36,-19.208 2.168,-3.496 5.8,-6.056 9.856,-6.832 z m 35.248,-0.016 c 7.688,-1.728 16.024,3.528 17.792,11.208 1.544,5.912 -0.808,12.56 -5.792,16.12 -4.632,3.456 -11.28,3.888 -16.32,1.064 -5.504,-2.856 -8.776,-9.344 -7.824,-15.464 0.728,-6.312 5.88,-11.816 12.144,-12.928 z m -102.792,52.392 c -0.224,-6.112 -0.12,-12.24 -0.056,-18.352 35.176,0.104 70.352,0.024 105.528,0.04 0.008,6.088 0.008,12.168 0,18.248 -35.16,0.04 -70.32,-0.08 -105.472,0.064 z m -86.776,15.496 c 8.88,0 17.76,-0.008 26.648,0.008 0.016,8.496 -0.016,17 0.008,25.504 l 26.224,-25.496 c 8.952,-0.024 17.904,-0.024 26.856,0 -10.32,10.488 -20.92,20.704 -31.16,31.264 12.904,12.512 25.368,25.488 38.384,37.864 0.112,-23.04 0.016,-46.088 0.048,-69.136 9.08,-0.016 18.16,-0.016 27.24,0 0,17.48 -0.016,34.96 0,52.44 14.504,-0.04 29,0.048 43.496,-0.048 0.2,5.928 0.032,11.864 0.096,17.792 -35.248,0 -70.504,0.032 -105.752,-0.016 -8.336,-8.44 -16.784,-16.768 -25.16,-25.168 -0.12,8.408 0.016,16.808 -0.072,25.216 -8.952,-0.064 -17.904,0.008 -26.856,-0.04 z m 165.304,0 c 14.624,-0.048 29.248,0.096 43.872,-0.072 4.616,12.552 8.656,25.32 13.016,37.968 0.36,-0.568 0.872,-1.048 1.056,-1.712 4.168,-12.072 8.432,-24.112 12.64,-36.176 14.704,-0.016 29.408,-0.024 44.112,0.008 v 70.128 c -9,0.112 -18.008,0.04 -27.008,0.04 -0.016,-16.144 0.08,-32.296 -0.048,-48.448 -1.256,0.704 -1.384,2.296 -1.92,3.488 l -15.808,44.952 c -8.464,0 -16.936,0.112 -25.392,-0.056 -5.304,-15.336 -10.792,-30.6 -16.144,-45.912 -0.192,-0.856 -0.672,-1.48 -1.424,-1.88 -0.024,15.952 0.008,31.912 -0.008,47.872 -8.984,0 -17.968,0 -26.952,-0.008 z" />
  <path
     transform="translate(-190.58151,-87.581207)"
     clip-path="url(#clipPath1176)"
     d="m 265.80374,87.581207 h 8.784 c 0.072,2.984 0.064,5.96 0.048,8.944 2.936,-0.008 5.88,0.008 8.816,-0.016 0.024,2.928 0.024,5.856003 -0.064,8.784003 -2.912,0 -5.832,0.016 -8.744,0 0,2.88 -0.008,5.768 0.016,8.656 -2.896,0.184 -5.792,0.144 -8.688,0.12 l -0.032,-8.8 c -2.944,0.04 -5.88,0.024 -8.816,0.032 -0.048,-2.92 -0.04,-5.848003 -0.048,-8.768003 2.96,-0.008 5.92,-0.016 8.872,0 -0.064,-2.984 0.2,-5.984 -0.144,-8.952 z m -50.864,24.728003 c 8.848,-2.128 18.56,5.232 18.368,14.44 0.68,8.048 -6.36,15.592 -14.368,15.744 -7.176,0.616 -14.2,-4.672 -15.712,-11.68 -2.216,-8.016 3.576,-16.992 11.712,-18.504 z m 35.176,-0.016 c 8.84,-2.096 18.584,5.28 18.336,14.488 0.712,8.28 -6.824,15.952 -15.056,15.736 -7.264,0.312 -14.048,-5.392 -15.192,-12.536 -1.624,-7.848 4.048,-16.224 11.912,-17.688 z m 35.192,0.016 c 8.576,-2.04 17.944,4.816 18.272,13.688 0.688,6.024 -2.76,12.08 -8.112,14.824 -5.624,3.032 -13.072,1.96 -17.656,-2.472 -5.144,-4.816 -6.216,-13.296 -2.36,-19.208 2.168,-3.496 5.8,-6.056 9.856,-6.832 z m 35.248,-0.016 c 7.688,-1.728 16.024,3.528 17.792,11.208 1.544,5.912 -0.808,12.56 -5.792,16.12 -4.632,3.456 -11.28,3.888 -16.32,1.064 -5.504,-2.856 -8.776,-9.344 -7.824,-15.464 0.728,-6.312 5.88,-11.816 12.144,-12.928 z m -102.792,52.392 c -0.224,-6.112 -0.12,-12.24 -0.056,-18.352 35.176,0.104 70.352,0.024 105.528,0.04 0.008,6.088 0.008,12.168 0,18.248 -35.16,0.04 -70.32,-0.08 -105.472,0.064 z m -86.776,15.496 c 8.88,0 17.76,-0.008 26.648,0.008 0.016,8.496 -0.016,17 0.008,25.504 l 26.224,-25.496 c 8.952,-0.024 17.904,-0.024 26.856,0 -10.32,10.488 -20.92,20.704 -31.16,31.264 12.904,12.512 25.368,25.488 38.384,37.864 0.112,-23.04 0.016,-46.088 0.048,-69.136 9.08,-0.016 18.16,-0.016 27.24,0 0,17.48 -0.016,34.96 0,52.44 14.504,-0.04 29,0.048 43.496,-0.048 0.2,5.928 0.032,11.864 0.096,17.792 -35.248,0 -70.504,0.032 -105.752,-0.016 -8.336,-8.44 -16.784,-16.768 -25.16,-25.168 -0.12,8.408 0.016,16.808 -0.072,25.216 -8.952,-0.064 -17.904,0.008 -26.856,-0.04 z m 165.304,0 c 14.624,-0.048 29.248,0.096 43.872,-0.072 4.616,12.552 8.656,25.32 13.016,37.968 0.36,-0.568 0.872,-1.048 1.056,-1.712 4.168,-12.072 8.432,-24.112 12.64,-36.176 14.704,-0.016 29.408,-0.024 44.112,0.008 v 70.128 c -9,0.112 -18.008,0.04 -27.008,0.04 -0.016,-16.144 0.08,-32.296 -0.048,-48.448 -1.256,0.704 -1.384,2.296 -1.92,3.488 l -15.808,44.952 c -8.464,0 -16.936,0.112 -25.392,-0.056 -5.304,-15.336 -10.792,-30.6 -16.144,-45.912 -0.192,-0.856 -0.672,-1.48 -1.424,-1.88 -0.024,15.952 0.008,31.912 -0.008,47.872 -8.984,0 -17.968,0 -26.952,-0.008 z"
     fill="#00a1e4"
     id="path1115-3" />
</svg>
