<?xml version="1.0" encoding="UTF-8" standalone="no"?>
<!-- Created with Inkscape (http://www.inkscape.org/) -->
<!DOCTYPE svg PUBLIC "-//W3C//DTD SVG 1.1//EN" "http://www.w3.org/Graphics/SVG/1.1/DTD/svg11.dtd">
<svg
   xmlns:svg="http://www.w3.org/2000/svg"
   xmlns="http://www.w3.org/2000/svg"
   version="1.1"
   width="400"
   height="160"
   id="svg2816"
   xml:space="preserve"><defs
     id="defs2820" /><g
     transform="matrix(1.25,0,0,-1.25,-9,219.84374)"
     id="g2826"><g
       transform="matrix(2.3456808,0,0,2.3456808,-1.6889016,-57.014026)"
       id="g2915"><path
         d="m 81.65625,59.84375 c -8.3125,0 -13.05625,1.80375 -16.59375,6.5625 l -27.9375,37.9375 17.53125,0 19.625,-27.375 c 2.14125,-2.6975 2.575,-3.6875 5.375,-3.6875 l 0.78125,0.03125 -7.90625,31.0625 15.40625,0 11.4375,-44.5 -17.71875,-0.03125 z m -62.3125,0.09375 c -4.83125,0 -7.28125,2.44875 -8.40625,6.46875 L 9,73.375 l 15.34375,0 -7.875,31 15.4375,0 8.0625,-31 13.9375,0 9.6875,-13.4375 -44.25,0 z m 91.9375,0 c -4.02125,0.0087 -7.375,2.75 -8.3125,6.46875 l -9.75,37.96875 15.5,0 5.84375,-23 2.25,23 12.53125,0 14.15625,-23 -6,23 15.09375,0 11.34375,-44.4375 -18.53125,0 c -4.3,0 -6.7375,2.29875 -8.21875,4.625 -1.0175,1.605 -8.5,14.84375 -8.5,14.84375 l -1.84375,-19.46875 -15.5625,0 z"
         transform="matrix(0.8,0,0,-0.8,0,144)"
         id="path2836"
         style="fill:#cc0001;fill-opacity:1;fill-rule:nonzero;stroke:none" /><path
         d="m 147.8125,110.90625 c -1.665,0 -3.46875,0.875 -3.46875,2.59375 0,0.67375 0.36125,1.28375 1.53125,1.84375 l 1.59375,0.75 c 0.525,0.24625 1.15625,0.585 1.15625,1.40625 0,0.79625 -0.90125,2 -2.71875,2 -1.365,0 -1.94625,-0.60125 -2.125,-1.4375 l -0.96875,0.3125 c 0.43875,1.1825 1.45625,1.78125 3.09375,1.78125 1.6525,0 3.71875,-0.865 3.71875,-2.84375 0,-2.345 -4.28125,-1.965 -4.28125,-3.96875 0,-1.02375 1.16375,-1.8125 2.4375,-1.8125 0.78125,0 1.65125,0.2375 1.875,1.125 l 1,-0.25 c -0.31625,-0.74625 -0.9825,-1.5 -2.84375,-1.5 z m -126,0.1875 -6.34375,8.875 1.03125,0 1.75,-2.53125 5.34375,0 0.59375,2.53125 0.9375,0 -2.09375,-8.875 -1.21875,0 z m 17.5625,0 -2.0625,8.875 0.9375,0 2.0625,-8.875 -0.9375,0 z m 14.15625,0 -2.0625,8.875 0.9375,0 0.96875,-4.1875 2.53125,0 1.5625,4.1875 1.09375,0 -1.75,-4.28125 c 1.79875,-0.17875 2.78125,-1.40875 2.78125,-2.59375 0,-1.0575 -0.905,-2 -2.75,-2 l -3.3125,0 z m 19.625,0 -2.0625,8.875 5.6875,0 0.125,-0.65625 -4.71875,0 1.90625,-8.21875 -0.9375,0 z m 17.90625,0 -2.0625,8.875 0.9375,0 2.09375,-8.875 -0.96875,0 z m 14.21875,0 -2.0625,8.875 0.9375,0 1.8125,-7.84375 0.0312,0 3.65625,7.84375 1.28125,0 2.09375,-8.875 -0.96875,0 -1.84375,7.8125 -0.0312,0 -3.6875,-7.8125 -1.21875,0 z m 20.96875,0 -2.09375,8.875 6.28125,0 0.15625,-0.65625 -5.34375,0 0.875,-3.65625 4.90625,0 0.1875,-0.65625 -4.9375,0 0.75,-3.25 5.1875,0 0.15625,-0.65625 -6.125,0 z m -71.90625,0.65625 2.1875,0 c 1.59125,0 2.0625,0.64625 2.0625,1.40625 0,1.04375 -0.90125,1.96875 -2.625,1.96875 l -2.4375,0 0.8125,-3.375 z m -32.09375,0.0937 0.03125,0 1.15625,4.9375 -4.6875,0 3.5,-4.9375 z"
         transform="matrix(0.8,0,0,-0.8,0,144)"
         id="path2842"
         style="fill:#6f6f6f;fill-opacity:1;fill-rule:nonzero;stroke:none" /><path
         d="M 110.08,88.042 C 91.705,87.966 73.83,83.99 56.947,76.228 24.134,84.127 9.918,76.329 9.33,75.995 c 0,0 -0.476,-0.285 -0.3,-0.7 0.176,-0.419 0.698,-0.206 0.698,-0.206 0.226,0.074 22.815,6.963 54.213,-6.34 l 0.308,-0.134 0.239,0.243 c 11.173,11.277 28.692,14.853 41.42,15.871 12.238,0.974 24.831,0.078 30.312,-0.769 0,0 0.448,-0.084 0.558,0.33 0.124,0.457 -0.319,0.632 -0.319,0.632 -2.398,0.829 -12.394,3.178 -26.379,3.12"
         id="path2858"
         style="fill:#09448a;fill-opacity:1;fill-rule:nonzero;stroke:none" /></g></g></svg>