<?xml version="1.0" encoding="UTF-8" standalone="no"?>
<svg
   xmlns:dc="http://purl.org/dc/elements/1.1/"
   xmlns:cc="http://creativecommons.org/ns#"
   xmlns:rdf="http://www.w3.org/1999/02/22-rdf-syntax-ns#"
   xmlns:svg="http://www.w3.org/2000/svg"
   xmlns="http://www.w3.org/2000/svg"
   xmlns:sodipodi="http://sodipodi.sourceforge.net/DTD/sodipodi-0.dtd"
   xmlns:inkscape="http://www.inkscape.org/namespaces/inkscape"
   inkscape:version="1.0 (4035a4fb49, 2020-05-01)"
   height="68.571999"
   width="354.901"
   sodipodi:docname="LH.svg"
   id="svg576"
   version="1.1"
   viewBox="0 0 354.901 68.571999"
   fill-rule="evenodd"
   clip-rule="evenodd">
  <metadata
     id="metadata582">
    <rdf:RDF>
      <cc:Work
         rdf:about="">
        <dc:format>image/svg+xml</dc:format>
        <dc:type
           rdf:resource="http://purl.org/dc/dcmitype/StillImage" />
      </cc:Work>
    </rdf:RDF>
  </metadata>
  <defs
     id="defs580">
    <clipPath
       id="clipPath590"
       clipPathUnits="userSpaceOnUse">
      <rect
         y="43.24118"
         x="61.3918"
         height="84.347"
         width="99.828407"
         id="rect592"
         style="fill:#0000ff;fill-rule:evenodd" />
    </clipPath>
    <clipPath
       id="clipPath594"
       clipPathUnits="userSpaceOnUse">
      <rect
         y="170.29552"
         x="177.7693"
         height="67.264061"
         width="347.53098"
         id="rect596"
         style="fill:#0000ff;fill-rule:evenodd" />
    </clipPath>
  </defs>
  <sodipodi:namedview
     inkscape:current-layer="svg576"
     inkscape:window-maximized="1"
     inkscape:window-y="-8"
     inkscape:window-x="-8"
     inkscape:cy="33.978525"
     inkscape:cx="152.76364"
     inkscape:zoom="1.8732143"
     fit-margin-bottom="0"
     fit-margin-right="0"
     fit-margin-left="0"
     fit-margin-top="0"
     showgrid="false"
     id="namedview578"
     inkscape:window-height="1027"
     inkscape:window-width="1920"
     inkscape:pageshadow="2"
     inkscape:pageopacity="0"
     guidetolerance="10"
     gridtolerance="10"
     objecttolerance="10"
     borderopacity="1"
     bordercolor="#666666"
     pagecolor="#ffffff" />
  <path
     transform="translate(-77.865633,-51.472865)"
     clip-path="url(#clipPath590)"
     id="path574"
     fill="#0a1d3d"
     d="m 125.44463,78.939865 c -0.261,0 -0.48,0.007 -0.603,0.02 -0.144,0.261 -0.357,0.61 -0.672,1.097 4.909,0 9.366,0.404 14.295,1.289 l -1.392,1.344 c -4.45,-0.788 -8.145,-1.104 -12.855,-1.104 -0.686,0 -0.83,0 -0.994,0.007 -0.165,0.247 -0.535,0.727 -0.905,1.172 0.418,-0.027 1.227,-0.041 2.345,-0.041 3.874,0 7.494,0.288 11.423,0.919 l -1.392,1.351 c -2.989,-0.466 -6.644,-0.734 -9.921,-0.734 -1.165,0 -2.489,0.041 -3.675,0.11 -0.267,0.309 -0.967,1.063 -1.179,1.296 1.57,-0.164 3.298,-0.24 5.355,-0.24 2.928,0 5.725,0.192 8.372,0.583 l -1.392,1.337 c -1.885,-0.233 -4.175,-0.37 -6.198,-0.37 -5.218,0 -9.331,1.131 -13.582,3.73 4.052,4.347 10.689,7.096 17.12,7.096 h 0.603 l -2.249,2.174 c -9.277,-1.742 -19.04,-5.821 -27.288,-11.409 -7.932997,-5.355 -10.708997,-6.938 -16.900997,-9.674 l -0.041,-1.591 4.189,1.796 1.426,-1.131 13.677997,6.267 -0.891,0.713 -7.020997,-3.051 -0.692,0.542 3.648,2.036 c 3.077997,1.714 5.422997,2.482 7.589997,2.482 4.738,0 8.989,-3.36 11.731,-9.263 2.064,-0.268 4.265,-0.391 6.911,-0.391 5.43,0 10.703,0.521 16.674,1.639 l -1.454,1.405 c -3.716,-0.775 -10.031,-1.405 -14.062,-1.405 m -13.294,39.045995 c -17.793997,0 -32.228997,-14.434 -32.228997,-32.228995 0,-17.794 14.434,-32.229 32.228997,-32.229 17.794,0 32.229,14.434 32.229,32.229 0,17.793995 -14.434,32.228995 -32.229,32.228995 m 0,-66.513995 c -18.959997,0 -34.285997,15.326 -34.285997,34.286 0,18.959995 15.326,34.285995 34.285997,34.285995 18.96,0 34.286,-15.326 34.286,-34.285995 0,-18.96 -15.326,-34.286 -34.286,-34.286 m 90.58,47.935 h 19.657 v 9.207995 h -30.237 V 62.900865 h 10.579 v 36.506 z m 43.429,-23.706 h 9.861 v 32.913995 h -9.273 v -3.788 c -1.372,2.547 -4.179,4.767 -9.339,4.767 -8.424,0 -12.8,-3.788 -12.8,-14.627995 v -19.265 h 9.861 v 18.808 c 0,4.376 1.894,6.334995 5.878,6.334995 3.592,0 5.812,-1.958995 5.812,-6.334995 z m 17.437,-1.241 c 0,-7.967 5.029,-12.212 12.931,-12.212 2.547,0 4.18,0.392 4.18,0.392 v 7.967 c 0,0 -1.371,-0.13 -2.547,-0.13 -3.069,0 -4.702,1.045 -4.702,3.918 v 1.306 h 7.249 v 8.033 h -7.249 v 24.881995 h -9.861 V 83.734865 h -4.963 v -8.033 h 4.963 v -1.241 m 34.481,1.241 h 7.51 v 8.033 h -7.51 v 12.8 c 0,3.526995 1.829,4.440995 4.703,4.440995 1.176,0 2.808,-0.196 2.808,-0.196 v 7.902 c 0,0 -2.285,0.522 -4.701,0.522 -7.902,0 -12.669,-3.592 -12.669,-11.558995 v -13.911 h -4.964 v -8.033 h 4.964 v -9.6 h 9.86 v 9.6 z m 29.343,-0.98 c 8.36,0 12.735,3.788 12.735,14.628 v 19.264995 h -9.862 V 89.806865 c 0,-4.375 -1.893,-6.334 -6.007,-6.334 -3.724,0 -5.943,1.959 -5.943,6.334 v 18.807995 h -9.862 V 62.965865 h 9.926 v 15.935 c 1.698,-2.416 4.375,-4.179 9.012,-4.179 m 37.877,21.094 c 0,3.592 -3.396,6.269995 -8.62,6.269995 -2.546,0 -4.049,-1.175 -4.049,-3.395995 0,-1.698 1.045,-3.134 4.377,-3.591 l 5.682,-0.784 c 0.979,-0.131 2.024,-0.326 2.611,-0.522 v 2.024 z m -5.485,-21.094 c -9.731,0 -14.434,3.723 -14.824,10.71 h 9.599 c 0.131,-1.829 1.176,-3.2 5.225,-3.2 3.591,0 5.29,1.176 5.29,2.939 0,1.568 -0.981,2.155 -3.396,2.416 l -6.269,0.653 c -8.491,0.914 -12.344,4.441 -12.344,10.841 0,5.942995 3.658,10.513995 11.429,10.513995 5.29,0 8.425,-1.698 11.166,-5.094 v 4.115 h 9.013 V 86.999865 c 0,-9.078 -5.29,-12.277 -14.89,-12.277 m 37.692,0 c 8.555,0 12.931,3.788 12.931,14.628 v 19.264995 h -9.862 V 89.807865 c 0,-4.375 -1.893,-6.334 -6.007,-6.334 -3.724,0 -5.943,1.959 -5.943,6.334 v 18.807995 h -9.862 V 75.701865 h 9.273 v 3.788 c 1.372,-2.547 4.18,-4.768 9.47,-4.768 m 33.733,13.257 c 8.359,1.111 12.539,3.723 12.539,10.58 0,6.922995 -4.898,11.036995 -15.282,11.036995 -11.297,0 -15.282,-4.506 -15.477,-11.101995 h 9.731 c 0.261,2.416995 1.958,3.591995 5.746,3.591995 3.853,0 5.42,-0.915 5.42,-2.742995 0,-1.698 -1.306,-2.481 -4.701,-2.939 l -3.462,-0.458 c -7.249,-0.979 -11.428,-3.787 -11.428,-10.318 0,-6.269 4.637,-10.906 14.368,-10.906 9.012,0 13.845,3.592 14.301,10.71 h -9.6 c -0.326,-1.893 -1.371,-3.069 -4.701,-3.069 -3.266,0 -4.506,1.11 -4.506,2.547 0,1.436 0.784,2.22 3.591,2.612 z m 37.224,7.837 c 0,3.591 -3.396,6.268995 -8.62,6.268995 -2.548,0 -4.049,-1.175 -4.049,-3.395995 0,-1.698 1.045,-3.134 4.375,-3.591 l 5.682,-0.784 c 0.981,-0.13 2.024,-0.326 2.613,-0.522 v 2.025 z m -5.486,-21.094 c -9.729,0 -14.432,3.723 -14.824,10.71 h 9.6 c 0.131,-1.829 1.176,-3.2 5.224,-3.2 3.593,0 5.291,1.175 5.291,2.939 0,1.567 -0.981,2.155 -3.396,2.416 l -6.27,0.653 c -8.489,0.915 -12.342,4.441 -12.342,10.841 0,5.942995 3.656,10.513995 11.428,10.513995 5.29,0 8.425,-1.698 11.168,-5.094 v 4.115 h 9.012 V 86.999865 c 0,-9.077 -5.29,-12.277 -14.89,-12.277" />
  <path
     transform="translate(-127.23636,-166.02147)"
     clip-path="url(#clipPath594)"
     d="m 129.71536,191.58048 c -0.261,0 -0.48,0.007 -0.603,0.02 -0.144,0.261 -0.357,0.61 -0.672,1.097 4.909,0 9.366,0.404 14.295,1.289 l -1.392,1.344 c -4.45,-0.788 -8.145,-1.104 -12.855,-1.104 -0.686,0 -0.83,0 -0.994,0.007 -0.165,0.247 -0.535,0.727 -0.905,1.172 0.418,-0.027 1.227,-0.041 2.345,-0.041 3.874,0 7.494,0.288 11.423,0.919 l -1.392,1.351 c -2.989,-0.466 -6.644,-0.734 -9.921,-0.734 -1.165,0 -2.489,0.041 -3.675,0.11 -0.267,0.309 -0.967,1.063 -1.179,1.296 1.57,-0.164 3.298,-0.24 5.355,-0.24 2.928,0 5.725,0.192 8.372,0.583 l -1.392,1.337 c -1.885,-0.233 -4.175,-0.37 -6.198,-0.37 -5.218,0 -9.331,1.131 -13.582,3.73 4.052,4.347 10.689,7.096 17.12,7.096 h 0.603 l -2.249,2.174 c -9.277,-1.742 -19.04,-5.821 -27.288,-11.409 -7.932993,-5.355 -10.708993,-6.938 -16.900993,-9.674 l -0.041,-1.591 4.189,1.796 1.426,-1.131 13.677993,6.267 -0.891,0.713 -7.020993,-3.051 -0.692,0.542 3.648003,2.036 c 3.07799,1.714 5.42299,2.482 7.58999,2.482 4.738,0 8.989,-3.36 11.731,-9.263 2.064,-0.268 4.265,-0.391 6.911,-0.391 5.43,0 10.703,0.521 16.674,1.639 l -1.454,1.405 c -3.716,-0.775 -10.031,-1.405 -14.062,-1.405 m -13.294,39.04599 c -17.793993,0 -32.228993,-14.434 -32.228993,-32.22899 0,-17.794 14.434,-32.229 32.228993,-32.229 17.794,0 32.229,14.434 32.229,32.229 0,17.79399 -14.434,32.22899 -32.229,32.22899 m 0,-66.51399 c -18.959993,0 -34.285993,15.326 -34.285993,34.286 0,18.95999 15.326,34.28599 34.285993,34.28599 18.96,0 34.286,-15.326 34.286,-34.28599 0,-18.96 -15.326,-34.286 -34.286,-34.286 m 90.58,47.935 h 19.657 v 9.20799 h -30.237 v -45.71499 h 10.579 v 36.506 z m 43.429,-23.706 h 9.861 v 32.91399 h -9.273 v -3.788 c -1.372,2.547 -4.179,4.767 -9.339,4.767 -8.424,0 -12.8,-3.788 -12.8,-14.62799 v -19.265 h 9.861 v 18.808 c 0,4.376 1.894,6.33499 5.878,6.33499 3.592,0 5.812,-1.95899 5.812,-6.33499 z m 17.437,-1.241 c 0,-7.967 5.029,-12.212 12.931,-12.212 2.547,0 4.18,0.392 4.18,0.392 v 7.967 c 0,0 -1.371,-0.13 -2.547,-0.13 -3.069,0 -4.702,1.045 -4.702,3.918 v 1.306 h 7.249 v 8.033 h -7.249 v 24.88199 h -9.861 v -24.88199 h -4.963 v -8.033 h 4.963 v -1.241 m 34.481,1.241 h 7.51 v 8.033 h -7.51 v 12.8 c 0,3.52699 1.829,4.44099 4.703,4.44099 1.176,0 2.808,-0.196 2.808,-0.196 v 7.902 c 0,0 -2.285,0.522 -4.701,0.522 -7.902,0 -12.669,-3.592 -12.669,-11.55899 v -13.911 h -4.964 v -8.033 h 4.964 v -9.6 h 9.86 v 9.6 z m 29.343,-0.98 c 8.36,0 12.735,3.788 12.735,14.628 v 19.26499 h -9.862 v -18.80799 c 0,-4.375 -1.893,-6.334 -6.007,-6.334 -3.724,0 -5.943,1.959 -5.943,6.334 v 18.80799 h -9.862 v -45.64899 h 9.926 v 15.935 c 1.698,-2.416 4.375,-4.179 9.012,-4.179 m 37.877,21.094 c 0,3.592 -3.396,6.26999 -8.62,6.26999 -2.546,0 -4.049,-1.175 -4.049,-3.39599 0,-1.698 1.045,-3.134 4.377,-3.591 l 5.682,-0.784 c 0.979,-0.131 2.024,-0.326 2.611,-0.522 v 2.024 z m -5.485,-21.094 c -9.731,0 -14.434,3.723 -14.824,10.71 h 9.599 c 0.131,-1.829 1.176,-3.2 5.225,-3.2 3.591,0 5.29,1.176 5.29,2.939 0,1.568 -0.981,2.155 -3.396,2.416 l -6.269,0.653 c -8.491,0.914 -12.344,4.441 -12.344,10.841 0,5.94299 3.658,10.51399 11.429,10.51399 5.29,0 8.425,-1.698 11.166,-5.094 v 4.115 h 9.013 v -21.61599 c 0,-9.078 -5.29,-12.277 -14.89,-12.277 m 37.692,0 c 8.555,0 12.931,3.788 12.931,14.628 v 19.26499 h -9.862 v -18.80799 c 0,-4.375 -1.893,-6.334 -6.007,-6.334 -3.724,0 -5.943,1.959 -5.943,6.334 v 18.80799 h -9.862 v -32.91399 h 9.273 v 3.788 c 1.372,-2.547 4.18,-4.768 9.47,-4.768 m 33.733,13.257 c 8.359,1.111 12.539,3.723 12.539,10.58 0,6.92299 -4.898,11.03699 -15.282,11.03699 -11.297,0 -15.282,-4.506 -15.477,-11.10199 h 9.731 c 0.261,2.41699 1.958,3.59199 5.746,3.59199 3.853,0 5.42,-0.915 5.42,-2.74299 0,-1.698 -1.306,-2.481 -4.701,-2.939 l -3.462,-0.458 c -7.249,-0.979 -11.428,-3.787 -11.428,-10.318 0,-6.269 4.637,-10.906 14.368,-10.906 9.012,0 13.845,3.592 14.301,10.71 h -9.6 c -0.326,-1.893 -1.371,-3.069 -4.701,-3.069 -3.266,0 -4.506,1.11 -4.506,2.547 0,1.436 0.784,2.22 3.591,2.612 z m 37.224,7.837 c 0,3.591 -3.396,6.26899 -8.62,6.26899 -2.548,0 -4.049,-1.175 -4.049,-3.39599 0,-1.698 1.045,-3.134 4.375,-3.591 l 5.682,-0.784 c 0.981,-0.13 2.024,-0.326 2.613,-0.522 v 2.025 z m -5.486,-21.094 c -9.729,0 -14.432,3.723 -14.824,10.71 h 9.6 c 0.131,-1.829 1.176,-3.2 5.224,-3.2 3.593,0 5.291,1.175 5.291,2.939 0,1.567 -0.981,2.155 -3.396,2.416 l -6.27,0.653 c -8.489,0.915 -12.342,4.441 -12.342,10.841 0,5.94299 3.656,10.51399 11.428,10.51399 5.29,0 8.425,-1.698 11.168,-5.094 v 4.115 h 9.012 v -21.61599 c 0,-9.077 -5.29,-12.277 -14.89,-12.277"
     fill="#0a1d3d"
     id="path584" />
</svg>
