<?xml version="1.0" encoding="UTF-8" standalone="no"?>
<svg
   xmlns:dc="http://purl.org/dc/elements/1.1/"
   xmlns:cc="http://creativecommons.org/ns#"
   xmlns:rdf="http://www.w3.org/1999/02/22-rdf-syntax-ns#"
   xmlns:svg="http://www.w3.org/2000/svg"
   xmlns="http://www.w3.org/2000/svg"
   xmlns:sodipodi="http://sodipodi.sourceforge.net/DTD/sodipodi-0.dtd"
   xmlns:inkscape="http://www.inkscape.org/namespaces/inkscape"
   inkscape:version="1.0 (4035a4fb49, 2020-05-01)"
   height="88.162003"
   width="365.37482"
   sodipodi:docname="LX.svg"
   id="svg697"
   version="1.1"
   viewBox="0 0 365.37482 88.162003"
   fill-rule="evenodd"
   clip-rule="evenodd">
  <metadata
     id="metadata703">
    <rdf:RDF>
      <cc:Work
         rdf:about="">
        <dc:format>image/svg+xml</dc:format>
        <dc:type
           rdf:resource="http://purl.org/dc/dcmitype/StillImage" />
        <dc:title></dc:title>
      </cc:Work>
    </rdf:RDF>
  </metadata>
  <defs
     id="defs701">
    <clipPath
       id="clipPath713"
       clipPathUnits="userSpaceOnUse">
      <rect
         y="116.3775"
         x="71.534798"
         height="137.73117"
         width="138.26501"
         id="rect715"
         style="fill:#0000ff;fill-rule:evenodd" />
    </clipPath>
    <clipPath
       id="clipPath717"
       clipPathUnits="userSpaceOnUse">
      <rect
         y="116.3775"
         x="71.534798"
         height="137.73117"
         width="138.26501"
         id="rect719"
         style="fill:#0000ff;fill-rule:evenodd" />
    </clipPath>
    <clipPath
       id="clipPath721"
       clipPathUnits="userSpaceOnUse">
      <rect
         y="263.18399"
         x="205.52907"
         height="92.888466"
         width="263.71783"
         id="rect723"
         style="fill:#0000ff;fill-rule:evenodd" />
    </clipPath>
  </defs>
  <sodipodi:namedview
     inkscape:current-layer="svg697"
     inkscape:window-maximized="1"
     inkscape:window-y="-8"
     inkscape:window-x="-8"
     inkscape:cy="44.088"
     inkscape:cx="190"
     inkscape:zoom="1.8732143"
     fit-margin-bottom="0"
     fit-margin-right="0"
     fit-margin-left="0"
     fit-margin-top="0"
     showgrid="false"
     id="namedview699"
     inkscape:window-height="1027"
     inkscape:window-width="1920"
     inkscape:pageshadow="2"
     inkscape:pageopacity="0"
     guidetolerance="10"
     gridtolerance="10"
     objecttolerance="10"
     borderopacity="1"
     bordercolor="#666666"
     pagecolor="#ffffff" />
  <path
     transform="translate(-90,-155.912)"
     clip-path="url(#clipPath717)"
     id="path693"
     fill="#e60005"
     d="m 160.601,155.927 h 47.527 c -7.347,29.356 -14.412,58.796 -21.781,88.147 H 90 v -0.917 l 0.008,0.897 c 23.469,-29.424 47.021,-58.785 70.593,-88.126 m -5.33,16.986 c 0.01,6.313 -0.015,12.634 0.015,18.949 -6.29,0.015 -12.583,-0.015 -18.876,0.015 0.033,5.419 0.033,10.83 0,16.246 6.293,0.033 12.585,0 18.876,0.018 -0.03,6.313 -0.005,12.636 -0.015,18.949 5.464,0.03 10.921,0.015 16.383,0.008 -0.03,-6.321 0,-12.644 -0.015,-18.964 6.316,0 12.629,0.008 18.947,0 -0.01,-5.419 -0.01,-10.843 0,-16.269 -6.316,0 -12.629,0 -18.947,0.008 0.015,-6.323 -0.015,-12.644 0.015,-18.964 -5.462,-0.013 -10.921,-0.03 -16.383,0.005 z m 68.389,2.701 c 4.988,-4.332 11.924,-5.464 18.321,-5.252 5.913,0.258 12.34,1.786 16.368,6.442 2.483,2.728 3.344,6.437 3.625,10.017 -4.651,0.038 -9.292,0.023 -13.943,0.008 -0.251,-2.561 -1.573,-5.221 -4.203,-6.001 -3.428,-0.975 -8.048,-0.831 -10.227,2.429 -1.588,2.668 0.089,6.027 2.733,7.23 7.425,3.785 16.613,4.446 22.704,10.622 5.867,6.83 4.651,18.61 -2.554,24.077 -5.117,4.053 -11.975,4.973 -18.308,4.621 -5.958,-0.377 -12.322,-1.941 -16.54,-6.452 -2.88,-3.017 -4.058,-7.248 -3.998,-11.349 4.636,-0.01 9.28,0 13.913,0 0.357,1.885 0.783,3.906 2.234,5.282 2.295,2.371 5.89,2.693 8.981,2.234 3.124,-0.509 5.852,-3.382 5.578,-6.65 -0.084,-2.234 -1.892,-3.889 -3.747,-4.864 -6.364,-3.387 -14.067,-3.749 -19.935,-8.175 -7.618,-5.449 -8.152,-18.154 -1.003,-24.218 z m 156.571,0.054 c 4.775,-4.21 11.415,-5.388 17.589,-5.34 5.971,0.19 12.489,1.482 16.758,6.012 2.741,2.759 3.805,6.68 4.043,10.473 -4.661,0.053 -9.312,0.058 -13.969,0 -0.263,-2.409 -1.36,-4.978 -3.815,-5.829 -3.093,-1.064 -6.962,-1.041 -9.599,1.11 -2.103,1.728 -2.067,5.176 -0.228,7.081 1.953,2.009 4.76,2.746 7.336,3.564 5.29,1.626 10.83,3.07 15.349,6.422 7.876,5.753 7.823,18.8 0.674,25.123 -5.046,4.626 -12.256,5.844 -18.876,5.568 -6.176,-0.319 -12.884,-1.819 -17.234,-6.569 -2.88,-2.987 -4.003,-7.212 -4.013,-11.273 l 13.964,-0.008 c 0.4,1.852 0.727,3.863 2.176,5.221 2.678,2.736 7.07,3.005 10.523,1.877 3.77,-1.295 5.649,-6.723 2.483,-9.584 -3.093,-2.66 -7.22,-3.559 -10.995,-4.816 -5.229,-1.52 -10.85,-3.43 -14.209,-8.005 -4.454,-6.232 -3.846,-15.891 2.042,-21.026 z m 50.628,-0.282 c 5.675,-4.603 13.444,-5.533 20.51,-4.826 5.404,0.502 11.114,2.447 14.513,6.913 2.123,2.647 2.835,6.06 3.088,9.345 -4.631,0.046 -9.257,-0.008 -13.883,0.03 -0.466,-1.687 -0.742,-3.61 -2.196,-4.773 -2.597,-2.158 -6.442,-2.143 -9.505,-1.11 -2.483,0.816 -4.043,3.643 -3.207,6.174 0.826,2.67 3.592,3.952 6.032,4.803 6.027,2.039 12.517,3.324 17.748,7.159 7.962,5.715 7.906,18.906 0.702,25.224 -4.894,4.461 -11.841,5.715 -18.263,5.543 -6.08,-0.251 -12.621,-1.53 -17.168,-5.88 -3.281,-3.048 -4.72,-7.6 -4.656,-11.988 4.641,0.008 9.282,0.008 13.918,0 0.367,2.972 1.925,5.976 4.894,7.025 3.557,1.178 8.312,1.11 10.746,-2.186 1.989,-2.45 1.434,-6.412 -1.317,-8.064 -6.696,-4.317 -15.471,-4.188 -21.721,-9.386 -7.238,-5.725 -7.385,-18.149 -0.236,-24.006 z m -167.066,-3.706 c 4.796,-0.01 9.589,0.015 14.384,-0.015 3.172,12.558 6.348,25.12 9.406,37.713 3.721,-12.553 7.309,-25.146 11.02,-37.708 4.73,0.01 9.464,0.01 14.199,0.01 3.747,12.512 7.164,25.136 11.103,37.597 2.903,-12.568 6.209,-25.044 9.247,-37.582 4.803,-0.025 9.629,-0.025 14.432,-0.008 -5.224,18.843 -10.382,37.703 -15.661,56.526 -5.021,-0.008 -10.04,-0.018 -15.061,0 -3.764,-12.854 -7.501,-25.728 -11.124,-38.633 -3.846,12.841 -7.428,25.769 -11.212,38.625 -5.008,0.008 -10.019,-0.033 -15.03,0.023 -5.404,-18.797 -10.371,-37.731 -15.704,-56.549 z m 89.418,56.534 c -0.053,-18.843 -0.005,-37.691 -0.02,-56.533 h 14.67 c -0.015,18.843 0.03,37.688 -0.025,56.526 -4.872,0 -9.751,-0.01 -14.625,0.008 z" />
  <path
     transform="translate(-90,-155.912)"
     clip-path="url(#clipPath713)"
     id="path695"
     fill="#ffffff"
     d="m 155.271,172.912 c 5.464,-0.033 10.921,-0.018 16.383,-0.01 -0.03,6.323 0,12.644 -0.015,18.967 6.316,-0.008 12.629,-0.008 18.947,-0.008 -0.01,5.429 -0.01,10.853 0,16.269 -6.316,0.008 -12.629,0 -18.947,0 0.015,6.321 -0.015,12.644 0.015,18.964 -5.462,0.008 -10.921,0.023 -16.383,-0.01 0.01,-6.31 -0.015,-12.634 0.015,-18.947 -6.29,-0.018 -12.583,0.015 -18.876,-0.018 0.033,-5.419 0.033,-10.825 0,-16.246 6.293,-0.03 12.585,0 18.876,-0.015 -0.03,-6.313 -0.005,-12.636 -0.015,-18.947 z" />
  <path
     transform="translate(-95.01585,-265.36456)"
     clip-path="url(#clipPath721)"
     d="m 150.99185,265.36456 h 47.527 c -7.347,29.356 -14.412,58.796 -21.781,88.147 H 80.390848 v -0.917 l 0.008,0.897 c 23.469002,-29.424 47.021002,-58.785 70.593002,-88.126 m -5.33,16.986 c 0.01,6.313 -0.015,12.634 0.015,18.949 -6.29,0.015 -12.583,-0.015 -18.876,0.015 0.033,5.419 0.033,10.83 0,16.246 6.293,0.033 12.585,0 18.876,0.018 -0.03,6.313 -0.005,12.636 -0.015,18.949 5.464,0.03 10.921,0.015 16.383,0.008 -0.03,-6.321 0,-12.644 -0.015,-18.964 6.316,0 12.629,0.008 18.947,0 -0.01,-5.419 -0.01,-10.843 0,-16.269 -6.316,0 -12.629,0 -18.947,0.008 0.015,-6.323 -0.015,-12.644 0.015,-18.964 -5.462,-0.013 -10.921,-0.03 -16.383,0.005 z m 68.389,2.701 c 4.988,-4.332 11.924,-5.464 18.321,-5.252 5.913,0.258 12.34,1.786 16.368,6.442 2.483,2.728 3.344,6.437 3.625,10.017 -4.651,0.038 -9.292,0.023 -13.943,0.008 -0.251,-2.561 -1.573,-5.221 -4.203,-6.001 -3.428,-0.975 -8.048,-0.831 -10.227,2.429 -1.588,2.668 0.089,6.027 2.733,7.23 7.425,3.785 16.613,4.446 22.704,10.622 5.867,6.83 4.651,18.61 -2.554,24.077 -5.117,4.053 -11.975,4.973 -18.308,4.621 -5.958,-0.377 -12.322,-1.941 -16.54,-6.452 -2.88,-3.017 -4.058,-7.248 -3.998,-11.349 4.636,-0.01 9.28,0 13.913,0 0.357,1.885 0.783,3.906 2.234,5.282 2.295,2.371 5.89,2.693 8.981,2.234 3.124,-0.509 5.852,-3.382 5.578,-6.65 -0.084,-2.234 -1.892,-3.889 -3.747,-4.864 -6.364,-3.387 -14.067,-3.749 -19.935,-8.175 -7.618,-5.449 -8.152,-18.154 -1.003,-24.218 z m 156.571,0.054 c 4.775,-4.21 11.415,-5.388 17.589,-5.34 5.971,0.19 12.489,1.482 16.758,6.012 2.741,2.759 3.805,6.68 4.043,10.473 -4.661,0.053 -9.312,0.058 -13.969,0 -0.263,-2.409 -1.36,-4.978 -3.815,-5.829 -3.093,-1.064 -6.962,-1.041 -9.599,1.11 -2.103,1.728 -2.067,5.176 -0.228,7.081 1.953,2.009 4.76,2.746 7.336,3.564 5.29,1.626 10.83,3.07 15.349,6.422 7.876,5.753 7.823,18.8 0.674,25.123 -5.046,4.626 -12.256,5.844 -18.876,5.568 -6.176,-0.319 -12.884,-1.819 -17.234,-6.569 -2.88,-2.987 -4.003,-7.212 -4.013,-11.273 l 13.964,-0.008 c 0.4,1.852 0.727,3.863 2.176,5.221 2.678,2.736 7.07,3.005 10.523,1.877 3.77,-1.295 5.649,-6.723 2.483,-9.584 -3.093,-2.66 -7.22,-3.559 -10.995,-4.816 -5.229,-1.52 -10.85,-3.43 -14.209,-8.005 -4.454,-6.232 -3.846,-15.891 2.042,-21.026 z m 50.628,-0.282 c 5.675,-4.603 13.444,-5.533 20.51,-4.826 5.404,0.502 11.114,2.447 14.513,6.913 2.123,2.647 2.835,6.06 3.088,9.345 -4.631,0.046 -9.257,-0.008 -13.883,0.03 -0.466,-1.687 -0.742,-3.61 -2.196,-4.773 -2.597,-2.158 -6.442,-2.143 -9.505,-1.11 -2.483,0.816 -4.043,3.643 -3.207,6.174 0.826,2.67 3.592,3.952 6.032,4.803 6.027,2.039 12.517,3.324 17.748,7.159 7.962,5.715 7.906,18.906 0.702,25.224 -4.894,4.461 -11.841,5.715 -18.263,5.543 -6.08,-0.251 -12.621,-1.53 -17.168,-5.88 -3.281,-3.048 -4.72,-7.6 -4.656,-11.988 4.641,0.008 9.282,0.008 13.918,0 0.367,2.972 1.925,5.976 4.894,7.025 3.557,1.178 8.312,1.11 10.746,-2.186 1.989,-2.45 1.434,-6.412 -1.317,-8.064 -6.696,-4.317 -15.471,-4.188 -21.721,-9.386 -7.238,-5.725 -7.385,-18.149 -0.236,-24.006 z m -167.066,-3.706 c 4.796,-0.01 9.589,0.015 14.384,-0.015 3.172,12.558 6.348,25.12 9.406,37.713 3.721,-12.553 7.309,-25.146 11.02,-37.708 4.73,0.01 9.464,0.01 14.199,0.01 3.747,12.512 7.164,25.136 11.103,37.597 2.903,-12.568 6.209,-25.044 9.247,-37.582 4.803,-0.025 9.629,-0.025 14.432,-0.008 -5.224,18.843 -10.382,37.703 -15.661,56.526 -5.021,-0.008 -10.04,-0.018 -15.061,0 -3.764,-12.854 -7.501,-25.728 -11.124,-38.633 -3.846,12.841 -7.428,25.769 -11.212,38.625 -5.008,0.008 -10.019,-0.033 -15.03,0.023 -5.404,-18.797 -10.371,-37.731 -15.704,-56.549 z m 89.418,56.534 c -0.053,-18.843 -0.005,-37.691 -0.02,-56.533 h 14.67 c -0.015,18.843 0.03,37.688 -0.025,56.526 -4.872,0 -9.751,-0.01 -14.625,0.008 z"
     fill="#e60005"
     id="path705" />
</svg>
