<?xml version="1.0" encoding="utf-8"?>
<!-- Generator: Adobe Illustrator 14.0.0, SVG Export Plug-In . SVG Version: 6.00 Build 43363)  -->
<!DOCTYPE svg PUBLIC "-//W3C//DTD SVG 1.1//EN" "http://www.w3.org/Graphics/SVG/1.1/DTD/svg11.dtd">
<svg version="1.1" id="Layer_2" xmlns="http://www.w3.org/2000/svg" xmlns:xlink="http://www.w3.org/1999/xlink" x="0px" y="0px"
	 width="400px" height="167.334px" viewBox="0 0 400 167.334" enable-background="new 0 0 400 167.334" xml:space="preserve">
<path fill="#252158" d="M318.523,10.058l-16.199,43.195c21.294-10.738,38.596,12.82,75.307-4.821l18.495-44.256
	C359.415,21.819,339.819-0.681,318.523,10.058z"/>
<path fill="#EC2227" d="M268.428,43.127l-20.904,55.744c27.48-13.858,49.809,16.545,97.184-6.223l23.868-57.113
	C321.201,58.305,295.912,29.269,268.428,43.127z"/>
<path fill="#F2EB4A" d="M286.023,84.083l-16.199,43.195c21.294-10.738,38.596,12.82,75.307-4.821l18.495-44.256
	C326.915,95.845,307.319,73.345,286.023,84.083z"/>
<g>
	<path fill="#252158" d="M108.071,48.276c-0.377-0.652-0.74-1.142-1.09-1.469c-0.351-0.326-0.813-0.608-1.388-0.846
		c-0.388-0.118-0.874-0.236-1.459-0.356c-0.586-0.118-1.164-0.178-1.735-0.178h-9.726l-5.668,15.397h9.875
		c0.62,0,1.141-0.014,1.559-0.044c0.419-0.03,0.792-0.09,1.116-0.179s0.642-0.236,0.952-0.444c0.31-0.208,0.682-0.458,1.12-0.756
		l-2.756,5.25l-0.914,1.691c-0.386,0.712-0.697,1.276-0.933,1.691c-0.235,0.416-0.448,0.756-0.64,1.023
		c-0.191,0.268-0.365,0.476-0.521,0.624c-0.156,0.149-0.348,0.312-0.574,0.489c-0.571,0.416-1.254,0.624-2.049,0.624h-9.874
		l-4.018,10.857c-0.524,1.424-0.97,2.67-1.337,3.738s-0.649,1.929-0.843,2.581c-0.513,1.721-0.796,3.129-0.849,4.228
		c-0.055,1.099,0.132,1.973,0.559,2.625H66.258c1.326-1.365,2.549-3.115,3.67-5.252c1.121-2.135,2.4-5.161,3.841-9.077
		l11.727-31.862c0.505-1.364,0.947-2.594,1.324-3.693c0.377-1.098,0.662-1.972,0.856-2.626c0.989-3.321,1.086-5.606,0.291-6.853
		h23.065c-0.582,0.95-0.969,1.751-1.163,2.403c-0.106,0.355-0.231,0.876-0.372,1.557c-0.142,0.683-0.268,1.38-0.381,2.092
		L108.071,48.276z"/>
	<path fill="#252158" d="M118.498,89.571c-0.372,0.832-0.634,1.439-0.786,1.825c-0.152,0.387-0.281,0.757-0.388,1.113
		c-0.247,0.831-0.315,1.601-0.205,2.313H93.757c1.308-1.305,2.522-3.026,3.643-5.162c1.121-2.136,2.391-5.131,3.815-8.989
		l11.753-31.951c0.505-1.364,0.947-2.594,1.324-3.693c0.376-1.097,0.662-1.972,0.856-2.625c0.989-3.322,1.095-5.637,0.317-6.942
		h10.619c-0.617,0.654-1.139,1.261-1.568,1.825c-0.429,0.564-0.879,1.261-1.35,2.091c-0.659,1.128-1.383,2.596-2.17,4.406
		s-1.604,3.842-2.449,6.096l-12.879,34.977h8.533c0.77,0,1.488-0.073,2.153-0.222c0.665-0.148,1.323-0.4,1.977-0.757
		c0.653-0.355,1.301-0.8,1.944-1.334s1.337-1.216,2.082-2.047L118.498,89.571z"/>
	<path fill="#252158" d="M166.601,35.549c-1.482,1.722-2.691,3.234-3.625,4.539l-1.339,1.869l-1.52,2.225l-1.201,1.78
		l-18.726,28.836l-2.488,6.853l-1.152,3.115c-0.392,1.068-0.756,2.167-1.092,3.293c-0.954,3.204-1.043,5.459-0.264,6.764H124.35
		c0.531-0.534,1.02-1.113,1.467-1.735c0.446-0.623,0.917-1.35,1.413-2.181c0.785-1.305,1.595-2.937,2.427-4.895
		c0.372-0.83,0.76-1.78,1.165-2.848s0.739-1.958,1.001-2.67l2.106-5.696l1.386-26.167l0.035-2.491l0.04-2.759
		c0.023-3.5-0.392-6.11-1.244-7.833h11.588c-1.053,0.95-1.827,2.255-2.322,3.916c-0.212,0.712-0.386,1.588-0.521,2.626
		c-0.136,1.039-0.26,2.33-0.37,3.871l-1.006,13.884l-0.094,1.068l-0.053,0.801l-0.063,0.712c-0.036,0.12-0.058,0.238-0.069,0.355
		c-0.011,0.12-0.021,0.238-0.031,0.357c0.283-0.535,0.498-0.92,0.643-1.158c0.145-0.236,0.259-0.415,0.346-0.534l0.462-0.801
		l0.5-0.801l8.756-13.884c0.375-0.593,0.697-1.112,0.967-1.558c0.269-0.444,0.516-0.874,0.739-1.291
		c0.367-0.652,0.729-1.364,1.083-2.136c0.354-0.771,0.601-1.394,0.743-1.869c0.106-0.355,0.192-0.77,0.26-1.246
		c0.067-0.475,0.106-0.859,0.121-1.157c-0.014-0.119-0.024-0.252-0.03-0.401c-0.006-0.147-0.054-0.4-0.146-0.757H166.601z"/>
	<path fill="#252158" d="M179.034,35.46c-1.301,1.365-2.516,3.13-3.645,5.295c-1.131,2.167-2.406,5.177-3.828,9.033l-11.728,31.862
		c-0.524,1.424-0.97,2.67-1.337,3.738s-0.649,1.929-0.843,2.581c-0.972,3.263-1.082,5.548-0.328,6.853h-10.582
		c1.326-1.365,2.549-3.115,3.67-5.252c1.121-2.135,2.4-5.161,3.841-9.077l11.7-31.773c0.523-1.423,0.97-2.67,1.337-3.738
		s0.658-1.958,0.87-2.67c0.972-3.262,1.068-5.547,0.291-6.853H179.034z"/>
	<path fill="#252158" d="M214.072,35.549c-0.618,0.654-1.135,1.262-1.55,1.825c-0.417,0.564-0.873,1.261-1.368,2.091
		c-0.66,1.129-1.385,2.582-2.176,4.362c-0.791,1.78-1.597,3.798-2.418,6.051l-14.868,40.407c-0.21,0.534-0.364,0.949-0.465,1.246
		s-0.195,0.594-0.283,0.89c-0.142,0.476-0.226,0.86-0.252,1.157c-0.026,0.298-0.02,0.712,0.021,1.246h-8.234
		c0.439-0.475,0.747-1.008,0.923-1.603c0.088-0.296,0.157-0.652,0.207-1.067c0.049-0.415,0.098-1.037,0.146-1.869l2.298-34.354
		c0.042-0.475,0.094-1.024,0.155-1.646c0.061-0.623,0.118-1.23,0.171-1.825l0.173-1.958c-0.333,0.95-0.567,1.633-0.702,2.047
		c-0.137,0.417-0.262,0.772-0.374,1.068l-0.446,1.247l-0.615,1.691l-9.228,25.097c-0.507,1.366-0.954,2.596-1.343,3.693
		c-0.39,1.099-0.682,1.974-0.876,2.626c-0.972,3.263-1.07,5.548-0.291,6.853h-10.88c0.681-0.534,1.237-1.068,1.669-1.603
		c0.432-0.533,0.926-1.274,1.482-2.225c1.335-2.313,2.875-5.814,4.62-10.502l11.674-31.685c0.505-1.363,0.952-2.61,1.337-3.738
		c0.385-1.126,0.675-2.016,0.87-2.669c0.972-3.263,1.081-5.547,0.328-6.854h10.695c-0.404,0.772-0.659,1.335-0.766,1.691
		c-0.07,0.238-0.135,0.535-0.19,0.89c-0.011,0.12-0.028,0.343-0.05,0.667c-0.022,0.327-0.057,0.816-0.102,1.468l-2.104,30.706
		c-0.019,0.476-0.063,1.023-0.138,1.646c-0.073,0.623-0.146,1.261-0.215,1.914c-0.071,0.653-0.137,1.187-0.198,1.602
		c-0.063,0.417-0.155,1.039-0.277,1.869l0.487-1.513c0.166-0.475,0.298-0.875,0.396-1.202c0.097-0.326,0.163-0.548,0.198-0.667
		c0.166-0.475,0.373-1.082,0.619-1.825c0.245-0.741,0.463-1.349,0.655-1.824l8.167-22.162c0.505-1.363,0.951-2.61,1.338-3.738
		c0.384-1.126,0.666-1.987,0.842-2.581c0.99-3.322,1.107-5.636,0.355-6.942H214.072z"/>
	<path fill="#252158" d="M237.037,60.024c-0.612,0.89-1.108,1.722-1.487,2.492c-0.379,0.771-0.869,1.958-1.471,3.56l-9.907,26.878
		c-0.114-0.534-0.266-0.904-0.451-1.113c-0.187-0.206-0.479-0.311-0.876-0.311c-0.249,0-0.521,0.06-0.816,0.178
		c-0.296,0.119-0.688,0.327-1.173,0.623l-1.884,1.067c-0.512,0.298-0.964,0.55-1.362,0.757c-0.396,0.209-0.75,0.372-1.058,0.49
		c-2.115,1.008-4.079,1.512-5.892,1.512c-3.379,0-5.666-2.075-6.863-6.229c-1.404-4.627-0.664-11.777,2.217-21.449
		c1.537-5.162,3.324-9.849,5.363-14.062c2.037-4.212,4.209-7.817,6.518-10.814c2.309-2.995,4.706-5.309,7.192-6.941
		c2.485-1.631,4.946-2.448,7.38-2.448c0.422,0,0.842,0.031,1.26,0.089c0.416,0.06,0.855,0.148,1.317,0.267
		c0.28,0.06,0.517,0.12,0.711,0.178c0.192,0.06,0.389,0.134,0.586,0.223s0.435,0.209,0.713,0.357
		c0.279,0.148,0.645,0.341,1.096,0.578c0.112,0.119,0.269,0.222,0.466,0.312c0.197,0.089,0.442,0.222,0.738,0.4l0.996,0.534
		c0.112,0.12,0.227,0.178,0.338,0.178s0.205,0,0.279,0c0.199,0,0.37-0.014,0.516-0.044c0.146-0.03,0.277-0.074,0.395-0.134
		l-5.41,12.905l-0.288-0.534c-0.936-1.78-1.881-3.026-2.836-3.738c-0.956-0.712-2.116-1.068-3.482-1.068
		c-1.565,0-3.155,0.564-4.771,1.691c-1.615,1.128-3.184,2.745-4.705,4.85c-1.521,2.107-2.967,4.644-4.335,7.61
		c-1.368,2.968-2.601,6.289-3.696,9.968c-1.591,5.339-2.222,9.478-1.892,12.415s1.588,4.405,3.774,4.405
		c1.912,0,3.92-1.068,6.021-3.204c1.326-1.365,2.486-2.966,3.48-4.806c0.995-1.838,2.079-4.39,3.25-7.654h-6.447
		c-0.546,0-0.984,0.075-1.313,0.222c-0.33,0.149-0.799,0.491-1.404,1.024l3.705-8.811c0.407-0.949,0.846-1.587,1.315-1.914
		c0.47-0.325,1.177-0.489,2.121-0.489H237.037z"/>
	<path fill="#252158" d="M38.938,116.903c-0.46-1.542-1.259-2.758-2.396-3.648c-1.139-0.891-2.49-1.335-4.055-1.335
		c-1.541,0-3.103,0.55-4.683,1.646c-1.583,1.099-3.12,2.656-4.616,4.673c-1.494,2.018-2.906,4.42-4.233,7.209
		c-1.329,2.789-2.504,5.904-3.528,9.345c-1.733,5.815-2.393,10.28-1.979,13.396c0.414,3.114,1.862,4.672,4.347,4.672
		c1.515,0,3.121-0.43,4.819-1.291c1.696-0.859,3.685-2.238,5.964-4.138l-5.301,14.418c-0.094-0.356-0.203-0.593-0.328-0.713
		c-0.127-0.117-0.289-0.178-0.487-0.178h-0.299c-0.166,0.061-0.322,0.104-0.468,0.134c-0.146,0.03-0.31,0.104-0.494,0.222
		c-0.117,0.061-0.267,0.12-0.445,0.179c-0.18,0.06-0.41,0.148-0.693,0.268c-1.186,0.474-2.25,0.858-3.195,1.156
		c-0.945,0.296-1.779,0.444-2.498,0.444c-2.113,0-3.826-0.667-5.143-2.002s-2.215-3.217-2.695-5.651
		c-0.48-2.432-0.532-5.385-0.155-8.855c0.374-3.471,1.198-7.343,2.472-11.614c1.467-4.925,3.21-9.463,5.23-13.617
		c2.02-4.151,4.178-7.728,6.474-10.726c2.296-2.994,4.667-5.324,7.111-6.984c2.445-1.662,4.835-2.493,7.171-2.493
		c0.645,0,1.389,0.089,2.23,0.267c0.354,0.061,0.673,0.12,0.953,0.178c0.28,0.061,0.557,0.135,0.828,0.223
		c0.271,0.09,0.552,0.209,0.844,0.357c0.291,0.147,0.625,0.342,1.002,0.578c0.425,0.238,0.777,0.431,1.057,0.578
		c0.278,0.148,0.517,0.268,0.714,0.355c0.197,0.09,0.366,0.149,0.507,0.178c0.139,0.031,0.284,0.045,0.434,0.045
		c0.173,0,0.345-0.014,0.516-0.045c0.17-0.028,0.397-0.103,0.681-0.221L38.938,116.903z"/>
	<path fill="#252158" d="M67.352,129.097c-1.484,4.984-3.227,9.583-5.227,13.796c-2.001,4.214-4.116,7.831-6.347,10.857
		c-2.23,3.025-4.517,5.384-6.858,7.075c-2.343,1.691-4.618,2.536-6.829,2.536s-3.993-0.667-5.348-2.002
		c-1.354-1.335-2.268-3.248-2.742-5.74c-0.475-2.491-0.507-5.531-0.096-9.122c0.411-3.59,1.279-7.609,2.605-12.06
		c1.449-4.865,3.157-9.331,5.127-13.396c1.967-4.063,4.074-7.549,6.319-10.457c2.245-2.906,4.563-5.162,6.953-6.764
		c2.389-1.602,4.739-2.403,7.05-2.403c2.086,0,3.784,0.639,5.094,1.913c1.309,1.277,2.195,3.115,2.66,5.519
		c0.463,2.403,0.504,5.312,0.122,8.723C69.452,120.984,68.624,124.825,67.352,129.097z M60.905,129.097
		c1.626-5.458,2.253-9.686,1.878-12.682c-0.374-2.996-1.704-4.495-3.989-4.495c-1.316,0-2.702,0.564-4.155,1.691
		c-1.454,1.128-2.89,2.714-4.306,4.761c-1.418,2.048-2.766,4.465-4.043,7.254c-1.278,2.789-2.421,5.875-3.429,9.256
		c-1.696,5.695-2.361,10.117-1.994,13.262c0.368,3.145,1.743,4.717,4.128,4.717c1.316,0,2.688-0.579,4.113-1.736
		c1.425-1.156,2.838-2.772,4.239-4.85c1.401-2.076,2.746-4.568,4.035-7.477C58.67,135.892,59.845,132.657,60.905,129.097z"/>
	<path fill="#252158" d="M84.519,156.775c-0.371,0.832-0.633,1.439-0.785,1.825c-0.152,0.387-0.281,0.757-0.388,1.113
		c-0.247,0.831-0.315,1.601-0.204,2.313H59.778c1.307-1.305,2.521-3.026,3.643-5.162s2.391-5.132,3.814-8.989l11.754-31.951
		c0.505-1.363,0.947-2.594,1.324-3.693c0.377-1.097,0.662-1.972,0.856-2.625c0.989-3.322,1.095-5.637,0.317-6.942h10.619
		c-0.617,0.654-1.139,1.261-1.568,1.825c-0.428,0.564-0.879,1.26-1.35,2.09c-0.658,1.129-1.383,2.597-2.17,4.406
		c-0.787,1.811-1.604,3.843-2.449,6.096L71.69,152.059h8.533c0.77,0,1.487-0.073,2.152-0.222s1.323-0.4,1.977-0.758
		c0.652-0.355,1.301-0.8,1.944-1.334c0.643-0.534,1.336-1.216,2.083-2.047L84.519,156.775z"/>
	<path fill="#252158" d="M125.926,129.097c-1.484,4.984-3.227,9.583-5.227,13.796c-2,4.214-4.117,7.831-6.346,10.857
		c-2.23,3.025-4.518,5.384-6.859,7.075s-4.619,2.536-6.83,2.536s-3.992-0.667-5.346-2.002s-2.268-3.248-2.742-5.74
		c-0.477-2.491-0.508-5.531-0.096-9.122c0.41-3.59,1.279-7.609,2.605-12.06c1.449-4.865,3.156-9.331,5.127-13.396
		c1.967-4.063,4.074-7.549,6.318-10.457c2.246-2.906,4.563-5.162,6.953-6.764c2.389-1.602,4.74-2.403,7.049-2.403
		c2.088,0,3.785,0.639,5.096,1.913c1.309,1.277,2.195,3.115,2.66,5.519c0.463,2.403,0.504,5.312,0.121,8.723
		C128.028,120.984,127.2,124.825,125.926,129.097z M119.481,129.097c1.625-5.458,2.252-9.686,1.877-12.682s-1.703-4.495-3.988-4.495
		c-1.316,0-2.703,0.564-4.156,1.691c-1.453,1.128-2.889,2.714-4.305,4.761c-1.418,2.048-2.766,4.465-4.043,7.254
		c-1.279,2.789-2.422,5.875-3.43,9.256c-1.695,5.695-2.361,10.117-1.994,13.262s1.744,4.717,4.129,4.717
		c1.316,0,2.688-0.579,4.111-1.736c1.426-1.156,2.84-2.772,4.24-4.85c1.4-2.076,2.746-4.568,4.035-7.477
		C117.245,135.892,118.42,132.657,119.481,129.097z"/>
	<path fill="#252158" d="M168.653,102.753c-0.617,0.654-1.135,1.262-1.549,1.824c-0.418,0.564-0.875,1.262-1.369,2.092
		c-0.66,1.129-1.385,2.581-2.176,4.361c-0.791,1.779-1.596,3.798-2.418,6.051l-4.398,12.016c-0.541,1.484-1.023,2.79-1.445,3.916
		c-0.424,1.128-0.83,2.181-1.221,3.16c-0.391,0.979-0.773,1.929-1.146,2.848c-0.375,0.921-0.781,1.914-1.225,2.982
		c-1.18,2.789-2.24,5.104-3.186,6.941c-0.945,1.84-1.965,3.591-3.055,5.251c-2.105,3.146-4.217,5.459-6.334,6.941
		c-2.119,1.482-4.408,2.225-6.867,2.225c-3.404,0-5.516-1.749-6.336-5.25s-0.275-8.455,1.633-14.863
		c0.461-1.542,0.994-3.188,1.604-4.94c0.607-1.748,1.273-3.633,2-5.65l6.113-16.644c0.504-1.363,0.945-2.595,1.324-3.692
		c0.375-1.098,0.66-1.973,0.855-2.626c0.99-3.322,1.107-5.636,0.354-6.942h10.582c-0.617,0.654-1.133,1.262-1.549,1.824
		c-0.418,0.564-0.859,1.262-1.33,2.092c-0.703,1.188-1.443,2.656-2.227,4.406c-0.781,1.75-1.584,3.753-2.404,6.006l-6.926,18.869
		c-0.129,0.355-0.287,0.801-0.471,1.335c-0.186,0.534-0.395,1.157-0.631,1.869c-0.221,0.653-0.416,1.245-0.588,1.78
		c-0.172,0.533-0.318,1.009-0.441,1.424c-0.955,3.204-1.262,5.756-0.92,7.653c0.34,1.899,1.293,2.849,2.857,2.849
		c1.119,0,2.273-0.459,3.467-1.38c1.193-0.919,2.357-2.239,3.49-3.96c1.006-1.543,2.035-3.471,3.084-5.785s2.311-5.488,3.787-9.523
		l5.943-16.198c0.506-1.363,0.945-2.595,1.324-3.692c0.375-1.098,0.662-1.973,0.855-2.626c0.99-3.322,1.107-5.636,0.354-6.942
		H168.653z"/>
	<path fill="#252158" d="M194.211,119.396c-1.502,5.045-3.514,9.168-6.033,12.371c-1.461,1.9-3.07,3.383-4.828,4.451
		c-0.486,0.297-0.934,0.549-1.344,0.756c-0.41,0.209-1.027,0.489-1.854,0.846c0.303,0.654,0.52,1.217,0.65,1.69
		c0.133,0.476,0.236,1.039,0.316,1.691c0.078,0.653,0.131,1.335,0.154,2.047s0.018,1.528-0.02,2.447
		c-0.039,0.921-0.115,1.989-0.229,3.204c-0.115,1.217-0.27,2.656-0.467,4.316c-0.148,1.246-0.266,2.27-0.355,3.07
		s-0.141,1.514-0.152,2.137c-0.012,0.622,0.008,1.201,0.061,1.735s0.121,1.156,0.207,1.869h-9.092
		c0.393-0.652,0.684-1.216,0.875-1.691c0.191-0.474,0.395-1.067,0.605-1.78c0.301-1.008,0.568-2.136,0.803-3.381
		c0.234-1.247,0.42-2.492,0.555-3.738c0.137-1.247,0.225-2.461,0.268-3.649c0.043-1.186,0.01-2.225-0.096-3.114
		c-0.102-0.83-0.248-1.527-0.439-2.092c-0.193-0.564-0.465-1.008-0.814-1.335c-0.35-0.325-0.787-0.563-1.314-0.712
		c-0.529-0.148-1.176-0.223-1.947-0.223h-2.049l-3.141,8.543c-0.543,1.484-0.992,2.746-1.352,3.783
		c-0.359,1.038-0.635,1.885-0.83,2.537c-0.512,1.721-0.795,3.129-0.85,4.228s0.133,1.973,0.559,2.625H151.44
		c1.309-1.305,2.531-3.055,3.67-5.252c1.139-2.193,2.418-5.22,3.842-9.077l11.584-31.506c0.451-1.187,0.885-2.389,1.297-3.605
		c0.412-1.215,0.725-2.18,0.936-2.892c0.99-3.322,1.109-5.636,0.355-6.942h13.711c0.498,0,0.996,0.016,1.498,0.045
		c0.498,0.031,0.988,0.074,1.469,0.134c1.256,0.118,2.236,0.37,2.941,0.757c0.705,0.386,1.318,0.993,1.842,1.823
		c0.838,1.188,1.225,2.997,1.158,5.429C195.676,113.374,195.165,116.192,194.211,119.396z M187.674,119.574
		c0.742-2.493,0.852-4.257,0.33-5.296c-0.523-1.037-1.805-1.557-3.84-1.557h-6.336l-6.191,16.91h4.023
		c0.92,0,1.793-0.06,2.625-0.178c0.83-0.119,1.541-0.297,2.133-0.535c1.594-0.592,3.023-1.705,4.293-3.338
		C185.979,123.95,186.967,121.947,187.674,119.574z"/>
	<path fill="#252158" d="M221.377,116.014c-0.346-0.593-0.766-1.142-1.262-1.646s-1.045-0.935-1.646-1.291
		c-0.602-0.355-1.238-0.637-1.908-0.846c-0.672-0.207-1.355-0.312-2.051-0.312c-2.111,0-3.961,0.624-5.549,1.869
		s-2.711,2.968-3.363,5.161c-0.266,0.891-0.373,1.707-0.32,2.449s0.244,1.35,0.574,1.824c0.121,0.178,0.254,0.342,0.395,0.488
		c0.143,0.149,0.309,0.299,0.502,0.445c0.189,0.148,0.432,0.297,0.725,0.445c0.291,0.148,0.648,0.342,1.074,0.578
		c0.377,0.238,0.703,0.416,0.979,0.535c0.273,0.119,0.494,0.237,0.658,0.355c1.316,0.832,2.326,1.779,3.025,2.848
		c0.871,1.246,1.293,3.042,1.266,5.385c-0.027,2.344-0.502,5.059-1.42,8.143c-0.955,3.205-2.117,6.083-3.484,8.633
		c-1.369,2.553-2.898,4.748-4.59,6.587c-1.689,1.84-3.482,3.248-5.377,4.228c-1.893,0.979-3.834,1.468-5.82,1.468
		c-0.275,0-0.598,0-0.971,0c-0.371,0-0.777-0.059-1.213-0.178c-0.43-0.06-0.811-0.133-1.145-0.223
		c-0.334-0.089-0.643-0.178-0.926-0.267c-0.285-0.089-0.57-0.192-0.857-0.312c-0.289-0.119-0.605-0.267-0.949-0.444
		c-0.313-0.118-0.568-0.237-0.77-0.355c-0.201-0.119-0.355-0.208-0.461-0.269c-0.107-0.058-0.203-0.089-0.289-0.089
		c-0.088,0-0.193,0-0.316,0c-0.125,0-0.26,0.061-0.408,0.179c-0.146,0.119-0.373,0.356-0.678,0.712l2.793-15.131
		c0.209,0.299,0.389,0.551,0.539,0.757c0.148,0.209,0.309,0.401,0.479,0.579c0.172,0.178,0.361,0.371,0.574,0.578
		c0.211,0.209,0.484,0.46,0.818,0.757c0.396,0.415,0.768,0.757,1.111,1.024c0.342,0.266,0.637,0.488,0.881,0.667
		c0.326,0.237,0.713,0.444,1.156,0.622c0.443,0.179,0.891,0.343,1.344,0.49c0.453,0.148,0.912,0.253,1.379,0.311
		c0.467,0.061,0.898,0.09,1.297,0.09c1.889,0,3.645-0.771,5.273-2.314c1.625-1.542,2.82-3.589,3.58-6.141
		c0.512-1.721,0.604-3.115,0.277-4.184c-0.328-1.067-1.201-2.017-2.617-2.848l-1.73-1.068c-0.533-0.296-0.986-0.592-1.357-0.889
		s-0.697-0.594-0.982-0.891s-0.539-0.593-0.76-0.891c-0.223-0.295-0.43-0.623-0.621-0.979c-1.352-2.551-1.213-6.555,0.412-12.016
		c0.955-3.203,2.162-6.11,3.623-8.722c1.461-2.61,3.08-4.774,4.861-6.497c1.424-1.363,2.973-2.373,4.646-3.025
		c1.672-0.652,3.439-0.979,5.303-0.979c0.943,0,1.873,0.089,2.789,0.267c0.33,0.061,0.619,0.135,0.865,0.223
		c0.246,0.09,0.506,0.178,0.777,0.268c0.273,0.088,0.566,0.209,0.883,0.356c0.314,0.148,0.711,0.341,1.188,0.578
		c0.4,0.237,0.725,0.4,0.971,0.489c0.248,0.09,0.482,0.133,0.707,0.133c0.273,0,0.506-0.058,0.705-0.178
		c0.195-0.117,0.492-0.385,0.891-0.801L221.377,116.014z"/>
</g>
</svg>
