<?xml version="1.0" encoding="UTF-8" standalone="no"?>
<svg
   xmlns:dc="http://purl.org/dc/elements/1.1/"
   xmlns:cc="http://creativecommons.org/ns#"
   xmlns:rdf="http://www.w3.org/1999/02/22-rdf-syntax-ns#"
   xmlns:svg="http://www.w3.org/2000/svg"
   xmlns="http://www.w3.org/2000/svg"
   xmlns:sodipodi="http://sodipodi.sourceforge.net/DTD/sodipodi-0.dtd"
   xmlns:inkscape="http://www.inkscape.org/namespaces/inkscape"
   inkscape:version="1.0 (4035a4fb49, 2020-05-01)"
   height="81.827003"
   width="380.103"
   sodipodi:docname="china-eastern-logo@logotyp.us.svg"
   id="svg1613"
   version="1.1"
   viewBox="0 0 380.103 81.827003"
   fill-rule="evenodd"
   clip-rule="evenodd">
  <metadata
     id="metadata1619">
    <rdf:RDF>
      <cc:Work
         rdf:about="">
        <dc:format>image/svg+xml</dc:format>
        <dc:type
           rdf:resource="http://purl.org/dc/dcmitype/StillImage" />
        <dc:title></dc:title>
      </cc:Work>
    </rdf:RDF>
  </metadata>
  <defs
     id="defs1617" />
  <sodipodi:namedview
     inkscape:current-layer="svg1613"
     inkscape:window-maximized="1"
     inkscape:window-y="-8"
     inkscape:window-x="-8"
     inkscape:cy="40.906"
     inkscape:cx="189.996"
     inkscape:zoom="1.8732143"
     fit-margin-bottom="0"
     fit-margin-right="0"
     fit-margin-left="0"
     fit-margin-top="0"
     showgrid="false"
     id="namedview1615"
     inkscape:window-height="1027"
     inkscape:window-width="1920"
     inkscape:pageshadow="2"
     inkscape:pageopacity="0"
     guidetolerance="10"
     gridtolerance="10"
     objecttolerance="10"
     borderopacity="1"
     bordercolor="#666666"
     pagecolor="#ffffff" />
  <path
     id="path1557"
     fill="#1b1d80"
     d="m 99.826,29.168 c -33.583,0.931 -66.087,8.541 -69.105,19.345 -0.277,0.985 -0.347,1.953 -0.347,2.938 0,10.658 22.221,14.29 46.274,17.283 0.412,0.055 0.396,-0.274 0.261,-0.511 l -0.703,-1.241 c -0.097,-0.164 -0.199,-0.274 -0.537,-0.383 -13.165,-3.34 -26.53,-8.231 -26.53,-12.793 0,-8.632 22.394,-17.191 47.895,-21.097 0.843,-0.164 1.245,-0.328 1.81,-0.766 0.706,-0.566 2.263,-1.843 2.922,-2.354 0.429,-0.365 0.276,-0.474 0.113,-0.474 l -2.055,0.055 z" />
  <g
     transform="translate(-90.004,-159.094)"
     id="g1585"
     fill="#df0011">
    <path
       id="path1559"
       d="m 152.697,240.385 c -17.451,-4.373 -34.745,-19.019 -32.02,-32.588 3.981,-19.797 30.605,-38.974 63.831,-47.986 0.749,-0.222 1.025,-0.717 0.065,-0.717 h -45.347 c -7.851,0 -9.554,1.015 -12.594,5.13 -1.62,2.188 -15.192,20.901 -21.312,29.336 -0.787,1.004 -1.901,2.085 -4.377,2.085 H 90.004 l 0.009,0.011 c 12.964,36.627 26.89,45.265 40.839,45.265 h 22.025 c 0.311,0 0.622,-0.335 -0.178,-0.537" />
    <path
       id="path1561"
       d="m 361.599,166.709 v 3.139 h -13.795 c -1.29,0 -2.343,1.04 -2.343,2.336 0,1.296 1.053,2.354 2.343,2.354 0,0 5.782,-0.073 6.745,-0.073 l -0.015,5.73 c -0.327,9.07 -4.566,14.582 -6.382,16.918 l -0.491,0.657 c -0.562,0.438 -0.896,1.113 -0.896,1.843 0,1.277 1.055,2.336 2.341,2.336 0.715,0 1.504,-0.328 1.924,-0.803 l 0.049,-0.036 c 1.659,-1.314 7.15,-6.479 8.207,-18.177 h 14.874 c 0,2.391 -0.069,5.183 -0.206,8.596 -0.243,5.876 -4.311,5.73 -6.274,5.657 h -0.119 c -1.715,-0.182 -4.283,-0.821 -4.302,-0.821 l -0.631,-0.073 c -1.288,0 -2.338,1.058 -2.338,2.336 0,1.095 0.728,2.026 1.776,2.281 0,0.018 2.48,0.876 4.781,0.912 h 0.46 c 2.935,0.055 6.252,0.091 8.592,-2.172 1.976,-1.916 2.96,-5.183 3.022,-9.983 0.104,-1.989 0.15,-5.146 0.15,-6.953 0,-0.566 0,-1.004 -0.013,-1.223 -0.1,-1.843 -1.496,-3.212 -3.228,-3.212 0,0 -14.828,-0.018 -16.301,-0.018 v -3.796 c 0.285,0 20.892,0.073 20.892,0.073 1.285,0 2.34,-1.058 2.34,-2.336 0,-1.296 -1.055,-2.354 -2.34,-2.354 h -13.923 v -3.194 c 0,-1.241 -1.148,-2.281 -2.482,-2.281 -1.314,0 -2.416,1.077 -2.416,2.336" />
    <path
       id="path1563"
       d="m 437.602,186.254 c -1.296,0 -2.341,1.04 -2.341,2.336 0,1.296 1.046,2.354 2.341,2.354 h 11.609 v 5.949 h -13.822 c -1.287,0 -2.341,1.058 -2.341,2.336 0,1.296 1.055,2.336 2.341,2.336 h 32.277 c 1.283,0 2.338,-1.04 2.338,-2.336 0,-1.277 -1.055,-2.336 -2.338,-2.336 h -13.642 v -5.949 h 11.616 c 1.292,0 2.345,-1.058 2.345,-2.354 0,-1.296 -1.053,-2.336 -2.345,-2.336 h -28.037 z" />
    <path
       id="path1565"
       d="m 449.189,166.782 v 1.588 h -12.041 c -1.788,0.018 -3.243,1.46 -3.243,3.248 l 0.005,0.073 v 4.708 c 0,1.277 1.048,2.336 2.338,2.336 1.298,0 2.338,-1.058 2.338,-2.336 v -3.358 h 5.457 c 0.02,0.146 0.047,0.401 0.047,0.748 0,0.493 -0.047,1.131 -0.239,1.807 -0.677,2.372 -3.081,4.015 -7.156,4.891 l -0.157,0.036 c -1.192,0.128 -2.066,1.077 -2.066,2.263 0,1.259 1.128,2.336 2.467,2.336 l 0.257,-0.018 c 9.078,-0.839 11.49,-5.566 11.934,-9.399 0.113,-1.058 0.131,-2.226 0.131,-2.664 v -0.036 l 4.583,0.036 v 8.504 c 0.013,1.752 1.394,3.175 3.155,3.212 h 6.811 c 3.533,0 5.026,-2.464 5.041,-2.482 0.268,-0.383 0.407,-1.004 0.433,-1.442 0.069,-1.131 -0.429,-1.423 -0.956,-1.77 l -0.12,-0.073 c -0.836,-0.529 -1.747,-0.365 -2.734,0.493 -1.163,0.985 -2.146,0.839 -2.159,0.839 l -3.988,-0.018 c 0,0 -0.369,0 -0.602,-0.219 -0.144,-0.146 -0.219,-0.347 -0.219,-0.602 l 0.015,-6.442 h 6.298 l -0.506,1.88 c -0.042,0.182 -0.075,0.365 -0.075,0.547 0,0.42 0.115,0.803 0.338,1.168 0.323,0.529 0.843,0.894 1.46,1.04 1.263,0.31 2.736,-0.584 3.029,-1.825 0.042,-0.109 0.942,-2.591 0.911,-4.033 -0.035,-2.281 -1.139,-3.413 -3.382,-3.467 -0.086,0 -11.271,0.018 -12.658,0.018 V 166.8 c 0,-1.277 -1.104,-2.354 -2.411,-2.354 -1.294,0 -2.332,1.058 -2.332,2.354" />
    <path
       id="path1567"
       d="m 278.722,171.198 c -0.325,0.383 -0.451,0.876 -0.398,1.496 l 0.007,0.055 0.062,0.639 c -0.323,0 -10.771,0.036 -10.771,0.036 -0.965,0 -2.051,0.766 -2.051,1.861 0,1.004 0.891,1.861 1.951,1.861 l 11.372,0.018 c 0.681,4.289 1.586,7.866 2.754,10.986 -1.465,2.281 -2.836,4.106 -3.411,4.836 -0.263,0.274 -0.484,1.131 -0.484,1.788 0,0.274 0.027,0.493 0.117,0.639 0.305,0.529 0.774,0.858 1.332,0.931 0.617,0.091 1.256,-0.164 1.79,-0.712 0.516,-0.511 0.819,-0.985 1.274,-1.734 l 1.19,-1.807 c 1.097,2.135 2.06,3.54 2.073,3.559 0.352,0.566 0.991,0.931 1.655,0.931 0.739,0 1.416,-0.42 1.737,-1.095 l 0.088,-0.182 c 0.327,-0.602 1.181,-2.245 1.757,-5.639 0.057,-0.748 -0.108,-1.332 -0.476,-1.752 -0.292,-0.347 -0.706,-0.547 -1.192,-0.566 -0.743,-0.036 -1.58,0.401 -1.774,1.296 0,0 -0.314,1.405 -0.482,2.135 l -0.969,-2.19 c 1.783,-2.975 3.008,-5.712 3.75,-8.395 l 0.062,-0.712 c -0.035,-0.511 -0.261,-0.967 -0.637,-1.296 -0.381,-0.347 -0.861,-0.511 -1.36,-0.474 -0.785,0.036 -1.465,0.584 -1.694,1.35 -0.007,0.018 -0.975,2.993 -1.852,4.8 -0.535,-1.788 -1.011,-3.924 -1.484,-6.698 h 6.267 c 1.026,0 1.856,-0.839 1.856,-1.88 0,-1.058 -0.83,-1.898 -1.856,-1.898 h -0.993 l 0.015,-0.201 c 0,-0.474 -0.157,-0.931 -0.467,-1.296 l -0.228,-0.274 c -0.343,-0.401 -0.829,-0.657 -1.358,-0.693 -0.538,-0.055 -1.055,0.109 -1.469,0.456 -0.248,0.219 -0.38,0.511 -0.387,0.839 v 0.036 c 0,0.347 0.203,0.748 0.476,1.095 l -2.299,0.018 -0.13,-0.821 c -0.146,-1.259 -0.785,-1.916 -1.913,-1.916 -0.606,0 -1.121,0.219 -1.458,0.566" />
    <path
       id="path1569"
       d="m 291.32,196.529 c -0.007,0.383 -0.197,0.566 -0.584,0.566 l -10.359,-0.018 -14.782,-0.018 c -0.343,0 -0.511,-0.182 -0.511,-0.566 l 0.013,-25.532 c 0,-0.182 0.042,-0.31 0.131,-0.401 0.089,-0.091 0.226,-0.128 0.416,-0.128 h 25.167 c 0.21,0 0.352,0.055 0.456,0.146 0.077,0.091 0.12,0.219 0.12,0.383 l -0.068,25.568 z m 1.29,-30.55 h -28.723 c -1.778,0.018 -3.221,1.478 -3.221,3.267 v 28.999 c 0.013,1.788 1.453,3.248 3.221,3.285 h 28.718 c 1.798,0 3.258,-1.478 3.258,-3.267 0.013,0 0.013,-29.036 0.013,-29.036 0,-1.788 -1.464,-3.248 -3.261,-3.248 h -0.004 z" />
    <path
       id="path1571"
       d="m 269.754,185.47 h 5.447 v -3.646 h -5.447 z m 8.766,-6.099 c -0.269,-0.666 -0.893,-1.097 -1.6,-1.097 h -8.888 c -0.526,0 -1.02,0.242 -1.351,0.653 -0.255,0.326 -0.395,0.72 -0.395,1.14 v 7.171 l 0.038,0.358 c 0.16,0.829 0.873,1.424 1.703,1.424 h 8.893 l 0.512,-0.078 c 0.731,-0.22 1.237,-0.921 1.237,-1.699 v -7.176 c 0,-0.236 -0.053,-0.478 -0.149,-0.696 z" />
    <path
       id="path1573"
       d="m 275.531,189.776 c -0.045,0.013 -4.538,1.454 -7.613,1.417 -1.453,-0.016 -2.179,0.988 -2.237,1.916 -0.029,0.413 0.147,0.853 0.493,1.217 0.455,0.48 1.119,0.795 1.691,0.802 5.283,0.034 9.268,-1.735 9.301,-1.761 h 0.011 c 0.996,-0.46 1.822,-1.57 1.366,-2.714 -0.682,-1.712 -2.992,-0.884 -3.012,-0.877" />
    <path
       id="path1575"
       d="m 247.733,186.869 c 0,0.111 -0.018,0.343 -0.149,0.491 -0.095,0.093 -0.222,0.143 -0.386,0.143 h -10.352 v -13.067 h 10.272 c 0.211,0 0.369,0.051 0.466,0.162 0.105,0.113 0.118,0.273 0.118,0.335 v 0.042 l 0.031,11.839 z m -15.583,0.644 -10.41,-0.009 c -0.043,0 -0.471,-0.022 -0.498,-0.584 v -11.951 c 0,-0.058 0.006,-0.251 0.133,-0.387 0.091,-0.097 0.231,-0.144 0.398,-0.144 0,0 10.083,0.024 10.377,0.024 v 13.052 z m 17.203,-17.765 h -12.484 v -3.382 c 0,-1.303 -1.06,-2.363 -2.362,-2.363 -1.304,0 -2.357,1.06 -2.357,2.363 v 3.382 h -12.413 c -1.788,0 -3.239,1.484 -3.239,3.269 l 0.004,15.91 c 0,1.781 1.448,3.247 3.235,3.262 0,0 11.012,0.022 12.413,0.022 v 7.62 c 0,1.305 1.053,2.363 2.357,2.363 1.302,0 2.363,-1.059 2.363,-2.363 v -7.605 c 0.282,0 12.473,0.025 12.473,0.025 1.808,0 3.27,-1.466 3.27,-3.262 v -15.986 c 0,-1.797 -1.462,-3.254 -3.259,-3.254 z" />
    <path
       id="path1577"
       d="m 324.311,185.684 0.007,-2.303 h 9.328 c 0,0.24 -0.025,2.054 -0.029,2.303 z m 0.007,-8.244 h 9.328 c 0,0.24 -0.025,2.059 -0.029,2.299 h -9.306 z m -4.814,2.31 h -9.433 l 0.005,-2.309 h 9.428 z m 0,5.955 h -9.433 l 0.005,-2.304 h 9.428 z m 19.824,10.784 h -0.003 c -0.064,-0.024 -6.346,-2.652 -12.388,-6.875 h 7.766 c 1.784,0 3.228,-1.45 3.228,-3.22 l -0.013,-0.218 v -0.251 c 0,-1.484 -0.027,-8.964 -0.027,-8.964 0,-1.735 -1.357,-3.143 -3.094,-3.212 0,0 -9.372,-0.005 -10.627,-0.005 v -2.192 c 0.282,0 13.892,-0.029 13.892,-0.029 1.306,0 2.333,-0.986 2.333,-2.248 0,-1.266 -1.068,-2.296 -2.366,-2.296 H 324.17 v -0.444 c 0,-1.282 -1.053,-2.323 -2.337,-2.323 -1.286,0 -2.33,1.041 -2.33,2.323 v 0.444 H 305.65 c -1.275,0 -2.337,1.03 -2.337,2.296 0,1.257 1.062,2.277 2.337,2.277 h 13.853 v 2.192 h -10.659 c -2.044,0.074 -3.219,1.25 -3.219,3.243 l -0.014,9.357 0.02,0.057 c 0,1.776 1.448,3.224 3.223,3.224 0,0 6.904,-0.009 7.706,-0.009 -4.405,3.274 -12.444,6.678 -12.531,6.714 -0.796,0.408 -1.286,1.212 -1.286,2.096 0,1.292 1.042,2.334 2.341,2.334 l 0.598,-0.085 c 0.104,0 8.642,-2.572 13.795,-8.179 0.007,0.664 0,7.764 0,7.764 0,1.293 1.071,2.334 2.357,2.334 1.284,0 2.313,-1.041 2.313,-2.334 0,0 0.007,-6.327 0,-7.951 3.763,4.22 12.933,8.366 13.035,8.413 0.349,0.213 1.326,0.349 1.744,0.349 1.222,0 2.179,-1.059 2.179,-2.408 0,-0.975 -0.918,-1.765 -1.777,-2.172 z" />
    <path
       id="path1579"
       d="m 413.057,176 h -0.297 l -0.113,0.022 -0.104,0.007 c -1.63,0 -2.93,1.374 -3.015,3.203 v 11.186 c -0.204,4.666 -2.162,7.4 -2.562,7.908 l -0.084,0.104 -0.06,0.087 c -0.036,0.063 -0.402,0.764 -0.402,1.304 0,1.25 1.022,2.275 2.272,2.275 0.724,0 1.388,-0.333 1.82,-0.908 0.007,-0.007 3.918,-4.075 3.918,-10.472 v -0.062 c 0.007,-1.006 -0.053,-9.914 -0.053,-9.914 h 3.968 c 0,1.026 0.005,7.524 0.005,12.239 0,2.561 0,4.589 -0.005,4.912 0.024,1.89 1.198,3.8 3.405,3.793 l 2.79,-0.004 c 0.078,0.011 2.393,0.206 3.63,-3.995 l 0.085,-0.347 0.143,-0.868 0.004,-0.142 c 0.036,-0.471 0.102,-1.461 -1.548,-1.965 -1,-0.307 -1.822,0.133 -2.212,1.177 l -0.232,0.662 c -0.195,0.648 -0.286,0.877 -0.633,0.904 l -0.871,0.007 v -17.906 c 0,-0.031 -0.084,-3.023 -3.138,-3.209 h -6.713" />
    <path
       id="path1581"
       d="m 413.494,166.574 v 2.738 h -4.258 c -1.359,0 -2.464,1.028 -2.464,2.279 0,1.261 1.106,2.29 2.464,2.29 h 14.479 c 1.346,0 2.45,-1.03 2.45,-2.29 0,-1.251 -1.104,-2.279 -2.45,-2.279 h -5.642 c -0.007,-0.255 0,-2.748 0,-2.748 0,-1.257 -1.025,-2.292 -2.291,-2.292 -1.267,0 -2.288,1.035 -2.288,2.303" />
    <path
       id="path1583"
       d="m 401.474,181.866 -2.112,0.008 c 0.311,-0.364 0.515,-0.806 0.515,-1.314 0,-0.124 -0.002,-0.243 -0.024,-0.358 l -0.502,-3.2 c -0.074,-0.56 -0.366,-1.029 -0.787,-1.328 -0.402,-0.284 -0.909,-0.384 -1.408,-0.287 -0.946,0.184 -1.598,1.037 -1.598,2.025 l 0.022,0.337 0.498,3.203 c 0.057,0.368 0.185,0.66 0.358,0.923 l -1.999,0.001 v -7.975 l 7.036,-0.016 v 7.982 z m 4.878,-0.024 h -0.226 v -10.328 c 0,-1.295 -1.024,-2.345 -2.277,-2.345 l -3.77,0.013 0.404,-1.597 0.131,-0.353 c 0.045,-0.187 0.072,-0.373 0.072,-0.555 0,-0.411 -0.113,-0.811 -0.326,-1.162 -0.311,-0.522 -0.809,-0.897 -1.396,-1.046 -0.593,-0.145 -1.204,-0.055 -1.724,0.26 -0.52,0.311 -0.884,0.804 -1.029,1.401 0,0 -0.72,2.869 -0.777,3.072 l -3.172,0.018 -0.095,-0.018 c -1.26,0 -2.282,1.06 -2.282,2.348 v 10.331 c -1.297,0.011 -2.346,1.017 -2.346,2.254 0,1.232 1.04,2.236 2.335,2.241 l -0.018,1.31 -0.014,0.231 0.002,0.078 c -0.036,1.793 -0.147,3.449 -0.322,4.962 l -0.023,0.224 c -0.526,4.424 -1.392,6.168 -1.397,6.185 -0.091,0.316 -0.153,0.631 -0.153,0.946 0,1.239 1.021,2.256 2.27,2.256 0.877,0 1.691,-0.518 2.06,-1.315 0.1,-0.185 1.119,-2.081 1.724,-7.529 l 0.031,-0.329 c 0.168,-1.662 0.293,-3.504 0.358,-5.466 0,-0.011 0.031,-1.15 0.031,-1.547 l 1.664,-0.005 v 5.626 c 0,1.226 0.766,2.114 1.826,2.114 1.069,0 1.879,-0.908 1.879,-2.114 v -5.648 l 1.784,-0.009 v 10.889 c 0,0.193 -0.058,0.336 -0.185,0.445 -0.478,0.397 -1.709,0.18 -2.173,0.099 l -0.251,-0.037 c -1.231,0.051 -2.07,0.937 -2.07,2.188 0,0.995 0.375,1.315 0.782,1.648 l 0.106,0.087 c 0.554,0.475 1.469,0.515 1.59,0.508 2.946,0.114 4.554,-0.238 5.53,-1.186 0.846,-0.827 1.222,-2.154 1.222,-4.271 v -10.37 h 0.226 c 1.244,0 2.159,-0.944 2.159,-2.252 0,-1.304 -0.915,-2.25 -2.159,-2.25 z" />
  </g>
  <g
     transform="translate(-90.004,-159.094)"
     id="g1611"
     fill="#1b1d80">
    <path
       id="path1587"
       d="m 286.999,213.164 c -0.389,0.471 -0.582,1.19 -0.582,2.159 v 12.395 c -0.504,-0.853 -7.213,-12.16 -7.213,-12.16 -1.221,-2.065 -2.479,-3.112 -3.736,-3.112 -1.087,0 -1.866,0.267 -2.297,0.786 -0.429,0.52 -0.633,1.453 -0.633,2.854 v 16.692 c 0,0.984 0.182,1.723 0.566,2.177 0.386,0.469 1.004,0.708 1.832,0.708 0.815,0 1.428,-0.242 1.828,-0.72 0.404,-0.468 0.595,-1.199 0.595,-2.165 v -12.359 c 0.509,0.846 7.531,12.667 7.531,12.667 0.671,1.135 1.24,1.835 1.733,2.128 0.48,0.297 1.153,0.449 1.986,0.449 0.964,0 1.655,-0.278 2.051,-0.811 0.393,-0.533 0.584,-1.445 0.584,-2.782 v -16.747 c 0,-0.977 -0.191,-1.71 -0.584,-2.174 -0.387,-0.469 -1.004,-0.704 -1.818,-0.704 -0.831,0 -1.444,0.234 -1.843,0.718" />
    <path
       id="path1589"
       d="m 263.748,213.093 c -0.407,0.431 -0.613,1.084 -0.613,1.948 v 18.031 c 0,0.842 0.22,1.486 0.622,1.93 0.409,0.439 1.026,0.66 1.82,0.66 0.815,0 1.437,-0.222 1.846,-0.66 0.398,-0.424 0.606,-1.073 0.606,-1.93 v -18.031 c 0,-0.85 -0.211,-1.508 -0.613,-1.939 -0.413,-0.437 -1.031,-0.655 -1.839,-0.655 -0.808,0 -1.417,0.218 -1.83,0.646" />
    <path
       id="path1591"
       d="m 254.356,213.093 c -0.398,0.431 -0.61,1.084 -0.61,1.948 v 6.041 h -8.934 v -6.041 c 0,-0.85 -0.201,-1.508 -0.612,-1.939 -0.41,-0.437 -1.03,-0.655 -1.83,-0.655 -0.815,0 -1.43,0.218 -1.837,0.646 -0.407,0.431 -0.602,1.084 -0.602,1.948 v 18.031 c 0,0.842 0.195,1.486 0.602,1.93 0.408,0.433 1.023,0.66 1.837,0.66 0.807,0 1.442,-0.222 1.838,-0.66 0.408,-0.424 0.604,-1.073 0.604,-1.93 v -7.589 h 8.934 v 7.589 c 0,0.848 0.211,1.495 0.622,1.93 0.409,0.439 1.026,0.66 1.833,0.66 0.814,0 1.444,-0.222 1.855,-0.657 0.402,-0.427 0.611,-1.077 0.611,-1.933 v -18.031 c 0,-0.85 -0.213,-1.508 -0.627,-1.939 -0.414,-0.437 -1.029,-0.655 -1.838,-0.655 -0.813,0 -1.439,0.218 -1.846,0.646" />
    <path
       id="path1593"
       d="m 219.369,215.39 c -1.904,2.159 -2.87,5.195 -2.87,9.037 0,3.571 0.957,6.418 2.832,8.484 1.882,2.054 4.508,3.1 7.78,3.1 1.553,0 2.941,-0.216 4.118,-0.627 1.182,-0.422 2.312,-1.103 3.35,-2.016 0.639,-0.581 1.153,-1.222 1.542,-1.901 0.386,-0.706 0.591,-1.361 0.591,-1.941 0,-0.622 -0.233,-1.15 -0.693,-1.579 -0.464,-0.437 -1.017,-0.655 -1.674,-0.655 -0.435,0 -0.835,0.111 -1.186,0.31 -0.333,0.191 -0.709,0.551 -1.104,1.06 l -0.356,0.617 -0.498,0.777 c -0.408,0.479 -0.944,0.853 -1.597,1.121 -0.656,0.253 -1.406,0.384 -2.235,0.384 -1.879,0 -3.346,-0.651 -4.356,-1.943 -1.02,-1.288 -1.537,-3.166 -1.537,-5.557 0,-2.345 0.515,-4.199 1.528,-5.528 1.009,-1.31 2.414,-1.977 4.167,-1.977 0.837,0 1.588,0.14 2.233,0.413 0.64,0.266 1.204,0.679 1.675,1.228 l 0.438,0.631 c 0.216,0.353 0.4,0.6 0.586,0.771 0.341,0.322 0.702,0.573 1.049,0.729 0.358,0.151 0.735,0.244 1.133,0.244 0.708,0 1.269,-0.224 1.693,-0.651 0.424,-0.422 0.633,-1.001 0.633,-1.697 0,-0.637 -0.198,-1.303 -0.608,-1.989 -0.405,-0.675 -0.962,-1.28 -1.664,-1.803 -1.009,-0.786 -2.089,-1.368 -3.219,-1.733 -1.126,-0.377 -2.377,-0.56 -3.723,-0.56 -3.413,0 -6.112,1.097 -8.029,3.253" />
    <path
       id="path1595"
       d="m 300.907,226.731 c 0.113,-0.347 2.644,-8.133 2.894,-8.89 0.247,0.75 2.794,8.543 2.908,8.89 z m 12.94,6.196 -0.189,-0.622 -6.287,-17.409 c -0.386,-1.035 -0.797,-1.677 -1.268,-1.977 -0.473,-0.289 -1.193,-0.429 -2.206,-0.429 -1.079,0 -1.821,0.147 -2.288,0.456 -0.462,0.3 -0.866,0.968 -1.237,2.007 l -6.173,17.356 -0.182,0.619 -0.053,0.617 c 0,0.649 0.222,1.179 0.66,1.566 0.436,0.4 1.004,0.597 1.698,0.597 0.608,0 1.101,-0.149 1.503,-0.437 0.387,-0.295 0.671,-0.739 0.871,-1.326 l 0.993,-3.103 h 8.45 l 1.028,3.103 c 0.193,0.597 0.48,1.048 0.866,1.339 0.382,0.278 0.875,0.424 1.475,0.424 0.702,0 1.286,-0.197 1.715,-0.597 0.453,-0.402 0.68,-0.933 0.68,-1.566 0,0 0.013,-0.391 -0.057,-0.617 z" />
    <path
       id="path1597"
       d="m 465.867,213.164 c -0.387,0.471 -0.593,1.19 -0.593,2.159 v 12.395 c -0.5,-0.853 -7.204,-12.16 -7.204,-12.16 -1.222,-2.065 -2.477,-3.112 -3.736,-3.112 -1.095,0 -1.862,0.267 -2.294,0.786 -0.435,0.52 -0.644,1.453 -0.644,2.854 v 16.692 c 0,0.999 0.191,1.714 0.573,2.177 0.384,0.469 1,0.708 1.833,0.708 0.811,0 1.422,-0.242 1.826,-0.72 0.395,-0.475 0.597,-1.199 0.597,-2.165 v -12.359 c 0.502,0.84 7.522,12.667 7.522,12.667 0.673,1.135 1.25,1.835 1.744,2.125 0.477,0.3 1.153,0.453 1.985,0.453 0.96,0 1.649,-0.278 2.04,-0.811 0.398,-0.533 0.591,-1.445 0.591,-2.782 v -16.747 c 0,-0.977 -0.2,-1.71 -0.578,-2.174 -0.395,-0.469 -1.008,-0.704 -1.837,-0.704 -0.815,0 -1.433,0.234 -1.826,0.718" />
    <path
       id="path1599"
       d="m 411.662,212.743 c -1.084,0 -1.862,0.266 -2.293,0.792 -0.426,0.526 -0.639,1.461 -0.639,2.874 v 15.328 c 0,1.408 0.213,2.343 0.639,2.863 0.431,0.52 1.209,0.784 2.293,0.784 h 11.807 c 0.849,0 1.5,-0.185 1.948,-0.551 0.451,-0.378 0.691,-0.926 0.691,-1.643 0,-0.729 -0.231,-1.29 -0.668,-1.648 -0.451,-0.366 -1.109,-0.542 -1.972,-0.542 h -9.916 v -5.488 h 8.362 c 0.844,0 1.477,-0.171 1.922,-0.517 0.458,-0.351 0.689,-0.867 0.689,-1.526 0,-0.691 -0.224,-1.219 -0.666,-1.563 -0.44,-0.342 -1.086,-0.511 -1.946,-0.511 h -8.362 v -4.475 h 9.321 c 0.851,0 1.506,-0.177 1.949,-0.519 0.456,-0.351 0.689,-0.857 0.689,-1.535 0,-0.699 -0.233,-1.228 -0.689,-1.585 -0.442,-0.362 -1.098,-0.539 -1.949,-0.539 H 411.66 Z" />
    <path
       id="path1601"
       d="m 389.659,212.791 c -0.773,0 -1.373,0.185 -1.776,0.537 -0.408,0.368 -0.62,0.895 -0.62,1.601 0,0.695 0.205,1.226 0.605,1.581 0.387,0.344 0.997,0.515 1.791,0.515 h 4.505 v 16.048 c 0,0.842 0.213,1.49 0.619,1.93 0.412,0.442 1.029,0.66 1.844,0.66 0.802,0 1.417,-0.218 1.822,-0.66 0.398,-0.424 0.609,-1.073 0.609,-1.93 v -16.048 h 4.514 c 0.778,0 1.38,-0.176 1.773,-0.531 0.409,-0.353 0.61,-0.881 0.61,-1.564 0,-0.706 -0.2,-1.233 -0.61,-1.601 -0.393,-0.351 -0.995,-0.537 -1.773,-0.537 h -13.913 z" />
    <path
       id="path1603"
       d="m 328.954,212.743 c -1.093,0 -1.857,0.266 -2.301,0.792 -0.426,0.526 -0.644,1.461 -0.644,2.874 v 15.328 c 0,1.408 0.218,2.343 0.644,2.863 0.444,0.52 1.2,0.784 2.301,0.784 h 11.794 c 0.85,0 1.502,-0.185 1.95,-0.551 0.453,-0.378 0.68,-0.926 0.68,-1.643 0,-0.729 -0.218,-1.29 -0.677,-1.645 -0.433,-0.369 -1.096,-0.545 -1.953,-0.545 h -9.899 v -5.488 h 8.352 c 0.827,0 1.475,-0.171 1.913,-0.517 0.458,-0.351 0.691,-0.867 0.691,-1.522 0,-0.695 -0.227,-1.222 -0.673,-1.566 -0.431,-0.342 -1.08,-0.511 -1.932,-0.511 h -8.352 v -4.475 h 9.31 c 0.846,0 1.501,-0.177 1.941,-0.519 0.451,-0.351 0.682,-0.857 0.682,-1.535 0,-0.699 -0.231,-1.228 -0.682,-1.585 -0.44,-0.356 -1.095,-0.539 -1.941,-0.539 h -11.205 z" />
    <path
       id="path1605"
       d="m 370.482,213.968 c -1.517,1.207 -2.286,2.9 -2.286,5.057 0,1.901 0.527,3.378 1.566,4.376 1.033,0.999 3.028,1.832 5.938,2.498 l 0.315,0.078 c 3.661,0.839 5.521,1.899 5.521,3.153 0,0.901 -0.341,1.57 -1.031,2.034 -0.704,0.468 -1.753,0.704 -3.15,0.704 -0.877,0 -1.642,-0.131 -2.283,-0.387 -0.618,-0.258 -1.153,-0.648 -1.584,-1.169 l -0.622,-0.895 c -0.722,-1.092 -1.515,-1.65 -2.37,-1.65 -0.658,0 -1.202,0.231 -1.615,0.677 -0.4,0.445 -0.606,1.031 -0.606,1.724 0,0.666 0.205,1.35 0.618,2.048 0.4,0.689 0.964,1.286 1.637,1.777 0.996,0.71 2.048,1.221 3.111,1.537 1.057,0.324 2.334,0.48 3.785,0.48 2.732,0 4.92,-0.671 6.506,-1.977 1.593,-1.308 2.394,-3.12 2.394,-5.377 0,-1.228 -0.222,-2.296 -0.682,-3.141 -0.457,-0.866 -1.168,-1.579 -2.123,-2.119 -0.533,-0.287 -1.18,-0.568 -1.926,-0.815 -0.74,-0.249 -1.924,-0.575 -3.523,-0.973 l -1.43,-0.342 c -2.464,-0.58 -3.706,-1.426 -3.706,-2.516 0,-0.82 0.302,-1.435 0.923,-1.895 0.624,-0.446 1.537,-0.673 2.692,-0.673 0.802,0 1.506,0.111 2.093,0.335 0.573,0.222 1.057,0.562 1.435,0.999 l 0.437,0.569 c 0.769,1.009 1.591,1.522 2.433,1.522 0.651,0 1.188,-0.202 1.597,-0.597 0.397,-0.397 0.595,-0.926 0.595,-1.577 0,-0.584 -0.207,-1.211 -0.609,-1.874 -0.408,-0.646 -0.937,-1.211 -1.59,-1.662 -0.817,-0.581 -1.744,-1.019 -2.761,-1.305 -1.009,-0.282 -2.144,-0.422 -3.377,-0.422 -2.69,0 -4.818,0.606 -6.324,1.799" />
    <path
       id="path1607"
       d="m 441.854,221.838 c -0.516,0.449 -1.364,0.678 -2.497,0.678 h -5.251 v -5.628 h 5.467 c 1.009,0 1.779,0.245 2.295,0.715 0.506,0.468 0.76,1.175 0.76,2.103 0,0.979 -0.255,1.688 -0.775,2.132 z m 5.238,9.404 c -0.049,-0.243 -0.087,-0.695 -0.109,-1.351 l -0.089,-1.628 c -0.093,-1.038 -0.369,-1.87 -0.813,-2.498 -0.393,-0.553 -0.971,-0.94 -1.675,-1.241 0.951,-0.366 1.699,-0.962 2.235,-1.803 0.582,-0.924 0.877,-2.101 0.877,-3.489 0,-2.181 -0.61,-3.833 -1.81,-4.889 -1.191,-1.063 -3.044,-1.601 -5.511,-1.601 h -8.044 c -1.087,0 -1.857,0.266 -2.288,0.792 -0.435,0.526 -0.645,1.461 -0.645,2.874 v 16.665 c 0,0.842 0.202,1.484 0.602,1.928 0.414,0.442 1.031,0.662 1.839,0.662 0.811,0 1.429,-0.22 1.84,-0.662 0.398,-0.424 0.606,-1.075 0.606,-1.928 v -6.379 h 4.727 c 1.127,0 1.924,0.2 2.346,0.591 0.437,0.391 0.715,1.472 0.829,3.212 0.155,2.325 0.439,3.727 0.873,4.306 0.431,0.584 1.164,0.891 2.17,0.891 0.727,0 1.319,-0.205 1.768,-0.6 0.438,-0.404 0.671,-0.951 0.671,-1.635 0,-0.206 -0.064,-0.559 -0.174,-1.079 l -0.224,-1.137 z" />
    <path
       id="path1609"
       d="m 352.928,226.731 2.895,-8.89 c 0.253,0.75 2.794,8.543 2.908,8.89 z m 12.942,6.196 -0.185,-0.622 -6.291,-17.409 c -0.382,-1.035 -0.8,-1.677 -1.268,-1.977 -0.471,-0.289 -1.193,-0.429 -2.208,-0.429 -1.077,0 -1.818,0.147 -2.288,0.456 -0.46,0.3 -0.866,0.968 -1.233,2.007 l -6.176,17.356 -0.182,0.619 -0.053,0.617 c 0,0.649 0.227,1.179 0.66,1.566 0.442,0.4 1.006,0.597 1.701,0.597 0.606,0 1.102,-0.149 1.498,-0.437 0.389,-0.295 0.677,-0.739 0.879,-1.326 l 0.988,-3.103 h 8.452 c 0.065,0.191 1.025,3.103 1.025,3.103 0.195,0.597 0.486,1.048 0.867,1.339 0.38,0.278 0.873,0.424 1.477,0.424 0.7,0 1.284,-0.197 1.715,-0.597 0.449,-0.402 0.68,-0.933 0.68,-1.566 0,0 0.007,-0.391 -0.058,-0.617 z" />
  </g>
</svg>
