<?xml version="1.0" encoding="UTF-8" standalone="no"?>
<svg
   xmlns:dc="http://purl.org/dc/elements/1.1/"
   xmlns:cc="http://creativecommons.org/ns#"
   xmlns:rdf="http://www.w3.org/1999/02/22-rdf-syntax-ns#"
   xmlns:svg="http://www.w3.org/2000/svg"
   xmlns="http://www.w3.org/2000/svg"
   xmlns:sodipodi="http://sodipodi.sourceforge.net/DTD/sodipodi-0.dtd"
   xmlns:inkscape="http://www.inkscape.org/namespaces/inkscape"
   inkscape:version="1.0 (4035a4fb49, 2020-05-01)"
   sodipodi:docname="NH.svg"
   viewBox="0 0 300 77.992082"
   height="77.992081"
   width="300"
   id="svg5690"
   version="1.1">
  <sodipodi:namedview
     inkscape:current-layer="svg5690"
     inkscape:window-maximized="1"
     inkscape:window-y="-8"
     inkscape:window-x="-8"
     inkscape:cy="38.99604"
     inkscape:cx="150"
     inkscape:zoom="3.5833333"
     showgrid="false"
     id="namedview19"
     inkscape:window-height="1027"
     inkscape:window-width="1920"
     inkscape:pageshadow="2"
     inkscape:pageopacity="0"
     guidetolerance="10"
     gridtolerance="10"
     objecttolerance="10"
     borderopacity="1"
     bordercolor="#666666"
     pagecolor="#ffffff" />
  <metadata
     id="metadata5707">
    <rdf:RDF>
      <cc:Work
         rdf:about="">
        <dc:format>image/svg+xml</dc:format>
        <dc:type
           rdf:resource="http://purl.org/dc/dcmitype/StillImage" />
        <dc:title></dc:title>
      </cc:Work>
    </rdf:RDF>
  </metadata>
  <defs
     id="defs5692">
    <clipPath
       id="a">
      <path
         d="m 714.047,23.099 99.853,0 0,34.16 -99.853,0 0,-34.16 z"
         id="path5695" />
    </clipPath>
  </defs>
  <path
     d="m 286.79486,1 -43.89162,75.990752 12.22166,0 L 299,1 286.79486,1 Z"
     id="path5697"
     style="fill:#00b3f0" />
  <path
     d="m 242.90391,76.992078 43.89161,-75.9907517 -48.82715,0 -43.88169,75.9907517 48.81723,0 z"
     id="path5699"
     style="fill:#223f9a" />
  <g
     clip-path="url(#a)"
     transform="matrix(3.3013592,0,0,-3.3013592,-2373.0332,174.08088)"
     id="g5701">
    <path
       d="m 744.8711,44.7596 c 0.037,0.184 0.213,0.337 0.412,0.337 0.176,0 0.341,-0.132 0.4,-0.288 l 4.227,-15.397 6.925,0 3.528,20.009 -3.049,0 -2.714,-15.407 c -0.036,-0.194 -0.197,-0.346 -0.403,-0.346 -0.187,0 -0.347,0.135 -0.396,0.308 l -4.236,15.445 -6.922,0 -3.527,-20.009 3.045,0 2.71,15.348 m -11.8233,-8.564 -0.592,8.965 c -0.005,0.199 -0.138,0.388 -0.337,0.441 -0.22,0.055 -0.445,-0.06 -0.532,-0.256 l -9.029,-15.934 -3.45,0 11.342,20.01 6.666,0 1.334,-20.01 -4.948,0 -0.145,2.181 c -0.024,0.466 -0.373,0.836 -0.837,0.836 l -7.484,0 1.688,2.985 5.612,0 c 0.41,0 0.743,0.36 0.712,0.782 m 37.6249,-0.0425 -0.788,8.882 c -0.021,0.232 -0.211,0.409 -0.45,0.409 -0.16,0 -0.303,-0.083 -0.386,-0.209 l -8.128,-15.823 -3.372,0 10.269,20.009 6.666,0 1.774,-20.009 -4.986,0 -0.195,2.182 c -0.037,0.469 -0.377,0.833 -0.837,0.833 l -7.017,0 1.532,2.986 5.2,0 c 0.425,0 0.76,0.365 0.718,0.74"
       id="path5703"
       style="fill:#223f9a" />
  </g>
</svg>
