<?xml version="1.0" encoding="UTF-8" standalone="no"?>
<svg
   xmlns:dc="http://purl.org/dc/elements/1.1/"
   xmlns:cc="http://creativecommons.org/ns#"
   xmlns:rdf="http://www.w3.org/1999/02/22-rdf-syntax-ns#"
   xmlns:svg="http://www.w3.org/2000/svg"
   xmlns="http://www.w3.org/2000/svg"
   xmlns:sodipodi="http://sodipodi.sourceforge.net/DTD/sodipodi-0.dtd"
   xmlns:inkscape="http://www.inkscape.org/namespaces/inkscape"
   inkscape:version="1.0 (4035a4fb49, 2020-05-01)"
   sodipodi:docname="NK.svg"
   id="svg924"
   style="clip-rule:evenodd;fill-rule:evenodd;stroke-linejoin:round;stroke-miterlimit:1.41421"
   xml:space="preserve"
   version="1.1"
   viewBox="0 0 360.00092 99.316917"
   height="99.316917"
   width="360.00092"><metadata
   id="metadata930"><rdf:RDF><cc:Work
       rdf:about=""><dc:format>image/svg+xml</dc:format><dc:type
         rdf:resource="http://purl.org/dc/dcmitype/StillImage" /><dc:title></dc:title></cc:Work></rdf:RDF></metadata><defs
   id="defs928" /><sodipodi:namedview
   inkscape:current-layer="svg924"
   inkscape:window-maximized="1"
   inkscape:window-y="-8"
   inkscape:window-x="-8"
   inkscape:cy="49.65804"
   inkscape:cx="179.99992"
   inkscape:zoom="1.8732143"
   fit-margin-bottom="0"
   fit-margin-right="0"
   fit-margin-left="0"
   fit-margin-top="0"
   showgrid="false"
   id="namedview926"
   inkscape:window-height="1027"
   inkscape:window-width="1920"
   inkscape:pageshadow="2"
   inkscape:pageopacity="0"
   guidetolerance="10"
   gridtolerance="10"
   objecttolerance="10"
   borderopacity="1"
   bordercolor="#666666"
   pagecolor="#ffffff" />
    <g
   transform="matrix(1.03563,0,0,1.03563,-27.117577,-105.63426)"
   id="black">
        <path
   id="path921"
   style="fill-rule:nonzero"
   d="m 348.3,121.7 h 14.5 l -3.1,14.5 h -14.5 l -4.8,22.5 c -1.1,5.1 0,5.8 5.9,5.8 2.7,0 4.9,-0.1 7.8,-0.2 l -2.9,13.6 c -4.6,0.6 -10.4,1 -16.9,1 -14.3,0 -19.4,-3.5 -16.8,-15.6 l 5.8,-27.2 h -11.5 l 3,-14.4 h 11.5 l 3.8,-17.8 H 352 Z m -75.1,56 h 21.9 l 11.9,-56 h -21.9 z m 13.3,-62.4 h 21.9 l 2.8,-13.2 h -21.9 z m -59.4,6.4 -11.9,56 h 21.3 l 11.9,-56 z m 50.7,-2.4 c -1.4,-0.1 -2.8,-0.2 -4.1,-0.2 -9.8,0 -25.4,9.6 -29.5,26.8 l -1.1,3.9 h 0.4 c 3.1,-7.4 10.9,-11.4 21.4,-11.4 2.8,0 6.1,0.4 8.6,1 z m -81.7,2.4 -11.9,56 h 21.9 l 11.9,-56 z M 222.2,102 h -21.9 l -2.8,13.2 h 21.9 z m -39.3,48.6 c -3.4,16.2 -18.2,29.3 -38.8,29.3 -9.7,0 -16.5,-3.2 -19.3,-7.3 h -0.2 l -5.4,25.3 H 97.3 l 16.2,-76.3 h 21.3 l -1.6,7.4 h 0.2 c 5.9,-5.7 14.3,-8.9 23.2,-8.9 19.8,0.1 30.4,11.1 26.3,30.5 z m -34.8,-15.1 c -10.3,0 -16.8,5.6 -18.6,14.3 -1.9,8.7 2.3,14.2 12.6,14.2 10,0 16.6,-5 18.5,-14.2 1.9,-9.3 -2.5,-14.3 -12.5,-14.3 z M 80.5,143.3 62,141.2 c -5.4,-0.6 -6.6,-2.2 -6.2,-3.9 0.8,-3.8 4.8,-5.3 11.2,-5.3 2.8,0 5.6,0.3 7.6,1.3 2,0.8 3.2,2.4 2.9,4.7 h 24.6 c 2.2,-15.9 -16.1,-18.6 -31,-18.6 -21,0 -35,4.8 -38.2,20 -2,9.5 3.5,14.1 16,15.6 l 19.1,2.4 c 5.3,0.6 7.3,1.5 6.6,4.4 -0.9,4 -6.2,5 -11.1,5 -4.8,0 -7.6,-0.6 -9.3,-1.7 -1.7,-1.1 -2.2,-2.7 -2.1,-4.8 H 26.5 c -3.1,17 17.3,19.7 32.8,19.7 23.3,0 37.2,-6.2 40,-19.4 2.4,-11 -4.1,-15.7 -18.8,-17.3 z m 290,-16.7 1,1.8 h -1.2 l -0.7,-1.5 h -0.8 v 1.5 h -1.2 v -4.6 h 1.9 c 0.5,0 0.9,0.1 1.3,0.4 0.4,0.2 0.5,0.6 0.5,1.2 0,0.3 -0.1,0.5 -0.2,0.7 -0.1,0.2 -0.3,0.4 -0.6,0.5 z m -0.4,-1.2 c 0,-0.2 -0.1,-0.4 -0.2,-0.5 -0.1,-0.1 -0.4,-0.2 -0.6,-0.2 h -0.5 v 1.4 h 0.5 c 0.3,0 0.5,-0.1 0.6,-0.2 0.1,-0.1 0.2,-0.3 0.2,-0.5 z m 3.7,0.8 c 0,0.7 -0.1,1.3 -0.4,1.8 -0.2,0.5 -0.5,1 -0.9,1.5 -0.4,0.4 -0.9,0.7 -1.4,0.9 -0.5,0.2 -1.1,0.3 -1.7,0.3 -0.6,0 -1.2,-0.1 -1.7,-0.3 -0.5,-0.2 -1,-0.5 -1.4,-0.9 -0.4,-0.4 -0.7,-0.9 -0.9,-1.5 -0.2,-0.5 -0.4,-1.2 -0.4,-1.8 0,-0.7 0.1,-1.3 0.4,-1.9 0.2,-0.6 0.5,-1.1 0.9,-1.5 0.4,-0.4 0.9,-0.7 1.4,-0.9 0.5,-0.2 1.1,-0.3 1.7,-0.3 0.6,0 1.2,0.1 1.7,0.3 0.5,0.2 1,0.5 1.4,0.9 0.4,0.4 0.7,0.9 0.9,1.5 0.3,0.6 0.4,1.2 0.4,1.9 z m -1.1,0 c 0,-0.5 -0.1,-1 -0.3,-1.5 -0.2,-0.5 -0.4,-0.8 -0.7,-1.2 -0.3,-0.3 -0.6,-0.6 -1.1,-0.7 -0.4,-0.2 -0.9,-0.3 -1.3,-0.3 -0.5,0 -0.9,0.1 -1.4,0.3 -0.4,0.2 -0.8,0.4 -1.1,0.7 -0.3,0.3 -0.5,0.7 -0.7,1.2 -0.2,0.5 -0.3,0.9 -0.3,1.5 0,0.5 0.1,1 0.3,1.5 0.2,0.4 0.4,0.8 0.7,1.1 0.3,0.3 0.6,0.5 1.1,0.7 0.4,0.2 0.9,0.3 1.4,0.3 0.5,0 0.9,-0.1 1.3,-0.3 0.4,-0.2 0.8,-0.4 1.1,-0.7 0.3,-0.3 0.5,-0.7 0.7,-1.1 0.2,-0.5 0.3,-1 0.3,-1.5 z" />
    </g>
</svg>
