<?xml version="1.0" encoding="UTF-8" standalone="no"?>
<svg
   xmlns:dc="http://purl.org/dc/elements/1.1/"
   xmlns:cc="http://creativecommons.org/ns#"
   xmlns:rdf="http://www.w3.org/1999/02/22-rdf-syntax-ns#"
   xmlns:svg="http://www.w3.org/2000/svg"
   xmlns="http://www.w3.org/2000/svg"
   xmlns:sodipodi="http://sodipodi.sourceforge.net/DTD/sodipodi-0.dtd"
   xmlns:inkscape="http://www.inkscape.org/namespaces/inkscape"
   clip-rule="evenodd"
   fill-rule="evenodd"
   viewBox="0 0 430.03 68.461998"
   version="1.1"
   id="svg337"
   sodipodi:docname="NZ.svg"
   width="430.03"
   height="68.461998"
   inkscape:version="1.0 (4035a4fb49, 2020-05-01)">
  <metadata
     id="metadata343">
    <rdf:RDF>
      <cc:Work
         rdf:about="">
        <dc:format>image/svg+xml</dc:format>
        <dc:type
           rdf:resource="http://purl.org/dc/dcmitype/StillImage" />
        <dc:title></dc:title>
      </cc:Work>
    </rdf:RDF>
  </metadata>
  <defs
     id="defs341">
    <clipPath
       id="clipPath2116"
       clipPathUnits="userSpaceOnUse">
      <rect
         y="196.73282"
         x="49.324165"
         height="45.376549"
         width="375.82458"
         id="rect2118"
         style="fill:#0000ff;fill-rule:evenodd" />
    </clipPath>
    <clipPath
       id="clipPath2122"
       clipPathUnits="userSpaceOnUse">
      <rect
         y="157.76237"
         x="430.48718"
         height="86.482361"
         width="88.617729"
         id="rect2124"
         style="fill:#0000ff;fill-rule:evenodd" />
    </clipPath>
  </defs>
  <sodipodi:namedview
     inkscape:document-rotation="0"
     pagecolor="#ffffff"
     bordercolor="#666666"
     borderopacity="1"
     objecttolerance="10"
     gridtolerance="10"
     guidetolerance="10"
     inkscape:pageopacity="0"
     inkscape:pageshadow="2"
     inkscape:window-width="1920"
     inkscape:window-height="1027"
     id="namedview339"
     showgrid="false"
     fit-margin-top="0"
     fit-margin-left="0"
     fit-margin-right="0"
     fit-margin-bottom="0"
     inkscape:zoom="1.8732143"
     inkscape:cx="220.452"
     inkscape:cy="34.669"
     inkscape:window-x="-8"
     inkscape:window-y="-8"
     inkscape:window-maximized="1"
     inkscape:current-layer="svg337" />
  <g
     clip-path="url(#clipPath2122)"
     fill="#231f20"
     id="g335"
     transform="translate(-69.971,-165.77)">
    <path
       d="m 79.347,200.194 -19.346,27.889 h 3.493 l 4.789,-6.794 h 11.452 l 0.518,3.17 c 0.369,2.512 1.025,3.624 3.947,3.624 h 2.911 l -4.659,-27.889 h -3.106 z m 16.824,2.265 -5.758,25.624 h 6.212 l 5.758,-25.624 z m 11.129,0 1.23,2.201 -5.241,23.423 h 6.212 l 5.176,-23.294 h 1.94 c 3.576,0 5.067,2.081 4.789,5.176 -0.23,2.773 -2.278,5.81 -8.541,6.471 l 5.046,8.864 c 1.3,2.257 1.872,2.783 5.307,2.783 h 3.301 l -6.924,-10.871 c 3.71,-0.569 7.754,-2.899 8.218,-7.052 0.555,-4.764 -2.872,-7.701 -8.672,-7.701 h -11.842 z m 37.66,0 1.617,2.978 -5.046,22.646 h 3.234 l 4.272,-18.83 9.641,16.047 c 1.06,1.81 2.011,2.783 4.982,2.783 l 5.758,-25.624 h -3.234 l -4.013,17.73 -8.734,-15.012 c -1.259,-2.17 -1.903,-2.719 -4.595,-2.719 h -3.882 z m 30.218,0 -5.76,25.624 h 19.801 c -0.371,-1.764 -1.157,-2.458 -3.429,-2.458 h -9.512 l 2.135,-9.448 h 9.771 l 0.582,-2.588 h -9.835 l 1.942,-8.67 h 9.059 c 2.271,0 3.056,-0.698 3.429,-2.46 h -18.182 z m 20.447,0 3.947,25.624 h 2.975 l 8.866,-15.271 2.135,15.271 h 2.975 l 15.401,-25.624 h -3.301 l -10.676,17.923 -2.071,-16.824 c -0.091,-0.789 -0.762,-1.099 -1.553,-1.099 h -4.272 l 0.843,6.083 -6.729,11.84 -2.524,-16.824 c -0.095,-0.789 -0.764,-1.099 -1.553,-1.099 h -4.464 z m 49.5,0 c 0.371,1.764 1.151,2.46 3.429,2.46 h 11.519 l -18.248,18.376 c -1.576,1.596 -2.626,2.626 -2.717,4.787 h 23.681 c -0.371,-1.752 -1.128,-2.452 -3.365,-2.458 H 247.39 l 17.6,-18.118 c 2.222,-2.381 2.725,-3.597 2.911,-5.048 h -22.776 z m 27.564,0 -5.694,25.624 h 19.737 c -0.379,-1.764 -1.157,-2.458 -3.431,-2.458 h -9.51 l 2.135,-9.448 h 9.771 l 0.582,-2.588 h -9.835 l 1.94,-8.67 h 9.059 c 2.276,0 3.06,-0.696 3.431,-2.46 H 272.69 Z m 32.937,0 -17.341,25.624 h 3.493 l 4.595,-6.794 h 10.417 l 0.648,3.17 c 0.561,2.483 1.151,3.624 4.075,3.624 h 2.978 l -5.758,-25.624 h -3.106 z m 17.923,0 -5.758,25.624 h 17.211 c -0.371,-1.762 -1.222,-2.458 -3.493,-2.458 h -6.924 l 5.176,-23.166 z m 30.282,0 -17.277,25.624 h 3.429 l 4.595,-6.794 h 10.417 l 0.712,3.17 c 0.555,2.483 1.151,3.624 4.077,3.624 h 2.975 l -5.822,-25.624 z m 15.658,0 1.683,2.978 -5.112,22.646 h 3.301 l 4.205,-18.83 9.641,16.047 c 1.075,1.81 2.075,2.783 5.048,2.783 l 5.694,-25.624 h -3.236 l -3.947,17.73 -8.8,-15.012 c -1.251,-2.17 -1.903,-2.719 -4.595,-2.719 h -3.882 z m 29.442,0 1.166,2.201 -5.243,23.423 h 9.448 c 8.446,0 16.32,-4.69 17.664,-12.811 1.344,-8.03 -4.439,-12.813 -12.618,-12.813 z m 7.378,2.394 h 1.681 c 5.889,0 8.591,3.882 7.57,10.419 -1.027,6.618 -6.34,10.481 -12.229,10.481 h -1.748 l 4.725,-20.901 z m -328.642,3.106 1.681,10.678 h -9.187 z m 226.471,1.683 2.006,8.995 h -8.024 l 6.017,-8.995 z m 48.27,0 2.006,8.995 h -8.024 l 6.017,-8.995 z"
       id="path331" />
    <path
       d="m 473.602,165.771 c -7.761,0 -14.943,5.514 -19.025,9.512 -14.521,14.163 -22.195,23.748 -22.195,23.748 h 64.706 l 2.913,-6.471 h -52.218 c 0,0 3.94,-5.4 12.424,-13.395 2.129,-1.992 7.707,-6.988 13.395,-6.988 3.733,0 6.663,2.336 6.663,5.499 0,3.133 -2.652,4.013 -2.652,4.013 0.277,-1.338 -0.621,-4.982 -4.141,-4.982 -3.65,0 -5.176,2.785 -5.176,4.659 0,3.851 3.506,6.599 7.57,6.599 7.821,0 11.455,-5.56 11.455,-10.935 0,-5.425 -5.288,-11.26 -13.718,-11.26 z m -42.319,36.625 c 0,0 3.396,9.765 7.895,19.089 3.812,7.943 10.136,12.747 17.859,12.747 7.257,0 12.165,-5.52 12.165,-10.806 0,-5.982 -4.551,-9.899 -9.966,-9.899 -5.775,0 -6.988,4.34 -6.988,5.435 0,2.524 2.112,4.853 4.789,4.853 4.214,0 4.528,-3.365 4.528,-3.365 0,0 1.294,0.826 1.294,2.975 0,2.064 -1.75,4.723 -5.822,4.723 -3.253,0 -8.03,-1.712 -11.324,-8.67 -3.874,-8.146 -4.141,-10.548 -4.141,-10.548 h 51.052 l 2.911,-6.535 h -64.252 z"
       id="path333" />
  </g>
  <g
     clip-path="url(#clipPath2116)"
     transform="translate(-60.001,-179.825)"
     id="g2112"
     fill="#231f20">
    <path
       id="path2108"
       d="m 79.347,200.194 -19.346,27.889 h 3.493 l 4.789,-6.794 h 11.452 l 0.518,3.17 c 0.369,2.512 1.025,3.624 3.947,3.624 h 2.911 l -4.659,-27.889 h -3.106 z m 16.824,2.265 -5.758,25.624 h 6.212 l 5.758,-25.624 z m 11.129,0 1.23,2.201 -5.241,23.423 h 6.212 l 5.176,-23.294 h 1.94 c 3.576,0 5.067,2.081 4.789,5.176 -0.23,2.773 -2.278,5.81 -8.541,6.471 l 5.046,8.864 c 1.3,2.257 1.872,2.783 5.307,2.783 h 3.301 l -6.924,-10.871 c 3.71,-0.569 7.754,-2.899 8.218,-7.052 0.555,-4.764 -2.872,-7.701 -8.672,-7.701 h -11.842 z m 37.66,0 1.617,2.978 -5.046,22.646 h 3.234 l 4.272,-18.83 9.641,16.047 c 1.06,1.81 2.011,2.783 4.982,2.783 l 5.758,-25.624 h -3.234 l -4.013,17.73 -8.734,-15.012 c -1.259,-2.17 -1.903,-2.719 -4.595,-2.719 h -3.882 z m 30.218,0 -5.76,25.624 h 19.801 c -0.371,-1.764 -1.157,-2.458 -3.429,-2.458 h -9.512 l 2.135,-9.448 h 9.771 l 0.582,-2.588 h -9.835 l 1.942,-8.67 h 9.059 c 2.271,0 3.056,-0.698 3.429,-2.46 h -18.182 z m 20.447,0 3.947,25.624 h 2.975 l 8.866,-15.271 2.135,15.271 h 2.975 l 15.401,-25.624 h -3.301 l -10.676,17.923 -2.071,-16.824 c -0.091,-0.789 -0.762,-1.099 -1.553,-1.099 h -4.272 l 0.843,6.083 -6.729,11.84 -2.524,-16.824 c -0.095,-0.789 -0.764,-1.099 -1.553,-1.099 h -4.464 z m 49.5,0 c 0.371,1.764 1.151,2.46 3.429,2.46 h 11.519 l -18.248,18.376 c -1.576,1.596 -2.626,2.626 -2.717,4.787 h 23.681 c -0.371,-1.752 -1.128,-2.452 -3.365,-2.458 H 247.39 l 17.6,-18.118 c 2.222,-2.381 2.725,-3.597 2.911,-5.048 h -22.776 z m 27.564,0 -5.694,25.624 h 19.737 c -0.379,-1.764 -1.157,-2.458 -3.431,-2.458 h -9.51 l 2.135,-9.448 h 9.771 l 0.582,-2.588 h -9.835 l 1.94,-8.67 h 9.059 c 2.276,0 3.06,-0.696 3.431,-2.46 H 272.69 Z m 32.937,0 -17.341,25.624 h 3.493 l 4.595,-6.794 h 10.417 l 0.648,3.17 c 0.561,2.483 1.151,3.624 4.075,3.624 h 2.978 l -5.758,-25.624 h -3.106 z m 17.923,0 -5.758,25.624 h 17.211 c -0.371,-1.762 -1.222,-2.458 -3.493,-2.458 h -6.924 l 5.176,-23.166 z m 30.282,0 -17.277,25.624 h 3.429 l 4.595,-6.794 h 10.417 l 0.712,3.17 c 0.555,2.483 1.151,3.624 4.077,3.624 h 2.975 l -5.822,-25.624 z m 15.658,0 1.683,2.978 -5.112,22.646 h 3.301 l 4.205,-18.83 9.641,16.047 c 1.075,1.81 2.075,2.783 5.048,2.783 l 5.694,-25.624 h -3.236 l -3.947,17.73 -8.8,-15.012 c -1.251,-2.17 -1.903,-2.719 -4.595,-2.719 h -3.882 z m 29.442,0 1.166,2.201 -5.243,23.423 h 9.448 c 8.446,0 16.32,-4.69 17.664,-12.811 1.344,-8.03 -4.439,-12.813 -12.618,-12.813 z m 7.378,2.394 h 1.681 c 5.889,0 8.591,3.882 7.57,10.419 -1.027,6.618 -6.34,10.481 -12.229,10.481 h -1.748 l 4.725,-20.901 z m -328.642,3.106 1.681,10.678 h -9.187 z m 226.471,1.683 2.006,8.995 h -8.024 l 6.017,-8.995 z m 48.27,0 2.006,8.995 h -8.024 l 6.017,-8.995 z" />
    <path
       id="path2110"
       d="m 473.602,165.771 c -7.761,0 -14.943,5.514 -19.025,9.512 -14.521,14.163 -22.195,23.748 -22.195,23.748 h 64.706 l 2.913,-6.471 h -52.218 c 0,0 3.94,-5.4 12.424,-13.395 2.129,-1.992 7.707,-6.988 13.395,-6.988 3.733,0 6.663,2.336 6.663,5.499 0,3.133 -2.652,4.013 -2.652,4.013 0.277,-1.338 -0.621,-4.982 -4.141,-4.982 -3.65,0 -5.176,2.785 -5.176,4.659 0,3.851 3.506,6.599 7.57,6.599 7.821,0 11.455,-5.56 11.455,-10.935 0,-5.425 -5.288,-11.26 -13.718,-11.26 z m -42.319,36.625 c 0,0 3.396,9.765 7.895,19.089 3.812,7.943 10.136,12.747 17.859,12.747 7.257,0 12.165,-5.52 12.165,-10.806 0,-5.982 -4.551,-9.899 -9.966,-9.899 -5.775,0 -6.988,4.34 -6.988,5.435 0,2.524 2.112,4.853 4.789,4.853 4.214,0 4.528,-3.365 4.528,-3.365 0,0 1.294,0.826 1.294,2.975 0,2.064 -1.75,4.723 -5.822,4.723 -3.253,0 -8.03,-1.712 -11.324,-8.67 -3.874,-8.146 -4.141,-10.548 -4.141,-10.548 h 51.052 l 2.911,-6.535 h -64.252 z" />
  </g>
</svg>
