<?xml version="1.0" encoding="UTF-8" standalone="no"?>
<svg
   xmlns:dc="http://purl.org/dc/elements/1.1/"
   xmlns:cc="http://creativecommons.org/ns#"
   xmlns:rdf="http://www.w3.org/1999/02/22-rdf-syntax-ns#"
   xmlns:svg="http://www.w3.org/2000/svg"
   xmlns="http://www.w3.org/2000/svg"
   xmlns:sodipodi="http://sodipodi.sourceforge.net/DTD/sodipodi-0.dtd"
   xmlns:inkscape="http://www.inkscape.org/namespaces/inkscape"
   inkscape:version="1.0 (4035a4fb49, 2020-05-01)"
   height="78.974998"
   width="400.00101"
   sodipodi:docname="QF.svg"
   id="svg54"
   version="1.1"
   viewBox="0 0 400.00101 78.974998"
   fill-rule="evenodd"
   clip-rule="evenodd">
  <metadata
     id="metadata60">
    <rdf:RDF>
      <cc:Work
         rdf:about="">
        <dc:format>image/svg+xml</dc:format>
        <dc:type
           rdf:resource="http://purl.org/dc/dcmitype/StillImage" />
        <dc:title></dc:title>
      </cc:Work>
    </rdf:RDF>
  </metadata>
  <defs
     id="defs58" />
  <sodipodi:namedview
     inkscape:current-layer="svg54"
     inkscape:window-maximized="1"
     inkscape:window-y="-8"
     inkscape:window-x="-8"
     inkscape:cy="39.488"
     inkscape:cx="200.001"
     inkscape:zoom="1.8732143"
     fit-margin-bottom="0"
     fit-margin-right="0"
     fit-margin-left="0"
     fit-margin-top="0"
     showgrid="false"
     id="namedview56"
     inkscape:window-height="1027"
     inkscape:window-width="1920"
     inkscape:pageshadow="2"
     inkscape:pageopacity="0"
     guidetolerance="10"
     gridtolerance="10"
     objecttolerance="10"
     borderopacity="1"
     bordercolor="#666666"
     pagecolor="#ffffff" />
  <linearGradient
     x2="1"
     gradientUnits="userSpaceOnUse"
     gradientTransform="matrix(-16.795,-24.528,24.528,-16.795,208.765,-514.813)"
     id="a">
    <stop
       id="stop2"
       stop-opacity=".99"
       stop-color="#be0000"
       offset="0" />
    <stop
       id="stop4"
       stop-color="#f00"
       offset="1" />
  </linearGradient>
  <linearGradient
     x2="1"
     gradientUnits="userSpaceOnUse"
     gradientTransform="matrix(0.226,-2.586,2.586,0.226,204.089,-525.935)"
     id="b">
    <stop
       id="stop7"
       stop-color="#fff"
       offset="0" />
    <stop
       id="stop9"
       stop-color="#fff"
       offset=".65" />
    <stop
       id="stop11"
       stop-color="#a2a5a3"
       offset=".95" />
    <stop
       id="stop13"
       stop-color="#a2a5a3"
       offset="1" />
  </linearGradient>
  <linearGradient
     x2="1"
     gradientUnits="userSpaceOnUse"
     gradientTransform="matrix(10.885,0,0,10.885,200.765,-519.111)"
     id="c">
    <stop
       id="stop16"
       stop-color="#fff"
       offset="0" />
    <stop
       id="stop18"
       stop-color="#a2a5a3"
       offset=".9" />
    <stop
       id="stop20"
       stop-color="#a2a5a3"
       offset="1" />
  </linearGradient>
  <linearGradient
     x2="1"
     gradientUnits="userSpaceOnUse"
     gradientTransform="matrix(12.168,0,0,12.168,187.17,-530.4)"
     id="d">
    <stop
       id="stop23"
       stop-color="#fff"
       offset="0" />
    <stop
       id="stop25"
       stop-color="#fff"
       offset=".43" />
    <stop
       id="stop27"
       stop-color="#a2a5a3"
       offset="1" />
  </linearGradient>
  <path
     style="fill:url(#a)"
     id="path30"
     fill="url(#a)"
     d="M 0.003,0 H 0 l 1.014,2.656 4.5,11.797 24.586,64.522 h 81 L 46.195,13.79 C 37.549,5.138 25.813,0 13.585,0 H 0.005 Z" />
  <path
     id="path32"
     fill="#ffffff"
     d="m 5.51,14.453 c 8.868,15.145 32.14,16.745 34.67,40.294 0.106,0.966 0.847,1.741 1.812,1.896 13.41,2.095 26.472,7.616 37.822,16.712 l 0.006,0.006 c 0.077,0.061 0.151,0.09 0.254,0.09 0.1,0 0.2,-0.039 0.28,-0.109 0.161,-0.158 0.164,-0.412 0.013,-0.573 C 72.51,64.509 62.905,57.907 52.125,53.568 l -3.277,-1.32 c -1.69,-0.679 -2.862,-2.353 -2.81,-4.281 0.18,-7.033 16.822,-5.604 18.509,-8.984 L 64.837,38.4 C 61.412,35.471 57.34,33.269 52.86,32.04 c -0.042,0.167 -0.148,0.988 0.76,2.472 0.995,1.619 -1.082,4.185 -4.107,1.413 L 49.259,35.696 C 26.775,15.095 9.921,25.779 1.011,2.654 l 4.5,11.797 z" />
  <path
     style="fill:url(#b)"
     id="path34"
     fill="url(#b)"
     d="m 52.061,37.156 v 5.61 c 2.424,-0.698 5.186,-1.133 7.51,-1.619 v -3.129 c 0,0 -3.686,0.183 -5.945,-3.502 0.673,1.098 -0.074,2.633 -1.564,2.639" />
  <path
     style="fill:url(#c)"
     id="path36"
     fill="url(#c)"
     d="M 44.774,57.129 C 57.202,59.517 69.25,64.886 79.811,73.355 62.912,58.915 52.612,56.713 47.867,56.713 c -1.867,0 -2.878,0.341 -3.093,0.415" />
  <path
     style="fill:url(#d)"
     id="path38"
     fill="url(#d)"
     d="M 1.013,2.656 5.51,14.453 C 14.375,29.598 37.647,31.194 40.184,54.737 37.619,24.689 24.421,29.179 10.242,15.509 6.585,12.905 3.492,9.091 1.013,2.656 Z" />
  <g
     transform="translate(-79.999,-160.512)"
     id="g52"
     fill="#323232">
    <path
       id="path40"
       d="m 199.782,216.482 c 8.742,0 16.104,-4.326 16.104,-10.262 0,-5.936 -7.362,-10.259 -16.104,-10.259 -8.742,0 -16.101,4.323 -16.101,10.259 0,5.936 7.358,10.262 16.101,10.262 m -0.457,8.507 c -16.014,0 -26.182,-8.324 -26.182,-18.769 0,-10.625 10.767,-18.769 26.639,-18.769 15.872,0 26.639,8.189 26.639,18.354 0,4.555 -2.021,8.285 -5.891,11.411 h 9.431 l -2.253,3.869 c -1.426,2.437 -3.174,3.904 -6.946,3.904 h -21.438 z" />
    <path
       id="path42"
       d="m 248.361,211.052 h 16.654 l -7.729,-13.757 c -0.183,-0.322 -0.322,-0.415 -0.595,-0.415 -0.28,0 -0.415,0.093 -0.599,0.415 l -7.732,13.757 z m 20.936,7.593 h -25.21 l -3.589,6.348 h -10.445 l 17.482,-30.273 c 1.381,-2.395 3.361,-4.233 7.313,-4.233 h 3.911 c 3.959,0 5.936,1.838 7.316,4.233 l 17.482,30.273 h -10.671 z" />
    <path
       id="path44"
       d="m 333.336,190.487 v 34.506 h -9.341 l -27.418,-22.867 v 22.867 h -9.344 v -34.506 h 5.845 c 2.99,0 4.506,0.779 6.209,2.253 l 24.708,20.569 v -22.822 z" />
    <path
       id="path46"
       d="m 366.549,198.263 v 26.733 h -9.338 v -26.733 h -19.139 v -7.774 h 47.617 v 7.774 H 366.55 Z" />
    <path
       id="path48"
       d="m 395.853,211.052 h 16.654 l -7.729,-13.757 c -0.187,-0.322 -0.322,-0.415 -0.595,-0.415 -0.28,0 -0.415,0.093 -0.602,0.415 l -7.729,13.757 z m 20.936,7.593 h -25.213 l -3.589,6.348 h -10.445 l 17.485,-30.273 c 1.378,-2.395 3.357,-4.233 7.313,-4.233 h 3.911 c 3.959,0 5.936,1.838 7.316,4.233 l 17.482,30.273 h -10.671 z" />
    <path
       id="path50"
       d="m 434.267,222.508 -0.872,-0.277 2.343,-7.497 c 6.718,2.16 13.896,3.032 20.382,3.032 10.629,0 13.252,-1.242 13.252,-2.575 0,-0.55 -0.37,-0.966 -1.197,-1.242 -1.059,-0.367 -4.004,-0.966 -12.698,-2.388 -9.618,-1.568 -13.938,-2.35 -17.115,-3.824 -3.174,-1.468 -5.108,-3.818 -5.108,-7.265 0,-2.623 1.291,-4.741 3.361,-6.399 3.679,-2.852 9.982,-3.998 16.838,-3.998 8.836,0 16.242,0.734 24.476,2.759 l 0.734,0.229 -1.973,7.316 c -9.203,-1.98 -14.308,-2.53 -21.302,-2.623 -4.925,-0.045 -8.327,0.322 -10.123,0.872 -1.014,0.325 -1.429,0.785 -1.429,1.336 0,0.509 0.322,0.966 1.336,1.288 1.104,0.37 2.897,0.785 12.328,2.301 10.217,1.658 13.577,2.347 16.381,3.454 3.818,1.468 6.119,4.185 6.119,7.587 0,4.281 -3.309,7.455 -9.064,9.203 -3.541,1.059 -8.279,1.658 -13.616,1.658 -8.372,0 -17.301,-1.107 -23.05,-2.945" />
  </g>
</svg>
