<?xml version="1.0" encoding="UTF-8" standalone="no"?>
<svg
   xmlns:dc="http://purl.org/dc/elements/1.1/"
   xmlns:cc="http://creativecommons.org/ns#"
   xmlns:rdf="http://www.w3.org/1999/02/22-rdf-syntax-ns#"
   xmlns:svg="http://www.w3.org/2000/svg"
   xmlns="http://www.w3.org/2000/svg"
   xmlns:sodipodi="http://sodipodi.sourceforge.net/DTD/sodipodi-0.dtd"
   xmlns:inkscape="http://www.inkscape.org/namespaces/inkscape"
   inkscape:version="1.0 (4035a4fb49, 2020-05-01)"
   sodipodi:docname="RS.svg"
   id="svg45"
   version="1.1"
   viewBox="0 0 328.43 45.47">
  <metadata
     id="metadata49">
    <rdf:RDF>
      <cc:Work
         rdf:about="">
        <dc:format>image/svg+xml</dc:format>
        <dc:type
           rdf:resource="http://purl.org/dc/dcmitype/StillImage" />
        <dc:title>Air Seoul wordmark</dc:title>
      </cc:Work>
    </rdf:RDF>
  </metadata>
  <sodipodi:namedview
     inkscape:current-layer="svg45"
     inkscape:window-maximized="1"
     inkscape:window-y="-8"
     inkscape:window-x="-8"
     inkscape:cy="22.735001"
     inkscape:cx="164.215"
     inkscape:zoom="3.1939836"
     showgrid="false"
     id="namedview47"
     inkscape:window-height="1027"
     inkscape:window-width="1920"
     inkscape:pageshadow="2"
     inkscape:pageopacity="0"
     guidetolerance="10"
     gridtolerance="10"
     objecttolerance="10"
     borderopacity="1"
     bordercolor="#666666"
     pagecolor="#ffffff" />
  <defs
     id="defs23">
    <style
       id="style21">.cls-1{fill:#1db898;}</style>
  </defs>
  <title
     id="title25">Air Seoul wordmark</title>
  <g
     data-name="레이어 2"
     id="레이어_2">
    <g
       data-name="Layer 1"
       id="Layer_1">
      <polygon
         id="polygon27"
         points="16.38 1.39 0 44.06 11.73 44.06 22.44 14.54 32.83 44.06 44.56 44.06 28.5 1.39 16.38 1.39"
         class="cls-1" />
      <rect
         id="rect29"
         height="42.67"
         width="11.18"
         y="1.39"
         x="51.33"
         class="cls-1" />
      <path
         id="path31"
         d="M104.57,21c2.67-4.83,1.55-11.51-.56-14.22S98.42,1.39,90.88,1.39H74.64V44.06H85.82V27.55L97,44.06h13L96.81,26.56A11.46,11.46,0,0,0,104.57,21ZM92.11,19.5c-2.57,1.48-6.3,1.07-6.3,1.07V9.9a14.36,14.36,0,0,1,5.56.6A4.54,4.54,0,0,1,94.55,15,4.7,4.7,0,0,1,92.11,19.5Z"
         class="cls-1" />
      <path
         id="path33"
         d="M141,16.61c-2.19-.74-3.29-2-3.13-3.69a4.13,4.13,0,0,1,3.66-3.47c4.14-.61,8.63,2.6,8.63,2.6l4.21-8.19A24.14,24.14,0,0,0,140.08.29c-8.51.47-13.36,6.33-13.74,13C126,18.73,128.52,23.41,136,26c2.67.92,6.67,1.67,8,3.68,1.74,2.55,0,7-6.29,6-4.3-.7-8.43-4.15-8.43-4.15l-4.7,8.8a26.74,26.74,0,0,0,17.25,4.81C156.35,44,157.9,30.5,155.06,25S145.41,18.1,141,16.61Z"
         class="cls-1" />
      <polygon
         id="polygon35"
         points="176.88 27.26 188.85 27.26 188.85 17.95 176.95 17.95 176.95 10.43 189.56 10.43 189.56 1.39 165.92 1.39 165.92 44.06 190.15 44.06 190.15 34.73 176.88 34.73 176.88 27.26"
         class="cls-1" />
      <path
         id="path37"
         d="M221.65,0c-12.92,0-23.3,9.72-23.3,22.6,0,13.43,9.41,22.87,23.3,22.87S245,36,245,22.6C245,9.72,234.58,0,221.65,0Zm0,34.81a12.08,12.08,0,1,1,12-12.3A12,12,0,0,1,221.65,34.81Z"
         class="cls-1" />
      <path
         id="path39"
         d="M281.32,26.58c0,7.54-4.3,8.94-7.16,8.94s-7.8-1-7.8-9.15v-25H255.27V26.67c0,13.19,7.44,18.54,19,18.54,11.36,0,18.14-6.37,18.14-18V1.39H281.32Z"
         class="cls-1" />
      <polygon
         id="polygon41"
         points="315.57 34.79 315.57 1.39 304.54 1.39 304.54 44.06 328.43 44.06 328.43 39.3 328.43 34.79 315.57 34.79"
         class="cls-1" />
    </g>
  </g>
</svg>
