<?xml version="1.0" encoding="UTF-8" standalone="no"?>
<svg
   xmlns:dc="http://purl.org/dc/elements/1.1/"
   xmlns:cc="http://creativecommons.org/ns#"
   xmlns:rdf="http://www.w3.org/1999/02/22-rdf-syntax-ns#"
   xmlns:svg="http://www.w3.org/2000/svg"
   xmlns="http://www.w3.org/2000/svg"
   xmlns:xlink="http://www.w3.org/1999/xlink"
   xmlns:sodipodi="http://sodipodi.sourceforge.net/DTD/sodipodi-0.dtd"
   xmlns:inkscape="http://www.inkscape.org/namespaces/inkscape"
   inkscape:version="1.0 (4035a4fb49, 2020-05-01)"
   height="100.11597"
   width="558.72449"
   sodipodi:docname="SA.svg"
   id="svg140"
   version="1.1"
   viewBox="0 0 558.72449 100.11597"
   fill-rule="evenodd"
   clip-rule="evenodd">
  <metadata
     id="metadata146">
    <rdf:RDF>
      <cc:Work
         rdf:about="">
        <dc:format>image/svg+xml</dc:format>
        <dc:type
           rdf:resource="http://purl.org/dc/dcmitype/StillImage" />
        <dc:title></dc:title>
      </cc:Work>
    </rdf:RDF>
  </metadata>
  <defs
     id="defs144">
    <clipPath
       id="clipPath152"
       clipPathUnits="userSpaceOnUse">
      <rect
         y="-6.1683917"
         x="-8.6548004"
         height="68.589966"
         width="176.77046"
         id="rect154"
         style="fill:#0000ff;fill-rule:evenodd;stroke-width:0.472367" />
    </clipPath>
    <linearGradient
       x2="1"
       gradientTransform="matrix(-12.111,4.308,-4.308,-12.111,69.273,24.044)"
       gradientUnits="userSpaceOnUse"
       id="linearGradient228"
       xlink:href="#a"
       inkscape:collect="always" />
    <linearGradient
       x2="1"
       gradientTransform="matrix(8.94,-6.258,6.258,8.94,73.393,24.88)"
       gradientUnits="userSpaceOnUse"
       id="linearGradient230"
       xlink:href="#a"
       inkscape:collect="always" />
    <linearGradient
       x2="1"
       gradientTransform="matrix(-7.478,2.113,-2.113,-7.478,56.823,7.795)"
       gradientUnits="userSpaceOnUse"
       id="linearGradient232"
       xlink:href="#d"
       inkscape:collect="always" />
    <linearGradient
       x2="1"
       gradientTransform="matrix(5.933,-4.47,4.47,5.933,62.584,11.079)"
       gradientUnits="userSpaceOnUse"
       id="linearGradient234"
       xlink:href="#d"
       inkscape:collect="always" />
    <linearGradient
       x2="1"
       gradientTransform="matrix(-19.723,5.852,-5.852,-19.723,82.728,38.84)"
       gradientUnits="userSpaceOnUse"
       id="linearGradient236"
       xlink:href="#g"
       inkscape:collect="always" />
    <linearGradient
       x2="1"
       gradientTransform="matrix(10.729,-9.104,9.104,10.729,88.308,43.741)"
       gradientUnits="userSpaceOnUse"
       id="linearGradient238"
       xlink:href="#g"
       inkscape:collect="always" />
    <linearGradient
       x2="1"
       gradientTransform="matrix(7.478,25.765,-25.765,7.478,64.56,13.069)"
       gradientUnits="userSpaceOnUse"
       id="linearGradient240"
       xlink:href="#j"
       inkscape:collect="always" />
    <linearGradient
       x2="1"
       gradientTransform="matrix(0,7.533,-7.533,0,57.113,4.537)"
       gradientUnits="userSpaceOnUse"
       id="linearGradient242"
       xlink:href="#k"
       inkscape:collect="always" />
    <linearGradient
       x2="1"
       gradientTransform="matrix(-3.939,1.921,-1.921,-3.939,60.587,24.935)"
       gradientUnits="userSpaceOnUse"
       id="linearGradient244"
       xlink:href="#l"
       inkscape:collect="always" />
    <linearGradient
       x2="1"
       gradientTransform="matrix(2.601,-2.601,2.601,2.601,81.811,23.139)"
       gradientUnits="userSpaceOnUse"
       id="linearGradient246"
       xlink:href="#l"
       inkscape:collect="always" />
    <clipPath
       id="clipPath256"
       clipPathUnits="userSpaceOnUse">
      <rect
         y="48.873638"
         x="-21.792786"
         height="23.703886"
         width="203.75255"
         id="rect258"
         style="fill:#0000ff;fill-rule:evenodd;stroke-width:0.472367" />
    </clipPath>
    <clipPath
       id="clipPath260"
       clipPathUnits="userSpaceOnUse">
      <rect
         y="-7.9335752"
         x="36.735615"
         height="55.22501"
         width="83.972275"
         id="rect262"
         style="fill:#0000ff;fill-rule:evenodd;stroke-width:0.472367" />
    </clipPath>
    <clipPath
       id="clipPath266"
       clipPathUnits="userSpaceOnUse">
      <rect
         y="47.317322"
         x="-4.9029584"
         height="20.830687"
         width="184.21672"
         id="rect268"
         style="fill:#0000ff;fill-rule:evenodd;stroke-width:0.296543" />
    </clipPath>
    <clipPath
       clipPathUnits="userSpaceOnUse"
       id="clipPath260-7">
      <rect
         style="fill:#0000ff;fill-rule:evenodd;stroke-width:0.472367"
         id="rect262-2"
         width="83.972275"
         height="55.22501"
         x="36.735615"
         y="-7.9335752" />
    </clipPath>
    <linearGradient
       id="b-5"
       gradientTransform="matrix(-12.111,4.308,-4.308,-12.111,69.273,24.044)"
       gradientUnits="userSpaceOnUse"
       x2="1"
       xlink:href="#a" />
    <linearGradient
       id="linearGradient513">
      <stop
         offset="0"
         stop-color="#549f60"
         id="stop2-7" />
      <stop
         offset=".36"
         stop-color="#268142"
         id="stop4-8" />
      <stop
         offset=".5"
         stop-color="#217e3f"
         id="stop6-9" />
      <stop
         offset=".65"
         stop-color="#1e793c"
         id="stop8-3" />
      <stop
         offset="1"
         stop-color="#0c552b"
         id="stop10-6" />
    </linearGradient>
    <linearGradient
       id="c-0"
       gradientTransform="matrix(8.94,-6.258,6.258,8.94,73.393,24.88)"
       gradientUnits="userSpaceOnUse"
       x2="1"
       xlink:href="#a" />
    <linearGradient
       id="e-9"
       gradientTransform="matrix(-7.478,2.113,-2.113,-7.478,56.823,7.795)"
       gradientUnits="userSpaceOnUse"
       x2="1"
       xlink:href="#d" />
    <linearGradient
       id="linearGradient522">
      <stop
         offset="0"
         stop-color="#f15d4a"
         id="stop15-1" />
      <stop
         offset=".36"
         stop-color="#ee342a"
         id="stop17-2" />
      <stop
         offset=".5"
         stop-color="#ee2f26"
         id="stop19-0" />
      <stop
         offset=".64"
         stop-color="#e92e26"
         id="stop21-0" />
      <stop
         offset="1"
         stop-color="#c52228"
         id="stop23-0" />
    </linearGradient>
    <linearGradient
       id="f-1"
       gradientTransform="matrix(5.933,-4.47,4.47,5.933,62.584,11.079)"
       gradientUnits="userSpaceOnUse"
       x2="1"
       xlink:href="#d" />
    <linearGradient
       id="h-1"
       gradientTransform="matrix(-19.723,5.852,-5.852,-19.723,82.728,38.84)"
       gradientUnits="userSpaceOnUse"
       x2="1"
       xlink:href="#g" />
    <linearGradient
       id="linearGradient531">
      <stop
         offset="0"
         stop-color="#5c5a91"
         id="stop28-1" />
      <stop
         offset=".38"
         stop-color="#2f3578"
         id="stop30-6" />
      <stop
         offset=".48"
         stop-color="#2b3175"
         id="stop32-7" />
      <stop
         offset=".6"
         stop-color="#292e6f"
         id="stop34-6" />
      <stop
         offset="1"
         stop-color="#1e1b4d"
         id="stop36-4" />
    </linearGradient>
    <linearGradient
       id="i-6"
       gradientTransform="matrix(10.729,-9.104,9.104,10.729,88.308,43.741)"
       gradientUnits="userSpaceOnUse"
       x2="1"
       xlink:href="#g" />
    <linearGradient
       inkscape:collect="always"
       xlink:href="#j-4"
       id="linearGradient248"
       gradientUnits="userSpaceOnUse"
       gradientTransform="matrix(7.478,25.765,-25.765,7.478,64.56,13.069)"
       x2="1" />
    <linearGradient
       id="j-4"
       gradientTransform="matrix(7.478,25.765,-25.765,7.478,64.56,13.069)"
       gradientUnits="userSpaceOnUse"
       x2="1">
      <stop
         offset="0"
         stop-color="#995624"
         id="stop41-6" />
      <stop
         offset=".2"
         stop-color="#dc9c4e"
         id="stop43-2" />
      <stop
         offset=".42"
         stop-color="#f7dda4"
         id="stop45-7" />
      <stop
         offset=".53"
         stop-color="#fdeab6"
         id="stop47-3" />
      <stop
         offset=".63"
         stop-color="#f7dda4"
         id="stop49-6" />
      <stop
         offset=".84"
         stop-color="#dc9c4e"
         id="stop51-4" />
      <stop
         offset="1"
         stop-color="#995624"
         id="stop53-1" />
    </linearGradient>
    <linearGradient
       inkscape:collect="always"
       xlink:href="#k-1"
       id="linearGradient250"
       gradientUnits="userSpaceOnUse"
       gradientTransform="matrix(0,7.533,-7.533,0,57.113,4.537)"
       x2="1" />
    <linearGradient
       id="k-1"
       gradientTransform="matrix(0,7.533,-7.533,0,57.113,4.537)"
       gradientUnits="userSpaceOnUse"
       x2="1">
      <stop
         offset="0"
         stop-color="#fbf8cd"
         id="stop56-3" />
      <stop
         offset=".51"
         stop-color="#e8b86e"
         id="stop58-5" />
      <stop
         offset="1"
         stop-color="#ce7c29"
         id="stop60-5" />
    </linearGradient>
    <linearGradient
       id="m-3"
       gradientTransform="matrix(-3.939,1.921,-1.921,-3.939,60.587,24.935)"
       gradientUnits="userSpaceOnUse"
       x2="1"
       xlink:href="#l" />
    <linearGradient
       id="linearGradient551">
      <stop
         offset="0"
         stop-color="#fff"
         id="stop63-8" />
      <stop
         offset="1"
         stop-color="#b3b3b3"
         id="stop65-2" />
    </linearGradient>
    <linearGradient
       id="n-5"
       gradientTransform="matrix(2.601,-2.601,2.601,2.601,81.811,23.139)"
       gradientUnits="userSpaceOnUse"
       x2="1"
       xlink:href="#l" />
  </defs>
  <sodipodi:namedview
     inkscape:current-layer="svg140"
     inkscape:window-maximized="1"
     inkscape:window-y="-8"
     inkscape:window-x="-8"
     inkscape:cy="39.32586"
     inkscape:cx="293.61297"
     inkscape:zoom="1.8732143"
     fit-margin-bottom="0"
     fit-margin-right="0"
     fit-margin-left="0"
     fit-margin-top="0"
     showgrid="false"
     id="namedview142"
     inkscape:window-height="1027"
     inkscape:window-width="1920"
     inkscape:pageshadow="2"
     inkscape:pageopacity="0"
     guidetolerance="10"
     gridtolerance="10"
     objecttolerance="10"
     borderopacity="1"
     bordercolor="#666666"
     pagecolor="#ffffff" />
  <linearGradient
     id="a">
    <stop
       id="stop2"
       stop-color="#549f60"
       offset="0" />
    <stop
       id="stop4"
       stop-color="#268142"
       offset=".36" />
    <stop
       id="stop6"
       stop-color="#217e3f"
       offset=".5" />
    <stop
       id="stop8"
       stop-color="#1e793c"
       offset=".65" />
    <stop
       id="stop10"
       stop-color="#0c552b"
       offset="1" />
  </linearGradient>
  <linearGradient
     xlink:href="#a"
     x2="1"
     gradientUnits="userSpaceOnUse"
     gradientTransform="matrix(-12.111,4.308,-4.308,-12.111,69.273,24.044)"
     id="b" />
  <linearGradient
     xlink:href="#a"
     x2="1"
     gradientUnits="userSpaceOnUse"
     gradientTransform="matrix(8.94,-6.258,6.258,8.94,73.393,24.88)"
     id="c" />
  <linearGradient
     id="d">
    <stop
       id="stop15"
       stop-color="#f15d4a"
       offset="0" />
    <stop
       id="stop17"
       stop-color="#ee342a"
       offset=".36" />
    <stop
       id="stop19"
       stop-color="#ee2f26"
       offset=".5" />
    <stop
       id="stop21"
       stop-color="#e92e26"
       offset=".64" />
    <stop
       id="stop23"
       stop-color="#c52228"
       offset="1" />
  </linearGradient>
  <linearGradient
     xlink:href="#d"
     x2="1"
     gradientUnits="userSpaceOnUse"
     gradientTransform="matrix(-7.478,2.113,-2.113,-7.478,56.823,7.795)"
     id="e" />
  <linearGradient
     xlink:href="#d"
     x2="1"
     gradientUnits="userSpaceOnUse"
     gradientTransform="matrix(5.933,-4.47,4.47,5.933,62.584,11.079)"
     id="f" />
  <linearGradient
     id="g">
    <stop
       id="stop28"
       stop-color="#5c5a91"
       offset="0" />
    <stop
       id="stop30"
       stop-color="#2f3578"
       offset=".38" />
    <stop
       id="stop32"
       stop-color="#2b3175"
       offset=".48" />
    <stop
       id="stop34"
       stop-color="#292e6f"
       offset=".6" />
    <stop
       id="stop36"
       stop-color="#1e1b4d"
       offset="1" />
  </linearGradient>
  <linearGradient
     xlink:href="#g"
     x2="1"
     gradientUnits="userSpaceOnUse"
     gradientTransform="matrix(-19.723,5.852,-5.852,-19.723,82.728,38.84)"
     id="h" />
  <linearGradient
     xlink:href="#g"
     x2="1"
     gradientUnits="userSpaceOnUse"
     gradientTransform="matrix(10.729,-9.104,9.104,10.729,88.308,43.741)"
     id="i" />
  <linearGradient
     x2="1"
     gradientUnits="userSpaceOnUse"
     gradientTransform="matrix(7.478,25.765,-25.765,7.478,64.56,13.069)"
     id="j">
    <stop
       id="stop41"
       stop-color="#995624"
       offset="0" />
    <stop
       id="stop43"
       stop-color="#dc9c4e"
       offset=".2" />
    <stop
       id="stop45"
       stop-color="#f7dda4"
       offset=".42" />
    <stop
       id="stop47"
       stop-color="#fdeab6"
       offset=".53" />
    <stop
       id="stop49"
       stop-color="#f7dda4"
       offset=".63" />
    <stop
       id="stop51"
       stop-color="#dc9c4e"
       offset=".84" />
    <stop
       id="stop53"
       stop-color="#995624"
       offset="1" />
  </linearGradient>
  <linearGradient
     x2="1"
     gradientUnits="userSpaceOnUse"
     gradientTransform="matrix(0,7.533,-7.533,0,57.113,4.537)"
     id="k">
    <stop
       id="stop56"
       stop-color="#fbf8cd"
       offset="0" />
    <stop
       id="stop58"
       stop-color="#e8b86e"
       offset=".51" />
    <stop
       id="stop60"
       stop-color="#ce7c29"
       offset="1" />
  </linearGradient>
  <linearGradient
     id="l">
    <stop
       id="stop63"
       stop-color="#fff"
       offset="0" />
    <stop
       id="stop65"
       stop-color="#b3b3b3"
       offset="1" />
  </linearGradient>
  <linearGradient
     xlink:href="#l"
     x2="1"
     gradientUnits="userSpaceOnUse"
     gradientTransform="matrix(-3.939,1.921,-1.921,-3.939,60.587,24.935)"
     id="m" />
  <linearGradient
     xlink:href="#l"
     x2="1"
     gradientUnits="userSpaceOnUse"
     gradientTransform="matrix(2.601,-2.601,2.601,2.601,81.811,23.139)"
     id="n" />
  <g
     transform="matrix(2.5501526,0,0,4.4592127,124.9971,-204.57967)"
     id="g224"
     clip-path="url(#clipPath266)">
    <path
       d="m 78.941,52.651 c 0.081,-0.317 0.159,-0.475 0.397,-0.635 H 76.8 c 0.238,0.237 0.317,0.396 0.397,0.715 l 0.079,0.396 v 6.028 l -0.079,0.477 c -0.08,0.317 -0.159,0.476 -0.397,0.634 h 2.539 c -0.158,-0.158 -0.238,-0.316 -0.397,-0.634 0,-0.157 -0.079,-0.237 -0.079,-0.477 v -6.028 c -0.001,-0.238 0.078,-0.318 0.078,-0.476 z m -3.252,7.774 c -0.475,-0.476 -0.713,-0.793 -1.11,-1.349 -0.714,-0.952 -1.111,-1.506 -1.745,-2.381 -0.079,-0.077 -0.16,-0.157 -0.239,-0.315 0.318,-0.159 0.477,-0.159 0.794,-0.397 0.238,-0.158 0.396,-0.316 0.555,-0.635 0.159,-0.396 0.238,-0.635 0.238,-1.03 0.079,-0.159 0,-0.238 0,-0.476 0,-1.11 -1.111,-1.825 -2.301,-1.825 h -3.966 c 0.159,0.16 0.237,0.317 0.317,0.556 0.08,0.236 0.08,0.316 0.08,0.477 v 6.188 c 0,0.158 0,0.238 -0.08,0.396 -0.08,0.317 -0.159,0.476 -0.317,0.634 h 2.538 c -0.238,-0.158 -0.316,-0.316 -0.396,-0.555 -0.08,-0.236 -0.08,-0.396 -0.08,-0.635 V 52.89 c 0.476,0 0.715,-0.08 1.19,0 0.793,0 1.427,0.557 1.427,1.27 v 0.477 c 0,0.237 -0.079,0.396 -0.237,0.713 -0.159,0.318 -0.317,0.397 -0.635,0.635 -0.318,0.158 -0.555,0.238 -0.952,0.318 0.08,0.159 0.159,0.237 0.317,0.395 0.238,0.397 0.317,0.558 0.556,0.875 l 1.19,1.824 c 0.396,0.555 0.555,0.871 1.11,1.27 0.317,0.315 0.476,0.476 0.873,0.633 0.317,0.08 0.556,0.16 0.872,0.16 h 1.349 L 76.56,61.143 c -0.315,-0.242 -0.553,-0.401 -0.871,-0.718 z m 7.14,-5.63 c 0.476,-1.271 1.428,-2.063 2.777,-2.063 h 0.555 c 0.714,0 1.189,0.237 1.744,0.635 l 0.317,0.476 0.477,-1.429 -0.635,-0.236 C 87.667,52.018 87.43,51.938 87.033,51.86 L 86.24,51.78 h -1.111 c -0.316,0 -0.477,0.08 -0.714,0.158 -0.396,0.08 -0.634,0.08 -1.031,0.24 -0.872,0.396 -1.428,0.872 -1.903,1.665 -0.237,0.396 -0.316,0.634 -0.477,1.03 -0.079,0.317 -0.158,0.476 -0.158,0.794 v 1.029 c 0.079,0.16 0.079,0.24 0.079,0.477 0.079,0.318 0.159,0.557 0.318,0.874 0.237,0.555 0.396,0.793 0.871,1.19 0.397,0.317 0.556,0.553 1.111,0.793 l 1.189,0.396 c 0.317,0 0.477,0.079 0.714,0.079 h 1.111 c 0.159,0 0.316,-0.079 0.556,-0.079 l 0.792,-0.159 c 0.079,-0.078 0.079,-0.078 0.317,-0.158 l 0.08,-0.318 c 0.079,-0.235 0.079,-0.395 0.237,-0.713 -0.635,0.239 -1.031,0.478 -1.666,0.478 h -0.713 c -0.477,0 -0.715,-0.079 -1.191,-0.238 -1.03,-0.397 -1.585,-1.032 -1.823,-2.063 -0.079,-0.239 -0.159,-0.397 -0.159,-0.558 v -0.95 c 0.001,-0.399 0.081,-0.637 0.16,-0.952 z M 58.159,57.49 C 58.001,57.172 57.921,56.935 57.762,56.695 57.525,56.061 57.286,55.428 56.89,54.634 l -1.587,-3.729 c -0.316,-0.793 -0.555,-1.189 -0.872,-2.063 l -2.301,5.792 c -0.395,0.794 -0.634,1.348 -0.872,2.061 -0.159,0.24 -0.238,0.477 -0.318,0.795 -0.475,1.191 -0.713,1.984 -1.745,2.775 h 2.539 c -0.16,-0.158 -0.239,-0.396 -0.239,-0.634 0,-0.556 0.239,-0.793 0.397,-1.269 l 0.316,-0.873 0.159,-0.397 h 3.569 l 0.158,0.397 c 0.16,0.316 0.239,0.476 0.318,0.793 0.238,0.476 0.397,0.713 0.397,1.191 0.08,0.079 0.08,0.079 0.08,0.157 0,0.317 -0.08,0.397 -0.239,0.634 h 3.173 c -1.03,-0.71 -1.109,-1.582 -1.664,-2.774 z m -5.315,-1.428 1.271,-3.253 1.347,3.253 z m -7.932,-3.411 c 0.08,-0.317 0.158,-0.475 0.397,-0.635 H 42.77 c 0.239,0.16 0.317,0.317 0.397,0.635 0,0.157 0.079,0.237 0.079,0.476 v 2.38 h -4.045 v -2.38 c 0,-0.476 0.158,-0.793 0.477,-1.11 h -2.539 c 0.238,0.237 0.316,0.396 0.396,0.715 0,0.157 0.081,0.237 0.081,0.475 v 5.87 c 0,0.556 -0.081,0.873 -0.477,1.189 h 2.539 C 39.36,59.95 39.201,59.632 39.201,59.156 v -2.617 h 4.045 v 2.617 c 0,0.239 -0.079,0.398 -0.159,0.556 -0.079,0.238 -0.158,0.396 -0.317,0.555 h 2.539 C 45.15,60.109 45.07,59.951 44.912,59.712 l -0.079,-0.556 v -6.028 c 0,-0.239 0.079,-0.319 0.079,-0.477 z m 16.023,0.08 c 0.08,0.157 0.08,0.237 0.08,0.396 v 6.028 l -0.08,0.556 c -0.079,0.238 -0.158,0.396 -0.397,0.555 h 2.539 C 62.761,59.95 62.681,59.632 62.602,59.156 V 56.46 h 2.3 c 0.397,0 0.713,0.078 0.953,0.235 l 0.237,0.24 V 55.11 c -0.158,0.079 -0.158,0.079 -0.237,0.158 -0.397,0.238 -0.555,0.238 -0.953,0.238 h -2.3 v -2.458 h 2.538 c 0.475,0 0.873,0.078 1.19,0.476 l 0.396,-1.508 h -6.188 c 0.239,0.238 0.318,0.397 0.397,0.715 z m 43.311,-0.159 c 0.08,0.236 0.08,0.316 0.08,0.555 v 4.602 l -0.794,-1.033 -3.729,-4.679 h -1.982 c 0.316,0.317 0.396,0.635 0.396,1.189 v 6.03 c 0,0.158 0,0.238 -0.08,0.396 -0.079,0.317 -0.158,0.476 -0.316,0.634 h 2.141 c -0.158,-0.158 -0.236,-0.316 -0.396,-0.555 0,-0.236 -0.079,-0.316 -0.079,-0.475 v -5.157 l 2.063,2.616 2.776,3.57 h 1.269 v -7.139 c 0,-0.476 0.158,-0.793 0.476,-1.11 h -2.141 c 0.158,0.161 0.237,0.318 0.316,0.556 z M 6.361,54.317 C 5.488,53.92 4.933,53.683 4.14,53.206 3.663,52.889 3.425,52.572 3.425,52.017 v -0.158 c 0.08,-0.635 0.477,-1.032 1.032,-1.271 0.238,-0.079 0.396,-0.157 0.714,-0.157 h 0.476 c 0.396,0 0.635,0.078 1.031,0.238 0.396,0.157 0.635,0.317 0.872,0.634 0.159,0.238 0.239,0.396 0.397,0.556 l 0.555,-1.507 c 0,-0.08 -0.08,-0.08 -0.08,-0.08 L 8.105,50.114 C 7.788,49.877 7.629,49.877 7.232,49.718 L 6.519,49.56 H 4.298 l -0.793,0.237 c -1.111,0.395 -1.825,1.11 -1.904,2.3 v 0.238 c 0,1.508 1.031,2.301 2.379,2.935 0.873,0.477 1.349,0.634 2.143,1.191 l 0.317,0.235 c 0.238,0.318 0.396,0.636 0.396,1.033 0,1.03 -0.952,1.746 -1.983,1.746 H 4.378 c -0.397,0 -0.556,0 -0.873,-0.159 C 2.712,59.077 2.394,58.682 1.919,58.125 L 1.284,59.79 c 0.555,0.318 0.952,0.398 1.586,0.558 0.396,0.078 0.635,0.157 1.11,0.157 0.477,0 0.794,0.08 1.27,0 0.952,-0.079 1.507,-0.157 2.3,-0.715 0.794,-0.553 1.111,-1.188 1.191,-2.141 v -0.396 l -0.08,-0.558 c -0.317,-1.107 -1.19,-1.823 -2.3,-2.378 z m 22.766,-0.951 c 0.159,-0.239 0.317,-0.317 0.555,-0.397 0.238,-0.08 0.396,-0.16 0.635,-0.16 h 1.427 v 6.268 c 0,0.556 -0.158,0.873 -0.476,1.189 h 2.539 C 33.648,60.108 33.569,59.95 33.49,59.711 33.41,59.475 33.331,59.395 33.331,59.155 v -6.267 c 0.634,0 0.952,-0.08 1.507,0 0.318,0 0.556,0 0.873,0.238 l 0.239,0.239 0.316,-1.35 h -7.457 z m -3.015,-0.635 0.08,0.317 v 4.362 c 0,0.317 -0.08,0.555 -0.158,0.872 -0.08,0.317 -0.159,0.476 -0.397,0.793 -0.158,0.239 -0.317,0.318 -0.635,0.398 -0.237,0.079 -0.317,0.157 -0.555,0.157 h -0.476 c -0.238,0 -0.396,-0.078 -0.634,-0.157 -0.318,-0.159 -0.476,-0.238 -0.635,-0.479 -0.237,-0.237 -0.317,-0.475 -0.396,-0.791 -0.079,-0.239 -0.079,-0.398 -0.079,-0.635 v -4.443 c 0,-0.476 0.158,-0.793 0.396,-1.11 h -2.538 c 0.158,0.16 0.237,0.317 0.317,0.556 0.08,0.236 0.159,0.316 0.159,0.555 v 4.204 c 0,0.476 0,0.793 0.159,1.19 0.159,0.475 0.318,0.715 0.635,1.11 0.159,0.157 0.317,0.317 0.555,0.397 0.159,0.158 0.317,0.236 0.556,0.317 0.396,0.078 0.635,0.157 1.11,0.157 h 0.952 c 0.555,0 0.793,-0.079 1.269,-0.238 0.396,-0.158 0.635,-0.316 0.952,-0.712 0.397,-0.478 0.556,-0.795 0.634,-1.43 0.08,-0.238 0.08,-0.396 0.08,-0.713 v -0.716 l 0.079,-3.568 c 0,-0.476 0.08,-0.793 0.396,-1.11 h -2.221 c 0.237,0.163 0.316,0.399 0.395,0.717 z m 70.44,6.584 -0.556,-1.191 C 95.759,57.57 95.52,57.172 95.362,56.695 95.204,56.46 95.124,56.22 94.966,55.902 94.569,55.189 94.41,54.872 94.093,54.158 L 93.458,52.731 C 93.3,52.493 93.221,52.334 93.141,52.016 L 92.825,51.46 c -0.08,0.317 -0.238,0.556 -0.396,0.873 -0.239,0.475 -0.318,0.793 -0.556,1.35 -0.397,0.871 -0.635,1.347 -0.952,2.219 -0.158,0.318 -0.316,0.558 -0.396,0.793 -0.16,0.397 -0.397,0.795 -0.556,1.271 -0.476,0.952 -0.715,1.509 -1.349,2.3 h 2.142 c -0.158,-0.078 -0.237,-0.316 -0.237,-0.555 0,-0.396 0.157,-0.635 0.316,-0.952 l 0.396,-1.03 h 2.935 c 0.158,0.396 0.238,0.635 0.396,0.953 0.159,0.395 0.317,0.634 0.317,1.029 0,0.238 -0.079,0.396 -0.317,0.555 h 2.777 C 96.948,59.949 96.79,59.711 96.552,59.315 Z m -2.856,-2.539 h -2.063 l 0.08,-0.081 0.951,-2.299 1.031,2.299 v 0.081 z M 15.563,51.541 c -0.317,-0.08 -0.476,-0.08 -0.793,-0.08 h -0.793 c -0.318,0 -0.396,0 -0.714,0.08 -0.238,0.078 -0.476,0.078 -0.714,0.237 -0.713,0.238 -1.031,0.476 -1.507,1.03 -0.396,0.558 -0.634,0.953 -0.793,1.667 -0.159,0.476 -0.238,0.714 -0.238,1.112 v 1.107 l 0.159,0.477 c 0.079,0.318 0.079,0.557 0.238,0.874 0.555,1.27 1.269,1.983 2.538,2.301 0.396,0.157 0.635,0.157 1.031,0.157 h 0.793 c 0.396,0 0.635,0 1.031,-0.157 1.349,-0.397 2.142,-1.11 2.618,-2.461 l 0.238,-0.872 v -0.318 c 0.079,-0.077 0.079,-0.157 0.079,-0.315 v -0.792 c 0,-0.558 -0.079,-0.875 -0.317,-1.43 -0.477,-1.427 -1.429,-2.3 -2.856,-2.617 z m 1.427,4.997 c 0,0.08 0,0.08 -0.08,0.157 0,0.24 0,0.318 -0.079,0.558 -0.317,1.269 -1.111,2.379 -2.459,2.379 -1.269,0 -2.142,-1.031 -2.459,-2.301 l -0.079,-0.636 c -0.08,-0.077 -0.08,-0.157 -0.08,-0.315 v -0.792 c 0,-0.398 0.08,-0.637 0.238,-1.033 0.159,-0.555 0.317,-0.951 0.714,-1.428 0.238,-0.318 0.476,-0.396 0.793,-0.555 0.238,-0.079 0.396,-0.159 0.634,-0.159 h 0.477 c 0.158,0 0.238,0 0.396,0.08 0.396,0.079 0.555,0.238 0.872,0.476 0.397,0.316 0.556,0.635 0.793,1.11 l 0.238,0.951 c 0,0.159 0.08,0.238 0.08,0.477 v 1.031 z M 123.119,52.89 c 0.078,-0.317 0.158,-0.477 0.396,-0.636 h -2.46 c 0.237,0.239 0.317,0.397 0.397,0.716 v 6.267 c 0,0.158 0,0.317 -0.08,0.475 -0.08,0.238 -0.158,0.396 -0.317,0.636 h 2.46 l -0.396,-0.636 -0.08,-0.475 v -5.87 c 0,-0.24 0.08,-0.318 0.08,-0.477 z m 10.811,8.25 c -0.317,-0.238 -0.555,-0.397 -0.872,-0.715 -0.476,-0.476 -0.714,-0.793 -1.11,-1.27 -0.714,-1.031 -1.111,-1.585 -1.904,-2.617 0.316,-0.158 0.476,-0.158 0.793,-0.396 0.239,-0.159 0.317,-0.318 0.556,-0.636 0.159,-0.317 0.239,-0.555 0.239,-0.952 V 54.08 c -0.08,-1.11 -1.112,-1.826 -2.302,-1.826 h -3.887 c 0.236,0.159 0.317,0.318 0.396,0.557 0.079,0.239 0.079,0.316 0.079,0.475 v 5.951 c 0,0.158 0,0.317 -0.079,0.475 -0.079,0.238 -0.16,0.396 -0.396,0.636 h 2.537 c -0.237,-0.239 -0.315,-0.397 -0.396,-0.636 -0.079,-0.157 -0.079,-0.316 -0.079,-0.556 v -6.028 c 0.475,0 0.714,-0.078 1.189,0 0.714,0 1.349,0.557 1.349,1.27 v 0.398 c 0,0.315 -0.078,0.474 -0.238,0.712 -0.157,0.317 -0.317,0.396 -0.634,0.636 -0.317,0.158 -0.477,0.237 -0.874,0.317 0.081,0.158 0.16,0.238 0.319,0.396 0.158,0.318 0.316,0.476 0.555,0.793 0.477,0.715 0.715,1.11 1.188,1.746 0.396,0.555 0.556,0.871 1.032,1.27 0.316,0.315 0.475,0.476 0.793,0.634 0.318,0.079 0.557,0.159 0.873,0.159 h 1.269 c -0.079,-0.161 -0.237,-0.161 -0.396,-0.319 z m 16.955,-1.825 c -0.237,-0.397 -0.317,-0.634 -0.555,-1.11 -0.397,-0.794 -0.556,-1.27 -1.03,-2.142 l -0.793,-1.667 -0.636,-1.348 c -0.079,-0.317 -0.159,-0.477 -0.317,-0.715 l -0.237,-0.555 c -0.08,0.316 -0.239,0.555 -0.397,0.872 l -0.555,1.269 c -0.397,0.875 -0.634,1.27 -0.951,2.144 -0.317,0.792 -0.558,1.268 -0.953,2.061 -0.397,0.872 -0.635,1.43 -1.27,2.223 h 2.142 c -0.236,-0.159 -0.236,-0.317 -0.236,-0.558 0,-0.395 0.078,-0.634 0.236,-0.95 0.159,-0.397 0.238,-0.634 0.398,-0.951 h 2.854 c 0.157,0.317 0.238,0.554 0.397,0.951 0.158,0.316 0.317,0.556 0.317,0.95 0,0.24 -0.159,0.318 -0.317,0.558 h 2.695 c -0.395,-0.318 -0.553,-0.558 -0.792,-1.032 z m -4.76,-2.379 1.031,-2.301 1.032,2.301 z m 15.953,-1.191 c -0.713,-0.316 -1.11,-0.477 -1.664,-0.873 -0.396,-0.237 -0.636,-0.476 -0.636,-0.952 0,0 0,-0.078 0.079,-0.078 0,-0.476 0.318,-0.793 0.795,-0.952 0.158,-0.079 0.315,-0.158 0.474,-0.158 h 0.398 c 0.317,0 0.554,0.079 0.793,0.238 0.318,0.079 0.476,0.236 0.714,0.476 l 0.238,0.396 0.474,-1.11 c 0,-0.08 -0.078,-0.08 -0.078,-0.08 l -0.236,-0.158 c -0.238,-0.159 -0.397,-0.159 -0.636,-0.239 l -0.634,-0.158 h -1.667 l -0.635,0.158 c -0.793,0.318 -1.348,0.873 -1.427,1.746 v 0.237 c 0,1.11 0.792,1.746 1.824,2.223 0.635,0.317 1.031,0.476 1.666,0.951 0.317,0.237 0.556,0.477 0.556,0.952 0,0.792 -0.715,1.348 -1.509,1.348 h -0.396 c -0.317,0 -0.396,-0.079 -0.715,-0.157 -0.556,-0.159 -0.793,-0.478 -1.189,-0.952 l -0.476,1.27 c 0.476,0.236 0.714,0.395 1.27,0.476 l 0.793,0.158 h 0.952 c 0.714,-0.08 1.188,-0.158 1.744,-0.556 0.635,-0.475 0.873,-0.953 0.953,-1.666 v -0.317 c -0.079,-1.113 -0.793,-1.747 -1.825,-2.223 z m -6.203,-3.173 c 0.079,0.238 -0.079,0.477 -0.237,0.713 -0.16,0.318 -1.35,2.381 -1.35,2.381 0,0 -1.109,-1.904 -1.269,-2.3 -0.159,-0.317 -0.238,-0.396 -0.238,-0.635 0,-0.239 0.079,-0.318 0.159,-0.478 h -2.301 c 0.317,0.159 0.556,0.397 0.794,0.795 0.236,0.317 1.745,3.015 1.982,3.569 v 2.776 c 0,0.237 0.078,0.635 -0.237,0.952 h 2.062 c -0.317,-0.317 -0.317,-0.636 -0.317,-0.952 v -2.776 c 0,0 1.189,-2.143 1.587,-2.776 0.396,-0.715 0.476,-0.952 1.269,-1.588 h -2.062 c 0.158,0.081 0.158,0.16 0.158,0.319 z M 143.87,52.334 h -1.904 c 0,0 0.397,0.159 0.159,0.872 -0.239,1.27 -1.35,4.918 -1.35,4.918 l -2.221,-5.87 -1.903,5.87 c 0,0 -1.428,-4.918 -1.428,-5.234 0,-0.158 0,-0.477 0.316,-0.636 h -2.458 c 0.555,0.478 0.712,0.873 0.793,1.112 l 1.825,6.899 h 1.348 l 1.428,-4.282 1.428,4.282 h 1.35 l 1.824,-6.662 c 0.158,-0.554 0.317,-0.952 0.793,-1.269 z m -25.675,5.156 c -0.157,-0.318 -0.238,-0.555 -0.396,-0.795 -0.237,-0.634 -0.477,-1.267 -0.872,-2.061 l -1.587,-3.729 c -0.317,-0.793 -0.556,-1.189 -0.872,-2.063 l -2.301,5.792 c -0.396,0.794 -0.635,1.348 -0.872,2.061 -0.159,0.24 -0.239,0.477 -0.318,0.795 -0.475,1.191 -0.714,1.984 -1.744,2.775 h 2.538 c -0.159,-0.158 -0.238,-0.396 -0.238,-0.634 0,-0.556 0.238,-0.793 0.396,-1.269 l 0.318,-0.873 0.157,-0.397 h 3.57 l 0.158,0.397 c 0.159,0.316 0.238,0.476 0.318,0.793 0.237,0.476 0.396,0.713 0.396,1.191 0.079,0.079 0.079,0.079 0.079,0.157 0,0.317 -0.079,0.397 -0.238,0.634 h 3.173 c -1.029,-0.71 -1.109,-1.582 -1.665,-2.774 z m -5.314,-1.428 1.27,-3.253 1.348,3.253 z"
       fill="#24275f"
       id="path156" />
    <path
       d="M 61.636,44.377 44.456,0.167 44.57,0.121 44.456,0.167 44.391,0 h 19.082 l 48.708,44.377 z"
       fill="#a7a9ac"
       id="path158" />
    <path
       d="m 44.57,0.121 h 18.856 l 48.441,44.134 H 61.719 Z"
       fill="#ffffff"
       id="path160" />
    <path
       d="m 64.32,15.076 h 1.951 l 14.792,17.883 -2.438,1.786 z"
       fill="#549f60"
       id="path162" />
    <path
       style="fill:url(#linearGradient228)"
       d="M 51.722,14.78 62.288,42.033 78.937,33.109 65.624,15.854 Z"
       fill="url(#b)"
       id="path164" />
    <path
       style="fill:url(#linearGradient230)"
       d="M 80.439,17.001 66.128,15.894 79.454,32.833 90.897,26.7 Z"
       fill="url(#c)"
       id="path166" />
    <path
       d="M 55.38,0.854 H 53.023 L 63.995,15.24 h 3.088 z"
       fill="#f15d4a"
       id="path168" />
    <path
       style="fill:url(#linearGradient232)"
       d="M 46.357,1.287 51.451,14.942 64.94,14.968 54.385,1.287 Z"
       fill="url(#e)"
       id="path170" />
    <path
       style="fill:url(#linearGradient234)"
       d="m 62.884,1.287 h -8.246 l 10.763,13.684 12.926,0.025 z"
       fill="url(#f)"
       id="path172" />
    <path
       d="m 78.489,33.798 2.384,-1.301 8.887,10.73 -4.335,0.215 z"
       fill="#5c5a91"
       id="path174" />
    <path
       style="fill:url(#linearGradient236)"
       d="m 61.909,41.98 0.433,1.246 24.444,0.058 -7.092,-9.191 z"
       fill="url(#h)"
       id="path176" />
    <path
       style="fill:url(#linearGradient238)"
       d="m 92.577,28.38 -12.326,5.467 7.427,9.439 20.829,0.048 0.326,-0.758 z"
       fill="url(#i)"
       id="path178" />
    <path
       style="fill:url(#linearGradient240)"
       d="M 50.584,14.509 81.902,23.231 61.909,41.98 61.691,41.33 69.494,26.808 Z"
       fill="url(#j)"
       id="path180" />
    <circle
       style="fill:url(#linearGradient242)"
       cx="57.112999"
       cy="8.3039999"
       fill="url(#k)"
       r="3.766"
       id="circle182" />
    <path
       d="M 51.641,15.32 69.494,26.808 61.691,41.33 Z"
       fill="#010101"
       id="path184" />
    <path
       d="M 54.678,1.667 64.499,14.396 64.95,14.397 54.935,1.667 Z M 65.922,16.241 78.711,32.817 79.226,32.542 66.437,16.285 Z m 14.678,18.048 -0.557,0.254 6.302,8.169 h 0.881 z"
       fill="#ffffff"
       fill-opacity="0.15"
       id="path186" />
    <path
       style="fill:url(#linearGradient244)"
       d="M 86.672,42.712 H 62.775 L 62.69,42.489 80.263,34.443 78.916,32.708 62.337,41.582 52.022,15.038 66.167,16.264 64.72,14.397 51.761,14.364 46.826,1.667 h 8.025 L 53.653,0.121 H 44.57 l 17.149,44.134 h 26.15 z"
       fill="url(#m)"
       id="path188" />
    <path
       style="fill:url(#linearGradient246)"
       d="m 54.851,1.667 h 7.977 l 14.006,12.759 -12.114,-0.029 1.447,1.867 14.013,1.212 10.064,9.169 -11.328,6.063 1.347,1.735 12.339,-5.651 15.277,13.92 H 86.672 l 1.197,1.543 h 23.998 L 63.426,0.121 h -9.773 z"
       fill="url(#n)"
       id="path190" />
    <path
       d="M 0.516,66.022 H 163.988"
       fill="none"
       stroke="#000000"
       id="path192" />
    <path
       d="m 151.018,75.858 -3.177,0.113 3.063,1.815 3.178,-1.589 z"
       fill="#d9d9d9"
       id="path194" />
    <path
       d="m 150.904,77.787 -0.114,3.631 1.816,-2.496 1.476,-2.724 z"
       fill="#262626"
       id="path196" />
    <path
       d="m 150.79,81.418 0.114,-3.631 -3.063,-1.815 1.36,2.837 z"
       fill="#9e9e9e"
       id="path198" />
    <path
       d="m 159.187,73.247 v 3.064 l 0.455,3.064 1.588,-3.178 z"
       fill="#d9d9d9"
       id="path200" />
    <path
       d="m 164.747,75.972 -3.518,0.227 -1.588,3.178 2.607,-1.589 z"
       fill="#262626"
       id="path202" />
    <path
       d="m 161.229,76.198 3.518,-0.227 -2.724,-1.588 -2.837,-1.137 z m -3.176,-0.453 -0.681,-3.064 -1.021,-2.837 -0.909,3.403 z"
       fill="#9e9e9e"
       id="path204" />
    <path
       d="m 154.989,75.178 3.063,0.567 -2.611,-2.498 -3.402,1.023 z"
       fill="#262626"
       id="path206" />
    <path
       d="m 156.351,69.844 -2.383,2.043 -1.929,2.384 3.402,-1.023 z"
       fill="#d9d9d9"
       id="path208" />
    <path
       d="m 162.249,82.779 0.114,-3.063 -2.154,2.838 1.246,3.289 z"
       fill="#9e9e9e"
       id="path210" />
    <path
       d="m 160.209,82.554 2.154,-2.838 -2.95,0.908 -2.722,1.36 z"
       fill="#d9d9d9"
       id="path212" />
    <path
       d="m 156.691,81.984 2.269,2.156 2.495,1.702 -1.246,-3.289 z m 0.568,2.724 h -0.114 l -3.29,-1.135 -2.723,2.27 3.063,-0.341 2.95,-0.681 z"
       fill="#262626"
       id="path214" />
    <path
       d="m 157.145,84.708 -1.703,-2.496 -2.269,-2.156 0.682,3.518 z m 0,0.113 h 0.114 v -0.113 z"
       fill="#9e9e9e"
       id="path216" />
    <path
       d="m 151.132,85.843 2.723,-2.27 -0.682,-3.518 z"
       fill="#d9d9d9"
       id="path218" />
    <path
       d="m 167.128,74.042 v 1.477 h 0.114 v -1.477 h 0.681 v -0.113 h -1.474 v 0.113 z m 2.726,-0.113 -0.683,1.36 -0.682,-1.36 h -0.224 v 1.59 h 0.224 v -1.365 l 0.568,1.365 h 0.229 l 0.681,-1.365 v 1.365 h 0.112 v -1.59 z"
       id="path220" />
    <path
       d="m 86.797,76.198 h 4.313 v -0.68 h -4.88 v 6.239 h 4.994 V 81.19 h -4.428 v -2.382 h 4.2 v -0.567 h -4.2 v -2.043 z m 16.794,-0.679 h -1.022 l -2.723,5.444 -2.721,-5.444 h -1.023 v 6.239 h 0.682 v -5.333 l 2.723,5.333 h 0.681 l 2.724,-5.333 v 5.333 h 0.681 v -6.239 z m 6.922,0.679 v -0.68 h -4.879 v 6.239 h 4.992 V 81.19 h -4.313 v -2.382 h 4.085 v -0.567 h -4.085 v -2.043 z m 9.188,-0.679 h -0.906 l -2.723,5.444 -2.837,-5.444 h -0.908 v 6.239 h 0.681 v -5.333 l 2.723,5.333 h 0.567 l 2.724,-5.333 v 5.333 h 0.68 v -6.239 z m 5.561,0 h -3.518 v 6.239 h 3.404 c 1.361,0 2.043,-0.567 2.043,-1.702 0,-0.906 -0.453,-1.474 -1.25,-1.588 0.682,-0.227 1.022,-0.681 1.022,-1.362 0.001,-1.02 -0.567,-1.587 -1.701,-1.587 z m -0.114,0.679 c 0.793,-0.112 1.135,0.227 1.247,0.907 -0.112,0.796 -0.566,1.136 -1.475,1.136 h -2.608 v -2.043 z m 0.114,2.611 c 0.795,0 1.248,0.453 1.248,1.247 0,0.794 -0.453,1.135 -1.475,1.135 h -2.723 v -2.382 z m 15.997,-1.588 c 0,-1.135 -0.68,-1.702 -1.928,-1.702 h -3.404 v 6.239 h 0.568 v -2.722 h 2.609 c 0.906,0 1.475,0.453 1.475,1.474 0,0.453 0,0.908 0.112,1.248 h 0.682 l -0.226,-1.248 c 0,-1.134 -0.342,-1.701 -1.022,-1.701 0.795,-0.227 1.134,-0.794 1.134,-1.588 z m -1.928,-1.023 c 0.907,-0.112 1.248,0.227 1.248,1.022 0,0.794 -0.454,1.247 -1.248,1.247 h -2.836 v -2.27 h 2.836 z m -5.333,0 v -0.68 h -4.879 v 6.239 h 4.993 V 81.19 h -4.425 v -2.382 h 4.196 v -0.567 h -4.196 V 76.198 Z M 3.632,75.519 H 2.836 L 0,81.758 h 0.68 l 0.909,-1.814 h 3.29 l 0.794,1.814 h 0.681 z m 0.906,3.857 H 1.815 l 1.362,-3.178 z m 10.78,-2.042 h 0.566 c -0.113,-1.248 -0.907,-1.929 -2.609,-1.929 -1.702,0 -2.497,0.566 -2.497,1.815 0,0.794 0.795,1.361 2.27,1.701 1.588,0.114 2.27,0.567 2.384,1.134 -0.114,0.907 -0.682,1.247 -1.929,1.247 -1.362,0 -2.157,-0.453 -2.157,-1.587 h -0.681 c 0.114,1.475 1.022,2.269 2.838,2.269 1.702,0 2.609,-0.682 2.609,-1.929 0,-0.906 -0.794,-1.474 -2.27,-1.701 -1.587,-0.228 -2.269,-0.681 -2.269,-1.249 0,-0.794 0.566,-1.134 1.702,-1.134 1.248,10e-4 1.929,0.454 2.043,1.363 z m 4.879,-1.136 h 2.382 v -0.68 h -5.447 v 0.68 h 2.384 v 5.56 h 0.681 z m 6.467,-0.679 H 25.87 l -2.836,6.239 h 0.68 l 0.908,-1.814 h 3.29 l 0.795,1.814 h 0.68 z m 0.908,3.857 h -2.723 l 1.361,-3.178 z m 6.693,-3.857 h -3.29 v 6.239 h 0.567 v -2.722 h 2.496 c 1.022,0 1.476,0.453 1.476,1.474 l 0.227,1.248 h 0.681 c -0.114,-0.113 -0.228,-0.567 -0.228,-1.248 0,-1.134 -0.453,-1.701 -1.021,-1.701 0.794,-0.227 1.135,-0.794 1.135,-1.588 0,-1.135 -0.681,-1.702 -2.043,-1.702 z m 0.114,0.679 c 0.794,-0.112 1.248,0.227 1.248,1.022 0,0.794 -0.454,1.247 -1.362,1.247 h -2.723 v -2.27 h 2.837 z m 9.985,-0.679 H 43.57 l -2.837,6.239 h 0.681 l 0.794,-1.814 h 3.291 l 0.908,1.814 h 0.679 z m 0.908,3.857 h -2.723 l 1.361,-3.178 z m 3.858,-3.857 h -0.682 v 6.239 H 53.1 V 81.19 h -3.97 z m 6.013,0 h -0.681 v 6.239 h 4.652 V 81.19 h -3.971 z m 5.446,0 h 0.568 v 6.239 h -0.568 z m 23.6,2.155 c -0.114,-1.476 -1.136,-2.269 -2.95,-2.269 -1.135,0 -1.929,0.453 -2.61,1.134 -0.454,0.566 -0.794,1.248 -0.794,2.155 0,2.155 1.134,3.177 3.404,3.29 1.814,0 2.836,-0.907 3.063,-2.495 H 83.62 c -0.228,1.247 -1.021,1.813 -2.382,1.813 -1.816,0 -2.61,-0.906 -2.61,-2.608 0,-1.816 0.793,-2.723 2.61,-2.723 1.361,0 2.154,0.567 2.382,1.702 h 0.569 z M 71.141,75.519 h -0.795 v 6.239 h 0.682 v -5.219 l 4.312,5.219 h 0.794 v -6.239 h -0.682 v 5.331 z m -4.993,0 h -0.68 l -2.836,6.239 h 0.68 l 0.794,-1.814 h 3.292 l 0.792,1.814 h 0.794 z m 1.021,3.857 h -2.723 l 1.361,-3.178 z"
       id="path222" />
  </g>
  <g
     transform="matrix(2.117,0,0,2.117,-77.769296,0)"
     id="g138"
     clip-path="url(#clipPath260-7)">
    <path
       d="m 78.941,52.651 c 0.081,-0.317 0.159,-0.475 0.397,-0.635 H 76.8 c 0.238,0.237 0.317,0.396 0.397,0.715 l 0.079,0.396 v 6.028 l -0.079,0.477 c -0.08,0.317 -0.159,0.476 -0.397,0.634 h 2.539 c -0.158,-0.158 -0.238,-0.316 -0.397,-0.634 0,-0.157 -0.079,-0.237 -0.079,-0.477 v -6.028 c -0.001,-0.238 0.078,-0.318 0.078,-0.476 z m -3.252,7.774 c -0.475,-0.476 -0.713,-0.793 -1.11,-1.349 -0.714,-0.952 -1.111,-1.506 -1.745,-2.381 -0.079,-0.077 -0.16,-0.157 -0.239,-0.315 0.318,-0.159 0.477,-0.159 0.794,-0.397 0.238,-0.158 0.396,-0.316 0.555,-0.635 0.159,-0.396 0.238,-0.635 0.238,-1.03 0.079,-0.159 0,-0.238 0,-0.476 0,-1.11 -1.111,-1.825 -2.301,-1.825 h -3.966 c 0.159,0.16 0.237,0.317 0.317,0.556 0.08,0.236 0.08,0.316 0.08,0.477 v 6.188 c 0,0.158 0,0.238 -0.08,0.396 -0.08,0.317 -0.159,0.476 -0.317,0.634 h 2.538 c -0.238,-0.158 -0.316,-0.316 -0.396,-0.555 -0.08,-0.236 -0.08,-0.396 -0.08,-0.635 V 52.89 c 0.476,0 0.715,-0.08 1.19,0 0.793,0 1.427,0.557 1.427,1.27 v 0.477 c 0,0.237 -0.079,0.396 -0.237,0.713 -0.159,0.318 -0.317,0.397 -0.635,0.635 -0.318,0.158 -0.555,0.238 -0.952,0.318 0.08,0.159 0.159,0.237 0.317,0.395 0.238,0.397 0.317,0.558 0.556,0.875 l 1.19,1.824 c 0.396,0.555 0.555,0.871 1.11,1.27 0.317,0.315 0.476,0.476 0.873,0.633 0.317,0.08 0.556,0.16 0.872,0.16 h 1.349 L 76.56,61.143 c -0.315,-0.242 -0.553,-0.401 -0.871,-0.718 z m 7.14,-5.63 c 0.476,-1.271 1.428,-2.063 2.777,-2.063 h 0.555 c 0.714,0 1.189,0.237 1.744,0.635 l 0.317,0.476 0.477,-1.429 -0.635,-0.236 C 87.667,52.018 87.43,51.938 87.033,51.86 L 86.24,51.78 h -1.111 c -0.316,0 -0.477,0.08 -0.714,0.158 -0.396,0.08 -0.634,0.08 -1.031,0.24 -0.872,0.396 -1.428,0.872 -1.903,1.665 -0.237,0.396 -0.316,0.634 -0.477,1.03 -0.079,0.317 -0.158,0.476 -0.158,0.794 v 1.029 c 0.079,0.16 0.079,0.24 0.079,0.477 0.079,0.318 0.159,0.557 0.318,0.874 0.237,0.555 0.396,0.793 0.871,1.19 0.397,0.317 0.556,0.553 1.111,0.793 l 1.189,0.396 c 0.317,0 0.477,0.079 0.714,0.079 h 1.111 c 0.159,0 0.316,-0.079 0.556,-0.079 l 0.792,-0.159 c 0.079,-0.078 0.079,-0.078 0.317,-0.158 l 0.08,-0.318 c 0.079,-0.235 0.079,-0.395 0.237,-0.713 -0.635,0.239 -1.031,0.478 -1.666,0.478 h -0.713 c -0.477,0 -0.715,-0.079 -1.191,-0.238 -1.03,-0.397 -1.585,-1.032 -1.823,-2.063 -0.079,-0.239 -0.159,-0.397 -0.159,-0.558 v -0.95 c 0.001,-0.399 0.081,-0.637 0.16,-0.952 z M 58.159,57.49 C 58.001,57.172 57.921,56.935 57.762,56.695 57.525,56.061 57.286,55.428 56.89,54.634 l -1.587,-3.729 c -0.316,-0.793 -0.555,-1.189 -0.872,-2.063 l -2.301,5.792 c -0.395,0.794 -0.634,1.348 -0.872,2.061 -0.159,0.24 -0.238,0.477 -0.318,0.795 -0.475,1.191 -0.713,1.984 -1.745,2.775 h 2.539 c -0.16,-0.158 -0.239,-0.396 -0.239,-0.634 0,-0.556 0.239,-0.793 0.397,-1.269 l 0.316,-0.873 0.159,-0.397 h 3.569 l 0.158,0.397 c 0.16,0.316 0.239,0.476 0.318,0.793 0.238,0.476 0.397,0.713 0.397,1.191 0.08,0.079 0.08,0.079 0.08,0.157 0,0.317 -0.08,0.397 -0.239,0.634 h 3.173 c -1.03,-0.71 -1.109,-1.582 -1.664,-2.774 z m -5.315,-1.428 1.271,-3.253 1.347,3.253 z m -7.932,-3.411 c 0.08,-0.317 0.158,-0.475 0.397,-0.635 H 42.77 c 0.239,0.16 0.317,0.317 0.397,0.635 0,0.157 0.079,0.237 0.079,0.476 v 2.38 h -4.045 v -2.38 c 0,-0.476 0.158,-0.793 0.477,-1.11 h -2.539 c 0.238,0.237 0.316,0.396 0.396,0.715 0,0.157 0.081,0.237 0.081,0.475 v 5.87 c 0,0.556 -0.081,0.873 -0.477,1.189 h 2.539 C 39.36,59.95 39.201,59.632 39.201,59.156 v -2.617 h 4.045 v 2.617 c 0,0.239 -0.079,0.398 -0.159,0.556 -0.079,0.238 -0.158,0.396 -0.317,0.555 h 2.539 C 45.15,60.109 45.07,59.951 44.912,59.712 l -0.079,-0.556 v -6.028 c 0,-0.239 0.079,-0.319 0.079,-0.477 z m 16.023,0.08 c 0.08,0.157 0.08,0.237 0.08,0.396 v 6.028 l -0.08,0.556 c -0.079,0.238 -0.158,0.396 -0.397,0.555 h 2.539 C 62.761,59.95 62.681,59.632 62.602,59.156 V 56.46 h 2.3 c 0.397,0 0.713,0.078 0.953,0.235 l 0.237,0.24 V 55.11 c -0.158,0.079 -0.158,0.079 -0.237,0.158 -0.397,0.238 -0.555,0.238 -0.953,0.238 h -2.3 v -2.458 h 2.538 c 0.475,0 0.873,0.078 1.19,0.476 l 0.396,-1.508 h -6.188 c 0.239,0.238 0.318,0.397 0.397,0.715 z m 43.311,-0.159 c 0.08,0.236 0.08,0.316 0.08,0.555 v 4.602 l -0.794,-1.033 -3.729,-4.679 h -1.982 c 0.316,0.317 0.396,0.635 0.396,1.189 v 6.03 c 0,0.158 0,0.238 -0.08,0.396 -0.079,0.317 -0.158,0.476 -0.316,0.634 h 2.141 c -0.158,-0.158 -0.236,-0.316 -0.396,-0.555 0,-0.236 -0.079,-0.316 -0.079,-0.475 v -5.157 l 2.063,2.616 2.776,3.57 h 1.269 v -7.139 c 0,-0.476 0.158,-0.793 0.476,-1.11 h -2.141 c 0.158,0.161 0.237,0.318 0.316,0.556 z M 6.361,54.317 C 5.488,53.92 4.933,53.683 4.14,53.206 3.663,52.889 3.425,52.572 3.425,52.017 v -0.158 c 0.08,-0.635 0.477,-1.032 1.032,-1.271 0.238,-0.079 0.396,-0.157 0.714,-0.157 h 0.476 c 0.396,0 0.635,0.078 1.031,0.238 0.396,0.157 0.635,0.317 0.872,0.634 0.159,0.238 0.239,0.396 0.397,0.556 l 0.555,-1.507 c 0,-0.08 -0.08,-0.08 -0.08,-0.08 L 8.105,50.114 C 7.788,49.877 7.629,49.877 7.232,49.718 L 6.519,49.56 H 4.298 l -0.793,0.237 c -1.111,0.395 -1.825,1.11 -1.904,2.3 v 0.238 c 0,1.508 1.031,2.301 2.379,2.935 0.873,0.477 1.349,0.634 2.143,1.191 l 0.317,0.235 c 0.238,0.318 0.396,0.636 0.396,1.033 0,1.03 -0.952,1.746 -1.983,1.746 H 4.378 c -0.397,0 -0.556,0 -0.873,-0.159 C 2.712,59.077 2.394,58.682 1.919,58.125 L 1.284,59.79 c 0.555,0.318 0.952,0.398 1.586,0.558 0.396,0.078 0.635,0.157 1.11,0.157 0.477,0 0.794,0.08 1.27,0 0.952,-0.079 1.507,-0.157 2.3,-0.715 0.794,-0.553 1.111,-1.188 1.191,-2.141 v -0.396 l -0.08,-0.558 c -0.317,-1.107 -1.19,-1.823 -2.3,-2.378 z m 22.766,-0.951 c 0.159,-0.239 0.317,-0.317 0.555,-0.397 0.238,-0.08 0.396,-0.16 0.635,-0.16 h 1.427 v 6.268 c 0,0.556 -0.158,0.873 -0.476,1.189 h 2.539 C 33.648,60.108 33.569,59.95 33.49,59.711 33.41,59.475 33.331,59.395 33.331,59.155 v -6.267 c 0.634,0 0.952,-0.08 1.507,0 0.318,0 0.556,0 0.873,0.238 l 0.239,0.239 0.316,-1.35 h -7.457 z m -3.015,-0.635 0.08,0.317 v 4.362 c 0,0.317 -0.08,0.555 -0.158,0.872 -0.08,0.317 -0.159,0.476 -0.397,0.793 -0.158,0.239 -0.317,0.318 -0.635,0.398 -0.237,0.079 -0.317,0.157 -0.555,0.157 h -0.476 c -0.238,0 -0.396,-0.078 -0.634,-0.157 -0.318,-0.159 -0.476,-0.238 -0.635,-0.479 -0.237,-0.237 -0.317,-0.475 -0.396,-0.791 -0.079,-0.239 -0.079,-0.398 -0.079,-0.635 v -4.443 c 0,-0.476 0.158,-0.793 0.396,-1.11 h -2.538 c 0.158,0.16 0.237,0.317 0.317,0.556 0.08,0.236 0.159,0.316 0.159,0.555 v 4.204 c 0,0.476 0,0.793 0.159,1.19 0.159,0.475 0.318,0.715 0.635,1.11 0.159,0.157 0.317,0.317 0.555,0.397 0.159,0.158 0.317,0.236 0.556,0.317 0.396,0.078 0.635,0.157 1.11,0.157 h 0.952 c 0.555,0 0.793,-0.079 1.269,-0.238 0.396,-0.158 0.635,-0.316 0.952,-0.712 0.397,-0.478 0.556,-0.795 0.634,-1.43 0.08,-0.238 0.08,-0.396 0.08,-0.713 v -0.716 l 0.079,-3.568 c 0,-0.476 0.08,-0.793 0.396,-1.11 h -2.221 c 0.237,0.163 0.316,0.399 0.395,0.717 z m 70.44,6.584 -0.556,-1.191 C 95.759,57.57 95.52,57.172 95.362,56.695 95.204,56.46 95.124,56.22 94.966,55.902 94.569,55.189 94.41,54.872 94.093,54.158 L 93.458,52.731 C 93.3,52.493 93.221,52.334 93.141,52.016 L 92.825,51.46 c -0.08,0.317 -0.238,0.556 -0.396,0.873 -0.239,0.475 -0.318,0.793 -0.556,1.35 -0.397,0.871 -0.635,1.347 -0.952,2.219 -0.158,0.318 -0.316,0.558 -0.396,0.793 -0.16,0.397 -0.397,0.795 -0.556,1.271 -0.476,0.952 -0.715,1.509 -1.349,2.3 h 2.142 c -0.158,-0.078 -0.237,-0.316 -0.237,-0.555 0,-0.396 0.157,-0.635 0.316,-0.952 l 0.396,-1.03 h 2.935 c 0.158,0.396 0.238,0.635 0.396,0.953 0.159,0.395 0.317,0.634 0.317,1.029 0,0.238 -0.079,0.396 -0.317,0.555 h 2.777 C 96.948,59.949 96.79,59.711 96.552,59.315 Z m -2.856,-2.539 h -2.063 l 0.08,-0.081 0.951,-2.299 1.031,2.299 v 0.081 z M 15.563,51.541 c -0.317,-0.08 -0.476,-0.08 -0.793,-0.08 h -0.793 c -0.318,0 -0.396,0 -0.714,0.08 -0.238,0.078 -0.476,0.078 -0.714,0.237 -0.713,0.238 -1.031,0.476 -1.507,1.03 -0.396,0.558 -0.634,0.953 -0.793,1.667 -0.159,0.476 -0.238,0.714 -0.238,1.112 v 1.107 l 0.159,0.477 c 0.079,0.318 0.079,0.557 0.238,0.874 0.555,1.27 1.269,1.983 2.538,2.301 0.396,0.157 0.635,0.157 1.031,0.157 h 0.793 c 0.396,0 0.635,0 1.031,-0.157 1.349,-0.397 2.142,-1.11 2.618,-2.461 l 0.238,-0.872 v -0.318 c 0.079,-0.077 0.079,-0.157 0.079,-0.315 v -0.792 c 0,-0.558 -0.079,-0.875 -0.317,-1.43 -0.477,-1.427 -1.429,-2.3 -2.856,-2.617 z m 1.427,4.997 c 0,0.08 0,0.08 -0.08,0.157 0,0.24 0,0.318 -0.079,0.558 -0.317,1.269 -1.111,2.379 -2.459,2.379 -1.269,0 -2.142,-1.031 -2.459,-2.301 l -0.079,-0.636 c -0.08,-0.077 -0.08,-0.157 -0.08,-0.315 v -0.792 c 0,-0.398 0.08,-0.637 0.238,-1.033 0.159,-0.555 0.317,-0.951 0.714,-1.428 0.238,-0.318 0.476,-0.396 0.793,-0.555 0.238,-0.079 0.396,-0.159 0.634,-0.159 h 0.477 c 0.158,0 0.238,0 0.396,0.08 0.396,0.079 0.555,0.238 0.872,0.476 0.397,0.316 0.556,0.635 0.793,1.11 l 0.238,0.951 c 0,0.159 0.08,0.238 0.08,0.477 v 1.031 z M 123.119,52.89 c 0.078,-0.317 0.158,-0.477 0.396,-0.636 h -2.46 c 0.237,0.239 0.317,0.397 0.397,0.716 v 6.267 c 0,0.158 0,0.317 -0.08,0.475 -0.08,0.238 -0.158,0.396 -0.317,0.636 h 2.46 l -0.396,-0.636 -0.08,-0.475 v -5.87 c 0,-0.24 0.08,-0.318 0.08,-0.477 z m 10.811,8.25 c -0.317,-0.238 -0.555,-0.397 -0.872,-0.715 -0.476,-0.476 -0.714,-0.793 -1.11,-1.27 -0.714,-1.031 -1.111,-1.585 -1.904,-2.617 0.316,-0.158 0.476,-0.158 0.793,-0.396 0.239,-0.159 0.317,-0.318 0.556,-0.636 0.159,-0.317 0.239,-0.555 0.239,-0.952 V 54.08 c -0.08,-1.11 -1.112,-1.826 -2.302,-1.826 h -3.887 c 0.236,0.159 0.317,0.318 0.396,0.557 0.079,0.239 0.079,0.316 0.079,0.475 v 5.951 c 0,0.158 0,0.317 -0.079,0.475 -0.079,0.238 -0.16,0.396 -0.396,0.636 h 2.537 c -0.237,-0.239 -0.315,-0.397 -0.396,-0.636 -0.079,-0.157 -0.079,-0.316 -0.079,-0.556 v -6.028 c 0.475,0 0.714,-0.078 1.189,0 0.714,0 1.349,0.557 1.349,1.27 v 0.398 c 0,0.315 -0.078,0.474 -0.238,0.712 -0.157,0.317 -0.317,0.396 -0.634,0.636 -0.317,0.158 -0.477,0.237 -0.874,0.317 0.081,0.158 0.16,0.238 0.319,0.396 0.158,0.318 0.316,0.476 0.555,0.793 0.477,0.715 0.715,1.11 1.188,1.746 0.396,0.555 0.556,0.871 1.032,1.27 0.316,0.315 0.475,0.476 0.793,0.634 0.318,0.079 0.557,0.159 0.873,0.159 h 1.269 c -0.079,-0.161 -0.237,-0.161 -0.396,-0.319 z m 16.955,-1.825 c -0.237,-0.397 -0.317,-0.634 -0.555,-1.11 -0.397,-0.794 -0.556,-1.27 -1.03,-2.142 l -0.793,-1.667 -0.636,-1.348 c -0.079,-0.317 -0.159,-0.477 -0.317,-0.715 l -0.237,-0.555 c -0.08,0.316 -0.239,0.555 -0.397,0.872 l -0.555,1.269 c -0.397,0.875 -0.634,1.27 -0.951,2.144 -0.317,0.792 -0.558,1.268 -0.953,2.061 -0.397,0.872 -0.635,1.43 -1.27,2.223 h 2.142 c -0.236,-0.159 -0.236,-0.317 -0.236,-0.558 0,-0.395 0.078,-0.634 0.236,-0.95 0.159,-0.397 0.238,-0.634 0.398,-0.951 h 2.854 c 0.157,0.317 0.238,0.554 0.397,0.951 0.158,0.316 0.317,0.556 0.317,0.95 0,0.24 -0.159,0.318 -0.317,0.558 h 2.695 c -0.395,-0.318 -0.553,-0.558 -0.792,-1.032 z m -4.76,-2.379 1.031,-2.301 1.032,2.301 z m 15.953,-1.191 c -0.713,-0.316 -1.11,-0.477 -1.664,-0.873 -0.396,-0.237 -0.636,-0.476 -0.636,-0.952 0,0 0,-0.078 0.079,-0.078 0,-0.476 0.318,-0.793 0.795,-0.952 0.158,-0.079 0.315,-0.158 0.474,-0.158 h 0.398 c 0.317,0 0.554,0.079 0.793,0.238 0.318,0.079 0.476,0.236 0.714,0.476 l 0.238,0.396 0.474,-1.11 c 0,-0.08 -0.078,-0.08 -0.078,-0.08 l -0.236,-0.158 c -0.238,-0.159 -0.397,-0.159 -0.636,-0.239 l -0.634,-0.158 h -1.667 l -0.635,0.158 c -0.793,0.318 -1.348,0.873 -1.427,1.746 v 0.237 c 0,1.11 0.792,1.746 1.824,2.223 0.635,0.317 1.031,0.476 1.666,0.951 0.317,0.237 0.556,0.477 0.556,0.952 0,0.792 -0.715,1.348 -1.509,1.348 h -0.396 c -0.317,0 -0.396,-0.079 -0.715,-0.157 -0.556,-0.159 -0.793,-0.478 -1.189,-0.952 l -0.476,1.27 c 0.476,0.236 0.714,0.395 1.27,0.476 l 0.793,0.158 h 0.952 c 0.714,-0.08 1.188,-0.158 1.744,-0.556 0.635,-0.475 0.873,-0.953 0.953,-1.666 v -0.317 c -0.079,-1.113 -0.793,-1.747 -1.825,-2.223 z m -6.203,-3.173 c 0.079,0.238 -0.079,0.477 -0.237,0.713 -0.16,0.318 -1.35,2.381 -1.35,2.381 0,0 -1.109,-1.904 -1.269,-2.3 -0.159,-0.317 -0.238,-0.396 -0.238,-0.635 0,-0.239 0.079,-0.318 0.159,-0.478 h -2.301 c 0.317,0.159 0.556,0.397 0.794,0.795 0.236,0.317 1.745,3.015 1.982,3.569 v 2.776 c 0,0.237 0.078,0.635 -0.237,0.952 h 2.062 c -0.317,-0.317 -0.317,-0.636 -0.317,-0.952 v -2.776 c 0,0 1.189,-2.143 1.587,-2.776 0.396,-0.715 0.476,-0.952 1.269,-1.588 h -2.062 c 0.158,0.081 0.158,0.16 0.158,0.319 z M 143.87,52.334 h -1.904 c 0,0 0.397,0.159 0.159,0.872 -0.239,1.27 -1.35,4.918 -1.35,4.918 l -2.221,-5.87 -1.903,5.87 c 0,0 -1.428,-4.918 -1.428,-5.234 0,-0.158 0,-0.477 0.316,-0.636 h -2.458 c 0.555,0.478 0.712,0.873 0.793,1.112 l 1.825,6.899 h 1.348 l 1.428,-4.282 1.428,4.282 h 1.35 l 1.824,-6.662 c 0.158,-0.554 0.317,-0.952 0.793,-1.269 z m -25.675,5.156 c -0.157,-0.318 -0.238,-0.555 -0.396,-0.795 -0.237,-0.634 -0.477,-1.267 -0.872,-2.061 l -1.587,-3.729 c -0.317,-0.793 -0.556,-1.189 -0.872,-2.063 l -2.301,5.792 c -0.396,0.794 -0.635,1.348 -0.872,2.061 -0.159,0.24 -0.239,0.477 -0.318,0.795 -0.475,1.191 -0.714,1.984 -1.744,2.775 h 2.538 c -0.159,-0.158 -0.238,-0.396 -0.238,-0.634 0,-0.556 0.238,-0.793 0.396,-1.269 l 0.318,-0.873 0.157,-0.397 h 3.57 l 0.158,0.397 c 0.159,0.316 0.238,0.476 0.318,0.793 0.237,0.476 0.396,0.713 0.396,1.191 0.079,0.079 0.079,0.079 0.079,0.157 0,0.317 -0.079,0.397 -0.238,0.634 h 3.173 c -1.029,-0.71 -1.109,-1.582 -1.665,-2.774 z m -5.314,-1.428 1.27,-3.253 1.348,3.253 z"
       fill="#24275f"
       id="path70" />
    <path
       d="M 61.636,44.377 44.456,0.167 44.57,0.121 44.456,0.167 44.391,0 h 19.082 l 48.708,44.377 z"
       fill="#a7a9ac"
       id="path72" />
    <path
       d="m 44.57,0.121 h 18.856 l 48.441,44.134 H 61.719 Z"
       fill="#ffffff"
       id="path74" />
    <path
       d="m 64.32,15.076 h 1.951 l 14.792,17.883 -2.438,1.786 z"
       fill="#549f60"
       id="path76" />
    <path
       d="M 51.722,14.78 62.288,42.033 78.937,33.109 65.624,15.854 Z"
       fill="url(#b)"
       id="path78"
       style="fill:url(#b-5)" />
    <path
       d="M 80.439,17.001 66.128,15.894 79.454,32.833 90.897,26.7 Z"
       fill="url(#c)"
       id="path80"
       style="fill:url(#c-0)" />
    <path
       d="M 55.38,0.854 H 53.023 L 63.995,15.24 h 3.088 z"
       fill="#f15d4a"
       id="path82" />
    <path
       d="M 46.357,1.287 51.451,14.942 64.94,14.968 54.385,1.287 Z"
       fill="url(#e)"
       id="path84"
       style="fill:url(#e-9)" />
    <path
       d="m 62.884,1.287 h -8.246 l 10.763,13.684 12.926,0.025 z"
       fill="url(#f)"
       id="path86"
       style="fill:url(#f-1)" />
    <path
       d="m 78.489,33.798 2.384,-1.301 8.887,10.73 -4.335,0.215 z"
       fill="#5c5a91"
       id="path88" />
    <path
       d="m 61.909,41.98 0.433,1.246 24.444,0.058 -7.092,-9.191 z"
       fill="url(#h)"
       id="path90"
       style="fill:url(#h-1)" />
    <path
       d="m 92.577,28.38 -12.326,5.467 7.427,9.439 20.829,0.048 0.326,-0.758 z"
       fill="url(#i)"
       id="path92"
       style="fill:url(#i-6)" />
    <path
       d="M 50.584,14.509 81.902,23.231 61.909,41.98 61.691,41.33 69.494,26.808 Z"
       fill="url(#j)"
       id="path94"
       style="fill:url(#linearGradient248)" />
    <circle
       cx="57.112999"
       cy="8.3039999"
       fill="url(#k)"
       r="3.766"
       id="circle96"
       style="fill:url(#linearGradient250)" />
    <path
       d="M 51.641,15.32 69.494,26.808 61.691,41.33 Z"
       fill="#010101"
       id="path98" />
    <path
       d="M 54.678,1.667 64.499,14.396 64.95,14.397 54.935,1.667 Z M 65.922,16.241 78.711,32.817 79.226,32.542 66.437,16.285 Z m 14.678,18.048 -0.557,0.254 6.302,8.169 h 0.881 z"
       fill="#ffffff"
       fill-opacity="0.15"
       id="path100" />
    <path
       d="M 86.672,42.712 H 62.775 L 62.69,42.489 80.263,34.443 78.916,32.708 62.337,41.582 52.022,15.038 66.167,16.264 64.72,14.397 51.761,14.364 46.826,1.667 h 8.025 L 53.653,0.121 H 44.57 l 17.149,44.134 h 26.15 z"
       fill="url(#m)"
       id="path102"
       style="fill:url(#m-3)" />
    <path
       d="m 54.851,1.667 h 7.977 l 14.006,12.759 -12.114,-0.029 1.447,1.867 14.013,1.212 10.064,9.169 -11.328,6.063 1.347,1.735 12.339,-5.651 15.277,13.92 H 86.672 l 1.197,1.543 h 23.998 L 63.426,0.121 h -9.773 z"
       fill="url(#n)"
       id="path104"
       style="fill:url(#n-5)" />
    <path
       d="M 0.516,66.022 H 163.988"
       fill="none"
       stroke="#000000"
       id="path106" />
    <path
       d="m 151.018,75.858 -3.177,0.113 3.063,1.815 3.178,-1.589 z"
       fill="#d9d9d9"
       id="path108" />
    <path
       d="m 150.904,77.787 -0.114,3.631 1.816,-2.496 1.476,-2.724 z"
       fill="#262626"
       id="path110" />
    <path
       d="m 150.79,81.418 0.114,-3.631 -3.063,-1.815 1.36,2.837 z"
       fill="#9e9e9e"
       id="path112" />
    <path
       d="m 159.187,73.247 v 3.064 l 0.455,3.064 1.588,-3.178 z"
       fill="#d9d9d9"
       id="path114" />
    <path
       d="m 164.747,75.972 -3.518,0.227 -1.588,3.178 2.607,-1.589 z"
       fill="#262626"
       id="path116" />
    <path
       d="m 161.229,76.198 3.518,-0.227 -2.724,-1.588 -2.837,-1.137 z m -3.176,-0.453 -0.681,-3.064 -1.021,-2.837 -0.909,3.403 z"
       fill="#9e9e9e"
       id="path118" />
    <path
       d="m 154.989,75.178 3.063,0.567 -2.611,-2.498 -3.402,1.023 z"
       fill="#262626"
       id="path120" />
    <path
       d="m 156.351,69.844 -2.383,2.043 -1.929,2.384 3.402,-1.023 z"
       fill="#d9d9d9"
       id="path122" />
    <path
       d="m 162.249,82.779 0.114,-3.063 -2.154,2.838 1.246,3.289 z"
       fill="#9e9e9e"
       id="path124" />
    <path
       d="m 160.209,82.554 2.154,-2.838 -2.95,0.908 -2.722,1.36 z"
       fill="#d9d9d9"
       id="path126" />
    <path
       d="m 156.691,81.984 2.269,2.156 2.495,1.702 -1.246,-3.289 z m 0.568,2.724 h -0.114 l -3.29,-1.135 -2.723,2.27 3.063,-0.341 2.95,-0.681 z"
       fill="#262626"
       id="path128" />
    <path
       d="m 157.145,84.708 -1.703,-2.496 -2.269,-2.156 0.682,3.518 z m 0,0.113 h 0.114 v -0.113 z"
       fill="#9e9e9e"
       id="path130" />
    <path
       d="m 151.132,85.843 2.723,-2.27 -0.682,-3.518 z"
       fill="#d9d9d9"
       id="path132" />
    <path
       d="m 167.128,74.042 v 1.477 h 0.114 v -1.477 h 0.681 v -0.113 h -1.474 v 0.113 z m 2.726,-0.113 -0.683,1.36 -0.682,-1.36 h -0.224 v 1.59 h 0.224 v -1.365 l 0.568,1.365 h 0.229 l 0.681,-1.365 v 1.365 h 0.112 v -1.59 z"
       id="path134" />
    <path
       d="m 86.797,76.198 h 4.313 v -0.68 h -4.88 v 6.239 h 4.994 V 81.19 h -4.428 v -2.382 h 4.2 v -0.567 h -4.2 v -2.043 z m 16.794,-0.679 h -1.022 l -2.723,5.444 -2.721,-5.444 h -1.023 v 6.239 h 0.682 v -5.333 l 2.723,5.333 h 0.681 l 2.724,-5.333 v 5.333 h 0.681 v -6.239 z m 6.922,0.679 v -0.68 h -4.879 v 6.239 h 4.992 V 81.19 h -4.313 v -2.382 h 4.085 v -0.567 h -4.085 v -2.043 z m 9.188,-0.679 h -0.906 l -2.723,5.444 -2.837,-5.444 h -0.908 v 6.239 h 0.681 v -5.333 l 2.723,5.333 h 0.567 l 2.724,-5.333 v 5.333 h 0.68 v -6.239 z m 5.561,0 h -3.518 v 6.239 h 3.404 c 1.361,0 2.043,-0.567 2.043,-1.702 0,-0.906 -0.453,-1.474 -1.25,-1.588 0.682,-0.227 1.022,-0.681 1.022,-1.362 0.001,-1.02 -0.567,-1.587 -1.701,-1.587 z m -0.114,0.679 c 0.793,-0.112 1.135,0.227 1.247,0.907 -0.112,0.796 -0.566,1.136 -1.475,1.136 h -2.608 v -2.043 z m 0.114,2.611 c 0.795,0 1.248,0.453 1.248,1.247 0,0.794 -0.453,1.135 -1.475,1.135 h -2.723 v -2.382 z m 15.997,-1.588 c 0,-1.135 -0.68,-1.702 -1.928,-1.702 h -3.404 v 6.239 h 0.568 v -2.722 h 2.609 c 0.906,0 1.475,0.453 1.475,1.474 0,0.453 0,0.908 0.112,1.248 h 0.682 l -0.226,-1.248 c 0,-1.134 -0.342,-1.701 -1.022,-1.701 0.795,-0.227 1.134,-0.794 1.134,-1.588 z m -1.928,-1.023 c 0.907,-0.112 1.248,0.227 1.248,1.022 0,0.794 -0.454,1.247 -1.248,1.247 h -2.836 v -2.27 h 2.836 z m -5.333,0 v -0.68 h -4.879 v 6.239 h 4.993 V 81.19 h -4.425 v -2.382 h 4.196 v -0.567 h -4.196 V 76.198 Z M 3.632,75.519 H 2.836 L 0,81.758 h 0.68 l 0.909,-1.814 h 3.29 l 0.794,1.814 h 0.681 z m 0.906,3.857 H 1.815 l 1.362,-3.178 z m 10.78,-2.042 h 0.566 c -0.113,-1.248 -0.907,-1.929 -2.609,-1.929 -1.702,0 -2.497,0.566 -2.497,1.815 0,0.794 0.795,1.361 2.27,1.701 1.588,0.114 2.27,0.567 2.384,1.134 -0.114,0.907 -0.682,1.247 -1.929,1.247 -1.362,0 -2.157,-0.453 -2.157,-1.587 h -0.681 c 0.114,1.475 1.022,2.269 2.838,2.269 1.702,0 2.609,-0.682 2.609,-1.929 0,-0.906 -0.794,-1.474 -2.27,-1.701 -1.587,-0.228 -2.269,-0.681 -2.269,-1.249 0,-0.794 0.566,-1.134 1.702,-1.134 1.248,10e-4 1.929,0.454 2.043,1.363 z m 4.879,-1.136 h 2.382 v -0.68 h -5.447 v 0.68 h 2.384 v 5.56 h 0.681 z m 6.467,-0.679 H 25.87 l -2.836,6.239 h 0.68 l 0.908,-1.814 h 3.29 l 0.795,1.814 h 0.68 z m 0.908,3.857 h -2.723 l 1.361,-3.178 z m 6.693,-3.857 h -3.29 v 6.239 h 0.567 v -2.722 h 2.496 c 1.022,0 1.476,0.453 1.476,1.474 l 0.227,1.248 h 0.681 c -0.114,-0.113 -0.228,-0.567 -0.228,-1.248 0,-1.134 -0.453,-1.701 -1.021,-1.701 0.794,-0.227 1.135,-0.794 1.135,-1.588 0,-1.135 -0.681,-1.702 -2.043,-1.702 z m 0.114,0.679 c 0.794,-0.112 1.248,0.227 1.248,1.022 0,0.794 -0.454,1.247 -1.362,1.247 h -2.723 v -2.27 h 2.837 z m 9.985,-0.679 H 43.57 l -2.837,6.239 h 0.681 l 0.794,-1.814 h 3.291 l 0.908,1.814 h 0.679 z m 0.908,3.857 h -2.723 l 1.361,-3.178 z m 3.858,-3.857 h -0.682 v 6.239 H 53.1 V 81.19 h -3.97 z m 6.013,0 h -0.681 v 6.239 h 4.652 V 81.19 h -3.971 z m 5.446,0 h 0.568 v 6.239 h -0.568 z m 23.6,2.155 c -0.114,-1.476 -1.136,-2.269 -2.95,-2.269 -1.135,0 -1.929,0.453 -2.61,1.134 -0.454,0.566 -0.794,1.248 -0.794,2.155 0,2.155 1.134,3.177 3.404,3.29 1.814,0 2.836,-0.907 3.063,-2.495 H 83.62 c -0.228,1.247 -1.021,1.813 -2.382,1.813 -1.816,0 -2.61,-0.906 -2.61,-2.608 0,-1.816 0.793,-2.723 2.61,-2.723 1.361,0 2.154,0.567 2.382,1.702 h 0.569 z M 71.141,75.519 h -0.795 v 6.239 h 0.682 v -5.219 l 4.312,5.219 h 0.794 v -6.239 h -0.682 v 5.331 z m -4.993,0 h -0.68 l -2.836,6.239 h 0.68 l 0.794,-1.814 h 3.292 l 0.792,1.814 h 0.794 z m 1.021,3.857 h -2.723 l 1.361,-3.178 z"
       id="path136" />
  </g>
</svg>
