<?xml version="1.0" encoding="UTF-8" standalone="no"?>
<!-- Created with Inkscape (http://www.inkscape.org/) -->

<svg
   xmlns:dc="http://purl.org/dc/elements/1.1/"
   xmlns:cc="http://creativecommons.org/ns#"
   xmlns:rdf="http://www.w3.org/1999/02/22-rdf-syntax-ns#"
   xmlns:svg="http://www.w3.org/2000/svg"
   xmlns="http://www.w3.org/2000/svg"
   xmlns:sodipodi="http://sodipodi.sourceforge.net/DTD/sodipodi-0.dtd"
   xmlns:inkscape="http://www.inkscape.org/namespaces/inkscape"
   width="37.05867"
   height="35.57856"
   viewBox="0 0 9.8051068 9.4134939"
   version="1.1"
   id="svg4670"
   inkscape:version="0.92.0 r15299"
   sodipodi:docname="tasili airlines.svg">
  <defs
     id="defs4664">
    <clipPath
       id="clipPath3192"
       clipPathUnits="userSpaceOnUse">
      <path
         inkscape:connector-curvature="0"
         id="path3190"
         d="m 236.477,772.914 h 27.044 v 25.935 h -27.044 z" />
    </clipPath>
  </defs>
  <sodipodi:namedview
     id="base"
     pagecolor="#ffffff"
     bordercolor="#666666"
     borderopacity="1.0"
     inkscape:pageopacity="0.0"
     inkscape:pageshadow="2"
     inkscape:zoom="15.413534"
     inkscape:cx="18.02947"
     inkscape:cy="17.288289"
     inkscape:document-units="mm"
     inkscape:current-layer="layer1"
     showgrid="false"
     fit-margin-top="0"
     fit-margin-left="0"
     fit-margin-right="0"
     fit-margin-bottom="0"
     units="px"
     inkscape:window-width="1280"
     inkscape:window-height="744"
     inkscape:window-x="-4"
     inkscape:window-y="-4"
     inkscape:window-maximized="1" />
  <metadata
     id="metadata4667">
    <rdf:RDF>
      <cc:Work
         rdf:about="">
        <dc:format>image/svg+xml</dc:format>
        <dc:type
           rdf:resource="http://purl.org/dc/dcmitype/StillImage" />
        <dc:title></dc:title>
      </cc:Work>
    </rdf:RDF>
  </metadata>
  <g
     inkscape:label="Layer 1"
     inkscape:groupmode="layer"
     id="layer1"
     transform="translate(-7.7029172,-143.99404)">
    <g
       id="g5065"
       transform="translate(0.13229132,-0.13228808)">
      <path
         d="m 8.4026881,153.11531 c 0,0.0977 0,0.13758 0.063147,0.13758 0.022931,0 0.045861,-0.0113 0.063147,-0.0113 0.011289,0 0.011289,0 0.011289,0.0173 0,0.0402 -0.017286,0.0229 -0.1090083,0.0459 -0.1090083,0.0286 -0.1545167,0.0628 -0.1605139,0.0628 -0.011289,0 -0.022578,-0.006 -0.022578,-0.0169 0,-0.0116 0.016933,-0.0342 0.022578,-0.0801 0.006,-0.0748 0.011642,-0.26987 0.011642,-0.57961 v -0.0688 c 0,-0.16087 0,-0.25259 -0.022931,-0.27552 -0.017286,-0.0173 -0.063147,-0.0229 -0.149225,-0.0229 -0.1033639,0 -0.1778,0.006 -0.2236611,0.0342 -0.040217,0.0173 -0.051506,0.0519 -0.063147,0.0519 -0.011289,0 -0.017639,-0.006 -0.017639,-0.0229 v -0.0289 -0.0857 -0.0233 c 0,-0.0169 0,-0.0229 0.023283,-0.0229 0.022931,0 0.1661584,0.006 0.4303889,0.006 0.3499556,0 0.5506861,-0.006 0.5965472,-0.006 0.016933,0 0.022931,0 0.022931,0.0176 0,0.0459 -0.011642,0.0459 -0.045861,0.0459 -0.1375834,0.006 -0.2811639,0.0226 -0.4191,0.0459 -0.011289,0.37853 -0.011289,0.63676 -0.011289,0.77999"
         style="fill:#231f20;fill-opacity:1;fill-rule:nonzero;stroke:none;stroke-width:0.35277778"
         id="path3196"
         inkscape:connector-curvature="0" />
      <path
         d="m 9.0854225,153.0007 v 0.0286 c 0,0.13759 -0.063147,0.21802 -0.1375833,0.2413 v 0.0515 c 0.045861,-0.0233 0.086078,-0.0515 0.1259416,-0.0977 0.011642,0.0921 0.051858,0.13194 0.1262945,0.13194 0.057503,0 0.1319389,-0.0286 0.1319389,-0.0515 0,-0.0289 -0.028575,-0.006 -0.068792,-0.0289 -0.051506,-0.0229 -0.074436,-0.0801 -0.074436,-0.17181 0,-0.0519 0.00564,-0.12065 0.00564,-0.19508 0,-0.15487 -0.034572,-0.22402 -0.1778,-0.22402 -0.028575,0 -0.051505,0 -0.068792,0.006 v 0.0914 h 0.011289 c 0.086078,0 0.1262944,0.0522 0.1262944,0.16087 v 0.0173 c -0.051506,0.006 -0.097367,0.0173 -0.1375833,0.0346 v 0.0459 c 0.034219,-0.0173 0.086078,-0.0286 0.1375833,-0.0402 m -0.1375833,0.26987 c -0.017286,0.005 -0.034572,0.005 -0.057503,0.005 -0.051506,0 -0.086078,-0.0342 -0.086078,-0.0801 0,-0.0631 0.051858,-0.11501 0.1435806,-0.15487 v -0.0459 c -0.1778,0.0515 -0.269875,0.14358 -0.269875,0.24659 0,0.0748 0.045861,0.11465 0.1322916,0.11465 0.045861,0 0.091722,-0.0116 0.1375834,-0.0342 z m 0,-0.57961 v 0.0914 c -0.063147,0 -0.09772,0.0229 -0.12065,0.0229 0,0 -0.00564,-0.005 -0.00564,-0.0109 0,-0.0692 0.040217,-0.0977 0.1262945,-0.10337"
         style="fill:#231f20;fill-opacity:1;fill-rule:nonzero;stroke:none;stroke-width:0.35277778"
         id="path3200"
         inkscape:connector-curvature="0" />
      <path
         d="m 9.423874,153.33348 c -0.022931,-0.006 -0.022931,-0.0229 -0.022931,-0.0688 v -0.0173 c 0,-0.0631 0.006,-0.0804 0.028575,-0.0804 0.011642,0 0.017286,0.006 0.017286,0.0173 v 0.0113 c 0,0.0748 0.045861,0.10937 0.1375833,0.10937 0.1379361,0 0.2296583,-0.0804 0.2296583,-0.16087 0,-0.0402 -0.028575,-0.0631 -0.086078,-0.0631 h -0.074436 c -0.1262944,0 -0.1894416,-0.0402 -0.1894416,-0.15487 0,-0.13194 0.097719,-0.24095 0.2465916,-0.24095 0.086078,0 0.149225,0.0289 0.149225,0.0402 0,0.0286 -0.016933,0.0744 -0.028575,0.0744 -0.017286,0 -0.068792,-0.0342 -0.1605139,-0.0342 -0.080433,0 -0.1266472,0.0402 -0.1266472,0.10301 0,0.0748 0.063147,0.0804 0.1721556,0.0921 0.1379361,0.0113 0.2180166,0.0342 0.2180166,0.16616 0,0.13794 -0.1262944,0.2353 -0.3210277,0.2353 -0.1033639,0 -0.1721556,-0.0173 -0.1894417,-0.0286"
         style="fill:#231f20;fill-opacity:1;fill-rule:nonzero;stroke:none;stroke-width:0.35277778"
         id="path3204"
         inkscape:connector-curvature="0" />
      <path
         d="m 10.066423,153.33348 c -0.01693,-0.006 -0.01693,-0.0229 -0.01693,-0.0688 v -0.0173 c 0,-0.0631 0,-0.0804 0.02258,-0.0804 0.01729,0 0.02293,0.006 0.02293,0.0173 v 0.0113 c 0,0.0748 0.04586,0.10937 0.131939,0.10937 0.14358,0 0.235303,-0.0804 0.235303,-0.16087 0,-0.0402 -0.02858,-0.0631 -0.08608,-0.0631 h -0.07444 c -0.131939,0 -0.195086,-0.0402 -0.195086,-0.15487 0,-0.13194 0.103364,-0.24095 0.252589,-0.24095 0.08008,0 0.143227,0.0289 0.143227,0.0402 0,0.0286 -0.01164,0.0744 -0.02858,0.0744 -0.01729,0 -0.06315,-0.0342 -0.160514,-0.0342 -0.08043,0 -0.126647,0.0402 -0.126647,0.10301 0,0.0748 0.06315,0.0804 0.172509,0.0921 0.137583,0.0113 0.223308,0.0342 0.223308,0.16616 0,0.13794 -0.125942,0.2353 -0.327025,0.2353 -0.09737,0 -0.171803,-0.0173 -0.189089,-0.0286"
         style="fill:#231f20;fill-opacity:1;fill-rule:nonzero;stroke:none;stroke-width:0.35277778"
         id="path3208"
         inkscape:connector-curvature="0" />
      <path
         d="m 10.909739,153.28183 v 0.0286 c 0,0.0117 -0.0056,0.0229 -0.01729,0.0286 -0.05151,0.0173 -0.08608,0.0286 -0.08608,0.0286 -0.01129,0 -0.01129,-0.0286 -0.01129,-0.0801 v -0.37288 c 0,-0.0861 0,-0.12594 -0.05186,-0.12594 -0.01729,0 -0.02858,0.006 -0.04022,0.006 -0.01129,0 -0.01693,-0.0116 -0.01693,-0.0289 0,-0.0173 0.03457,-0.0173 0.09172,-0.0342 0.06879,-0.0229 0.103364,-0.0459 0.120297,-0.0459 0.006,0 0.02293,0.0113 0.02293,0.0229 0,0.0113 -0.01129,0.0917 -0.01129,0.23531 z"
         style="fill:#231f20;fill-opacity:1;fill-rule:nonzero;stroke:none;stroke-width:0.35277778"
         id="path3212"
         inkscape:connector-curvature="0" />
      <path
         d="m 11.185293,152.65646 c 0,-0.0632 -0.006,-0.10901 -0.006,-0.14323 0,-0.13793 -0.0056,-0.20673 -0.0056,-0.21801 0,-0.0229 0.0056,-0.0173 0.0575,-0.0289 0.08043,-0.0226 0.120297,-0.0402 0.131939,-0.0402 0.0056,0 0.01729,0.006 0.01729,0.0229 0,0.0173 -0.05186,0.0233 -0.06879,0.0748 -0.01764,0.0632 -0.01764,0.29245 -0.01764,0.68827 v 0.0861 c 0,0.12629 0,0.16651 0.03457,0.16651 0.03457,0 0.0575,-0.0173 0.06879,-0.0173 0.0056,0 0.01164,0.0116 0.01164,0.0229 0,0.0233 -0.03457,0.0233 -0.09207,0.0515 -0.08573,0.0346 -0.114653,0.0748 -0.131586,0.0748 -0.01729,0 -0.02858,-0.0116 -0.02858,-0.0229 0,-0.0116 0.02858,-0.0744 0.02858,-0.30974 z"
         style="fill:#231f20;fill-opacity:1;fill-rule:nonzero;stroke:none;stroke-width:0.35277778"
         id="path3216"
         inkscape:connector-curvature="0" />
      <path
         d="m 11.724267,153.28183 v 0.0286 c 0,0.0117 -0.0056,0.0229 -0.02293,0.0286 -0.04551,0.0173 -0.08008,0.0286 -0.08008,0.0286 -0.01164,0 -0.01164,-0.0286 -0.01164,-0.0801 v -0.37288 c 0,-0.0861 -0.0056,-0.12594 -0.05715,-0.12594 -0.01164,0 -0.02328,0.006 -0.03457,0.006 -0.01164,0 -0.01693,-0.0116 -0.01693,-0.0289 0,-0.0173 0.02822,-0.0173 0.09137,-0.0342 0.06915,-0.0229 0.103364,-0.0459 0.114653,-0.0459 0.01164,0 0.02328,0.0113 0.02328,0.0229 0,0.0113 -0.006,0.0917 -0.006,0.23531 z"
         style="fill:#231f20;fill-opacity:1;fill-rule:nonzero;stroke:none;stroke-width:0.35277778"
         id="path3220"
         inkscape:connector-curvature="0" />
      <path
         d="m 12.998074,152.83437 c -0.07479,0.006 -0.143581,0.006 -0.212372,0.0113 v 0.0688 h 0.149225 c 0.02293,0 0.05151,-0.006 0.09172,-0.006 0.126294,0.30409 0.195086,0.45896 0.218017,0.45896 0.01729,0 0.04022,-0.0346 0.103364,-0.0861 0.06279,-0.0459 0.09137,-0.0575 0.09137,-0.0632 0,-0.0113 -0.0053,-0.0229 -0.01094,-0.0229 -0.01164,0 -0.02893,0.0173 -0.05786,0.0173 -0.103011,0 -0.183444,-0.20073 -0.349602,-0.64276 -0.115006,-0.2981 -0.120298,-0.43603 -0.143581,-0.43603 -0.01729,0 -0.06279,0.0293 -0.09172,0.0462 v 0.27517 c 0.01729,-0.0399 0.02893,-0.0744 0.04022,-0.10301 0.06879,0.22366 0.125942,0.37853 0.172156,0.48189 m -0.212372,0.0113 h -0.09172 -0.12065 c 0.09772,-0.16616 0.166511,-0.2981 0.212372,-0.39017 v -0.27517 c -0.01729,0.0113 -0.02293,0.0173 -0.02293,0.0229 0,0 0.0056,0.0113 0.0056,0.0229 0,0.0804 -0.109009,0.30974 -0.321028,0.69391 -0.166511,0.3041 -0.263878,0.44768 -0.263878,0.46497 0,0.0116 0.0056,0.0229 0.01693,0.0229 0.03457,0 0.09207,-0.14358 0.2413,-0.35596 0.07444,-0.10301 0.166159,-0.13194 0.343959,-0.13758 z"
         style="fill:#231f20;fill-opacity:1;fill-rule:nonzero;stroke:none;stroke-width:0.35277778"
         id="path3224"
         inkscape:connector-curvature="0" />
      <path
         d="m 13.686385,153.28183 v 0.0286 c 0,0.0117 -0.0056,0.0229 -0.02293,0.0286 -0.04586,0.0173 -0.08043,0.0286 -0.08043,0.0286 -0.01129,0 -0.01129,-0.0286 -0.01129,-0.0801 v -0.37288 c 0,-0.0861 0,-0.12594 -0.05186,-0.12594 -0.01729,0 -0.02822,0.006 -0.04022,0.006 -0.01129,0 -0.01693,-0.0116 -0.01693,-0.0289 0,-0.0173 0.03422,-0.0173 0.09172,-0.0342 0.06879,-0.0229 0.103364,-0.0459 0.120297,-0.0459 0.006,0 0.02328,0.0113 0.02328,0.0229 0,0.0113 -0.01164,0.0917 -0.01164,0.23531 z"
         style="fill:#231f20;fill-opacity:1;fill-rule:nonzero;stroke:none;stroke-width:0.35277778"
         id="path3228"
         inkscape:connector-curvature="0" />
      <path
         d="m 14.27164,152.68511 h 0.0056 c 0.0056,0 0.0056,0 0.0056,0.0229 v 0.0861 c 0,0.0402 -0.0056,0.0286 -0.07444,0.0342 -0.12065,0.0116 -0.126295,0.0462 -0.131939,0.16086 -0.01164,0.20073 -0.006,0.30974 -0.01164,0.32138 -0.0056,0.0113 -0.09172,0.0572 -0.103011,0.0572 -0.006,0 -0.006,0 -0.006,-0.0116 0,-0.0113 0.01164,-0.10301 0.01164,-0.30374 v -0.0804 c 0,-0.1263 -0.0056,-0.16651 -0.04621,-0.16651 -0.03986,0 -0.06844,0.0229 -0.08008,0.0229 -0.0056,0 -0.01129,-0.0113 -0.01129,-0.0286 0,-0.0173 0.02293,-0.0173 0.07444,-0.0342 0.09737,-0.0406 0.149225,-0.0804 0.15487,-0.0804 0.01129,0 0.02293,0.006 0.02293,0.0116 0,0.0113 -0.0056,0.0282 -0.0056,0.0688 v 0.0688 c 0.08008,-0.10936 0.160514,-0.14922 0.195086,-0.14922"
         style="fill:#231f20;fill-opacity:1;fill-rule:nonzero;stroke:none;stroke-width:0.35277778"
         id="path3232"
         inkscape:connector-curvature="0" />
      <path
         d="m 14.455258,152.65646 c 0,-0.0632 -0.0056,-0.10901 -0.0056,-0.14323 0,-0.13793 -0.006,-0.20673 -0.006,-0.21801 0,-0.0229 0.006,-0.0173 0.0575,-0.0289 0.08043,-0.0226 0.120297,-0.0402 0.131939,-0.0402 0.006,0 0.01693,0.006 0.01693,0.0229 0,0.0173 -0.05151,0.0233 -0.06844,0.0748 -0.01764,0.0632 -0.01764,0.29245 -0.01764,0.68827 v 0.0861 c 0,0.12629 0,0.16651 0.03457,0.16651 0.03457,0 0.0575,-0.0173 0.06879,-0.0173 0.006,0 0.01164,0.0116 0.01164,0.0229 0,0.0233 -0.03457,0.0233 -0.09172,0.0515 -0.08608,0.0346 -0.114653,0.0748 -0.131939,0.0748 -0.01729,0 -0.02893,-0.0116 -0.02893,-0.0229 0,-0.0116 0.02893,-0.0744 0.02893,-0.30974 z"
         style="fill:#231f20;fill-opacity:1;fill-rule:nonzero;stroke:none;stroke-width:0.35277778"
         id="path3236"
         inkscape:connector-curvature="0" />
      <path
         d="m 14.99445,153.28183 v 0.0286 c 0,0.0117 -0.0056,0.0229 -0.02328,0.0286 -0.04586,0.0173 -0.08008,0.0286 -0.08008,0.0286 -0.01129,0 -0.01129,-0.0286 -0.01129,-0.0801 v -0.37288 c 0,-0.0861 -0.0056,-0.12594 -0.0575,-0.12594 -0.01129,0 -0.02293,0.006 -0.03422,0.006 -0.01164,0 -0.01729,-0.0116 -0.01729,-0.0289 0,-0.0173 0.02858,-0.0173 0.09172,-0.0342 0.06879,-0.0229 0.103364,-0.0459 0.114653,-0.0459 0.01164,0 0.02293,0.0113 0.02293,0.0229 0,0.0113 -0.0056,0.0917 -0.0056,0.23531 z"
         style="fill:#231f20;fill-opacity:1;fill-rule:nonzero;stroke:none;stroke-width:0.35277778"
         id="path3240"
         inkscape:connector-curvature="0" />
      <path
         d="m 15.269934,152.98927 c 0,-0.13229 -0.02293,-0.20073 -0.08608,-0.20073 h -0.02893 c -0.01129,0 -0.01693,-0.006 -0.01693,-0.0229 0,-0.0116 0.02293,-0.0116 0.05715,-0.0289 0.06315,-0.0286 0.08643,-0.0515 0.09172,-0.0515 0.01729,0 0.0635,0.0402 0.08643,0.109 0.114653,-0.0688 0.211667,-0.0974 0.263525,-0.0974 0.114653,0 0.148872,0.0974 0.148872,0.28081 0,0.12065 -0.0053,0.20673 -0.0053,0.25259 0,0.0226 0.0053,0.0286 0.02858,0.0286 0.01729,0 0.03457,-0.0113 0.05151,-0.0113 0.0056,0 0.01164,0.0113 0.01164,0.0229 0,0.0286 -0.02858,0.0229 -0.09737,0.0459 -0.06914,0.0286 -0.09772,0.0571 -0.109008,0.0571 -0.01164,0 -0.01729,-0.0113 -0.01729,-0.0173 0,-0.0113 0.02858,-0.0917 0.02858,-0.28681 0,-0.19509 -0.04022,-0.2921 -0.15487,-0.2921 -0.04586,0 -0.09737,0.0282 -0.14358,0.0741 0,0.0229 0.006,0.0575 0.006,0.0977 0,0.18345 -0.006,0.30974 -0.006,0.37853 l -0.08608,0.0346 h -0.0056 c -0.01129,0 -0.01693,-0.0113 -0.01693,-0.0289 z"
         style="fill:#231f20;fill-opacity:1;fill-rule:nonzero;stroke:none;stroke-width:0.35277778"
         id="path3244"
         inkscape:connector-curvature="0" />
      <path
         d="m 16.199042,152.75397 c 0.01164,0 0.02293,-0.006 0.03457,-0.006 0.04586,0 0.08008,0.0406 0.08008,0.0864 0,0.0572 -0.03986,0.10901 -0.114653,0.13759 v 0.0515 c 0.160867,-0.0572 0.246944,-0.1203 0.246944,-0.16651 0,-0.10301 -0.07479,-0.1718 -0.183797,-0.1718 -0.02293,0 -0.04022,0.006 -0.06315,0.0116 z m 0,0.60219 v -0.11465 c 0.02293,0.0116 0.05151,0.0173 0.08608,0.0173 0.08608,0 0.14358,-0.0346 0.195086,-0.0974 0.02293,-0.0229 0.02858,-0.0462 0.04022,-0.0462 0.01129,0 0.02293,0.0117 0.02293,0.0233 0,0.0169 -0.03457,0.0744 -0.109008,0.16651 -0.02858,0.0399 -0.04586,0.0571 -0.172156,0.0571 -0.02293,0 -0.04022,0 -0.06315,-0.006 m -0.115006,-0.3556 v -0.0402 c 0,-0.109 0.05186,-0.18309 0.115006,-0.20637 v -0.0572 c -0.131939,0.0342 -0.229306,0.17745 -0.229306,0.36124 0,0.16616 0.08008,0.27517 0.229306,0.2981 v -0.11465 c -0.06315,-0.0286 -0.09737,-0.0917 -0.109008,-0.18345 0.04022,-0.0116 0.07444,-0.0229 0.109008,-0.0346 v -0.0515 c -0.03457,0.0116 -0.06879,0.0229 -0.115006,0.0286"
         style="fill:#231f20;fill-opacity:1;fill-rule:nonzero;stroke:none;stroke-width:0.35277778"
         id="path3248"
         inkscape:connector-curvature="0" />
      <path
         d="m 16.623645,153.33348 c -0.01729,-0.006 -0.01729,-0.0229 -0.01729,-0.0688 v -0.0173 c 0,-0.0631 0,-0.0804 0.02293,-0.0804 0.01729,0 0.02328,0.006 0.02328,0.0173 v 0.0113 c 0,0.0748 0.04586,0.10937 0.13723,0.10937 0.137936,0 0.230011,-0.0804 0.230011,-0.16087 0,-0.0402 -0.02893,-0.0631 -0.08643,-0.0631 h -0.07479 c -0.131586,0 -0.194733,-0.0402 -0.194733,-0.15487 0,-0.13194 0.103364,-0.24095 0.252589,-0.24095 0.08008,0 0.149225,0.0289 0.149225,0.0402 0,0.0286 -0.01764,0.0744 -0.02893,0.0744 -0.01693,0 -0.06879,-0.0342 -0.166511,-0.0342 -0.08043,0 -0.126295,0.0402 -0.126295,0.10301 0,0.0748 0.0635,0.0804 0.172509,0.0921 0.137583,0.0113 0.223308,0.0342 0.223308,0.16616 0,0.13794 -0.125942,0.2353 -0.326672,0.2353 -0.09772,0 -0.166511,-0.0173 -0.189442,-0.0286"
         style="fill:#231f20;fill-opacity:1;fill-rule:nonzero;stroke:none;stroke-width:0.35277778"
         id="path3252"
         inkscape:connector-curvature="0" />
      <path
         d="m 14.833651,152.58192 0.06315,-0.0861 0.114653,0.0861 -0.06279,0.0974 z"
         style="fill:#231f20;fill-opacity:1;fill-rule:nonzero;stroke:none;stroke-width:0.35277778"
         id="path3256"
         inkscape:connector-curvature="0" />
      <path
         d="m 13.543013,152.58192 0.06315,-0.0861 0.114653,0.0861 -0.06315,0.0974 z"
         style="fill:#231f20;fill-opacity:1;fill-rule:nonzero;stroke:none;stroke-width:0.35277778"
         id="path3260"
         inkscape:connector-curvature="0" />
      <path
         d="m 11.563792,152.58192 0.06315,-0.0861 0.114653,0.0861 -0.06279,0.0974 z"
         style="fill:#231f20;fill-opacity:1;fill-rule:nonzero;stroke:none;stroke-width:0.35277778"
         id="path3264"
         inkscape:connector-curvature="0" />
      <path
         d="m 10.766229,152.58192 0.06315,-0.0861 0.114653,0.0861 -0.06279,0.0974 z"
         style="fill:#231f20;fill-opacity:1;fill-rule:nonzero;stroke:none;stroke-width:0.35277778"
         id="path3268"
         inkscape:connector-curvature="0" />
      <path
         d="m 16.829985,151.02726 c 0.384528,-0.15487 0.413456,0.1203 0.413456,0.1203 0,0 -0.12065,0.17815 -0.183798,0.19508 -0.08043,0.0173 -0.160514,0.0346 -0.229658,0.0459 v -0.11465 c 0.172508,-0.0286 0.264231,-0.0801 0.264231,-0.0801 -0.06315,-0.0864 -0.166512,-0.0804 -0.264231,-0.0519 z m -1.0668,-0.0459 c -0.01729,0.13194 -0.223661,0.16616 -0.223661,0.16616 -0.05151,0.26387 -0.47625,0.48224 -0.751417,0.54539 -0.281516,0.0572 -0.292805,-0.16651 -0.292805,-0.16651 l 0.04586,-0.11501 c 0.154869,0.36125 0.826205,-0.0801 0.877711,-0.16615 0.04621,-0.0748 -0.126295,-0.20673 -0.126295,-0.20673 l 0.08608,-0.14923 0.09172,0.0921 c 0.189442,0.0571 0.298803,-0.11501 0.310092,-0.15487 0.0053,-0.0402 0.03422,-0.0346 0.03422,-0.0346 0.08043,0.56232 0.613833,0.48189 0.613833,0.48189 0.166511,-0.12629 0.29845,-0.20073 0.401461,-0.24659 v 0.11465 c -0.137583,0.0459 -0.263525,0.14358 -0.263525,0.14358 0.103011,0.006 0.189089,0 0.263525,-0.0116 v 0.11465 c -0.636411,0.12065 -0.854781,0.0117 -0.957792,-0.13158 -0.08043,-0.121 -0.109008,-0.27552 -0.109008,-0.27552"
         style="fill:#231f20;fill-opacity:1;fill-rule:nonzero;stroke:none;stroke-width:0.35277778"
         id="path3272"
         inkscape:connector-curvature="0" />
      <path
         d="m 16.491702,151.22221 c 0,0 0.109008,-0.0113 0.01729,-0.67134 0,0 0.09172,-0.0801 0.09737,-0.13758 0,0 -0.120297,-0.0917 -0.137584,-0.17215 l -0.09772,0.12629 c 0,0 0.137936,0.60819 0.103364,0.85478 z"
         style="fill:#231f20;fill-opacity:1;fill-rule:nonzero;stroke:none;stroke-width:0.35277778"
         id="path3276"
         inkscape:connector-curvature="0" />
      <path
         d="m 11.787446,151.23378 c 0,0 0.109008,-0.0116 0.01729,-0.66569 0,0 0.09172,-0.0857 0.09172,-0.13723 0,0 -0.114652,-0.0921 -0.137583,-0.17251 l -0.09772,0.12629 c 0,0 0.137936,0.60819 0.109361,0.85478 z"
         style="fill:#231f20;fill-opacity:1;fill-rule:nonzero;stroke:none;stroke-width:0.35277778"
         id="path3280"
         inkscape:connector-curvature="0" />
      <path
         d="m 14.604274,150.83211 -0.07444,0.16051 c 0,0 0.131939,0.15523 0.109008,0.20673 0,0 -0.224014,0.19509 -0.711553,0.26388 -0.493183,0.0748 -1.164519,0.0804 -1.388533,-0.20638 l -0.07444,0.0402 c 0,0 0.258233,0.36125 0.648406,0.35525 0,0 1.141588,0.0921 1.577622,-0.38418 0,0 0.172155,-0.16616 -0.08608,-0.43603"
         style="fill:#231f20;fill-opacity:1;fill-rule:nonzero;stroke:none;stroke-width:0.35277778"
         id="path3284"
         inkscape:connector-curvature="0" />
      <path
         d="m 14.988523,150.17813 -0.103011,0.15487 0.09737,1.02129 c 0,0 0.09772,-0.0974 0.09772,-0.21237 z"
         style="fill:#231f20;fill-opacity:1;fill-rule:nonzero;stroke:none;stroke-width:0.35277778"
         id="path3288"
         inkscape:connector-curvature="0" />
      <path
         d="m 12.062722,150.96397 c 0.309739,-0.14922 0.3556,0.12065 0.3556,0.12065 0,0 -0.03986,0.0572 -0.08608,0.10901 0,0 0.258586,-0.0402 0.29845,-0.0688 0.04022,-0.0289 -0.05115,-0.68827 -0.06279,-0.72284 0,0 0.06279,-0.17216 0.07444,-0.16616 0.01129,0 0.401461,0.28645 0.441678,0.68791 v 0.13794 c -0.01129,0.0861 -0.04022,0.1838 -0.09737,0.28116 0,0 0.154869,-0.4706 -0.292806,-0.84349 l 0.02293,0.55633 c 0,0 -0.09172,0.20109 -0.120297,0.21237 0,0 -0.252589,0.0635 -0.533753,0.10337 v -0.15487 c 0.137583,-0.0289 0.212372,-0.0748 0.212372,-0.0748 -0.0515,-0.0861 -0.137583,-0.0801 -0.212372,-0.0515 z m -0.384175,0.27552 c 0.08008,-0.0575 0.143228,-0.10901 0.200731,-0.15487 0.06879,-0.0575 0.131938,-0.0917 0.183444,-0.12065 v 0.12629 c -0.108656,0.0402 -0.212372,0.13794 -0.212372,0.13794 0.08079,0.006 0.155222,0 0.212372,-0.0116 v 0.15487 c -0.223308,0.0286 -0.458964,0.0459 -0.596547,0.006 0,0 -0.160514,0.0572 -0.177447,-0.50482 0,0 -0.04057,-0.55069 -0.06915,-0.5909 l 0.05186,-0.1263 c 0,0 0.08008,0.24695 0.103012,0.69427 0,0 0.01729,0.24094 0.07479,0.33831 0.02858,0.0406 0.229306,0.0519 0.229306,0.0519"
         style="fill:#231f20;fill-opacity:1;fill-rule:nonzero;stroke:none;stroke-width:0.35277778"
         id="path3292"
         inkscape:connector-curvature="0" />
      <path
         d="m 10.18683,151.19924 c 0.04586,0.21237 0.292453,0.10901 0.292453,0.10901 0.287161,0.13194 0.4191,-0.0744 0.4191,-0.0744 0.0515,0.13194 0.172155,0.0744 0.172155,0.0744 0.1778,-0.0974 0.09172,-0.37853 0.09172,-0.37853 l -0.09172,0.1203 0.01129,0.115 c 0,0 -0.120297,0.0286 -0.09737,-0.13758 v -0.0692 c 0,0 -0.06914,0.25259 -0.315737,0.22931 l 0.03457,-0.12594 c 0,0 -0.235303,0.19544 -0.45332,0.0346 0,0 -0.04586,-0.0579 -0.04586,-0.0748 0.0056,-0.0173 -0.143228,0.22401 -0.2525888,0.1203 -0.1146527,-0.10337 -0.1375833,-0.96344 -0.1375833,-0.96344 l -0.080081,0.14323 0.03422,0.52211 c 0,0 -0.097367,0.2353 -0.384175,0.2353 l -0.1033639,0.12594 c 0,0 0.011289,0.0575 0.022931,0.0575 0.017286,0 0.2811638,0.0575 0.2582333,0.12029 -0.022931,0.0692 -1.2393083,0.43604 -1.8587861,-0.0286 0,0 0.1319389,0.44168 1.1130139,0.37888 0,0 0.9006416,-0.10336 0.9006416,-0.40146 0,-0.0691 -0.091722,-0.14393 -0.1661583,-0.17215 0,0 0.2233083,-0.14358 0.2405944,-0.27552 0,0 -0.011289,0.43603 0.1834445,0.43603 0.1319397,0 0.1665117,-0.0861 0.1665117,-0.10901 0,-0.0233 0.04586,-0.0116 0.04586,-0.0116"
         style="fill:#231f20;fill-opacity:1;fill-rule:nonzero;stroke:none;stroke-width:0.35277778"
         id="path3296"
         inkscape:connector-curvature="0" />
      <path
         d="m 10.433594,150.42465 0.05151,-0.1203 c 0,0 0.258233,-0.0572 0.275872,-0.0116 0.02258,0.0459 0.01129,0.20108 -0.235656,0.24095 l -0.02293,-0.0399 0.154869,-0.0691 c 0,0 -0.02858,-0.0515 -0.212372,-0.006 z"
         style="fill:#231f20;fill-opacity:1;fill-rule:nonzero;stroke:none;stroke-width:0.35277778"
         id="path3300"
         inkscape:connector-curvature="0" />
      <path
         d="m 15.309971,150.49937 0.09737,-0.12629 0.659694,-0.18909 -0.06879,0.12029 z"
         style="fill:#231f20;fill-opacity:1;fill-rule:nonzero;stroke:none;stroke-width:0.35277778"
         id="path3304"
         inkscape:connector-curvature="0" />
      <path
         d="m 14.386332,150.76328 -0.166158,-0.0861 0.09172,-0.13229 0.1778,0.0921 z"
         style="fill:#231f20;fill-opacity:1;fill-rule:nonzero;stroke:none;stroke-width:0.35277778"
         id="path3308"
         inkscape:connector-curvature="0" />
      <path
         d="m 10.588531,151.56634 -0.1778,-0.0917 -0.06315,0.0861 -0.131939,-0.0688 -0.09772,0.13194 0.166512,0.0861 0.06879,-0.0861 0.126295,0.0692 z"
         style="fill:#231f20;fill-opacity:1;fill-rule:nonzero;stroke:none;stroke-width:0.35277778"
         id="path3312"
         inkscape:connector-curvature="0" />
      <path
         d="m 9.9286637,151.70424 -0.1721556,-0.0917 -0.063147,0.0857 -0.1315861,-0.0684 -0.097719,0.13194 0.1665111,0.0857 0.068792,-0.0801 0.1262945,0.0631 z"
         style="fill:#231f20;fill-opacity:1;fill-rule:nonzero;stroke:none;stroke-width:0.35277778"
         id="path3316"
         inkscape:connector-curvature="0" />
      <path
         d="m 15.957989,151.57227 -0.177447,-0.0974 -0.0635,0.0857 -0.131939,-0.0688 -0.09172,0.13229 0.160866,0.0857 0.06879,-0.0801 0.126294,0.0684 z"
         style="fill:#231f20;fill-opacity:1;fill-rule:nonzero;stroke:none;stroke-width:0.35277778"
         id="path3320"
         inkscape:connector-curvature="0" />
      <path
         d="m 16.414695,144.25862 h -1.821744 c -1.18357,1.24001 -4.062589,5.02991 -6.0102753,5.02991 h 5.9757023 z"
         style="fill:#162d66;fill-opacity:1;fill-rule:nonzero;stroke:none;stroke-width:0.35277778"
         id="path3324"
         inkscape:connector-curvature="0" />
      <path
         d="m 8.5826754,149.28842 h 5.9757026 l 0.413103,-1.11407 c -0.167922,0.20355 -1.057981,0.83396 -6.3888056,1.11407"
         style="fill:#74ba24;fill-opacity:1;fill-rule:nonzero;stroke:none;stroke-width:0.35277778"
         id="path3328"
         inkscape:connector-curvature="0" />
      <path
         d="m 16.414695,144.25862 h -1.821744 c -0.258939,0.2734 -0.595137,0.66569 -0.987425,1.11372 0.343252,-0.39229 1.828447,-0.57397 2.612672,-0.57397 z"
         style="fill:#74ba24;fill-opacity:1;fill-rule:nonzero;stroke:none;stroke-width:0.35277778"
         id="path3332"
         inkscape:connector-curvature="0" />
      <path
         d="m 13.290283,147.29883 c 0,0.0843 0.0071,0.11218 0.05574,0.11218 0.02152,0 0.04269,-0.007 0.05609,-0.007 0.0074,0 0.0074,0.007 0.0074,0.0141 0,0.0349 -0.01411,0.0212 -0.09102,0.042 -0.09102,0.0212 -0.132997,0.049 -0.140053,0.049 -0.0071,0 -0.01411,-0.007 -0.01411,-0.0141 0,-0.007 0.01411,-0.0279 0.01411,-0.0628 0.0071,-0.0631 0.01376,-0.22437 0.01376,-0.47625 v -0.0561 c 0,-0.133 0,-0.21026 -0.02081,-0.22437 -0.01411,-0.0138 -0.05645,-0.0208 -0.126295,-0.0208 -0.09102,0 -0.154163,0.007 -0.196144,0.0279 -0.03492,0.0141 -0.04198,0.042 -0.05609,0.042 -0.0071,0 -0.01376,-0.007 -0.01376,-0.0141 v -0.0279 -0.0699 -0.0212 c 0,-0.0141 0,-0.0212 0.02081,-0.0212 0.02117,0 0.140053,0.007 0.371475,0.007 0.300919,0 0.47625,-0.007 0.511175,-0.007 0.01411,0 0.02081,0.007 0.02081,0.0138 0,0.0423 -0.0067,0.0423 -0.03492,0.0423 -0.125942,0.007 -0.245181,0.0141 -0.364067,0.0353 -0.0071,0.30798 -0.01411,0.52529 -0.01411,0.63712"
         style="fill:#ffffff;fill-opacity:1;fill-rule:nonzero;stroke:none;stroke-width:0.35277778"
         id="path3336"
         inkscape:connector-curvature="0" />
      <path
         d="m 14.081881,147.03974 c -0.06315,0.007 -0.125942,0.007 -0.182033,0.007 v 0.0631 c 0.03528,-0.007 0.07691,-0.007 0.126294,-0.007 h 0.08396 c 0.105128,0.25223 0.160867,0.37817 0.182034,0.37817 0.01376,0 0.04198,-0.0349 0.09102,-0.0699 0.05609,-0.042 0.08396,-0.0494 0.08396,-0.0561 0,-0.007 -0.01411,-0.0212 -0.01411,-0.0212 -0.01376,0 -0.02752,0.0212 -0.04868,0.0212 -0.09102,0 -0.16122,-0.16827 -0.301272,-0.53234 -0.09807,-0.24553 -0.105128,-0.35066 -0.126295,-0.35066 -0.01411,0 -0.05609,0.0141 -0.07691,0.0353 v 0.22401 c 0.01376,-0.0349 0.02787,-0.0628 0.03528,-0.084 0.05574,0.18203 0.104775,0.30833 0.146756,0.39229 m -0.182033,0.007 h -0.08431 -0.105128 c 0.09137,-0.133 0.147461,-0.23813 0.189442,-0.31539 v -0.22401 c -0.01411,0.007 -0.02117,0.0141 -0.02117,0.0141 v 0.0208 c 0,0.0632 -0.09066,0.25259 -0.27305,0.56762 -0.147461,0.25189 -0.224367,0.36442 -0.224367,0.38524 0,0.007 0,0.0141 0.01411,0.0141 0.02822,0 0.07726,-0.11924 0.210256,-0.28752 0.06315,-0.084 0.140053,-0.11183 0.294217,-0.11183 z"
         style="fill:#ffffff;fill-opacity:1;fill-rule:nonzero;stroke:none;stroke-width:0.35277778"
         id="path3340"
         inkscape:connector-curvature="0" />
      <path
         d="m 14.48112,146.89976 v -0.11924 c 0,-0.14711 0,-0.2032 -0.03493,-0.2032 -0.01411,0 -0.02081,0.007 -0.02081,0.007 -0.0074,0 -0.01411,-0.007 -0.01411,-0.0138 0,-0.0141 0.02081,-0.0141 0.05574,-0.0282 0.07726,-0.0282 0.105128,-0.0561 0.119239,-0.0561 0,0 0.01411,0.007 0.01411,0.0212 0,0.0141 -0.01411,0.16122 -0.01411,0.53234 0,0.12594 0,0.24518 0.0067,0.35737 0.08431,0.0208 0.17533,0.0208 0.280811,0.0208 0.118533,0 0.174625,-0.007 0.182033,-0.007 0.0067,0 0.0067,0 0.0067,0.007 0,0.0632 -0.147109,0.0702 -0.455436,0.0702 h -0.140053 c 0.01411,-0.10512 0.01411,-0.29421 0.01411,-0.58843"
         style="fill:#ffffff;fill-opacity:1;fill-rule:nonzero;stroke:none;stroke-width:0.35277778"
         id="path3344"
         inkscape:connector-curvature="0" />
    </g>
  </g>
</svg>
