<?xml version="1.0" encoding="UTF-8" standalone="no"?>
<svg
   xmlns:dc="http://purl.org/dc/elements/1.1/"
   xmlns:cc="http://creativecommons.org/ns#"
   xmlns:rdf="http://www.w3.org/1999/02/22-rdf-syntax-ns#"
   xmlns:svg="http://www.w3.org/2000/svg"
   xmlns="http://www.w3.org/2000/svg"
   xmlns:sodipodi="http://sodipodi.sourceforge.net/DTD/sodipodi-0.dtd"
   xmlns:inkscape="http://www.inkscape.org/namespaces/inkscape"
   inkscape:version="1.0 (4035a4fb49, 2020-05-01)"
   sodipodi:docname="SK.svg"
   xml:space="preserve"
   enable-background="new 0 0 200 100"
   viewBox="0 0 176.24896 64.569008"
   height="64.569008"
   width="176.24896"
   y="0px"
   x="0px"
   id="Layer_1"
   version="1.1"><metadata
   id="metadata130"><rdf:RDF><cc:Work
       rdf:about=""><dc:format>image/svg+xml</dc:format><dc:type
         rdf:resource="http://purl.org/dc/dcmitype/StillImage" /><dc:title></dc:title></cc:Work></rdf:RDF></metadata><defs
   id="defs128" /><sodipodi:namedview
   inkscape:current-layer="Layer_1"
   inkscape:window-maximized="1"
   inkscape:window-y="-8"
   inkscape:window-x="-8"
   inkscape:cy="32.284009"
   inkscape:cx="88.12473"
   inkscape:zoom="5.245"
   fit-margin-bottom="0"
   fit-margin-right="0"
   fit-margin-left="0"
   fit-margin-top="0"
   showgrid="false"
   id="namedview126"
   inkscape:window-height="1027"
   inkscape:window-width="1920"
   inkscape:pageshadow="2"
   inkscape:pageopacity="0"
   guidetolerance="10"
   gridtolerance="10"
   objecttolerance="10"
   borderopacity="1"
   bordercolor="#666666"
   pagecolor="#ffffff" />
<path
   id="path119"
   d="m 115.50073,1.3610089 c -6.966,0 -16.508,0.005 -17.797,0.005 -0.897,0 -1.267,0.518 -1.267,0.518 l -49.036,60.8220001 c -0.286,0.351 -0.225,0.712 0.269,0.712 1.125,0 5.653,0 7.259,-0.003 0.728,0 0.8,-0.195 0.929,-0.385 l 10.438,-13.382 c 0,0 0.162,-0.244 0.381,-0.244 0.17,0 17.521,-0.002 17.521,-0.002 0,0 0.269,-0.018 0.216,0.246 -0.055,0.263 -2.557,13.121 -2.557,13.121 -0.032,0.174 0.017,0.646 0.626,0.646 2.289,0 18.766,-0.004 21.173,-0.004 0.306,0 0.413,-0.102 0.472,-0.397 l 11.929,-61.0140001 c -0.002,0 0.212,-0.639 -0.556,-0.639 v 0 z m -29.998,41.7130001 h -13.78 c 0,0 -0.088,0.02 -0.147,-0.064 -0.055,-0.081 0.049,-0.206 0.049,-0.206 l 18.318,-23.493 c 0,0 0.138,-0.183 0.283,-0.183 0.145,0 0.094,0.203 0.094,0.203 l -4.593,23.557 c 0,0 -0.014,0.099 -0.059,0.143 -0.043,0.043 -0.165,0.043 -0.165,0.043 z"
   fill="#2b3087"
   clip-rule="evenodd"
   fill-rule="evenodd" />
<path
   id="path121"
   d="m 0.03873026,55.662009 c -0.174,0.726 0.221,1.341 1.53700004,2.427 2.48,2.045 9.8409997,6.483 21.5199997,6.48 21.027,-0.004 28.652,-13.596 25.986,-25.114 -0.714,-3.081 -4.653,-19.019 -5.223,-21.263 -1.657,-6.524 1.514,-11.2240001 7.74,-11.2290001 5.323,-0.004 8.646,2.015 11.555,3.8390001 0.547,0.349 0.949,0.539 1.094,-0.101 0.086,-0.37 1.042,-5.3300001 1.042,-5.3300001 0,0 0.282,-0.961 -0.97,-1.615 -1.934,-1.008 -6.744,-3.73399999 -16.887,-3.73799999 -18.857,-0.01 -26.883,12.09400009 -23.599,25.21600009 1.05,4.198 5.255,19.915 5.271,22.943 0.002,1.163 0.615,9.187 -9.05,9.187 -8.975,0 -15.1539997,-6.131 -17.2399997,-8.252 -0.344,-0.354 -0.804,-0.159 -1.019,0.613 -0.111,0.4 -1.75700004,5.937 -1.75700004,5.937 z"
   fill="#2b3087"
   clip-rule="evenodd"
   fill-rule="evenodd" />
<path
   id="path123"
   d="m 111.55173,55.979009 c -0.173,0.727 0.221,1.344 1.539,2.431 2.481,2.042 9.258,6.144 20.939,6.139 21.027,-0.003 28.651,-13.594 25.982,-25.117 -0.709,-3.077 -4.652,-19.014 -5.221,-21.26 -1.653,-6.526 1.517,-11.2250001 7.738,-11.2300001 5.325,-0.001 8.648,2.017 11.554,3.8420001 0.551,0.348 0.952,0.534 1.097,-0.103 0.084,-0.371 1.041,-5.3290001 1.041,-5.3290001 0,0 0.287,-0.958 -0.969,-1.615 -1.932,-1.011 -6.748,-3.73299999 -16.882,-3.73699998629 C 139.50973,-0.01199109 131.48373,12.094009 134.76673,25.215009 c 1.051,4.198 5.257,19.912 5.272,22.946 0.003,1.16 0.618,9.181 -9.05,9.181 -8.979,0.002 -14.901,-5.914 -17.002,-8.016 -0.467,-0.463 -1.163,-0.292 -1.258,0.383 -0.057,0.404 -1.177,6.27 -1.177,6.27 z"
   fill="#2b3087"
   clip-rule="evenodd"
   fill-rule="evenodd" />
</svg>
