<?xml version="1.0" encoding="UTF-8" standalone="no"?>
<svg
   xmlns:dc="http://purl.org/dc/elements/1.1/"
   xmlns:cc="http://creativecommons.org/ns#"
   xmlns:rdf="http://www.w3.org/1999/02/22-rdf-syntax-ns#"
   xmlns:svg="http://www.w3.org/2000/svg"
   xmlns="http://www.w3.org/2000/svg"
   xmlns:sodipodi="http://sodipodi.sourceforge.net/DTD/sodipodi-0.dtd"
   xmlns:inkscape="http://www.inkscape.org/namespaces/inkscape"
   inkscape:version="1.0 (4035a4fb49, 2020-05-01)"
   sodipodi:docname="SN_BEL.svg"
   id="svg64"
   height="14.916"
   width="98.996002"
   version="1.0">
  <metadata
     id="metadata70">
    <rdf:RDF>
      <cc:Work
         rdf:about="">
        <dc:format>image/svg+xml</dc:format>
        <dc:type
           rdf:resource="http://purl.org/dc/dcmitype/StillImage" />
        <dc:title></dc:title>
      </cc:Work>
    </rdf:RDF>
  </metadata>
  <defs
     id="defs68" />
  <sodipodi:namedview
     inkscape:current-layer="svg64"
     inkscape:window-maximized="1"
     inkscape:window-y="-8"
     inkscape:window-x="-8"
     inkscape:cy="7.458"
     inkscape:cx="49.5"
     inkscape:zoom="10.49"
     fit-margin-bottom="0"
     fit-margin-right="0"
     fit-margin-left="0"
     fit-margin-top="0"
     showgrid="false"
     id="namedview66"
     inkscape:window-height="1027"
     inkscape:window-width="1920"
     inkscape:pageshadow="2"
     inkscape:pageopacity="0"
     guidetolerance="10"
     gridtolerance="10"
     objecttolerance="10"
     borderopacity="1"
     bordercolor="#666666"
     pagecolor="#ffffff" />
  <g
     transform="translate(-0.5,-0.042)"
     id="g62">
    <path
       id="path2"
       d="m 3.724,13.77 c 0,0.658 -0.72,1.188 -1.614,1.188 -0.891,0 -1.61,-0.53 -1.61,-1.188 0,-0.655 0.72,-1.191 1.612,-1.191 0.892,-0.002 1.612,0.534 1.612,1.191"
       fill="#ee452a" />
    <path
       id="path4"
       d="m 4.85,10.932 c 0,0.551 -0.63,0.995 -1.412,1 -0.784,-0.005 -1.416,-0.449 -1.416,-1 0,-0.551 0.632,-0.988 1.416,-0.988 0.782,-0.003 1.412,0.437 1.412,0.988"
       fill="#ee452a" />
    <path
       id="path6"
       d="m 5.775,8.564 c 0,0.441 -0.538,0.8 -1.203,0.802 -0.667,0 -1.208,-0.359 -1.208,-0.802 0,-0.44 0.542,-0.8 1.208,-0.8 0.665,0 1.203,0.362 1.203,0.8"
       fill="#ee452a" />
    <path
       id="path8"
       d="M 8.236,2.1 C 8.234,2.274 7.955,2.416 7.608,2.416 7.261,2.416 6.978,2.274 6.978,2.1 c 0,-0.177 0.283,-0.316 0.63,-0.316 0.347,0 0.626,0.138 0.628,0.316"
       fill="#ee452a" />
    <path
       id="path10"
       d="m 8.963,0.271 c 0,0.126 -0.211,0.226 -0.472,0.226 -0.263,0 -0.472,-0.1 -0.474,-0.226 0,-0.124 0.211,-0.229 0.474,-0.229 0.261,0 0.472,0.105 0.472,0.229"
       fill="#ee452a" />
    <path
       id="path12"
       d="M 8.62,1.138 C 8.62,1.285 8.378,1.4 8.073,1.402 7.774,1.402 7.53,1.285 7.53,1.138 c 0,-0.144 0.244,-0.261 0.543,-0.261 0.304,0 0.547,0.117 0.547,0.261"
       fill="#ee452a" />
    <path
       id="path14"
       d="M 6.556,6.484 C 6.556,6.841 6.097,7.129 5.53,7.129 4.967,7.129 4.507,6.841 4.507,6.484 4.507,6.129 4.966,5.838 5.53,5.838 6.097,5.839 6.556,6.129 6.556,6.484"
       fill="#ee452a" />
    <path
       id="path16"
       d="m 7.233,4.751 c 0,0.282 -0.391,0.515 -0.878,0.515 -0.483,0 -0.874,-0.233 -0.874,-0.515 0,-0.288 0.391,-0.52 0.874,-0.52 0.487,0 0.878,0.232 0.878,0.52"
       fill="#ee452a" />
    <path
       id="path18"
       d="m 7.485,13.572 c 0,0.593 -0.655,1.068 -1.463,1.068 -0.808,0 -1.465,-0.477 -1.465,-1.068 0,-0.591 0.657,-1.072 1.463,-1.072 0.81,0 1.465,0.48 1.465,1.072"
       fill="#ee452a" />
    <path
       id="path20"
       d="m 10.704,12.684 c 0,0.521 -0.591,0.941 -1.32,0.941 -0.727,0 -1.318,-0.42 -1.318,-0.941 0,-0.521 0.591,-0.947 1.318,-0.947 0.728,-10e-4 1.32,0.425 1.32,0.947"
       fill="#ee452a" />
    <path
       id="path22"
       d="m 12.347,10.869 c 0,0.408 -0.483,0.742 -1.083,0.742 -0.593,0 -1.076,-0.334 -1.076,-0.742 0,-0.415 0.483,-0.749 1.076,-0.749 0.598,0 1.083,0.334 1.083,0.749"
       fill="#ee452a" />
    <path
       id="path24"
       d="m 10.775,7.633 c 0,0.274 -0.353,0.493 -0.784,0.493 -0.437,0 -0.79,-0.219 -0.79,-0.493 0,-0.272 0.353,-0.497 0.79,-0.497 0.432,0 0.784,0.224 0.784,0.497"
       fill="#ee452a" />
    <path
       id="path26"
       d="m 7.812,3.302 c 0,0.228 -0.332,0.414 -0.744,0.414 -0.409,0 -0.742,-0.187 -0.742,-0.414 0,-0.227 0.333,-0.411 0.742,-0.411 0.411,0 0.744,0.185 0.744,0.411"
       fill="#ee452a" />
    <path
       id="path28"
       d="m 12.059,8.986 c 0,0.334 -0.409,0.603 -0.918,0.603 -0.505,0 -0.915,-0.271 -0.915,-0.603 0,-0.328 0.41,-0.601 0.918,-0.601 0.505,0.002 0.915,0.273 0.915,0.601"
       fill="#ee452a" />
    <path
       id="path30"
       d="M 17.188,13.521 V 4.719 h 1.404 V 7.97 c 0.45,-0.158 0.878,-0.237 1.28,-0.237 0.878,0 1.556,0.291 2.039,0.875 0.418,0.507 0.629,1.172 0.629,1.986 0,1.068 -0.356,1.873 -1.07,2.403 -0.619,0.471 -1.48,0.703 -2.58,0.703 -0.469,0 -1.038,-0.057 -1.702,-0.179 m 1.404,-4.474 v 3.48 c 0.2,0.031 0.382,0.05 0.543,0.05 1.311,0 1.967,-0.632 1.967,-1.892 0,-0.613 -0.164,-1.076 -0.485,-1.386 C 20.332,9.025 19.954,8.885 19.47,8.885 19.194,8.887 18.902,8.939 18.592,9.047"
       fill="#011f65" />
    <path
       id="path32"
       d="M 23.983,13.625 V 8.243 c 0.817,-0.333 1.642,-0.5 2.479,-0.5 0.4,0 0.778,0.054 1.129,0.165 v 1.185 c -0.298,-0.11 -0.628,-0.161 -0.984,-0.161 -0.413,0 -0.817,0.073 -1.217,0.223 v 4.473"
       fill="#011f65" />
    <path
       id="path34"
       d="m 28.522,7.837 h 1.407 v 3.455 c 0,0.483 0.103,0.812 0.303,0.981 0.175,0.153 0.476,0.229 0.896,0.229 0.283,0 0.595,-0.039 0.94,-0.107 V 7.837 h 1.41 v 5.587 c -0.942,0.184 -1.763,0.275 -2.47,0.275 -0.891,0 -1.539,-0.18 -1.943,-0.536 -0.211,-0.205 -0.354,-0.451 -0.438,-0.749 -0.07,-0.266 -0.105,-0.617 -0.105,-1.064"
       fill="#011f65" />
    <path
       id="path36"
       d="m 35.021,13.425 v -1.282 c 0.553,0.347 1.076,0.521 1.568,0.521 0.626,0 0.94,-0.196 0.94,-0.589 0,-0.268 -0.186,-0.481 -0.553,-0.652 l -0.569,-0.27 C 35.882,10.91 35.518,10.641 35.302,10.352 35.115,10.1 35.021,9.796 35.021,9.451 c 0,-0.562 0.224,-0.996 0.676,-1.31 0.395,-0.271 0.901,-0.409 1.526,-0.409 0.514,0 1.015,0.106 1.491,0.318 v 1.211 c -0.474,-0.292 -0.938,-0.44 -1.392,-0.44 -0.626,0 -0.937,0.187 -0.937,0.56 0,0.149 0.063,0.278 0.191,0.377 0.118,0.091 0.387,0.228 0.802,0.429 0.577,0.293 0.966,0.555 1.161,0.775 0.25,0.29 0.378,0.639 0.378,1.055 0,0.584 -0.233,1.035 -0.69,1.352 -0.4,0.279 -0.926,0.419 -1.583,0.419 -0.562,-0.003 -1.104,-0.124 -1.623,-0.363"
       fill="#011f65" />
    <path
       id="path38"
       d="m 40.042,13.425 v -1.282 c 0.558,0.347 1.082,0.521 1.572,0.521 0.626,0 0.94,-0.196 0.94,-0.589 0,-0.268 -0.187,-0.481 -0.558,-0.652 l -0.564,-0.27 C 40.905,10.91 40.54,10.641 40.327,10.352 40.138,10.1 40.042,9.796 40.042,9.451 c 0,-0.562 0.228,-0.996 0.679,-1.31 0.391,-0.271 0.896,-0.409 1.526,-0.409 0.516,0 1.01,0.106 1.493,0.318 v 1.211 c -0.477,-0.292 -0.938,-0.44 -1.396,-0.44 -0.624,0 -0.935,0.187 -0.935,0.56 0,0.149 0.063,0.278 0.191,0.377 0.12,0.091 0.384,0.228 0.803,0.429 0.577,0.293 0.964,0.555 1.159,0.775 0.253,0.29 0.376,0.639 0.376,1.055 0,0.584 -0.231,1.035 -0.689,1.352 -0.398,0.279 -0.927,0.419 -1.581,0.419 -0.561,-0.003 -1.104,-0.124 -1.626,-0.363"
       fill="#011f65" />
    <path
       id="path40"
       d="m 50.34,10.998 h -3.97 c 0.059,1.07 0.658,1.611 1.792,1.611 0.694,0 1.324,-0.201 1.884,-0.614 v 1.181 c -0.65,0.393 -1.35,0.588 -2.099,0.588 -0.986,0 -1.741,-0.291 -2.262,-0.886 -0.452,-0.509 -0.678,-1.203 -0.678,-2.067 0,-0.99 0.289,-1.773 0.874,-2.352 0.511,-0.5 1.161,-0.752 1.946,-0.752 0.553,0 1.034,0.139 1.441,0.404 0.358,0.234 0.623,0.548 0.797,0.939 0.186,0.416 0.274,1.057 0.274,1.924 M 46.461,9.991 h 2.52 C 48.918,9.183 48.527,8.779 47.806,8.779 c -0.382,0 -0.69,0.123 -0.931,0.363 -0.215,0.212 -0.351,0.492 -0.414,0.849"
       fill="#011f65" />
    <rect
       id="rect42"
       height="8.908"
       width="1.409"
       fill="#011f65"
       y="4.7189999"
       x="51.787998" />
    <path
       id="path44"
       d="m 54.754,13.425 v -1.282 c 0.553,0.347 1.078,0.521 1.571,0.521 0.623,0 0.937,-0.196 0.937,-0.589 0,-0.268 -0.185,-0.481 -0.556,-0.652 l -0.565,-0.27 C 55.617,10.91 55.25,10.641 55.037,10.352 54.846,10.1 54.754,9.796 54.754,9.451 c 0,-0.562 0.225,-0.996 0.68,-1.31 0.392,-0.271 0.897,-0.409 1.523,-0.409 0.516,0 1.012,0.106 1.488,0.318 v 1.211 c -0.471,-0.292 -0.937,-0.44 -1.387,-0.44 -0.631,0 -0.938,0.187 -0.938,0.56 0,0.149 0.062,0.278 0.19,0.377 0.113,0.091 0.385,0.228 0.801,0.429 0.578,0.293 0.966,0.555 1.162,0.775 0.25,0.29 0.379,0.639 0.379,1.055 0,0.584 -0.231,1.035 -0.692,1.352 -0.401,0.279 -0.928,0.419 -1.581,0.419 -0.565,-0.003 -1.102,-0.124 -1.625,-0.363"
       fill="#011f65" />
    <path
       id="path46"
       d="M 62.482,9.536 V 8.325 c 0.735,-0.396 1.488,-0.592 2.248,-0.592 0.832,0 1.373,0.244 1.623,0.733 0.125,0.247 0.191,0.703 0.191,1.375 v 3.669 c -0.995,0.145 -1.805,0.213 -2.43,0.213 -0.73,0 -1.248,-0.146 -1.563,-0.447 -0.274,-0.266 -0.407,-0.661 -0.407,-1.187 0,-0.79 0.33,-1.345 0.994,-1.666 0.438,-0.215 1.104,-0.368 1.993,-0.468 l 0.117,-0.01 V 9.738 c 0,-0.344 -0.065,-0.573 -0.207,-0.691 -0.125,-0.107 -0.33,-0.16 -0.624,-0.16 -0.608,0 -1.257,0.217 -1.935,0.649 m 2.793,3.01 v -1.541 c -0.723,0.06 -1.217,0.167 -1.489,0.333 -0.235,0.145 -0.349,0.357 -0.349,0.646 0,0.438 0.252,0.654 0.768,0.654 0.286,0.003 0.641,-0.029 1.07,-0.092"
       fill="#011f65" />
    <path
       id="path48"
       d="m 68.264,5.239 h 1.448 v 1.506 h -1.448 z m 0.024,2.611 h 1.407 v 5.777 h -1.407 z"
       fill="#011f65" />
    <path
       id="path50"
       d="M 71.509,13.625 V 8.243 c 0.817,-0.333 1.642,-0.5 2.484,-0.5 0.396,0 0.772,0.054 1.126,0.165 v 1.185 c -0.301,-0.11 -0.63,-0.161 -0.984,-0.161 -0.417,0 -0.82,0.073 -1.217,0.223 v 4.473"
       fill="#011f65" />
    <rect
       id="rect52"
       height="8.908"
       width="1.41"
       fill="#011f65"
       y="4.7189999"
       x="76.25" />
    <path
       id="path54"
       d="m 79.464,5.239 h 1.45 v 1.506 h -1.45 z m 0.022,2.611 h 1.408 v 5.777 h -1.408 z"
       fill="#011f65" />
    <path
       id="path56"
       d="M 82.712,13.625 V 8.131 c 0.909,-0.262 1.781,-0.389 2.622,-0.389 0.909,0 1.55,0.194 1.922,0.59 0.309,0.333 0.465,0.859 0.465,1.582 v 3.711 h -1.41 V 10.01 c 0,-0.438 -0.098,-0.734 -0.297,-0.9 -0.179,-0.146 -0.465,-0.223 -0.855,-0.223 -0.332,0 -0.68,0.055 -1.037,0.16 v 4.578"
       fill="#011f65" />
    <path
       id="path58"
       d="M 94.441,10.998 H 90.47 c 0.059,1.07 0.655,1.611 1.786,1.611 0.7,0 1.328,-0.201 1.888,-0.614 v 1.181 c -0.648,0.393 -1.352,0.588 -2.097,0.588 -0.985,0 -1.741,-0.291 -2.264,-0.886 -0.448,-0.509 -0.679,-1.203 -0.679,-2.067 0,-0.99 0.293,-1.773 0.873,-2.352 0.511,-0.5 1.162,-0.752 1.945,-0.752 0.555,0 1.035,0.139 1.443,0.404 0.359,0.234 0.622,0.548 0.801,0.939 0.18,0.416 0.271,1.057 0.271,1.924 M 90.563,9.991 h 2.52 C 93.02,9.183 92.629,8.779 91.905,8.779 c -0.379,0 -0.69,0.123 -0.93,0.363 -0.215,0.212 -0.349,0.492 -0.412,0.849"
       fill="#011f65" />
    <path
       id="path60"
       d="m 95.607,13.425 v -1.282 c 0.555,0.347 1.078,0.521 1.57,0.521 0.625,0 0.938,-0.196 0.938,-0.589 0,-0.268 -0.188,-0.481 -0.558,-0.652 l -0.566,-0.27 C 96.47,10.91 96.1,10.641 95.886,10.352 95.7,10.1 95.607,9.796 95.607,9.45 c 0,-0.562 0.222,-0.996 0.676,-1.31 0.393,-0.271 0.898,-0.409 1.525,-0.409 0.515,0 1.014,0.106 1.488,0.318 V 9.26 c -0.47,-0.292 -0.938,-0.44 -1.395,-0.44 -0.619,0 -0.932,0.187 -0.932,0.56 0,0.149 0.063,0.278 0.188,0.377 0.118,0.091 0.389,0.228 0.804,0.429 0.578,0.293 0.967,0.555 1.162,0.775 0.25,0.29 0.373,0.639 0.373,1.055 0,0.584 -0.229,1.035 -0.686,1.352 -0.403,0.279 -0.928,0.419 -1.582,0.419 -0.559,-0.002 -1.103,-0.123 -1.621,-0.362"
       fill="#011f65" />
  </g>
</svg>
