<?xml version="1.0" encoding="UTF-8" standalone="no"?>
<svg
   xmlns:dc="http://purl.org/dc/elements/1.1/"
   xmlns:cc="http://creativecommons.org/ns#"
   xmlns:rdf="http://www.w3.org/1999/02/22-rdf-syntax-ns#"
   xmlns:svg="http://www.w3.org/2000/svg"
   xmlns="http://www.w3.org/2000/svg"
   xmlns:sodipodi="http://sodipodi.sourceforge.net/DTD/sodipodi-0.dtd"
   xmlns:inkscape="http://www.inkscape.org/namespaces/inkscape"
   inkscape:version="1.0 (4035a4fb49, 2020-05-01)"
   height="128.298"
   width="324.50797"
   sodipodi:docname="SQ.svg"
   id="svg1539"
   version="1.1"
   viewBox="0 0 324.50797 128.298"
   fill-rule="evenodd"
   clip-rule="evenodd">
  <metadata
     id="metadata1545">
    <rdf:RDF>
      <cc:Work
         rdf:about="">
        <dc:format>image/svg+xml</dc:format>
        <dc:type
           rdf:resource="http://purl.org/dc/dcmitype/StillImage" />
        <dc:title></dc:title>
      </cc:Work>
    </rdf:RDF>
  </metadata>
  <defs
     id="defs1543" />
  <sodipodi:namedview
     inkscape:current-layer="svg1539"
     inkscape:window-maximized="1"
     inkscape:window-y="-8"
     inkscape:window-x="-8"
     inkscape:cy="51.91164"
     inkscape:cx="175"
     inkscape:zoom="1.8732143"
     fit-margin-bottom="0"
     fit-margin-right="0"
     fit-margin-left="0"
     fit-margin-top="0"
     showgrid="false"
     id="namedview1541"
     inkscape:window-height="1027"
     inkscape:window-width="1920"
     inkscape:pageshadow="2"
     inkscape:pageopacity="0"
     guidetolerance="10"
     gridtolerance="10"
     objecttolerance="10"
     borderopacity="1"
     bordercolor="#666666"
     pagecolor="#ffffff" />
  <path
     id="path1495"
     fill="#fcb130"
     d="m 0,108.60164 h 242.297 l -4.807,7.501 H 0 Z" />
  <g
     transform="translate(-130.48904,-135.81)"
     id="g1501"
     fill="#fcb130">
    <path
       id="path1497"
       d="m 391.43,253.292 h -8.91 l 17.985,-28.386 c 0,0 2.692,-5.884 -0.83,-12.1 l -25.071,-41.521 c 0,0 -2.195,-3.856 0,-7.544 l 7.418,-11.106 29.422,48.071 c 0,0 7.584,10.069 -0.663,22.543 l -19.351,30.044" />
    <path
       id="path1499"
       d="m 412.936,244.59 10.941,-16.658 c 0,0 3.19,-6.879 11.437,-6.879 h 11.602 l 8.081,12.763 c 0,0 -6.383,-0.663 -9.242,3.896 l -11.933,17.984 c 0,0 -3.895,8.412 -14.297,8.412 h -56.192 l 21.383,-32.821 c 0,0 3.023,-3.853 -1.203,-10.235 L 364.492,190.47 c 0,0 -4.682,-4.517 0.165,-12.266 l 5.554,-8.414 26.439,42.848 c 0,0 4.682,5.885 0,12.929 l -19.851,30.956 h 41.855 c 0,0 4.724,0.87 8.784,-5.18 l 10.402,-15.996 c 0,0 2.362,-5.387 7.584,-7.583 h -8.412 c 0,0 -4.393,0.166 -7.749,5.387 l -9.24,14.297 c 0,0 -3.358,6.05 -10.776,6.05 H 394.62 l 17.652,-27.391 c 0,0 9.615,-12.639 2.86,-24.242 l -29.257,-48.401 c 0,0 -2.195,-4.186 0.333,-8.081 l 6.381,-9.573 33.317,53.664 c 0,0 4.891,8.04 4.891,14.255 0,6.216 -3.895,13.261 -6.052,16.825 l -14.669,22.875 c 0,0 -1.657,2.196 -0.496,3.025 1.201,0.828 2.362,-0.664 3.356,-1.865" />
  </g>
  <g
     transform="translate(-105,-148.08836)"
     id="g1537"
     fill="#1d4886">
    <path
       id="path1503"
       d="m 226.998,221.301 h 5.18 v 20.512 h 12.639 v 4.393 h -17.819 z" />
    <path
       id="path1505"
       d="m 248.796,246.206 h 5.138 v -24.905 h -5.138 z" />
    <path
       id="path1507"
       d="m 185.725,246.206 h 5.097 v -24.905 h -5.097 z" />
    <path
       id="path1509"
       d="m 290.689,221.301 h 19.518 v 4.103 h -14.339 v 6.091 h 12.184 v 4.517 h -12.184 v 6.049 h 14.339 v 4.145 h -19.518 z" />
    <path
       id="path1511"
       d="m 318.164,187.818 h 19.518 v 4.102 h -14.337 v 6.05 h 12.224 v 4.516 h -12.224 v 6.051 h 14.337 v 4.102 h -19.518 v -24.822" />
    <path
       id="path1513"
       d="m 198.736,246.206 v -24.905 h 14.795 c 0,0 7.127,0.124 7.127,7.252 0,0 0.663,5.926 -5.387,8.329 l 7.5,9.324 h -6.381 l -10.36,-12.929 h 5.387 c 0,0 3.854,-0.083 3.854,-3.978 0,-3.688 -3.108,-3.978 -4.061,-3.978 h -7.294 v 20.886 h -5.18" />
    <path
       id="path1515"
       d="m 289.777,212.64 v -24.822 h 14.795 c 0,0 7.128,0.123 7.128,7.253 0,0 0.621,5.883 -5.387,8.287 l 7.5,9.282 h -6.381 l -10.36,-12.845 h 5.387 c 0,0 3.854,-0.084 3.854,-3.979 0,-3.73 -3.107,-3.979 -4.061,-3.979 h -7.293 v 20.803 z" />
    <path
       id="path1517"
       d="m 186.097,208.331 h 7.004 v -11.396 h 4.973 V 212.64 H 185.02 c -1.948,0 -11.354,-2.196 -11.437,-12.1 -0.083,-9.82 8.495,-12.722 11.81,-12.722 h 12.805 v 4.393 h -11.562 c 0,0 -7.75,0 -7.75,8.163 0,6.34 6.423,7.957 7.211,7.957" />
    <path
       id="path1519"
       d="m 260.688,221.301 h 5.222 v 3.854 l 3.273,-3.854 h 6.174 c 0,0 8.452,-0.456 8.452,8.578 v 16.327 h -5.261 v -17.115 c 0,0 -0.166,-3.398 -3.73,-3.398 h -8.909 v 20.513 h -5.222 v -24.905" />
    <path
       id="path1521"
       d="m 145.736,187.818 h 5.179 v 3.812 l 3.274,-3.812 h 6.175 c 0,0 8.495,-0.456 8.495,8.577 v 16.244 h -5.263 v -17.031 c 0,0 -0.207,-3.397 -3.77,-3.397 h -8.91 v 20.428 h -5.179 v -24.822" />
    <path
       id="path1523"
       d="m 133.47,212.64 h 5.097 v -24.822 h -5.097 z" />
    <path
       id="path1525"
       d="m 315.886,246.165 v -4.227 h 14.42 c 0,0 2.86,0.538 2.86,-2.942 0,-3.481 -2.155,-3.108 -2.941,-3.108 h -8.33 c 0,0 -6.423,0.455 -6.423,-7.086 0,-7.501 6.341,-7.501 6.341,-7.501 h 15.828 v 4.392 h -13.883 c 0,0 -3.025,0 -3.025,2.86 0,2.86 2.031,3.398 3.937,3.398 h 7.418 c 0,0 6.257,-0.664 6.257,6.796 0,7.459 -6.423,7.418 -6.423,7.418 h -16.037" />
    <path
       id="path1527"
       d="m 105.539,212.64 v -4.226 h 14.421 c 0,0 2.859,0.539 2.859,-2.942 0,-3.481 -2.155,-3.108 -2.942,-3.108 h -8.329 c 0,0 -6.423,0.455 -6.423,-7.045 0,-7.542 6.341,-7.5 6.341,-7.5 h 15.829 v 4.393 h -13.882 c 0,0 -3.025,0 -3.025,2.86 0,2.858 2.072,3.397 3.937,3.397 h 7.417 c 0,0 6.258,-0.663 6.258,6.754 0,7.459 -6.423,7.417 -6.423,7.417 H 105.54" />
    <path
       id="path1529"
       d="m 272.064,186.284 c -7.467,0 -13.571,6.088 -13.571,13.584 0,7.526 6.104,13.559 13.571,13.559 7.557,0 13.571,-6.048 13.571,-13.559 0,-7.502 -6.014,-13.584 -13.571,-13.584 m 0,22.147 c -4.686,0 -8.474,-3.82 -8.474,-8.563 0,-4.678 3.793,-8.573 8.474,-8.573 4.72,0 8.588,3.895 8.588,8.573 0,4.743 -3.868,8.563 -8.588,8.563" />
    <path
       id="path1531"
       d="m 218.685,187.817 h -5.479 l -11.817,24.822 h 5.824 l 3.143,-7.138 h 11.256 l 3.104,7.138 h 5.805 m -18.722,-10.793 4.15,-10.162 4.102,10.138 z" />
    <path
       id="path1533"
       d="m 170.159,221.302 h -5.479 l -11.816,24.904 h 5.824 l 3.142,-7.162 h 11.255 l 3.104,7.162 h 5.805 m -18.721,-10.829 4.15,-10.196 4.102,10.171 z" />
    <path
       id="path1535"
       d="m 247.543,187.817 h -13.79 v 24.822 h 5.29 v -12.054 l 3.056,4.207 h 5.444 c 4.77,0 7.966,-3.965 7.966,-8.487 0,-4.507 -3.196,-8.488 -7.966,-8.488 m -0.188,12.374 h -8.317 v -7.808 h 8.317 c 1.868,0 3.143,2.064 3.143,3.931 0.005,1.921 -1.271,3.877 -3.143,3.877" />
  </g>
</svg>
