<?xml version="1.0" encoding="UTF-8" standalone="no"?>
<svg
   xmlns:dc="http://purl.org/dc/elements/1.1/"
   xmlns:cc="http://creativecommons.org/ns#"
   xmlns:rdf="http://www.w3.org/1999/02/22-rdf-syntax-ns#"
   xmlns:svg="http://www.w3.org/2000/svg"
   xmlns="http://www.w3.org/2000/svg"
   xmlns:sodipodi="http://sodipodi.sourceforge.net/DTD/sodipodi-0.dtd"
   xmlns:inkscape="http://www.inkscape.org/namespaces/inkscape"
   inkscape:version="1.0 (4035a4fb49, 2020-05-01)"
   height="79.718849"
   width="371.70639"
   sodipodi:docname="aeroflot-logo@logotyp.us.svg"
   id="svg1865"
   version="1.1"
   viewBox="0 0 371.70639 79.718849"
   stroke-miterlimit="1.41421"
   stroke-linejoin="round"
   fill-rule="evenodd"
   clip-rule="evenodd">
  <metadata
     id="metadata1871">
    <rdf:RDF>
      <cc:Work
         rdf:about="">
        <dc:format>image/svg+xml</dc:format>
        <dc:type
           rdf:resource="http://purl.org/dc/dcmitype/StillImage" />
        <dc:title></dc:title>
      </cc:Work>
    </rdf:RDF>
  </metadata>
  <defs
     id="defs1869" />
  <sodipodi:namedview
     inkscape:current-layer="svg1865"
     inkscape:window-maximized="1"
     inkscape:window-y="-8"
     inkscape:window-x="-8"
     inkscape:cy="33.274"
     inkscape:cx="200"
     inkscape:zoom="1.8732143"
     fit-margin-bottom="0"
     fit-margin-right="0"
     fit-margin-left="0"
     fit-margin-top="0"
     showgrid="false"
     id="namedview1867"
     inkscape:window-height="1027"
     inkscape:window-width="1920"
     inkscape:pageshadow="2"
     inkscape:pageopacity="0"
     guidetolerance="10"
     gridtolerance="10"
     objecttolerance="10"
     borderopacity="1"
     bordercolor="#666666"
     pagecolor="#ffffff" />
  <linearGradient
     y2="0"
     y1="0"
     x2="1"
     x1="0"
     gradientUnits="userSpaceOnUse"
     gradientTransform="matrix(15.186336,12.234294,-14.162057,13.119146,-2440.137,2351.8171)"
     id="a">
    <stop
       id="stop1747"
       stop-color="#c4161c"
       offset="0" />
    <stop
       id="stop1749"
       stop-color="#c4161c"
       offset=".01" />
    <stop
       id="stop1751"
       stop-color="#c93627"
       offset=".3" />
    <stop
       id="stop1753"
       stop-color="#ebb39e"
       offset=".5" />
    <stop
       id="stop1755"
       stop-color="#c93627"
       offset=".72" />
    <stop
       id="stop1757"
       stop-color="#c4161c"
       offset="1" />
  </linearGradient>
  <linearGradient
     y2="0"
     y1="0"
     x2="1"
     x1="0"
     gradientUnits="userSpaceOnUse"
     gradientTransform="matrix(9.1599763,7.3789523,-8.5416573,7.9131047,-1323.7859,1322.2708)"
     id="b">
    <stop
       id="stop1760"
       stop-color="#00529b"
       offset="0" />
    <stop
       id="stop1762"
       stop-color="#00529b"
       offset=".11" />
    <stop
       id="stop1764"
       stop-color="#778ec1"
       offset=".5" />
    <stop
       id="stop1766"
       stop-color="#728abf"
       offset=".52" />
    <stop
       id="stop1768"
       stop-color="#3c69aa"
       offset=".73" />
    <stop
       id="stop1770"
       stop-color="#00589f"
       offset=".88" />
    <stop
       id="stop1772"
       stop-color="#00529b"
       offset=".96" />
    <stop
       id="stop1774"
       stop-color="#00529b"
       offset="1" />
  </linearGradient>
  <linearGradient
     y2="0"
     y1="0"
     x2="1"
     x1="0"
     gradientUnits="userSpaceOnUse"
     gradientTransform="matrix(5.4245489,2.9281145,-3.3894989,4.6861501,-426.54349,789.44081)"
     id="c">
    <stop
       id="stop1777"
       stop-color="#c4161c"
       offset="0" />
    <stop
       id="stop1779"
       stop-color="#c4161c"
       offset=".01" />
    <stop
       id="stop1781"
       stop-color="#c93627"
       offset=".49" />
    <stop
       id="stop1783"
       stop-color="#ebb39e"
       offset="1" />
  </linearGradient>
  <linearGradient
     y2="0"
     y1="0"
     x2="1"
     x1="0"
     gradientUnits="userSpaceOnUse"
     gradientTransform="matrix(15.96974,10.830847,-12.537469,13.795912,-1593.6852,1892.6989)"
     id="d">
    <stop
       id="stop1786"
       stop-color="#fff"
       offset="0" />
    <stop
       id="stop1788"
       stop-color="#fff"
       offset=".3" />
    <stop
       id="stop1790"
       stop-color="#d4d9ec"
       offset=".51" />
    <stop
       id="stop1792"
       stop-color="#fff"
       offset=".7" />
    <stop
       id="stop1794"
       stop-color="#fff"
       offset="1" />
  </linearGradient>
  <path
     id="path1797"
     fill="#00529b"
     d="m 14.406,55.758 -3.118,-1.364 12.933,-1.576 c 0.23,0.373 0.453,0.703 0.714,1.053 l -10.53,1.887 z m 34.715,0 3.122,-1.447 -12.86,-1.533 c -0.113,0.413 -0.454,0.743 -0.685,1.093 l 10.424,1.887 z m -1.876,0.216 -3.919,1.313 -5.569,-1.69 -0.483,-0.151 c 0.186,-0.146 0.337,-0.293 0.483,-0.491 0.235,-0.183 0.423,-0.45 0.643,-0.643 l 8.845,1.663 z m 10.341,-3.648 -3.579,1.659 -14.289,-1.659 c 0.117,-0.334 0.23,-0.674 0.336,-1.02 z m 1.277,-0.496 4.666,-2.962 H 38.256 c 0,1.056 -0.153,1.961 -0.5,2.742 -0.969,2.518 -3.412,3.725 -5.858,3.689 -2.402,-0.07 -4.852,-1.313 -5.942,-3.61 -0.381,-0.836 -0.603,-1.722 -0.603,-2.82 H 0 l 4.626,2.962 19.37,-1.002 c 0.374,1.383 1.061,2.591 1.96,3.481 1.546,1.626 3.756,2.522 5.942,2.522 2.146,0.045 4.322,-0.743 5.858,-2.476 0.833,-0.9 1.471,-2.067 1.851,-3.469 l 19.255,0.944 z m -21.107,7.681 0.5,0.904 -0.5,0.228 -1.31,0.603 -1.502,-2.976 c -0.943,0.33 -1.986,0.519 -3.046,0.559 -1.13,0.041 -2.301,-0.118 -3.316,-0.45 l -1.272,2.867 c -0.418,0.032 -0.981,0 -1.354,-0.27 -0.193,-0.116 -0.381,-0.3 -0.456,-0.56 l 0.456,-0.758 1.09,-1.953 c -0.343,-0.23 -0.64,-0.38 -0.947,-0.679 l 0.906,-1.09 c 1.549,0.943 3.237,1.462 4.895,1.462 1.657,0.041 3.304,-0.487 4.847,-1.576 l 1.01,0.3 0.423,0.156 -0.423,0.334 c -0.296,0.299 -0.557,0.599 -1.041,0.863 l 1.041,2.036 z m 0,-15.39 c 0.98,1.164 1.701,2.602 2.078,4.255 h -1.615 c -0.117,-0.487 -0.268,-0.979 -0.464,-1.429 -1.078,-2.858 -3.304,-4.888 -5.858,-6.581 l -0.98,-0.603 0.98,0.339 c 2.326,0.939 4.395,2.22 5.858,4.019 z m -4.362,10.613 c 0.425,-0.074 1.059,-0.304 1.55,-0.68 l -2.564,-5.076 2.672,-1.276 -2.251,-1.952 -0.903,0.409 -3.878,1.763 1.138,2.557 1.835,-0.822 2.401,5.076 z m -6.988,0.712 c -0.153,-0.11 -0.307,-0.257 -0.45,-0.376 -0.301,-0.262 -0.57,-0.529 -0.746,-0.79 l -8.842,1.668 3.763,1.264 z m -2.41,-3.119 c -0.149,-0.334 -0.257,-0.674 -0.374,-1.02 l -17.678,1.02 3.573,1.727 z" />
  <path
     id="path1799"
     fill="#f47920"
     d="m 93.679,71.145 c 5.831,0.919 17.001,2.361 30.68,2.661 13.652,0.344 29.701,-0.454 44.869,-2.72 15.166,-2.201 29.382,-5.898 39.477,-9.886 10.172,-3.832 15.86,-8.502 15.834,-8.52 0.055,0.028 -5.872,5.429 -16.647,10.065 -10.664,4.814 -25.721,9.43 -41.576,12.412 -15.838,3.065 -32.45,4.465 -45.964,4.548 C 106.842,79.862 96.345,78.644 92.667,78.067 79.955,76.173 70.721,72.83 65.085,69.61 c -5.689,-3.243 -7.584,-6.173 -6.991,-6.743 0.629,-0.676 3.462,0.692 9.199,2.467 5.743,1.799 14.485,4.044 26.387,5.813 z" />
  <path
     style="stroke-width:0.697448"
     id="path1801"
     d="m 355.13634,6.27357 -1.62459,0.17827 -1.04229,0.0856 c -1.95401,0.14651 -4.90303,0.36302 -7.50612,1.79499 -2.58133,1.42289 -5.53936,4.39509 -7.60593,6.68209 -22.41556,3.24251 -34.70465,14.71577 -42.8366,22.31707 l -5.09738,5.13927 0.85394,-0.22948 C 305.553,30.06543 319.17628,23.55318 331.93286,22.33513 l 0.1891,-0.0182 1.69888,-1.91491 3.57484,-4.05022 c 1.47001,-1.14415 3.50356,-1.54801 6.49761,-1.84361 l 5.22569,-0.28847 6.18394,-0.37468 c 3.53283,-0.40839 6.56739,-1.11174 10.73204,-6.05394 l 5.67143,-6.61338 -0.66485,-0.49785 c -5.20393,4.45343 -10.88736,5.05824 -15.90445,5.59174 z m 0.1073,0.75585 c 4.34625,-0.46155 9.16898,-1.12859 13.82288,-4.05282 -1.67936,1.95964 -3.74443,4.36787 -3.74443,4.36787 -3.96804,4.70754 -6.70321,5.35189 -10.13698,5.74732 0,0.003 -6.1044,0.3682 -6.1044,0.3682 l -5.28723,0.2956 c -2.23315,0.21781 -3.85774,0.62815 -5.28497,1.24204 1.98852,-2.16189 4.62613,-4.74968 6.93358,-6.02089 2.41624,-1.33408 5.2347,-1.53893 7.10091,-1.67959 l 1.08656,-0.0927 1.61333,-0.17503 z m -18.57508,8.90038 c -0.40146,0.44729 -3.54783,4.01068 -3.54783,4.01068 l -1.48127,1.67117 c -10.89787,1.08386 -22.40356,5.98458 -34.96729,14.84866 7.9391,-7.36664 19.70667,-17.3593 39.99639,-20.53051 z m 16.96025,-8.72471 h 0.007 z" />
  <path
     style="fill:url(#a);stroke-width:0.697448"
     id="path1803"
     fill="url(#a)"
     d="m 289.98922,41.9788 c 16.20987,-10.23446 24.92486,-14.2983 44.1798,-14.44674 l -4.14814,4.8333 c -0.78115,1.43391 -1.99228,1.36909 -3.26794,1.30297 -13.7651,-0.0947 -23.38056,0.79215 -40.10294,11.28267 z" />
  <path
     style="stroke-width:0.697448"
     id="path1805"
     fill="#ffffff"
     d="m 289.97872,41.9626 c 16.31266,-13.00246 29.93069,-18.85934 41.90612,-20.00219 1.05955,-1.21157 4.71693,-5.27087 5.82526,-6.62246 -27.29684,3.84992 -39.36457,19.80967 -47.73138,26.62465 z" />
  <path
     style="fill:url(#b);stroke-width:0.697448"
     id="path1807"
     fill="url(#b)"
     d="m 290.8169,41.21842 c -0.32342,0.26772 -1.449,1.31593 -1.77241,1.56615 9.57268,-6.09802 17.58982,-12.44562 37.55687,-14.79226 0.99502,-0.97366 3.89902,-4.27322 5.26772,-6.03255 -18.20289,2.1379 -30.10778,10.91706 -41.05218,19.2593 z" />
  <path
     style="fill:url(#c);stroke-width:0.697448"
     id="path1809"
     fill="url(#c)"
     d="m 329.65919,32.92285 c 0.17559,-0.53286 0.60556,-0.92894 -1.41823,-1.95964 -2.38098,-1.21157 -3.20415,-0.70205 -2.67738,-1.93436 0.3917,-0.93541 5.50559,-2.79652 9.23726,-1.70423 7.6e-4,6.5e-4 -3.3107,3.31511 -5.14165,5.59823 z" />
  <path
     style="stroke-width:0.697448"
     id="path1811"
     fill="#00529b"
     d="m 343.99909,13.81523 c -3.73393,0.43173 -6.08864,1.23555 -7.58416,2.86394 l -5.21369,6.03255 c 1.13683,-0.87772 4.57361,-1.3101 8.29628,-1.39307 l 0.52152,0.009 0.47424,-0.009 1.66286,-0.0454 c 5.28047,-0.17827 12.61176,-0.82197 16.89197,-5.13085 l 6.41355,-7.66093 0.76765,-0.91208 c -5.57012,6.33787 -18.28018,5.79011 -22.22872,6.24517 z" />
  <path
     style="stroke-width:0.697448"
     id="path1813"
     fill="#c4161c"
     d="m 347.09519,20.51936 c -4.00557,0.48424 -8.58668,0.62815 -9.89986,0.6852 -2.24441,0.0856 -5.2272,0.70464 -6.05262,1.56874 -2.51605,2.70123 -4.92479,5.21966 -5.57763,6.25685 1.53679,-1.22713 6.59365,-1.09294 12.73032,-1.33733 6.12991,-0.24179 12.34087,-2.53139 17.23864,-7.35497 l 3.72117,-4.44241 c -2.49128,2.76087 -6.8803,3.98735 -12.16002,4.62457 z" />
  <path
     style="fill:url(#d);stroke-width:0.697448"
     id="path1815"
     fill="url(#d)"
     d="m 353.57028,6.82782 c -1.63059,0.18993 -5.30899,0.13937 -8.36757,1.8274 -3.06458,1.68802 -6.75423,5.69352 -8.56792,7.80225 1.68537,-1.55773 3.92378,-2.00113 7.20822,-2.32266 3.28369,-0.32736 8.02764,-0.27096 11.39988,-0.66444 3.23942,-0.3721 6.25223,-0.93412 10.43414,-5.89902 l 5.67367,-6.61662 c -5.88153,5.03232 -12.3041,5.24105 -17.78117,5.87309 z" />
  <g
     transform="translate(-80,-166.726)"
     id="g1863"
     fill="#00529b">
    <path
       id="path1817"
       d="m 134.759,190.635 v -7.806 h 14.708 v -4.101 h -14.708 v -7.107 h 15.503 v -4.103 h -26.403 v 27.264 h 27.261 v -4.147 z" />
    <path
       id="path1819"
       d="m 167.067,194.782 v -23.16 h 6.405 c 1.95,0 3.752,0.146 5.397,1.244 1.196,0.851 1.948,2.062 1.948,3.565 0,1.254 -0.446,2.545 -2.096,3.591 -2.151,1.401 -5.898,1.594 -8.249,1.31 l -1.349,-0.161 10.856,13.611 h 12.596 l -10.303,-11.359 c 1.846,-0.202 4.805,-0.936 6.6,-2.089 2.149,-1.458 3.248,-3.608 3.248,-5.613 0,-2.246 -1.207,-4.69 -3.945,-6.297 -3.258,-1.847 -7.703,-1.902 -11.803,-1.902 h -20.253 v 27.262 h 10.948 v -0.001 z" />
    <path
       id="path1821"
       d="m 255.086,179.173 v -7.551 h 15.905 v -4.103 h -26.798 v 27.264 h 10.893 v -11.506 h 14.705 v -4.103 h -14.705 z" />
    <path
       id="path1823"
       d="m 274.943,167.518 v 27.264 h 27.012 v -4.147 h -16.058 v -23.116 h -10.954 z" />
    <path
       id="path1825"
       d="m 381.417,167.518 h -34.453 v 4.103 h 11.752 v 23.16 h 10.955 v -23.16 h 11.745 v -4.103 z" />
    <path
       id="path1827"
       d="m 323.759,166.726 c -5.101,0 -12.253,1.153 -17.056,4.593 -3.809,2.701 -5.601,6.563 -5.601,9.853 0,3.257 1.794,7.111 5.601,9.811 4.803,3.393 11.955,4.546 17.056,4.546 5.096,0 12.3,-1.153 17.097,-4.546 3.806,-2.701 5.56,-6.555 5.56,-9.811 0,-3.29 -1.754,-7.152 -5.56,-9.853 -4.797,-3.44 -12.001,-4.544 -17.097,-4.593 z m 0,25.506 c -2.705,0 -5.905,-0.602 -8.262,-3.555 -1.948,-2.398 -2.296,-5.155 -2.296,-7.506 0,-2.443 0.348,-5.149 2.296,-7.547 2.357,-3.009 5.557,-3.602 8.262,-3.602 2.743,0 5.905,0.593 8.29,3.602 1.957,2.398 2.311,5.104 2.311,7.547 0,2.351 -0.354,5.108 -2.311,7.506 -2.385,2.955 -5.547,3.555 -8.29,3.555 z" />
    <path
       id="path1829"
       d="m 217.757,166.726 c -5.097,0 -12.246,1.153 -17.046,4.593 -3.809,2.701 -5.61,6.563 -5.61,9.853 0,3.257 1.802,7.111 5.61,9.811 4.8,3.393 11.951,4.546 17.046,4.546 5.096,0 12.304,-1.153 17.108,-4.546 3.795,-2.701 5.551,-6.555 5.551,-9.811 0,-3.29 -1.756,-7.152 -5.551,-9.853 -4.804,-3.44 -12.012,-4.544 -17.108,-4.593 z m 0,25.506 c -2.701,0 -5.904,-0.602 -8.251,-3.555 -1.949,-2.398 -2.303,-5.155 -2.303,-7.506 0,-2.443 0.354,-5.149 2.303,-7.547 2.347,-3.009 5.55,-3.602 8.251,-3.602 2.745,0 5.902,0.593 8.3,3.602 1.953,2.398 2.301,5.104 2.301,7.547 0,2.351 -0.348,5.108 -2.301,7.506 -2.398,2.955 -5.557,3.555 -8.3,3.555 z" />
    <path
       id="path1831"
       d="m 85.448,194.782 4.304,-7.915 h 15.159 l 4.646,7.915 h 12.251 L 105.211,167.518 H 95.054 l -15.053,27.264 h 5.448 z m 6.301,-11.609 5.155,-9.499 h 0.151 l 5.597,9.499 z" />
    <path
       id="path1833"
       d="m 194.726,216.628 -2.427,8.953 c -0.3,0.358 -0.767,0.658 -1.189,0.882 -0.654,0.354 -1.302,0.542 -1.9,0.542 -0.595,0 -1.122,-0.238 -1.364,-0.603 -0.176,-0.299 -0.351,-0.768 -0.117,-1.602 l 2.197,-8.172 h -2.256 l -2.127,7.878 c -0.18,0.717 -0.478,1.957 0.171,2.907 0.361,0.534 1.136,1.13 2.724,1.13 0.658,0 1.313,-0.116 2.146,-0.474 0.529,-0.308 1.116,-0.658 1.597,-1.014 l -0.352,1.248 h 2.01 l 3.155,-11.675 h -2.267 z" />
    <path
       id="path1835"
       d="m 209.158,217.977 c -0.537,-0.708 -1.193,-1.061 -1.312,-1.125 -0.754,-0.403 -1.594,-0.474 -2.315,-0.474 -0.768,0 -1.719,0.07 -2.779,0.713 -0.774,0.541 -1.719,1.364 -2.069,2.732 -0.317,1.005 -0.189,1.773 0.171,2.252 0.412,0.537 1.125,0.826 1.726,1.003 l 1.12,0.365 c 0.586,0.118 1.185,0.118 1.536,0.582 0.179,0.244 0.368,0.544 0.244,1.131 -0.182,0.533 -0.529,0.886 -0.831,1.125 -0.412,0.362 -1.129,0.665 -2.134,0.665 -0.65,0 -1.187,-0.134 -1.718,-0.431 -0.471,-0.35 -0.831,-0.648 -1.012,-0.937 l -1.489,1.368 c 1.072,1.405 2.385,1.594 3.682,1.594 0.884,0 2.67,-0.116 4.156,-1.244 0.823,-0.708 1.422,-1.608 1.664,-2.376 0.117,-0.602 0.234,-1.478 -0.059,-2.022 -0.421,-0.826 -1.368,-1.18 -1.904,-1.304 l -0.831,-0.24 c -1.059,-0.24 -1.538,-0.354 -1.777,-0.652 -0.231,-0.169 -0.417,-0.529 -0.231,-1.24 0.107,-0.293 0.355,-0.775 0.819,-1.129 0.593,-0.359 1.14,-0.414 1.55,-0.414 0.531,0 1.006,0.124 1.425,0.414 0.357,0.234 0.647,0.538 0.886,0.836 l 1.482,-1.193 z" />
    <path
       id="path1837"
       d="m 221.321,217.977 c -0.478,-0.708 -1.126,-1.061 -1.302,-1.125 -0.708,-0.403 -1.549,-0.474 -2.253,-0.474 -0.818,0 -1.719,0.07 -2.787,0.713 -0.772,0.541 -1.722,1.364 -2.136,2.732 -0.226,1.005 -0.117,1.773 0.24,2.252 0.414,0.537 1.193,0.826 1.718,1.003 l 1.065,0.365 c 0.593,0.118 1.193,0.118 1.604,0.582 0.179,0.244 0.355,0.544 0.179,1.131 -0.179,0.533 -0.529,0.886 -0.775,1.125 -0.416,0.362 -1.122,0.665 -2.134,0.665 -0.651,0 -1.18,-0.134 -1.776,-0.431 -0.48,-0.35 -0.775,-0.648 -1.01,-0.937 l -1.484,1.368 c 1.141,1.405 2.439,1.594 3.737,1.594 0.896,0 2.666,-0.116 4.156,-1.244 0.829,-0.708 1.423,-1.608 1.601,-2.376 0.179,-0.602 0.234,-1.478 -0.059,-2.022 -0.355,-0.826 -1.308,-1.18 -1.893,-1.304 l -0.837,-0.24 c -1.013,-0.24 -1.473,-0.354 -1.722,-0.652 -0.23,-0.169 -0.406,-0.529 -0.23,-1.24 0.117,-0.293 0.295,-0.775 0.829,-1.129 0.538,-0.359 1.125,-0.414 1.478,-0.414 0.602,0 1.07,0.124 1.488,0.414 0.361,0.234 0.65,0.538 0.889,0.836 l 1.415,-1.193 z" />
    <path
       id="path1839"
       d="m 225.67,216.628 -0.42,1.533 h 1.363 l -2.716,10.142 h 2.244 l 3.141,-11.675 z m 1.426,-3.855 c -0.19,0.823 0.296,1.476 1.074,1.476 0.826,0 1.59,-0.654 1.828,-1.476 0.231,-0.78 -0.238,-1.427 -1.07,-1.427 -0.758,0 -1.593,0.646 -1.832,1.427 z" />
    <path
       id="path1841"
       d="m 247.699,228.303 2.497,-9.192 c 0.782,-0.657 1.964,-1.189 3.027,-1.189 0.772,0 1.195,0.295 1.364,0.648 0.359,0.542 0.182,1.423 0.056,1.783 l -2.132,7.95 h 2.257 l 2.132,-7.767 c 0.244,-0.955 0.354,-2.081 -0.178,-3.027 -0.478,-0.768 -1.359,-1.13 -2.611,-1.13 -0.763,0 -2.069,0.18 -3.5,1.13 l 0.242,-0.882 h -3.626 l -0.407,1.533 h 1.361 l -2.725,10.142 h 2.242 z" />
    <path
       id="path1843"
       d="m 173.519,211.465 -4.562,16.838 h 2.544 l 1.971,-7.404 h 1.708 l 2.379,7.404 h 3.075 l -2.724,-7.533 c 1.25,-0.128 2.913,-0.713 3.915,-1.484 1.119,-0.831 1.963,-2.017 2.245,-3.262 0.361,-1.193 0.194,-2.429 -0.515,-3.251 -0.955,-1.193 -2.855,-1.308 -4.22,-1.308 z m 4.219,7.518 h -3.737 l 1.487,-5.566 h 3.383 c 0.358,0 1.474,0 2.072,0.593 0.351,0.358 0.651,0.95 0.405,1.897 -0.234,0.891 -0.713,1.604 -1.416,2.197 -0.769,0.586 -1.605,0.829 -2.193,0.88 z" />
    <path
       id="path1845"
       d="m 236.724,221.483 c -2.369,0.238 -4.332,1.185 -4.98,3.623 -0.062,0.285 -0.121,0.529 -0.121,0.764 v 0.414 c 0.059,1.308 0.947,2.26 2.904,2.26 0.708,0 1.421,-0.116 2.197,-0.428 0.065,0 0.121,-0.045 0.233,-0.106 0.775,-0.358 1.357,-0.954 1.546,-1.129 h 0.117 l -0.406,1.423 h 2.014 l 2.073,-7.533 c 0.301,-1.189 0.588,-2.376 -0.065,-3.261 -0.537,-0.831 -1.894,-1.13 -2.955,-1.13 -1.017,0 -1.906,0.124 -2.557,0.299 -2.067,0.529 -2.848,1.778 -2.908,2.903 l 2.083,0.12 c 0.168,-0.589 0.414,-1.01 0.826,-1.305 0.478,-0.35 1.189,-0.474 2.078,-0.474 0.479,0 1.065,0.055 1.301,0.474 0.363,0.418 0.24,1.01 0.124,1.549 l -0.418,1.478 h -1.661 c -0.479,-0.001 -1.002,-0.001 -1.422,0.059 z m 0,5.332 c -0.357,0.134 -0.712,0.189 -1.072,0.189 -0.464,0 -1.061,-0.055 -1.414,-0.542 -0.296,-0.418 -0.362,-0.829 -0.179,-1.425 0.117,-0.468 0.351,-0.947 0.943,-1.418 0.355,-0.24 0.831,-0.54 1.722,-0.648 0.293,-0.07 0.651,-0.124 1.075,-0.124 h 1.66 l -0.655,2.485 c -0.359,0.478 -0.713,0.772 -1.136,1.07 -0.348,0.19 -0.651,0.365 -0.944,0.414 z" />
    <path
       id="path1847"
       d="m 290.889,216.628 -0.41,1.533 h 1.364 l -2.736,10.142 h 2.257 l 3.14,-11.675 z m 2.087,-3.855 c -0.186,0.823 0.289,1.476 1.068,1.476 0.761,0 1.594,-0.654 1.829,-1.476 0.244,-0.78 -0.235,-1.427 -1.068,-1.427 -0.763,0 -1.61,0.646 -1.829,1.427 z" />
    <path
       id="path1849"
       d="m 299.491,216.628 -3.138,11.675 h 2.256 l 1.78,-6.706 c 0.293,-0.768 0.585,-1.539 1.008,-2.132 0.71,-1.129 1.532,-1.304 2.017,-1.304 0.296,0 0.644,0.055 0.888,0.295 0.167,0.183 0.237,0.527 0.237,0.95 l 2.017,-0.593 c 0.406,-1.181 0,-1.842 -0.708,-2.186 -0.369,-0.179 -0.779,-0.249 -1.193,-0.249 -1.305,0 -2.6,0.713 -3.5,1.957 l 0.471,-1.708 h -2.132 v 10e-4 z" />
    <path
       id="path1851"
       d="m 311.957,211.225 -3.732,13.88 c -0.289,1.061 -0.831,3.198 1.844,3.198 h 1.301 l 0.412,-1.538 h -0.644 c -1.125,0 -0.834,-0.957 -0.782,-1.185 l 3.861,-14.355 z" />
    <path
       id="path1853"
       d="m 318.056,216.628 -0.399,1.533 h 1.368 l -2.8,10.142 h 2.314 l 3.148,-11.675 z m 2.08,-3.855 c -0.182,0.823 0.296,1.476 1.068,1.476 0.834,0 1.606,-0.654 1.839,-1.476 0.178,-0.78 -0.3,-1.427 -1.061,-1.427 -0.836,0 -1.602,0.646 -1.846,1.427 z" />
    <path
       id="path1855"
       d="m 326.345,228.303 2.428,-9.192 c 0.83,-0.657 2.019,-1.189 3.079,-1.189 0.774,0 1.196,0.295 1.368,0.648 0.414,0.542 0.12,1.423 0.061,1.783 l -2.129,7.95 h 2.245 l 2.136,-7.767 c 0.238,-0.955 0.358,-2.081 -0.179,-3.027 -0.464,-0.768 -1.364,-1.13 -2.602,-1.13 -0.834,0 -2.022,0.18 -3.5,1.13 l 0.235,-0.882 h -3.616 l -0.418,1.533 h 1.361 l -2.721,10.143 z" />
    <path
       id="path1857"
       d="m 361.162,217.977 c -0.469,-0.708 -1.061,-1.061 -1.25,-1.125 -0.769,-0.403 -1.528,-0.474 -2.246,-0.474 -0.842,0 -1.722,0.07 -2.783,0.713 -0.833,0.541 -1.783,1.364 -2.136,2.732 -0.311,1.005 -0.121,1.773 0.228,2.252 0.361,0.537 1.131,0.826 1.667,1.003 l 1.127,0.365 c 0.585,0.118 1.192,0.118 1.528,0.582 0.251,0.244 0.369,0.544 0.251,1.131 -0.171,0.533 -0.527,0.886 -0.831,1.125 -0.362,0.362 -1.07,0.665 -2.134,0.665 -0.668,0 -1.136,-0.134 -1.729,-0.431 -0.469,-0.35 -0.819,-0.648 -1.002,-0.937 l -1.482,1.368 c 1.065,1.405 2.377,1.594 3.679,1.594 0.947,0 2.668,-0.116 4.15,-1.244 0.836,-0.708 1.415,-1.608 1.661,-2.376 0.179,-0.602 0.241,-1.478 -0.048,-2.022 -0.365,-0.826 -1.381,-1.18 -1.902,-1.304 l -0.84,-0.24 c -0.994,-0.24 -1.48,-0.354 -1.773,-0.652 -0.186,-0.169 -0.414,-0.529 -0.24,-1.24 0.118,-0.293 0.285,-0.775 0.833,-1.129 0.586,-0.359 1.178,-0.414 1.542,-0.414 0.591,0 0.999,0.124 1.471,0.414 0.304,0.234 0.595,0.538 0.836,0.836 l 1.423,-1.193 z" />
    <path
       id="path1859"
       d="m 270.876,228.303 h 2.551 l 2.551,-4.098 h 6.46 l 0.299,4.098 h 2.907 l -1.597,-16.838 h -2.078 l -11.092,16.838 z m 6.288,-6.048 4.563,-7.176 h 0.056 l 0.544,7.176 z" />
    <path
       id="path1861"
       d="m 341.309,222.971 h 7.045 l 0.187,-0.772 c 0.471,-1.557 0.94,-3.152 0.121,-4.45 -0.714,-1.12 -2.138,-1.37 -3.151,-1.37 -1.502,0 -2.943,0.538 -4.088,1.543 -1.549,1.364 -2.186,3.196 -2.546,4.746 -0.355,1.247 -0.717,3.14 0.231,4.509 0.888,1.176 2.5,1.364 3.619,1.364 0.908,0 1.748,-0.129 2.618,-0.428 0.467,-0.169 1.057,-0.409 1.59,-0.703 l -0.345,-1.368 c -0.544,0.24 -0.953,0.418 -1.55,0.546 -0.553,0.1 -1.075,0.224 -1.666,0.224 -0.882,0 -1.659,-0.299 -2.066,-0.822 -0.658,-0.772 -0.357,-1.968 -0.175,-2.551 l 0.176,-0.469 z m 0.351,-1.549 0.117,-0.523 c 0.245,-0.606 0.538,-1.553 1.299,-2.209 0.501,-0.487 1.27,-0.768 1.964,-0.768 0.597,0 1.181,0.18 1.484,0.534 0.527,0.717 0.289,1.722 0.066,2.494 l -0.129,0.474 h -4.801 v -0.001 z" />
  </g>
</svg>
