<?xml version="1.0" encoding="UTF-8" standalone="no"?>
<svg
   xmlns:dc="http://purl.org/dc/elements/1.1/"
   xmlns:cc="http://creativecommons.org/ns#"
   xmlns:rdf="http://www.w3.org/1999/02/22-rdf-syntax-ns#"
   xmlns:svg="http://www.w3.org/2000/svg"
   xmlns="http://www.w3.org/2000/svg"
   xmlns:sodipodi="http://sodipodi.sourceforge.net/DTD/sodipodi-0.dtd"
   xmlns:inkscape="http://www.inkscape.org/namespaces/inkscape"
   inkscape:version="1.0 (4035a4fb49, 2020-05-01)"
   height="66.951302"
   width="419.99701"
   sodipodi:docname="TK.svg"
   id="svg2439"
   version="1.1"
   viewBox="0 0 419.99701 66.951302"
   fill-rule="evenodd"
   clip-rule="evenodd">
  <metadata
     id="metadata2445">
    <rdf:RDF>
      <cc:Work
         rdf:about="">
        <dc:format>image/svg+xml</dc:format>
        <dc:type
           rdf:resource="http://purl.org/dc/dcmitype/StillImage" />
        <dc:title></dc:title>
      </cc:Work>
    </rdf:RDF>
  </metadata>
  <defs
     id="defs2443" />
  <sodipodi:namedview
     inkscape:current-layer="svg2439"
     inkscape:window-maximized="1"
     inkscape:window-y="-8"
     inkscape:window-x="-8"
     inkscape:cy="34.000298"
     inkscape:cx="209.998"
     inkscape:zoom="1.8732143"
     fit-margin-bottom="0"
     fit-margin-right="0"
     fit-margin-left="0"
     fit-margin-top="0"
     showgrid="false"
     id="namedview2441"
     inkscape:window-height="1027"
     inkscape:window-width="1920"
     inkscape:pageshadow="2"
     inkscape:pageopacity="0"
     guidetolerance="10"
     gridtolerance="10"
     objecttolerance="10"
     borderopacity="1"
     bordercolor="#666666"
     pagecolor="#ffffff" />
  <path
     id="path2405"
     fill="#ffffff"
     d="m 24.248002,34.722298 c 2.76,-10.37 -0.388,-21.237 -7.918,-26.9960003 C 6.0730018,14.219298 0.15800183,26.429298 2.2940018,39.149298 c 0.704,4.205 2.229,8.07 4.375,11.456 8.0200002,-2.233 15.0720002,-6.461 17.5780002,-15.883 m 13.845,29.927 c 16.929,-2.842 28.344,-18.871 25.5,-35.794 -2.366,-14.087 -13.851,-24.3530003 -27.394,-25.7710003 -2.734,-0.287 -5.558,-0.209 -8.406,0.267 -3.376,0.566 -6.524,1.664 -9.391,3.185 14.92,5.0610003 22.943,12.7530003 23.499,20.6360003 0.273,4.866 -1.989,8.386 -4.96,11.255 l 21.098,-1.473 c 0.597,-0.041 0.784,0.655 0.062,0.862 l -50.3220002,14.428 c 5.1220002,7.056 13.0770002,11.749 21.9120002,12.673 2.734,0.287 5.558,0.214 8.404,-0.267 m -1.699,-63.4180003 c 16.572,1.726 29.498,15.7310003 29.504,32.7590003 0.006,18.196 -14.742,32.954 -32.939,32.96 -18.198,0.006 -32.95400017,-14.74 -32.9600001696446,-32.937 C -0.00599817,15.816298 14.740002,1.0582977 32.937002,1.0522977 c 1.166,0 2.321,0.064 3.458,0.181" />
  <path
     id="path2407"
     fill="#c70a0c"
     d="m 22.551002,36.235298 c 0.704,4.203 2.229,8.068 4.375,11.454 8.02,-2.233 15.072,-6.461 17.58,-15.883 2.758,-10.37 -0.39,-21.237 -7.922,-26.9960003 -10.255,6.4930003 -16.17,18.7050003 -14.034,31.4250003 m 61.298,-10.298 c 2.844,16.925 -8.57,32.954 -25.5,35.796 -2.847,0.48 -5.671,0.554 -8.406,0.267 -8.831,-0.923 -16.79,-5.617 -21.91,-12.673 l 50.322,-14.428 c 0.722,-0.209 0.536,-0.903 -0.062,-0.862 l -21.098,1.473 c 2.972,-2.869 5.233,-6.389 4.96,-11.255 -0.556,-7.883 -8.579,-15.5750003 -23.499,-20.6360003 2.867,-1.521 6.015,-2.619 9.391,-3.18500005 2.849,-0.476 5.673,-0.554 8.406,-0.267 13.543,1.41800005 25.028,11.68400035 27.394,25.76900035" />
  <path
     id="path2409"
     d="m 236.558,46.923298 v -10.834 h -10.862 v 10.834 h -5.962 v -25.805 h 5.962 v 10.28 h 10.862 v -10.28 h 6.007 v 25.805 z" />
  <path
     id="path2411"
     d="m 108.056,21.117298 v 16.156 c 0,1.785 0.263,3.331 0.782,4.587 0.515,1.246 1.262,2.282 2.221,3.078 0.967,0.804 2.134,1.398 3.467,1.763 1.354,0.374 2.883,0.564 4.543,0.564 1.658,0 3.174,-0.191 4.5,-0.564 1.305,-0.365 2.417,-0.956 3.31,-1.755 0.891,-0.796 1.59,-1.833 2.08,-3.081 0.492,-1.252 0.738,-2.797 0.738,-4.593 v -16.156 h -5.578 v 15.983 c 0,1.627 -0.405,2.943 -1.2,3.908 -0.815,0.983 -2.11,1.482 -3.849,1.482 -1.708,0 -2.994,-0.497 -3.823,-1.478 -0.813,-0.963 -1.225,-2.278 -1.225,-3.912 v -15.983 h -5.965 z" />
  <path
     id="path2413"
     d="m 90.857002,46.927298 v -20.991 h -7.011 v -4.819 H 103.872 v 2.311 c 0,1.383 -1.123,2.508 -2.506,2.508 h -4.545998 v 20.991 h -5.964 z" />
  <path
     id="path2415"
     d="m 186.694,21.115298 h 5.964 v 25.806 h -5.964 z" />
  <path
     id="path2417"
     d="m 166.834,34.888298 0.2,0.257 7.619,9.816 c 0.969,1.25 2.431,1.968 4.013,1.968 h 4.75 l -10.915,-13.882 -0.16,-0.205 0.16,-0.203 8.973,-11.532 h -6.205 l -8.228,11.123 -0.207,0.269 -0.003,-0.466 v -10.926 h -5.963 v 25.808 h 5.963 v -11.567 z" />
  <path
     id="path2419"
     d="m 141.167,32.928298 h 3.477 c 1.252,0 2.206,-0.345 2.834,-1.02 0.621,-0.669 0.938,-1.539 0.938,-2.584 0,-1.071 -0.309,-1.952 -0.913,-2.621 -0.616,-0.681 -1.576,-1.024 -2.859,-1.024 h -3.477 z m 11.926,13.991 c -1.767,0 -3.431,-0.938 -4.344,-2.448 l -4.64,-7.661 h -2.941 v 10.11 h -5.959 v -25.801 h 10.626 c 2.73,0 4.868,0.712 6.354,2.118 1.482,1.402 2.234,3.323 2.234,5.707 0,1.211 -0.323,2.438 -0.959,3.647 -0.628,1.188 -1.74,2.161 -3.31,2.89 l -0.345,0.16 7.24,11.279 h -3.955 z" />
  <path
     id="path2421"
     d="m 197.552,45.827298 v -4.948 c 1.899,0.874 4.345,1.747 6.874,1.747 2.909,0 4.386,-0.997 4.386,-2.91 0,-2.245 -1.981,-2.494 -5.947,-4.199 -2.698,-1.205 -5.27,-3.076 -5.27,-7.398 0,-5.03 3.838,-7.401 9.151,-7.401 2.825,0 5.23,0.665 6.578,1.164 v 4.823 c -1.348,-0.624 -3.753,-1.373 -6.157,-1.373 -2.615,0 -3.838,0.956 -3.838,2.619 0,1.747 1.478,2.288 4.133,3.286 3.415,1.703 7.381,2.453 7.381,8.273 0,5.03 -4.006,7.774 -9.364,7.774 -3.289,0 -5.902,-0.583 -7.928,-1.455" />
  <path
     id="path2423"
     d="m 381.758,46.921298 v -25.808 h 16.16 v 2.342 c 0,1.367 -1.112,2.477 -2.477,2.477 h -7.719 v 5.551 h 8.667 v 4.308 h -8.667 v 6.313 h 10.196 v 4.817 z" />
  <path
     id="path2425"
     d="m 322.801,46.919298 v -25.806 h 2.897 c 1.689,0 3.064,1.375 3.064,3.064 v 18.093 h 9.519 v 4.648 h -15.48 z" />
  <path
     id="path2427"
     d="m 285.885,46.914298 v -25.789 h 5.963 l -0.001,25.789 z" />
  <path
     id="path2429"
     d="m 303.278,32.924298 h 3.477 c 1.252,0 2.205,-0.343 2.834,-1.018 0.621,-0.671 0.938,-1.539 0.938,-2.586 0,-1.069 -0.309,-1.952 -0.916,-2.621 -0.613,-0.679 -1.576,-1.024 -2.857,-1.024 h -3.477 v 7.249 z m 11.926,13.99 c -1.767,0 -3.434,-0.938 -4.347,-2.446 l -4.637,-7.661 h -2.941 v 10.107 h -5.959 v -25.799 h 10.624 c 2.732,0 4.868,0.712 6.355,2.118 1.482,1.402 2.234,3.323 2.234,5.707 0,1.211 -0.323,2.438 -0.961,3.647 -0.627,1.186 -1.74,2.159 -3.308,2.89 l -0.345,0.16 7.24,11.277 z" />
  <path
     id="path2431"
     d="m 265.388,37.517298 2.342,-6.522 c 0.519,-1.467 1.04,-3.017 1.387,-4.158 h 0.086 c 0.303,1.182 0.824,2.65 1.344,4.158 l 2.255,6.522 h -7.415 z m 7.369,-16.406 h -6.849 l -9.732,25.808 h 4.295 c 1.091,0 2.055,-0.696 2.395,-1.73 l 0.999,-3.029 h 10.466 l 1.532,4.759 h 6.46 l -9.567,-25.808 z" />
  <path
     id="path2433"
     d="m 402.708,45.827298 v -4.946 c 1.896,0.872 4.343,1.744 6.873,1.744 2.911,0 4.386,-0.997 4.386,-2.91 0,-2.245 -1.982,-2.494 -5.945,-4.197 -2.698,-1.207 -5.273,-3.076 -5.273,-7.401 0,-5.03 3.838,-7.401 9.151,-7.401 2.826,0 5.23,0.665 6.581,1.164 v 4.823 c -1.351,-0.622 -3.755,-1.371 -6.157,-1.371 -2.615,0 -3.838,0.956 -3.838,2.619 0,1.744 1.475,2.286 4.131,3.284 3.417,1.703 7.38,2.453 7.38,8.273 0,5.03 -4.006,7.774 -9.361,7.774 -3.29,0 -5.905,-0.583 -7.928,-1.455" />
  <path
     id="path2435"
     d="m 353.541,21.117298 h 3.696 c 1.754,0 3.386,0.905 4.313,2.395 l 7.198,11.563 c 0.813,1.285 1.754,2.982 2.313,4.183 h 0.126 c -0.085,-1.16 -0.126,-2.775 -0.126,-3.934 v -14.206 h 5.225 v 25.804 h -6.539 l -8.753,-13.96 c -0.815,-1.283 -1.669,-2.816 -2.271,-3.975 h -0.085 c 0.043,1.118 0.128,2.444 0.128,3.686 v 14.249 h -5.225 v -25.804 z" />
  <path
     id="path2437"
     d="m 342.119,21.125298 h 5.962 v 25.789 h -5.962 z" />
</svg>
