<?xml version="1.0" encoding="UTF-8" standalone="no"?>
<svg
   xmlns:dc="http://purl.org/dc/elements/1.1/"
   xmlns:cc="http://creativecommons.org/ns#"
   xmlns:rdf="http://www.w3.org/1999/02/22-rdf-syntax-ns#"
   xmlns:svg="http://www.w3.org/2000/svg"
   xmlns="http://www.w3.org/2000/svg"
   xmlns:sodipodi="http://sodipodi.sourceforge.net/DTD/sodipodi-0.dtd"
   xmlns:inkscape="http://www.inkscape.org/namespaces/inkscape"
   inkscape:version="1.0 (4035a4fb49, 2020-05-01)"
   height="73.324997"
   width="440.004"
   sodipodi:docname="TP.svg"
   id="svg202"
   version="1.1"
   viewBox="0 0 440.004 73.324997"
   fill-rule="evenodd"
   clip-rule="evenodd">
  <metadata
     id="metadata208">
    <rdf:RDF>
      <cc:Work
         rdf:about="">
        <dc:format>image/svg+xml</dc:format>
        <dc:type
           rdf:resource="http://purl.org/dc/dcmitype/StillImage" />
        <dc:title></dc:title>
      </cc:Work>
    </rdf:RDF>
  </metadata>
  <defs
     id="defs206" />
  <sodipodi:namedview
     inkscape:current-layer="svg202"
     inkscape:window-maximized="1"
     inkscape:window-y="-8"
     inkscape:window-x="-8"
     inkscape:cy="36.633"
     inkscape:cx="219.999"
     inkscape:zoom="1.8732143"
     fit-margin-bottom="0"
     fit-margin-right="0"
     fit-margin-left="0"
     fit-margin-top="0"
     showgrid="false"
     id="namedview204"
     inkscape:window-height="1027"
     inkscape:window-width="1920"
     inkscape:pageshadow="2"
     inkscape:pageopacity="0"
     guidetolerance="10"
     gridtolerance="10"
     objecttolerance="10"
     borderopacity="1"
     bordercolor="#666666"
     pagecolor="#ffffff" />
  <path
     id="path188"
     fill="#ed1c24"
     d="m 66.662,0 h 35.928 c 14.173,0 25.666,11.721 25.666,26.189 0,14.461 -11.493,26.186 -25.666,26.186 H 87.191 v 20.95 H 66.662 Z m 20.529,20.948 h 15.399 c 2.831,0 5.135,2.346 5.135,5.241 0,2.889 -2.304,5.235 -5.135,5.235 H 87.191 Z" />
  <path
     id="path190"
     fill="#bfd730"
     d="M 15.345,73.325 V 20.948 H 0 V 0 H 66.678 V 73.325 L 62.757,59.989 v 0.243 H 39.728 L 35.874,73.325 Z M 45.886,39.282 h 10.78 L 51.272,20.95 45.885,39.282 Z" />
  <path
     id="path192"
     fill="#46a41a"
     d="M 15.341,73.325 H 35.869 V 20.948 H 51.266 V 0 H 35.872 Z" />
  <path
     id="path194"
     fill="#ba141a"
     d="M 66.662,73.325 H 87.191 L 66.662,0 Z" />
  <path
     id="path196"
     d="m 221.581,52.343 h 4.136 V 39.872 c 1.068,0.303 2.358,0.364 3.769,0.364 4.272,0 7.844,-1.153 10.117,-3.429 1.693,-1.639 2.57,-4.005 2.57,-6.827 0,-2.822 -1.117,-5.098 -2.837,-6.615 -1.942,-1.699 -4.988,-2.701 -9.243,-2.701 -3.623,0 -6.415,0.303 -8.511,0.637 v 31.042 z m 4.136,-28.037 c 1.441,-0.243 2.904,-0.364 4.369,-0.364 4.509,0 7.947,1.79 7.947,6.251 0,4.218 -3.104,6.676 -8.387,6.676 -1.544,0 -2.88,-0.121 -3.929,-0.425 V 24.307 Z m 34.965,28.614 c 8.76,0 16.027,-6.16 16.027,-16.628 0,-9.073 -6.233,-15.9 -15.672,-15.9 -9.176,0 -16,6.858 -16,16.628 0,9.133 6.424,15.9 15.597,15.9 h 0.052 -0.003 z m 0.061,-3.338 c -7.006,0 -11.367,-5.887 -11.367,-12.684 0,-7.04 3.981,-13.169 11.491,-13.169 7.495,0 11.415,6.402 11.415,12.775 0,7.465 -4.391,13.078 -11.491,13.078 h -0.049 z m 19.116,2.761 h 4.118 V 38.779 h 4.57 c 3.799,0.152 5.574,1.851 6.569,6.129 0.913,3.975 1.648,6.554 2.148,7.434 h 4.297 c -0.68,-1.305 -1.453,-4.4 -2.573,-8.83 -0.762,-2.974 -2.258,-5.249 -4.63,-6.129 v -0.121 c 3.268,-1.032 6.09,-3.823 6.09,-7.98 0,-2.458 -0.986,-4.582 -2.506,-5.917 -2.015,-1.821 -4.964,-2.701 -9.583,-2.701 -3.053,0 -6.302,0.273 -8.499,0.698 v 30.981 z m 4.118,-28.037 c 0.756,-0.182 2.306,-0.394 4.643,-0.394 4.324,0 7.683,1.578 7.683,5.826 0,3.55 -2.837,5.856 -7.404,5.856 h -4.922 z m 29.16,28.037 H 317.3 V 24.427 h 10.675 v -3.49 h -25.464 v 3.49 h 10.626 z m 17.275,-31.406 v 17.69 c 0,10.438 5.331,14.292 12.168,14.292 7.383,0 12.905,-4.218 12.905,-14.383 V 20.937 h -4.157 v 17.812 c 0,7.343 -3.374,10.802 -8.542,10.802 -4.764,0 -8.205,-3.368 -8.205,-10.802 V 20.937 Z m 57.319,14.899 h -11.097 v 3.338 h 6.979 v 9.073 c -1.132,0.577 -3.244,1.001 -6.324,1.001 -8.351,0 -13.397,-5.249 -13.397,-12.653 0,-7.222 5.14,-12.502 13.812,-12.502 3.602,0 5.972,0.668 7.883,1.517 l 1.071,-3.368 c -1.456,-0.698 -4.712,-1.608 -8.806,-1.608 -11.949,0 -18.328,7.738 -18.328,16.143 0,4.612 1.687,8.739 4.479,11.379 3.307,3.186 7.592,4.521 12.926,4.521 4.885,0 8.851,-1.214 10.799,-1.942 V 35.836 Z m 22.788,6.494 3.723,10.013 h 4.506 L 407.011,20.937 h -5.076 l -11.616,31.406 h 4.363 l 3.562,-10.013 h 12.274 z m -11.376,-3.277 3.526,-9.467 c 0.649,-1.851 1.138,-3.52 1.617,-5.158 h 0.088 c 0.485,1.608 0.962,3.247 1.699,5.249 l 3.52,9.376 z" />
  <path
     id="path198"
     d="m 421.169,52.362 h 18.835 v -3.541 h -14.68 V 20.945 h -4.158 z" />
  <path
     id="path200"
     d="m 177.241,52.375 h 5.888 V 20.954 h -5.888 z m -13.457,-9.105 3.174,9.105 h 6.465 l -11.22,-31.418 h -7.651 l -10.889,31.418 h 6.176 l 2.95,-9.105 z m -9.955,-4.482 2.725,-7.955 c 0.598,-1.827 1.078,-3.733 1.551,-5.463 h 0.095 c 0.51,1.709 1.05,3.587 1.711,5.496 l 2.807,7.922 h -8.892 z M 195.32,25.847 c 0.698,-0.118 1.936,-0.258 3.827,-0.258 3.138,0 6.874,0.865 6.874,4.992 0,3.111 -2.525,5.044 -6.589,5.044 h -4.112 v -9.779 z m 0,14.599 h 3.724 c 3.429,0.152 4.895,1.544 5.815,5.514 0.801,3.469 1.335,5.347 1.709,6.416 h 6.039 c -0.561,-1.354 -1.232,-4.013 -2.13,-7.551 l -0.17,-0.679 c -0.695,-2.692 -1.924,-4.692 -3.599,-5.879 2.674,-1.357 5.084,-4.015 5.084,-8.134 0,-2.628 -1.02,-5.011 -2.78,-6.535 -2.216,-2.012 -5.339,-2.907 -10.125,-2.907 -3.002,0 -6.312,0.27 -8.647,0.703 l -0.665,0.128 v 30.854 h 5.745 z" />
</svg>
