<?xml version="1.0" encoding="UTF-8" standalone="no"?>
<svg
   xmlns:dc="http://purl.org/dc/elements/1.1/"
   xmlns:cc="http://creativecommons.org/ns#"
   xmlns:rdf="http://www.w3.org/1999/02/22-rdf-syntax-ns#"
   xmlns:svg="http://www.w3.org/2000/svg"
   xmlns="http://www.w3.org/2000/svg"
   xmlns:sodipodi="http://sodipodi.sourceforge.net/DTD/sodipodi-0.dtd"
   xmlns:inkscape="http://www.inkscape.org/namespaces/inkscape"
   inkscape:version="1.0 (4035a4fb49, 2020-05-01)"
   height="72.490997"
   width="400.00601"
   sodipodi:docname="UA.svg"
   id="svg2908"
   version="1.1"
   viewBox="0 0 400.00601 72.490997"
   fill-rule="evenodd"
   clip-rule="evenodd">
  <metadata
     id="metadata2914">
    <rdf:RDF>
      <cc:Work
         rdf:about="">
        <dc:format>image/svg+xml</dc:format>
        <dc:type
           rdf:resource="http://purl.org/dc/dcmitype/StillImage" />
        <dc:title></dc:title>
      </cc:Work>
    </rdf:RDF>
  </metadata>
  <defs
     id="defs2912" />
  <sodipodi:namedview
     inkscape:current-layer="svg2908"
     inkscape:window-maximized="1"
     inkscape:window-y="-8"
     inkscape:window-x="-8"
     inkscape:cy="36.241"
     inkscape:cx="200.005"
     inkscape:zoom="1.8732143"
     fit-margin-bottom="0"
     fit-margin-right="0"
     fit-margin-left="0"
     fit-margin-top="0"
     showgrid="false"
     id="namedview2910"
     inkscape:window-height="1027"
     inkscape:window-width="1920"
     inkscape:pageshadow="2"
     inkscape:pageopacity="0"
     guidetolerance="10"
     gridtolerance="10"
     objecttolerance="10"
     borderopacity="1"
     bordercolor="#666666"
     pagecolor="#ffffff" />
  <g
     transform="translate(-79.995,-163.759)"
     id="g2906"
     fill="#0033a0">
    <path
       id="path2874"
       d="m 477.006,230.221 c -1.673,0 -2.996,1.327 -2.996,2.991 0,1.663 1.323,2.988 2.996,2.988 1.669,0 2.995,-1.324 2.995,-2.988 0,-1.663 -1.326,-2.991 -2.995,-2.991 m 0,5.522 c -1.37,0 -2.542,-1.12 -2.542,-2.531 0,-1.413 1.172,-2.528 2.542,-2.528 1.367,0 2.534,1.114 2.534,2.528 0,1.411 -1.167,2.531 -2.534,2.531" />
    <path
       id="path2876"
       d="m 478.47,232.419 c 0,-0.704 -0.57,-0.864 -1.165,-0.864 h -1.42 v 3.27 h 0.458 v -1.51 h 0.556 l 0.975,1.51 h 0.552 l -0.986,-1.51 c 0.582,-0.018 1.03,-0.25 1.03,-0.896 m -1.571,0.44 h -0.556 v -0.842 h 0.872 c 0.356,0 0.797,0.058 0.797,0.393 0,0.522 -0.716,0.449 -1.113,0.449" />
    <path
       id="path2878"
       d="m 457.819,236.24 c 0.584,-1.584 1.111,-3.278 1.545,-4.997 0.841,-3.492 1.277,-7.107 1.277,-10.791 0,-2.126 -0.147,-4.229 -0.43,-6.299 -0.21,3.016 -0.736,5.66 -0.736,5.66 0.124,0.397 0.343,1.052 0.445,1.456 v 0.001 c -0.326,3.114 -0.914,6.139 -1.737,9.048 -0.396,-1.461 -0.928,-2.868 -0.963,-2.958 l -0.001,-0.005 c -1.067,2.844 -2.663,6.193 -4.111,8.886 h 4.712 z" />
    <path
       id="path2880"
       d="m 447.942,236.24 h 2.724 c 7.754,-11.454 8.144,-21.605 8.144,-23.55 0,-3.674 -0.617,-7.05 -1.649,-9.723 0,0 -1.61,-4.155 -4.114,-7.852 0.273,0.826 0.798,2.501 1.089,3.997 l 0.048,0.269 c 0.494,0.824 2.72,4.749 3.017,9.065 l 10e-4,0.013 c 0,0 -1.572,-2.204 -2.74,-3.596 -0.042,2.373 -0.349,4.747 -0.847,7.04 0,0 2.331,2.699 3.373,4.439 0,0 -0.708,3.797 -2.229,7.435 -1.547,-2.25 -3.522,-4.435 -3.522,-4.435 -1.156,2.858 -2.62,5.733 -4.245,8.392 0,0 2.953,3.455 3.6,4.44 -0.867,1.46 -1.713,2.732 -2.652,4.065" />
    <path
       id="path2882"
       d="m 438.239,236.24 c 5.146,-5.756 9.531,-12.525 12.165,-19.774 2.285,-6.289 3.53,-13.97 1.506,-20.802 -0.136,-0.451 -0.289,-0.906 -0.466,-1.363 -0.647,-1.671 -1.486,-3.128 -2.399,-4.273 -2.461,-2.75 -5.247,-5.201 -8.301,-7.287 0.449,0.579 0.859,1.175 1.214,1.779 0,0 3.718,2.758 5.876,5.56 -2.769,-1.972 -4.337,-2.771 -4.54,-2.872 l -0.023,-0.011 c 1.052,2.592 1.368,4.74 1.368,4.743 0,0 3.285,1.714 6.243,4.276 0.41,1.894 0.579,3.834 0.551,5.778 -2.981,-2.623 -6.431,-4.672 -6.431,-4.672 -0.064,2.221 -0.37,4.471 -0.859,6.657 0,0 3.258,2.063 6.432,4.955 0,0 -0.911,4.098 -2.382,7.321 -3.047,-2.836 -6.016,-5.043 -6.251,-5.216 0,0 -1.512,3.944 -3.962,7.901 3.05,2.653 5.916,5.403 5.916,5.403 -1.75,2.732 -3.732,5.333 -5.87,7.765 v 0.002 l -5.456,-5.433 c -2.216,2.743 -4.647,5.327 -7.227,7.706 l 1.672,1.856 h 11.22 z" />
    <path
       id="path2884"
       d="m 439.637,183.356 c -0.352,-0.482 -0.752,-0.974 -1.21,-1.412 -0.402,-0.383 -0.793,-0.729 -1.206,-1.04 -4.539,-3.422 -12.893,-5.133 -12.893,-5.133 0.797,0.425 1.46,0.861 1.465,0.863 0.041,0.01 3.408,0.854 6.395,2.316 0,0 -2.718,-0.617 -4.46,-0.858 0.72,0.632 1.405,1.362 2.005,2.122 0,0 5.543,1.011 7.977,2.345 0,0 1.165,1.199 2.117,3.302 -3.799,-1.543 -8.101,-2.346 -8.101,-2.346 0.571,1.279 0.981,2.649 1.231,4.076 0,0 4.729,1.157 8.283,2.864 0.307,1.688 0.421,3.432 0.356,5.198 -4.199,-2.105 -8.366,-3.427 -8.366,-3.427 -0.083,1.819 -0.377,3.706 -0.867,5.632 0,0 5.732,2.559 8.306,4.113 -0.569,2.275 -1.367,4.504 -2.327,6.649 -3.922,-2.548 -8.075,-4.815 -8.075,-4.815 -1.042,2.505 -3.608,6.607 -3.608,6.607 h 0.001 l 0.002,0.001 c 0.064,0.045 4.334,2.976 7.609,5.577 -1.627,2.466 -3.462,4.833 -5.458,7.085 -0.69,-0.659 -6.983,-6.247 -6.983,-6.247 -1.9,2.203 -4.015,4.348 -6.331,6.402 l 10e-4,0.001 6.068,6.867 0.002,10e-4 -10e-4,0.001 c -3.935,3.24 -7.858,5.696 -7.858,5.696 l -5.064,-7.188 c 0,0 -3.562,2.71 -9.575,5.556 v 2.083 h 19.745 c 22.04,-16.676 29.861,-40.521 20.819,-52.893" />
    <path
       id="path2886"
       d="m 428.46,180.855 c -5.475,-7.368 -14.042,-6.315 -16.597,-5.958 -2.806,0.393 -4.929,1.008 -4.929,1.008 0.627,0.058 1.481,0.17 2.097,0.293 0.455,-0.107 4.394,-1.005 7.257,-0.63 l 0.009,10e-4 c -2.105,0.228 -4.975,1.096 -5.275,1.188 l -0.007,0.003 0.009,0.003 c 0.103,0.031 0.93,0.282 1.992,0.905 0.311,-0.083 4.209,-1.118 7.925,-1.19 v 0.001 c 0,0 1.374,0.609 2.697,1.517 -4.803,-0.019 -8.779,0.904 -8.887,0.929 0.563,0.5 1.122,1.099 1.625,1.822 5.265,-0.789 9.808,-0.447 9.808,-0.447 0,0 0.618,0.753 0.896,1.158 0.35,0.509 0.709,1.143 0.987,1.7 -5.374,-0.628 -10.513,-0.178 -10.518,-0.178 0.355,0.915 0.595,1.893 0.726,2.922 0.595,-0.004 5.146,0.004 10.943,1.049 0.186,1.329 0.204,2.753 0.058,4.255 -0.985,-0.256 -5.745,-1.445 -10.938,-1.96 -0.104,1.298 -0.351,2.648 -0.731,4.034 0.582,0.137 6.998,1.667 10.591,3.123 l -0.217,0.68 c -0.515,1.543 -1.158,3.092 -1.919,4.637 -2.893,-1.425 -9.99,-4.199 -9.99,-4.199 -0.709,1.587 -1.577,3.194 -2.591,4.797 0,0 6.084,3.472 9.015,5.394 -1.353,1.932 -2.881,3.831 -4.565,5.665 -2.126,-1.906 -7.441,-6.025 -7.842,-6.335 -1.715,2.041 -3.874,4.188 -4.52,4.822 l 6.379,7.315 -0.183,0.16 c -1.38,1.144 -2.867,2.221 -4.124,3.085 -1.091,0.741 -1.992,1.315 -2.303,1.515 -0.074,-0.113 -4.25,-6.781 -4.878,-7.842 -0.458,0.339 -0.921,0.665 -1.383,0.985 v 13.709 c 0.751,-0.362 1.503,-0.737 2.253,-1.135 3.596,-1.771 7.086,-4.018 10.334,-6.614 2.082,-1.652 4.265,-3.592 6.42,-5.83 2.562,-2.626 4.785,-5.379 6.642,-8.167 7.036,-10.385 8.92,-21.212 3.736,-28.189" />
    <path
       id="path2888"
       d="m 414.262,180.3 c -2.608,-2.992 -6.946,-4.016 -11.987,-3.296 l -0.408,0.061 c -0.385,0.066 -0.774,0.144 -1.167,0.231 -0.778,0.18 -1.311,0.359 -1.623,0.479 v 1.51 c 0.496,-0.392 1.004,-0.764 1.525,-1.114 1.005,-0.214 1.981,-0.351 2.922,-0.413 -1.456,0.831 -3.136,1.958 -4.447,2.999 v 1.162 l 0.045,0.026 c 0,0 3.695,-2.925 6.631,-4.186 0.708,0.052 1.386,0.15 2.031,0.299 -4.387,1.861 -7.626,4.169 -7.85,4.331 0.45,0.267 0.861,0.602 0.915,0.646 0.056,-0.036 4.31,-2.696 8.99,-4.29 0.635,0.29 1.248,0.652 1.779,1.061 -5.096,1.432 -9.995,3.99 -9.995,3.99 0.276,0.321 0.519,0.668 0.729,1.04 l 0.088,-0.035 c 5.215,-2.232 10.759,-3.377 10.759,-3.377 0.433,0.594 0.791,1.257 1.063,1.988 0,0 -4.974,0.569 -11.373,2.621 0.282,0.884 0.36,1.548 0.36,1.555 0,0 6.032,-1.349 11.596,-1.499 0.078,0.894 0.049,1.897 -0.078,2.926 -3.295,-0.173 -11.144,0.244 -11.452,0.268 0,0 -0.027,1.131 -0.322,2.195 0,0 5.734,0.183 10.95,1.156 -0.403,1.248 -0.918,2.48 -1.528,3.684 -3.476,-1.044 -8.752,-2.312 -10.14,-2.631 -0.366,0.899 -0.825,1.792 -1.369,2.656 0,0 6.446,2.813 8.92,4.189 h 0.005 l -0.001,0.003 c -1.074,1.607 -3.203,3.857 -3.203,3.857 -0.617,-0.461 -1.201,-0.893 -1.751,-1.297 -1.71,-1.196 -4.246,-2.971 -5.786,-4.045 l -0.013,-0.008 v 5.33 l 3.342,3.906 c -1.1,0.887 -2.222,1.695 -3.342,2.422 v 3.18 l 0.123,-0.08 c 1.527,-1.04 3.036,-2.198 4.505,-3.476 11.534,-10.037 16.261,-23.479 10.557,-30.022" />
    <path
       id="path2890"
       d="m 399.08,195.573 c 2.946,-4.195 3.373,-9.01 0.785,-11.361 -0.243,-0.221 -0.506,-0.41 -0.785,-0.573 z" />
    <path
       id="path2892"
       d="m 415.165,173.023 c 26.14,0 47.407,21.347 47.407,47.586 0,5.321 -0.9,10.617 -2.642,15.641 h 11.637 v -72.491 h -72.491 v 12.091 l 0.057,-0.021 c 5.146,-1.862 10.54,-2.806 16.032,-2.806" />
    <path
       id="path2894"
       d="m 368.752,186.87 c -1.77,-1.576 -4.029,-2.798 -6.778,-3.666 -2.75,-0.869 -6.054,-1.302 -9.915,-1.302 h -19.54 v 36.185 h 19.54 c 6.947,0 12.327,-1.504 16.138,-4.512 3.811,-3.006 5.717,-7.533 5.717,-13.58 0,-2.702 -0.418,-5.172 -1.255,-7.407 -0.837,-2.236 -2.139,-4.141 -3.908,-5.717 m -6.537,17.659 c -0.403,1.222 -1.053,2.203 -1.954,2.942 -0.9,0.742 -2.066,1.271 -3.498,1.593 -1.431,0.322 -3.16,0.482 -5.185,0.482 h -8.539 v -19.105 h 8.539 c 2.089,0 3.851,0.177 5.282,0.53 1.43,0.355 2.589,0.916 3.473,1.689 0.884,0.772 1.521,1.761 1.907,2.967 0.385,1.208 0.578,2.663 0.578,4.368 0,1.801 -0.202,3.312 -0.603,4.535" />
    <path
       id="path2896"
       d="m 290.992,203.223 h 19.78 v -7.092 h -19.78 v -5.982 h 23.495 l -0.192,-8.251 h -33.822 v 36.185 h 34.787 l 0.193,-8.154 h -24.461 v -6.705 z" />
    <path
       id="path2898"
       d="m 227.077,181.902 -0.289,8.539 h 13.847 v 27.645 H 251.2 v -27.645 h 13.847 l -0.24,-8.539 h -37.729 z" />
    <path
       id="path2900"
       d="m 200.064,218.08 h 10.709 v -36.178 h -10.709 z" />
    <path
       id="path2902"
       d="m 170.349,199.894 0.097,3.861 -0.097,0.096 -2.75,-2.798 -19.587,-19.154 h -8.684 v 36.185 h 9.553 v -19.009 l -0.096,-3.909 0.144,-0.047 2.75,2.749 21.324,20.215 h 6.9 v -36.185 h -9.554 v 17.995 z" />
    <path
       id="path2904"
       d="m 110.245,202.306 c 0,2.734 -0.772,4.769 -2.316,6.104 -1.544,1.335 -4.021,2.002 -7.43,2.002 -3.441,0 -5.967,-0.666 -7.575,-2.002 -1.609,-1.335 -2.412,-3.37 -2.412,-6.104 V 181.897 H 79.995 v 20.312 c 0,5.597 1.76,9.77 5.282,12.52 3.522,2.749 8.595,4.124 15.222,4.124 6.657,0 11.692,-1.367 15.102,-4.1 3.408,-2.734 5.113,-6.916 5.113,-12.545 v -20.312 h -10.469 v 20.409 z" />
  </g>
</svg>
