<?xml version="1.0" encoding="UTF-8" standalone="no"?>
<svg
   xmlns:dc="http://purl.org/dc/elements/1.1/"
   xmlns:cc="http://creativecommons.org/ns#"
   xmlns:rdf="http://www.w3.org/1999/02/22-rdf-syntax-ns#"
   xmlns:svg="http://www.w3.org/2000/svg"
   xmlns="http://www.w3.org/2000/svg"
   xmlns:sodipodi="http://sodipodi.sourceforge.net/DTD/sodipodi-0.dtd"
   xmlns:inkscape="http://www.inkscape.org/namespaces/inkscape"
   inkscape:version="1.0 (4035a4fb49, 2020-05-01)"
   height="53.918003"
   width="387.14761"
   sodipodi:docname="VN.svg"
   id="svg3420"
   version="1.1"
   viewBox="0 0 387.14761 53.918003"
   fill-rule="evenodd"
   clip-rule="evenodd">
  <metadata
     id="metadata3426">
    <rdf:RDF>
      <cc:Work
         rdf:about="">
        <dc:format>image/svg+xml</dc:format>
        <dc:type
           rdf:resource="http://purl.org/dc/dcmitype/StillImage" />
        <dc:title></dc:title>
      </cc:Work>
    </rdf:RDF>
  </metadata>
  <defs
     id="defs3424" />
  <sodipodi:namedview
     inkscape:current-layer="svg3420"
     inkscape:window-maximized="1"
     inkscape:window-y="-8"
     inkscape:window-x="-8"
     inkscape:cy="20.5539"
     inkscape:cx="167.14278"
     inkscape:zoom="1.8732143"
     fit-margin-bottom="0"
     fit-margin-right="0"
     fit-margin-left="0"
     fit-margin-top="0"
     showgrid="false"
     id="namedview3422"
     inkscape:window-height="1027"
     inkscape:window-width="1920"
     inkscape:pageshadow="2"
     inkscape:pageopacity="0"
     guidetolerance="10"
     gridtolerance="10"
     objecttolerance="10"
     borderopacity="1"
     bordercolor="#666666"
     pagecolor="#ffffff" />
  <path
     id="path3416"
     fill="#d99e09"
     d="m 44.763106,48.736 c -0.781,0.443 -6.368,5.181 -17.487,5.181 -9.369,0.005 -19.3709995,-4.796 -22.5119995,-4.703 -1.105,-0.047 -1.991,0.177 -2.688,0.485 -1.31000003,0.55 -2.58300003,-0.254 -1.87200003,-1.6 C 2.6691065,43.438 6.8491065,40.57 10.808106,39.374 c 2.889,-0.87 5.526,-1.166 6.897,0.357 3.008,3.339 8.445,7.464 13.733,8.007 0.424,0.042 2.346,0.203 2.367,-0.338 0.021,-0.333 -0.632,-0.548 -1.294,-0.599 -5.4,-0.389 -15.132,-6.17 -20.481,-17.362 -2.008,-4.199 -3.6019995,-8.27 -7.0979995,-10.042 -0.774,-0.373 -0.797,-1.805 0.828,-2.192 1.14,-0.273 8.3239995,-0.963 16.5409995,3.362 3.773,1.984 4.3,3.766 4.311,5.319 -0.033,11.728 5.901,16.385 8.196,17.76 1.275,0.762 2.472,1.089 2.6,0.69 0.103,-0.336 -0.233,-0.562 -0.527,-0.741 -7.116,-4.318 -8.996,-10.963 -9.052,-17.728 -0.051,-6.692 2.425,-12.484 4.183,-17.229 0.259,-0.672 1.094,-3.497 0.385,-6.116 -0.529,-1.952 -0.098,-2.521 0.928,-2.521 1.126,0 2.628,1.826 3.131,2.451 0.406,0.471 1.714,2.068 3.696,5.981 3.922,7.75 3.948,15.848 3.948,16.839 0,5.563 -1.434,6.207 -3.773,7.361 -2.334,1.154 -3.444,2.642 -3.446,4.367 -0.005,1.772 1.229,3.616 3.446,4.267 1.718,0.501 2.807,0.31 2.716,-0.135 -0.07,-0.352 -0.83,-0.441 -1.052,-0.501 -2.341,-0.634 -3.892,-1.833 -3.892,-3.63 0,-2.245 2.768,-3.892 6.657,-3.892 3.894,0 6.662,1.646 6.662,3.892 0,1.798 -1.548,2.999 -3.889,3.63 -0.222,0.061 -0.982,0.149 -1.052,0.501 -0.091,0.45 1,0.639 2.719,0.135 2.215,-0.648 3.449,-2.493 3.446,-4.267 -0.002,-1.723 -1.115,-3.213 -3.446,-4.367 -2.336,-1.154 -3.775,-1.798 -3.775,-7.359 0,-0.991 0.03,-9.091 3.948,-16.842 1.982,-3.91 3.29,-5.51 3.696,-5.981 0.504,-0.625 2.005,-2.451 3.134,-2.451 1.026,0 1.457,0.569 0.926,2.521 -0.702,2.618 0.126,5.444 0.382,6.116 1.76,4.75 4.241,10.537 4.188,17.229 -0.058,6.766 -1.935,13.412 -9.049,17.732 -0.291,0.175 -0.637,0.401 -0.527,0.737 0.124,0.401 1.32,0.077 2.595,-0.688 2.297,-1.376 8.228,-6.034 8.2,-17.763 0.009,-1.553 0.536,-3.334 4.309,-5.319 8.217,-4.325 15.401,-3.63 16.538,-3.362 1.625,0.387 1.607,1.821 0.83,2.192 -3.497,1.772 -5.092,5.845 -7.098,10.042 -5.346,11.192 -15.081,16.974 -20.484,17.366 -0.66,0.047 -1.317,0.263 -1.294,0.597 0.021,0.539 1.942,0.378 2.367,0.336 5.288,-0.541 10.726,-4.663 13.733,-8.007 1.373,-1.518 4.008,-1.226 6.899,-0.352 3.959,1.191 8.137,4.059 10.604,8.723 0.713,1.345 -0.56,2.147 -1.875,1.6 -0.697,-0.305 -1.583,-0.529 -2.688,-0.487 -3.138,-0.091 -13.141,4.708 -22.515,4.705 -11.115,0 -16.699,-4.74 -17.478,-5.183" />
  <path
     id="path3418"
     fill="#005e80"
     d="m 276.48178,25.0759 c 0,-1.914 2.054,-2.931 4.309,-2.931 3.845,0 3.414,3.064 6.16,3.064 1.247,0 2.008,-0.711 2.008,-1.935 0,-2.117 -2.812,-3.521 -7.184,-3.665 -4.185,-0.133 -6.361,0.604 -7.858,1.189 -1.683,0.66 -2.425,1.616 -2.425,3.113 v 20.773 c 0,1.096 0.529,1.096 2.497,1.096 1.956,0 2.493,0 2.493,-1.096 v -19.607 z m -126.255,3.693 c 0.012,-7.886 -6.864,-9.133 -11.847,-9.133 -4.022,0 -7.634,1.017 -9.329,1.765 -1.676,0.744 -1.819,1.669 -1.819,3.201 l 0.012,20.104 c 0,1.094 0.536,1.094 2.495,1.094 1.963,0 2.497,0 2.497,-1.094 l -0.012,-18.56 c 0,-1.641 0.583,-3.903 6.274,-3.903 5.384,0 6.729,3.183 6.729,6.526 l 0.009,15.937 c 0,1.094 0.541,1.094 2.49,1.094 1.968,0 2.5,0 2.5,-1.094 v -15.937 z m 111.486,15.902 c 0,1.094 0.539,1.094 2.486,1.094 1.961,0 2.497,0 2.497,-1.094 l 0.021,-23.671 c 0.021,-1.742 -2.374,-1.303 -3.595,-0.506 -1.371,0.891 -1.413,1.338 -1.413,3.064 l 0.007,21.113 h -0.002 z m -26.415,-13.969 c 0.737,-1.884 5.477,-14.277 5.727,-14.976 0.075,-0.198 0.277,-0.198 0.357,0.005 0.338,0.87 5.123,13.046 5.831,14.932 0.159,0.41 0.212,0.748 -0.331,0.748 h -11.18 c -0.688,0 -0.522,-0.413 -0.403,-0.711 m 13.787,4.575 c 1.697,4.034 4.038,9.655 4.038,9.655 0.294,0.713 0.03,0.888 2.98,0.888 3.124,0 3.313,-0.098 2.698,-1.49 -0.166,-0.375 -12.577,-30.183 -13.265,-31.809 -0.69,-1.63 -0.986,-1.749 -3.57,-1.749 -2.555,0 -2.889,0.068 -3.595,1.749 -0.72,1.711 -13.179,31.65 -13.332,32.025 -0.525,1.273 -0.056,1.273 2.061,1.273 1.982,0 2.213,-0.061 2.588,-0.907 l 3.84,-9.611 c 0.231,-0.583 0.308,-0.816 0.989,-0.816 2.63,0 10.119,0 13.577,-0.012 0.66,-0.002 0.73,0.187 0.991,0.802 m 18.017,-22.722 c -0.277,-1.303 -1.728,-2.096 -3.395,-1.744 -1.669,0.35 -2.667,1.658 -2.39,2.959 0.28,1.299 1.728,2.091 3.397,1.739 1.672,-0.35 2.667,-1.658 2.388,-2.954 m 23.48,32.144 c 0,1.096 0.536,1.096 2.486,1.096 1.959,0 2.5,0 2.5,-1.096 l 0.021,-33.935 c 0.021,-1.737 -2.376,-1.299 -3.6,-0.501 -1.364,0.893 -1.411,1.336 -1.411,3.061 l 0.005,31.375 z m 15.946,-32.137 c -0.28,-1.299 -1.725,-2.091 -3.395,-1.739 -1.672,0.35 -2.67,1.658 -2.39,2.959 0.275,1.299 1.728,2.091 3.395,1.742 1.669,-0.352 2.67,-1.66 2.39,-2.961 m -5.388,32.123 c 0,1.091 0.539,1.091 2.486,1.091 1.959,0 2.497,0 2.497,-1.091 l 0.021,-23.673 c 0.021,-1.739 -2.376,-1.303 -3.602,-0.504 -1.364,0.888 -1.408,1.334 -1.408,3.064 l 0.005,21.113 h 0.002 z m 33.413,-15.89 c 0.014,-7.888 -6.862,-9.135 -11.845,-9.135 -4.027,0 -7.636,1.017 -9.334,1.767 -1.676,0.739 -1.819,1.669 -1.819,3.199 l 0.014,20.106 c 0,1.089 0.539,1.089 2.493,1.089 1.963,0 2.497,0 2.497,-1.089 l -0.005,-18.56 c 0,-1.639 0.581,-3.903 6.27,-3.903 5.379,0 6.729,3.183 6.729,6.526 l 0.012,15.937 c 0,1.089 0.534,1.089 2.486,1.089 1.97,0 2.502,0 2.502,-1.089 z m 52.593,10.019 c -0.196,-8.737 -16.508,-7.135 -16.515,-13.225 -0.002,-2.383 2.448,-3.481 5.102,-3.481 3.822,0 5.085,1.278 5.885,3.136 0.373,0.87 1.126,1.665 2.583,1.665 1.101,0 2.026,-0.699 2.026,-1.984 0,-1.933 -2.686,-5.337 -10.026,-5.386 -6.076,-0.042 -10.192,2.276 -10.199,7.077 -0.007,8.991 16.326,7.072 16.298,13.309 -0.012,2.576 -2.413,3.77 -5.899,3.805 -3.477,0.037 -5.335,-1.373 -6.342,-3.812 -0.49,-0.991 -1.136,-1.884 -2.649,-1.858 -1.366,0.023 -2.178,0.902 -2.178,2.236 0,1.833 3.19,6.093 10.94,6.093 6.347,0 11.082,-2.56 10.973,-7.573 m -313.953004,5.871 c 0,1.091 0.541,1.091 2.488,1.091 1.961,0 2.5,0 2.5,-1.091 l 0.016,-23.673 c 0.023,-1.739 -2.376,-1.303 -3.595,-0.504 -1.371,0.888 -1.411,1.334 -1.411,3.064 z m 92.373004,1.702 c 4.157,0.028 6.268,-0.716 8.767,-1.858 1.87,-0.886 1.87,-1.877 1.87,-3.024 v -14.267 c 0,-5.435 -4.516,-7.694 -9.697,-7.685 -8.452,0.021 -11.815,3.647 -11.95,5.995 -0.07,1.25 0.674,2.166 2.131,2.199 1.42,0.03 2.269,-0.902 2.6,-1.676 1.038,-2.432 2.828,-3.936 6.517,-3.936 2.891,0 5.477,1.327 5.465,4.764 v 1.516 c 0,0.464 0,0.56 -0.406,0.609 -7.611,1.219 -17.497,3.612 -17.497,10.604 0,4.349 5.216,6.755 12.199,6.762 m 5.708,-6.058 c 0,2.637 -3.432,3.334 -5.971,3.334 -4.481,0 -6.708,-1.914 -6.708,-4.442 0,-4.605 5.946,-6.265 12.143,-7.569 0.331,-0.07 0.532,-0.105 0.532,0.364 l 0.007,8.312 h -0.002 z M 78.584776,12.5629 c -0.28,-1.299 -1.728,-2.091 -3.4,-1.739 -1.667,0.35 -2.665,1.658 -2.39,2.959 0.28,1.299 1.732,2.091 3.402,1.742 1.667,-0.352 2.667,-1.66 2.388,-2.961 m 134.656004,32.165 c 0,1.094 0.534,1.084 2.495,1.091 1.954,0.002 2.493,0.002 2.493,-1.091 v -16.921 c 0,-6.729 -6.316,-8.124 -10.056,-8.124 -4.367,0 -6.855,1.25 -8.553,3.131 -1.816,-1.977 -4.241,-3.131 -8.492,-3.131 -2.929,0 -5.785,0.702 -8.34,1.837 -1.849,0.818 -1.849,1.905 -1.849,2.961 v 20.246 c 0,1.094 0.546,1.094 2.495,1.094 1.954,0 2.493,0 2.493,-1.094 l 0.007,-18.858 c 0,-2.814 2.257,-3.586 5.214,-3.586 3.684,0 5.941,1.732 5.941,6.076 v 16.368 c 0,1.094 0.539,1.094 2.497,1.094 1.956,0 2.486,0 2.486,-1.094 v -16.69 c 0,-3.309 1.732,-5.771 5.701,-5.771 3.854,0 5.498,2.514 5.498,5.845 l -0.026,16.615 h -0.002 z M 87.764776,28.7379 c 0.443,-3.113 2.819,-6.561 7.515,-6.599 3.931,-0.033 7.382004,2.357 7.564004,5.871 0.049,1.012 -0.217,1.138 -1.42,1.138 H 88.147776 c -0.371,0 -0.417,-0.166 -0.382,-0.41 m 20.041004,9.378 c 0,-0.448 -0.343,-0.9 -0.975,-0.9 -0.576,0 -0.863,0.203 -1.208,0.802 -1.322,2.241 -4.563,4.866 -8.877004,4.91 -5.827,0.056 -9.191,-4.134 -9.045,-10.604 0,-0.222 0.093,-0.41 0.429,-0.42 0.333,-0.009 9.119,-0.014 17.977004,0.002 1.695,0.002 1.725,-1.124 1.725,-2.052 0,-5.358 -4.994,-10.308 -12.153004,-10.308 -7.431,0 -13.139,4.055 -13.139,13.379 0,9.921 7.415,13.442 13.738,13.442 7.639004,0 11.525004,-5.908 11.525004,-8.252 m 235.234,-9.38 c 0.443,-3.113 2.821,-6.559 7.513,-6.599 3.931,-0.033 7.382,2.36 7.564,5.873 0.051,1.012 -0.212,1.138 -1.42,1.138 h -13.272 c -0.371,0 -0.42,-0.168 -0.385,-0.413 m 20.041,9.38 c 0,-0.45 -0.345,-0.9 -0.977,-0.9 -0.574,0 -0.86,0.203 -1.208,0.8 -1.32,2.243 -4.565,4.869 -8.877,4.913 -5.827,0.054 -9.189,-4.134 -9.045,-10.604 0,-0.222 0.096,-0.41 0.429,-0.42 0.338,-0.009 9.119,-0.014 17.977,0.002 1.7,0.002 1.725,-1.124 1.725,-2.052 0,-5.36 -4.992,-10.308 -12.15,-10.308 -7.431,0 -13.139,4.055 -13.139,13.377 0,9.921 7.417,13.442 13.733,13.442 7.641,0 11.53,-5.906 11.53,-8.249 m -311.391004,5.95 c 0.681,1.63 0.839,1.756 3.439,1.756 2.504,0 2.558,-0.1 3.288,-1.772 0.727,-1.672 10.224,-25.553 12.747,-31.802 0.56,-1.387 0.319,-1.504 -1.919,-1.504 -1.963,0 -2.143,0.114 -2.516,0.958 0,0 -10.644,27.22 -10.875,27.847 -0.054,0.177 -0.282,0.191 -0.378,-0.021 -0.343,-0.774 -11.15,-27.905 -11.15,-27.905 -0.259,-0.693 -0.326,-0.944 -3.248,-0.944 -3.178,0 -2.968,0.305 -2.336,1.872 0.156,0.375 12.262,29.883 12.948,31.515 m 60.938004,-24.077 c -1.168,0.019 -2.758,0.002 -2.758,0.002 -0.788,0 -0.795,0.434 -0.795,1.322 0,0.846 0.002,1.289 0.793,1.289 h 2.761 c 0.569,-0.002 0.585,0.061 0.581,0.653 -0.012,1.247 0,16.289 0,16.289 0,5.932 3.173,6.638 6.309,6.69 3.103,0.042 5.141,-0.874 5.104,-1.97 -0.021,-0.637 -0.441,-0.921 -1.163,-0.839 -0.508,0.058 -0.863,0.212 -1.541,0.212 -1.648,0 -3.714,-0.443 -3.714,-4.052 l -0.002,-16.277 c -0.005,-0.63 0,-0.709 0.627,-0.704 h 4.493 c 0.786,0 0.814,-0.443 0.814,-1.289 0,-0.874 -0.028,-1.327 -0.814,-1.327 h -4.516 c -0.609,-0.002 -0.597,-0.061 -0.602,-0.585 v -5.479 c -0.002,-0.877 -0.669,-1.189 -1.205,-1.143 -0.394,0.035 -0.86,0.289 -1.968,1.012 -1.446,0.947 -1.821,1.551 -1.821,3.276 v 2.294 c -0.002,0.63 -0.026,0.618 -0.581,0.625" />
</svg>
