<?xml version="1.0" encoding="UTF-8" standalone="no"?>
<svg
   xmlns:dc="http://purl.org/dc/elements/1.1/"
   xmlns:cc="http://creativecommons.org/ns#"
   xmlns:rdf="http://www.w3.org/1999/02/22-rdf-syntax-ns#"
   xmlns:svg="http://www.w3.org/2000/svg"
   xmlns="http://www.w3.org/2000/svg"
   xmlns:sodipodi="http://sodipodi.sourceforge.net/DTD/sodipodi-0.dtd"
   xmlns:inkscape="http://www.inkscape.org/namespaces/inkscape"
   inkscape:version="1.0 (4035a4fb49, 2020-05-01)"
   height="64.565002"
   width="440"
   sodipodi:docname="WN.svg"
   id="svg253"
   version="1.1"
   viewBox="0 0 440 64.565002"
   fill-rule="evenodd"
   clip-rule="evenodd">
  <metadata
     id="metadata259">
    <rdf:RDF>
      <cc:Work
         rdf:about="">
        <dc:format>image/svg+xml</dc:format>
        <dc:type
           rdf:resource="http://purl.org/dc/dcmitype/StillImage" />
        <dc:title></dc:title>
      </cc:Work>
    </rdf:RDF>
  </metadata>
  <defs
     id="defs257" />
  <sodipodi:namedview
     inkscape:current-layer="svg253"
     inkscape:window-maximized="1"
     inkscape:window-y="-8"
     inkscape:window-x="-8"
     inkscape:cy="32.283"
     inkscape:cx="220"
     inkscape:zoom="1.8732143"
     fit-margin-bottom="0"
     fit-margin-right="0"
     fit-margin-left="0"
     fit-margin-top="0"
     showgrid="false"
     id="namedview255"
     inkscape:window-height="1027"
     inkscape:window-width="1920"
     inkscape:pageshadow="2"
     inkscape:pageopacity="0"
     guidetolerance="10"
     gridtolerance="10"
     objecttolerance="10"
     borderopacity="1"
     bordercolor="#666666"
     pagecolor="#ffffff" />
  <linearGradient
     x2="1"
     gradientUnits="userSpaceOnUse"
     gradientTransform="matrix(15.457,0,0,15.457,130.944,-143.237)"
     id="a">
    <stop
       id="stop216"
       stop-color="#3656cc"
       offset="0" />
    <stop
       id="stop218"
       stop-color="#304cb2"
       offset=".35" />
    <stop
       id="stop220"
       stop-color="#283b80"
       offset=".72" />
    <stop
       id="stop222"
       stop-color="#283b80"
       offset="1" />
  </linearGradient>
  <linearGradient
     x2="1"
     gradientUnits="userSpaceOnUse"
     gradientTransform="matrix(17.462,12.227,-12.227,17.462,133.139,-155.447)"
     id="b">
    <stop
       id="stop225"
       stop-color="#e61c23"
       offset="0" />
    <stop
       id="stop227"
       stop-color="#e61c23"
       offset=".3" />
    <stop
       id="stop229"
       stop-color="#c3161c"
       offset=".8" />
    <stop
       id="stop231"
       stop-color="#c3161c"
       offset="1" />
  </linearGradient>
  <linearGradient
     x2="1"
     gradientUnits="userSpaceOnUse"
     gradientTransform="matrix(9.984,6.991,-6.991,9.984,143.964,-157.027)"
     id="c">
    <stop
       id="stop234"
       stop-color="#fdbc11"
       offset="0" />
    <stop
       id="stop236"
       stop-color="#fcb415"
       offset=".25" />
    <stop
       id="stop238"
       stop-color="#f89e1c"
       offset=".8" />
    <stop
       id="stop240"
       stop-color="#f89e1c"
       offset="1" />
  </linearGradient>
  <path
     id="path243"
     fill="#304cb2"
     d="m 120.881,51.57 c -1.857,0.413 -4.126,0.619 -6.395,0.619 -6.601,0 -8.045,-2.269 -8.045,-6.601 V 20.628 H 94.064 v 26.404 c 0,11.758 6.601,17.121 19.803,17.121 6.395,0 12.377,-1.238 19.597,-2.888 V 20.627 h -12.583 v 30.942 z m 40.225,1.238 c -4.538,0 -5.157,-2.063 -5.157,-5.57 v -16.09 h 10.314 V 20.628 H 155.949 V 8.251 h -12.377 v 12.377 h -6.188 v 10.314 h 6.188 v 16.915 c 0,7.426 1.444,16.09 13.821,16.09 3.713,0 6.807,-0.825 10.314,-1.857 l -1.238,-10.314 c -1.857,0.619 -3.507,1.031 -5.363,1.031 z M 30.942,29.498 c -2.269,-0.825 -4.951,-1.65 -7.632,-2.475 -7.22,-2.063 -9.489,-3.094 -9.489,-6.395 0,-3.713 2.682,-5.57 9.283,-5.57 5.363,0 10.108,1.444 14.852,3.094 L 40.638,6.188 C 35.068,4.125 29.911,2.269 23.517,2.269 8.665,2.269 0.413,10.727 0.413,20.834 c 0,7.632 3.301,12.583 10.727,15.677 2.063,0.825 4.744,1.65 7.426,2.475 8.045,2.475 10.52,3.713 10.52,6.807 0,3.713 -3.094,5.776 -9.489,5.776 -5.776,0 -11.139,-1.65 -16.709,-4.126 L 0,59.82 c 6.188,2.475 12.171,4.126 19.597,4.126 15.265,0 23.104,-8.458 23.104,-18.772 0,-8.251 -4.744,-12.996 -11.758,-15.677 z m 162.55,-10.933 c -4.126,0 -8.045,1.031 -10.727,1.857 V 0 h -12.377 v 63.947 h 12.377 V 31.973 c 2.269,-0.825 4.744,-1.65 7.839,-1.65 4.744,0 6.601,1.857 6.601,6.395 v 27.229 h 12.377 V 35.274 c 0,-11.346 -5.157,-16.709 -16.09,-16.709 z M 68.073,18.359 c -12.583,0 -22.691,8.87 -22.691,22.691 0,13.821 10.108,23.104 22.691,23.104 12.583,0 22.691,-9.076 22.691,-23.104 0,-14.027 -10.108,-22.691 -22.691,-22.691 z m 0,33.418 c -5.363,0 -9.695,-3.919 -9.695,-10.933 0,-7.014 4.126,-10.727 9.695,-10.727 5.57,0 9.695,3.713 9.695,10.727 0,7.22 -4.332,10.933 -9.695,10.933 z M 345.935,37.544 c -1.857,-0.619 -3.713,-1.238 -5.982,-1.857 -4.332,-1.238 -5.982,-1.857 -5.982,-3.713 0,-1.857 1.65,-3.094 5.57,-3.094 4.126,0 7.839,0.825 11.964,2.063 l 2.063,-10.727 c -4.538,-1.031 -8.87,-1.857 -13.821,-1.857 -11.758,0 -18.153,5.982 -18.153,14.233 0,5.776 2.888,9.489 8.664,11.964 1.65,0.619 3.507,1.444 5.776,2.063 4.538,1.238 6.807,1.857 6.807,3.919 0,2.063 -2.682,2.888 -6.395,2.888 -4.538,0 -8.664,-0.825 -12.996,-2.475 l -1.857,10.727 c 5.363,1.444 10.314,2.475 15.884,2.475 12.377,0 17.947,-6.395 17.947,-14.44 -0.206,-5.57 -2.475,-9.695 -9.489,-12.171 z M 299.522,18.36 c -12.996,0 -22.278,9.076 -22.278,23.516 0,13.408 8.045,22.278 22.485,22.278 6.395,0 11.552,-1.857 16.915,-4.126 l -1.857,-10.314 c -4.126,1.857 -8.251,3.301 -13.202,3.301 -7.426,0 -10.52,-3.094 -10.933,-7.632 H 318.5 c 0,0 0.413,-4.951 0.413,-5.982 0,-11.758 -6.395,-21.041 -19.391,-21.041 z m -8.664,18.772 c 0.825,-3.713 2.682,-8.458 8.045,-8.458 5.363,0 7.014,5.363 7.014,8.458 z m 88.908,15.677 c -4.538,0 -5.157,-2.063 -5.157,-5.57 v -16.09 h 10.314 V 20.629 H 374.609 V 8.252 h -12.377 v 12.377 h -6.395 v 10.52 h 6.395 v 16.915 c 0,7.426 1.857,16.09 14.233,16.09 3.713,0 6.807,-0.825 10.314,-1.857 l -1.444,-10.314 c -2.063,0.413 -3.713,0.825 -5.57,0.825 z m 8.251,-50.333 c -3.094,0 -5.363,2.475 -5.57,5.57 -0.206,3.094 2.475,5.57 5.363,5.57 3.094,0 5.57,-2.475 5.57,-5.57 0,-3.094 -2.269,-5.57 -5.363,-5.57 z m 0,10.108 c -2.475,0 -4.332,-1.857 -4.332,-4.538 0,-2.682 1.857,-4.538 4.538,-4.538 2.475,0 4.538,1.857 4.332,4.538 -0.206,2.682 -2.063,4.538 -4.538,4.538 z m 0.619,-4.332 c 1.031,-0.206 1.65,-0.619 1.65,-1.65 0,-1.031 -0.825,-1.857 -2.063,-1.857 h -2.063 v 6.395 h 1.238 V 8.458 c 0.413,0 0.619,0.206 0.825,0.619 l 1.444,2.063 h 1.444 l -1.238,-2.063 c -0.825,-0.413 -1.031,-0.619 -1.238,-0.825 z m -0.825,-0.619 h -0.619 V 5.776 h 0.825 c 0.825,0 1.031,0.413 1.031,0.825 0,0.825 -0.619,1.031 -1.238,1.031 z m -122.119,12.996 -7.839,23.722 -7.839,-23.722 h -10.727 l -8.045,23.722 -7.839,-23.722 h -13.408 l 15.471,43.319 h 11.346 l 7.839,-23.516 7.839,23.516 h 11.346 l 15.471,-43.319 z" />
  <path
     id="path245"
     fill="#cccccc"
     d="m 426.179,18.152 c -4.126,0 -7.632,1.444 -10.314,2.888 -2.682,-1.444 -5.982,-2.888 -10.314,-2.888 -8.458,0 -13.821,5.363 -13.821,14.852 0,11.346 10.933,22.485 24.135,31.561 C 429.067,55.695 440,44.556 440,33.004 440,23.515 434.43,18.152 426.179,18.152 Z" />
  <path
     style="fill:url(#a)"
     id="path247"
     fill="url(#a)"
     d="m 392.967,33.211 c 0,11.552 12.377,22.485 22.691,29.705 3.094,-2.063 6.188,-4.538 9.076,-7.014 C 410.913,44.35 397.711,33.83 393.173,30.117 c 0,0.825 -0.206,1.857 -0.206,3.094 z" />
  <path
     style="fill:url(#b)"
     id="path249"
     fill="url(#b)"
     d="m 437.73,38.574 c -10.108,-8.251 -16.09,-12.583 -22.691,-16.503 -1.857,-1.031 -5.363,-2.682 -9.283,-2.682 -3.713,0 -7.014,1.238 -9.283,3.507 -1.444,1.444 -2.475,3.301 -2.888,5.57 5.157,3.713 19.391,13.821 33.624,25.166 4.744,-4.538 8.664,-9.695 10.52,-15.059 z" />
  <path
     style="fill:url(#c)"
     id="path251"
     fill="url(#c)"
     d="m 435.049,22.897 c -2.269,-2.269 -5.363,-3.507 -9.076,-3.507 -3.919,0 -6.807,1.238 -9.076,2.475 3.919,2.269 12.377,7.014 21.247,13.615 0.206,-0.825 0.206,-1.857 0.206,-2.682 0.206,-4.126 -1.031,-7.632 -3.301,-9.902 z" />
</svg>
