<?xml version="1.0" encoding="UTF-8" standalone="no"?>
<svg
   xmlns:dc="http://purl.org/dc/elements/1.1/"
   xmlns:cc="http://creativecommons.org/ns#"
   xmlns:rdf="http://www.w3.org/1999/02/22-rdf-syntax-ns#"
   xmlns:svg="http://www.w3.org/2000/svg"
   xmlns="http://www.w3.org/2000/svg"
   xmlns:sodipodi="http://sodipodi.sourceforge.net/DTD/sodipodi-0.dtd"
   xmlns:inkscape="http://www.inkscape.org/namespaces/inkscape"
   inkscape:version="1.0 (4035a4fb49, 2020-05-01)"
   height="125.11726"
   width="603.32983"
   sodipodi:docname="WS.svg"
   xml:space="preserve"
   viewBox="0 0 603.32983 125.11726"
   y="0px"
   x="0px"
   id="Layer_1"
   version="1.1"><metadata
   id="metadata94"><rdf:RDF><cc:Work
       rdf:about=""><dc:format>image/svg+xml</dc:format><dc:type
         rdf:resource="http://purl.org/dc/dcmitype/StillImage" /><dc:title></dc:title></cc:Work></rdf:RDF></metadata><defs
   id="defs92"><clipPath
     id="clipPath106"
     clipPathUnits="userSpaceOnUse"><rect
       y="11.482365"
       x="18.754051"
       height="125.11726"
       width="603.32983"
       id="rect108"
       style="fill:#d71a21" /></clipPath></defs><sodipodi:namedview
   inkscape:current-layer="Layer_1"
   inkscape:window-maximized="1"
   inkscape:window-y="-8"
   inkscape:window-x="-8"
   inkscape:cy="61.517635"
   inkscape:cx="296.74595"
   inkscape:zoom="1.6624406"
   fit-margin-bottom="0"
   fit-margin-right="0"
   fit-margin-left="0"
   fit-margin-top="0"
   showgrid="false"
   id="namedview90"
   inkscape:window-height="1027"
   inkscape:window-width="1920"
   inkscape:pageshadow="2"
   inkscape:pageopacity="0"
   guidetolerance="10"
   gridtolerance="10"
   objecttolerance="10"
   borderopacity="1"
   bordercolor="#666666"
   pagecolor="#ffffff" />
<style
   id="style51"
   type="text/css">
	.st0{fill:#00467F;}
	.st1{fill:#00AC9D;}
	.st2{fill:#FFFFFF;}
	.st3{fill:none;}
</style>
<g
   clip-path="url(#clipPath106)"
   transform="translate(-18.754051,-11.482365)"
   id="g87">
	<g
   id="g83">
		<g
   id="g67">
			<path
   id="path53"
   d="m 143.4,29.9 -29.5,69.6 c -0.8,1.9 -2.6,3.2 -4.8,3.2 H 94.2 L 81.4,67 65.8,99.8 c -0.8,1.8 -2.6,3 -4.7,3 H 46.5 L 20.7,29.9 h 23 L 58.1,76.3 72.7,42.6 68.1,29.8 h 20.6 l 15.7,46.4 17.9,-46.4 z"
   class="st0" />
			<path
   id="path55"
   d="m 201.3,29.9 -1.8,10.4 c -0.4,2.4 -2.6,4.3 -5.1,4.3 h -24.7 l -2.4,13.6 h 28.1 l -1.8,10.4 c -0.4,2.4 -2.6,4.3 -5.1,4.3 h -23.7 l -2.6,15 h 29.1 l -1.8,10.4 c -0.4,2.4 -2.6,4.3 -5.1,4.3 H 138 l 12.7,-72.8 z"
   class="st0" />
			<path
   id="path57"
   d="m 260.8,81.1 c 0,17.2 -21.1,22.7 -35.4,22.7 -12.6,0 -19.5,-2.4 -27.3,-5.8 l 3,-17 c 3.5,3.7 15,7.8 24.8,7.8 5.5,0 12,-2 12,-6.6 0,-11.3 -31.3,-9.8 -31.3,-31.5 0,-12.4 11.6,-21.9 31.3,-21.9 11.4,0 19.5,2.3 24.3,4.4 l -1.7,9.6 c -0.3,2 -2.1,3.4 -4.1,3.4 -0.5,0 -1,-0.1 -1.5,-0.3 -5.7,-2.2 -11,-2.8 -15.2,-2.8 -2.7,0 -10.8,0.5 -10.8,5.9 0.1,10.7 31.9,9.9 31.9,32.1 z"
   class="st0" />
			<path
   id="path59"
   d="M 333.8,29.9 332,40.3 c -0.4,2.4 -2.6,4.3 -5.1,4.3 h -17.3 l -9.4,53.7 c -0.4,2.4 -2.6,4.3 -5.1,4.3 H 277.8 L 288,44.6 H 266.4 L 269,29.9 c 0,0 64.8,0 64.8,0 z"
   class="st0" />
			<path
   id="path61"
   d="M 363.5,29.9 352.1,95.1 C 348,118.3 333.9,129.9 318.9,134 L 307,120 c 10.7,-1.5 20.4,-7.5 23.5,-24.8 L 341.9,30 Z"
   class="st0" />
			<path
   id="path63"
   d="m 425.2,29.9 -1.8,10.4 c -0.4,2.4 -2.6,4.3 -5.1,4.3 h -24.7 l -2.4,13.6 h 28.1 l -1.8,10.4 c -0.4,2.4 -2.6,4.3 -5.1,4.3 h -23.7 l -2.6,15 h 29.1 l -1.8,10.4 c -0.4,2.4 -2.6,4.3 -5.1,4.3 h -46.4 l 12.7,-72.8 z"
   class="st0" />
			<path
   id="path65"
   d="m 495.5,29.9 -1.8,10.4 c -0.4,2.4 -2.6,4.3 -5.1,4.3 h -17.3 l -9.4,53.7 c -0.4,2.4 -2.6,4.3 -5.1,4.3 h -17.3 l 10.2,-58 H 428 l 2.6,-14.7 c 0,0 64.9,0 64.9,0 z"
   class="st0" />
		</g>
		<g
   id="g81">
			<g
   id="g75">
				<path
   id="path69"
   d="M 543.3,61.4 531.8,44.3 c 0,0 -5.2,5.8 -6.3,7.1 -1.2,1.3 -2.3,2.1 -4.2,1.9 -2.4,-0.4 -13.2,-2.6 -13.2,-2.6 0,0 -0.8,13.2 -1,14.5 -0.1,1.3 -0.6,3 -2.9,5 z"
   class="st1" />
				<path
   id="path71"
   d="M 587,51.7 600.6,27 c 0,0 -8.9,3.9 -11.9,5.2 -2.9,1.3 -4.1,1.1 -4.6,-1 -0.4,-2 -2.6,-17.1 -2.7,-18 -0.8,0.9 -15.7,16 -17.8,18 -2.2,2.1 -3.6,2.3 -5.4,1 -1.9,-1.3 -7.5,-5.1 -7.5,-5.1 l -7.1,34.4 z"
   class="st1" />
				<path
   id="path73"
   d="m 612.1,65.2 c 0.9,-1.3 10.8,-14.5 10.8,-14.5 0,0 -12.1,2.3 -14.9,2.6 -2.2,0.3 -2.5,-0.6 -2.6,-1.9 -0.1,-0.7 -0.5,-8 -0.5,-8 l -17.6,8.6 -40.7,48 30.1,4.7 c 0,0 0.1,-4.6 0.2,-8 0.2,-3.4 2.1,-4 3.3,-4.7 1.1,-0.7 35.5,-20.5 35.5,-20.5 l -3.4,-1.9 c -2.3,-1.2 -1.1,-3.1 -0.2,-4.4"
   class="st1" />
			</g>
			<path
   id="path77"
   d="m 499,71.2 c 0,0 14.5,17.1 15.1,17.9 3.4,4.1 3.4,5.7 -0.1,10 -2.8,3.4 -4.5,5.6 -4.5,5.6 0,0 20.2,-3.4 22.9,-3.9 2.6,-0.4 5.2,0.3 4.5,3.8 -0.4,2.4 -2.8,15.7 -2.8,15.7 l 12,-20.4 21.2,-36.1 -63.8,6.9 z"
   class="st0" />
			<polygon
   id="polygon79"
   points="503.6,70.7 504.2,70.2 543.3,61.5 543.7,61.4 587,51.7 587.3,52 546.6,100 546.1,99.9 567.3,63.8 "
   class="st2" />
		</g>
	</g>
	<rect
   id="rect85"
   height="190.89999"
   width="727.40002"
   class="st3"
   y="-21"
   x="-42" />
</g>
</svg>
